%TF.GenerationSoftware,KiCad,Pcbnew,(5.1.6-0-10_14)*%
%TF.CreationDate,2020-11-09T20:44:41+11:00*%
%TF.ProjectId,spartan_mk1,73706172-7461-46e5-9f6d-6b312e6b6963,rev?*%
%TF.SameCoordinates,Original*%
%TF.FileFunction,Copper,L4,Bot*%
%TF.FilePolarity,Positive*%
%FSLAX46Y46*%
G04 Gerber Fmt 4.6, Leading zero omitted, Abs format (unit mm)*
G04 Created by KiCad (PCBNEW (5.1.6-0-10_14)) date 2020-11-09 20:44:41*
%MOMM*%
%LPD*%
G01*
G04 APERTURE LIST*
%TA.AperFunction,ComponentPad*%
%ADD10C,1.450000*%
%TD*%
%TA.AperFunction,ComponentPad*%
%ADD11O,1.200000X1.900000*%
%TD*%
%TA.AperFunction,ComponentPad*%
%ADD12C,6.400000*%
%TD*%
%TA.AperFunction,ComponentPad*%
%ADD13C,0.800000*%
%TD*%
%TA.AperFunction,Conductor*%
%ADD14R,2.950000X4.500000*%
%TD*%
%TA.AperFunction,ViaPad*%
%ADD15C,0.600000*%
%TD*%
%TA.AperFunction,SMDPad,CuDef*%
%ADD16R,0.800000X1.700000*%
%TD*%
%TA.AperFunction,ViaPad*%
%ADD17C,0.800000*%
%TD*%
%TA.AperFunction,ViaPad*%
%ADD18C,0.450000*%
%TD*%
%TA.AperFunction,ViaPad*%
%ADD19C,1.000000*%
%TD*%
%TA.AperFunction,Conductor*%
%ADD20C,0.250000*%
%TD*%
%TA.AperFunction,Conductor*%
%ADD21C,0.300000*%
%TD*%
%TA.AperFunction,Conductor*%
%ADD22C,1.000000*%
%TD*%
%TA.AperFunction,Conductor*%
%ADD23C,0.500000*%
%TD*%
%TA.AperFunction,Conductor*%
%ADD24C,0.200000*%
%TD*%
G04 APERTURE END LIST*
D10*
%TO.P,J1,6*%
%TO.N,Net-(J1-Pad6)*%
X76100000Y-93237500D03*
X81100000Y-93237500D03*
D11*
X75100000Y-95937500D03*
X82100000Y-95937500D03*
%TD*%
%TO.P,R16,2*%
%TO.N,/SPI_ESC_MISO*%
%TA.AperFunction,SMDPad,CuDef*%
G36*
G01*
X58372500Y-78525000D02*
X58027500Y-78525000D01*
G75*
G02*
X57880000Y-78377500I0J147500D01*
G01*
X57880000Y-78082500D01*
G75*
G02*
X58027500Y-77935000I147500J0D01*
G01*
X58372500Y-77935000D01*
G75*
G02*
X58520000Y-78082500I0J-147500D01*
G01*
X58520000Y-78377500D01*
G75*
G02*
X58372500Y-78525000I-147500J0D01*
G01*
G37*
%TD.AperFunction*%
%TO.P,R16,1*%
%TO.N,GND*%
%TA.AperFunction,SMDPad,CuDef*%
G36*
G01*
X58372500Y-79495000D02*
X58027500Y-79495000D01*
G75*
G02*
X57880000Y-79347500I0J147500D01*
G01*
X57880000Y-79052500D01*
G75*
G02*
X58027500Y-78905000I147500J0D01*
G01*
X58372500Y-78905000D01*
G75*
G02*
X58520000Y-79052500I0J-147500D01*
G01*
X58520000Y-79347500D01*
G75*
G02*
X58372500Y-79495000I-147500J0D01*
G01*
G37*
%TD.AperFunction*%
%TD*%
D12*
%TO.P,H3,1*%
%TO.N,GND*%
X90500000Y-60000000D03*
D13*
X92900000Y-60000000D03*
X92197056Y-61697056D03*
X90500000Y-62400000D03*
X88802944Y-61697056D03*
X88100000Y-60000000D03*
X88802944Y-58302944D03*
X90500000Y-57600000D03*
X92197056Y-58302944D03*
%TD*%
D12*
%TO.P,H1,1*%
%TO.N,GND*%
X90500000Y-90500000D03*
D13*
X92900000Y-90500000D03*
X92197056Y-92197056D03*
X90500000Y-92900000D03*
X88802944Y-92197056D03*
X88100000Y-90500000D03*
X88802944Y-88802944D03*
X90500000Y-88100000D03*
X92197056Y-88802944D03*
%TD*%
%TO.P,H2,1*%
%TO.N,GND*%
X61697056Y-88802944D03*
X60000000Y-88100000D03*
X58302944Y-88802944D03*
X57600000Y-90500000D03*
X58302944Y-92197056D03*
X60000000Y-92900000D03*
X61697056Y-92197056D03*
X62400000Y-90500000D03*
D12*
X60000000Y-90500000D03*
%TD*%
D13*
%TO.P,H4,1*%
%TO.N,GND*%
X61697056Y-58302944D03*
X60000000Y-57600000D03*
X58302944Y-58302944D03*
X57600000Y-60000000D03*
X58302944Y-61697056D03*
X60000000Y-62400000D03*
X61697056Y-61697056D03*
X62400000Y-60000000D03*
D12*
X60000000Y-60000000D03*
%TD*%
%TO.P,J18,1*%
%TO.N,/SPI_ESC_SCK*%
%TA.AperFunction,SMDPad,CuDef*%
G36*
G01*
X55400000Y-76300000D02*
X56650000Y-76300000D01*
G75*
G02*
X56800000Y-76450000I0J-150000D01*
G01*
X56800000Y-76750000D01*
G75*
G02*
X56650000Y-76900000I-150000J0D01*
G01*
X55400000Y-76900000D01*
G75*
G02*
X55250000Y-76750000I0J150000D01*
G01*
X55250000Y-76450000D01*
G75*
G02*
X55400000Y-76300000I150000J0D01*
G01*
G37*
%TD.AperFunction*%
%TO.P,J18,2*%
%TO.N,/SPI_ESC_MOSI*%
%TA.AperFunction,SMDPad,CuDef*%
G36*
G01*
X55400000Y-77300000D02*
X56650000Y-77300000D01*
G75*
G02*
X56800000Y-77450000I0J-150000D01*
G01*
X56800000Y-77750000D01*
G75*
G02*
X56650000Y-77900000I-150000J0D01*
G01*
X55400000Y-77900000D01*
G75*
G02*
X55250000Y-77750000I0J150000D01*
G01*
X55250000Y-77450000D01*
G75*
G02*
X55400000Y-77300000I150000J0D01*
G01*
G37*
%TD.AperFunction*%
%TO.P,J18,3*%
%TO.N,/SPI_ESC_MISO*%
%TA.AperFunction,SMDPad,CuDef*%
G36*
G01*
X55400000Y-78300000D02*
X56650000Y-78300000D01*
G75*
G02*
X56800000Y-78450000I0J-150000D01*
G01*
X56800000Y-78750000D01*
G75*
G02*
X56650000Y-78900000I-150000J0D01*
G01*
X55400000Y-78900000D01*
G75*
G02*
X55250000Y-78750000I0J150000D01*
G01*
X55250000Y-78450000D01*
G75*
G02*
X55400000Y-78300000I150000J0D01*
G01*
G37*
%TD.AperFunction*%
%TO.P,J18,4*%
%TO.N,/ESC_1_CS*%
%TA.AperFunction,SMDPad,CuDef*%
G36*
G01*
X55400000Y-79300000D02*
X56650000Y-79300000D01*
G75*
G02*
X56800000Y-79450000I0J-150000D01*
G01*
X56800000Y-79750000D01*
G75*
G02*
X56650000Y-79900000I-150000J0D01*
G01*
X55400000Y-79900000D01*
G75*
G02*
X55250000Y-79750000I0J150000D01*
G01*
X55250000Y-79450000D01*
G75*
G02*
X55400000Y-79300000I150000J0D01*
G01*
G37*
%TD.AperFunction*%
%TO.P,J18,5*%
%TO.N,/ESC_2_CS*%
%TA.AperFunction,SMDPad,CuDef*%
G36*
G01*
X55400000Y-80300000D02*
X56650000Y-80300000D01*
G75*
G02*
X56800000Y-80450000I0J-150000D01*
G01*
X56800000Y-80750000D01*
G75*
G02*
X56650000Y-80900000I-150000J0D01*
G01*
X55400000Y-80900000D01*
G75*
G02*
X55250000Y-80750000I0J150000D01*
G01*
X55250000Y-80450000D01*
G75*
G02*
X55400000Y-80300000I150000J0D01*
G01*
G37*
%TD.AperFunction*%
%TO.P,J18,6*%
%TO.N,/ESC_3_CS*%
%TA.AperFunction,SMDPad,CuDef*%
G36*
G01*
X55400000Y-81300000D02*
X56650000Y-81300000D01*
G75*
G02*
X56800000Y-81450000I0J-150000D01*
G01*
X56800000Y-81750000D01*
G75*
G02*
X56650000Y-81900000I-150000J0D01*
G01*
X55400000Y-81900000D01*
G75*
G02*
X55250000Y-81750000I0J150000D01*
G01*
X55250000Y-81450000D01*
G75*
G02*
X55400000Y-81300000I150000J0D01*
G01*
G37*
%TD.AperFunction*%
%TO.P,J18,7*%
%TO.N,/ESC_4_CS*%
%TA.AperFunction,SMDPad,CuDef*%
G36*
G01*
X55400000Y-82300000D02*
X56650000Y-82300000D01*
G75*
G02*
X56800000Y-82450000I0J-150000D01*
G01*
X56800000Y-82750000D01*
G75*
G02*
X56650000Y-82900000I-150000J0D01*
G01*
X55400000Y-82900000D01*
G75*
G02*
X55250000Y-82750000I0J150000D01*
G01*
X55250000Y-82450000D01*
G75*
G02*
X55400000Y-82300000I150000J0D01*
G01*
G37*
%TD.AperFunction*%
%TO.P,J18,8*%
%TO.N,GND*%
%TA.AperFunction,SMDPad,CuDef*%
G36*
G01*
X55400000Y-83300000D02*
X56650000Y-83300000D01*
G75*
G02*
X56800000Y-83450000I0J-150000D01*
G01*
X56800000Y-83750000D01*
G75*
G02*
X56650000Y-83900000I-150000J0D01*
G01*
X55400000Y-83900000D01*
G75*
G02*
X55250000Y-83750000I0J150000D01*
G01*
X55250000Y-83450000D01*
G75*
G02*
X55400000Y-83300000I150000J0D01*
G01*
G37*
%TD.AperFunction*%
%TO.P,J18,MP*%
%TO.N,N/C*%
%TA.AperFunction,SMDPad,CuDef*%
G36*
G01*
X52849999Y-74700000D02*
X54150001Y-74700000D01*
G75*
G02*
X54400000Y-74949999I0J-249999D01*
G01*
X54400000Y-75650001D01*
G75*
G02*
X54150001Y-75900000I-249999J0D01*
G01*
X52849999Y-75900000D01*
G75*
G02*
X52600000Y-75650001I0J249999D01*
G01*
X52600000Y-74949999D01*
G75*
G02*
X52849999Y-74700000I249999J0D01*
G01*
G37*
%TD.AperFunction*%
%TA.AperFunction,SMDPad,CuDef*%
G36*
G01*
X52849999Y-84300000D02*
X54150001Y-84300000D01*
G75*
G02*
X54400000Y-84549999I0J-249999D01*
G01*
X54400000Y-85250001D01*
G75*
G02*
X54150001Y-85500000I-249999J0D01*
G01*
X52849999Y-85500000D01*
G75*
G02*
X52600000Y-85250001I0J249999D01*
G01*
X52600000Y-84549999D01*
G75*
G02*
X52849999Y-84300000I249999J0D01*
G01*
G37*
%TD.AperFunction*%
%TD*%
%TO.P,R3,2*%
%TO.N,+3V3*%
%TA.AperFunction,SMDPad,CuDef*%
G36*
G01*
X63627500Y-81440000D02*
X63972500Y-81440000D01*
G75*
G02*
X64120000Y-81587500I0J-147500D01*
G01*
X64120000Y-81882500D01*
G75*
G02*
X63972500Y-82030000I-147500J0D01*
G01*
X63627500Y-82030000D01*
G75*
G02*
X63480000Y-81882500I0J147500D01*
G01*
X63480000Y-81587500D01*
G75*
G02*
X63627500Y-81440000I147500J0D01*
G01*
G37*
%TD.AperFunction*%
%TO.P,R3,1*%
%TO.N,/EEPROM_SDA*%
%TA.AperFunction,SMDPad,CuDef*%
G36*
G01*
X63627500Y-80470000D02*
X63972500Y-80470000D01*
G75*
G02*
X64120000Y-80617500I0J-147500D01*
G01*
X64120000Y-80912500D01*
G75*
G02*
X63972500Y-81060000I-147500J0D01*
G01*
X63627500Y-81060000D01*
G75*
G02*
X63480000Y-80912500I0J147500D01*
G01*
X63480000Y-80617500D01*
G75*
G02*
X63627500Y-80470000I147500J0D01*
G01*
G37*
%TD.AperFunction*%
%TD*%
%TO.P,R4,1*%
%TO.N,/EEPROM_SCL*%
%TA.AperFunction,SMDPad,CuDef*%
G36*
G01*
X63972500Y-79680000D02*
X63627500Y-79680000D01*
G75*
G02*
X63480000Y-79532500I0J147500D01*
G01*
X63480000Y-79237500D01*
G75*
G02*
X63627500Y-79090000I147500J0D01*
G01*
X63972500Y-79090000D01*
G75*
G02*
X64120000Y-79237500I0J-147500D01*
G01*
X64120000Y-79532500D01*
G75*
G02*
X63972500Y-79680000I-147500J0D01*
G01*
G37*
%TD.AperFunction*%
%TO.P,R4,2*%
%TO.N,+3V3*%
%TA.AperFunction,SMDPad,CuDef*%
G36*
G01*
X63972500Y-78710000D02*
X63627500Y-78710000D01*
G75*
G02*
X63480000Y-78562500I0J147500D01*
G01*
X63480000Y-78267500D01*
G75*
G02*
X63627500Y-78120000I147500J0D01*
G01*
X63972500Y-78120000D01*
G75*
G02*
X64120000Y-78267500I0J-147500D01*
G01*
X64120000Y-78562500D01*
G75*
G02*
X63972500Y-78710000I-147500J0D01*
G01*
G37*
%TD.AperFunction*%
%TD*%
%TO.P,U2,1*%
%TO.N,GND*%
%TA.AperFunction,SMDPad,CuDef*%
G36*
G01*
X71550000Y-76245000D02*
X71550000Y-76545000D01*
G75*
G02*
X71400000Y-76695000I-150000J0D01*
G01*
X69750000Y-76695000D01*
G75*
G02*
X69600000Y-76545000I0J150000D01*
G01*
X69600000Y-76245000D01*
G75*
G02*
X69750000Y-76095000I150000J0D01*
G01*
X71400000Y-76095000D01*
G75*
G02*
X71550000Y-76245000I0J-150000D01*
G01*
G37*
%TD.AperFunction*%
%TO.P,U2,2*%
%TA.AperFunction,SMDPad,CuDef*%
G36*
G01*
X71550000Y-77515000D02*
X71550000Y-77815000D01*
G75*
G02*
X71400000Y-77965000I-150000J0D01*
G01*
X69750000Y-77965000D01*
G75*
G02*
X69600000Y-77815000I0J150000D01*
G01*
X69600000Y-77515000D01*
G75*
G02*
X69750000Y-77365000I150000J0D01*
G01*
X71400000Y-77365000D01*
G75*
G02*
X71550000Y-77515000I0J-150000D01*
G01*
G37*
%TD.AperFunction*%
%TO.P,U2,3*%
%TA.AperFunction,SMDPad,CuDef*%
G36*
G01*
X71550000Y-78785000D02*
X71550000Y-79085000D01*
G75*
G02*
X71400000Y-79235000I-150000J0D01*
G01*
X69750000Y-79235000D01*
G75*
G02*
X69600000Y-79085000I0J150000D01*
G01*
X69600000Y-78785000D01*
G75*
G02*
X69750000Y-78635000I150000J0D01*
G01*
X71400000Y-78635000D01*
G75*
G02*
X71550000Y-78785000I0J-150000D01*
G01*
G37*
%TD.AperFunction*%
%TO.P,U2,4*%
%TA.AperFunction,SMDPad,CuDef*%
G36*
G01*
X71550000Y-80055000D02*
X71550000Y-80355000D01*
G75*
G02*
X71400000Y-80505000I-150000J0D01*
G01*
X69750000Y-80505000D01*
G75*
G02*
X69600000Y-80355000I0J150000D01*
G01*
X69600000Y-80055000D01*
G75*
G02*
X69750000Y-79905000I150000J0D01*
G01*
X71400000Y-79905000D01*
G75*
G02*
X71550000Y-80055000I0J-150000D01*
G01*
G37*
%TD.AperFunction*%
%TO.P,U2,5*%
%TO.N,/EEPROM_SDA*%
%TA.AperFunction,SMDPad,CuDef*%
G36*
G01*
X66600000Y-80055000D02*
X66600000Y-80355000D01*
G75*
G02*
X66450000Y-80505000I-150000J0D01*
G01*
X64800000Y-80505000D01*
G75*
G02*
X64650000Y-80355000I0J150000D01*
G01*
X64650000Y-80055000D01*
G75*
G02*
X64800000Y-79905000I150000J0D01*
G01*
X66450000Y-79905000D01*
G75*
G02*
X66600000Y-80055000I0J-150000D01*
G01*
G37*
%TD.AperFunction*%
%TO.P,U2,6*%
%TO.N,/EEPROM_SCL*%
%TA.AperFunction,SMDPad,CuDef*%
G36*
G01*
X66600000Y-78785000D02*
X66600000Y-79085000D01*
G75*
G02*
X66450000Y-79235000I-150000J0D01*
G01*
X64800000Y-79235000D01*
G75*
G02*
X64650000Y-79085000I0J150000D01*
G01*
X64650000Y-78785000D01*
G75*
G02*
X64800000Y-78635000I150000J0D01*
G01*
X66450000Y-78635000D01*
G75*
G02*
X66600000Y-78785000I0J-150000D01*
G01*
G37*
%TD.AperFunction*%
%TO.P,U2,7*%
%TO.N,GND*%
%TA.AperFunction,SMDPad,CuDef*%
G36*
G01*
X66600000Y-77515000D02*
X66600000Y-77815000D01*
G75*
G02*
X66450000Y-77965000I-150000J0D01*
G01*
X64800000Y-77965000D01*
G75*
G02*
X64650000Y-77815000I0J150000D01*
G01*
X64650000Y-77515000D01*
G75*
G02*
X64800000Y-77365000I150000J0D01*
G01*
X66450000Y-77365000D01*
G75*
G02*
X66600000Y-77515000I0J-150000D01*
G01*
G37*
%TD.AperFunction*%
%TO.P,U2,8*%
%TO.N,+3V3*%
%TA.AperFunction,SMDPad,CuDef*%
G36*
G01*
X66600000Y-76245000D02*
X66600000Y-76545000D01*
G75*
G02*
X66450000Y-76695000I-150000J0D01*
G01*
X64800000Y-76695000D01*
G75*
G02*
X64650000Y-76545000I0J150000D01*
G01*
X64650000Y-76245000D01*
G75*
G02*
X64800000Y-76095000I150000J0D01*
G01*
X66450000Y-76095000D01*
G75*
G02*
X66600000Y-76245000I0J-150000D01*
G01*
G37*
%TD.AperFunction*%
%TD*%
D14*
%TO.N,GND*%
%TO.C,U6*%
X67461000Y-56436000D03*
D15*
X68061000Y-58236000D03*
X68061000Y-57036000D03*
X66861000Y-57036000D03*
X66861000Y-58236000D03*
X68061000Y-54636000D03*
X68061000Y-55736000D03*
X66861000Y-55736000D03*
X66861000Y-54636000D03*
%TD*%
D16*
%TO.P,SW1,2*%
%TO.N,GND*%
X92400000Y-54200000D03*
%TO.P,SW1,1*%
%TO.N,BOOT0*%
X89000000Y-54200000D03*
%TD*%
D17*
%TO.N,+3V3*%
X81600000Y-68700000D03*
X80300000Y-68700000D03*
X78900000Y-68700000D03*
X77500000Y-68700000D03*
X82500000Y-65900000D03*
X80900000Y-66000000D03*
X80900000Y-67400000D03*
X82500000Y-64700000D03*
X80900000Y-64700000D03*
D18*
X87050000Y-56450000D03*
D17*
X80900000Y-63500000D03*
X82500000Y-63500000D03*
D18*
X60200000Y-70300000D03*
X64800000Y-75600000D03*
X73000000Y-72600000D03*
X59192105Y-75717810D03*
X62300000Y-84200000D03*
X66872712Y-87700530D03*
X63900000Y-87600000D03*
X63000000Y-88000000D03*
X65581002Y-87521814D03*
X64500000Y-82000000D03*
X86500000Y-77300000D03*
X78200000Y-77900000D03*
X83700000Y-72000000D03*
X83000000Y-86800000D03*
X84500000Y-84100000D03*
X78100000Y-75500000D03*
X73000000Y-73300000D03*
X60700000Y-69900000D03*
X61400000Y-69900000D03*
X59100000Y-76300000D03*
X60200000Y-82400000D03*
X64150000Y-76400000D03*
X73900000Y-72750000D03*
X74650000Y-72800000D03*
X63700000Y-77800000D03*
X84900000Y-77500000D03*
X85800000Y-78300000D03*
X79600000Y-78600000D03*
D17*
X94500000Y-75500000D03*
X92900000Y-74600000D03*
D18*
X71900000Y-83800000D03*
D17*
%TO.N,GND*%
X79400000Y-58300000D03*
X81550000Y-58300000D03*
X77900000Y-60600000D03*
D18*
X75050000Y-64450000D03*
X66700000Y-66700000D03*
X72100000Y-69450000D03*
X64500000Y-68850000D03*
D17*
X65100000Y-67050000D03*
D18*
X63600000Y-68750000D03*
D17*
X86700000Y-67650000D03*
D18*
X88800000Y-66550000D03*
D17*
X86700000Y-69400000D03*
X83700000Y-69500000D03*
D18*
X61400000Y-85200000D03*
X60300000Y-85200000D03*
X75600000Y-90200000D03*
X59200000Y-75000000D03*
X62100000Y-94300000D03*
X57700000Y-97100000D03*
X65574573Y-71466525D03*
X86700000Y-76200000D03*
X81000000Y-72000000D03*
X85200000Y-72300000D03*
X64450003Y-77600000D03*
X69300000Y-80200000D03*
X69300000Y-79000000D03*
X69300000Y-77700000D03*
X69300000Y-76400000D03*
X80600000Y-84800000D03*
X80500000Y-84100000D03*
X83800000Y-80800000D03*
X81000000Y-78300000D03*
X64000000Y-94100000D03*
D17*
X56400000Y-68800000D03*
X53400000Y-72400000D03*
X54900000Y-72400000D03*
X56400000Y-72400000D03*
X56400000Y-70600000D03*
D18*
X59000000Y-79800000D03*
X56500000Y-84400000D03*
X87700000Y-84100000D03*
X87700000Y-81200000D03*
X66100000Y-71700000D03*
X62400000Y-69700000D03*
X62500000Y-69000000D03*
X64900000Y-69900000D03*
X59600000Y-74600000D03*
X60300000Y-74400000D03*
X60900000Y-85700000D03*
X74000000Y-89000000D03*
X64000000Y-93400000D03*
X64700000Y-93100000D03*
X61900000Y-95300000D03*
X61200000Y-94200000D03*
X57000000Y-96900000D03*
X56700000Y-96100000D03*
X87700000Y-67700000D03*
X86100000Y-74300000D03*
X86900000Y-74400000D03*
X87400000Y-75600000D03*
X87000000Y-76800000D03*
X70500000Y-80800000D03*
X70550000Y-79550000D03*
X66850000Y-78150000D03*
X80500000Y-77850000D03*
X75400000Y-72850000D03*
X75700000Y-73449980D03*
X78400000Y-73200000D03*
X79100000Y-72600000D03*
X91200000Y-74000000D03*
X91500000Y-72000000D03*
X90800000Y-72400000D03*
D17*
X96800000Y-69100000D03*
X97300000Y-65700000D03*
D18*
X92600000Y-55400000D03*
X93200000Y-54800000D03*
X93200000Y-53700000D03*
D17*
X94475000Y-89456240D03*
X94475000Y-91496009D03*
D18*
X79612500Y-92169791D03*
X80300000Y-92000000D03*
X64800000Y-68100000D03*
D17*
X69800000Y-59600000D03*
D18*
X72400000Y-71200000D03*
X72200000Y-70400000D03*
X71500000Y-71500000D03*
X74500000Y-70200000D03*
X66200000Y-91800000D03*
D17*
X67400000Y-61000000D03*
X61000000Y-53700000D03*
X61000000Y-52800000D03*
X95700000Y-75400000D03*
X95300000Y-72700000D03*
X94475000Y-87800000D03*
D18*
X58200000Y-85000000D03*
X59200000Y-85500000D03*
X75400000Y-84500000D03*
X72400000Y-86000000D03*
X72800000Y-85600000D03*
D19*
%TO.N,+5V*%
X93600000Y-95400000D03*
X91900000Y-69500000D03*
D18*
%TO.N,/V_USB*%
X76244669Y-91955331D03*
X76600000Y-88500000D03*
%TO.N,/SBUS_TX*%
X69000000Y-83000000D03*
X85300000Y-87700000D03*
%TO.N,/UART2_RX*%
X63000000Y-74650003D03*
X95700000Y-78400000D03*
%TO.N,/UART2_TX*%
X92300000Y-77100000D03*
X63648383Y-74100003D03*
%TO.N,/UART3_TX*%
X74448570Y-81947977D03*
X92500000Y-81500000D03*
%TO.N,/UART3_RX*%
X74551667Y-81273256D03*
X94000000Y-78500000D03*
X68665577Y-82442628D03*
X70000000Y-87300000D03*
%TO.N,/UART5_TX*%
X92000000Y-83500000D03*
X76559891Y-83499974D03*
%TO.N,/UART5_RX*%
X94000000Y-81500000D03*
X75450000Y-82299999D03*
%TO.N,/GPIO_1*%
X55500000Y-95100000D03*
X92863909Y-79413909D03*
X75550000Y-75600000D03*
X75500000Y-78900000D03*
%TO.N,/GPIO_2*%
X55650000Y-94450000D03*
X80400000Y-79750000D03*
X71650000Y-82050000D03*
X92600000Y-80100000D03*
%TO.N,/GEN_ADC*%
X63400000Y-75200003D03*
X56250000Y-73800000D03*
%TO.N,/SWDIO*%
X78000000Y-86700000D03*
X74900000Y-85900000D03*
%TO.N,/NRST*%
X68965577Y-78257372D03*
X76700000Y-79900000D03*
X70400000Y-71500000D03*
X69300000Y-74200000D03*
%TO.N,/ESC_DSHOT_1*%
X67000000Y-87050000D03*
X67275000Y-89200000D03*
%TO.N,/ESC_DSHOT_3*%
X66750000Y-82400000D03*
X68595919Y-87704081D03*
%TO.N,/ESC_DSHOT_4*%
X66100000Y-81500000D03*
X69800000Y-92900000D03*
%TO.N,/SPI_ESC_SCK*%
X57900000Y-76600000D03*
%TO.N,/SPI_ESC_MOSI*%
X58900000Y-77600000D03*
%TO.N,/SPI_ESC_MISO*%
X60100000Y-77400000D03*
%TO.N,/ESC_1_CS*%
X66216963Y-87699027D03*
X67100000Y-86000000D03*
X65300000Y-82600000D03*
%TO.N,/ESC_2_CS*%
X62552262Y-83050000D03*
%TO.N,/ESC_3_CS*%
X62763095Y-83675638D03*
%TO.N,/ESC_4_CS*%
X62541404Y-84803512D03*
%TO.N,/SBUS_RX*%
X68977199Y-86022801D03*
X73935999Y-85050001D03*
%TO.N,/GYRO_SCL*%
X77700000Y-76800000D03*
X76550000Y-77950000D03*
%TO.N,/EEPROM_SDA*%
X62900000Y-81400000D03*
%TO.N,/EEPROM_SCL*%
X63000000Y-80500000D03*
%TO.N,/BUZZER*%
X76500000Y-76800000D03*
X74500000Y-78500000D03*
%TO.N,BOOT0*%
X87500000Y-53150000D03*
X84200000Y-70600000D03*
%TO.N,/GYRO_FSYNC*%
X85400000Y-74100000D03*
X62900000Y-78300000D03*
%TO.N,/GYRO_INT*%
X85400000Y-73400000D03*
X60000000Y-79585998D03*
%TO.N,/CURR_SENSE*%
X67700000Y-82800000D03*
X71425000Y-89700000D03*
%TO.N,/STM32 Controller/USER_LED_1*%
X72000000Y-73900000D03*
X73500000Y-71600000D03*
%TO.N,/STM32 Controller/USER_LED_2*%
X65930000Y-85840000D03*
X66100000Y-89400000D03*
%TD*%
D20*
%TO.N,+3V3*%
X65595000Y-76395000D02*
X64800000Y-75600000D01*
X65625000Y-76395000D02*
X65595000Y-76395000D01*
X63800000Y-81735000D02*
X63800000Y-81900000D01*
X64235000Y-81735000D02*
X64500000Y-82000000D01*
X63800000Y-81735000D02*
X64235000Y-81735000D01*
D21*
X65625000Y-76395000D02*
X64155000Y-76395000D01*
X64155000Y-76395000D02*
X64150000Y-76400000D01*
D20*
X63800000Y-78415000D02*
X63800000Y-78275099D01*
X63800000Y-77900000D02*
X63700000Y-77800000D01*
X63800000Y-78415000D02*
X63800000Y-77900000D01*
%TO.N,GND*%
X64515003Y-77665000D02*
X64450003Y-77600000D01*
X65625000Y-77665000D02*
X64515003Y-77665000D01*
X69305000Y-80205000D02*
X69300000Y-80200000D01*
X70575000Y-80205000D02*
X69305000Y-80205000D01*
X69365000Y-78935000D02*
X69300000Y-79000000D01*
X70575000Y-78935000D02*
X69365000Y-78935000D01*
X69335000Y-77665000D02*
X69300000Y-77700000D01*
X70575000Y-77665000D02*
X69335000Y-77665000D01*
X69305000Y-76395000D02*
X69300000Y-76400000D01*
X70575000Y-76395000D02*
X69305000Y-76395000D01*
X58400000Y-79200000D02*
X59000000Y-79800000D01*
X58200000Y-79200000D02*
X58400000Y-79200000D01*
X56025000Y-83925000D02*
X56500000Y-84400000D01*
X56025000Y-83600000D02*
X56025000Y-83925000D01*
D21*
X70575000Y-80725000D02*
X70500000Y-80800000D01*
X70575000Y-80205000D02*
X70575000Y-80725000D01*
X70575000Y-79525000D02*
X70550000Y-79550000D01*
X70575000Y-78935000D02*
X70575000Y-79525000D01*
X66365000Y-77665000D02*
X66850000Y-78150000D01*
X65625000Y-77665000D02*
X66365000Y-77665000D01*
D20*
X92400000Y-55200000D02*
X92600000Y-55400000D01*
X92400000Y-54200000D02*
X92400000Y-55200000D01*
X92600000Y-54200000D02*
X93200000Y-54800000D01*
X92400000Y-54200000D02*
X92600000Y-54200000D01*
X92700000Y-54200000D02*
X93200000Y-53700000D01*
X92400000Y-54200000D02*
X92700000Y-54200000D01*
D22*
%TO.N,+5V*%
X96625001Y-92374999D02*
X96625001Y-79674999D01*
X93600000Y-95400000D02*
X96625001Y-92374999D01*
X96625001Y-79674999D02*
X96800000Y-79500000D01*
X96800000Y-79500000D02*
X96800000Y-72300000D01*
X96800000Y-72300000D02*
X94600000Y-70100000D01*
X94600000Y-70100000D02*
X93900000Y-70100000D01*
X92500000Y-70100000D02*
X91900000Y-69500000D01*
X93900000Y-70100000D02*
X92500000Y-70100000D01*
D21*
%TO.N,/V_USB*%
X76244669Y-91955331D02*
X76244669Y-90955331D01*
X76244669Y-90955331D02*
X76800000Y-90400000D01*
X76800000Y-88700000D02*
X76600000Y-88500000D01*
X76800000Y-90400000D02*
X76800000Y-88700000D01*
D23*
%TO.N,Net-(J1-Pad6)*%
X81100000Y-94937500D02*
X82100000Y-95937500D01*
X81100000Y-93237500D02*
X81100000Y-94937500D01*
D20*
%TO.N,/SBUS_TX*%
X74985998Y-83000000D02*
X76485998Y-84500000D01*
X69000000Y-83000000D02*
X74985998Y-83000000D01*
D21*
X76485998Y-84500000D02*
X77100000Y-84500000D01*
X77100000Y-84500000D02*
X79500000Y-86900000D01*
X79500000Y-86900000D02*
X80300000Y-87700000D01*
X80300000Y-87700000D02*
X85300000Y-87700000D01*
D20*
%TO.N,/UART2_RX*%
X87700000Y-74900000D02*
X90700000Y-77900000D01*
X63000000Y-74650003D02*
X64299585Y-74650003D01*
X87700000Y-73985998D02*
X87700000Y-74900000D01*
X64299585Y-74650003D02*
X64499598Y-74449990D01*
X64499598Y-74449990D02*
X65100403Y-74449991D01*
X65100403Y-74449991D02*
X65900402Y-75249990D01*
X81513600Y-74449990D02*
X83313600Y-72649990D01*
X65900402Y-75249990D02*
X74413600Y-75249990D01*
X85464001Y-71749999D02*
X87700000Y-73985998D01*
X74413600Y-75249990D02*
X75213600Y-74449990D01*
X75213600Y-74449990D02*
X81513600Y-74449990D01*
X84036008Y-72649990D02*
X84935999Y-71749999D01*
X83313600Y-72649990D02*
X84036008Y-72649990D01*
X84935999Y-71749999D02*
X85464001Y-71749999D01*
X93749999Y-77949999D02*
X94549999Y-77949999D01*
X93700000Y-77900000D02*
X93749999Y-77949999D01*
X90700000Y-77900000D02*
X93700000Y-77900000D01*
X95000000Y-78400000D02*
X95700000Y-78400000D01*
X94549999Y-77949999D02*
X95000000Y-78400000D01*
%TO.N,/UART2_TX*%
X65286803Y-73999981D02*
X66086802Y-74799980D01*
X74227200Y-74799980D02*
X75027200Y-73999980D01*
X66086802Y-74799980D02*
X74227200Y-74799980D01*
X75027200Y-73999980D02*
X81327200Y-73999980D01*
X83586009Y-71299989D02*
X85650402Y-71299990D01*
X83149999Y-72177181D02*
X83149999Y-71735999D01*
X83149999Y-71735999D02*
X83586009Y-71299989D01*
X81327200Y-73999980D02*
X83149999Y-72177181D01*
X88200000Y-74500000D02*
X88150010Y-74549990D01*
X88200000Y-73849588D02*
X88200000Y-74500000D01*
X85650402Y-71299990D02*
X88200000Y-73849588D01*
X88150010Y-74549990D02*
X88150010Y-74713600D01*
X90536410Y-77100000D02*
X92300000Y-77100000D01*
X88150010Y-74713600D02*
X90536410Y-77100000D01*
X63748405Y-73999981D02*
X63648383Y-74100003D01*
X65286803Y-73999981D02*
X63748405Y-73999981D01*
%TO.N,/UART3_TX*%
X74448570Y-81947977D02*
X74448570Y-81948570D01*
X76249999Y-81749999D02*
X76999979Y-82499979D01*
X74936516Y-81749999D02*
X76249999Y-81749999D01*
X74686515Y-82000000D02*
X74936516Y-81749999D01*
X74500000Y-82000000D02*
X74686515Y-82000000D01*
X74448570Y-81948570D02*
X74500000Y-82000000D01*
X91500021Y-82499979D02*
X92500000Y-81500000D01*
X76999979Y-82499979D02*
X91500021Y-82499979D01*
%TO.N,/UART3_RX*%
X76409666Y-81273256D02*
X77136410Y-82000000D01*
X74551667Y-81273256D02*
X76409666Y-81273256D01*
X77136410Y-82000000D02*
X89500000Y-82000000D01*
X89500000Y-82000000D02*
X93000000Y-78500000D01*
X93000000Y-78500000D02*
X94000000Y-78500000D01*
D24*
X68452198Y-82656007D02*
X68452198Y-86252198D01*
X68665577Y-82442628D02*
X68452198Y-82656007D01*
X69500000Y-87300000D02*
X70000000Y-87300000D01*
X68452198Y-86252198D02*
X69500000Y-87300000D01*
D20*
%TO.N,/UART5_TX*%
X76559917Y-83500000D02*
X76559891Y-83499974D01*
X92000000Y-83500000D02*
X76559917Y-83500000D01*
%TO.N,/UART5_RX*%
X93500000Y-81500000D02*
X94000000Y-81500000D01*
X92050011Y-82949989D02*
X93500000Y-81500000D01*
X76563991Y-82949989D02*
X92050011Y-82949989D01*
X75914002Y-82300000D02*
X76563991Y-82949989D01*
X75450001Y-82300000D02*
X75450000Y-82299999D01*
X75914002Y-82300000D02*
X75450001Y-82300000D01*
%TO.N,/GPIO_1*%
X63949990Y-96300010D02*
X60963600Y-96300010D01*
X64750000Y-95500000D02*
X63949990Y-96300010D01*
X59763590Y-95100000D02*
X55500000Y-95100000D01*
X74200000Y-95000000D02*
X74200000Y-95300000D01*
X74700000Y-94500000D02*
X74200000Y-95000000D01*
X77500000Y-94500000D02*
X74700000Y-94500000D01*
X78500000Y-93500000D02*
X77500000Y-94500000D01*
X74000000Y-95500000D02*
X64750000Y-95500000D01*
X78500000Y-92400000D02*
X78500000Y-93500000D01*
X74200000Y-95300000D02*
X74000000Y-95500000D01*
X79635999Y-91249999D02*
X79635999Y-91264001D01*
X87000000Y-95000000D02*
X83249999Y-91249999D01*
X79635999Y-91264001D02*
X78500000Y-92400000D01*
X94499999Y-92650001D02*
X92150000Y-95000000D01*
X94764001Y-92650001D02*
X94499999Y-92650001D01*
X95200000Y-92214002D02*
X94764001Y-92650001D01*
X60963600Y-96300010D02*
X59763590Y-95100000D01*
X93364321Y-79413909D02*
X95200000Y-81249588D01*
X83249999Y-91249999D02*
X79635999Y-91249999D01*
X92150000Y-95000000D02*
X87000000Y-95000000D01*
X95200000Y-81249588D02*
X95200000Y-92214002D01*
X92863909Y-79413909D02*
X93364321Y-79413909D01*
%TO.N,/GPIO_2*%
X55650000Y-94450000D02*
X55968198Y-94450000D01*
X80400000Y-79750000D02*
X79150000Y-79750000D01*
X78176745Y-80723255D02*
X74276745Y-80723255D01*
X79150000Y-79750000D02*
X78176745Y-80723255D01*
X74276745Y-80723255D02*
X72950000Y-82050000D01*
X72950000Y-82050000D02*
X71650000Y-82050000D01*
X92600000Y-80100000D02*
X93414002Y-80100000D01*
X94550001Y-81235999D02*
X94550001Y-81899999D01*
X93414002Y-80100000D02*
X94550001Y-81235999D01*
X94550001Y-81899999D02*
X90300000Y-86150000D01*
X90300000Y-86150000D02*
X88950000Y-86150000D01*
X88950000Y-86150000D02*
X85250000Y-89850000D01*
X85250000Y-89850000D02*
X79400000Y-89850000D01*
X77499999Y-87949999D02*
X75800001Y-87949999D01*
X79400000Y-89850000D02*
X77499999Y-87949999D01*
X75800001Y-87949999D02*
X74600000Y-89150000D01*
X74600000Y-89150000D02*
X74600000Y-89850000D01*
X74600000Y-89850000D02*
X69700000Y-94750000D01*
X62164002Y-95850000D02*
X61150000Y-95850000D01*
X63264002Y-94750000D02*
X62164002Y-95850000D01*
X69700000Y-94750000D02*
X63264002Y-94750000D01*
X59849999Y-94549999D02*
X56068197Y-94549999D01*
X56068197Y-94549999D02*
X55968198Y-94450000D01*
X61150000Y-95850000D02*
X59849999Y-94549999D01*
%TO.N,/GEN_ADC*%
X63400000Y-75200003D02*
X62450004Y-75200004D01*
X62449999Y-75199999D02*
X62149999Y-75199999D01*
X62450004Y-75200004D02*
X62449999Y-75199999D01*
X62149999Y-75199999D02*
X61750000Y-74800000D01*
X61750000Y-74800000D02*
X61750000Y-73700000D01*
X61750000Y-73700000D02*
X60600000Y-72550000D01*
X60600000Y-72550000D02*
X57800000Y-72550000D01*
X56550000Y-73800000D02*
X56250000Y-73800000D01*
X57800000Y-72550000D02*
X56550000Y-73800000D01*
%TO.N,/SWDIO*%
X78000000Y-86700000D02*
X76400000Y-86700000D01*
X75600000Y-85900000D02*
X74900000Y-85900000D01*
X76400000Y-86700000D02*
X75600000Y-85900000D01*
%TO.N,/NRST*%
X69609990Y-78309990D02*
X72009990Y-78309990D01*
X69557372Y-78257372D02*
X69609990Y-78309990D01*
X68965577Y-78257372D02*
X69557372Y-78257372D01*
X73600000Y-79900000D02*
X76700000Y-79900000D01*
X72009990Y-78309990D02*
X73600000Y-79900000D01*
X70400000Y-71500000D02*
X70400000Y-73600000D01*
X69800000Y-74200000D02*
X69300000Y-74200000D01*
X70400000Y-73600000D02*
X69800000Y-74200000D01*
D24*
%TO.N,/ESC_DSHOT_1*%
X67000000Y-87050816D02*
X67000000Y-87050000D01*
X67397713Y-87448529D02*
X67000000Y-87050816D01*
X67397713Y-89077287D02*
X67397713Y-87448529D01*
X67275000Y-89200000D02*
X67397713Y-89077287D01*
D20*
%TO.N,/ESC_DSHOT_3*%
X66750000Y-82400000D02*
X66750000Y-84750000D01*
D24*
X66750000Y-84750000D02*
X66750000Y-84850000D01*
X66750000Y-84850000D02*
X67500000Y-85600000D01*
X67500000Y-85622998D02*
X67652180Y-85775178D01*
X67500000Y-85600000D02*
X67500000Y-85622998D01*
X67652180Y-86760342D02*
X68595919Y-87704081D01*
X67652180Y-85775178D02*
X67652180Y-86760342D01*
%TO.N,/ESC_DSHOT_4*%
X69800000Y-92800000D02*
X69800000Y-92900000D01*
D20*
X66500000Y-91200000D02*
X68100000Y-91200000D01*
X64549984Y-89249984D02*
X66500000Y-91200000D01*
X68100000Y-91200000D02*
X69800000Y-92900000D01*
X64549984Y-86150016D02*
X64549984Y-89249984D01*
X65600000Y-85400000D02*
X65300000Y-85400000D01*
X66200000Y-84800000D02*
X65600000Y-85400000D01*
X66200000Y-81600000D02*
X66200000Y-84800000D01*
X65300000Y-85400000D02*
X64549984Y-86150016D01*
X66100000Y-81500000D02*
X66200000Y-81600000D01*
%TO.N,/SPI_ESC_SCK*%
X57900000Y-76600000D02*
X56025000Y-76600000D01*
%TO.N,/SPI_ESC_MOSI*%
X58900000Y-77600000D02*
X56025000Y-77600000D01*
%TO.N,/SPI_ESC_MISO*%
X59270000Y-78230000D02*
X58200000Y-78230000D01*
X60100000Y-77400000D02*
X59270000Y-78230000D01*
X58200000Y-78230000D02*
X57670000Y-78230000D01*
X57300000Y-78600000D02*
X56025000Y-78600000D01*
X57670000Y-78230000D02*
X57300000Y-78600000D01*
%TO.N,/ESC_1_CS*%
X66216963Y-86883037D02*
X67100000Y-86000000D01*
X66216963Y-87699027D02*
X66216963Y-86883037D01*
X62916264Y-82600000D02*
X62816264Y-82500000D01*
X65300000Y-82600000D02*
X62916264Y-82600000D01*
X58000000Y-79900000D02*
X57500000Y-79900000D01*
X57500000Y-79900000D02*
X57200000Y-79600000D01*
X57200000Y-79600000D02*
X56025000Y-79600000D01*
X62816264Y-82500000D02*
X61400000Y-82500000D01*
X61400000Y-82500000D02*
X60600000Y-81700000D01*
X59800000Y-81700000D02*
X58000000Y-79900000D01*
X60600000Y-81700000D02*
X59800000Y-81700000D01*
%TO.N,/ESC_2_CS*%
X60050000Y-83050000D02*
X57600000Y-80600000D01*
X57600000Y-80600000D02*
X56025000Y-80600000D01*
X62552262Y-83050000D02*
X60050000Y-83050000D01*
%TO.N,/ESC_3_CS*%
X57600000Y-81600000D02*
X56025000Y-81600000D01*
X62687457Y-83600000D02*
X59600000Y-83600000D01*
X59600000Y-83600000D02*
X57600000Y-81600000D01*
X62763095Y-83675638D02*
X62687457Y-83600000D01*
D21*
%TO.N,/ESC_4_CS*%
X62052510Y-84803512D02*
X61548998Y-84300000D01*
X62541404Y-84803512D02*
X62052510Y-84803512D01*
X61548998Y-84300000D02*
X60100000Y-84300000D01*
D20*
X60100000Y-84300000D02*
X59100000Y-84300000D01*
X57400000Y-82600000D02*
X56025000Y-82600000D01*
X59100000Y-84300000D02*
X57400000Y-82600000D01*
%TO.N,/SBUS_RX*%
X68977199Y-86022801D02*
X69977199Y-86022801D01*
X73349999Y-84464001D02*
X73935999Y-85050001D01*
X71535999Y-84464001D02*
X73349999Y-84464001D01*
X69977199Y-86022801D02*
X71535999Y-84464001D01*
X73935999Y-85050001D02*
X73935999Y-85050001D01*
%TO.N,/GYRO_SCL*%
X77700000Y-76800000D02*
X76550000Y-77950000D01*
%TO.N,/EEPROM_SDA*%
X64360000Y-80205000D02*
X63800000Y-80765000D01*
X65625000Y-80205000D02*
X64360000Y-80205000D01*
X63535000Y-80765000D02*
X62900000Y-81400000D01*
X63800000Y-80765000D02*
X63535000Y-80765000D01*
%TO.N,/EEPROM_SCL*%
X65175000Y-79385000D02*
X63800000Y-79385000D01*
X65625000Y-78935000D02*
X65175000Y-79385000D01*
X63800000Y-79700000D02*
X63000000Y-80500000D01*
X63800000Y-79385000D02*
X63800000Y-79700000D01*
%TO.N,/BUZZER*%
X74800000Y-78500000D02*
X74500000Y-78500000D01*
X76500000Y-76800000D02*
X74800000Y-78500000D01*
D21*
%TO.N,BOOT0*%
X89000000Y-54200000D02*
X89000000Y-53450000D01*
X88700000Y-53150000D02*
X87500000Y-53150000D01*
X89000000Y-53450000D02*
X88700000Y-53150000D01*
D20*
X84500000Y-55200000D02*
X86550000Y-53150000D01*
X86550000Y-53150000D02*
X87500000Y-53150000D01*
X84500000Y-70300000D02*
X84500000Y-55200000D01*
X84200000Y-70600000D02*
X84500000Y-70300000D01*
%TO.N,/GYRO_FSYNC*%
X85400000Y-74100000D02*
X83200000Y-74100000D01*
X83200000Y-74100000D02*
X81100000Y-76200000D01*
X81100000Y-76200000D02*
X72900000Y-76200000D01*
X62900000Y-77685998D02*
X62900000Y-78300000D01*
X63546008Y-77039990D02*
X62900000Y-77685998D01*
X72060010Y-77039990D02*
X63546008Y-77039990D01*
X72900000Y-76200000D02*
X72060010Y-77039990D01*
%TO.N,/GYRO_INT*%
X85400000Y-73400000D02*
X85100000Y-73100000D01*
X85100000Y-73100000D02*
X83500000Y-73100000D01*
X83500000Y-73100000D02*
X81700000Y-74900000D01*
X64685998Y-74900000D02*
X60000000Y-79585998D01*
X75800001Y-74999999D02*
X75300001Y-74999999D01*
X75900000Y-74900000D02*
X75800001Y-74999999D01*
X81700000Y-74900000D02*
X75900000Y-74900000D01*
X75300001Y-74999999D02*
X74600000Y-75700000D01*
X74600000Y-75700000D02*
X65714002Y-75700000D01*
X64914002Y-74900000D02*
X64685998Y-74900000D01*
X65714002Y-75700000D02*
X64914002Y-74900000D01*
D24*
%TO.N,/CURR_SENSE*%
X68000000Y-83100000D02*
X67700000Y-82800000D01*
X68052190Y-83152190D02*
X68000000Y-83100000D01*
X68052190Y-86417888D02*
X68052190Y-83152190D01*
X69099990Y-87465688D02*
X68052190Y-86417888D01*
X69334311Y-87700010D02*
X69099990Y-87465688D01*
X69900000Y-88175000D02*
X69900000Y-88000000D01*
X69600010Y-87700010D02*
X69334311Y-87700010D01*
X69900000Y-88000000D02*
X69600010Y-87700010D01*
X71425000Y-89700000D02*
X69900000Y-88175000D01*
D20*
%TO.N,/STM32 Controller/USER_LED_1*%
X72000000Y-73900000D02*
X72000000Y-72600000D01*
X73000000Y-71600000D02*
X73500000Y-71600000D01*
X72000000Y-72600000D02*
X73000000Y-71600000D01*
%TO.N,/STM32 Controller/USER_LED_2*%
X65930000Y-85840000D02*
X65930000Y-86358814D01*
X65031001Y-87257813D02*
X65031001Y-87931001D01*
X65930000Y-86358814D02*
X65031001Y-87257813D01*
X66100000Y-89000000D02*
X66100000Y-89400000D01*
X65031001Y-87931001D02*
X66100000Y-89000000D01*
%TD*%
M02*
