M48
; DRILL file {KiCad (5.1.6-0-10_14)} date Monday, November 09, 2020 at 06:58:27 PM
; FORMAT={3:3/ absolute / metric / suppress leading zeros}
; #@! TF.CreationDate,2020-11-09T18:58:27+11:00
; #@! TF.GenerationSoftware,Kicad,Pcbnew,(5.1.6-0-10_14)
FMAT,2
METRIC,TZ
T1C0.200
T2C0.300
T3C0.400
T4C0.500
T5C0.600
T6C0.700
T7C0.850
T8C3.200
%
G90
G05
T1
X55500Y-95100
X55650Y-94450
X56250Y-73800
X56500Y-84400
X56700Y-96100
X57000Y-96900
X57700Y-97100
X57900Y-76600
X58200Y-85000
X58900Y-77600
X59000Y-79800
X59100Y-76300
X59192Y-75718
X59200Y-75000
X59200Y-85500
X59600Y-74600
X60000Y-79586
X60100Y-77400
X60200Y-70300
X60200Y-82400
X60300Y-74400
X60300Y-85200
X60700Y-69900
X60900Y-85700
X61200Y-94200
X61400Y-69900
X61400Y-85200
X61900Y-95300
X62100Y-94300
X62300Y-84200
X62400Y-69700
X62500Y-69000
X62541Y-84804
X62552Y-83050
X62763Y-83676
X62900Y-78300
X62900Y-81400
X63000Y-74650
X63000Y-80500
X63000Y-88000
X63400Y-75200
X63600Y-68750
X63648Y-74100
X63700Y-77800
X63900Y-87600
X64000Y-93400
X64000Y-94100
X64150Y-76400
X64450Y-77600
X64500Y-68850
X64500Y-82000
X64700Y-93100
X64800Y-68100
X64800Y-75600
X64900Y-69900
X65300Y-82600
X65575Y-71467
X65581Y-87522
X65930Y-85840
X66100Y-71700
X66100Y-81500
X66100Y-89400
X66200Y-91800
X66217Y-87699
X66700Y-66700
X66750Y-82400
X66850Y-78150
X66873Y-87701
X67000Y-87050
X67100Y-86000
X67275Y-89200
X67700Y-82800
X68596Y-87704
X68666Y-82443
X68966Y-78257
X68977Y-86023
X69000Y-83000
X69300Y-74200
X69300Y-76400
X69300Y-77700
X69300Y-79000
X69300Y-80200
X69800Y-92900
X70000Y-87300
X70400Y-71500
X70500Y-80800
X70550Y-79550
X71425Y-89700
X71500Y-71500
X71650Y-82050
X71900Y-83800
X72000Y-73900
X72100Y-69450
X72200Y-70400
X72400Y-71200
X72400Y-86000
X72800Y-85600
X73000Y-72600
X73000Y-73300
X73500Y-71600
X73900Y-72750
X73936Y-85050
X74000Y-89000
X74449Y-81948
X74500Y-70200
X74500Y-78500
X74552Y-81273
X74650Y-72800
X74900Y-85900
X75050Y-64450
X75400Y-72850
X75400Y-84500
X75450Y-82300
X75500Y-78900
X75550Y-75600
X75600Y-90200
X75700Y-73450
X76245Y-91955
X76500Y-76800
X76550Y-77950
X76560Y-83500
X76600Y-88500
X76700Y-79900
X77700Y-76800
X78000Y-86700
X78100Y-75500
X78200Y-77900
X78400Y-73200
X79100Y-72600
X79600Y-78600
X79613Y-92170
X80300Y-92000
X80400Y-79750
X80500Y-77850
X80500Y-84100
X80600Y-84800
X81000Y-72000
X81000Y-78300
X83000Y-86800
X83700Y-72000
X83800Y-80800
X84200Y-70600
X84500Y-84100
X84900Y-77500
X85200Y-72300
X85300Y-87700
X85400Y-73400
X85400Y-74100
X85800Y-78300
X86100Y-74300
X86500Y-77300
X86700Y-76200
X86900Y-74400
X87000Y-76800
X87050Y-56450
X87400Y-75600
X87500Y-53150
X87700Y-67700
X87700Y-81200
X87700Y-84100
X88800Y-66550
X90800Y-72400
X91200Y-74000
X91500Y-72000
X92000Y-83500
X92300Y-77100
X92500Y-81500
X92600Y-55400
X92600Y-80100
X92864Y-79414
X93200Y-53700
X93200Y-54800
X94000Y-78500
X94000Y-81500
X95700Y-78400
T2
X66861Y-54636
X66861Y-55736
X66861Y-57036
X66861Y-58236
X68061Y-54636
X68061Y-55736
X68061Y-57036
X68061Y-58236
T3
X53400Y-72400
X54900Y-72400
X56400Y-68800
X56400Y-70600
X56400Y-72400
X61000Y-52800
X61000Y-53700
X65100Y-67050
X67400Y-61000
X69800Y-59600
X77500Y-68700
X77900Y-60600
X78900Y-68700
X79400Y-58300
X80300Y-68700
X80900Y-63500
X80900Y-64700
X80900Y-66000
X80900Y-67400
X81550Y-58300
X81600Y-68700
X82500Y-63500
X82500Y-64700
X82500Y-65900
X83700Y-69500
X86700Y-67650
X86700Y-69400
X92900Y-74600
X94475Y-87800
X94475Y-89456
X94475Y-91496
X94500Y-75500
X95300Y-72700
X95700Y-75400
X96800Y-69100
X97300Y-65700
T4
X57600Y-60000
X58303Y-58303
X58303Y-61697
X60000Y-57600
X60000Y-62400
X61697Y-58303
X61697Y-61697
X62400Y-60000
X88100Y-60000
X88803Y-58303
X88803Y-61697
X90500Y-57600
X90500Y-62400
X92197Y-58303
X92197Y-61697
X92900Y-60000
X88100Y-90500
X88803Y-88803
X88803Y-92197
X90500Y-88100
X90500Y-92900
X92197Y-88803
X92197Y-92197
X92900Y-90500
X57600Y-90500
X58303Y-88803
X58303Y-92197
X60000Y-88100
X60000Y-92900
X61697Y-88803
X61697Y-92197
X62400Y-90500
T6
X91900Y-69500
X93600Y-95400
T7
X76100Y-93238
X81100Y-93238
T8
X90500Y-90500
X60000Y-90500
X60000Y-60000
X90500Y-60000
T5
G00X75100Y-96288
M15
G01X75100Y-95587
M16
G05
G00X82100Y-95587
M15
G01X82100Y-96288
M16
G05
T0
M30
