%TF.GenerationSoftware,KiCad,Pcbnew,(5.1.6-0-10_14)*%
%TF.CreationDate,2020-11-09T18:58:44+11:00*%
%TF.ProjectId,spartan_mk1,73706172-7461-46e5-9f6d-6b312e6b6963,rev?*%
%TF.SameCoordinates,Original*%
%TF.FileFunction,Soldermask,Top*%
%TF.FilePolarity,Negative*%
%FSLAX46Y46*%
G04 Gerber Fmt 4.6, Leading zero omitted, Abs format (unit mm)*
G04 Created by KiCad (PCBNEW (5.1.6-0-10_14)) date 2020-11-09 18:58:44*
%MOMM*%
%LPD*%
G01*
G04 APERTURE LIST*
%ADD10R,1.600000X2.000000*%
%ADD11C,1.550000*%
%ADD12R,0.500000X1.450000*%
%ADD13O,1.300000X2.000000*%
%ADD14R,1.300000X2.000000*%
%ADD15C,6.500000*%
%ADD16C,0.900000*%
%ADD17R,2.500000X0.840000*%
%ADD18R,1.000000X1.300000*%
%ADD19R,1.400000X1.800000*%
%ADD20R,2.600000X1.900000*%
%ADD21R,1.900000X2.600000*%
%ADD22R,5.800000X1.800000*%
%ADD23R,0.900000X1.000000*%
%ADD24R,1.000000X0.900000*%
%ADD25C,0.100000*%
%ADD26R,2.700000X3.200000*%
%ADD27R,1.650000X0.700000*%
%ADD28R,1.500000X1.300000*%
%ADD29R,2.100000X1.600000*%
%ADD30R,2.100000X3.900000*%
G04 APERTURE END LIST*
D10*
%TO.C,J1*%
X79600000Y-95937500D03*
D11*
X76100000Y-93237500D03*
D12*
X77950000Y-93237500D03*
X77300000Y-93237500D03*
X79900000Y-93237500D03*
X79250000Y-93237500D03*
X78600000Y-93237500D03*
D11*
X81100000Y-93237500D03*
D10*
X77600000Y-95937500D03*
D13*
X75100000Y-95937500D03*
X82100000Y-95937500D03*
D14*
X81500000Y-95937500D03*
X75700000Y-95937500D03*
%TD*%
%TO.C,J15*%
G36*
G01*
X64150000Y-96320832D02*
X64150000Y-97679168D01*
G75*
G02*
X63879168Y-97950000I-270832J0D01*
G01*
X63120832Y-97950000D01*
G75*
G02*
X62850000Y-97679168I0J270832D01*
G01*
X62850000Y-96320832D01*
G75*
G02*
X63120832Y-96050000I270832J0D01*
G01*
X63879168Y-96050000D01*
G75*
G02*
X64150000Y-96320832I0J-270832D01*
G01*
G37*
G36*
G01*
X73750000Y-96320832D02*
X73750000Y-97679168D01*
G75*
G02*
X73479168Y-97950000I-270832J0D01*
G01*
X72720832Y-97950000D01*
G75*
G02*
X72450000Y-97679168I0J270832D01*
G01*
X72450000Y-96320832D01*
G75*
G02*
X72720832Y-96050000I270832J0D01*
G01*
X73479168Y-96050000D01*
G75*
G02*
X73750000Y-96320832I0J-270832D01*
G01*
G37*
G36*
G01*
X65150000Y-93825000D02*
X65150000Y-95125000D01*
G75*
G02*
X64975000Y-95300000I-175000J0D01*
G01*
X64625000Y-95300000D01*
G75*
G02*
X64450000Y-95125000I0J175000D01*
G01*
X64450000Y-93825000D01*
G75*
G02*
X64625000Y-93650000I175000J0D01*
G01*
X64975000Y-93650000D01*
G75*
G02*
X65150000Y-93825000I0J-175000D01*
G01*
G37*
G36*
G01*
X66150000Y-93825000D02*
X66150000Y-95125000D01*
G75*
G02*
X65975000Y-95300000I-175000J0D01*
G01*
X65625000Y-95300000D01*
G75*
G02*
X65450000Y-95125000I0J175000D01*
G01*
X65450000Y-93825000D01*
G75*
G02*
X65625000Y-93650000I175000J0D01*
G01*
X65975000Y-93650000D01*
G75*
G02*
X66150000Y-93825000I0J-175000D01*
G01*
G37*
G36*
G01*
X67150000Y-93825000D02*
X67150000Y-95125000D01*
G75*
G02*
X66975000Y-95300000I-175000J0D01*
G01*
X66625000Y-95300000D01*
G75*
G02*
X66450000Y-95125000I0J175000D01*
G01*
X66450000Y-93825000D01*
G75*
G02*
X66625000Y-93650000I175000J0D01*
G01*
X66975000Y-93650000D01*
G75*
G02*
X67150000Y-93825000I0J-175000D01*
G01*
G37*
G36*
G01*
X68150000Y-93825000D02*
X68150000Y-95125000D01*
G75*
G02*
X67975000Y-95300000I-175000J0D01*
G01*
X67625000Y-95300000D01*
G75*
G02*
X67450000Y-95125000I0J175000D01*
G01*
X67450000Y-93825000D01*
G75*
G02*
X67625000Y-93650000I175000J0D01*
G01*
X67975000Y-93650000D01*
G75*
G02*
X68150000Y-93825000I0J-175000D01*
G01*
G37*
G36*
G01*
X69150000Y-93825000D02*
X69150000Y-95125000D01*
G75*
G02*
X68975000Y-95300000I-175000J0D01*
G01*
X68625000Y-95300000D01*
G75*
G02*
X68450000Y-95125000I0J175000D01*
G01*
X68450000Y-93825000D01*
G75*
G02*
X68625000Y-93650000I175000J0D01*
G01*
X68975000Y-93650000D01*
G75*
G02*
X69150000Y-93825000I0J-175000D01*
G01*
G37*
G36*
G01*
X70150000Y-93825000D02*
X70150000Y-95125000D01*
G75*
G02*
X69975000Y-95300000I-175000J0D01*
G01*
X69625000Y-95300000D01*
G75*
G02*
X69450000Y-95125000I0J175000D01*
G01*
X69450000Y-93825000D01*
G75*
G02*
X69625000Y-93650000I175000J0D01*
G01*
X69975000Y-93650000D01*
G75*
G02*
X70150000Y-93825000I0J-175000D01*
G01*
G37*
G36*
G01*
X71150000Y-93825000D02*
X71150000Y-95125000D01*
G75*
G02*
X70975000Y-95300000I-175000J0D01*
G01*
X70625000Y-95300000D01*
G75*
G02*
X70450000Y-95125000I0J175000D01*
G01*
X70450000Y-93825000D01*
G75*
G02*
X70625000Y-93650000I175000J0D01*
G01*
X70975000Y-93650000D01*
G75*
G02*
X71150000Y-93825000I0J-175000D01*
G01*
G37*
G36*
G01*
X72150000Y-93825000D02*
X72150000Y-95125000D01*
G75*
G02*
X71975000Y-95300000I-175000J0D01*
G01*
X71625000Y-95300000D01*
G75*
G02*
X71450000Y-95125000I0J175000D01*
G01*
X71450000Y-93825000D01*
G75*
G02*
X71625000Y-93650000I175000J0D01*
G01*
X71975000Y-93650000D01*
G75*
G02*
X72150000Y-93825000I0J-175000D01*
G01*
G37*
%TD*%
%TO.C,C11*%
G36*
G01*
X64323500Y-70923000D02*
X63928500Y-70923000D01*
G75*
G02*
X63756000Y-70750500I0J172500D01*
G01*
X63756000Y-70405500D01*
G75*
G02*
X63928500Y-70233000I172500J0D01*
G01*
X64323500Y-70233000D01*
G75*
G02*
X64496000Y-70405500I0J-172500D01*
G01*
X64496000Y-70750500D01*
G75*
G02*
X64323500Y-70923000I-172500J0D01*
G01*
G37*
G36*
G01*
X64323500Y-69953000D02*
X63928500Y-69953000D01*
G75*
G02*
X63756000Y-69780500I0J172500D01*
G01*
X63756000Y-69435500D01*
G75*
G02*
X63928500Y-69263000I172500J0D01*
G01*
X64323500Y-69263000D01*
G75*
G02*
X64496000Y-69435500I0J-172500D01*
G01*
X64496000Y-69780500D01*
G75*
G02*
X64323500Y-69953000I-172500J0D01*
G01*
G37*
%TD*%
%TO.C,J11*%
G36*
G01*
X94063500Y-63975000D02*
X94063500Y-62425000D01*
G75*
G02*
X94838500Y-61650000I775000J0D01*
G01*
X96388500Y-61650000D01*
G75*
G02*
X97163500Y-62425000I0J-775000D01*
G01*
X97163500Y-63975000D01*
G75*
G02*
X96388500Y-64750000I-775000J0D01*
G01*
X94838500Y-64750000D01*
G75*
G02*
X94063500Y-63975000I0J775000D01*
G01*
G37*
G36*
G01*
X94000000Y-67975000D02*
X94000000Y-66425000D01*
G75*
G02*
X94775000Y-65650000I775000J0D01*
G01*
X96325000Y-65650000D01*
G75*
G02*
X97100000Y-66425000I0J-775000D01*
G01*
X97100000Y-67975000D01*
G75*
G02*
X96325000Y-68750000I-775000J0D01*
G01*
X94775000Y-68750000D01*
G75*
G02*
X94000000Y-67975000I0J775000D01*
G01*
G37*
%TD*%
D15*
%TO.C,H3*%
X90500000Y-60000000D03*
D16*
X92900000Y-60000000D03*
X92197056Y-61697056D03*
X90500000Y-62400000D03*
X88802944Y-61697056D03*
X88100000Y-60000000D03*
X88802944Y-58302944D03*
X90500000Y-57600000D03*
X92197056Y-58302944D03*
%TD*%
D17*
%TO.C,J13*%
X78350000Y-80760000D03*
X82250000Y-80760000D03*
X78350000Y-82030000D03*
X82250000Y-82030000D03*
X78350000Y-83300000D03*
X82250000Y-83300000D03*
X78350000Y-84570000D03*
X82250000Y-84570000D03*
X78350000Y-85840000D03*
X82250000Y-85840000D03*
%TD*%
%TO.C,C24*%
G36*
G01*
X79536110Y-59325000D02*
X81663890Y-59325000D01*
G75*
G02*
X81925000Y-59586110I0J-261110D01*
G01*
X81925000Y-61413890D01*
G75*
G02*
X81663890Y-61675000I-261110J0D01*
G01*
X79536110Y-61675000D01*
G75*
G02*
X79275000Y-61413890I0J261110D01*
G01*
X79275000Y-59586110D01*
G75*
G02*
X79536110Y-59325000I261110J0D01*
G01*
G37*
G36*
G01*
X79536110Y-52925000D02*
X81663890Y-52925000D01*
G75*
G02*
X81925000Y-53186110I0J-261110D01*
G01*
X81925000Y-55013890D01*
G75*
G02*
X81663890Y-55275000I-261110J0D01*
G01*
X79536110Y-55275000D01*
G75*
G02*
X79275000Y-55013890I0J261110D01*
G01*
X79275000Y-53186110D01*
G75*
G02*
X79536110Y-52925000I261110J0D01*
G01*
G37*
%TD*%
D18*
%TO.C,D3*%
X83950000Y-94600000D03*
X87250000Y-94600000D03*
%TD*%
%TO.C,C1*%
G36*
G01*
X85452500Y-76740000D02*
X85847500Y-76740000D01*
G75*
G02*
X86020000Y-76912500I0J-172500D01*
G01*
X86020000Y-77257500D01*
G75*
G02*
X85847500Y-77430000I-172500J0D01*
G01*
X85452500Y-77430000D01*
G75*
G02*
X85280000Y-77257500I0J172500D01*
G01*
X85280000Y-76912500D01*
G75*
G02*
X85452500Y-76740000I172500J0D01*
G01*
G37*
G36*
G01*
X85452500Y-75770000D02*
X85847500Y-75770000D01*
G75*
G02*
X86020000Y-75942500I0J-172500D01*
G01*
X86020000Y-76287500D01*
G75*
G02*
X85847500Y-76460000I-172500J0D01*
G01*
X85452500Y-76460000D01*
G75*
G02*
X85280000Y-76287500I0J172500D01*
G01*
X85280000Y-75942500D01*
G75*
G02*
X85452500Y-75770000I172500J0D01*
G01*
G37*
%TD*%
%TO.C,C2*%
G36*
G01*
X83180000Y-72052500D02*
X83180000Y-72447500D01*
G75*
G02*
X83007500Y-72620000I-172500J0D01*
G01*
X82662500Y-72620000D01*
G75*
G02*
X82490000Y-72447500I0J172500D01*
G01*
X82490000Y-72052500D01*
G75*
G02*
X82662500Y-71880000I172500J0D01*
G01*
X83007500Y-71880000D01*
G75*
G02*
X83180000Y-72052500I0J-172500D01*
G01*
G37*
G36*
G01*
X82210000Y-72052500D02*
X82210000Y-72447500D01*
G75*
G02*
X82037500Y-72620000I-172500J0D01*
G01*
X81692500Y-72620000D01*
G75*
G02*
X81520000Y-72447500I0J172500D01*
G01*
X81520000Y-72052500D01*
G75*
G02*
X81692500Y-71880000I172500J0D01*
G01*
X82037500Y-71880000D01*
G75*
G02*
X82210000Y-72052500I0J-172500D01*
G01*
G37*
%TD*%
%TO.C,C3*%
G36*
G01*
X86934000Y-74902500D02*
X86934000Y-75297500D01*
G75*
G02*
X86761500Y-75470000I-172500J0D01*
G01*
X86416500Y-75470000D01*
G75*
G02*
X86244000Y-75297500I0J172500D01*
G01*
X86244000Y-74902500D01*
G75*
G02*
X86416500Y-74730000I172500J0D01*
G01*
X86761500Y-74730000D01*
G75*
G02*
X86934000Y-74902500I0J-172500D01*
G01*
G37*
G36*
G01*
X85964000Y-74902500D02*
X85964000Y-75297500D01*
G75*
G02*
X85791500Y-75470000I-172500J0D01*
G01*
X85446500Y-75470000D01*
G75*
G02*
X85274000Y-75297500I0J172500D01*
G01*
X85274000Y-74902500D01*
G75*
G02*
X85446500Y-74730000I172500J0D01*
G01*
X85791500Y-74730000D01*
G75*
G02*
X85964000Y-74902500I0J-172500D01*
G01*
G37*
%TD*%
%TO.C,C4*%
G36*
G01*
X78852500Y-73790000D02*
X79247500Y-73790000D01*
G75*
G02*
X79420000Y-73962500I0J-172500D01*
G01*
X79420000Y-74307500D01*
G75*
G02*
X79247500Y-74480000I-172500J0D01*
G01*
X78852500Y-74480000D01*
G75*
G02*
X78680000Y-74307500I0J172500D01*
G01*
X78680000Y-73962500D01*
G75*
G02*
X78852500Y-73790000I172500J0D01*
G01*
G37*
G36*
G01*
X78852500Y-72820000D02*
X79247500Y-72820000D01*
G75*
G02*
X79420000Y-72992500I0J-172500D01*
G01*
X79420000Y-73337500D01*
G75*
G02*
X79247500Y-73510000I-172500J0D01*
G01*
X78852500Y-73510000D01*
G75*
G02*
X78680000Y-73337500I0J172500D01*
G01*
X78680000Y-72992500D01*
G75*
G02*
X78852500Y-72820000I172500J0D01*
G01*
G37*
%TD*%
%TO.C,C5*%
G36*
G01*
X71902500Y-68240000D02*
X72297500Y-68240000D01*
G75*
G02*
X72470000Y-68412500I0J-172500D01*
G01*
X72470000Y-68757500D01*
G75*
G02*
X72297500Y-68930000I-172500J0D01*
G01*
X71902500Y-68930000D01*
G75*
G02*
X71730000Y-68757500I0J172500D01*
G01*
X71730000Y-68412500D01*
G75*
G02*
X71902500Y-68240000I172500J0D01*
G01*
G37*
G36*
G01*
X71902500Y-67270000D02*
X72297500Y-67270000D01*
G75*
G02*
X72470000Y-67442500I0J-172500D01*
G01*
X72470000Y-67787500D01*
G75*
G02*
X72297500Y-67960000I-172500J0D01*
G01*
X71902500Y-67960000D01*
G75*
G02*
X71730000Y-67787500I0J172500D01*
G01*
X71730000Y-67442500D01*
G75*
G02*
X71902500Y-67270000I172500J0D01*
G01*
G37*
%TD*%
%TO.C,C6*%
G36*
G01*
X66897500Y-68930000D02*
X66502500Y-68930000D01*
G75*
G02*
X66330000Y-68757500I0J172500D01*
G01*
X66330000Y-68412500D01*
G75*
G02*
X66502500Y-68240000I172500J0D01*
G01*
X66897500Y-68240000D01*
G75*
G02*
X67070000Y-68412500I0J-172500D01*
G01*
X67070000Y-68757500D01*
G75*
G02*
X66897500Y-68930000I-172500J0D01*
G01*
G37*
G36*
G01*
X66897500Y-67960000D02*
X66502500Y-67960000D01*
G75*
G02*
X66330000Y-67787500I0J172500D01*
G01*
X66330000Y-67442500D01*
G75*
G02*
X66502500Y-67270000I172500J0D01*
G01*
X66897500Y-67270000D01*
G75*
G02*
X67070000Y-67442500I0J-172500D01*
G01*
X67070000Y-67787500D01*
G75*
G02*
X66897500Y-67960000I-172500J0D01*
G01*
G37*
%TD*%
%TO.C,C9*%
G36*
G01*
X60102500Y-83070000D02*
X60497500Y-83070000D01*
G75*
G02*
X60670000Y-83242500I0J-172500D01*
G01*
X60670000Y-83587500D01*
G75*
G02*
X60497500Y-83760000I-172500J0D01*
G01*
X60102500Y-83760000D01*
G75*
G02*
X59930000Y-83587500I0J172500D01*
G01*
X59930000Y-83242500D01*
G75*
G02*
X60102500Y-83070000I172500J0D01*
G01*
G37*
G36*
G01*
X60102500Y-84040000D02*
X60497500Y-84040000D01*
G75*
G02*
X60670000Y-84212500I0J-172500D01*
G01*
X60670000Y-84557500D01*
G75*
G02*
X60497500Y-84730000I-172500J0D01*
G01*
X60102500Y-84730000D01*
G75*
G02*
X59930000Y-84557500I0J172500D01*
G01*
X59930000Y-84212500D01*
G75*
G02*
X60102500Y-84040000I172500J0D01*
G01*
G37*
%TD*%
%TO.C,C10*%
G36*
G01*
X61202500Y-84040000D02*
X61597500Y-84040000D01*
G75*
G02*
X61770000Y-84212500I0J-172500D01*
G01*
X61770000Y-84557500D01*
G75*
G02*
X61597500Y-84730000I-172500J0D01*
G01*
X61202500Y-84730000D01*
G75*
G02*
X61030000Y-84557500I0J172500D01*
G01*
X61030000Y-84212500D01*
G75*
G02*
X61202500Y-84040000I172500J0D01*
G01*
G37*
G36*
G01*
X61202500Y-83070000D02*
X61597500Y-83070000D01*
G75*
G02*
X61770000Y-83242500I0J-172500D01*
G01*
X61770000Y-83587500D01*
G75*
G02*
X61597500Y-83760000I-172500J0D01*
G01*
X61202500Y-83760000D01*
G75*
G02*
X61030000Y-83587500I0J172500D01*
G01*
X61030000Y-83242500D01*
G75*
G02*
X61202500Y-83070000I172500J0D01*
G01*
G37*
%TD*%
%TO.C,C12*%
G36*
G01*
X72304553Y-73072947D02*
X71909553Y-73072947D01*
G75*
G02*
X71737053Y-72900447I0J172500D01*
G01*
X71737053Y-72555447D01*
G75*
G02*
X71909553Y-72382947I172500J0D01*
G01*
X72304553Y-72382947D01*
G75*
G02*
X72477053Y-72555447I0J-172500D01*
G01*
X72477053Y-72900447D01*
G75*
G02*
X72304553Y-73072947I-172500J0D01*
G01*
G37*
G36*
G01*
X72304553Y-72102947D02*
X71909553Y-72102947D01*
G75*
G02*
X71737053Y-71930447I0J172500D01*
G01*
X71737053Y-71585447D01*
G75*
G02*
X71909553Y-71412947I172500J0D01*
G01*
X72304553Y-71412947D01*
G75*
G02*
X72477053Y-71585447I0J-172500D01*
G01*
X72477053Y-71930447D01*
G75*
G02*
X72304553Y-72102947I-172500J0D01*
G01*
G37*
%TD*%
%TO.C,C13*%
G36*
G01*
X63307500Y-70900000D02*
X62912500Y-70900000D01*
G75*
G02*
X62740000Y-70727500I0J172500D01*
G01*
X62740000Y-70382500D01*
G75*
G02*
X62912500Y-70210000I172500J0D01*
G01*
X63307500Y-70210000D01*
G75*
G02*
X63480000Y-70382500I0J-172500D01*
G01*
X63480000Y-70727500D01*
G75*
G02*
X63307500Y-70900000I-172500J0D01*
G01*
G37*
G36*
G01*
X63307500Y-69930000D02*
X62912500Y-69930000D01*
G75*
G02*
X62740000Y-69757500I0J172500D01*
G01*
X62740000Y-69412500D01*
G75*
G02*
X62912500Y-69240000I172500J0D01*
G01*
X63307500Y-69240000D01*
G75*
G02*
X63480000Y-69412500I0J-172500D01*
G01*
X63480000Y-69757500D01*
G75*
G02*
X63307500Y-69930000I-172500J0D01*
G01*
G37*
%TD*%
%TO.C,C14*%
G36*
G01*
X71802500Y-85040000D02*
X72197500Y-85040000D01*
G75*
G02*
X72370000Y-85212500I0J-172500D01*
G01*
X72370000Y-85557500D01*
G75*
G02*
X72197500Y-85730000I-172500J0D01*
G01*
X71802500Y-85730000D01*
G75*
G02*
X71630000Y-85557500I0J172500D01*
G01*
X71630000Y-85212500D01*
G75*
G02*
X71802500Y-85040000I172500J0D01*
G01*
G37*
G36*
G01*
X71802500Y-84070000D02*
X72197500Y-84070000D01*
G75*
G02*
X72370000Y-84242500I0J-172500D01*
G01*
X72370000Y-84587500D01*
G75*
G02*
X72197500Y-84760000I-172500J0D01*
G01*
X71802500Y-84760000D01*
G75*
G02*
X71630000Y-84587500I0J172500D01*
G01*
X71630000Y-84242500D01*
G75*
G02*
X71802500Y-84070000I172500J0D01*
G01*
G37*
%TD*%
%TO.C,C15*%
G36*
G01*
X60197500Y-76530000D02*
X59802500Y-76530000D01*
G75*
G02*
X59630000Y-76357500I0J172500D01*
G01*
X59630000Y-76012500D01*
G75*
G02*
X59802500Y-75840000I172500J0D01*
G01*
X60197500Y-75840000D01*
G75*
G02*
X60370000Y-76012500I0J-172500D01*
G01*
X60370000Y-76357500D01*
G75*
G02*
X60197500Y-76530000I-172500J0D01*
G01*
G37*
G36*
G01*
X60197500Y-75560000D02*
X59802500Y-75560000D01*
G75*
G02*
X59630000Y-75387500I0J172500D01*
G01*
X59630000Y-75042500D01*
G75*
G02*
X59802500Y-74870000I172500J0D01*
G01*
X60197500Y-74870000D01*
G75*
G02*
X60370000Y-75042500I0J-172500D01*
G01*
X60370000Y-75387500D01*
G75*
G02*
X60197500Y-75560000I-172500J0D01*
G01*
G37*
%TD*%
%TO.C,C16*%
G36*
G01*
X74390000Y-73997500D02*
X74390000Y-73602500D01*
G75*
G02*
X74562500Y-73430000I172500J0D01*
G01*
X74907500Y-73430000D01*
G75*
G02*
X75080000Y-73602500I0J-172500D01*
G01*
X75080000Y-73997500D01*
G75*
G02*
X74907500Y-74170000I-172500J0D01*
G01*
X74562500Y-74170000D01*
G75*
G02*
X74390000Y-73997500I0J172500D01*
G01*
G37*
G36*
G01*
X73420000Y-73997500D02*
X73420000Y-73602500D01*
G75*
G02*
X73592500Y-73430000I172500J0D01*
G01*
X73937500Y-73430000D01*
G75*
G02*
X74110000Y-73602500I0J-172500D01*
G01*
X74110000Y-73997500D01*
G75*
G02*
X73937500Y-74170000I-172500J0D01*
G01*
X73592500Y-74170000D01*
G75*
G02*
X73420000Y-73997500I0J172500D01*
G01*
G37*
%TD*%
%TO.C,C18*%
G36*
G01*
X61181250Y-95700000D02*
X60618750Y-95700000D01*
G75*
G02*
X60375000Y-95456250I0J243750D01*
G01*
X60375000Y-94968750D01*
G75*
G02*
X60618750Y-94725000I243750J0D01*
G01*
X61181250Y-94725000D01*
G75*
G02*
X61425000Y-94968750I0J-243750D01*
G01*
X61425000Y-95456250D01*
G75*
G02*
X61181250Y-95700000I-243750J0D01*
G01*
G37*
G36*
G01*
X61181250Y-97275000D02*
X60618750Y-97275000D01*
G75*
G02*
X60375000Y-97031250I0J243750D01*
G01*
X60375000Y-96543750D01*
G75*
G02*
X60618750Y-96300000I243750J0D01*
G01*
X61181250Y-96300000D01*
G75*
G02*
X61425000Y-96543750I0J-243750D01*
G01*
X61425000Y-97031250D01*
G75*
G02*
X61181250Y-97275000I-243750J0D01*
G01*
G37*
%TD*%
%TO.C,C19*%
G36*
G01*
X87018750Y-65400000D02*
X87981250Y-65400000D01*
G75*
G02*
X88250000Y-65668750I0J-268750D01*
G01*
X88250000Y-66206250D01*
G75*
G02*
X87981250Y-66475000I-268750J0D01*
G01*
X87018750Y-66475000D01*
G75*
G02*
X86750000Y-66206250I0J268750D01*
G01*
X86750000Y-65668750D01*
G75*
G02*
X87018750Y-65400000I268750J0D01*
G01*
G37*
G36*
G01*
X87018750Y-63525000D02*
X87981250Y-63525000D01*
G75*
G02*
X88250000Y-63793750I0J-268750D01*
G01*
X88250000Y-64331250D01*
G75*
G02*
X87981250Y-64600000I-268750J0D01*
G01*
X87018750Y-64600000D01*
G75*
G02*
X86750000Y-64331250I0J268750D01*
G01*
X86750000Y-63793750D01*
G75*
G02*
X87018750Y-63525000I268750J0D01*
G01*
G37*
%TD*%
%TO.C,C20*%
G36*
G01*
X63055000Y-56475000D02*
X61745000Y-56475000D01*
G75*
G02*
X61475000Y-56205000I0J270000D01*
G01*
X61475000Y-55395000D01*
G75*
G02*
X61745000Y-55125000I270000J0D01*
G01*
X63055000Y-55125000D01*
G75*
G02*
X63325000Y-55395000I0J-270000D01*
G01*
X63325000Y-56205000D01*
G75*
G02*
X63055000Y-56475000I-270000J0D01*
G01*
G37*
G36*
G01*
X63055000Y-53675000D02*
X61745000Y-53675000D01*
G75*
G02*
X61475000Y-53405000I0J270000D01*
G01*
X61475000Y-52595000D01*
G75*
G02*
X61745000Y-52325000I270000J0D01*
G01*
X63055000Y-52325000D01*
G75*
G02*
X63325000Y-52595000I0J-270000D01*
G01*
X63325000Y-53405000D01*
G75*
G02*
X63055000Y-53675000I-270000J0D01*
G01*
G37*
%TD*%
%TO.C,C22*%
G36*
G01*
X76481250Y-62687500D02*
X75918750Y-62687500D01*
G75*
G02*
X75675000Y-62443750I0J243750D01*
G01*
X75675000Y-61956250D01*
G75*
G02*
X75918750Y-61712500I243750J0D01*
G01*
X76481250Y-61712500D01*
G75*
G02*
X76725000Y-61956250I0J-243750D01*
G01*
X76725000Y-62443750D01*
G75*
G02*
X76481250Y-62687500I-243750J0D01*
G01*
G37*
G36*
G01*
X76481250Y-61112500D02*
X75918750Y-61112500D01*
G75*
G02*
X75675000Y-60868750I0J243750D01*
G01*
X75675000Y-60381250D01*
G75*
G02*
X75918750Y-60137500I243750J0D01*
G01*
X76481250Y-60137500D01*
G75*
G02*
X76725000Y-60381250I0J-243750D01*
G01*
X76725000Y-60868750D01*
G75*
G02*
X76481250Y-61112500I-243750J0D01*
G01*
G37*
%TD*%
%TO.C,C23*%
G36*
G01*
X70946500Y-61910000D02*
X71341500Y-61910000D01*
G75*
G02*
X71514000Y-62082500I0J-172500D01*
G01*
X71514000Y-62427500D01*
G75*
G02*
X71341500Y-62600000I-172500J0D01*
G01*
X70946500Y-62600000D01*
G75*
G02*
X70774000Y-62427500I0J172500D01*
G01*
X70774000Y-62082500D01*
G75*
G02*
X70946500Y-61910000I172500J0D01*
G01*
G37*
G36*
G01*
X70946500Y-60940000D02*
X71341500Y-60940000D01*
G75*
G02*
X71514000Y-61112500I0J-172500D01*
G01*
X71514000Y-61457500D01*
G75*
G02*
X71341500Y-61630000I-172500J0D01*
G01*
X70946500Y-61630000D01*
G75*
G02*
X70774000Y-61457500I0J172500D01*
G01*
X70774000Y-61112500D01*
G75*
G02*
X70946500Y-60940000I172500J0D01*
G01*
G37*
%TD*%
%TO.C,D1*%
G36*
G01*
X90131250Y-68725000D02*
X89568750Y-68725000D01*
G75*
G02*
X89325000Y-68481250I0J243750D01*
G01*
X89325000Y-67993750D01*
G75*
G02*
X89568750Y-67750000I243750J0D01*
G01*
X90131250Y-67750000D01*
G75*
G02*
X90375000Y-67993750I0J-243750D01*
G01*
X90375000Y-68481250D01*
G75*
G02*
X90131250Y-68725000I-243750J0D01*
G01*
G37*
G36*
G01*
X90131250Y-67150000D02*
X89568750Y-67150000D01*
G75*
G02*
X89325000Y-66906250I0J243750D01*
G01*
X89325000Y-66418750D01*
G75*
G02*
X89568750Y-66175000I243750J0D01*
G01*
X90131250Y-66175000D01*
G75*
G02*
X90375000Y-66418750I0J-243750D01*
G01*
X90375000Y-66906250D01*
G75*
G02*
X90131250Y-67150000I-243750J0D01*
G01*
G37*
%TD*%
%TO.C,D2*%
G36*
G01*
X75531250Y-66350000D02*
X74968750Y-66350000D01*
G75*
G02*
X74725000Y-66106250I0J243750D01*
G01*
X74725000Y-65618750D01*
G75*
G02*
X74968750Y-65375000I243750J0D01*
G01*
X75531250Y-65375000D01*
G75*
G02*
X75775000Y-65618750I0J-243750D01*
G01*
X75775000Y-66106250D01*
G75*
G02*
X75531250Y-66350000I-243750J0D01*
G01*
G37*
G36*
G01*
X75531250Y-67925000D02*
X74968750Y-67925000D01*
G75*
G02*
X74725000Y-67681250I0J243750D01*
G01*
X74725000Y-67193750D01*
G75*
G02*
X74968750Y-66950000I243750J0D01*
G01*
X75531250Y-66950000D01*
G75*
G02*
X75775000Y-67193750I0J-243750D01*
G01*
X75775000Y-67681250D01*
G75*
G02*
X75531250Y-67925000I-243750J0D01*
G01*
G37*
%TD*%
D19*
%TO.C,D4*%
X61050000Y-65200000D03*
X64550000Y-65200000D03*
%TD*%
D20*
%TO.C,D5*%
X65080000Y-61008000D03*
X69080000Y-61008000D03*
%TD*%
D21*
%TO.C,D6*%
X85000000Y-58300000D03*
X85000000Y-54300000D03*
%TD*%
D15*
%TO.C,H1*%
X90500000Y-90500000D03*
D16*
X92900000Y-90500000D03*
X92197056Y-92197056D03*
X90500000Y-92900000D03*
X88802944Y-92197056D03*
X88100000Y-90500000D03*
X88802944Y-88802944D03*
X90500000Y-88100000D03*
X92197056Y-88802944D03*
%TD*%
%TO.C,H2*%
X61697056Y-88802944D03*
X60000000Y-88100000D03*
X58302944Y-88802944D03*
X57600000Y-90500000D03*
X58302944Y-92197056D03*
X60000000Y-92900000D03*
X61697056Y-92197056D03*
X62400000Y-90500000D03*
D15*
X60000000Y-90500000D03*
%TD*%
D16*
%TO.C,H4*%
X61697056Y-58302944D03*
X60000000Y-57600000D03*
X58302944Y-58302944D03*
X57600000Y-60000000D03*
X58302944Y-61697056D03*
X60000000Y-62400000D03*
X61697056Y-61697056D03*
X62400000Y-60000000D03*
D15*
X60000000Y-60000000D03*
%TD*%
%TO.C,L1*%
G36*
G01*
X60770000Y-70797500D02*
X60770000Y-70402500D01*
G75*
G02*
X60942500Y-70230000I172500J0D01*
G01*
X61287500Y-70230000D01*
G75*
G02*
X61460000Y-70402500I0J-172500D01*
G01*
X61460000Y-70797500D01*
G75*
G02*
X61287500Y-70970000I-172500J0D01*
G01*
X60942500Y-70970000D01*
G75*
G02*
X60770000Y-70797500I0J172500D01*
G01*
G37*
G36*
G01*
X61740000Y-70797500D02*
X61740000Y-70402500D01*
G75*
G02*
X61912500Y-70230000I172500J0D01*
G01*
X62257500Y-70230000D01*
G75*
G02*
X62430000Y-70402500I0J-172500D01*
G01*
X62430000Y-70797500D01*
G75*
G02*
X62257500Y-70970000I-172500J0D01*
G01*
X61912500Y-70970000D01*
G75*
G02*
X61740000Y-70797500I0J172500D01*
G01*
G37*
%TD*%
D22*
%TO.C,L2*%
X74700000Y-53750000D03*
X74700000Y-58250000D03*
%TD*%
D23*
%TO.C,Q1*%
X89667000Y-73000500D03*
X91567000Y-73000500D03*
X90617000Y-71000500D03*
%TD*%
D24*
%TO.C,Q2*%
X88630000Y-85532000D03*
X88630000Y-83632000D03*
X86630000Y-84582000D03*
%TD*%
%TO.C,Q3*%
X57100000Y-66000000D03*
X59100000Y-65050000D03*
X59100000Y-66950000D03*
%TD*%
%TO.C,R1*%
G36*
G01*
X78852500Y-77790000D02*
X79247500Y-77790000D01*
G75*
G02*
X79420000Y-77962500I0J-172500D01*
G01*
X79420000Y-78307500D01*
G75*
G02*
X79247500Y-78480000I-172500J0D01*
G01*
X78852500Y-78480000D01*
G75*
G02*
X78680000Y-78307500I0J172500D01*
G01*
X78680000Y-77962500D01*
G75*
G02*
X78852500Y-77790000I172500J0D01*
G01*
G37*
G36*
G01*
X78852500Y-76820000D02*
X79247500Y-76820000D01*
G75*
G02*
X79420000Y-76992500I0J-172500D01*
G01*
X79420000Y-77337500D01*
G75*
G02*
X79247500Y-77510000I-172500J0D01*
G01*
X78852500Y-77510000D01*
G75*
G02*
X78680000Y-77337500I0J172500D01*
G01*
X78680000Y-76992500D01*
G75*
G02*
X78852500Y-76820000I172500J0D01*
G01*
G37*
%TD*%
%TO.C,R2*%
G36*
G01*
X79247500Y-75510000D02*
X78852500Y-75510000D01*
G75*
G02*
X78680000Y-75337500I0J172500D01*
G01*
X78680000Y-74992500D01*
G75*
G02*
X78852500Y-74820000I172500J0D01*
G01*
X79247500Y-74820000D01*
G75*
G02*
X79420000Y-74992500I0J-172500D01*
G01*
X79420000Y-75337500D01*
G75*
G02*
X79247500Y-75510000I-172500J0D01*
G01*
G37*
G36*
G01*
X79247500Y-76480000D02*
X78852500Y-76480000D01*
G75*
G02*
X78680000Y-76307500I0J172500D01*
G01*
X78680000Y-75962500D01*
G75*
G02*
X78852500Y-75790000I172500J0D01*
G01*
X79247500Y-75790000D01*
G75*
G02*
X79420000Y-75962500I0J-172500D01*
G01*
X79420000Y-76307500D01*
G75*
G02*
X79247500Y-76480000I-172500J0D01*
G01*
G37*
%TD*%
%TO.C,R5*%
G36*
G01*
X85847500Y-70916500D02*
X86242500Y-70916500D01*
G75*
G02*
X86415000Y-71089000I0J-172500D01*
G01*
X86415000Y-71434000D01*
G75*
G02*
X86242500Y-71606500I-172500J0D01*
G01*
X85847500Y-71606500D01*
G75*
G02*
X85675000Y-71434000I0J172500D01*
G01*
X85675000Y-71089000D01*
G75*
G02*
X85847500Y-70916500I172500J0D01*
G01*
G37*
G36*
G01*
X85847500Y-71886500D02*
X86242500Y-71886500D01*
G75*
G02*
X86415000Y-72059000I0J-172500D01*
G01*
X86415000Y-72404000D01*
G75*
G02*
X86242500Y-72576500I-172500J0D01*
G01*
X85847500Y-72576500D01*
G75*
G02*
X85675000Y-72404000I0J172500D01*
G01*
X85675000Y-72059000D01*
G75*
G02*
X85847500Y-71886500I172500J0D01*
G01*
G37*
%TD*%
%TO.C,R6*%
G36*
G01*
X88304250Y-73475500D02*
X87341750Y-73475500D01*
G75*
G02*
X87073000Y-73206750I0J268750D01*
G01*
X87073000Y-72669250D01*
G75*
G02*
X87341750Y-72400500I268750J0D01*
G01*
X88304250Y-72400500D01*
G75*
G02*
X88573000Y-72669250I0J-268750D01*
G01*
X88573000Y-73206750D01*
G75*
G02*
X88304250Y-73475500I-268750J0D01*
G01*
G37*
G36*
G01*
X88304250Y-71600500D02*
X87341750Y-71600500D01*
G75*
G02*
X87073000Y-71331750I0J268750D01*
G01*
X87073000Y-70794250D01*
G75*
G02*
X87341750Y-70525500I268750J0D01*
G01*
X88304250Y-70525500D01*
G75*
G02*
X88573000Y-70794250I0J-268750D01*
G01*
X88573000Y-71331750D01*
G75*
G02*
X88304250Y-71600500I-268750J0D01*
G01*
G37*
%TD*%
%TO.C,R9*%
G36*
G01*
X87860000Y-81802500D02*
X87860000Y-82197500D01*
G75*
G02*
X87687500Y-82370000I-172500J0D01*
G01*
X87342500Y-82370000D01*
G75*
G02*
X87170000Y-82197500I0J172500D01*
G01*
X87170000Y-81802500D01*
G75*
G02*
X87342500Y-81630000I172500J0D01*
G01*
X87687500Y-81630000D01*
G75*
G02*
X87860000Y-81802500I0J-172500D01*
G01*
G37*
G36*
G01*
X88830000Y-81802500D02*
X88830000Y-82197500D01*
G75*
G02*
X88657500Y-82370000I-172500J0D01*
G01*
X88312500Y-82370000D01*
G75*
G02*
X88140000Y-82197500I0J172500D01*
G01*
X88140000Y-81802500D01*
G75*
G02*
X88312500Y-81630000I172500J0D01*
G01*
X88657500Y-81630000D01*
G75*
G02*
X88830000Y-81802500I0J-172500D01*
G01*
G37*
%TD*%
%TO.C,R10*%
G36*
G01*
X90905250Y-83610500D02*
X89942750Y-83610500D01*
G75*
G02*
X89674000Y-83341750I0J268750D01*
G01*
X89674000Y-82804250D01*
G75*
G02*
X89942750Y-82535500I268750J0D01*
G01*
X90905250Y-82535500D01*
G75*
G02*
X91174000Y-82804250I0J-268750D01*
G01*
X91174000Y-83341750D01*
G75*
G02*
X90905250Y-83610500I-268750J0D01*
G01*
G37*
G36*
G01*
X90905250Y-85485500D02*
X89942750Y-85485500D01*
G75*
G02*
X89674000Y-85216750I0J268750D01*
G01*
X89674000Y-84679250D01*
G75*
G02*
X89942750Y-84410500I268750J0D01*
G01*
X90905250Y-84410500D01*
G75*
G02*
X91174000Y-84679250I0J-268750D01*
G01*
X91174000Y-85216750D01*
G75*
G02*
X90905250Y-85485500I-268750J0D01*
G01*
G37*
%TD*%
%TO.C,R11*%
G36*
G01*
X85083000Y-83752000D02*
X85478000Y-83752000D01*
G75*
G02*
X85650500Y-83924500I0J-172500D01*
G01*
X85650500Y-84269500D01*
G75*
G02*
X85478000Y-84442000I-172500J0D01*
G01*
X85083000Y-84442000D01*
G75*
G02*
X84910500Y-84269500I0J172500D01*
G01*
X84910500Y-83924500D01*
G75*
G02*
X85083000Y-83752000I172500J0D01*
G01*
G37*
G36*
G01*
X85083000Y-84722000D02*
X85478000Y-84722000D01*
G75*
G02*
X85650500Y-84894500I0J-172500D01*
G01*
X85650500Y-85239500D01*
G75*
G02*
X85478000Y-85412000I-172500J0D01*
G01*
X85083000Y-85412000D01*
G75*
G02*
X84910500Y-85239500I0J172500D01*
G01*
X84910500Y-84894500D01*
G75*
G02*
X85083000Y-84722000I172500J0D01*
G01*
G37*
%TD*%
%TO.C,R12*%
G36*
G01*
X87597500Y-54560000D02*
X87202500Y-54560000D01*
G75*
G02*
X87030000Y-54387500I0J172500D01*
G01*
X87030000Y-54042500D01*
G75*
G02*
X87202500Y-53870000I172500J0D01*
G01*
X87597500Y-53870000D01*
G75*
G02*
X87770000Y-54042500I0J-172500D01*
G01*
X87770000Y-54387500D01*
G75*
G02*
X87597500Y-54560000I-172500J0D01*
G01*
G37*
G36*
G01*
X87597500Y-55530000D02*
X87202500Y-55530000D01*
G75*
G02*
X87030000Y-55357500I0J172500D01*
G01*
X87030000Y-55012500D01*
G75*
G02*
X87202500Y-54840000I172500J0D01*
G01*
X87597500Y-54840000D01*
G75*
G02*
X87770000Y-55012500I0J-172500D01*
G01*
X87770000Y-55357500D01*
G75*
G02*
X87597500Y-55530000I-172500J0D01*
G01*
G37*
%TD*%
%TO.C,R14*%
G36*
G01*
X65470000Y-88497500D02*
X65470000Y-88102500D01*
G75*
G02*
X65642500Y-87930000I172500J0D01*
G01*
X65987500Y-87930000D01*
G75*
G02*
X66160000Y-88102500I0J-172500D01*
G01*
X66160000Y-88497500D01*
G75*
G02*
X65987500Y-88670000I-172500J0D01*
G01*
X65642500Y-88670000D01*
G75*
G02*
X65470000Y-88497500I0J172500D01*
G01*
G37*
G36*
G01*
X66440000Y-88497500D02*
X66440000Y-88102500D01*
G75*
G02*
X66612500Y-87930000I172500J0D01*
G01*
X66957500Y-87930000D01*
G75*
G02*
X67130000Y-88102500I0J-172500D01*
G01*
X67130000Y-88497500D01*
G75*
G02*
X66957500Y-88670000I-172500J0D01*
G01*
X66612500Y-88670000D01*
G75*
G02*
X66440000Y-88497500I0J172500D01*
G01*
G37*
%TD*%
%TO.C,R18*%
G36*
G01*
X62502500Y-86940000D02*
X62897500Y-86940000D01*
G75*
G02*
X63070000Y-87112500I0J-172500D01*
G01*
X63070000Y-87457500D01*
G75*
G02*
X62897500Y-87630000I-172500J0D01*
G01*
X62502500Y-87630000D01*
G75*
G02*
X62330000Y-87457500I0J172500D01*
G01*
X62330000Y-87112500D01*
G75*
G02*
X62502500Y-86940000I172500J0D01*
G01*
G37*
G36*
G01*
X62502500Y-85970000D02*
X62897500Y-85970000D01*
G75*
G02*
X63070000Y-86142500I0J-172500D01*
G01*
X63070000Y-86487500D01*
G75*
G02*
X62897500Y-86660000I-172500J0D01*
G01*
X62502500Y-86660000D01*
G75*
G02*
X62330000Y-86487500I0J172500D01*
G01*
X62330000Y-86142500D01*
G75*
G02*
X62502500Y-85970000I172500J0D01*
G01*
G37*
%TD*%
%TO.C,R20*%
G36*
G01*
X63602500Y-85570000D02*
X63997500Y-85570000D01*
G75*
G02*
X64170000Y-85742500I0J-172500D01*
G01*
X64170000Y-86087500D01*
G75*
G02*
X63997500Y-86260000I-172500J0D01*
G01*
X63602500Y-86260000D01*
G75*
G02*
X63430000Y-86087500I0J172500D01*
G01*
X63430000Y-85742500D01*
G75*
G02*
X63602500Y-85570000I172500J0D01*
G01*
G37*
G36*
G01*
X63602500Y-86540000D02*
X63997500Y-86540000D01*
G75*
G02*
X64170000Y-86712500I0J-172500D01*
G01*
X64170000Y-87057500D01*
G75*
G02*
X63997500Y-87230000I-172500J0D01*
G01*
X63602500Y-87230000D01*
G75*
G02*
X63430000Y-87057500I0J172500D01*
G01*
X63430000Y-86712500D01*
G75*
G02*
X63602500Y-86540000I172500J0D01*
G01*
G37*
%TD*%
%TO.C,R21*%
G36*
G01*
X65540000Y-86897500D02*
X65540000Y-86502500D01*
G75*
G02*
X65712500Y-86330000I172500J0D01*
G01*
X66057500Y-86330000D01*
G75*
G02*
X66230000Y-86502500I0J-172500D01*
G01*
X66230000Y-86897500D01*
G75*
G02*
X66057500Y-87070000I-172500J0D01*
G01*
X65712500Y-87070000D01*
G75*
G02*
X65540000Y-86897500I0J172500D01*
G01*
G37*
G36*
G01*
X64570000Y-86897500D02*
X64570000Y-86502500D01*
G75*
G02*
X64742500Y-86330000I172500J0D01*
G01*
X65087500Y-86330000D01*
G75*
G02*
X65260000Y-86502500I0J-172500D01*
G01*
X65260000Y-86897500D01*
G75*
G02*
X65087500Y-87070000I-172500J0D01*
G01*
X64742500Y-87070000D01*
G75*
G02*
X64570000Y-86897500I0J172500D01*
G01*
G37*
%TD*%
%TO.C,R22*%
G36*
G01*
X59018750Y-94725000D02*
X59581250Y-94725000D01*
G75*
G02*
X59825000Y-94968750I0J-243750D01*
G01*
X59825000Y-95456250D01*
G75*
G02*
X59581250Y-95700000I-243750J0D01*
G01*
X59018750Y-95700000D01*
G75*
G02*
X58775000Y-95456250I0J243750D01*
G01*
X58775000Y-94968750D01*
G75*
G02*
X59018750Y-94725000I243750J0D01*
G01*
G37*
G36*
G01*
X59018750Y-96300000D02*
X59581250Y-96300000D01*
G75*
G02*
X59825000Y-96543750I0J-243750D01*
G01*
X59825000Y-97031250D01*
G75*
G02*
X59581250Y-97275000I-243750J0D01*
G01*
X59018750Y-97275000D01*
G75*
G02*
X58775000Y-97031250I0J243750D01*
G01*
X58775000Y-96543750D01*
G75*
G02*
X59018750Y-96300000I243750J0D01*
G01*
G37*
%TD*%
%TO.C,R23*%
G36*
G01*
X57981250Y-94900000D02*
X57418750Y-94900000D01*
G75*
G02*
X57175000Y-94656250I0J243750D01*
G01*
X57175000Y-94168750D01*
G75*
G02*
X57418750Y-93925000I243750J0D01*
G01*
X57981250Y-93925000D01*
G75*
G02*
X58225000Y-94168750I0J-243750D01*
G01*
X58225000Y-94656250D01*
G75*
G02*
X57981250Y-94900000I-243750J0D01*
G01*
G37*
G36*
G01*
X57981250Y-96475000D02*
X57418750Y-96475000D01*
G75*
G02*
X57175000Y-96231250I0J243750D01*
G01*
X57175000Y-95743750D01*
G75*
G02*
X57418750Y-95500000I243750J0D01*
G01*
X57981250Y-95500000D01*
G75*
G02*
X58225000Y-95743750I0J-243750D01*
G01*
X58225000Y-96231250D01*
G75*
G02*
X57981250Y-96475000I-243750J0D01*
G01*
G37*
%TD*%
%TO.C,R24*%
G36*
G01*
X88647500Y-67810000D02*
X88252500Y-67810000D01*
G75*
G02*
X88080000Y-67637500I0J172500D01*
G01*
X88080000Y-67292500D01*
G75*
G02*
X88252500Y-67120000I172500J0D01*
G01*
X88647500Y-67120000D01*
G75*
G02*
X88820000Y-67292500I0J-172500D01*
G01*
X88820000Y-67637500D01*
G75*
G02*
X88647500Y-67810000I-172500J0D01*
G01*
G37*
G36*
G01*
X88647500Y-68780000D02*
X88252500Y-68780000D01*
G75*
G02*
X88080000Y-68607500I0J172500D01*
G01*
X88080000Y-68262500D01*
G75*
G02*
X88252500Y-68090000I172500J0D01*
G01*
X88647500Y-68090000D01*
G75*
G02*
X88820000Y-68262500I0J-172500D01*
G01*
X88820000Y-68607500D01*
G75*
G02*
X88647500Y-68780000I-172500J0D01*
G01*
G37*
%TD*%
%TO.C,R25*%
G36*
G01*
X74097500Y-65980000D02*
X73702500Y-65980000D01*
G75*
G02*
X73530000Y-65807500I0J172500D01*
G01*
X73530000Y-65462500D01*
G75*
G02*
X73702500Y-65290000I172500J0D01*
G01*
X74097500Y-65290000D01*
G75*
G02*
X74270000Y-65462500I0J-172500D01*
G01*
X74270000Y-65807500D01*
G75*
G02*
X74097500Y-65980000I-172500J0D01*
G01*
G37*
G36*
G01*
X74097500Y-65010000D02*
X73702500Y-65010000D01*
G75*
G02*
X73530000Y-64837500I0J172500D01*
G01*
X73530000Y-64492500D01*
G75*
G02*
X73702500Y-64320000I172500J0D01*
G01*
X74097500Y-64320000D01*
G75*
G02*
X74270000Y-64492500I0J-172500D01*
G01*
X74270000Y-64837500D01*
G75*
G02*
X74097500Y-65010000I-172500J0D01*
G01*
G37*
%TD*%
%TO.C,R26*%
G36*
G01*
X61325000Y-68031250D02*
X61325000Y-67068750D01*
G75*
G02*
X61593750Y-66800000I268750J0D01*
G01*
X62131250Y-66800000D01*
G75*
G02*
X62400000Y-67068750I0J-268750D01*
G01*
X62400000Y-68031250D01*
G75*
G02*
X62131250Y-68300000I-268750J0D01*
G01*
X61593750Y-68300000D01*
G75*
G02*
X61325000Y-68031250I0J268750D01*
G01*
G37*
G36*
G01*
X63200000Y-68031250D02*
X63200000Y-67068750D01*
G75*
G02*
X63468750Y-66800000I268750J0D01*
G01*
X64006250Y-66800000D01*
G75*
G02*
X64275000Y-67068750I0J-268750D01*
G01*
X64275000Y-68031250D01*
G75*
G02*
X64006250Y-68300000I-268750J0D01*
G01*
X63468750Y-68300000D01*
G75*
G02*
X63200000Y-68031250I0J268750D01*
G01*
G37*
%TD*%
%TO.C,R27*%
G36*
G01*
X70845000Y-52802500D02*
X70845000Y-53197500D01*
G75*
G02*
X70672500Y-53370000I-172500J0D01*
G01*
X70327500Y-53370000D01*
G75*
G02*
X70155000Y-53197500I0J172500D01*
G01*
X70155000Y-52802500D01*
G75*
G02*
X70327500Y-52630000I172500J0D01*
G01*
X70672500Y-52630000D01*
G75*
G02*
X70845000Y-52802500I0J-172500D01*
G01*
G37*
G36*
G01*
X69875000Y-52802500D02*
X69875000Y-53197500D01*
G75*
G02*
X69702500Y-53370000I-172500J0D01*
G01*
X69357500Y-53370000D01*
G75*
G02*
X69185000Y-53197500I0J172500D01*
G01*
X69185000Y-52802500D01*
G75*
G02*
X69357500Y-52630000I172500J0D01*
G01*
X69702500Y-52630000D01*
G75*
G02*
X69875000Y-52802500I0J-172500D01*
G01*
G37*
%TD*%
%TO.C,R28*%
G36*
G01*
X67860000Y-52802500D02*
X67860000Y-53197500D01*
G75*
G02*
X67687500Y-53370000I-172500J0D01*
G01*
X67342500Y-53370000D01*
G75*
G02*
X67170000Y-53197500I0J172500D01*
G01*
X67170000Y-52802500D01*
G75*
G02*
X67342500Y-52630000I172500J0D01*
G01*
X67687500Y-52630000D01*
G75*
G02*
X67860000Y-52802500I0J-172500D01*
G01*
G37*
G36*
G01*
X68830000Y-52802500D02*
X68830000Y-53197500D01*
G75*
G02*
X68657500Y-53370000I-172500J0D01*
G01*
X68312500Y-53370000D01*
G75*
G02*
X68140000Y-53197500I0J172500D01*
G01*
X68140000Y-52802500D01*
G75*
G02*
X68312500Y-52630000I172500J0D01*
G01*
X68657500Y-52630000D01*
G75*
G02*
X68830000Y-52802500I0J-172500D01*
G01*
G37*
%TD*%
%TO.C,R29*%
G36*
G01*
X66830000Y-52802500D02*
X66830000Y-53197500D01*
G75*
G02*
X66657500Y-53370000I-172500J0D01*
G01*
X66312500Y-53370000D01*
G75*
G02*
X66140000Y-53197500I0J172500D01*
G01*
X66140000Y-52802500D01*
G75*
G02*
X66312500Y-52630000I172500J0D01*
G01*
X66657500Y-52630000D01*
G75*
G02*
X66830000Y-52802500I0J-172500D01*
G01*
G37*
G36*
G01*
X65860000Y-52802500D02*
X65860000Y-53197500D01*
G75*
G02*
X65687500Y-53370000I-172500J0D01*
G01*
X65342500Y-53370000D01*
G75*
G02*
X65170000Y-53197500I0J172500D01*
G01*
X65170000Y-52802500D01*
G75*
G02*
X65342500Y-52630000I172500J0D01*
G01*
X65687500Y-52630000D01*
G75*
G02*
X65860000Y-52802500I0J-172500D01*
G01*
G37*
%TD*%
%TO.C,U1*%
G36*
G01*
X81144000Y-77947000D02*
X80944000Y-77947000D01*
G75*
G02*
X80844000Y-77847000I0J100000D01*
G01*
X80844000Y-77097000D01*
G75*
G02*
X80944000Y-76997000I100000J0D01*
G01*
X81144000Y-76997000D01*
G75*
G02*
X81244000Y-77097000I0J-100000D01*
G01*
X81244000Y-77847000D01*
G75*
G02*
X81144000Y-77947000I-100000J0D01*
G01*
G37*
G36*
G01*
X81644000Y-77947000D02*
X81444000Y-77947000D01*
G75*
G02*
X81344000Y-77847000I0J100000D01*
G01*
X81344000Y-77097000D01*
G75*
G02*
X81444000Y-76997000I100000J0D01*
G01*
X81644000Y-76997000D01*
G75*
G02*
X81744000Y-77097000I0J-100000D01*
G01*
X81744000Y-77847000D01*
G75*
G02*
X81644000Y-77947000I-100000J0D01*
G01*
G37*
G36*
G01*
X82144000Y-77947000D02*
X81944000Y-77947000D01*
G75*
G02*
X81844000Y-77847000I0J100000D01*
G01*
X81844000Y-77097000D01*
G75*
G02*
X81944000Y-76997000I100000J0D01*
G01*
X82144000Y-76997000D01*
G75*
G02*
X82244000Y-77097000I0J-100000D01*
G01*
X82244000Y-77847000D01*
G75*
G02*
X82144000Y-77947000I-100000J0D01*
G01*
G37*
G36*
G01*
X82644000Y-77947000D02*
X82444000Y-77947000D01*
G75*
G02*
X82344000Y-77847000I0J100000D01*
G01*
X82344000Y-77097000D01*
G75*
G02*
X82444000Y-76997000I100000J0D01*
G01*
X82644000Y-76997000D01*
G75*
G02*
X82744000Y-77097000I0J-100000D01*
G01*
X82744000Y-77847000D01*
G75*
G02*
X82644000Y-77947000I-100000J0D01*
G01*
G37*
G36*
G01*
X83144000Y-77947000D02*
X82944000Y-77947000D01*
G75*
G02*
X82844000Y-77847000I0J100000D01*
G01*
X82844000Y-77097000D01*
G75*
G02*
X82944000Y-76997000I100000J0D01*
G01*
X83144000Y-76997000D01*
G75*
G02*
X83244000Y-77097000I0J-100000D01*
G01*
X83244000Y-77847000D01*
G75*
G02*
X83144000Y-77947000I-100000J0D01*
G01*
G37*
G36*
G01*
X83644000Y-77947000D02*
X83444000Y-77947000D01*
G75*
G02*
X83344000Y-77847000I0J100000D01*
G01*
X83344000Y-77097000D01*
G75*
G02*
X83444000Y-76997000I100000J0D01*
G01*
X83644000Y-76997000D01*
G75*
G02*
X83744000Y-77097000I0J-100000D01*
G01*
X83744000Y-77847000D01*
G75*
G02*
X83644000Y-77947000I-100000J0D01*
G01*
G37*
G36*
G01*
X84719000Y-76672000D02*
X84719000Y-76872000D01*
G75*
G02*
X84619000Y-76972000I-100000J0D01*
G01*
X83869000Y-76972000D01*
G75*
G02*
X83769000Y-76872000I0J100000D01*
G01*
X83769000Y-76672000D01*
G75*
G02*
X83869000Y-76572000I100000J0D01*
G01*
X84619000Y-76572000D01*
G75*
G02*
X84719000Y-76672000I0J-100000D01*
G01*
G37*
G36*
G01*
X84719000Y-76172000D02*
X84719000Y-76372000D01*
G75*
G02*
X84619000Y-76472000I-100000J0D01*
G01*
X83869000Y-76472000D01*
G75*
G02*
X83769000Y-76372000I0J100000D01*
G01*
X83769000Y-76172000D01*
G75*
G02*
X83869000Y-76072000I100000J0D01*
G01*
X84619000Y-76072000D01*
G75*
G02*
X84719000Y-76172000I0J-100000D01*
G01*
G37*
G36*
G01*
X84719000Y-75672000D02*
X84719000Y-75872000D01*
G75*
G02*
X84619000Y-75972000I-100000J0D01*
G01*
X83869000Y-75972000D01*
G75*
G02*
X83769000Y-75872000I0J100000D01*
G01*
X83769000Y-75672000D01*
G75*
G02*
X83869000Y-75572000I100000J0D01*
G01*
X84619000Y-75572000D01*
G75*
G02*
X84719000Y-75672000I0J-100000D01*
G01*
G37*
G36*
G01*
X84719000Y-75172000D02*
X84719000Y-75372000D01*
G75*
G02*
X84619000Y-75472000I-100000J0D01*
G01*
X83869000Y-75472000D01*
G75*
G02*
X83769000Y-75372000I0J100000D01*
G01*
X83769000Y-75172000D01*
G75*
G02*
X83869000Y-75072000I100000J0D01*
G01*
X84619000Y-75072000D01*
G75*
G02*
X84719000Y-75172000I0J-100000D01*
G01*
G37*
G36*
G01*
X84719000Y-74672000D02*
X84719000Y-74872000D01*
G75*
G02*
X84619000Y-74972000I-100000J0D01*
G01*
X83869000Y-74972000D01*
G75*
G02*
X83769000Y-74872000I0J100000D01*
G01*
X83769000Y-74672000D01*
G75*
G02*
X83869000Y-74572000I100000J0D01*
G01*
X84619000Y-74572000D01*
G75*
G02*
X84719000Y-74672000I0J-100000D01*
G01*
G37*
G36*
G01*
X84719000Y-74172000D02*
X84719000Y-74372000D01*
G75*
G02*
X84619000Y-74472000I-100000J0D01*
G01*
X83869000Y-74472000D01*
G75*
G02*
X83769000Y-74372000I0J100000D01*
G01*
X83769000Y-74172000D01*
G75*
G02*
X83869000Y-74072000I100000J0D01*
G01*
X84619000Y-74072000D01*
G75*
G02*
X84719000Y-74172000I0J-100000D01*
G01*
G37*
G36*
G01*
X83644000Y-74047000D02*
X83444000Y-74047000D01*
G75*
G02*
X83344000Y-73947000I0J100000D01*
G01*
X83344000Y-73197000D01*
G75*
G02*
X83444000Y-73097000I100000J0D01*
G01*
X83644000Y-73097000D01*
G75*
G02*
X83744000Y-73197000I0J-100000D01*
G01*
X83744000Y-73947000D01*
G75*
G02*
X83644000Y-74047000I-100000J0D01*
G01*
G37*
G36*
G01*
X83144000Y-74047000D02*
X82944000Y-74047000D01*
G75*
G02*
X82844000Y-73947000I0J100000D01*
G01*
X82844000Y-73197000D01*
G75*
G02*
X82944000Y-73097000I100000J0D01*
G01*
X83144000Y-73097000D01*
G75*
G02*
X83244000Y-73197000I0J-100000D01*
G01*
X83244000Y-73947000D01*
G75*
G02*
X83144000Y-74047000I-100000J0D01*
G01*
G37*
G36*
G01*
X82644000Y-74047000D02*
X82444000Y-74047000D01*
G75*
G02*
X82344000Y-73947000I0J100000D01*
G01*
X82344000Y-73197000D01*
G75*
G02*
X82444000Y-73097000I100000J0D01*
G01*
X82644000Y-73097000D01*
G75*
G02*
X82744000Y-73197000I0J-100000D01*
G01*
X82744000Y-73947000D01*
G75*
G02*
X82644000Y-74047000I-100000J0D01*
G01*
G37*
G36*
G01*
X82144000Y-74047000D02*
X81944000Y-74047000D01*
G75*
G02*
X81844000Y-73947000I0J100000D01*
G01*
X81844000Y-73197000D01*
G75*
G02*
X81944000Y-73097000I100000J0D01*
G01*
X82144000Y-73097000D01*
G75*
G02*
X82244000Y-73197000I0J-100000D01*
G01*
X82244000Y-73947000D01*
G75*
G02*
X82144000Y-74047000I-100000J0D01*
G01*
G37*
G36*
G01*
X81644000Y-74047000D02*
X81444000Y-74047000D01*
G75*
G02*
X81344000Y-73947000I0J100000D01*
G01*
X81344000Y-73197000D01*
G75*
G02*
X81444000Y-73097000I100000J0D01*
G01*
X81644000Y-73097000D01*
G75*
G02*
X81744000Y-73197000I0J-100000D01*
G01*
X81744000Y-73947000D01*
G75*
G02*
X81644000Y-74047000I-100000J0D01*
G01*
G37*
G36*
G01*
X81144000Y-74047000D02*
X80944000Y-74047000D01*
G75*
G02*
X80844000Y-73947000I0J100000D01*
G01*
X80844000Y-73197000D01*
G75*
G02*
X80944000Y-73097000I100000J0D01*
G01*
X81144000Y-73097000D01*
G75*
G02*
X81244000Y-73197000I0J-100000D01*
G01*
X81244000Y-73947000D01*
G75*
G02*
X81144000Y-74047000I-100000J0D01*
G01*
G37*
G36*
G01*
X80819000Y-74172000D02*
X80819000Y-74372000D01*
G75*
G02*
X80719000Y-74472000I-100000J0D01*
G01*
X79969000Y-74472000D01*
G75*
G02*
X79869000Y-74372000I0J100000D01*
G01*
X79869000Y-74172000D01*
G75*
G02*
X79969000Y-74072000I100000J0D01*
G01*
X80719000Y-74072000D01*
G75*
G02*
X80819000Y-74172000I0J-100000D01*
G01*
G37*
G36*
G01*
X80819000Y-74672000D02*
X80819000Y-74872000D01*
G75*
G02*
X80719000Y-74972000I-100000J0D01*
G01*
X79969000Y-74972000D01*
G75*
G02*
X79869000Y-74872000I0J100000D01*
G01*
X79869000Y-74672000D01*
G75*
G02*
X79969000Y-74572000I100000J0D01*
G01*
X80719000Y-74572000D01*
G75*
G02*
X80819000Y-74672000I0J-100000D01*
G01*
G37*
G36*
G01*
X80819000Y-75172000D02*
X80819000Y-75372000D01*
G75*
G02*
X80719000Y-75472000I-100000J0D01*
G01*
X79969000Y-75472000D01*
G75*
G02*
X79869000Y-75372000I0J100000D01*
G01*
X79869000Y-75172000D01*
G75*
G02*
X79969000Y-75072000I100000J0D01*
G01*
X80719000Y-75072000D01*
G75*
G02*
X80819000Y-75172000I0J-100000D01*
G01*
G37*
G36*
G01*
X80819000Y-75672000D02*
X80819000Y-75872000D01*
G75*
G02*
X80719000Y-75972000I-100000J0D01*
G01*
X79969000Y-75972000D01*
G75*
G02*
X79869000Y-75872000I0J100000D01*
G01*
X79869000Y-75672000D01*
G75*
G02*
X79969000Y-75572000I100000J0D01*
G01*
X80719000Y-75572000D01*
G75*
G02*
X80819000Y-75672000I0J-100000D01*
G01*
G37*
G36*
G01*
X80819000Y-76172000D02*
X80819000Y-76372000D01*
G75*
G02*
X80719000Y-76472000I-100000J0D01*
G01*
X79969000Y-76472000D01*
G75*
G02*
X79869000Y-76372000I0J100000D01*
G01*
X79869000Y-76172000D01*
G75*
G02*
X79969000Y-76072000I100000J0D01*
G01*
X80719000Y-76072000D01*
G75*
G02*
X80819000Y-76172000I0J-100000D01*
G01*
G37*
G36*
G01*
X80819000Y-76672000D02*
X80819000Y-76872000D01*
G75*
G02*
X80719000Y-76972000I-100000J0D01*
G01*
X79969000Y-76972000D01*
G75*
G02*
X79869000Y-76872000I0J100000D01*
G01*
X79869000Y-76672000D01*
G75*
G02*
X79969000Y-76572000I100000J0D01*
G01*
X80719000Y-76572000D01*
G75*
G02*
X80819000Y-76672000I0J-100000D01*
G01*
G37*
%TD*%
D25*
%TO.C,U3*%
G36*
X74881353Y-90344526D02*
G01*
X74351023Y-90874856D01*
X73530779Y-90054612D01*
X74061109Y-89524282D01*
X74881353Y-90344526D01*
G37*
G36*
X75553104Y-89672774D02*
G01*
X75022774Y-90203104D01*
X74202530Y-89382860D01*
X74732860Y-88852530D01*
X75553104Y-89672774D01*
G37*
G36*
X76224856Y-89001023D02*
G01*
X75694526Y-89531353D01*
X74874282Y-88711109D01*
X75404612Y-88180779D01*
X76224856Y-89001023D01*
G37*
G36*
X74669221Y-87445388D02*
G01*
X74138891Y-87975718D01*
X73318647Y-87155474D01*
X73848977Y-86625144D01*
X74669221Y-87445388D01*
G37*
G36*
X73325718Y-88788891D02*
G01*
X72795388Y-89319221D01*
X71975144Y-88498977D01*
X72505474Y-87968647D01*
X73325718Y-88788891D01*
G37*
G36*
X73997470Y-88117140D02*
G01*
X73467140Y-88647470D01*
X72646896Y-87827226D01*
X73177226Y-87296896D01*
X73997470Y-88117140D01*
G37*
%TD*%
%TO.C,U4*%
G36*
G01*
X70950000Y-72100000D02*
X71150000Y-72100000D01*
G75*
G02*
X71250000Y-72200000I0J-100000D01*
G01*
X71250000Y-73650000D01*
G75*
G02*
X71150000Y-73750000I-100000J0D01*
G01*
X70950000Y-73750000D01*
G75*
G02*
X70850000Y-73650000I0J100000D01*
G01*
X70850000Y-72200000D01*
G75*
G02*
X70950000Y-72100000I100000J0D01*
G01*
G37*
G36*
G01*
X70450000Y-72100000D02*
X70650000Y-72100000D01*
G75*
G02*
X70750000Y-72200000I0J-100000D01*
G01*
X70750000Y-73650000D01*
G75*
G02*
X70650000Y-73750000I-100000J0D01*
G01*
X70450000Y-73750000D01*
G75*
G02*
X70350000Y-73650000I0J100000D01*
G01*
X70350000Y-72200000D01*
G75*
G02*
X70450000Y-72100000I100000J0D01*
G01*
G37*
G36*
G01*
X69950000Y-72100000D02*
X70150000Y-72100000D01*
G75*
G02*
X70250000Y-72200000I0J-100000D01*
G01*
X70250000Y-73650000D01*
G75*
G02*
X70150000Y-73750000I-100000J0D01*
G01*
X69950000Y-73750000D01*
G75*
G02*
X69850000Y-73650000I0J100000D01*
G01*
X69850000Y-72200000D01*
G75*
G02*
X69950000Y-72100000I100000J0D01*
G01*
G37*
G36*
G01*
X69450000Y-72100000D02*
X69650000Y-72100000D01*
G75*
G02*
X69750000Y-72200000I0J-100000D01*
G01*
X69750000Y-73650000D01*
G75*
G02*
X69650000Y-73750000I-100000J0D01*
G01*
X69450000Y-73750000D01*
G75*
G02*
X69350000Y-73650000I0J100000D01*
G01*
X69350000Y-72200000D01*
G75*
G02*
X69450000Y-72100000I100000J0D01*
G01*
G37*
G36*
G01*
X68950000Y-72100000D02*
X69150000Y-72100000D01*
G75*
G02*
X69250000Y-72200000I0J-100000D01*
G01*
X69250000Y-73650000D01*
G75*
G02*
X69150000Y-73750000I-100000J0D01*
G01*
X68950000Y-73750000D01*
G75*
G02*
X68850000Y-73650000I0J100000D01*
G01*
X68850000Y-72200000D01*
G75*
G02*
X68950000Y-72100000I100000J0D01*
G01*
G37*
G36*
G01*
X68450000Y-72100000D02*
X68650000Y-72100000D01*
G75*
G02*
X68750000Y-72200000I0J-100000D01*
G01*
X68750000Y-73650000D01*
G75*
G02*
X68650000Y-73750000I-100000J0D01*
G01*
X68450000Y-73750000D01*
G75*
G02*
X68350000Y-73650000I0J100000D01*
G01*
X68350000Y-72200000D01*
G75*
G02*
X68450000Y-72100000I100000J0D01*
G01*
G37*
G36*
G01*
X67950000Y-72100000D02*
X68150000Y-72100000D01*
G75*
G02*
X68250000Y-72200000I0J-100000D01*
G01*
X68250000Y-73650000D01*
G75*
G02*
X68150000Y-73750000I-100000J0D01*
G01*
X67950000Y-73750000D01*
G75*
G02*
X67850000Y-73650000I0J100000D01*
G01*
X67850000Y-72200000D01*
G75*
G02*
X67950000Y-72100000I100000J0D01*
G01*
G37*
G36*
G01*
X67450000Y-72100000D02*
X67650000Y-72100000D01*
G75*
G02*
X67750000Y-72200000I0J-100000D01*
G01*
X67750000Y-73650000D01*
G75*
G02*
X67650000Y-73750000I-100000J0D01*
G01*
X67450000Y-73750000D01*
G75*
G02*
X67350000Y-73650000I0J100000D01*
G01*
X67350000Y-72200000D01*
G75*
G02*
X67450000Y-72100000I100000J0D01*
G01*
G37*
G36*
G01*
X66950000Y-72100000D02*
X67150000Y-72100000D01*
G75*
G02*
X67250000Y-72200000I0J-100000D01*
G01*
X67250000Y-73650000D01*
G75*
G02*
X67150000Y-73750000I-100000J0D01*
G01*
X66950000Y-73750000D01*
G75*
G02*
X66850000Y-73650000I0J100000D01*
G01*
X66850000Y-72200000D01*
G75*
G02*
X66950000Y-72100000I100000J0D01*
G01*
G37*
G36*
G01*
X66450000Y-72100000D02*
X66650000Y-72100000D01*
G75*
G02*
X66750000Y-72200000I0J-100000D01*
G01*
X66750000Y-73650000D01*
G75*
G02*
X66650000Y-73750000I-100000J0D01*
G01*
X66450000Y-73750000D01*
G75*
G02*
X66350000Y-73650000I0J100000D01*
G01*
X66350000Y-72200000D01*
G75*
G02*
X66450000Y-72100000I100000J0D01*
G01*
G37*
G36*
G01*
X65950000Y-72100000D02*
X66150000Y-72100000D01*
G75*
G02*
X66250000Y-72200000I0J-100000D01*
G01*
X66250000Y-73650000D01*
G75*
G02*
X66150000Y-73750000I-100000J0D01*
G01*
X65950000Y-73750000D01*
G75*
G02*
X65850000Y-73650000I0J100000D01*
G01*
X65850000Y-72200000D01*
G75*
G02*
X65950000Y-72100000I100000J0D01*
G01*
G37*
G36*
G01*
X65450000Y-72100000D02*
X65650000Y-72100000D01*
G75*
G02*
X65750000Y-72200000I0J-100000D01*
G01*
X65750000Y-73650000D01*
G75*
G02*
X65650000Y-73750000I-100000J0D01*
G01*
X65450000Y-73750000D01*
G75*
G02*
X65350000Y-73650000I0J100000D01*
G01*
X65350000Y-72200000D01*
G75*
G02*
X65450000Y-72100000I100000J0D01*
G01*
G37*
G36*
G01*
X64950000Y-72100000D02*
X65150000Y-72100000D01*
G75*
G02*
X65250000Y-72200000I0J-100000D01*
G01*
X65250000Y-73650000D01*
G75*
G02*
X65150000Y-73750000I-100000J0D01*
G01*
X64950000Y-73750000D01*
G75*
G02*
X64850000Y-73650000I0J100000D01*
G01*
X64850000Y-72200000D01*
G75*
G02*
X64950000Y-72100000I100000J0D01*
G01*
G37*
G36*
G01*
X64450000Y-72100000D02*
X64650000Y-72100000D01*
G75*
G02*
X64750000Y-72200000I0J-100000D01*
G01*
X64750000Y-73650000D01*
G75*
G02*
X64650000Y-73750000I-100000J0D01*
G01*
X64450000Y-73750000D01*
G75*
G02*
X64350000Y-73650000I0J100000D01*
G01*
X64350000Y-72200000D01*
G75*
G02*
X64450000Y-72100000I100000J0D01*
G01*
G37*
G36*
G01*
X63950000Y-72100000D02*
X64150000Y-72100000D01*
G75*
G02*
X64250000Y-72200000I0J-100000D01*
G01*
X64250000Y-73650000D01*
G75*
G02*
X64150000Y-73750000I-100000J0D01*
G01*
X63950000Y-73750000D01*
G75*
G02*
X63850000Y-73650000I0J100000D01*
G01*
X63850000Y-72200000D01*
G75*
G02*
X63950000Y-72100000I100000J0D01*
G01*
G37*
G36*
G01*
X63450000Y-72100000D02*
X63650000Y-72100000D01*
G75*
G02*
X63750000Y-72200000I0J-100000D01*
G01*
X63750000Y-73650000D01*
G75*
G02*
X63650000Y-73750000I-100000J0D01*
G01*
X63450000Y-73750000D01*
G75*
G02*
X63350000Y-73650000I0J100000D01*
G01*
X63350000Y-72200000D01*
G75*
G02*
X63450000Y-72100000I100000J0D01*
G01*
G37*
G36*
G01*
X60900000Y-74650000D02*
X62350000Y-74650000D01*
G75*
G02*
X62450000Y-74750000I0J-100000D01*
G01*
X62450000Y-74950000D01*
G75*
G02*
X62350000Y-75050000I-100000J0D01*
G01*
X60900000Y-75050000D01*
G75*
G02*
X60800000Y-74950000I0J100000D01*
G01*
X60800000Y-74750000D01*
G75*
G02*
X60900000Y-74650000I100000J0D01*
G01*
G37*
G36*
G01*
X60900000Y-75150000D02*
X62350000Y-75150000D01*
G75*
G02*
X62450000Y-75250000I0J-100000D01*
G01*
X62450000Y-75450000D01*
G75*
G02*
X62350000Y-75550000I-100000J0D01*
G01*
X60900000Y-75550000D01*
G75*
G02*
X60800000Y-75450000I0J100000D01*
G01*
X60800000Y-75250000D01*
G75*
G02*
X60900000Y-75150000I100000J0D01*
G01*
G37*
G36*
G01*
X60900000Y-75650000D02*
X62350000Y-75650000D01*
G75*
G02*
X62450000Y-75750000I0J-100000D01*
G01*
X62450000Y-75950000D01*
G75*
G02*
X62350000Y-76050000I-100000J0D01*
G01*
X60900000Y-76050000D01*
G75*
G02*
X60800000Y-75950000I0J100000D01*
G01*
X60800000Y-75750000D01*
G75*
G02*
X60900000Y-75650000I100000J0D01*
G01*
G37*
G36*
G01*
X60900000Y-76150000D02*
X62350000Y-76150000D01*
G75*
G02*
X62450000Y-76250000I0J-100000D01*
G01*
X62450000Y-76450000D01*
G75*
G02*
X62350000Y-76550000I-100000J0D01*
G01*
X60900000Y-76550000D01*
G75*
G02*
X60800000Y-76450000I0J100000D01*
G01*
X60800000Y-76250000D01*
G75*
G02*
X60900000Y-76150000I100000J0D01*
G01*
G37*
G36*
G01*
X60900000Y-76650000D02*
X62350000Y-76650000D01*
G75*
G02*
X62450000Y-76750000I0J-100000D01*
G01*
X62450000Y-76950000D01*
G75*
G02*
X62350000Y-77050000I-100000J0D01*
G01*
X60900000Y-77050000D01*
G75*
G02*
X60800000Y-76950000I0J100000D01*
G01*
X60800000Y-76750000D01*
G75*
G02*
X60900000Y-76650000I100000J0D01*
G01*
G37*
G36*
G01*
X60900000Y-77150000D02*
X62350000Y-77150000D01*
G75*
G02*
X62450000Y-77250000I0J-100000D01*
G01*
X62450000Y-77450000D01*
G75*
G02*
X62350000Y-77550000I-100000J0D01*
G01*
X60900000Y-77550000D01*
G75*
G02*
X60800000Y-77450000I0J100000D01*
G01*
X60800000Y-77250000D01*
G75*
G02*
X60900000Y-77150000I100000J0D01*
G01*
G37*
G36*
G01*
X60900000Y-77650000D02*
X62350000Y-77650000D01*
G75*
G02*
X62450000Y-77750000I0J-100000D01*
G01*
X62450000Y-77950000D01*
G75*
G02*
X62350000Y-78050000I-100000J0D01*
G01*
X60900000Y-78050000D01*
G75*
G02*
X60800000Y-77950000I0J100000D01*
G01*
X60800000Y-77750000D01*
G75*
G02*
X60900000Y-77650000I100000J0D01*
G01*
G37*
G36*
G01*
X60900000Y-78150000D02*
X62350000Y-78150000D01*
G75*
G02*
X62450000Y-78250000I0J-100000D01*
G01*
X62450000Y-78450000D01*
G75*
G02*
X62350000Y-78550000I-100000J0D01*
G01*
X60900000Y-78550000D01*
G75*
G02*
X60800000Y-78450000I0J100000D01*
G01*
X60800000Y-78250000D01*
G75*
G02*
X60900000Y-78150000I100000J0D01*
G01*
G37*
G36*
G01*
X60900000Y-78650000D02*
X62350000Y-78650000D01*
G75*
G02*
X62450000Y-78750000I0J-100000D01*
G01*
X62450000Y-78950000D01*
G75*
G02*
X62350000Y-79050000I-100000J0D01*
G01*
X60900000Y-79050000D01*
G75*
G02*
X60800000Y-78950000I0J100000D01*
G01*
X60800000Y-78750000D01*
G75*
G02*
X60900000Y-78650000I100000J0D01*
G01*
G37*
G36*
G01*
X60900000Y-79150000D02*
X62350000Y-79150000D01*
G75*
G02*
X62450000Y-79250000I0J-100000D01*
G01*
X62450000Y-79450000D01*
G75*
G02*
X62350000Y-79550000I-100000J0D01*
G01*
X60900000Y-79550000D01*
G75*
G02*
X60800000Y-79450000I0J100000D01*
G01*
X60800000Y-79250000D01*
G75*
G02*
X60900000Y-79150000I100000J0D01*
G01*
G37*
G36*
G01*
X60900000Y-79650000D02*
X62350000Y-79650000D01*
G75*
G02*
X62450000Y-79750000I0J-100000D01*
G01*
X62450000Y-79950000D01*
G75*
G02*
X62350000Y-80050000I-100000J0D01*
G01*
X60900000Y-80050000D01*
G75*
G02*
X60800000Y-79950000I0J100000D01*
G01*
X60800000Y-79750000D01*
G75*
G02*
X60900000Y-79650000I100000J0D01*
G01*
G37*
G36*
G01*
X60900000Y-80150000D02*
X62350000Y-80150000D01*
G75*
G02*
X62450000Y-80250000I0J-100000D01*
G01*
X62450000Y-80450000D01*
G75*
G02*
X62350000Y-80550000I-100000J0D01*
G01*
X60900000Y-80550000D01*
G75*
G02*
X60800000Y-80450000I0J100000D01*
G01*
X60800000Y-80250000D01*
G75*
G02*
X60900000Y-80150000I100000J0D01*
G01*
G37*
G36*
G01*
X60900000Y-80650000D02*
X62350000Y-80650000D01*
G75*
G02*
X62450000Y-80750000I0J-100000D01*
G01*
X62450000Y-80950000D01*
G75*
G02*
X62350000Y-81050000I-100000J0D01*
G01*
X60900000Y-81050000D01*
G75*
G02*
X60800000Y-80950000I0J100000D01*
G01*
X60800000Y-80750000D01*
G75*
G02*
X60900000Y-80650000I100000J0D01*
G01*
G37*
G36*
G01*
X60900000Y-81150000D02*
X62350000Y-81150000D01*
G75*
G02*
X62450000Y-81250000I0J-100000D01*
G01*
X62450000Y-81450000D01*
G75*
G02*
X62350000Y-81550000I-100000J0D01*
G01*
X60900000Y-81550000D01*
G75*
G02*
X60800000Y-81450000I0J100000D01*
G01*
X60800000Y-81250000D01*
G75*
G02*
X60900000Y-81150000I100000J0D01*
G01*
G37*
G36*
G01*
X60900000Y-81650000D02*
X62350000Y-81650000D01*
G75*
G02*
X62450000Y-81750000I0J-100000D01*
G01*
X62450000Y-81950000D01*
G75*
G02*
X62350000Y-82050000I-100000J0D01*
G01*
X60900000Y-82050000D01*
G75*
G02*
X60800000Y-81950000I0J100000D01*
G01*
X60800000Y-81750000D01*
G75*
G02*
X60900000Y-81650000I100000J0D01*
G01*
G37*
G36*
G01*
X60900000Y-82150000D02*
X62350000Y-82150000D01*
G75*
G02*
X62450000Y-82250000I0J-100000D01*
G01*
X62450000Y-82450000D01*
G75*
G02*
X62350000Y-82550000I-100000J0D01*
G01*
X60900000Y-82550000D01*
G75*
G02*
X60800000Y-82450000I0J100000D01*
G01*
X60800000Y-82250000D01*
G75*
G02*
X60900000Y-82150000I100000J0D01*
G01*
G37*
G36*
G01*
X63450000Y-83450000D02*
X63650000Y-83450000D01*
G75*
G02*
X63750000Y-83550000I0J-100000D01*
G01*
X63750000Y-85000000D01*
G75*
G02*
X63650000Y-85100000I-100000J0D01*
G01*
X63450000Y-85100000D01*
G75*
G02*
X63350000Y-85000000I0J100000D01*
G01*
X63350000Y-83550000D01*
G75*
G02*
X63450000Y-83450000I100000J0D01*
G01*
G37*
G36*
G01*
X63950000Y-83450000D02*
X64150000Y-83450000D01*
G75*
G02*
X64250000Y-83550000I0J-100000D01*
G01*
X64250000Y-85000000D01*
G75*
G02*
X64150000Y-85100000I-100000J0D01*
G01*
X63950000Y-85100000D01*
G75*
G02*
X63850000Y-85000000I0J100000D01*
G01*
X63850000Y-83550000D01*
G75*
G02*
X63950000Y-83450000I100000J0D01*
G01*
G37*
G36*
G01*
X64450000Y-83450000D02*
X64650000Y-83450000D01*
G75*
G02*
X64750000Y-83550000I0J-100000D01*
G01*
X64750000Y-85000000D01*
G75*
G02*
X64650000Y-85100000I-100000J0D01*
G01*
X64450000Y-85100000D01*
G75*
G02*
X64350000Y-85000000I0J100000D01*
G01*
X64350000Y-83550000D01*
G75*
G02*
X64450000Y-83450000I100000J0D01*
G01*
G37*
G36*
G01*
X64950000Y-83450000D02*
X65150000Y-83450000D01*
G75*
G02*
X65250000Y-83550000I0J-100000D01*
G01*
X65250000Y-85000000D01*
G75*
G02*
X65150000Y-85100000I-100000J0D01*
G01*
X64950000Y-85100000D01*
G75*
G02*
X64850000Y-85000000I0J100000D01*
G01*
X64850000Y-83550000D01*
G75*
G02*
X64950000Y-83450000I100000J0D01*
G01*
G37*
G36*
G01*
X65450000Y-83450000D02*
X65650000Y-83450000D01*
G75*
G02*
X65750000Y-83550000I0J-100000D01*
G01*
X65750000Y-85000000D01*
G75*
G02*
X65650000Y-85100000I-100000J0D01*
G01*
X65450000Y-85100000D01*
G75*
G02*
X65350000Y-85000000I0J100000D01*
G01*
X65350000Y-83550000D01*
G75*
G02*
X65450000Y-83450000I100000J0D01*
G01*
G37*
G36*
G01*
X65950000Y-83450000D02*
X66150000Y-83450000D01*
G75*
G02*
X66250000Y-83550000I0J-100000D01*
G01*
X66250000Y-85000000D01*
G75*
G02*
X66150000Y-85100000I-100000J0D01*
G01*
X65950000Y-85100000D01*
G75*
G02*
X65850000Y-85000000I0J100000D01*
G01*
X65850000Y-83550000D01*
G75*
G02*
X65950000Y-83450000I100000J0D01*
G01*
G37*
G36*
G01*
X66450000Y-83450000D02*
X66650000Y-83450000D01*
G75*
G02*
X66750000Y-83550000I0J-100000D01*
G01*
X66750000Y-85000000D01*
G75*
G02*
X66650000Y-85100000I-100000J0D01*
G01*
X66450000Y-85100000D01*
G75*
G02*
X66350000Y-85000000I0J100000D01*
G01*
X66350000Y-83550000D01*
G75*
G02*
X66450000Y-83450000I100000J0D01*
G01*
G37*
G36*
G01*
X66950000Y-83450000D02*
X67150000Y-83450000D01*
G75*
G02*
X67250000Y-83550000I0J-100000D01*
G01*
X67250000Y-85000000D01*
G75*
G02*
X67150000Y-85100000I-100000J0D01*
G01*
X66950000Y-85100000D01*
G75*
G02*
X66850000Y-85000000I0J100000D01*
G01*
X66850000Y-83550000D01*
G75*
G02*
X66950000Y-83450000I100000J0D01*
G01*
G37*
G36*
G01*
X67450000Y-83450000D02*
X67650000Y-83450000D01*
G75*
G02*
X67750000Y-83550000I0J-100000D01*
G01*
X67750000Y-85000000D01*
G75*
G02*
X67650000Y-85100000I-100000J0D01*
G01*
X67450000Y-85100000D01*
G75*
G02*
X67350000Y-85000000I0J100000D01*
G01*
X67350000Y-83550000D01*
G75*
G02*
X67450000Y-83450000I100000J0D01*
G01*
G37*
G36*
G01*
X67950000Y-83450000D02*
X68150000Y-83450000D01*
G75*
G02*
X68250000Y-83550000I0J-100000D01*
G01*
X68250000Y-85000000D01*
G75*
G02*
X68150000Y-85100000I-100000J0D01*
G01*
X67950000Y-85100000D01*
G75*
G02*
X67850000Y-85000000I0J100000D01*
G01*
X67850000Y-83550000D01*
G75*
G02*
X67950000Y-83450000I100000J0D01*
G01*
G37*
G36*
G01*
X68450000Y-83450000D02*
X68650000Y-83450000D01*
G75*
G02*
X68750000Y-83550000I0J-100000D01*
G01*
X68750000Y-85000000D01*
G75*
G02*
X68650000Y-85100000I-100000J0D01*
G01*
X68450000Y-85100000D01*
G75*
G02*
X68350000Y-85000000I0J100000D01*
G01*
X68350000Y-83550000D01*
G75*
G02*
X68450000Y-83450000I100000J0D01*
G01*
G37*
G36*
G01*
X68950000Y-83450000D02*
X69150000Y-83450000D01*
G75*
G02*
X69250000Y-83550000I0J-100000D01*
G01*
X69250000Y-85000000D01*
G75*
G02*
X69150000Y-85100000I-100000J0D01*
G01*
X68950000Y-85100000D01*
G75*
G02*
X68850000Y-85000000I0J100000D01*
G01*
X68850000Y-83550000D01*
G75*
G02*
X68950000Y-83450000I100000J0D01*
G01*
G37*
G36*
G01*
X69450000Y-83450000D02*
X69650000Y-83450000D01*
G75*
G02*
X69750000Y-83550000I0J-100000D01*
G01*
X69750000Y-85000000D01*
G75*
G02*
X69650000Y-85100000I-100000J0D01*
G01*
X69450000Y-85100000D01*
G75*
G02*
X69350000Y-85000000I0J100000D01*
G01*
X69350000Y-83550000D01*
G75*
G02*
X69450000Y-83450000I100000J0D01*
G01*
G37*
G36*
G01*
X69950000Y-83450000D02*
X70150000Y-83450000D01*
G75*
G02*
X70250000Y-83550000I0J-100000D01*
G01*
X70250000Y-85000000D01*
G75*
G02*
X70150000Y-85100000I-100000J0D01*
G01*
X69950000Y-85100000D01*
G75*
G02*
X69850000Y-85000000I0J100000D01*
G01*
X69850000Y-83550000D01*
G75*
G02*
X69950000Y-83450000I100000J0D01*
G01*
G37*
G36*
G01*
X70450000Y-83450000D02*
X70650000Y-83450000D01*
G75*
G02*
X70750000Y-83550000I0J-100000D01*
G01*
X70750000Y-85000000D01*
G75*
G02*
X70650000Y-85100000I-100000J0D01*
G01*
X70450000Y-85100000D01*
G75*
G02*
X70350000Y-85000000I0J100000D01*
G01*
X70350000Y-83550000D01*
G75*
G02*
X70450000Y-83450000I100000J0D01*
G01*
G37*
G36*
G01*
X70950000Y-83450000D02*
X71150000Y-83450000D01*
G75*
G02*
X71250000Y-83550000I0J-100000D01*
G01*
X71250000Y-85000000D01*
G75*
G02*
X71150000Y-85100000I-100000J0D01*
G01*
X70950000Y-85100000D01*
G75*
G02*
X70850000Y-85000000I0J100000D01*
G01*
X70850000Y-83550000D01*
G75*
G02*
X70950000Y-83450000I100000J0D01*
G01*
G37*
G36*
G01*
X72250000Y-82150000D02*
X73700000Y-82150000D01*
G75*
G02*
X73800000Y-82250000I0J-100000D01*
G01*
X73800000Y-82450000D01*
G75*
G02*
X73700000Y-82550000I-100000J0D01*
G01*
X72250000Y-82550000D01*
G75*
G02*
X72150000Y-82450000I0J100000D01*
G01*
X72150000Y-82250000D01*
G75*
G02*
X72250000Y-82150000I100000J0D01*
G01*
G37*
G36*
G01*
X72250000Y-81650000D02*
X73700000Y-81650000D01*
G75*
G02*
X73800000Y-81750000I0J-100000D01*
G01*
X73800000Y-81950000D01*
G75*
G02*
X73700000Y-82050000I-100000J0D01*
G01*
X72250000Y-82050000D01*
G75*
G02*
X72150000Y-81950000I0J100000D01*
G01*
X72150000Y-81750000D01*
G75*
G02*
X72250000Y-81650000I100000J0D01*
G01*
G37*
G36*
G01*
X72250000Y-81150000D02*
X73700000Y-81150000D01*
G75*
G02*
X73800000Y-81250000I0J-100000D01*
G01*
X73800000Y-81450000D01*
G75*
G02*
X73700000Y-81550000I-100000J0D01*
G01*
X72250000Y-81550000D01*
G75*
G02*
X72150000Y-81450000I0J100000D01*
G01*
X72150000Y-81250000D01*
G75*
G02*
X72250000Y-81150000I100000J0D01*
G01*
G37*
G36*
G01*
X72250000Y-80650000D02*
X73700000Y-80650000D01*
G75*
G02*
X73800000Y-80750000I0J-100000D01*
G01*
X73800000Y-80950000D01*
G75*
G02*
X73700000Y-81050000I-100000J0D01*
G01*
X72250000Y-81050000D01*
G75*
G02*
X72150000Y-80950000I0J100000D01*
G01*
X72150000Y-80750000D01*
G75*
G02*
X72250000Y-80650000I100000J0D01*
G01*
G37*
G36*
G01*
X72250000Y-80150000D02*
X73700000Y-80150000D01*
G75*
G02*
X73800000Y-80250000I0J-100000D01*
G01*
X73800000Y-80450000D01*
G75*
G02*
X73700000Y-80550000I-100000J0D01*
G01*
X72250000Y-80550000D01*
G75*
G02*
X72150000Y-80450000I0J100000D01*
G01*
X72150000Y-80250000D01*
G75*
G02*
X72250000Y-80150000I100000J0D01*
G01*
G37*
G36*
G01*
X72250000Y-79650000D02*
X73700000Y-79650000D01*
G75*
G02*
X73800000Y-79750000I0J-100000D01*
G01*
X73800000Y-79950000D01*
G75*
G02*
X73700000Y-80050000I-100000J0D01*
G01*
X72250000Y-80050000D01*
G75*
G02*
X72150000Y-79950000I0J100000D01*
G01*
X72150000Y-79750000D01*
G75*
G02*
X72250000Y-79650000I100000J0D01*
G01*
G37*
G36*
G01*
X72250000Y-79150000D02*
X73700000Y-79150000D01*
G75*
G02*
X73800000Y-79250000I0J-100000D01*
G01*
X73800000Y-79450000D01*
G75*
G02*
X73700000Y-79550000I-100000J0D01*
G01*
X72250000Y-79550000D01*
G75*
G02*
X72150000Y-79450000I0J100000D01*
G01*
X72150000Y-79250000D01*
G75*
G02*
X72250000Y-79150000I100000J0D01*
G01*
G37*
G36*
G01*
X72250000Y-78650000D02*
X73700000Y-78650000D01*
G75*
G02*
X73800000Y-78750000I0J-100000D01*
G01*
X73800000Y-78950000D01*
G75*
G02*
X73700000Y-79050000I-100000J0D01*
G01*
X72250000Y-79050000D01*
G75*
G02*
X72150000Y-78950000I0J100000D01*
G01*
X72150000Y-78750000D01*
G75*
G02*
X72250000Y-78650000I100000J0D01*
G01*
G37*
G36*
G01*
X72250000Y-78150000D02*
X73700000Y-78150000D01*
G75*
G02*
X73800000Y-78250000I0J-100000D01*
G01*
X73800000Y-78450000D01*
G75*
G02*
X73700000Y-78550000I-100000J0D01*
G01*
X72250000Y-78550000D01*
G75*
G02*
X72150000Y-78450000I0J100000D01*
G01*
X72150000Y-78250000D01*
G75*
G02*
X72250000Y-78150000I100000J0D01*
G01*
G37*
G36*
G01*
X72250000Y-77650000D02*
X73700000Y-77650000D01*
G75*
G02*
X73800000Y-77750000I0J-100000D01*
G01*
X73800000Y-77950000D01*
G75*
G02*
X73700000Y-78050000I-100000J0D01*
G01*
X72250000Y-78050000D01*
G75*
G02*
X72150000Y-77950000I0J100000D01*
G01*
X72150000Y-77750000D01*
G75*
G02*
X72250000Y-77650000I100000J0D01*
G01*
G37*
G36*
G01*
X72250000Y-77150000D02*
X73700000Y-77150000D01*
G75*
G02*
X73800000Y-77250000I0J-100000D01*
G01*
X73800000Y-77450000D01*
G75*
G02*
X73700000Y-77550000I-100000J0D01*
G01*
X72250000Y-77550000D01*
G75*
G02*
X72150000Y-77450000I0J100000D01*
G01*
X72150000Y-77250000D01*
G75*
G02*
X72250000Y-77150000I100000J0D01*
G01*
G37*
G36*
G01*
X72250000Y-76650000D02*
X73700000Y-76650000D01*
G75*
G02*
X73800000Y-76750000I0J-100000D01*
G01*
X73800000Y-76950000D01*
G75*
G02*
X73700000Y-77050000I-100000J0D01*
G01*
X72250000Y-77050000D01*
G75*
G02*
X72150000Y-76950000I0J100000D01*
G01*
X72150000Y-76750000D01*
G75*
G02*
X72250000Y-76650000I100000J0D01*
G01*
G37*
G36*
G01*
X72250000Y-76150000D02*
X73700000Y-76150000D01*
G75*
G02*
X73800000Y-76250000I0J-100000D01*
G01*
X73800000Y-76450000D01*
G75*
G02*
X73700000Y-76550000I-100000J0D01*
G01*
X72250000Y-76550000D01*
G75*
G02*
X72150000Y-76450000I0J100000D01*
G01*
X72150000Y-76250000D01*
G75*
G02*
X72250000Y-76150000I100000J0D01*
G01*
G37*
G36*
G01*
X72250000Y-75650000D02*
X73700000Y-75650000D01*
G75*
G02*
X73800000Y-75750000I0J-100000D01*
G01*
X73800000Y-75950000D01*
G75*
G02*
X73700000Y-76050000I-100000J0D01*
G01*
X72250000Y-76050000D01*
G75*
G02*
X72150000Y-75950000I0J100000D01*
G01*
X72150000Y-75750000D01*
G75*
G02*
X72250000Y-75650000I100000J0D01*
G01*
G37*
G36*
G01*
X72250000Y-75150000D02*
X73700000Y-75150000D01*
G75*
G02*
X73800000Y-75250000I0J-100000D01*
G01*
X73800000Y-75450000D01*
G75*
G02*
X73700000Y-75550000I-100000J0D01*
G01*
X72250000Y-75550000D01*
G75*
G02*
X72150000Y-75450000I0J100000D01*
G01*
X72150000Y-75250000D01*
G75*
G02*
X72250000Y-75150000I100000J0D01*
G01*
G37*
G36*
G01*
X72250000Y-74650000D02*
X73700000Y-74650000D01*
G75*
G02*
X73800000Y-74750000I0J-100000D01*
G01*
X73800000Y-74950000D01*
G75*
G02*
X73700000Y-75050000I-100000J0D01*
G01*
X72250000Y-75050000D01*
G75*
G02*
X72150000Y-74950000I0J100000D01*
G01*
X72150000Y-74750000D01*
G75*
G02*
X72250000Y-74650000I100000J0D01*
G01*
G37*
%TD*%
D26*
%TO.C,U6*%
X67461000Y-56436000D03*
D27*
X70161000Y-58341000D03*
X70161000Y-57071000D03*
X70161000Y-55801000D03*
X70161000Y-54531000D03*
X64761000Y-54531000D03*
X64761000Y-55801000D03*
X64761000Y-57071000D03*
X64761000Y-58341000D03*
%TD*%
D28*
%TO.C,Y1*%
X70500000Y-67250000D03*
X68300000Y-67250000D03*
X68300000Y-68950000D03*
X70500000Y-68950000D03*
%TD*%
%TO.C,J2*%
G36*
G01*
X96634000Y-86779000D02*
X95834000Y-86779000D01*
G75*
G02*
X95434000Y-86379000I0J400000D01*
G01*
X95434000Y-85579000D01*
G75*
G02*
X95834000Y-85179000I400000J0D01*
G01*
X96634000Y-85179000D01*
G75*
G02*
X97034000Y-85579000I0J-400000D01*
G01*
X97034000Y-86379000D01*
G75*
G02*
X96634000Y-86779000I-400000J0D01*
G01*
G37*
G36*
G01*
X94634000Y-86779000D02*
X93834000Y-86779000D01*
G75*
G02*
X93434000Y-86379000I0J400000D01*
G01*
X93434000Y-85579000D01*
G75*
G02*
X93834000Y-85179000I400000J0D01*
G01*
X94634000Y-85179000D01*
G75*
G02*
X95034000Y-85579000I0J-400000D01*
G01*
X95034000Y-86379000D01*
G75*
G02*
X94634000Y-86779000I-400000J0D01*
G01*
G37*
%TD*%
%TO.C,J3*%
G36*
G01*
X94634000Y-77800000D02*
X93834000Y-77800000D01*
G75*
G02*
X93434000Y-77400000I0J400000D01*
G01*
X93434000Y-76600000D01*
G75*
G02*
X93834000Y-76200000I400000J0D01*
G01*
X94634000Y-76200000D01*
G75*
G02*
X95034000Y-76600000I0J-400000D01*
G01*
X95034000Y-77400000D01*
G75*
G02*
X94634000Y-77800000I-400000J0D01*
G01*
G37*
G36*
G01*
X96634000Y-77800000D02*
X95834000Y-77800000D01*
G75*
G02*
X95434000Y-77400000I0J400000D01*
G01*
X95434000Y-76600000D01*
G75*
G02*
X95834000Y-76200000I400000J0D01*
G01*
X96634000Y-76200000D01*
G75*
G02*
X97034000Y-76600000I0J-400000D01*
G01*
X97034000Y-77400000D01*
G75*
G02*
X96634000Y-77800000I-400000J0D01*
G01*
G37*
%TD*%
%TO.C,J4*%
G36*
G01*
X96634000Y-80800000D02*
X95834000Y-80800000D01*
G75*
G02*
X95434000Y-80400000I0J400000D01*
G01*
X95434000Y-79600000D01*
G75*
G02*
X95834000Y-79200000I400000J0D01*
G01*
X96634000Y-79200000D01*
G75*
G02*
X97034000Y-79600000I0J-400000D01*
G01*
X97034000Y-80400000D01*
G75*
G02*
X96634000Y-80800000I-400000J0D01*
G01*
G37*
G36*
G01*
X94634000Y-80800000D02*
X93834000Y-80800000D01*
G75*
G02*
X93434000Y-80400000I0J400000D01*
G01*
X93434000Y-79600000D01*
G75*
G02*
X93834000Y-79200000I400000J0D01*
G01*
X94634000Y-79200000D01*
G75*
G02*
X95034000Y-79600000I0J-400000D01*
G01*
X95034000Y-80400000D01*
G75*
G02*
X94634000Y-80800000I-400000J0D01*
G01*
G37*
%TD*%
%TO.C,J5*%
G36*
G01*
X57900000Y-71000000D02*
X57900000Y-70200000D01*
G75*
G02*
X58300000Y-69800000I400000J0D01*
G01*
X59100000Y-69800000D01*
G75*
G02*
X59500000Y-70200000I0J-400000D01*
G01*
X59500000Y-71000000D01*
G75*
G02*
X59100000Y-71400000I-400000J0D01*
G01*
X58300000Y-71400000D01*
G75*
G02*
X57900000Y-71000000I0J400000D01*
G01*
G37*
G36*
G01*
X57900000Y-73000000D02*
X57900000Y-72200000D01*
G75*
G02*
X58300000Y-71800000I400000J0D01*
G01*
X59100000Y-71800000D01*
G75*
G02*
X59500000Y-72200000I0J-400000D01*
G01*
X59500000Y-73000000D01*
G75*
G02*
X59100000Y-73400000I-400000J0D01*
G01*
X58300000Y-73400000D01*
G75*
G02*
X57900000Y-73000000I0J400000D01*
G01*
G37*
%TD*%
%TO.C,J6*%
G36*
G01*
X96634000Y-83800000D02*
X95834000Y-83800000D01*
G75*
G02*
X95434000Y-83400000I0J400000D01*
G01*
X95434000Y-82600000D01*
G75*
G02*
X95834000Y-82200000I400000J0D01*
G01*
X96634000Y-82200000D01*
G75*
G02*
X97034000Y-82600000I0J-400000D01*
G01*
X97034000Y-83400000D01*
G75*
G02*
X96634000Y-83800000I-400000J0D01*
G01*
G37*
G36*
G01*
X94634000Y-83800000D02*
X93834000Y-83800000D01*
G75*
G02*
X93434000Y-83400000I0J400000D01*
G01*
X93434000Y-82600000D01*
G75*
G02*
X93834000Y-82200000I400000J0D01*
G01*
X94634000Y-82200000D01*
G75*
G02*
X95034000Y-82600000I0J-400000D01*
G01*
X95034000Y-83400000D01*
G75*
G02*
X94634000Y-83800000I-400000J0D01*
G01*
G37*
%TD*%
%TO.C,J8*%
G36*
G01*
X54312700Y-86700000D02*
X54312700Y-87500000D01*
G75*
G02*
X53912700Y-87900000I-400000J0D01*
G01*
X53112700Y-87900000D01*
G75*
G02*
X52712700Y-87500000I0J400000D01*
G01*
X52712700Y-86700000D01*
G75*
G02*
X53112700Y-86300000I400000J0D01*
G01*
X53912700Y-86300000D01*
G75*
G02*
X54312700Y-86700000I0J-400000D01*
G01*
G37*
G36*
G01*
X54300000Y-88700000D02*
X54300000Y-89500000D01*
G75*
G02*
X53900000Y-89900000I-400000J0D01*
G01*
X53100000Y-89900000D01*
G75*
G02*
X52700000Y-89500000I0J400000D01*
G01*
X52700000Y-88700000D01*
G75*
G02*
X53100000Y-88300000I400000J0D01*
G01*
X53900000Y-88300000D01*
G75*
G02*
X54300000Y-88700000I0J-400000D01*
G01*
G37*
G36*
G01*
X54300000Y-90700000D02*
X54300000Y-91500000D01*
G75*
G02*
X53900000Y-91900000I-400000J0D01*
G01*
X53100000Y-91900000D01*
G75*
G02*
X52700000Y-91500000I0J400000D01*
G01*
X52700000Y-90700000D01*
G75*
G02*
X53100000Y-90300000I400000J0D01*
G01*
X53900000Y-90300000D01*
G75*
G02*
X54300000Y-90700000I0J-400000D01*
G01*
G37*
%TD*%
%TO.C,J9*%
G36*
G01*
X97000000Y-92100000D02*
X97000000Y-92900000D01*
G75*
G02*
X96600000Y-93300000I-400000J0D01*
G01*
X95800000Y-93300000D01*
G75*
G02*
X95400000Y-92900000I0J400000D01*
G01*
X95400000Y-92100000D01*
G75*
G02*
X95800000Y-91700000I400000J0D01*
G01*
X96600000Y-91700000D01*
G75*
G02*
X97000000Y-92100000I0J-400000D01*
G01*
G37*
G36*
G01*
X97000000Y-90100000D02*
X97000000Y-90900000D01*
G75*
G02*
X96600000Y-91300000I-400000J0D01*
G01*
X95800000Y-91300000D01*
G75*
G02*
X95400000Y-90900000I0J400000D01*
G01*
X95400000Y-90100000D01*
G75*
G02*
X95800000Y-89700000I400000J0D01*
G01*
X96600000Y-89700000D01*
G75*
G02*
X97000000Y-90100000I0J-400000D01*
G01*
G37*
G36*
G01*
X97012700Y-88100000D02*
X97012700Y-88900000D01*
G75*
G02*
X96612700Y-89300000I-400000J0D01*
G01*
X95812700Y-89300000D01*
G75*
G02*
X95412700Y-88900000I0J400000D01*
G01*
X95412700Y-88100000D01*
G75*
G02*
X95812700Y-87700000I400000J0D01*
G01*
X96612700Y-87700000D01*
G75*
G02*
X97012700Y-88100000I0J-400000D01*
G01*
G37*
%TD*%
%TO.C,J10*%
G36*
G01*
X94634000Y-74800000D02*
X93834000Y-74800000D01*
G75*
G02*
X93434000Y-74400000I0J400000D01*
G01*
X93434000Y-73600000D01*
G75*
G02*
X93834000Y-73200000I400000J0D01*
G01*
X94634000Y-73200000D01*
G75*
G02*
X95034000Y-73600000I0J-400000D01*
G01*
X95034000Y-74400000D01*
G75*
G02*
X94634000Y-74800000I-400000J0D01*
G01*
G37*
G36*
G01*
X96634000Y-74800000D02*
X95834000Y-74800000D01*
G75*
G02*
X95434000Y-74400000I0J400000D01*
G01*
X95434000Y-73600000D01*
G75*
G02*
X95834000Y-73200000I400000J0D01*
G01*
X96634000Y-73200000D01*
G75*
G02*
X97034000Y-73600000I0J-400000D01*
G01*
X97034000Y-74400000D01*
G75*
G02*
X96634000Y-74800000I-400000J0D01*
G01*
G37*
%TD*%
%TO.C,J12*%
G36*
G01*
X93734000Y-70366000D02*
X94534000Y-70366000D01*
G75*
G02*
X94934000Y-70766000I0J-400000D01*
G01*
X94934000Y-71566000D01*
G75*
G02*
X94534000Y-71966000I-400000J0D01*
G01*
X93734000Y-71966000D01*
G75*
G02*
X93334000Y-71566000I0J400000D01*
G01*
X93334000Y-70766000D01*
G75*
G02*
X93734000Y-70366000I400000J0D01*
G01*
G37*
G36*
G01*
X95734000Y-70366000D02*
X96534000Y-70366000D01*
G75*
G02*
X96934000Y-70766000I0J-400000D01*
G01*
X96934000Y-71566000D01*
G75*
G02*
X96534000Y-71966000I-400000J0D01*
G01*
X95734000Y-71966000D01*
G75*
G02*
X95334000Y-71566000I0J400000D01*
G01*
X95334000Y-70766000D01*
G75*
G02*
X95734000Y-70366000I400000J0D01*
G01*
G37*
%TD*%
%TO.C,J14*%
G36*
G01*
X52611900Y-70975000D02*
X52611900Y-69425000D01*
G75*
G02*
X53386900Y-68650000I775000J0D01*
G01*
X54936900Y-68650000D01*
G75*
G02*
X55711900Y-69425000I0J-775000D01*
G01*
X55711900Y-70975000D01*
G75*
G02*
X54936900Y-71750000I-775000J0D01*
G01*
X53386900Y-71750000D01*
G75*
G02*
X52611900Y-70975000I0J775000D01*
G01*
G37*
G36*
G01*
X52675400Y-66975000D02*
X52675400Y-65425000D01*
G75*
G02*
X53450400Y-64650000I775000J0D01*
G01*
X55000400Y-64650000D01*
G75*
G02*
X55775400Y-65425000I0J-775000D01*
G01*
X55775400Y-66975000D01*
G75*
G02*
X55000400Y-67750000I-775000J0D01*
G01*
X53450400Y-67750000D01*
G75*
G02*
X52675400Y-66975000I0J775000D01*
G01*
G37*
%TD*%
D29*
%TO.C,U5*%
X84850000Y-68000000D03*
X84850000Y-63400000D03*
X84850000Y-65700000D03*
D30*
X78550000Y-65700000D03*
%TD*%
%TO.C,C17*%
G36*
G01*
X72030000Y-70402500D02*
X72030000Y-70797500D01*
G75*
G02*
X71857500Y-70970000I-172500J0D01*
G01*
X71512500Y-70970000D01*
G75*
G02*
X71340000Y-70797500I0J172500D01*
G01*
X71340000Y-70402500D01*
G75*
G02*
X71512500Y-70230000I172500J0D01*
G01*
X71857500Y-70230000D01*
G75*
G02*
X72030000Y-70402500I0J-172500D01*
G01*
G37*
G36*
G01*
X71060000Y-70402500D02*
X71060000Y-70797500D01*
G75*
G02*
X70887500Y-70970000I-172500J0D01*
G01*
X70542500Y-70970000D01*
G75*
G02*
X70370000Y-70797500I0J172500D01*
G01*
X70370000Y-70402500D01*
G75*
G02*
X70542500Y-70230000I172500J0D01*
G01*
X70887500Y-70230000D01*
G75*
G02*
X71060000Y-70402500I0J-172500D01*
G01*
G37*
%TD*%
%TO.C,D7*%
G36*
G01*
X76587500Y-71218750D02*
X76587500Y-71781250D01*
G75*
G02*
X76343750Y-72025000I-243750J0D01*
G01*
X75856250Y-72025000D01*
G75*
G02*
X75612500Y-71781250I0J243750D01*
G01*
X75612500Y-71218750D01*
G75*
G02*
X75856250Y-70975000I243750J0D01*
G01*
X76343750Y-70975000D01*
G75*
G02*
X76587500Y-71218750I0J-243750D01*
G01*
G37*
G36*
G01*
X75012500Y-71218750D02*
X75012500Y-71781250D01*
G75*
G02*
X74768750Y-72025000I-243750J0D01*
G01*
X74281250Y-72025000D01*
G75*
G02*
X74037500Y-71781250I0J243750D01*
G01*
X74037500Y-71218750D01*
G75*
G02*
X74281250Y-70975000I243750J0D01*
G01*
X74768750Y-70975000D01*
G75*
G02*
X75012500Y-71218750I0J-243750D01*
G01*
G37*
%TD*%
%TO.C,R7*%
G36*
G01*
X76415000Y-69902500D02*
X76415000Y-70297500D01*
G75*
G02*
X76242500Y-70470000I-172500J0D01*
G01*
X75897500Y-70470000D01*
G75*
G02*
X75725000Y-70297500I0J172500D01*
G01*
X75725000Y-69902500D01*
G75*
G02*
X75897500Y-69730000I172500J0D01*
G01*
X76242500Y-69730000D01*
G75*
G02*
X76415000Y-69902500I0J-172500D01*
G01*
G37*
G36*
G01*
X75445000Y-69902500D02*
X75445000Y-70297500D01*
G75*
G02*
X75272500Y-70470000I-172500J0D01*
G01*
X74927500Y-70470000D01*
G75*
G02*
X74755000Y-70297500I0J172500D01*
G01*
X74755000Y-69902500D01*
G75*
G02*
X74927500Y-69730000I172500J0D01*
G01*
X75272500Y-69730000D01*
G75*
G02*
X75445000Y-69902500I0J-172500D01*
G01*
G37*
%TD*%
%TO.C,D8*%
G36*
G01*
X64070001Y-90576251D02*
X64070001Y-90013751D01*
G75*
G02*
X64313751Y-89770001I243750J0D01*
G01*
X64801251Y-89770001D01*
G75*
G02*
X65045001Y-90013751I0J-243750D01*
G01*
X65045001Y-90576251D01*
G75*
G02*
X64801251Y-90820001I-243750J0D01*
G01*
X64313751Y-90820001D01*
G75*
G02*
X64070001Y-90576251I0J243750D01*
G01*
G37*
G36*
G01*
X65645001Y-90576251D02*
X65645001Y-90013751D01*
G75*
G02*
X65888751Y-89770001I243750J0D01*
G01*
X66376251Y-89770001D01*
G75*
G02*
X66620001Y-90013751I0J-243750D01*
G01*
X66620001Y-90576251D01*
G75*
G02*
X66376251Y-90820001I-243750J0D01*
G01*
X65888751Y-90820001D01*
G75*
G02*
X65645001Y-90576251I0J243750D01*
G01*
G37*
%TD*%
%TO.C,R8*%
G36*
G01*
X64270000Y-91797500D02*
X64270000Y-91402500D01*
G75*
G02*
X64442500Y-91230000I172500J0D01*
G01*
X64787500Y-91230000D01*
G75*
G02*
X64960000Y-91402500I0J-172500D01*
G01*
X64960000Y-91797500D01*
G75*
G02*
X64787500Y-91970000I-172500J0D01*
G01*
X64442500Y-91970000D01*
G75*
G02*
X64270000Y-91797500I0J172500D01*
G01*
G37*
G36*
G01*
X65240000Y-91797500D02*
X65240000Y-91402500D01*
G75*
G02*
X65412500Y-91230000I172500J0D01*
G01*
X65757500Y-91230000D01*
G75*
G02*
X65930000Y-91402500I0J-172500D01*
G01*
X65930000Y-91797500D01*
G75*
G02*
X65757500Y-91970000I-172500J0D01*
G01*
X65412500Y-91970000D01*
G75*
G02*
X65240000Y-91797500I0J172500D01*
G01*
G37*
%TD*%
%TO.C,C7*%
G36*
G01*
X58718750Y-82625000D02*
X59281250Y-82625000D01*
G75*
G02*
X59525000Y-82868750I0J-243750D01*
G01*
X59525000Y-83356250D01*
G75*
G02*
X59281250Y-83600000I-243750J0D01*
G01*
X58718750Y-83600000D01*
G75*
G02*
X58475000Y-83356250I0J243750D01*
G01*
X58475000Y-82868750D01*
G75*
G02*
X58718750Y-82625000I243750J0D01*
G01*
G37*
G36*
G01*
X58718750Y-84200000D02*
X59281250Y-84200000D01*
G75*
G02*
X59525000Y-84443750I0J-243750D01*
G01*
X59525000Y-84931250D01*
G75*
G02*
X59281250Y-85175000I-243750J0D01*
G01*
X58718750Y-85175000D01*
G75*
G02*
X58475000Y-84931250I0J243750D01*
G01*
X58475000Y-84443750D01*
G75*
G02*
X58718750Y-84200000I243750J0D01*
G01*
G37*
%TD*%
%TO.C,C8*%
G36*
G01*
X74400000Y-84081250D02*
X74400000Y-83518750D01*
G75*
G02*
X74643750Y-83275000I243750J0D01*
G01*
X75131250Y-83275000D01*
G75*
G02*
X75375000Y-83518750I0J-243750D01*
G01*
X75375000Y-84081250D01*
G75*
G02*
X75131250Y-84325000I-243750J0D01*
G01*
X74643750Y-84325000D01*
G75*
G02*
X74400000Y-84081250I0J243750D01*
G01*
G37*
G36*
G01*
X72825000Y-84081250D02*
X72825000Y-83518750D01*
G75*
G02*
X73068750Y-83275000I243750J0D01*
G01*
X73556250Y-83275000D01*
G75*
G02*
X73800000Y-83518750I0J-243750D01*
G01*
X73800000Y-84081250D01*
G75*
G02*
X73556250Y-84325000I-243750J0D01*
G01*
X73068750Y-84325000D01*
G75*
G02*
X72825000Y-84081250I0J243750D01*
G01*
G37*
%TD*%
%TO.C,R13*%
G36*
G01*
X68845000Y-70202500D02*
X68845000Y-70597500D01*
G75*
G02*
X68672500Y-70770000I-172500J0D01*
G01*
X68327500Y-70770000D01*
G75*
G02*
X68155000Y-70597500I0J172500D01*
G01*
X68155000Y-70202500D01*
G75*
G02*
X68327500Y-70030000I172500J0D01*
G01*
X68672500Y-70030000D01*
G75*
G02*
X68845000Y-70202500I0J-172500D01*
G01*
G37*
G36*
G01*
X67875000Y-70202500D02*
X67875000Y-70597500D01*
G75*
G02*
X67702500Y-70770000I-172500J0D01*
G01*
X67357500Y-70770000D01*
G75*
G02*
X67185000Y-70597500I0J172500D01*
G01*
X67185000Y-70202500D01*
G75*
G02*
X67357500Y-70030000I172500J0D01*
G01*
X67702500Y-70030000D01*
G75*
G02*
X67875000Y-70202500I0J-172500D01*
G01*
G37*
%TD*%
M02*
