%TF.GenerationSoftware,KiCad,Pcbnew,(5.1.6-0-10_14)*%
%TF.CreationDate,2020-11-09T18:58:44+11:00*%
%TF.ProjectId,spartan_mk1,73706172-7461-46e5-9f6d-6b312e6b6963,rev?*%
%TF.SameCoordinates,Original*%
%TF.FileFunction,Legend,Bot*%
%TF.FilePolarity,Positive*%
%FSLAX46Y46*%
G04 Gerber Fmt 4.6, Leading zero omitted, Abs format (unit mm)*
G04 Created by KiCad (PCBNEW (5.1.6-0-10_14)) date 2020-11-09 18:58:44*
%MOMM*%
%LPD*%
G01*
G04 APERTURE LIST*
%ADD10C,0.120000*%
%ADD11C,0.125000*%
%ADD12C,0.010000*%
%ADD13C,0.127000*%
%ADD14C,0.100000*%
%ADD15C,0.150000*%
G04 APERTURE END LIST*
D10*
X72200000Y-76400000D02*
G75*
G03*
X72200000Y-76400000I-100000J0D01*
G01*
D11*
X69295238Y-67001190D02*
X69409523Y-66963095D01*
X69600000Y-66963095D01*
X69676190Y-67001190D01*
X69714285Y-67039285D01*
X69752380Y-67115476D01*
X69752380Y-67191666D01*
X69714285Y-67267857D01*
X69676190Y-67305952D01*
X69600000Y-67344047D01*
X69447619Y-67382142D01*
X69371428Y-67420238D01*
X69333333Y-67458333D01*
X69295238Y-67534523D01*
X69295238Y-67610714D01*
X69333333Y-67686904D01*
X69371428Y-67725000D01*
X69447619Y-67763095D01*
X69638095Y-67763095D01*
X69752380Y-67725000D01*
X70095238Y-67496428D02*
X70095238Y-66696428D01*
X70095238Y-67458333D02*
X70171428Y-67496428D01*
X70323809Y-67496428D01*
X70400000Y-67458333D01*
X70438095Y-67420238D01*
X70476190Y-67344047D01*
X70476190Y-67115476D01*
X70438095Y-67039285D01*
X70400000Y-67001190D01*
X70323809Y-66963095D01*
X70171428Y-66963095D01*
X70095238Y-67001190D01*
X71161904Y-66963095D02*
X71161904Y-67382142D01*
X71123809Y-67458333D01*
X71047619Y-67496428D01*
X70895238Y-67496428D01*
X70819047Y-67458333D01*
X71161904Y-67001190D02*
X71085714Y-66963095D01*
X70895238Y-66963095D01*
X70819047Y-67001190D01*
X70780952Y-67077380D01*
X70780952Y-67153571D01*
X70819047Y-67229761D01*
X70895238Y-67267857D01*
X71085714Y-67267857D01*
X71161904Y-67305952D01*
X71542857Y-66963095D02*
X71542857Y-67496428D01*
X71542857Y-67344047D02*
X71580952Y-67420238D01*
X71619047Y-67458333D01*
X71695238Y-67496428D01*
X71771428Y-67496428D01*
X71923809Y-67496428D02*
X72228571Y-67496428D01*
X72038095Y-67763095D02*
X72038095Y-67077380D01*
X72076190Y-67001190D01*
X72152380Y-66963095D01*
X72228571Y-66963095D01*
X72838095Y-66963095D02*
X72838095Y-67382142D01*
X72800000Y-67458333D01*
X72723809Y-67496428D01*
X72571428Y-67496428D01*
X72495238Y-67458333D01*
X72838095Y-67001190D02*
X72761904Y-66963095D01*
X72571428Y-66963095D01*
X72495238Y-67001190D01*
X72457142Y-67077380D01*
X72457142Y-67153571D01*
X72495238Y-67229761D01*
X72571428Y-67267857D01*
X72761904Y-67267857D01*
X72838095Y-67305952D01*
X73219047Y-67496428D02*
X73219047Y-66963095D01*
X73219047Y-67420238D02*
X73257142Y-67458333D01*
X73333333Y-67496428D01*
X73447619Y-67496428D01*
X73523809Y-67458333D01*
X73561904Y-67382142D01*
X73561904Y-66963095D01*
X74552380Y-66963095D02*
X74552380Y-67763095D01*
X74819047Y-67191666D01*
X75085714Y-67763095D01*
X75085714Y-66963095D01*
X75580952Y-66963095D02*
X75504761Y-67001190D01*
X75466666Y-67039285D01*
X75428571Y-67115476D01*
X75428571Y-67344047D01*
X75466666Y-67420238D01*
X75504761Y-67458333D01*
X75580952Y-67496428D01*
X75695238Y-67496428D01*
X75771428Y-67458333D01*
X75809523Y-67420238D01*
X75847619Y-67344047D01*
X75847619Y-67115476D01*
X75809523Y-67039285D01*
X75771428Y-67001190D01*
X75695238Y-66963095D01*
X75580952Y-66963095D01*
X76304761Y-66963095D02*
X76228571Y-67001190D01*
X76190476Y-67039285D01*
X76152380Y-67115476D01*
X76152380Y-67344047D01*
X76190476Y-67420238D01*
X76228571Y-67458333D01*
X76304761Y-67496428D01*
X76419047Y-67496428D01*
X76495238Y-67458333D01*
X76533333Y-67420238D01*
X76571428Y-67344047D01*
X76571428Y-67115476D01*
X76533333Y-67039285D01*
X76495238Y-67001190D01*
X76419047Y-66963095D01*
X76304761Y-66963095D01*
X76876190Y-67001190D02*
X76952380Y-66963095D01*
X77104761Y-66963095D01*
X77180952Y-67001190D01*
X77219047Y-67077380D01*
X77219047Y-67115476D01*
X77180952Y-67191666D01*
X77104761Y-67229761D01*
X76990476Y-67229761D01*
X76914285Y-67267857D01*
X76876190Y-67344047D01*
X76876190Y-67382142D01*
X76914285Y-67458333D01*
X76990476Y-67496428D01*
X77104761Y-67496428D01*
X77180952Y-67458333D01*
X77866666Y-67001190D02*
X77790476Y-66963095D01*
X77638095Y-66963095D01*
X77561904Y-67001190D01*
X77523809Y-67077380D01*
X77523809Y-67382142D01*
X77561904Y-67458333D01*
X77638095Y-67496428D01*
X77790476Y-67496428D01*
X77866666Y-67458333D01*
X77904761Y-67382142D01*
X77904761Y-67305952D01*
X77523809Y-67229761D01*
X78742857Y-67763095D02*
X79009523Y-66963095D01*
X79276190Y-67763095D01*
X79961904Y-66963095D02*
X79504761Y-66963095D01*
X79733333Y-66963095D02*
X79733333Y-67763095D01*
X79657142Y-67648809D01*
X79580952Y-67572619D01*
X79504761Y-67534523D01*
X80304761Y-67039285D02*
X80342857Y-67001190D01*
X80304761Y-66963095D01*
X80266666Y-67001190D01*
X80304761Y-67039285D01*
X80304761Y-66963095D01*
X80838095Y-67763095D02*
X80914285Y-67763095D01*
X80990476Y-67725000D01*
X81028571Y-67686904D01*
X81066666Y-67610714D01*
X81104761Y-67458333D01*
X81104761Y-67267857D01*
X81066666Y-67115476D01*
X81028571Y-67039285D01*
X80990476Y-67001190D01*
X80914285Y-66963095D01*
X80838095Y-66963095D01*
X80761904Y-67001190D01*
X80723809Y-67039285D01*
X80685714Y-67115476D01*
X80647619Y-67267857D01*
X80647619Y-67458333D01*
X80685714Y-67610714D01*
X80723809Y-67686904D01*
X80761904Y-67725000D01*
X80838095Y-67763095D01*
X73085714Y-65638095D02*
X73085714Y-66438095D01*
X73276190Y-66438095D01*
X73390476Y-66400000D01*
X73466666Y-66323809D01*
X73504761Y-66247619D01*
X73542857Y-66095238D01*
X73542857Y-65980952D01*
X73504761Y-65828571D01*
X73466666Y-65752380D01*
X73390476Y-65676190D01*
X73276190Y-65638095D01*
X73085714Y-65638095D01*
X73847619Y-65676190D02*
X73961904Y-65638095D01*
X74152380Y-65638095D01*
X74228571Y-65676190D01*
X74266666Y-65714285D01*
X74304761Y-65790476D01*
X74304761Y-65866666D01*
X74266666Y-65942857D01*
X74228571Y-65980952D01*
X74152380Y-66019047D01*
X74000000Y-66057142D01*
X73923809Y-66095238D01*
X73885714Y-66133333D01*
X73847619Y-66209523D01*
X73847619Y-66285714D01*
X73885714Y-66361904D01*
X73923809Y-66400000D01*
X74000000Y-66438095D01*
X74190476Y-66438095D01*
X74304761Y-66400000D01*
X74647619Y-65638095D02*
X74647619Y-66438095D01*
X74647619Y-66057142D02*
X75104761Y-66057142D01*
X75104761Y-65638095D02*
X75104761Y-66438095D01*
X76552380Y-65714285D02*
X76514285Y-65676190D01*
X76400000Y-65638095D01*
X76323809Y-65638095D01*
X76209523Y-65676190D01*
X76133333Y-65752380D01*
X76095238Y-65828571D01*
X76057142Y-65980952D01*
X76057142Y-66095238D01*
X76095238Y-66247619D01*
X76133333Y-66323809D01*
X76209523Y-66400000D01*
X76323809Y-66438095D01*
X76400000Y-66438095D01*
X76514285Y-66400000D01*
X76552380Y-66361904D01*
X77352380Y-65638095D02*
X77085714Y-66019047D01*
X76895238Y-65638095D02*
X76895238Y-66438095D01*
X77200000Y-66438095D01*
X77276190Y-66400000D01*
X77314285Y-66361904D01*
X77352380Y-66285714D01*
X77352380Y-66171428D01*
X77314285Y-66095238D01*
X77276190Y-66057142D01*
X77200000Y-66019047D01*
X76895238Y-66019047D01*
X73828571Y-65036904D02*
X73866666Y-65075000D01*
X73942857Y-65113095D01*
X74133333Y-65113095D01*
X74209523Y-65075000D01*
X74247619Y-65036904D01*
X74285714Y-64960714D01*
X74285714Y-64884523D01*
X74247619Y-64770238D01*
X73790476Y-64313095D01*
X74285714Y-64313095D01*
X74780952Y-65113095D02*
X74857142Y-65113095D01*
X74933333Y-65075000D01*
X74971428Y-65036904D01*
X75009523Y-64960714D01*
X75047619Y-64808333D01*
X75047619Y-64617857D01*
X75009523Y-64465476D01*
X74971428Y-64389285D01*
X74933333Y-64351190D01*
X74857142Y-64313095D01*
X74780952Y-64313095D01*
X74704761Y-64351190D01*
X74666666Y-64389285D01*
X74628571Y-64465476D01*
X74590476Y-64617857D01*
X74590476Y-64808333D01*
X74628571Y-64960714D01*
X74666666Y-65036904D01*
X74704761Y-65075000D01*
X74780952Y-65113095D01*
X75352380Y-65036904D02*
X75390476Y-65075000D01*
X75466666Y-65113095D01*
X75657142Y-65113095D01*
X75733333Y-65075000D01*
X75771428Y-65036904D01*
X75809523Y-64960714D01*
X75809523Y-64884523D01*
X75771428Y-64770238D01*
X75314285Y-64313095D01*
X75809523Y-64313095D01*
X76304761Y-65113095D02*
X76380952Y-65113095D01*
X76457142Y-65075000D01*
X76495238Y-65036904D01*
X76533333Y-64960714D01*
X76571428Y-64808333D01*
X76571428Y-64617857D01*
X76533333Y-64465476D01*
X76495238Y-64389285D01*
X76457142Y-64351190D01*
X76380952Y-64313095D01*
X76304761Y-64313095D01*
X76228571Y-64351190D01*
X76190476Y-64389285D01*
X76152380Y-64465476D01*
X76114285Y-64617857D01*
X76114285Y-64808333D01*
X76152380Y-64960714D01*
X76190476Y-65036904D01*
X76228571Y-65075000D01*
X76304761Y-65113095D01*
X91378571Y-56164285D02*
X91307142Y-56188095D01*
X91283333Y-56211904D01*
X91259523Y-56259523D01*
X91259523Y-56330952D01*
X91283333Y-56378571D01*
X91307142Y-56402380D01*
X91354761Y-56426190D01*
X91545238Y-56426190D01*
X91545238Y-55926190D01*
X91378571Y-55926190D01*
X91330952Y-55950000D01*
X91307142Y-55973809D01*
X91283333Y-56021428D01*
X91283333Y-56069047D01*
X91307142Y-56116666D01*
X91330952Y-56140476D01*
X91378571Y-56164285D01*
X91545238Y-56164285D01*
X90950000Y-55926190D02*
X90854761Y-55926190D01*
X90807142Y-55950000D01*
X90759523Y-55997619D01*
X90735714Y-56092857D01*
X90735714Y-56259523D01*
X90759523Y-56354761D01*
X90807142Y-56402380D01*
X90854761Y-56426190D01*
X90950000Y-56426190D01*
X90997619Y-56402380D01*
X91045238Y-56354761D01*
X91069047Y-56259523D01*
X91069047Y-56092857D01*
X91045238Y-55997619D01*
X90997619Y-55950000D01*
X90950000Y-55926190D01*
X90426190Y-55926190D02*
X90330952Y-55926190D01*
X90283333Y-55950000D01*
X90235714Y-55997619D01*
X90211904Y-56092857D01*
X90211904Y-56259523D01*
X90235714Y-56354761D01*
X90283333Y-56402380D01*
X90330952Y-56426190D01*
X90426190Y-56426190D01*
X90473809Y-56402380D01*
X90521428Y-56354761D01*
X90545238Y-56259523D01*
X90545238Y-56092857D01*
X90521428Y-55997619D01*
X90473809Y-55950000D01*
X90426190Y-55926190D01*
X90069047Y-55926190D02*
X89783333Y-55926190D01*
X89926190Y-56426190D02*
X89926190Y-55926190D01*
X59980952Y-83350000D02*
X60028571Y-83326190D01*
X60100000Y-83326190D01*
X60171428Y-83350000D01*
X60219047Y-83397619D01*
X60242857Y-83445238D01*
X60266666Y-83540476D01*
X60266666Y-83611904D01*
X60242857Y-83707142D01*
X60219047Y-83754761D01*
X60171428Y-83802380D01*
X60100000Y-83826190D01*
X60052380Y-83826190D01*
X59980952Y-83802380D01*
X59957142Y-83778571D01*
X59957142Y-83611904D01*
X60052380Y-83611904D01*
X59742857Y-83826190D02*
X59742857Y-83326190D01*
X59457142Y-83826190D01*
X59457142Y-83326190D01*
X59219047Y-83826190D02*
X59219047Y-83326190D01*
X59100000Y-83326190D01*
X59028571Y-83350000D01*
X58980952Y-83397619D01*
X58957142Y-83445238D01*
X58933333Y-83540476D01*
X58933333Y-83611904D01*
X58957142Y-83707142D01*
X58980952Y-83754761D01*
X59028571Y-83802380D01*
X59100000Y-83826190D01*
X59219047Y-83826190D01*
X60011904Y-82778571D02*
X60035714Y-82802380D01*
X60107142Y-82826190D01*
X60154761Y-82826190D01*
X60226190Y-82802380D01*
X60273809Y-82754761D01*
X60297619Y-82707142D01*
X60321428Y-82611904D01*
X60321428Y-82540476D01*
X60297619Y-82445238D01*
X60273809Y-82397619D01*
X60226190Y-82350000D01*
X60154761Y-82326190D01*
X60107142Y-82326190D01*
X60035714Y-82350000D01*
X60011904Y-82373809D01*
X59821428Y-82802380D02*
X59750000Y-82826190D01*
X59630952Y-82826190D01*
X59583333Y-82802380D01*
X59559523Y-82778571D01*
X59535714Y-82730952D01*
X59535714Y-82683333D01*
X59559523Y-82635714D01*
X59583333Y-82611904D01*
X59630952Y-82588095D01*
X59726190Y-82564285D01*
X59773809Y-82540476D01*
X59797619Y-82516666D01*
X59821428Y-82469047D01*
X59821428Y-82421428D01*
X59797619Y-82373809D01*
X59773809Y-82350000D01*
X59726190Y-82326190D01*
X59607142Y-82326190D01*
X59535714Y-82350000D01*
X59440476Y-82873809D02*
X59059523Y-82873809D01*
X58726190Y-82492857D02*
X58726190Y-82826190D01*
X58845238Y-82302380D02*
X58964285Y-82659523D01*
X58654761Y-82659523D01*
X60011904Y-81778571D02*
X60035714Y-81802380D01*
X60107142Y-81826190D01*
X60154761Y-81826190D01*
X60226190Y-81802380D01*
X60273809Y-81754761D01*
X60297619Y-81707142D01*
X60321428Y-81611904D01*
X60321428Y-81540476D01*
X60297619Y-81445238D01*
X60273809Y-81397619D01*
X60226190Y-81350000D01*
X60154761Y-81326190D01*
X60107142Y-81326190D01*
X60035714Y-81350000D01*
X60011904Y-81373809D01*
X59821428Y-81802380D02*
X59750000Y-81826190D01*
X59630952Y-81826190D01*
X59583333Y-81802380D01*
X59559523Y-81778571D01*
X59535714Y-81730952D01*
X59535714Y-81683333D01*
X59559523Y-81635714D01*
X59583333Y-81611904D01*
X59630952Y-81588095D01*
X59726190Y-81564285D01*
X59773809Y-81540476D01*
X59797619Y-81516666D01*
X59821428Y-81469047D01*
X59821428Y-81421428D01*
X59797619Y-81373809D01*
X59773809Y-81350000D01*
X59726190Y-81326190D01*
X59607142Y-81326190D01*
X59535714Y-81350000D01*
X59440476Y-81873809D02*
X59059523Y-81873809D01*
X58988095Y-81326190D02*
X58678571Y-81326190D01*
X58845238Y-81516666D01*
X58773809Y-81516666D01*
X58726190Y-81540476D01*
X58702380Y-81564285D01*
X58678571Y-81611904D01*
X58678571Y-81730952D01*
X58702380Y-81778571D01*
X58726190Y-81802380D01*
X58773809Y-81826190D01*
X58916666Y-81826190D01*
X58964285Y-81802380D01*
X58988095Y-81778571D01*
X60011904Y-80778571D02*
X60035714Y-80802380D01*
X60107142Y-80826190D01*
X60154761Y-80826190D01*
X60226190Y-80802380D01*
X60273809Y-80754761D01*
X60297619Y-80707142D01*
X60321428Y-80611904D01*
X60321428Y-80540476D01*
X60297619Y-80445238D01*
X60273809Y-80397619D01*
X60226190Y-80350000D01*
X60154761Y-80326190D01*
X60107142Y-80326190D01*
X60035714Y-80350000D01*
X60011904Y-80373809D01*
X59821428Y-80802380D02*
X59750000Y-80826190D01*
X59630952Y-80826190D01*
X59583333Y-80802380D01*
X59559523Y-80778571D01*
X59535714Y-80730952D01*
X59535714Y-80683333D01*
X59559523Y-80635714D01*
X59583333Y-80611904D01*
X59630952Y-80588095D01*
X59726190Y-80564285D01*
X59773809Y-80540476D01*
X59797619Y-80516666D01*
X59821428Y-80469047D01*
X59821428Y-80421428D01*
X59797619Y-80373809D01*
X59773809Y-80350000D01*
X59726190Y-80326190D01*
X59607142Y-80326190D01*
X59535714Y-80350000D01*
X59440476Y-80873809D02*
X59059523Y-80873809D01*
X58964285Y-80373809D02*
X58940476Y-80350000D01*
X58892857Y-80326190D01*
X58773809Y-80326190D01*
X58726190Y-80350000D01*
X58702380Y-80373809D01*
X58678571Y-80421428D01*
X58678571Y-80469047D01*
X58702380Y-80540476D01*
X58988095Y-80826190D01*
X58678571Y-80826190D01*
X60011904Y-79778571D02*
X60035714Y-79802380D01*
X60107142Y-79826190D01*
X60154761Y-79826190D01*
X60226190Y-79802380D01*
X60273809Y-79754761D01*
X60297619Y-79707142D01*
X60321428Y-79611904D01*
X60321428Y-79540476D01*
X60297619Y-79445238D01*
X60273809Y-79397619D01*
X60226190Y-79350000D01*
X60154761Y-79326190D01*
X60107142Y-79326190D01*
X60035714Y-79350000D01*
X60011904Y-79373809D01*
X59821428Y-79802380D02*
X59750000Y-79826190D01*
X59630952Y-79826190D01*
X59583333Y-79802380D01*
X59559523Y-79778571D01*
X59535714Y-79730952D01*
X59535714Y-79683333D01*
X59559523Y-79635714D01*
X59583333Y-79611904D01*
X59630952Y-79588095D01*
X59726190Y-79564285D01*
X59773809Y-79540476D01*
X59797619Y-79516666D01*
X59821428Y-79469047D01*
X59821428Y-79421428D01*
X59797619Y-79373809D01*
X59773809Y-79350000D01*
X59726190Y-79326190D01*
X59607142Y-79326190D01*
X59535714Y-79350000D01*
X59440476Y-79873809D02*
X59059523Y-79873809D01*
X58678571Y-79826190D02*
X58964285Y-79826190D01*
X58821428Y-79826190D02*
X58821428Y-79326190D01*
X58869047Y-79397619D01*
X58916666Y-79445238D01*
X58964285Y-79469047D01*
X60285714Y-78826190D02*
X60285714Y-78326190D01*
X60119047Y-78683333D01*
X59952380Y-78326190D01*
X59952380Y-78826190D01*
X59714285Y-78826190D02*
X59714285Y-78326190D01*
X59500000Y-78802380D02*
X59428571Y-78826190D01*
X59309523Y-78826190D01*
X59261904Y-78802380D01*
X59238095Y-78778571D01*
X59214285Y-78730952D01*
X59214285Y-78683333D01*
X59238095Y-78635714D01*
X59261904Y-78611904D01*
X59309523Y-78588095D01*
X59404761Y-78564285D01*
X59452380Y-78540476D01*
X59476190Y-78516666D01*
X59500000Y-78469047D01*
X59500000Y-78421428D01*
X59476190Y-78373809D01*
X59452380Y-78350000D01*
X59404761Y-78326190D01*
X59285714Y-78326190D01*
X59214285Y-78350000D01*
X58904761Y-78326190D02*
X58809523Y-78326190D01*
X58761904Y-78350000D01*
X58714285Y-78397619D01*
X58690476Y-78492857D01*
X58690476Y-78659523D01*
X58714285Y-78754761D01*
X58761904Y-78802380D01*
X58809523Y-78826190D01*
X58904761Y-78826190D01*
X58952380Y-78802380D01*
X59000000Y-78754761D01*
X59023809Y-78659523D01*
X59023809Y-78492857D01*
X59000000Y-78397619D01*
X58952380Y-78350000D01*
X58904761Y-78326190D01*
X60285714Y-77826190D02*
X60285714Y-77326190D01*
X60119047Y-77683333D01*
X59952380Y-77326190D01*
X59952380Y-77826190D01*
X59619047Y-77326190D02*
X59523809Y-77326190D01*
X59476190Y-77350000D01*
X59428571Y-77397619D01*
X59404761Y-77492857D01*
X59404761Y-77659523D01*
X59428571Y-77754761D01*
X59476190Y-77802380D01*
X59523809Y-77826190D01*
X59619047Y-77826190D01*
X59666666Y-77802380D01*
X59714285Y-77754761D01*
X59738095Y-77659523D01*
X59738095Y-77492857D01*
X59714285Y-77397619D01*
X59666666Y-77350000D01*
X59619047Y-77326190D01*
X59214285Y-77802380D02*
X59142857Y-77826190D01*
X59023809Y-77826190D01*
X58976190Y-77802380D01*
X58952380Y-77778571D01*
X58928571Y-77730952D01*
X58928571Y-77683333D01*
X58952380Y-77635714D01*
X58976190Y-77611904D01*
X59023809Y-77588095D01*
X59119047Y-77564285D01*
X59166666Y-77540476D01*
X59190476Y-77516666D01*
X59214285Y-77469047D01*
X59214285Y-77421428D01*
X59190476Y-77373809D01*
X59166666Y-77350000D01*
X59119047Y-77326190D01*
X59000000Y-77326190D01*
X58928571Y-77350000D01*
X58714285Y-77826190D02*
X58714285Y-77326190D01*
X60342857Y-76802380D02*
X60271428Y-76826190D01*
X60152380Y-76826190D01*
X60104761Y-76802380D01*
X60080952Y-76778571D01*
X60057142Y-76730952D01*
X60057142Y-76683333D01*
X60080952Y-76635714D01*
X60104761Y-76611904D01*
X60152380Y-76588095D01*
X60247619Y-76564285D01*
X60295238Y-76540476D01*
X60319047Y-76516666D01*
X60342857Y-76469047D01*
X60342857Y-76421428D01*
X60319047Y-76373809D01*
X60295238Y-76350000D01*
X60247619Y-76326190D01*
X60128571Y-76326190D01*
X60057142Y-76350000D01*
X59557142Y-76778571D02*
X59580952Y-76802380D01*
X59652380Y-76826190D01*
X59700000Y-76826190D01*
X59771428Y-76802380D01*
X59819047Y-76754761D01*
X59842857Y-76707142D01*
X59866666Y-76611904D01*
X59866666Y-76540476D01*
X59842857Y-76445238D01*
X59819047Y-76397619D01*
X59771428Y-76350000D01*
X59700000Y-76326190D01*
X59652380Y-76326190D01*
X59580952Y-76350000D01*
X59557142Y-76373809D01*
X59342857Y-76826190D02*
X59342857Y-76326190D01*
X59057142Y-76826190D02*
X59271428Y-76540476D01*
X59057142Y-76326190D02*
X59342857Y-76611904D01*
D12*
%TO.C,G\u002A\u002A\u002A*%
G36*
X82198187Y-84264974D02*
G01*
X82232083Y-84258417D01*
X82437026Y-84176957D01*
X82496667Y-84046477D01*
X82477595Y-83959096D01*
X82394998Y-83914448D01*
X82210798Y-83902417D01*
X81978752Y-83908894D01*
X81634270Y-83942598D01*
X81446659Y-84007766D01*
X81416081Y-84044712D01*
X81428260Y-84186419D01*
X81578829Y-84274597D01*
X81843550Y-84302898D01*
X82198187Y-84264974D01*
G37*
X82198187Y-84264974D02*
X82232083Y-84258417D01*
X82437026Y-84176957D01*
X82496667Y-84046477D01*
X82477595Y-83959096D01*
X82394998Y-83914448D01*
X82210798Y-83902417D01*
X81978752Y-83908894D01*
X81634270Y-83942598D01*
X81446659Y-84007766D01*
X81416081Y-84044712D01*
X81428260Y-84186419D01*
X81578829Y-84274597D01*
X81843550Y-84302898D01*
X82198187Y-84264974D01*
G36*
X78658444Y-83944445D02*
G01*
X78668577Y-83843965D01*
X78658444Y-83831556D01*
X78608110Y-83843178D01*
X78602000Y-83888000D01*
X78632978Y-83957690D01*
X78658444Y-83944445D01*
G37*
X78658444Y-83944445D02*
X78668577Y-83843965D01*
X78658444Y-83831556D01*
X78608110Y-83843178D01*
X78602000Y-83888000D01*
X78632978Y-83957690D01*
X78658444Y-83944445D01*
G36*
X78492548Y-83823513D02*
G01*
X78506179Y-83602903D01*
X78490839Y-83484846D01*
X78467953Y-83465055D01*
X78455112Y-83586641D01*
X78454018Y-83676333D01*
X78462354Y-83840298D01*
X78481477Y-83865173D01*
X78492548Y-83823513D01*
G37*
X78492548Y-83823513D02*
X78506179Y-83602903D01*
X78490839Y-83484846D01*
X78467953Y-83465055D01*
X78455112Y-83586641D01*
X78454018Y-83676333D01*
X78462354Y-83840298D01*
X78481477Y-83865173D01*
X78492548Y-83823513D01*
G36*
X78686667Y-83422333D02*
G01*
X78767437Y-83346251D01*
X78771333Y-83332670D01*
X78705827Y-83296304D01*
X78686667Y-83295333D01*
X78605253Y-83360421D01*
X78602000Y-83384997D01*
X78653870Y-83435563D01*
X78686667Y-83422333D01*
G37*
X78686667Y-83422333D02*
X78767437Y-83346251D01*
X78771333Y-83332670D01*
X78705827Y-83296304D01*
X78686667Y-83295333D01*
X78605253Y-83360421D01*
X78602000Y-83384997D01*
X78653870Y-83435563D01*
X78686667Y-83422333D01*
G36*
X78771333Y-83083667D02*
G01*
X78729000Y-83041333D01*
X78686667Y-83083667D01*
X78729000Y-83126000D01*
X78771333Y-83083667D01*
G37*
X78771333Y-83083667D02*
X78729000Y-83041333D01*
X78686667Y-83083667D01*
X78729000Y-83126000D01*
X78771333Y-83083667D01*
G36*
X78877909Y-82901648D02*
G01*
X78925609Y-82847810D01*
X78961204Y-82760633D01*
X78860929Y-82738953D01*
X78749017Y-82784257D01*
X78747678Y-82847810D01*
X78799516Y-82947326D01*
X78812358Y-82956667D01*
X78877909Y-82901648D01*
G37*
X78877909Y-82901648D02*
X78925609Y-82847810D01*
X78961204Y-82760633D01*
X78860929Y-82738953D01*
X78749017Y-82784257D01*
X78747678Y-82847810D01*
X78799516Y-82947326D01*
X78812358Y-82956667D01*
X78877909Y-82901648D01*
G36*
X78517333Y-82660333D02*
G01*
X78475000Y-82618000D01*
X78432667Y-82660333D01*
X78475000Y-82702667D01*
X78517333Y-82660333D01*
G37*
X78517333Y-82660333D02*
X78475000Y-82618000D01*
X78432667Y-82660333D01*
X78475000Y-82702667D01*
X78517333Y-82660333D01*
G36*
X78822433Y-82555260D02*
G01*
X78771333Y-82448667D01*
X78668114Y-82314722D01*
X78599850Y-82279333D01*
X78586541Y-82332169D01*
X78663978Y-82448667D01*
X78780558Y-82574525D01*
X78835462Y-82618000D01*
X78822433Y-82555260D01*
G37*
X78822433Y-82555260D02*
X78771333Y-82448667D01*
X78668114Y-82314722D01*
X78599850Y-82279333D01*
X78586541Y-82332169D01*
X78663978Y-82448667D01*
X78780558Y-82574525D01*
X78835462Y-82618000D01*
X78822433Y-82555260D01*
G36*
X82126247Y-82243877D02*
G01*
X82158000Y-82194667D01*
X82087087Y-82125877D01*
X81988667Y-82110000D01*
X81851086Y-82145456D01*
X81819333Y-82194667D01*
X81890246Y-82263457D01*
X81988667Y-82279333D01*
X82126247Y-82243877D01*
G37*
X82126247Y-82243877D02*
X82158000Y-82194667D01*
X82087087Y-82125877D01*
X81988667Y-82110000D01*
X81851086Y-82145456D01*
X81819333Y-82194667D01*
X81890246Y-82263457D01*
X81988667Y-82279333D01*
X82126247Y-82243877D01*
G36*
X69542667Y-80035667D02*
G01*
X69500333Y-79993333D01*
X69458000Y-80035667D01*
X69500333Y-80078000D01*
X69542667Y-80035667D01*
G37*
X69542667Y-80035667D02*
X69500333Y-79993333D01*
X69458000Y-80035667D01*
X69500333Y-80078000D01*
X69542667Y-80035667D01*
G36*
X80318111Y-80980203D02*
G01*
X80320926Y-80952408D01*
X80188384Y-80941056D01*
X80168333Y-80941172D01*
X80037019Y-80953381D01*
X80049554Y-80979150D01*
X80064111Y-80983340D01*
X80248541Y-80995735D01*
X80318111Y-80980203D01*
G37*
X80318111Y-80980203D02*
X80320926Y-80952408D01*
X80188384Y-80941056D01*
X80168333Y-80941172D01*
X80037019Y-80953381D01*
X80049554Y-80979150D01*
X80064111Y-80983340D01*
X80248541Y-80995735D01*
X80318111Y-80980203D01*
G36*
X80147167Y-80303407D02*
G01*
X80157803Y-80272504D01*
X80041333Y-80260702D01*
X79921138Y-80274007D01*
X79935500Y-80303407D01*
X80108842Y-80314589D01*
X80147167Y-80303407D01*
G37*
X80147167Y-80303407D02*
X80157803Y-80272504D01*
X80041333Y-80260702D01*
X79921138Y-80274007D01*
X79935500Y-80303407D01*
X80108842Y-80314589D01*
X80147167Y-80303407D01*
G36*
X79589778Y-80219111D02*
G01*
X79578155Y-80168777D01*
X79533333Y-80162667D01*
X79463643Y-80193645D01*
X79476889Y-80219111D01*
X79577368Y-80229244D01*
X79589778Y-80219111D01*
G37*
X79589778Y-80219111D02*
X79578155Y-80168777D01*
X79533333Y-80162667D01*
X79463643Y-80193645D01*
X79476889Y-80219111D01*
X79577368Y-80229244D01*
X79589778Y-80219111D01*
G36*
X80775111Y-79711111D02*
G01*
X80763489Y-79660777D01*
X80718667Y-79654667D01*
X80648976Y-79685645D01*
X80662222Y-79711111D01*
X80762702Y-79721244D01*
X80775111Y-79711111D01*
G37*
X80775111Y-79711111D02*
X80763489Y-79660777D01*
X80718667Y-79654667D01*
X80648976Y-79685645D01*
X80662222Y-79711111D01*
X80762702Y-79721244D01*
X80775111Y-79711111D01*
G36*
X80357069Y-79621153D02*
G01*
X80331818Y-79582671D01*
X80245944Y-79576684D01*
X80155602Y-79597362D01*
X80194792Y-79627837D01*
X80327115Y-79637931D01*
X80357069Y-79621153D01*
G37*
X80357069Y-79621153D02*
X80331818Y-79582671D01*
X80245944Y-79576684D01*
X80155602Y-79597362D01*
X80194792Y-79627837D01*
X80327115Y-79637931D01*
X80357069Y-79621153D01*
G36*
X75943868Y-72413764D02*
G01*
X76063800Y-72301127D01*
X76089705Y-72246333D01*
X76037006Y-72168647D01*
X75897190Y-72135927D01*
X75748294Y-72155743D01*
X75679433Y-72206536D01*
X75667992Y-72339975D01*
X75765447Y-72430390D01*
X75911415Y-72430462D01*
X75943868Y-72413764D01*
G37*
X75943868Y-72413764D02*
X76063800Y-72301127D01*
X76089705Y-72246333D01*
X76037006Y-72168647D01*
X75897190Y-72135927D01*
X75748294Y-72155743D01*
X75679433Y-72206536D01*
X75667992Y-72339975D01*
X75765447Y-72430390D01*
X75911415Y-72430462D01*
X75943868Y-72413764D01*
G36*
X71828667Y-71823000D02*
G01*
X71786333Y-71780667D01*
X71744000Y-71823000D01*
X71786333Y-71865333D01*
X71828667Y-71823000D01*
G37*
X71828667Y-71823000D02*
X71786333Y-71780667D01*
X71744000Y-71823000D01*
X71786333Y-71865333D01*
X71828667Y-71823000D01*
G36*
X82364129Y-85305248D02*
G01*
X82352572Y-85208110D01*
X82326397Y-85156250D01*
X82272568Y-84991067D01*
X82282466Y-84908101D01*
X82277557Y-84809035D01*
X82187742Y-84765856D01*
X82127476Y-84793413D01*
X82087835Y-84909968D01*
X82073333Y-85087445D01*
X82103109Y-85266450D01*
X82212804Y-85326010D01*
X82245645Y-85327333D01*
X82364129Y-85305248D01*
G37*
X82364129Y-85305248D02*
X82352572Y-85208110D01*
X82326397Y-85156250D01*
X82272568Y-84991067D01*
X82282466Y-84908101D01*
X82277557Y-84809035D01*
X82187742Y-84765856D01*
X82127476Y-84793413D01*
X82087835Y-84909968D01*
X82073333Y-85087445D01*
X82103109Y-85266450D01*
X82212804Y-85326010D01*
X82245645Y-85327333D01*
X82364129Y-85305248D01*
G36*
X83729501Y-85086058D02*
G01*
X83736543Y-84954458D01*
X83707524Y-84813411D01*
X83666683Y-84786506D01*
X83577398Y-84763185D01*
X83555853Y-84736048D01*
X83457424Y-84661135D01*
X83347000Y-84655347D01*
X83295393Y-84713011D01*
X83308881Y-84755833D01*
X83434005Y-84935576D01*
X83575663Y-85088098D01*
X83681581Y-85157676D01*
X83686166Y-85158000D01*
X83729501Y-85086058D01*
G37*
X83729501Y-85086058D02*
X83736543Y-84954458D01*
X83707524Y-84813411D01*
X83666683Y-84786506D01*
X83577398Y-84763185D01*
X83555853Y-84736048D01*
X83457424Y-84661135D01*
X83347000Y-84655347D01*
X83295393Y-84713011D01*
X83308881Y-84755833D01*
X83434005Y-84935576D01*
X83575663Y-85088098D01*
X83681581Y-85157676D01*
X83686166Y-85158000D01*
X83729501Y-85086058D01*
G36*
X80492267Y-84955684D02*
G01*
X80557086Y-84798167D01*
X80596164Y-84615496D01*
X80563439Y-84581180D01*
X80443109Y-84683766D01*
X80424601Y-84702161D01*
X80323442Y-84862061D01*
X80348767Y-84982844D01*
X80418358Y-85016183D01*
X80492267Y-84955684D01*
G37*
X80492267Y-84955684D02*
X80557086Y-84798167D01*
X80596164Y-84615496D01*
X80563439Y-84581180D01*
X80443109Y-84683766D01*
X80424601Y-84702161D01*
X80323442Y-84862061D01*
X80348767Y-84982844D01*
X80418358Y-85016183D01*
X80492267Y-84955684D01*
G36*
X79517610Y-84499222D02*
G01*
X79639292Y-84356080D01*
X79723979Y-84183968D01*
X79695891Y-84101638D01*
X79583640Y-84138732D01*
X79502315Y-84214163D01*
X79394081Y-84377098D01*
X79366072Y-84510980D01*
X79427500Y-84562673D01*
X79517610Y-84499222D01*
G37*
X79517610Y-84499222D02*
X79639292Y-84356080D01*
X79723979Y-84183968D01*
X79695891Y-84101638D01*
X79583640Y-84138732D01*
X79502315Y-84214163D01*
X79394081Y-84377098D01*
X79366072Y-84510980D01*
X79427500Y-84562673D01*
X79517610Y-84499222D01*
G36*
X85228047Y-82337124D02*
G01*
X85248333Y-82279333D01*
X85128913Y-82208208D01*
X85031670Y-82194667D01*
X84896826Y-82231086D01*
X84867333Y-82279333D01*
X84939939Y-82342440D01*
X85083997Y-82364000D01*
X85228047Y-82337124D01*
G37*
X85228047Y-82337124D02*
X85248333Y-82279333D01*
X85128913Y-82208208D01*
X85031670Y-82194667D01*
X84896826Y-82231086D01*
X84867333Y-82279333D01*
X84939939Y-82342440D01*
X85083997Y-82364000D01*
X85228047Y-82337124D01*
G36*
X86701778Y-82166445D02*
G01*
X86711911Y-82065965D01*
X86701778Y-82053556D01*
X86651443Y-82065178D01*
X86645333Y-82110000D01*
X86676311Y-82179690D01*
X86701778Y-82166445D01*
G37*
X86701778Y-82166445D02*
X86711911Y-82065965D01*
X86701778Y-82053556D01*
X86651443Y-82065178D01*
X86645333Y-82110000D01*
X86676311Y-82179690D01*
X86701778Y-82166445D01*
G36*
X67807000Y-83624966D02*
G01*
X67850511Y-83497005D01*
X67876362Y-83253715D01*
X67884731Y-82948155D01*
X67875799Y-82633387D01*
X67849745Y-82362472D01*
X67806749Y-82188471D01*
X67802106Y-82179469D01*
X67762601Y-82175649D01*
X67736666Y-82332009D01*
X67723902Y-82652025D01*
X67722333Y-82873619D01*
X67730066Y-83295178D01*
X67753272Y-83548211D01*
X67791963Y-83632818D01*
X67807000Y-83624966D01*
G37*
X67807000Y-83624966D02*
X67850511Y-83497005D01*
X67876362Y-83253715D01*
X67884731Y-82948155D01*
X67875799Y-82633387D01*
X67849745Y-82362472D01*
X67806749Y-82188471D01*
X67802106Y-82179469D01*
X67762601Y-82175649D01*
X67736666Y-82332009D01*
X67723902Y-82652025D01*
X67722333Y-82873619D01*
X67730066Y-83295178D01*
X67753272Y-83548211D01*
X67791963Y-83632818D01*
X67807000Y-83624966D01*
G36*
X86711974Y-81872410D02*
G01*
X86730000Y-81776330D01*
X86695456Y-81636059D01*
X86645333Y-81602000D01*
X86569394Y-81670215D01*
X86560667Y-81724003D01*
X86612267Y-81868152D01*
X86645333Y-81898333D01*
X86711974Y-81872410D01*
G37*
X86711974Y-81872410D02*
X86730000Y-81776330D01*
X86695456Y-81636059D01*
X86645333Y-81602000D01*
X86569394Y-81670215D01*
X86560667Y-81724003D01*
X86612267Y-81868152D01*
X86645333Y-81898333D01*
X86711974Y-81872410D01*
G36*
X66988372Y-83665075D02*
G01*
X66995214Y-83567829D01*
X66969081Y-83330784D01*
X66890053Y-83010366D01*
X66771980Y-82641006D01*
X66628715Y-82257137D01*
X66474108Y-81893191D01*
X66322011Y-81583600D01*
X66186275Y-81362798D01*
X66080752Y-81265215D01*
X66068163Y-81263333D01*
X66044187Y-81322367D01*
X66104375Y-81453833D01*
X66253309Y-81730208D01*
X66425370Y-82115406D01*
X66598777Y-82554981D01*
X66751750Y-82994487D01*
X66841040Y-83295333D01*
X66917781Y-83567457D01*
X66964574Y-83686608D01*
X66988372Y-83665075D01*
G37*
X66988372Y-83665075D02*
X66995214Y-83567829D01*
X66969081Y-83330784D01*
X66890053Y-83010366D01*
X66771980Y-82641006D01*
X66628715Y-82257137D01*
X66474108Y-81893191D01*
X66322011Y-81583600D01*
X66186275Y-81362798D01*
X66080752Y-81265215D01*
X66068163Y-81263333D01*
X66044187Y-81322367D01*
X66104375Y-81453833D01*
X66253309Y-81730208D01*
X66425370Y-82115406D01*
X66598777Y-82554981D01*
X66751750Y-82994487D01*
X66841040Y-83295333D01*
X66917781Y-83567457D01*
X66964574Y-83686608D01*
X66988372Y-83665075D01*
G36*
X71235029Y-80943828D02*
G01*
X71236000Y-80924667D01*
X71170912Y-80843254D01*
X71146336Y-80840000D01*
X71095770Y-80891870D01*
X71109000Y-80924667D01*
X71185082Y-81005437D01*
X71198663Y-81009333D01*
X71235029Y-80943828D01*
G37*
X71235029Y-80943828D02*
X71236000Y-80924667D01*
X71170912Y-80843254D01*
X71146336Y-80840000D01*
X71095770Y-80891870D01*
X71109000Y-80924667D01*
X71185082Y-81005437D01*
X71198663Y-81009333D01*
X71235029Y-80943828D01*
G36*
X85262444Y-80388445D02*
G01*
X85250822Y-80338110D01*
X85206000Y-80332000D01*
X85136310Y-80362978D01*
X85149555Y-80388445D01*
X85250035Y-80398578D01*
X85262444Y-80388445D01*
G37*
X85262444Y-80388445D02*
X85250822Y-80338110D01*
X85206000Y-80332000D01*
X85136310Y-80362978D01*
X85149555Y-80388445D01*
X85250035Y-80398578D01*
X85262444Y-80388445D01*
G36*
X85036667Y-80289667D02*
G01*
X84994333Y-80247333D01*
X84952000Y-80289667D01*
X84994333Y-80332000D01*
X85036667Y-80289667D01*
G37*
X85036667Y-80289667D02*
X84994333Y-80247333D01*
X84952000Y-80289667D01*
X84994333Y-80332000D01*
X85036667Y-80289667D01*
G36*
X85347111Y-80219111D02*
G01*
X85335489Y-80168777D01*
X85290667Y-80162667D01*
X85220976Y-80193645D01*
X85234222Y-80219111D01*
X85334702Y-80229244D01*
X85347111Y-80219111D01*
G37*
X85347111Y-80219111D02*
X85335489Y-80168777D01*
X85290667Y-80162667D01*
X85220976Y-80193645D01*
X85234222Y-80219111D01*
X85334702Y-80229244D01*
X85347111Y-80219111D01*
G36*
X86896873Y-79674904D02*
G01*
X86899333Y-79654667D01*
X86834904Y-79572460D01*
X86814667Y-79570000D01*
X86732460Y-79634429D01*
X86730000Y-79654667D01*
X86794429Y-79736873D01*
X86814667Y-79739333D01*
X86896873Y-79674904D01*
G37*
X86896873Y-79674904D02*
X86899333Y-79654667D01*
X86834904Y-79572460D01*
X86814667Y-79570000D01*
X86732460Y-79634429D01*
X86730000Y-79654667D01*
X86794429Y-79736873D01*
X86814667Y-79739333D01*
X86896873Y-79674904D01*
G36*
X85108915Y-79593085D02*
G01*
X85121333Y-79532664D01*
X85093431Y-79410335D01*
X85020119Y-79447005D01*
X84997949Y-79479483D01*
X85008566Y-79588223D01*
X85035285Y-79611480D01*
X85108915Y-79593085D01*
G37*
X85108915Y-79593085D02*
X85121333Y-79532664D01*
X85093431Y-79410335D01*
X85020119Y-79447005D01*
X84997949Y-79479483D01*
X85008566Y-79588223D01*
X85035285Y-79611480D01*
X85108915Y-79593085D01*
G36*
X86730000Y-79273667D02*
G01*
X86687667Y-79231333D01*
X86645333Y-79273667D01*
X86687667Y-79316000D01*
X86730000Y-79273667D01*
G37*
X86730000Y-79273667D02*
X86687667Y-79231333D01*
X86645333Y-79273667D01*
X86687667Y-79316000D01*
X86730000Y-79273667D01*
G36*
X85346229Y-79348797D02*
G01*
X85333000Y-79316000D01*
X85256918Y-79235230D01*
X85243336Y-79231333D01*
X85206971Y-79296839D01*
X85206000Y-79316000D01*
X85271088Y-79397413D01*
X85295663Y-79400667D01*
X85346229Y-79348797D01*
G37*
X85346229Y-79348797D02*
X85333000Y-79316000D01*
X85256918Y-79235230D01*
X85243336Y-79231333D01*
X85206971Y-79296839D01*
X85206000Y-79316000D01*
X85271088Y-79397413D01*
X85295663Y-79400667D01*
X85346229Y-79348797D01*
G36*
X85954918Y-79281752D02*
G01*
X86045812Y-79196501D01*
X86027166Y-79147491D01*
X86015330Y-79146667D01*
X85943717Y-79206804D01*
X85917582Y-79244415D01*
X85907602Y-79302352D01*
X85954918Y-79281752D01*
G37*
X85954918Y-79281752D02*
X86045812Y-79196501D01*
X86027166Y-79147491D01*
X86015330Y-79146667D01*
X85943717Y-79206804D01*
X85917582Y-79244415D01*
X85907602Y-79302352D01*
X85954918Y-79281752D01*
G36*
X85460000Y-79189000D02*
G01*
X85417667Y-79146667D01*
X85375333Y-79189000D01*
X85417667Y-79231333D01*
X85460000Y-79189000D01*
G37*
X85460000Y-79189000D02*
X85417667Y-79146667D01*
X85375333Y-79189000D01*
X85417667Y-79231333D01*
X85460000Y-79189000D01*
G36*
X85712499Y-79232137D02*
G01*
X85829188Y-79131230D01*
X85838374Y-79057752D01*
X85785174Y-78989022D01*
X85731685Y-79020711D01*
X85645828Y-79151718D01*
X85579264Y-79272999D01*
X85626017Y-79276080D01*
X85712499Y-79232137D01*
G37*
X85712499Y-79232137D02*
X85829188Y-79131230D01*
X85838374Y-79057752D01*
X85785174Y-78989022D01*
X85731685Y-79020711D01*
X85645828Y-79151718D01*
X85579264Y-79272999D01*
X85626017Y-79276080D01*
X85712499Y-79232137D01*
G36*
X86162364Y-79000214D02*
G01*
X86179667Y-78977333D01*
X86175796Y-78899190D01*
X86147327Y-78892667D01*
X86027635Y-78954453D01*
X86010333Y-78977333D01*
X86014203Y-79055477D01*
X86042673Y-79062000D01*
X86162364Y-79000214D01*
G37*
X86162364Y-79000214D02*
X86179667Y-78977333D01*
X86175796Y-78899190D01*
X86147327Y-78892667D01*
X86027635Y-78954453D01*
X86010333Y-78977333D01*
X86014203Y-79055477D01*
X86042673Y-79062000D01*
X86162364Y-79000214D01*
G36*
X86641888Y-78831206D02*
G01*
X86645333Y-78808000D01*
X86616446Y-78725535D01*
X86607997Y-78723333D01*
X86535711Y-78782662D01*
X86518333Y-78808000D01*
X86525046Y-78886019D01*
X86555670Y-78892667D01*
X86641888Y-78831206D01*
G37*
X86641888Y-78831206D02*
X86645333Y-78808000D01*
X86616446Y-78725535D01*
X86607997Y-78723333D01*
X86535711Y-78782662D01*
X86518333Y-78808000D01*
X86525046Y-78886019D01*
X86555670Y-78892667D01*
X86641888Y-78831206D01*
G36*
X86899333Y-78596333D02*
G01*
X86857000Y-78554000D01*
X86814667Y-78596333D01*
X86857000Y-78638667D01*
X86899333Y-78596333D01*
G37*
X86899333Y-78596333D02*
X86857000Y-78554000D01*
X86814667Y-78596333D01*
X86857000Y-78638667D01*
X86899333Y-78596333D01*
G36*
X64836958Y-75861907D02*
G01*
X64825865Y-75760000D01*
X64776714Y-75623218D01*
X64749125Y-75590667D01*
X64722707Y-75661916D01*
X64716667Y-75760000D01*
X64748835Y-75897631D01*
X64793407Y-75929333D01*
X64836958Y-75861907D01*
G37*
X64836958Y-75861907D02*
X64825865Y-75760000D01*
X64776714Y-75623218D01*
X64749125Y-75590667D01*
X64722707Y-75661916D01*
X64716667Y-75760000D01*
X64748835Y-75897631D01*
X64793407Y-75929333D01*
X64836958Y-75861907D01*
G36*
X86899333Y-77333389D02*
G01*
X86856595Y-77216248D01*
X86816387Y-77199333D01*
X86732431Y-77130331D01*
X86613226Y-76955127D01*
X86550345Y-76840436D01*
X86398556Y-76370249D01*
X86358055Y-75773910D01*
X86428801Y-75052860D01*
X86610750Y-74208535D01*
X86631325Y-74131190D01*
X86759073Y-73615331D01*
X86847652Y-73168427D01*
X86894373Y-72812496D01*
X86896544Y-72569555D01*
X86851473Y-72461622D01*
X86835833Y-72458170D01*
X86788069Y-72532702D01*
X86754460Y-72715061D01*
X86751844Y-72746529D01*
X86723133Y-72932807D01*
X86658643Y-73243325D01*
X86567142Y-73638951D01*
X86457396Y-74080556D01*
X86424659Y-74206859D01*
X86298503Y-74704052D01*
X86214902Y-75081254D01*
X86167738Y-75380660D01*
X86150893Y-75644466D01*
X86158252Y-75914870D01*
X86164240Y-76003257D01*
X86212123Y-76409651D01*
X86298169Y-76718768D01*
X86442441Y-77001696D01*
X86449092Y-77012483D01*
X86631474Y-77272779D01*
X86777523Y-77415784D01*
X86871692Y-77430418D01*
X86899333Y-77333389D01*
G37*
X86899333Y-77333389D02*
X86856595Y-77216248D01*
X86816387Y-77199333D01*
X86732431Y-77130331D01*
X86613226Y-76955127D01*
X86550345Y-76840436D01*
X86398556Y-76370249D01*
X86358055Y-75773910D01*
X86428801Y-75052860D01*
X86610750Y-74208535D01*
X86631325Y-74131190D01*
X86759073Y-73615331D01*
X86847652Y-73168427D01*
X86894373Y-72812496D01*
X86896544Y-72569555D01*
X86851473Y-72461622D01*
X86835833Y-72458170D01*
X86788069Y-72532702D01*
X86754460Y-72715061D01*
X86751844Y-72746529D01*
X86723133Y-72932807D01*
X86658643Y-73243325D01*
X86567142Y-73638951D01*
X86457396Y-74080556D01*
X86424659Y-74206859D01*
X86298503Y-74704052D01*
X86214902Y-75081254D01*
X86167738Y-75380660D01*
X86150893Y-75644466D01*
X86158252Y-75914870D01*
X86164240Y-76003257D01*
X86212123Y-76409651D01*
X86298169Y-76718768D01*
X86442441Y-77001696D01*
X86449092Y-77012483D01*
X86631474Y-77272779D01*
X86777523Y-77415784D01*
X86871692Y-77430418D01*
X86899333Y-77333389D01*
G36*
X85290667Y-72500333D02*
G01*
X85248333Y-72458000D01*
X85206000Y-72500333D01*
X85248333Y-72542667D01*
X85290667Y-72500333D01*
G37*
X85290667Y-72500333D02*
X85248333Y-72458000D01*
X85206000Y-72500333D01*
X85248333Y-72542667D01*
X85290667Y-72500333D01*
G36*
X79110000Y-72246333D02*
G01*
X79067667Y-72204000D01*
X79025333Y-72246333D01*
X79067667Y-72288667D01*
X79110000Y-72246333D01*
G37*
X79110000Y-72246333D02*
X79067667Y-72204000D01*
X79025333Y-72246333D01*
X79067667Y-72288667D01*
X79110000Y-72246333D01*
G36*
X71851196Y-86040526D02*
G01*
X72075274Y-85870893D01*
X72077831Y-85868743D01*
X72437819Y-85470983D01*
X72686474Y-84997292D01*
X72811669Y-84488011D01*
X72801277Y-83983477D01*
X72727658Y-83707075D01*
X72644724Y-83421284D01*
X72604467Y-83152880D01*
X72604101Y-83083667D01*
X72596473Y-82856622D01*
X72561484Y-82702628D01*
X72577591Y-82613887D01*
X72699410Y-82480671D01*
X72941263Y-82290128D01*
X73294852Y-82044575D01*
X73763901Y-81698551D01*
X74118081Y-81371464D01*
X74346058Y-81076750D01*
X74436500Y-80827844D01*
X74421238Y-80709150D01*
X74301435Y-80605696D01*
X74087009Y-80599821D01*
X73818442Y-80687025D01*
X73624854Y-80797667D01*
X73399132Y-80928653D01*
X73207165Y-81002971D01*
X73160700Y-81009333D01*
X73059658Y-80989898D01*
X73071877Y-80900486D01*
X73114770Y-80818833D01*
X73170043Y-80621781D01*
X73205244Y-80272986D01*
X73218834Y-79789023D01*
X73218891Y-79697000D01*
X73213077Y-79261723D01*
X73192041Y-78938566D01*
X73146109Y-78670406D01*
X73065603Y-78400119D01*
X72945304Y-78081818D01*
X72776477Y-77709692D01*
X72579295Y-77357938D01*
X72374957Y-77056152D01*
X72184659Y-76833928D01*
X72029599Y-76720862D01*
X71967002Y-76715933D01*
X71910540Y-76820154D01*
X71893490Y-77067892D01*
X71898826Y-77209801D01*
X71889973Y-77709408D01*
X71816684Y-78254232D01*
X71691637Y-78786583D01*
X71527505Y-79248766D01*
X71395532Y-79500607D01*
X71220705Y-79748958D01*
X71101192Y-79847542D01*
X71020025Y-79799721D01*
X70960237Y-79608862D01*
X70955922Y-79587776D01*
X70833616Y-79352446D01*
X70694241Y-79250646D01*
X70553207Y-79167334D01*
X70524484Y-79058167D01*
X70572612Y-78889056D01*
X70629815Y-78583645D01*
X70635422Y-78189347D01*
X70596604Y-77754190D01*
X70520535Y-77326202D01*
X70414388Y-76953411D01*
X70285335Y-76683845D01*
X70233809Y-76620476D01*
X70093581Y-76402140D01*
X69962478Y-76057781D01*
X69852193Y-75630687D01*
X69774419Y-75164149D01*
X69744142Y-74807500D01*
X69737700Y-74498408D01*
X69746905Y-74267183D01*
X69769726Y-74154548D01*
X69776915Y-74149687D01*
X69882176Y-74137530D01*
X70116167Y-74106079D01*
X70440079Y-74060644D01*
X70685667Y-74025372D01*
X71180522Y-73954612D01*
X71532142Y-73911917D01*
X71764992Y-73901901D01*
X71903537Y-73929176D01*
X71972243Y-73998355D01*
X71995576Y-74114053D01*
X71998000Y-74272822D01*
X72019279Y-74567971D01*
X72072141Y-74834083D01*
X72089692Y-74886655D01*
X72147877Y-75124884D01*
X72179545Y-75423706D01*
X72181474Y-75506000D01*
X72182094Y-75659966D01*
X72197741Y-75778602D01*
X72249222Y-75883560D01*
X72357346Y-75996492D01*
X72542919Y-76139052D01*
X72826750Y-76332890D01*
X72969394Y-76427340D01*
X73183333Y-76427340D01*
X73235499Y-76381437D01*
X73268000Y-76395000D01*
X73349506Y-76507159D01*
X73352667Y-76531994D01*
X73300501Y-76577897D01*
X73268000Y-76564333D01*
X73186494Y-76452174D01*
X73183333Y-76427340D01*
X72969394Y-76427340D01*
X73229645Y-76599661D01*
X73237382Y-76604778D01*
X73412698Y-76733667D01*
X74114667Y-76733667D01*
X74157000Y-76691333D01*
X74199333Y-76733667D01*
X76316000Y-76733667D01*
X76358333Y-76691333D01*
X76400667Y-76733667D01*
X76358333Y-76776000D01*
X76316000Y-76733667D01*
X74199333Y-76733667D01*
X74157000Y-76776000D01*
X74114667Y-76733667D01*
X73412698Y-76733667D01*
X73499583Y-76797543D01*
X73574711Y-76866179D01*
X74050758Y-76866179D01*
X74062340Y-76860667D01*
X74139605Y-76920270D01*
X74157000Y-76945333D01*
X76443000Y-76945333D01*
X76449713Y-76867315D01*
X76480336Y-76860667D01*
X76566554Y-76922127D01*
X76570000Y-76945333D01*
X76541113Y-77027799D01*
X76532663Y-77030000D01*
X76460377Y-76970671D01*
X76443000Y-76945333D01*
X74157000Y-76945333D01*
X74178575Y-77024488D01*
X74166993Y-77030000D01*
X74089728Y-76970397D01*
X74072333Y-76945333D01*
X74050758Y-76866179D01*
X73574711Y-76866179D01*
X73701262Y-76981792D01*
X73801528Y-77119804D01*
X73803831Y-77127284D01*
X73877873Y-77241667D01*
X76400667Y-77241667D01*
X76443000Y-77199333D01*
X76485333Y-77241667D01*
X76443000Y-77284000D01*
X76400667Y-77241667D01*
X73877873Y-77241667D01*
X73888265Y-77257720D01*
X73976521Y-77257660D01*
X74098886Y-77270820D01*
X74341824Y-77341701D01*
X74576088Y-77425111D01*
X76344222Y-77425111D01*
X76355844Y-77374777D01*
X76400667Y-77368667D01*
X76470357Y-77399645D01*
X76457111Y-77425111D01*
X76401125Y-77430757D01*
X77247333Y-77430757D01*
X77247333Y-74401100D01*
X77501333Y-74350300D01*
X77702425Y-74285953D01*
X77741590Y-74196065D01*
X77628333Y-74066667D01*
X77521899Y-73944446D01*
X77501333Y-73886967D01*
X77570061Y-73821003D01*
X77628333Y-73812667D01*
X77742031Y-73769120D01*
X77725160Y-73664452D01*
X77586000Y-73539018D01*
X77445959Y-73434693D01*
X77450085Y-73378896D01*
X77606733Y-73365195D01*
X77797667Y-73376082D01*
X78178667Y-73406384D01*
X78178667Y-74739507D01*
X78283031Y-74739507D01*
X78299596Y-74691744D01*
X78392222Y-74651988D01*
X78690061Y-74584780D01*
X78895758Y-74654472D01*
X78932575Y-74691917D01*
X78972370Y-74786280D01*
X78873136Y-74846984D01*
X78814205Y-74863300D01*
X78574651Y-74867750D01*
X78411651Y-74817420D01*
X78283031Y-74739507D01*
X78178667Y-74739507D01*
X78178667Y-74824185D01*
X78177025Y-75082667D01*
X78348000Y-75082667D01*
X78423335Y-75032224D01*
X78612815Y-75005394D01*
X78707833Y-75003951D01*
X78914907Y-75014497D01*
X78968189Y-75040784D01*
X78898333Y-75082667D01*
X78681021Y-75145639D01*
X78482475Y-75156579D01*
X78361517Y-75115486D01*
X78348000Y-75082667D01*
X78177025Y-75082667D01*
X78175195Y-75370595D01*
X78165636Y-75926448D01*
X78151276Y-76440084D01*
X78133401Y-76859844D01*
X78124342Y-77007318D01*
X78070017Y-77772649D01*
X77247333Y-77430757D01*
X76401125Y-77430757D01*
X76356631Y-77435244D01*
X76344222Y-77425111D01*
X74576088Y-77425111D01*
X74671280Y-77459004D01*
X74679919Y-77462452D01*
X75233711Y-77462452D01*
X75357122Y-77489232D01*
X75377340Y-77495667D01*
X75977333Y-77495667D01*
X76019667Y-77453333D01*
X76062000Y-77495667D01*
X76047889Y-77509778D01*
X76682889Y-77509778D01*
X76694511Y-77459444D01*
X76739333Y-77453333D01*
X76809023Y-77484312D01*
X76795778Y-77509778D01*
X76695298Y-77519911D01*
X76682889Y-77509778D01*
X76047889Y-77509778D01*
X76019667Y-77538000D01*
X75977333Y-77495667D01*
X75377340Y-77495667D01*
X75590281Y-77563441D01*
X75637037Y-77579759D01*
X75638998Y-77580333D01*
X76231333Y-77580333D01*
X76273667Y-77538000D01*
X76316000Y-77580333D01*
X76908667Y-77580333D01*
X76951000Y-77538000D01*
X76993333Y-77580333D01*
X76951000Y-77622667D01*
X76908667Y-77580333D01*
X76316000Y-77580333D01*
X76273667Y-77622667D01*
X76231333Y-77580333D01*
X75638998Y-77580333D01*
X75868083Y-77647383D01*
X76031571Y-77670036D01*
X76065165Y-77663044D01*
X76121671Y-77671316D01*
X77090223Y-77671316D01*
X77110187Y-77627137D01*
X77157670Y-77622667D01*
X77272479Y-77684159D01*
X77289067Y-77706364D01*
X77275439Y-77754476D01*
X77209397Y-77739639D01*
X77090223Y-77671316D01*
X76121671Y-77671316D01*
X76166216Y-77677837D01*
X76184531Y-77700102D01*
X76194489Y-77800430D01*
X76127433Y-77818922D01*
X77448242Y-77818922D01*
X77501333Y-77799247D01*
X77682075Y-77839227D01*
X77755333Y-77876667D01*
X77821830Y-77940159D01*
X77760274Y-77948175D01*
X77602599Y-77900716D01*
X77543667Y-77876667D01*
X77448242Y-77818922D01*
X76127433Y-77818922D01*
X76084613Y-77830730D01*
X75892093Y-77784346D01*
X75839450Y-77761862D01*
X75586650Y-77647026D01*
X75384667Y-77557284D01*
X75237181Y-77484628D01*
X75233711Y-77462452D01*
X74679919Y-77462452D01*
X75053198Y-77611429D01*
X75091769Y-77627663D01*
X75472710Y-77786193D01*
X75798914Y-77917153D01*
X76037939Y-78007858D01*
X76157341Y-78045622D01*
X76161668Y-78046000D01*
X76279756Y-78077306D01*
X76347347Y-78102445D01*
X78122222Y-78102445D01*
X78133844Y-78052110D01*
X78178667Y-78046000D01*
X78248357Y-78076978D01*
X78235111Y-78102445D01*
X78134631Y-78112578D01*
X78122222Y-78102445D01*
X76347347Y-78102445D01*
X76495672Y-78157611D01*
X76566865Y-78187111D01*
X77021555Y-78187111D01*
X77033178Y-78136777D01*
X77078000Y-78130667D01*
X77147690Y-78161645D01*
X77134444Y-78187111D01*
X77057347Y-78194886D01*
X78390333Y-78194886D01*
X78390514Y-78156002D01*
X78497402Y-78168414D01*
X78660863Y-78219580D01*
X78830767Y-78296955D01*
X78856000Y-78311405D01*
X78890358Y-78352729D01*
X78767032Y-78340383D01*
X78729000Y-78332565D01*
X78519821Y-78267656D01*
X78390333Y-78194886D01*
X77057347Y-78194886D01*
X77033965Y-78197244D01*
X77021555Y-78187111D01*
X76566865Y-78187111D01*
X76660138Y-78225760D01*
X76734307Y-78257667D01*
X77332000Y-78257667D01*
X77374333Y-78215333D01*
X77416667Y-78257667D01*
X77374333Y-78300000D01*
X77332000Y-78257667D01*
X76734307Y-78257667D01*
X76931119Y-78342333D01*
X77501333Y-78342333D01*
X77543667Y-78300000D01*
X77586000Y-78342333D01*
X77543667Y-78384667D01*
X77501333Y-78342333D01*
X76931119Y-78342333D01*
X77078000Y-78405519D01*
X77078000Y-80160319D01*
X77075309Y-80737922D01*
X77067818Y-81303122D01*
X77056396Y-81817373D01*
X77041912Y-82242130D01*
X77025236Y-82538847D01*
X77023989Y-82554069D01*
X76969978Y-83193020D01*
X76480614Y-83404170D01*
X76132396Y-83585411D01*
X75892898Y-83795765D01*
X75775471Y-83957136D01*
X75637080Y-84253346D01*
X75517744Y-84642255D01*
X75435782Y-85048204D01*
X75409516Y-85395536D01*
X75412849Y-85454584D01*
X75350362Y-85599221D01*
X75132654Y-85765551D01*
X75022597Y-85828023D01*
X74793890Y-85968391D01*
X74714397Y-86053763D01*
X74770908Y-86077014D01*
X74950209Y-86031016D01*
X75203418Y-85925564D01*
X75596333Y-85741516D01*
X75619583Y-85174591D01*
X75679881Y-84637349D01*
X75823670Y-84223858D01*
X76070358Y-83901131D01*
X76439354Y-83636180D01*
X76563901Y-83569544D01*
X76834110Y-83430619D01*
X77037895Y-83322402D01*
X77134756Y-83266445D01*
X77136962Y-83264594D01*
X77146207Y-83175816D01*
X77157935Y-82939541D01*
X77171418Y-82577574D01*
X77185926Y-82111720D01*
X77200730Y-81563785D01*
X77215102Y-80955573D01*
X77216890Y-80873717D01*
X77230549Y-80260187D01*
X77243652Y-79704902D01*
X77255627Y-79229494D01*
X77265906Y-78855598D01*
X77273918Y-78604848D01*
X77279093Y-78498876D01*
X77279538Y-78496847D01*
X77356292Y-78519027D01*
X77541205Y-78591877D01*
X77551736Y-78596333D01*
X78094000Y-78596333D01*
X78136333Y-78554000D01*
X78178667Y-78596333D01*
X78136333Y-78638667D01*
X78094000Y-78596333D01*
X77551736Y-78596333D01*
X77702672Y-78660193D01*
X78114260Y-78838358D01*
X78114043Y-78850333D01*
X79025333Y-78850333D01*
X79067667Y-78808000D01*
X79110000Y-78850333D01*
X79067667Y-78892667D01*
X79025333Y-78850333D01*
X78114043Y-78850333D01*
X78091502Y-80094104D01*
X78244006Y-80094104D01*
X78246025Y-79767273D01*
X78248856Y-79697197D01*
X78270108Y-79393613D01*
X78300957Y-79169019D01*
X78335366Y-79064788D01*
X78341567Y-79062000D01*
X78441083Y-79118351D01*
X78557201Y-79228609D01*
X78683895Y-79328230D01*
X78821808Y-79327187D01*
X79005471Y-79215170D01*
X79215833Y-79031981D01*
X79408450Y-78765633D01*
X79448667Y-78568469D01*
X79427600Y-78410728D01*
X79337716Y-78298736D01*
X79138992Y-78190927D01*
X79046500Y-78150785D01*
X78772746Y-78039433D01*
X78534821Y-77950015D01*
X78453833Y-77922987D01*
X78381538Y-77895230D01*
X78330322Y-77845563D01*
X78296553Y-77747981D01*
X78276602Y-77576479D01*
X78266836Y-77305052D01*
X78263625Y-76907695D01*
X78263333Y-76558628D01*
X78263333Y-75252000D01*
X78718728Y-75252000D01*
X78985402Y-75258875D01*
X79135862Y-75296715D01*
X79223145Y-75391346D01*
X79283877Y-75527167D01*
X79383379Y-75745074D01*
X79534281Y-76041091D01*
X79686555Y-76319979D01*
X79953128Y-76713252D01*
X80271365Y-77015354D01*
X80681011Y-77256213D01*
X81197279Y-77457642D01*
X81734667Y-77636473D01*
X81734667Y-77782975D01*
X81894311Y-77782975D01*
X81927903Y-77707399D01*
X81929455Y-77707333D01*
X82017678Y-77724536D01*
X82232940Y-77770650D01*
X82537074Y-77837432D01*
X82712622Y-77876463D01*
X83146394Y-77957704D01*
X83663382Y-78031437D01*
X84177517Y-78086072D01*
X84380500Y-78101066D01*
X84401586Y-78102445D01*
X85488222Y-78102445D01*
X85499844Y-78052110D01*
X85544667Y-78046000D01*
X85614357Y-78076978D01*
X85601111Y-78102445D01*
X85500631Y-78112578D01*
X85488222Y-78102445D01*
X84401586Y-78102445D01*
X84800007Y-78128501D01*
X85074644Y-78162267D01*
X85228427Y-78220963D01*
X85285374Y-78323191D01*
X85269504Y-78487550D01*
X85204832Y-78732641D01*
X85203268Y-78738269D01*
X85125595Y-78927478D01*
X85000104Y-79048975D01*
X84800686Y-79108283D01*
X84501232Y-79110927D01*
X84075634Y-79062432D01*
X83841844Y-79026343D01*
X83197084Y-78907654D01*
X82674742Y-78781377D01*
X82289650Y-78651804D01*
X82056639Y-78523225D01*
X82034936Y-78503508D01*
X81974441Y-78380725D01*
X81925535Y-78179680D01*
X81896174Y-77960416D01*
X81894311Y-77782975D01*
X81734667Y-77782975D01*
X81734667Y-77999152D01*
X81797897Y-78382745D01*
X81907952Y-78582128D01*
X82081238Y-78802425D01*
X81770612Y-78932213D01*
X81490330Y-79007139D01*
X81105251Y-79053320D01*
X80814160Y-79063860D01*
X80341772Y-79088622D01*
X79973300Y-79166561D01*
X79787333Y-79238448D01*
X79426213Y-79435155D01*
X79167043Y-79644189D01*
X79036059Y-79842510D01*
X79025333Y-79907744D01*
X78954727Y-80021831D01*
X78781951Y-80153751D01*
X78651859Y-80222478D01*
X79110000Y-80222478D01*
X79147976Y-79931160D01*
X79279004Y-79700550D01*
X79528732Y-79500377D01*
X79872000Y-79323115D01*
X80369652Y-79179596D01*
X80898562Y-79166935D01*
X81171477Y-79232294D01*
X81523000Y-79232294D01*
X81777000Y-79112640D01*
X81964631Y-79042043D01*
X82078328Y-79031230D01*
X82079995Y-79082204D01*
X82066104Y-79097451D01*
X81966068Y-79137216D01*
X81776826Y-79182599D01*
X81523000Y-79232294D01*
X81171477Y-79232294D01*
X81394223Y-79285638D01*
X81452899Y-79310765D01*
X81787484Y-79511833D01*
X82063360Y-79511833D01*
X82110810Y-79291773D01*
X82205768Y-79071781D01*
X82324646Y-78903598D01*
X82443853Y-78838965D01*
X82468258Y-78843961D01*
X82611461Y-78889000D01*
X82857611Y-78957855D01*
X83070889Y-79014189D01*
X83430456Y-79092117D01*
X83849162Y-79162029D01*
X84126500Y-79196827D01*
X84698000Y-79254718D01*
X84698000Y-79809116D01*
X84721599Y-80215014D01*
X84782129Y-80657478D01*
X84833380Y-80903330D01*
X84903024Y-81199763D01*
X84926427Y-81381280D01*
X84903589Y-81495861D01*
X84834512Y-81591488D01*
X84833380Y-81592740D01*
X84725358Y-81768565D01*
X84698000Y-81883834D01*
X84654689Y-82005489D01*
X84609768Y-82025333D01*
X84511611Y-81986953D01*
X84297417Y-81883125D01*
X83999071Y-81730822D01*
X83648460Y-81547012D01*
X83277470Y-81348668D01*
X82917986Y-81152761D01*
X82601893Y-80976260D01*
X82361078Y-80836137D01*
X82276406Y-80783425D01*
X82168651Y-80685191D01*
X82126306Y-80541740D01*
X82134314Y-80296010D01*
X82137825Y-80258179D01*
X82143294Y-79978841D01*
X82111557Y-79747113D01*
X82087008Y-79680218D01*
X82063360Y-79511833D01*
X81787484Y-79511833D01*
X81797863Y-79518070D01*
X81992236Y-79774095D01*
X82053905Y-80110562D01*
X82037038Y-80346726D01*
X81914967Y-80868642D01*
X81683813Y-81305459D01*
X81454579Y-81580833D01*
X81311967Y-81743630D01*
X81263740Y-81818524D01*
X81383071Y-81818524D01*
X81456147Y-81730570D01*
X81540201Y-81655381D01*
X81745547Y-81429854D01*
X81900359Y-81173566D01*
X81917043Y-81132144D01*
X81993402Y-80941958D01*
X82047677Y-80843694D01*
X82053973Y-80840000D01*
X82135530Y-80877906D01*
X82339339Y-80982315D01*
X82638656Y-81139266D01*
X83006740Y-81334800D01*
X83201131Y-81438872D01*
X83601133Y-81656430D01*
X83952036Y-81852688D01*
X84224568Y-82010863D01*
X84389452Y-82114169D01*
X84420311Y-82137873D01*
X84483533Y-82292621D01*
X84475201Y-82423165D01*
X84436746Y-82519946D01*
X84359232Y-82589079D01*
X84209365Y-82643185D01*
X83953850Y-82694885D01*
X83618500Y-82747910D01*
X83393938Y-82774983D01*
X83289917Y-82750743D01*
X83260160Y-82652954D01*
X83258667Y-82575006D01*
X83178830Y-82223620D01*
X82954402Y-81928346D01*
X82608003Y-81718584D01*
X82596205Y-81714013D01*
X82308857Y-81634611D01*
X82026127Y-81635216D01*
X81692080Y-81720817D01*
X81438333Y-81817261D01*
X81383071Y-81818524D01*
X81263740Y-81818524D01*
X81248393Y-81842357D01*
X81254343Y-81856000D01*
X81257401Y-81915997D01*
X81180868Y-82061027D01*
X81176547Y-82067667D01*
X81026504Y-82220807D01*
X80878262Y-82279333D01*
X80740058Y-82243335D01*
X80744465Y-82152171D01*
X80885071Y-82031091D01*
X80950760Y-81993802D01*
X81082322Y-81921036D01*
X81092727Y-81891934D01*
X80964271Y-81897551D01*
X80796342Y-81915761D01*
X80342158Y-81887817D01*
X79925919Y-81715088D01*
X79571490Y-81421539D01*
X79302735Y-81031131D01*
X79143520Y-80567829D01*
X79110000Y-80222478D01*
X78651859Y-80222478D01*
X78565572Y-80268063D01*
X78364153Y-80329324D01*
X78323961Y-80332197D01*
X78269222Y-80275965D01*
X78244006Y-80094104D01*
X78091502Y-80094104D01*
X78081728Y-80633381D01*
X78197825Y-80633381D01*
X78240731Y-80576756D01*
X78399363Y-80481471D01*
X78525893Y-80420031D01*
X78765661Y-80311827D01*
X78889082Y-80263197D01*
X78934631Y-80265122D01*
X78940780Y-80308583D01*
X78940667Y-80322807D01*
X78869647Y-80395807D01*
X78697903Y-80489290D01*
X78487402Y-80577350D01*
X78300113Y-80634076D01*
X78198007Y-80633560D01*
X78197825Y-80633381D01*
X78081728Y-80633381D01*
X78074225Y-81047332D01*
X78197723Y-81047332D01*
X78222006Y-80878052D01*
X78356834Y-80758965D01*
X78454423Y-80711979D01*
X78754066Y-80608153D01*
X78942713Y-80612374D01*
X79040964Y-80726131D01*
X79049758Y-80754925D01*
X79045870Y-80873198D01*
X78941893Y-80976189D01*
X78710204Y-81093592D01*
X78443986Y-81207491D01*
X78295234Y-81248583D01*
X78226985Y-81213531D01*
X78202278Y-81098999D01*
X78197723Y-81047332D01*
X78074225Y-81047332D01*
X78060907Y-81782127D01*
X78178667Y-81782127D01*
X78190234Y-81583963D01*
X78251671Y-81459701D01*
X78403084Y-81358960D01*
X78580833Y-81276889D01*
X78873926Y-81155398D01*
X79059046Y-81107388D01*
X79179078Y-81129429D01*
X79276907Y-81218088D01*
X79279333Y-81221000D01*
X79340563Y-81323186D01*
X79282645Y-81348000D01*
X79210803Y-81393895D01*
X79236025Y-81486333D01*
X79330539Y-81557447D01*
X79371289Y-81564632D01*
X79515511Y-81610364D01*
X79726060Y-81717969D01*
X79787333Y-81754886D01*
X80054521Y-81891362D01*
X80323708Y-81984608D01*
X80358833Y-81992177D01*
X80566591Y-82068933D01*
X80621484Y-82197653D01*
X80523960Y-82387222D01*
X80386513Y-82539846D01*
X80080911Y-82741373D01*
X79736581Y-82780221D01*
X79364416Y-82655612D01*
X79298389Y-82617645D01*
X79034791Y-82372194D01*
X78884178Y-82053751D01*
X78858662Y-81711085D01*
X78970351Y-81392963D01*
X78987801Y-81366839D01*
X79075883Y-81215972D01*
X79051561Y-81188843D01*
X78924522Y-81291852D01*
X78904381Y-81311714D01*
X78806042Y-81492121D01*
X78771333Y-81694810D01*
X78728816Y-81902567D01*
X78573902Y-82019617D01*
X78554155Y-82027429D01*
X78329858Y-82096630D01*
X78218343Y-82064386D01*
X78181275Y-81905652D01*
X78178667Y-81782127D01*
X78060907Y-81782127D01*
X78053538Y-82188679D01*
X78048694Y-82431848D01*
X78223038Y-82431848D01*
X78228045Y-82363534D01*
X78350038Y-82289048D01*
X78615636Y-82208337D01*
X78752573Y-82228294D01*
X78771333Y-82279333D01*
X78826092Y-82394503D01*
X78953203Y-82545870D01*
X79072941Y-82698764D01*
X79067994Y-82827769D01*
X79041475Y-82876582D01*
X79321667Y-82876582D01*
X79685704Y-82874291D01*
X80093550Y-82815458D01*
X80443180Y-82659822D01*
X80625190Y-82501615D01*
X80770469Y-82410511D01*
X80897038Y-82464741D01*
X80967837Y-82641303D01*
X80972667Y-82717291D01*
X80990112Y-82843171D01*
X81074485Y-82843171D01*
X81080066Y-82621882D01*
X81083398Y-82596108D01*
X81211092Y-82221959D01*
X81464825Y-81932912D01*
X81772335Y-81777114D01*
X82038461Y-81710903D01*
X82232042Y-81706733D01*
X82439237Y-81767607D01*
X82527504Y-81803407D01*
X82843894Y-82005056D01*
X83070671Y-82286605D01*
X83171626Y-82600584D01*
X83173683Y-82650585D01*
X83096947Y-83002267D01*
X82893494Y-83330297D01*
X82602225Y-83575728D01*
X82542515Y-83607042D01*
X82182787Y-83690714D01*
X81813584Y-83615392D01*
X81458547Y-83388146D01*
X81309858Y-83238384D01*
X81142084Y-83023151D01*
X81074485Y-82843171D01*
X80990112Y-82843171D01*
X81012295Y-83003238D01*
X81149701Y-83245598D01*
X81412667Y-83488533D01*
X81497771Y-83551990D01*
X81884783Y-83745992D01*
X82274506Y-83788626D01*
X82635647Y-83686280D01*
X82936913Y-83445335D01*
X83079883Y-83229191D01*
X83205591Y-83019014D01*
X83346890Y-82909112D01*
X83572346Y-82852648D01*
X83647021Y-82841787D01*
X84016722Y-82798355D01*
X84253162Y-82793820D01*
X84388939Y-82832940D01*
X84456647Y-82920470D01*
X84469891Y-82961865D01*
X84448380Y-83142561D01*
X84280703Y-83345513D01*
X84268099Y-83356860D01*
X84108840Y-83522242D01*
X84024635Y-83655472D01*
X84020667Y-83676738D01*
X83951856Y-83782337D01*
X83816343Y-83869249D01*
X83639125Y-84004120D01*
X83556638Y-84136839D01*
X83445798Y-84276248D01*
X83257958Y-84311333D01*
X83061722Y-84341967D01*
X82954932Y-84407976D01*
X82861016Y-84452262D01*
X82639863Y-84470595D01*
X82275781Y-84463639D01*
X81997435Y-84448561D01*
X81376230Y-84395915D01*
X80883874Y-84318997D01*
X80480541Y-84208419D01*
X80126402Y-84054795D01*
X79978485Y-83972667D01*
X79740537Y-83818212D01*
X79630991Y-83715112D01*
X79657022Y-83673821D01*
X79787333Y-83694135D01*
X79927706Y-83691693D01*
X79952709Y-83595219D01*
X79868976Y-83428105D01*
X79683142Y-83213742D01*
X79639167Y-83171764D01*
X79321667Y-82876582D01*
X79041475Y-82876582D01*
X79037153Y-82884537D01*
X78985987Y-83013711D01*
X79029612Y-83041333D01*
X79080434Y-83093348D01*
X79066813Y-83127381D01*
X78968759Y-83178400D01*
X78940250Y-83168076D01*
X78888133Y-83215968D01*
X78851554Y-83337667D01*
X79448667Y-83337667D01*
X79491000Y-83295333D01*
X79533333Y-83337667D01*
X79491000Y-83380000D01*
X79448667Y-83337667D01*
X78851554Y-83337667D01*
X78836315Y-83388366D01*
X78812780Y-83526528D01*
X78763257Y-83854205D01*
X78715619Y-84042453D01*
X78657654Y-84120588D01*
X78577149Y-84117927D01*
X78567822Y-84114512D01*
X78495445Y-84122294D01*
X78472970Y-84242700D01*
X78483698Y-84423228D01*
X78499341Y-84625513D01*
X78489800Y-84672426D01*
X78450598Y-84576658D01*
X78440351Y-84546163D01*
X78405769Y-84366570D01*
X78373191Y-84064852D01*
X78346979Y-83688201D01*
X78334689Y-83403163D01*
X78315588Y-83025436D01*
X78286458Y-82712325D01*
X78251620Y-82501409D01*
X78223038Y-82431848D01*
X78048694Y-82431848D01*
X78038851Y-82925875D01*
X78022673Y-83609744D01*
X78005631Y-84221861D01*
X77988353Y-84743804D01*
X77971466Y-85157148D01*
X77963152Y-85307174D01*
X78390333Y-85307174D01*
X78602000Y-85371010D01*
X78801124Y-85467710D01*
X79033451Y-85628871D01*
X79091779Y-85677423D01*
X79283494Y-85826797D01*
X79432779Y-85912227D01*
X79465724Y-85920000D01*
X79523698Y-85951117D01*
X79512362Y-85969193D01*
X79409878Y-85971507D01*
X79275817Y-85918118D01*
X79116376Y-85861121D01*
X79018408Y-85919471D01*
X79009020Y-85932425D01*
X78961737Y-85974717D01*
X78980737Y-85865186D01*
X78983159Y-85856500D01*
X78995665Y-85710468D01*
X78896968Y-85652653D01*
X78771333Y-85646136D01*
X78687358Y-85592967D01*
X78559667Y-85476749D01*
X78390333Y-85307174D01*
X77963152Y-85307174D01*
X77955597Y-85443471D01*
X77954501Y-85454333D01*
X78178667Y-85454333D01*
X78221000Y-85412000D01*
X78263333Y-85454333D01*
X78221000Y-85496667D01*
X78178667Y-85454333D01*
X77954501Y-85454333D01*
X77941373Y-85584348D01*
X77937575Y-85595441D01*
X77836772Y-85663748D01*
X77636233Y-85779416D01*
X77467556Y-85870607D01*
X77268992Y-85987052D01*
X77176278Y-86066389D01*
X77196782Y-86089333D01*
X77355600Y-86049225D01*
X77584165Y-85948412D01*
X77676520Y-85898834D01*
X77903569Y-85786144D01*
X78043187Y-85784363D01*
X78146975Y-85907739D01*
X78213178Y-86047000D01*
X78274018Y-86070229D01*
X78348043Y-85990255D01*
X78396884Y-85865170D01*
X78393142Y-85774545D01*
X78416358Y-85642708D01*
X78447739Y-85614352D01*
X78508056Y-85634870D01*
X78503651Y-85805505D01*
X78486847Y-85920000D01*
X78686667Y-85920000D01*
X78717645Y-85850310D01*
X78743111Y-85863556D01*
X78753244Y-85964035D01*
X78743111Y-85976445D01*
X78692777Y-85964822D01*
X78686667Y-85920000D01*
X78486847Y-85920000D01*
X78467219Y-86053730D01*
X79386003Y-86063608D01*
X80304787Y-86073487D01*
X79813227Y-85831952D01*
X79384978Y-85601091D01*
X79094089Y-85386649D01*
X78914542Y-85160536D01*
X78820319Y-84894662D01*
X78796716Y-84734492D01*
X78827468Y-84357213D01*
X78915569Y-84169548D01*
X79026218Y-83919178D01*
X79067667Y-83679694D01*
X79104528Y-83476575D01*
X79194667Y-83422333D01*
X79296810Y-83495934D01*
X79321667Y-83634000D01*
X79363492Y-83800075D01*
X79517273Y-83910413D01*
X79604861Y-83944283D01*
X79858730Y-84062990D01*
X80070527Y-84209403D01*
X80204106Y-84306730D01*
X80383201Y-84385216D01*
X80630990Y-84449133D01*
X80970649Y-84502753D01*
X81425354Y-84550346D01*
X82018282Y-84596184D01*
X82255724Y-84612144D01*
X82669232Y-84628055D01*
X82935913Y-84612895D01*
X83043888Y-84570369D01*
X83160960Y-84505371D01*
X83345351Y-84480667D01*
X83532012Y-84433563D01*
X83677946Y-84322106D01*
X83739195Y-84191080D01*
X83707831Y-84111387D01*
X83742586Y-84061647D01*
X83897632Y-84010252D01*
X83922477Y-84005005D01*
X84127220Y-83923430D01*
X84192482Y-83813917D01*
X84250953Y-83649951D01*
X84391090Y-83460197D01*
X84567328Y-83290582D01*
X84734100Y-83187037D01*
X84822343Y-83179030D01*
X84935326Y-83190859D01*
X84939218Y-83117351D01*
X84845349Y-82992214D01*
X84725320Y-82890332D01*
X84498641Y-82725208D01*
X84683967Y-82411104D01*
X84787579Y-82201763D01*
X84827386Y-82049585D01*
X84821291Y-82019332D01*
X84835368Y-81907581D01*
X84929503Y-81724797D01*
X84969008Y-81665998D01*
X85142712Y-81371254D01*
X85183820Y-81149250D01*
X85096671Y-80973112D01*
X85083148Y-80959053D01*
X84972928Y-80807586D01*
X84962029Y-80697563D01*
X85018698Y-80670667D01*
X85118383Y-80722418D01*
X85216057Y-80797667D01*
X85629333Y-80797667D01*
X85671667Y-80755333D01*
X85714000Y-80797667D01*
X85671667Y-80840000D01*
X85629333Y-80797667D01*
X85216057Y-80797667D01*
X85286148Y-80851665D01*
X85345799Y-80903500D01*
X85545045Y-81150985D01*
X85643962Y-81348000D01*
X85883333Y-81348000D01*
X85914311Y-81278310D01*
X85939778Y-81291556D01*
X85949911Y-81392035D01*
X85939778Y-81404445D01*
X85889443Y-81392822D01*
X85883333Y-81348000D01*
X85643962Y-81348000D01*
X85740008Y-81539293D01*
X85862020Y-81856000D01*
X86082945Y-82485376D01*
X86230406Y-82923320D01*
X86498896Y-82923320D01*
X86550468Y-82802516D01*
X86630449Y-82743742D01*
X86654205Y-82750483D01*
X86728594Y-82864904D01*
X86730000Y-82881994D01*
X86677834Y-82927897D01*
X86645333Y-82914333D01*
X86568285Y-82927591D01*
X86560667Y-82965781D01*
X86534087Y-83034245D01*
X86516340Y-83025229D01*
X86498896Y-82923320D01*
X86230406Y-82923320D01*
X86247763Y-82974867D01*
X86361680Y-83342432D01*
X86429898Y-83606033D01*
X86457624Y-83783627D01*
X86451190Y-83889063D01*
X86446576Y-84005554D01*
X86497348Y-84001806D01*
X86545187Y-84032023D01*
X86553746Y-84212126D01*
X86534678Y-84452103D01*
X86482500Y-84781259D01*
X86405890Y-85065552D01*
X86318073Y-85270739D01*
X86232272Y-85362577D01*
X86188021Y-85349800D01*
X86161015Y-85359112D01*
X86178975Y-85422002D01*
X86152746Y-85574010D01*
X86020000Y-85750024D01*
X86566213Y-85750024D01*
X86587237Y-85706179D01*
X86634533Y-85644833D01*
X86758114Y-85513204D01*
X86813276Y-85513776D01*
X86814667Y-85528633D01*
X86756807Y-85599308D01*
X86666500Y-85676800D01*
X86566213Y-85750024D01*
X86020000Y-85750024D01*
X85997702Y-85779589D01*
X85965325Y-85812188D01*
X85701083Y-86070534D01*
X86300208Y-86079653D01*
X86899333Y-86088773D01*
X86899333Y-84235445D01*
X86897750Y-83615503D01*
X86892123Y-83144847D01*
X86881139Y-82803452D01*
X86863484Y-82571292D01*
X86837844Y-82428342D01*
X86802904Y-82354578D01*
X86774572Y-82334242D01*
X86636268Y-82357465D01*
X86569256Y-82430311D01*
X86474955Y-82516740D01*
X86418850Y-82499870D01*
X86415442Y-82411946D01*
X86454833Y-82387687D01*
X86536265Y-82299429D01*
X86557940Y-82165035D01*
X86518726Y-82061213D01*
X86459862Y-82046500D01*
X86364930Y-81994130D01*
X86325719Y-81898333D01*
X86245050Y-81713609D01*
X86180752Y-81641016D01*
X86081244Y-81492593D01*
X86037717Y-81344682D01*
X85973279Y-81191189D01*
X85890031Y-81161653D01*
X85832473Y-81142984D01*
X85879912Y-81025274D01*
X85926314Y-80949986D01*
X86078880Y-80713000D01*
X85884120Y-80882333D01*
X85689360Y-81051667D01*
X85783054Y-80872885D01*
X85833100Y-80741199D01*
X85762818Y-80705470D01*
X85689541Y-80708625D01*
X85480002Y-80676129D01*
X85375333Y-80620982D01*
X85181616Y-80517279D01*
X85079972Y-80487935D01*
X84926093Y-80392880D01*
X84883195Y-80225884D01*
X84961095Y-80050798D01*
X85006293Y-80008706D01*
X85101082Y-79925378D01*
X85058884Y-79922427D01*
X85023825Y-79933758D01*
X84919565Y-79926105D01*
X84852579Y-79793378D01*
X84827865Y-79682497D01*
X84797600Y-79481817D01*
X84795142Y-79371746D01*
X84798374Y-79366222D01*
X84882751Y-79326436D01*
X85083811Y-79235659D01*
X85363261Y-79111134D01*
X85460000Y-79068296D01*
X85968806Y-78842494D01*
X86342532Y-78674074D01*
X86601437Y-78553012D01*
X86765780Y-78469284D01*
X86855820Y-78412865D01*
X86891814Y-78373730D01*
X86895863Y-78357795D01*
X86853784Y-78323280D01*
X86711179Y-78352244D01*
X86453215Y-78449683D01*
X86065057Y-78620593D01*
X85927211Y-78684062D01*
X85645520Y-78812600D01*
X85432901Y-78905678D01*
X85327113Y-78946878D01*
X85321868Y-78947295D01*
X85325564Y-78864955D01*
X85349485Y-78680824D01*
X85352690Y-78659525D01*
X85405465Y-78477077D01*
X85525863Y-78347223D01*
X85759560Y-78222732D01*
X85786889Y-78210540D01*
X86105922Y-78092965D01*
X86437432Y-78005393D01*
X86539234Y-77987674D01*
X86758864Y-77941095D01*
X86886368Y-77882169D01*
X86899333Y-77859453D01*
X86833386Y-77812149D01*
X86751167Y-77821511D01*
X86376714Y-77893800D01*
X85884100Y-77944626D01*
X85323326Y-77972427D01*
X84744389Y-77975640D01*
X84197289Y-77952701D01*
X83809000Y-77913489D01*
X83553996Y-77872457D01*
X83241267Y-77814086D01*
X82912772Y-77747335D01*
X82610473Y-77681161D01*
X82376329Y-77624520D01*
X82252299Y-77586371D01*
X82242667Y-77579121D01*
X82316582Y-77502321D01*
X82515096Y-77384229D01*
X82803363Y-77240574D01*
X83146535Y-77087078D01*
X83509765Y-76939468D01*
X83858207Y-76813468D01*
X84107660Y-76737516D01*
X84449188Y-76642960D01*
X84724876Y-76560700D01*
X84896477Y-76502458D01*
X84932960Y-76484596D01*
X84986713Y-76533129D01*
X85005431Y-76564333D01*
X85206000Y-76564333D01*
X85248333Y-76522000D01*
X85290667Y-76564333D01*
X85248333Y-76606667D01*
X85206000Y-76564333D01*
X85005431Y-76564333D01*
X85087859Y-76701739D01*
X85215712Y-76955456D01*
X85231612Y-76989414D01*
X85388090Y-77301876D01*
X85513001Y-77473698D01*
X85631838Y-77523669D01*
X85770096Y-77470579D01*
X85829363Y-77429979D01*
X85906373Y-77356455D01*
X85909751Y-77268033D01*
X85828490Y-77121299D01*
X85707637Y-76949986D01*
X85565977Y-76755441D01*
X85502213Y-76629524D01*
X85529261Y-76528677D01*
X85660035Y-76409338D01*
X85907450Y-76227948D01*
X85925667Y-76214596D01*
X86095000Y-76090287D01*
X85925667Y-75961273D01*
X85690225Y-75793970D01*
X85540001Y-75741580D01*
X85431123Y-75809425D01*
X85319720Y-76002829D01*
X85303088Y-76036805D01*
X85200036Y-76235481D01*
X85148756Y-76290235D01*
X85135374Y-76213235D01*
X85136017Y-76183333D01*
X85136634Y-75987703D01*
X85131001Y-75667168D01*
X85120251Y-75252409D01*
X85105517Y-74774111D01*
X85087934Y-74262956D01*
X85068635Y-73749627D01*
X85048752Y-73264807D01*
X85029420Y-72839178D01*
X85011771Y-72503425D01*
X84996940Y-72288229D01*
X84989995Y-72230356D01*
X84986210Y-72051231D01*
X85070452Y-72009885D01*
X85231233Y-72107094D01*
X85335884Y-72207011D01*
X85555386Y-72399072D01*
X85718485Y-72444253D01*
X85847889Y-72345393D01*
X85889978Y-72276251D01*
X85942473Y-72123793D01*
X85873480Y-72031623D01*
X85850138Y-72017772D01*
X85694001Y-71910524D01*
X85498056Y-71752491D01*
X85480681Y-71737377D01*
X85248333Y-71533711D01*
X85489267Y-71322878D01*
X85669341Y-71177085D01*
X85803110Y-71089060D01*
X85818002Y-71082777D01*
X85869785Y-70995674D01*
X85835153Y-70847275D01*
X85739436Y-70703512D01*
X85648018Y-70640308D01*
X85534111Y-70631641D01*
X85410994Y-70711420D01*
X85252484Y-70902437D01*
X85110835Y-71107930D01*
X84973336Y-71315000D01*
X84970933Y-71018667D01*
X84965245Y-70736707D01*
X84946752Y-70584461D01*
X84904549Y-70522320D01*
X84831077Y-70510667D01*
X84758208Y-70552349D01*
X84734251Y-70699662D01*
X84745234Y-70912833D01*
X84760342Y-71136132D01*
X84779068Y-71489021D01*
X84799530Y-71931845D01*
X84819847Y-72424951D01*
X84830594Y-72712000D01*
X84853382Y-73285800D01*
X84881306Y-73898814D01*
X84911290Y-74488297D01*
X84940260Y-74991501D01*
X84948876Y-75125000D01*
X84975232Y-75596706D01*
X84979944Y-75924191D01*
X84962266Y-76131270D01*
X84921451Y-76241762D01*
X84913568Y-76251180D01*
X84792960Y-76318962D01*
X84547538Y-76416167D01*
X84216065Y-76528454D01*
X83928630Y-76615579D01*
X83452182Y-76771680D01*
X82979987Y-76958491D01*
X82582024Y-77147589D01*
X82485516Y-77201730D01*
X81924032Y-77533661D01*
X81384849Y-77354646D01*
X81093473Y-77251274D01*
X80860681Y-77156660D01*
X80743004Y-77095080D01*
X80644653Y-76955603D01*
X80518397Y-76686290D01*
X80376525Y-76321798D01*
X80231324Y-75896783D01*
X80095084Y-75445904D01*
X79980093Y-75003818D01*
X79943361Y-74839862D01*
X79884257Y-74543856D01*
X79842034Y-74275577D01*
X79815201Y-74001489D01*
X79802264Y-73688056D01*
X79801730Y-73301742D01*
X79812106Y-72809011D01*
X79828853Y-72267500D01*
X79846750Y-71608554D01*
X79851892Y-71098975D01*
X79844355Y-70744068D01*
X79824215Y-70549136D01*
X79803452Y-70510667D01*
X79761239Y-70590639D01*
X79722580Y-70811803D01*
X79688848Y-71146034D01*
X79661417Y-71565204D01*
X79641661Y-72041186D01*
X79630951Y-72545855D01*
X79630662Y-73051083D01*
X79642167Y-73528744D01*
X79648859Y-73676956D01*
X79723820Y-74490094D01*
X79870471Y-75248299D01*
X80104687Y-76022051D01*
X80284960Y-76500833D01*
X80381683Y-76781711D01*
X80393009Y-76921840D01*
X80319876Y-76918823D01*
X80174418Y-76782724D01*
X79928614Y-76447898D01*
X79673344Y-75991363D01*
X79428743Y-75458137D01*
X79214944Y-74893239D01*
X79052080Y-74341685D01*
X79019181Y-74199640D01*
X78934380Y-73804226D01*
X78884860Y-73537991D01*
X78872147Y-73364176D01*
X78897767Y-73246026D01*
X78963247Y-73146782D01*
X79067667Y-73032330D01*
X79231829Y-72827487D01*
X79260587Y-72686788D01*
X79153155Y-72571658D01*
X79057165Y-72516336D01*
X78959720Y-72459629D01*
X78891332Y-72389094D01*
X78843420Y-72273603D01*
X78807404Y-72082031D01*
X78774706Y-71783253D01*
X78737685Y-71357333D01*
X78688725Y-70961243D01*
X78620919Y-70676779D01*
X78540806Y-70527481D01*
X78502449Y-70510667D01*
X78459178Y-70576817D01*
X78475000Y-70680000D01*
X78483097Y-70816351D01*
X78438372Y-70849333D01*
X78362510Y-70777297D01*
X78334199Y-70658833D01*
X78319434Y-70628783D01*
X78294937Y-70742448D01*
X78270699Y-70934000D01*
X78221000Y-71399667D01*
X77660051Y-71414729D01*
X77300186Y-71438206D01*
X76949086Y-71483371D01*
X76741559Y-71526067D01*
X76542256Y-71573820D01*
X76403230Y-71570049D01*
X76270755Y-71494025D01*
X76091102Y-71325018D01*
X76011341Y-71244329D01*
X75817202Y-71039918D01*
X75682398Y-70883664D01*
X75638667Y-70815491D01*
X75711879Y-70778167D01*
X75871500Y-70763370D01*
X76084407Y-70735096D01*
X76248585Y-70668640D01*
X76316000Y-70587858D01*
X76299633Y-70550744D01*
X76193491Y-70544874D01*
X76059528Y-70596656D01*
X75883577Y-70654101D01*
X75652869Y-70649962D01*
X75322762Y-70581961D01*
X75215333Y-70553591D01*
X75147119Y-70556284D01*
X75185675Y-70636054D01*
X75339040Y-70803401D01*
X75596333Y-71051121D01*
X76189000Y-71606226D01*
X75765667Y-71554911D01*
X75535783Y-71513071D01*
X75334922Y-71433303D01*
X75116654Y-71289733D01*
X74834548Y-71056490D01*
X74770300Y-71000254D01*
X74442601Y-70726020D01*
X74227483Y-70573460D01*
X74127003Y-70535962D01*
X74143217Y-70606912D01*
X74278183Y-70779694D01*
X74533957Y-71047695D01*
X74704410Y-71212149D01*
X75396710Y-71865333D01*
X74347976Y-71865333D01*
X73654041Y-71188000D01*
X73373241Y-70919433D01*
X73134353Y-70701241D01*
X72964162Y-70557216D01*
X72891565Y-70510667D01*
X72860778Y-70584451D01*
X72866313Y-70769168D01*
X72877179Y-70849333D01*
X72890229Y-71020762D01*
X73014000Y-71020762D01*
X73044642Y-70876795D01*
X73142238Y-70876876D01*
X73315297Y-71022008D01*
X73352353Y-71060666D01*
X73488114Y-71236902D01*
X73482946Y-71321953D01*
X73339199Y-71311393D01*
X73237409Y-71277131D01*
X73056452Y-71148003D01*
X73014000Y-71020762D01*
X72890229Y-71020762D01*
X72895537Y-71090478D01*
X72846229Y-71177376D01*
X72725754Y-71112486D01*
X72634205Y-71019999D01*
X72455214Y-70856904D01*
X72246905Y-70714113D01*
X72054483Y-70616564D01*
X71923154Y-70589196D01*
X71893816Y-70611551D01*
X71797227Y-70650818D01*
X71545809Y-70681456D01*
X71153903Y-70702262D01*
X70700552Y-70711519D01*
X70217344Y-70712814D01*
X69877378Y-70704612D01*
X69654710Y-70684491D01*
X69523397Y-70650032D01*
X69457496Y-70598815D01*
X69455169Y-70595333D01*
X69374406Y-70513887D01*
X69298915Y-70583747D01*
X69228307Y-70656773D01*
X69178600Y-70583747D01*
X69135884Y-70530065D01*
X69126017Y-70561156D01*
X69040189Y-70608097D01*
X68798849Y-70651259D01*
X68415810Y-70688654D01*
X68100183Y-70708777D01*
X67562595Y-70745252D01*
X67357068Y-70771887D01*
X71278333Y-70771887D01*
X71703480Y-70768277D01*
X71917203Y-70773837D01*
X72083855Y-70810013D01*
X72248139Y-70899622D01*
X72454757Y-71065484D01*
X72677147Y-71265280D01*
X73225667Y-71765893D01*
X72844667Y-71719283D01*
X72513764Y-71656811D01*
X72229509Y-71541808D01*
X71937095Y-71346184D01*
X71659333Y-71111756D01*
X71278333Y-70771887D01*
X67357068Y-70771887D01*
X67167568Y-70796445D01*
X66888346Y-70874659D01*
X66698175Y-70992198D01*
X66570299Y-71161364D01*
X66477964Y-71394463D01*
X66457264Y-71464286D01*
X66370233Y-71787957D01*
X66263140Y-72213312D01*
X66143770Y-72706414D01*
X66019907Y-73233322D01*
X65899338Y-73760096D01*
X65789848Y-74252798D01*
X65699221Y-74677487D01*
X65635244Y-75000224D01*
X65607838Y-75167333D01*
X65612731Y-75202641D01*
X65651725Y-75094195D01*
X65719375Y-74862893D01*
X65810236Y-74529631D01*
X65918860Y-74115306D01*
X66039803Y-73640816D01*
X66167618Y-73127056D01*
X66296859Y-72594925D01*
X66422079Y-72065319D01*
X66468007Y-71866767D01*
X66538927Y-71566023D01*
X66610825Y-71329847D01*
X66703712Y-71150456D01*
X66837604Y-71020069D01*
X67032514Y-70930905D01*
X67308454Y-70875180D01*
X67685440Y-70845113D01*
X68183485Y-70832923D01*
X68822601Y-70830828D01*
X69131617Y-70831081D01*
X69841749Y-70835666D01*
X70407928Y-70847934D01*
X70823598Y-70867591D01*
X71082207Y-70894343D01*
X71173760Y-70922560D01*
X71242901Y-71089386D01*
X71246163Y-71125850D01*
X71334345Y-71125850D01*
X71410383Y-71125876D01*
X71592897Y-71239927D01*
X71700983Y-71320219D01*
X71894955Y-71502353D01*
X71962972Y-71676753D01*
X71961187Y-71764719D01*
X71876920Y-71963449D01*
X71695096Y-72032273D01*
X71506221Y-71990406D01*
X71415083Y-71938000D01*
X71473666Y-71887443D01*
X71532333Y-71862197D01*
X71641374Y-71808646D01*
X71595920Y-71788984D01*
X71553500Y-71786618D01*
X71430974Y-71711686D01*
X71405333Y-71575925D01*
X71384367Y-71356549D01*
X71353941Y-71237258D01*
X71334345Y-71125850D01*
X71246163Y-71125850D01*
X71268634Y-71376981D01*
X71256380Y-71743971D01*
X71211557Y-72148985D01*
X71185633Y-72293664D01*
X71574667Y-72293664D01*
X71636127Y-72207446D01*
X71659333Y-72204000D01*
X71741799Y-72232887D01*
X71744000Y-72241337D01*
X71684671Y-72313623D01*
X71659333Y-72331000D01*
X71581314Y-72324287D01*
X71574667Y-72293664D01*
X71185633Y-72293664D01*
X71153325Y-72473965D01*
X71828667Y-72473965D01*
X71880935Y-72367667D01*
X71992534Y-72229373D01*
X72112977Y-72004189D01*
X72107146Y-71865133D01*
X72088887Y-71733730D01*
X72161416Y-71732089D01*
X72218446Y-71759381D01*
X72413087Y-71822283D01*
X72696176Y-71873864D01*
X73001786Y-71906674D01*
X73263993Y-71913263D01*
X73402245Y-71893171D01*
X73471364Y-71839076D01*
X73430661Y-71741946D01*
X73336093Y-71631600D01*
X73141000Y-71419508D01*
X73459744Y-71477157D01*
X73741213Y-71579045D01*
X73997419Y-71749455D01*
X74014996Y-71766000D01*
X74183725Y-71952507D01*
X74295012Y-72114421D01*
X74304906Y-72136358D01*
X74418685Y-72237243D01*
X74531868Y-72230136D01*
X74650760Y-72165355D01*
X74659051Y-72109708D01*
X74694439Y-72054471D01*
X74826679Y-72034667D01*
X74982008Y-72065668D01*
X74995237Y-72153103D01*
X75000478Y-72287410D01*
X75032587Y-72322711D01*
X75176405Y-72344407D01*
X75308182Y-72280510D01*
X75355213Y-72170428D01*
X75349856Y-72150741D01*
X75371811Y-72049361D01*
X75424660Y-72034667D01*
X75568919Y-71980642D01*
X75610427Y-71863590D01*
X75543680Y-71765724D01*
X75544514Y-71722908D01*
X75711278Y-71708578D01*
X75970074Y-71718098D01*
X76345753Y-71718316D01*
X76679802Y-71678782D01*
X76816741Y-71642625D01*
X77259391Y-71537352D01*
X77654545Y-71544789D01*
X77718869Y-71569000D01*
X78178667Y-71569000D01*
X78221000Y-71526667D01*
X78263333Y-71569000D01*
X78221000Y-71611333D01*
X78178667Y-71569000D01*
X77718869Y-71569000D01*
X77966776Y-71662309D01*
X78055515Y-71734485D01*
X78199876Y-71940536D01*
X78263208Y-72153074D01*
X78263333Y-72160797D01*
X78246372Y-72311309D01*
X78169552Y-72324876D01*
X78099566Y-72291646D01*
X77876560Y-72218649D01*
X77742563Y-72204000D01*
X77476080Y-72246854D01*
X77145472Y-72355696D01*
X76826403Y-72500947D01*
X76683334Y-72594723D01*
X77070965Y-72594723D01*
X77264983Y-72487028D01*
X77598082Y-72383202D01*
X77932528Y-72414883D01*
X77960075Y-72424725D01*
X78077445Y-72499625D01*
X78048588Y-72588060D01*
X77866029Y-72702054D01*
X77755139Y-72754421D01*
X77539272Y-72844906D01*
X77411380Y-72862194D01*
X77306532Y-72805846D01*
X77243621Y-72750974D01*
X77070965Y-72594723D01*
X76683334Y-72594723D01*
X76594941Y-72652661D01*
X76499417Y-72727718D01*
X76394546Y-72769668D01*
X76242098Y-72780683D01*
X76003842Y-72762937D01*
X75641545Y-72718604D01*
X75578941Y-72710425D01*
X75009695Y-72617558D01*
X74551849Y-72505150D01*
X74219929Y-72378716D01*
X74028459Y-72243773D01*
X73991396Y-72107583D01*
X73979174Y-71956563D01*
X73868944Y-71882609D01*
X73723364Y-71909301D01*
X73648589Y-71978577D01*
X73523341Y-72077000D01*
X73776000Y-72077000D01*
X73818333Y-72034667D01*
X73860667Y-72077000D01*
X73818333Y-72119333D01*
X73776000Y-72077000D01*
X73523341Y-72077000D01*
X73499353Y-72095850D01*
X73404175Y-72119333D01*
X73255175Y-72184330D01*
X73214779Y-72244175D01*
X73148815Y-72314395D01*
X72998152Y-72338748D01*
X72724315Y-72322659D01*
X72685854Y-72318740D01*
X72387905Y-72299143D01*
X72207923Y-72322881D01*
X72175050Y-72345111D01*
X73380889Y-72345111D01*
X73392511Y-72294777D01*
X73437333Y-72288667D01*
X73507023Y-72319645D01*
X73493778Y-72345111D01*
X73393298Y-72355244D01*
X73380889Y-72345111D01*
X72175050Y-72345111D01*
X72098502Y-72396874D01*
X72091050Y-72405565D01*
X71956833Y-72520348D01*
X71854773Y-72533308D01*
X71828667Y-72473965D01*
X71153325Y-72473965D01*
X71139584Y-72550649D01*
X71045882Y-72907590D01*
X70935870Y-73178437D01*
X70864703Y-73281965D01*
X70709629Y-73334305D01*
X70407550Y-73324689D01*
X69968432Y-73254668D01*
X69402243Y-73125794D01*
X68780667Y-72957442D01*
X68376889Y-72846989D01*
X67996643Y-72752753D01*
X67691556Y-72687037D01*
X67553000Y-72664878D01*
X67214333Y-72627767D01*
X67468333Y-72765722D01*
X67645306Y-72863409D01*
X67741164Y-72919305D01*
X67744404Y-72921631D01*
X67731739Y-73004061D01*
X67674562Y-73192952D01*
X67633339Y-73312626D01*
X67567574Y-73523565D01*
X67473336Y-73861197D01*
X67360806Y-74287353D01*
X67240169Y-74763863D01*
X67172416Y-75040333D01*
X67001968Y-75722916D01*
X66854452Y-76256142D01*
X66721774Y-76657123D01*
X66595840Y-76942968D01*
X66468554Y-77130787D01*
X66331821Y-77237692D01*
X66177546Y-77280791D01*
X66110917Y-77284000D01*
X65868054Y-77229561D01*
X65699102Y-77057006D01*
X65596705Y-76752483D01*
X65553510Y-76302137D01*
X65551837Y-76230869D01*
X65540341Y-75548333D01*
X65457184Y-76120522D01*
X65420354Y-76576953D01*
X65469372Y-76911578D01*
X65613680Y-77153707D01*
X65844613Y-77323139D01*
X66075739Y-77415044D01*
X66277837Y-77400905D01*
X66351109Y-77375856D01*
X66505527Y-77279711D01*
X66646145Y-77104601D01*
X66781281Y-76831498D01*
X66919251Y-76441374D01*
X67068372Y-75915202D01*
X67175659Y-75489418D01*
X67298483Y-75000461D01*
X67433951Y-74485552D01*
X67563781Y-74013036D01*
X67650608Y-73713775D01*
X67778032Y-73323280D01*
X67895803Y-73076079D01*
X68031558Y-72950291D01*
X68212937Y-72924033D01*
X68467579Y-72975424D01*
X68552463Y-72999769D01*
X68772869Y-73074507D01*
X68872125Y-73161202D01*
X68892728Y-73315331D01*
X68886743Y-73436140D01*
X68846921Y-73721147D01*
X68770656Y-74056093D01*
X68731011Y-74192253D01*
X68639855Y-74446793D01*
X68510987Y-74765339D01*
X68360535Y-75112849D01*
X68204627Y-75454283D01*
X68059393Y-75754597D01*
X67940961Y-75978752D01*
X67865458Y-76091704D01*
X67853548Y-76098667D01*
X67779952Y-76033296D01*
X67668249Y-75873083D01*
X67651135Y-75844667D01*
X67532464Y-75674575D01*
X67439204Y-75592121D01*
X67430826Y-75590667D01*
X67377894Y-75666053D01*
X67324045Y-75857101D01*
X67302789Y-75975913D01*
X67192263Y-76542159D01*
X67047553Y-76965370D01*
X66858351Y-77270150D01*
X66695908Y-77424692D01*
X66453708Y-77642045D01*
X66238493Y-77886794D01*
X66204228Y-77934472D01*
X66014134Y-78214220D01*
X65558054Y-77516277D01*
X65338533Y-77159378D01*
X65139840Y-76799285D01*
X64993416Y-76494397D01*
X64954418Y-76395000D01*
X64870214Y-76182660D01*
X64817959Y-76113941D01*
X64804097Y-76164886D01*
X64862712Y-76481220D01*
X65047898Y-76893191D01*
X65362070Y-77406085D01*
X65389925Y-77447333D01*
X65598336Y-77776645D01*
X65832640Y-78180940D01*
X65908467Y-78322296D01*
X66071333Y-78322296D01*
X66124796Y-78210602D01*
X66258099Y-78031468D01*
X66430614Y-77830949D01*
X66601714Y-77655103D01*
X66730769Y-77549986D01*
X66763189Y-77538000D01*
X66765112Y-77599013D01*
X66682583Y-77757329D01*
X66565148Y-77933426D01*
X66363965Y-78187348D01*
X66202159Y-78341862D01*
X66098902Y-78381869D01*
X66071333Y-78322296D01*
X65908467Y-78322296D01*
X66047544Y-78581557D01*
X66079607Y-78645074D01*
X66234370Y-78940961D01*
X66363762Y-79162034D01*
X66448857Y-79277191D01*
X66469088Y-79285135D01*
X66462714Y-79188717D01*
X66393230Y-78997584D01*
X66341248Y-78885481D01*
X66166649Y-78532585D01*
X66457177Y-78258583D01*
X66716065Y-77934049D01*
X66963660Y-77472392D01*
X67186445Y-76905806D01*
X67370907Y-76266487D01*
X67452750Y-75887000D01*
X67490584Y-75837142D01*
X67566149Y-75923788D01*
X67687750Y-76157479D01*
X67719655Y-76225667D01*
X67821374Y-76537644D01*
X67965533Y-76537644D01*
X67974081Y-76321084D01*
X68085528Y-75983252D01*
X68259175Y-75607320D01*
X68438218Y-75221768D01*
X68617210Y-74784004D01*
X68781560Y-74335924D01*
X68916672Y-73919427D01*
X69007954Y-73576410D01*
X69040617Y-73363796D01*
X69050513Y-73233801D01*
X69084108Y-73267494D01*
X69110677Y-73327463D01*
X69470713Y-73327463D01*
X69555284Y-73312489D01*
X69634579Y-73329594D01*
X69835242Y-73368677D01*
X70057533Y-73403133D01*
X71036913Y-73403133D01*
X71050360Y-73299169D01*
X71119371Y-73099487D01*
X71168469Y-72983048D01*
X71294279Y-72749415D01*
X71407573Y-72658570D01*
X71473833Y-72661528D01*
X71663523Y-72713032D01*
X72139531Y-72713032D01*
X72150626Y-72608298D01*
X72173664Y-72577372D01*
X72358070Y-72470812D01*
X72587818Y-72474583D01*
X72786285Y-72581551D01*
X72794605Y-72591925D01*
X73047275Y-72591925D01*
X73054609Y-72477816D01*
X73122067Y-72458000D01*
X73194285Y-72500333D01*
X73522000Y-72500333D01*
X73564333Y-72458000D01*
X73606667Y-72500333D01*
X73564333Y-72542667D01*
X73522000Y-72500333D01*
X73194285Y-72500333D01*
X73243213Y-72529013D01*
X73258618Y-72559725D01*
X73843911Y-72559725D01*
X73945333Y-72549076D01*
X74181268Y-72598419D01*
X74321349Y-72672360D01*
X74429323Y-72760043D01*
X74429727Y-72787179D01*
X74305117Y-72753751D01*
X74072333Y-72672108D01*
X73882332Y-72597235D01*
X73843911Y-72559725D01*
X73258618Y-72559725D01*
X73292532Y-72627333D01*
X73285762Y-72768790D01*
X73217740Y-72796667D01*
X73109960Y-72776266D01*
X73098667Y-72761258D01*
X73072328Y-72661734D01*
X73047275Y-72591925D01*
X72794605Y-72591925D01*
X72832104Y-72638680D01*
X72901652Y-72785918D01*
X72876211Y-72838196D01*
X74538000Y-72838196D01*
X74542930Y-72838742D01*
X75251913Y-72838742D01*
X75258786Y-72806692D01*
X75330974Y-72808351D01*
X75427000Y-72824374D01*
X75695475Y-72871006D01*
X75977909Y-72918108D01*
X76606609Y-72918108D01*
X76626773Y-72840636D01*
X76693375Y-72770053D01*
X76847519Y-72646533D01*
X76957973Y-72664986D01*
X77053649Y-72789138D01*
X77090975Y-72938473D01*
X76997304Y-73015071D01*
X76801510Y-73002004D01*
X76729755Y-72979027D01*
X76606609Y-72918108D01*
X75977909Y-72918108D01*
X75985201Y-72919324D01*
X75986078Y-72919467D01*
X76146534Y-72963608D01*
X76267159Y-73028362D01*
X77695502Y-73028362D01*
X77713000Y-72966000D01*
X77833828Y-72892331D01*
X77908497Y-72882630D01*
X78003249Y-72896332D01*
X77941704Y-72954863D01*
X77924667Y-72966000D01*
X77769542Y-73040792D01*
X77695502Y-73028362D01*
X76267159Y-73028362D01*
X76317577Y-73055427D01*
X76481787Y-73182335D01*
X76880929Y-73182335D01*
X76966307Y-73144158D01*
X76993333Y-73135333D01*
X77274122Y-73068409D01*
X77451709Y-73074756D01*
X77501333Y-73135333D01*
X77426033Y-73185245D01*
X77236632Y-73210770D01*
X77141500Y-73211561D01*
X76934219Y-73202174D01*
X76880929Y-73182335D01*
X76481787Y-73182335D01*
X76521839Y-73213288D01*
X76542183Y-73232237D01*
X77967000Y-73232237D01*
X78204554Y-73014452D01*
X78471839Y-72833497D01*
X78711927Y-72812798D01*
X78838841Y-72868937D01*
X78892091Y-72960842D01*
X78803800Y-73056805D01*
X78600473Y-73140026D01*
X78330154Y-73191396D01*
X77967000Y-73232237D01*
X76542183Y-73232237D01*
X76781953Y-73455554D01*
X76800054Y-73474000D01*
X77035667Y-73474000D01*
X77053911Y-73400746D01*
X77110340Y-73389333D01*
X77256622Y-73439012D01*
X77289667Y-73474000D01*
X77271422Y-73547255D01*
X77214993Y-73558667D01*
X77068711Y-73508989D01*
X77035667Y-73474000D01*
X76800054Y-73474000D01*
X77021620Y-73699778D01*
X77360222Y-73699778D01*
X77371844Y-73649444D01*
X77416667Y-73643333D01*
X77486357Y-73674312D01*
X77473111Y-73699778D01*
X77372631Y-73709911D01*
X77360222Y-73699778D01*
X77021620Y-73699778D01*
X77120551Y-73800589D01*
X77284340Y-73972872D01*
X77533014Y-74236000D01*
X77242007Y-74233218D01*
X77084130Y-74210237D01*
X76901548Y-74132988D01*
X76665439Y-73984559D01*
X76346983Y-73748040D01*
X76146667Y-73590505D01*
X75757731Y-73280383D01*
X75487930Y-73061264D01*
X75323809Y-72918825D01*
X75251913Y-72838742D01*
X74542930Y-72838742D01*
X74605018Y-72845617D01*
X74771966Y-72911824D01*
X74833270Y-72940211D01*
X75012499Y-73036881D01*
X75095638Y-73104429D01*
X75095138Y-73114417D01*
X75008252Y-73101531D01*
X74844346Y-73033051D01*
X74670537Y-72942253D01*
X74553944Y-72862412D01*
X74538000Y-72838196D01*
X72876211Y-72838196D01*
X72860099Y-72871303D01*
X72831304Y-72891384D01*
X72588188Y-72959938D01*
X72319908Y-72866295D01*
X72266802Y-72831372D01*
X72139531Y-72713032D01*
X71663523Y-72713032D01*
X71664555Y-72713312D01*
X71849833Y-72759491D01*
X72025321Y-72839898D01*
X72081470Y-73001255D01*
X72082667Y-73046723D01*
X72015814Y-73319991D01*
X71826354Y-73485250D01*
X71530934Y-73530838D01*
X71411066Y-73517302D01*
X71189325Y-73468556D01*
X71052666Y-73417275D01*
X71036913Y-73403133D01*
X70057533Y-73403133D01*
X70123822Y-73413408D01*
X70304667Y-73437442D01*
X70656109Y-73489944D01*
X70878971Y-73533845D01*
X72045502Y-73533845D01*
X72099177Y-73329587D01*
X72182991Y-73158448D01*
X72303780Y-73072001D01*
X72521276Y-73033227D01*
X72586574Y-73027536D01*
X73004767Y-72998017D01*
X73309446Y-72992530D01*
X73555410Y-73016516D01*
X73797453Y-73075414D01*
X74090374Y-73174667D01*
X74098697Y-73177667D01*
X74403630Y-73281663D01*
X74656797Y-73357189D01*
X74807100Y-73389115D01*
X74813535Y-73389333D01*
X74937667Y-73460114D01*
X74983998Y-73551527D01*
X74967424Y-73744695D01*
X74842810Y-73875942D01*
X74748915Y-73897333D01*
X74615776Y-73946635D01*
X74490682Y-74031245D01*
X74383801Y-74124924D01*
X74408749Y-74137267D01*
X74480074Y-74116430D01*
X74587920Y-74109915D01*
X74614215Y-74214412D01*
X74607074Y-74300019D01*
X74551447Y-74458295D01*
X74734478Y-74458295D01*
X74740608Y-74440742D01*
X74786295Y-74236518D01*
X74792000Y-74150114D01*
X74862908Y-74000293D01*
X74961333Y-73939667D01*
X75096426Y-73828419D01*
X75130667Y-73637628D01*
X75178948Y-73440209D01*
X75324986Y-73374414D01*
X75570574Y-73440652D01*
X75917505Y-73639328D01*
X76273667Y-73897333D01*
X76566389Y-74114869D01*
X76817844Y-74285861D01*
X76993086Y-74387351D01*
X77046851Y-74405333D01*
X77099993Y-74441419D01*
X77134894Y-74565943D01*
X77154628Y-74803309D01*
X77162271Y-75177920D01*
X77162667Y-75324247D01*
X77157349Y-75770222D01*
X77143058Y-76216920D01*
X77122284Y-76598409D01*
X77108272Y-76763580D01*
X77069167Y-77056497D01*
X77019785Y-77216066D01*
X76945509Y-77278219D01*
X76896605Y-77284000D01*
X76770528Y-77226209D01*
X76739333Y-77076093D01*
X76686256Y-76862824D01*
X76547923Y-76582362D01*
X76355682Y-76290304D01*
X76176266Y-76077500D01*
X76087642Y-75966089D01*
X76126842Y-75928252D01*
X76153019Y-75926641D01*
X76215859Y-75901779D01*
X76135211Y-75818907D01*
X76125500Y-75811474D01*
X76012528Y-75637348D01*
X75977333Y-75427600D01*
X75951981Y-75184649D01*
X75895137Y-75002615D01*
X75752337Y-74865167D01*
X75504237Y-74730172D01*
X75213082Y-74624620D01*
X74941118Y-74575503D01*
X74908228Y-74574667D01*
X74753076Y-74549172D01*
X74734478Y-74458295D01*
X74551447Y-74458295D01*
X74541758Y-74485862D01*
X74376223Y-74559614D01*
X74368667Y-74560669D01*
X74179687Y-74606873D01*
X74087896Y-74655173D01*
X74112185Y-74730456D01*
X74182276Y-74786333D01*
X74453333Y-74786333D01*
X74495667Y-74744000D01*
X74538000Y-74786333D01*
X74495667Y-74828667D01*
X74453333Y-74786333D01*
X74182276Y-74786333D01*
X74261991Y-74849881D01*
X74355684Y-74905561D01*
X74622667Y-74905561D01*
X74692613Y-74839572D01*
X74865975Y-74827350D01*
X75088041Y-74862092D01*
X75304097Y-74936995D01*
X75415582Y-75004145D01*
X75592674Y-75164669D01*
X75619364Y-75248597D01*
X75496494Y-75255487D01*
X75224906Y-75184896D01*
X75130667Y-75154009D01*
X74867811Y-75054072D01*
X74684265Y-74962951D01*
X74622667Y-74905561D01*
X74355684Y-74905561D01*
X74505624Y-74994667D01*
X74811394Y-75146027D01*
X75147611Y-75285179D01*
X75156021Y-75288298D01*
X75404370Y-75406871D01*
X75516859Y-75519332D01*
X75485041Y-75608479D01*
X75335317Y-75653448D01*
X75225842Y-75662246D01*
X75266624Y-75629163D01*
X75342333Y-75591592D01*
X75401150Y-75547427D01*
X75313428Y-75538971D01*
X75110600Y-75559426D01*
X74833487Y-75574129D01*
X74592003Y-75525907D01*
X74303601Y-75397191D01*
X74272465Y-75381027D01*
X73931871Y-75238794D01*
X73557114Y-75134033D01*
X73384181Y-75105921D01*
X73065102Y-75100366D01*
X72891489Y-75173589D01*
X72864939Y-75294333D01*
X73014000Y-75294333D01*
X73056333Y-75252000D01*
X73069152Y-75264819D01*
X73335192Y-75264819D01*
X73631035Y-75406576D01*
X73719169Y-75460727D01*
X74061524Y-75460727D01*
X74123321Y-75479642D01*
X74219287Y-75544313D01*
X74442529Y-75646369D01*
X74613283Y-75675333D01*
X74748381Y-75693895D01*
X74764309Y-75731247D01*
X74656015Y-75777139D01*
X74489584Y-75799420D01*
X74331530Y-75796158D01*
X74248366Y-75765421D01*
X74250209Y-75746178D01*
X74234852Y-75678382D01*
X74213388Y-75675333D01*
X74116932Y-75607664D01*
X74082506Y-75544313D01*
X74061524Y-75460727D01*
X73719169Y-75460727D01*
X73855069Y-75544225D01*
X74018247Y-75696748D01*
X74032766Y-75717667D01*
X74090904Y-75816445D01*
X74989555Y-75816445D01*
X75001178Y-75766110D01*
X75046000Y-75760000D01*
X75115690Y-75790978D01*
X75114744Y-75792797D01*
X75667770Y-75792797D01*
X75681000Y-75760000D01*
X75757082Y-75679230D01*
X75770663Y-75675333D01*
X75807029Y-75740839D01*
X75808000Y-75760000D01*
X75742912Y-75841413D01*
X75718336Y-75844667D01*
X75667770Y-75792797D01*
X75114744Y-75792797D01*
X75102444Y-75816445D01*
X75001965Y-75826578D01*
X74989555Y-75816445D01*
X74090904Y-75816445D01*
X74100148Y-75832150D01*
X74069484Y-75823576D01*
X73971622Y-75738649D01*
X73834466Y-75642913D01*
X73762407Y-75632482D01*
X73683190Y-75606925D01*
X73545682Y-75488504D01*
X73527708Y-75469742D01*
X73335192Y-75264819D01*
X73069152Y-75264819D01*
X73098667Y-75294333D01*
X73056333Y-75336667D01*
X73014000Y-75294333D01*
X72864939Y-75294333D01*
X72855277Y-75338271D01*
X72948396Y-75607094D01*
X72950789Y-75611833D01*
X73101384Y-75611833D01*
X73149670Y-75516776D01*
X73295489Y-75548264D01*
X73527995Y-75702737D01*
X73626854Y-75784346D01*
X73755326Y-75901111D01*
X75243555Y-75901111D01*
X75255178Y-75850777D01*
X75300000Y-75844667D01*
X75369690Y-75875645D01*
X75356444Y-75901111D01*
X75255965Y-75911244D01*
X75243555Y-75901111D01*
X73755326Y-75901111D01*
X73813483Y-75953968D01*
X73892916Y-76078726D01*
X73889572Y-76184740D01*
X74327202Y-76184740D01*
X74328514Y-76056321D01*
X74376534Y-76009138D01*
X74502567Y-75964733D01*
X74518726Y-76044157D01*
X74474859Y-76141000D01*
X75892667Y-76141000D01*
X75935000Y-76098667D01*
X75977333Y-76141000D01*
X75935000Y-76183333D01*
X75892667Y-76141000D01*
X74474859Y-76141000D01*
X74472810Y-76145522D01*
X74391638Y-76235905D01*
X74327202Y-76184740D01*
X73889572Y-76184740D01*
X73888405Y-76221724D01*
X73844835Y-76375939D01*
X73762376Y-76571153D01*
X73677242Y-76667084D01*
X73655315Y-76668857D01*
X73573744Y-76583719D01*
X73452836Y-76393161D01*
X73319099Y-76147767D01*
X73199044Y-75898123D01*
X73119179Y-75694815D01*
X73101384Y-75611833D01*
X72950789Y-75611833D01*
X73000155Y-75709585D01*
X73110696Y-75938857D01*
X73176008Y-76114063D01*
X73183568Y-76157170D01*
X73130110Y-76281186D01*
X73020507Y-76334789D01*
X72941034Y-76295538D01*
X72844484Y-76199850D01*
X72664686Y-76051318D01*
X72578299Y-75985020D01*
X72365200Y-75786991D01*
X72305567Y-75623848D01*
X72309984Y-75598891D01*
X72310586Y-75441569D01*
X72273135Y-75178761D01*
X72207159Y-74873420D01*
X72129463Y-74470246D01*
X72104898Y-74119277D01*
X72115519Y-73979873D01*
X72129913Y-73756319D01*
X72093764Y-73635893D01*
X72081981Y-73628994D01*
X72045502Y-73533845D01*
X70878971Y-73533845D01*
X70984532Y-73554639D01*
X71257912Y-73622979D01*
X71444223Y-73686416D01*
X71511442Y-73736404D01*
X71490000Y-73753814D01*
X71349206Y-73783936D01*
X71089878Y-73825877D01*
X70761806Y-73872967D01*
X70414776Y-73918540D01*
X70098576Y-73955928D01*
X69862995Y-73978462D01*
X69785370Y-73982108D01*
X69661686Y-73910045D01*
X69605758Y-73791500D01*
X69540997Y-73559970D01*
X69497300Y-73440161D01*
X69470713Y-73327463D01*
X69110677Y-73327463D01*
X69119333Y-73347000D01*
X69172638Y-73551670D01*
X69192632Y-73749167D01*
X69292056Y-73749167D01*
X69295446Y-73516333D01*
X69420004Y-73745815D01*
X69495545Y-73954421D01*
X69562306Y-74257070D01*
X69596850Y-74507815D01*
X69619759Y-74793115D01*
X69614453Y-74936697D01*
X69577333Y-74964379D01*
X69537287Y-74935151D01*
X69469016Y-74787625D01*
X69429942Y-74534611D01*
X69425436Y-74405985D01*
X69413149Y-74164249D01*
X69381730Y-74010723D01*
X69357051Y-73982000D01*
X69308485Y-73908940D01*
X69292056Y-73749167D01*
X69192632Y-73749167D01*
X69198049Y-73802673D01*
X69155937Y-74068457D01*
X69044921Y-74344542D01*
X69024854Y-74378877D01*
X68925817Y-74573263D01*
X68790965Y-74884255D01*
X68638496Y-75267970D01*
X68495687Y-75654879D01*
X68355764Y-76029916D01*
X68228179Y-76337038D01*
X68126389Y-76546147D01*
X68063850Y-76627143D01*
X68061000Y-76627195D01*
X67965533Y-76537644D01*
X67821374Y-76537644D01*
X67913140Y-76819091D01*
X68002103Y-77521213D01*
X67984786Y-78306142D01*
X67903013Y-78922255D01*
X67847279Y-79324000D01*
X67821001Y-79708207D01*
X67823432Y-80040170D01*
X67853828Y-80285186D01*
X67911443Y-80408550D01*
X67935108Y-80416667D01*
X67963930Y-80341688D01*
X67965012Y-80151790D01*
X67954920Y-80035652D01*
X67949008Y-79737515D01*
X67979145Y-79371952D01*
X68018502Y-79125486D01*
X68066719Y-78803387D01*
X68107178Y-78380996D01*
X68133948Y-77927343D01*
X68140398Y-77707333D01*
X68174993Y-77129261D01*
X68253318Y-76617523D01*
X68368317Y-76204687D01*
X68512937Y-75923321D01*
X68531893Y-75900001D01*
X68585153Y-75921978D01*
X68642542Y-76079049D01*
X68697870Y-76337287D01*
X68744943Y-76662768D01*
X68777571Y-77021566D01*
X68789106Y-77309334D01*
X68799661Y-77614738D01*
X68820927Y-77754280D01*
X68853482Y-77731129D01*
X68861374Y-77707333D01*
X68925202Y-77495667D01*
X68972647Y-77749667D01*
X68997795Y-77859366D01*
X69004282Y-77828473D01*
X68994661Y-77684396D01*
X68971482Y-77454543D01*
X68937297Y-77166322D01*
X68894657Y-76847140D01*
X68877715Y-76729847D01*
X68819803Y-76391180D01*
X68754214Y-76087161D01*
X68697958Y-75892151D01*
X68655085Y-75670673D01*
X68690060Y-75403041D01*
X68810501Y-75059063D01*
X69019712Y-74617000D01*
X69235640Y-74193667D01*
X69298979Y-74547102D01*
X69372894Y-74826634D01*
X69494262Y-75162837D01*
X69583034Y-75367092D01*
X69746750Y-75789754D01*
X69866062Y-76248680D01*
X69929286Y-76684570D01*
X69924735Y-77038126D01*
X69919055Y-77072333D01*
X69898446Y-77229763D01*
X69928992Y-77238562D01*
X69959566Y-77199333D01*
X70026201Y-77023979D01*
X70053112Y-76818333D01*
X70058150Y-76564333D01*
X70242972Y-76903000D01*
X70335122Y-77102792D01*
X70391635Y-77321930D01*
X70420479Y-77609192D01*
X70429624Y-78013354D01*
X70429730Y-78046000D01*
X70423687Y-78418796D01*
X70405876Y-78743925D01*
X70379522Y-78972530D01*
X70364487Y-79034450D01*
X70345508Y-79180826D01*
X70445673Y-79285470D01*
X70532785Y-79331428D01*
X70708637Y-79452576D01*
X70794234Y-79579147D01*
X70781352Y-79644977D01*
X70693895Y-79691429D01*
X70503591Y-79725346D01*
X70182169Y-79753574D01*
X70033269Y-79763389D01*
X69476140Y-79818199D01*
X69034308Y-79903069D01*
X68723777Y-80013393D01*
X68560557Y-80144566D01*
X68541576Y-80192513D01*
X68555276Y-80297035D01*
X68643373Y-80297035D01*
X68645393Y-80214076D01*
X68763167Y-80116026D01*
X68913183Y-80053698D01*
X69390508Y-79919682D01*
X69727638Y-79854264D01*
X69938828Y-79856617D01*
X70038332Y-79925912D01*
X70050667Y-79987628D01*
X70038015Y-80013704D01*
X70142454Y-80013704D01*
X70154774Y-79905786D01*
X70292187Y-79833276D01*
X70389333Y-79824000D01*
X70567718Y-79845534D01*
X70643315Y-79897414D01*
X70643333Y-79898300D01*
X70572416Y-80031502D01*
X70414650Y-80115694D01*
X70273065Y-80112736D01*
X70142454Y-80013704D01*
X70038015Y-80013704D01*
X69979560Y-80134178D01*
X69819533Y-80225298D01*
X69650521Y-80218230D01*
X69635196Y-80209859D01*
X69506666Y-80202325D01*
X69323963Y-80250009D01*
X69133656Y-80296100D01*
X69029838Y-80241236D01*
X69021821Y-80229448D01*
X68963545Y-80165858D01*
X68951296Y-80226167D01*
X68879147Y-80310942D01*
X68773611Y-80332000D01*
X68643373Y-80297035D01*
X68555276Y-80297035D01*
X68557499Y-80313994D01*
X68676333Y-80379564D01*
X68916292Y-80392122D01*
X69295589Y-80354563D01*
X69434963Y-80334603D01*
X69771726Y-80287427D01*
X70059664Y-80253095D01*
X70244119Y-80238013D01*
X70260895Y-80237820D01*
X70442846Y-80183585D01*
X70614461Y-80065354D01*
X70801891Y-79950367D01*
X70951170Y-79999085D01*
X71061655Y-80192497D01*
X71108100Y-80281897D01*
X71161548Y-80266205D01*
X71244668Y-80125960D01*
X71319553Y-79971087D01*
X71475844Y-79670614D01*
X71585420Y-79531976D01*
X71649084Y-79554480D01*
X71666974Y-79670837D01*
X71683917Y-79688987D01*
X71722281Y-79565634D01*
X71774792Y-79326156D01*
X71792987Y-79231333D01*
X71911162Y-78577910D01*
X71994160Y-78070023D01*
X72044450Y-77688114D01*
X72064498Y-77412624D01*
X72056772Y-77223993D01*
X72050745Y-77187895D01*
X72035667Y-77004824D01*
X72084287Y-76956752D01*
X72183829Y-77027596D01*
X72321516Y-77201275D01*
X72484571Y-77461708D01*
X72660220Y-77792811D01*
X72833371Y-78173000D01*
X72932226Y-78431000D01*
X72995451Y-78672354D01*
X73030620Y-78947987D01*
X73045306Y-79308823D01*
X73047457Y-79612333D01*
X73031163Y-80184742D01*
X72977233Y-80613994D01*
X72878823Y-80923442D01*
X72729088Y-81136441D01*
X72566366Y-81253830D01*
X72409929Y-81317635D01*
X72248950Y-81318599D01*
X72016813Y-81253864D01*
X71939441Y-81226934D01*
X71644537Y-81135645D01*
X71370337Y-81072019D01*
X71278333Y-81058750D01*
X70999522Y-81006027D01*
X70789516Y-80938821D01*
X70492443Y-80897460D01*
X70146492Y-80966753D01*
X69808749Y-81125275D01*
X69536304Y-81351599D01*
X69473699Y-81432667D01*
X69343365Y-81671312D01*
X69307138Y-81905506D01*
X69324351Y-82106579D01*
X69388584Y-82423617D01*
X69477070Y-82576571D01*
X69594509Y-82569562D01*
X69714689Y-82448667D01*
X69877568Y-82237000D01*
X69879451Y-82579045D01*
X69841606Y-82984075D01*
X69736974Y-83461170D01*
X69584598Y-83936424D01*
X69448826Y-84250416D01*
X69246762Y-84562470D01*
X68962717Y-84888147D01*
X68641894Y-85184382D01*
X68329499Y-85408111D01*
X68138013Y-85499193D01*
X67905007Y-85550984D01*
X67683895Y-85524382D01*
X67485902Y-85455316D01*
X67213857Y-85332950D01*
X66993870Y-85190610D01*
X66809593Y-85003689D01*
X66644675Y-84747580D01*
X66482767Y-84397673D01*
X66307520Y-83929362D01*
X66138140Y-83426773D01*
X65973618Y-82959109D01*
X65785880Y-82478241D01*
X65600154Y-82046349D01*
X65466511Y-81771333D01*
X65310462Y-81499680D01*
X65104951Y-81174114D01*
X64866960Y-80817886D01*
X64613470Y-80454248D01*
X64361465Y-80106452D01*
X64127925Y-79797749D01*
X63929835Y-79551389D01*
X63784174Y-79390625D01*
X63707926Y-79338708D01*
X63700667Y-79353602D01*
X63749524Y-79487503D01*
X63877709Y-79705821D01*
X64057636Y-79961655D01*
X64060500Y-79965423D01*
X64593383Y-80692602D01*
X65024723Y-81349764D01*
X65377563Y-81981574D01*
X65674946Y-82632697D01*
X65939915Y-83347799D01*
X66149683Y-84015000D01*
X66263004Y-84356246D01*
X66388544Y-84671744D01*
X66494402Y-84884584D01*
X66644230Y-85063595D01*
X66872397Y-85267378D01*
X67130411Y-85459917D01*
X67369780Y-85605193D01*
X67542013Y-85667188D01*
X67548409Y-85667463D01*
X67662696Y-85724933D01*
X67821476Y-85862980D01*
X67837053Y-85879130D01*
X68011587Y-86023471D01*
X68165081Y-86088979D01*
X68173392Y-86089333D01*
X68242096Y-86068198D01*
X68170243Y-85992358D01*
X68122172Y-85957533D01*
X67975319Y-85832395D01*
X67960927Y-85734098D01*
X68090202Y-85638419D01*
X68313446Y-85544094D01*
X68720308Y-85308489D01*
X69106232Y-84935653D01*
X69447012Y-84457656D01*
X69718444Y-83906570D01*
X69850908Y-83507000D01*
X69918437Y-83183836D01*
X69954859Y-82860528D01*
X69962736Y-82563690D01*
X69944626Y-82319935D01*
X69903092Y-82155876D01*
X69840691Y-82098127D01*
X69759986Y-82173303D01*
X69728500Y-82234598D01*
X69616828Y-82412020D01*
X69527245Y-82426666D01*
X69471294Y-82284763D01*
X69458316Y-82088833D01*
X69526656Y-81670625D01*
X69719741Y-81339629D01*
X70020867Y-81121844D01*
X70098653Y-81092134D01*
X70317640Y-81045257D01*
X70580718Y-81043875D01*
X70918133Y-81091888D01*
X71360129Y-81193200D01*
X71793775Y-81310838D01*
X72064246Y-81380615D01*
X72280774Y-81424695D01*
X72355400Y-81432667D01*
X72480369Y-81503716D01*
X72530532Y-81602000D01*
X72613668Y-81736399D01*
X72688573Y-81764649D01*
X72753480Y-81746157D01*
X72696500Y-81715260D01*
X72605799Y-81604787D01*
X72590667Y-81520645D01*
X72648306Y-81340999D01*
X72834882Y-81217389D01*
X73111317Y-81145134D01*
X73386252Y-81058579D01*
X73674309Y-80915076D01*
X73728911Y-80880095D01*
X73946030Y-80750734D01*
X74120945Y-80677117D01*
X74160760Y-80670667D01*
X74266125Y-80729850D01*
X74269523Y-80883855D01*
X74177322Y-81097362D01*
X74052369Y-81271619D01*
X73888959Y-81430933D01*
X73646423Y-81626065D01*
X73357219Y-81835775D01*
X73053807Y-82038823D01*
X72768644Y-82213968D01*
X72534191Y-82339970D01*
X72382905Y-82395589D01*
X72346493Y-82387903D01*
X72055383Y-82004800D01*
X71783247Y-81749671D01*
X71494100Y-81590321D01*
X71427933Y-81566041D01*
X71153016Y-81480586D01*
X71032121Y-81461117D01*
X71065256Y-81503237D01*
X71252429Y-81602552D01*
X71427721Y-81682925D01*
X71647224Y-81792511D01*
X71767734Y-81878071D01*
X71769860Y-81915415D01*
X71623678Y-81906424D01*
X71477574Y-81849350D01*
X71315965Y-81793028D01*
X71255743Y-81839103D01*
X71161410Y-81909932D01*
X71124696Y-81907454D01*
X71066855Y-81905437D01*
X71081453Y-81917139D01*
X71090281Y-82008383D01*
X71038070Y-82189575D01*
X71023346Y-82226304D01*
X70956449Y-82589217D01*
X70971023Y-82676086D01*
X71076790Y-82676086D01*
X71086213Y-82404398D01*
X71154312Y-82189101D01*
X71282750Y-82068644D01*
X71520206Y-82026059D01*
X71570119Y-82025333D01*
X71829885Y-82058435D01*
X72026011Y-82186028D01*
X72117460Y-82285814D01*
X72273327Y-82532307D01*
X72287460Y-82742244D01*
X72283122Y-82914719D01*
X72329806Y-82994760D01*
X72419077Y-83091684D01*
X72341151Y-83167898D01*
X72096982Y-83222674D01*
X72019167Y-83231976D01*
X71747714Y-83269912D01*
X71531349Y-83315701D01*
X71474556Y-83334277D01*
X71333338Y-83318199D01*
X71212124Y-83175079D01*
X71122684Y-82947011D01*
X71076790Y-82676086D01*
X70971023Y-82676086D01*
X71023113Y-82986569D01*
X71158148Y-83274784D01*
X71266502Y-83411936D01*
X71394595Y-83456068D01*
X71596763Y-83416294D01*
X71732860Y-83371197D01*
X72075349Y-83311369D01*
X72338409Y-83400419D01*
X72526223Y-83639973D01*
X72547817Y-83688157D01*
X72673278Y-84187941D01*
X72629662Y-84681415D01*
X72417132Y-85167949D01*
X72050447Y-85631929D01*
X71833701Y-85874676D01*
X71729110Y-86031181D01*
X71735375Y-86090209D01*
X71851196Y-86040526D01*
G37*
X71851196Y-86040526D02*
X72075274Y-85870893D01*
X72077831Y-85868743D01*
X72437819Y-85470983D01*
X72686474Y-84997292D01*
X72811669Y-84488011D01*
X72801277Y-83983477D01*
X72727658Y-83707075D01*
X72644724Y-83421284D01*
X72604467Y-83152880D01*
X72604101Y-83083667D01*
X72596473Y-82856622D01*
X72561484Y-82702628D01*
X72577591Y-82613887D01*
X72699410Y-82480671D01*
X72941263Y-82290128D01*
X73294852Y-82044575D01*
X73763901Y-81698551D01*
X74118081Y-81371464D01*
X74346058Y-81076750D01*
X74436500Y-80827844D01*
X74421238Y-80709150D01*
X74301435Y-80605696D01*
X74087009Y-80599821D01*
X73818442Y-80687025D01*
X73624854Y-80797667D01*
X73399132Y-80928653D01*
X73207165Y-81002971D01*
X73160700Y-81009333D01*
X73059658Y-80989898D01*
X73071877Y-80900486D01*
X73114770Y-80818833D01*
X73170043Y-80621781D01*
X73205244Y-80272986D01*
X73218834Y-79789023D01*
X73218891Y-79697000D01*
X73213077Y-79261723D01*
X73192041Y-78938566D01*
X73146109Y-78670406D01*
X73065603Y-78400119D01*
X72945304Y-78081818D01*
X72776477Y-77709692D01*
X72579295Y-77357938D01*
X72374957Y-77056152D01*
X72184659Y-76833928D01*
X72029599Y-76720862D01*
X71967002Y-76715933D01*
X71910540Y-76820154D01*
X71893490Y-77067892D01*
X71898826Y-77209801D01*
X71889973Y-77709408D01*
X71816684Y-78254232D01*
X71691637Y-78786583D01*
X71527505Y-79248766D01*
X71395532Y-79500607D01*
X71220705Y-79748958D01*
X71101192Y-79847542D01*
X71020025Y-79799721D01*
X70960237Y-79608862D01*
X70955922Y-79587776D01*
X70833616Y-79352446D01*
X70694241Y-79250646D01*
X70553207Y-79167334D01*
X70524484Y-79058167D01*
X70572612Y-78889056D01*
X70629815Y-78583645D01*
X70635422Y-78189347D01*
X70596604Y-77754190D01*
X70520535Y-77326202D01*
X70414388Y-76953411D01*
X70285335Y-76683845D01*
X70233809Y-76620476D01*
X70093581Y-76402140D01*
X69962478Y-76057781D01*
X69852193Y-75630687D01*
X69774419Y-75164149D01*
X69744142Y-74807500D01*
X69737700Y-74498408D01*
X69746905Y-74267183D01*
X69769726Y-74154548D01*
X69776915Y-74149687D01*
X69882176Y-74137530D01*
X70116167Y-74106079D01*
X70440079Y-74060644D01*
X70685667Y-74025372D01*
X71180522Y-73954612D01*
X71532142Y-73911917D01*
X71764992Y-73901901D01*
X71903537Y-73929176D01*
X71972243Y-73998355D01*
X71995576Y-74114053D01*
X71998000Y-74272822D01*
X72019279Y-74567971D01*
X72072141Y-74834083D01*
X72089692Y-74886655D01*
X72147877Y-75124884D01*
X72179545Y-75423706D01*
X72181474Y-75506000D01*
X72182094Y-75659966D01*
X72197741Y-75778602D01*
X72249222Y-75883560D01*
X72357346Y-75996492D01*
X72542919Y-76139052D01*
X72826750Y-76332890D01*
X72969394Y-76427340D01*
X73183333Y-76427340D01*
X73235499Y-76381437D01*
X73268000Y-76395000D01*
X73349506Y-76507159D01*
X73352667Y-76531994D01*
X73300501Y-76577897D01*
X73268000Y-76564333D01*
X73186494Y-76452174D01*
X73183333Y-76427340D01*
X72969394Y-76427340D01*
X73229645Y-76599661D01*
X73237382Y-76604778D01*
X73412698Y-76733667D01*
X74114667Y-76733667D01*
X74157000Y-76691333D01*
X74199333Y-76733667D01*
X76316000Y-76733667D01*
X76358333Y-76691333D01*
X76400667Y-76733667D01*
X76358333Y-76776000D01*
X76316000Y-76733667D01*
X74199333Y-76733667D01*
X74157000Y-76776000D01*
X74114667Y-76733667D01*
X73412698Y-76733667D01*
X73499583Y-76797543D01*
X73574711Y-76866179D01*
X74050758Y-76866179D01*
X74062340Y-76860667D01*
X74139605Y-76920270D01*
X74157000Y-76945333D01*
X76443000Y-76945333D01*
X76449713Y-76867315D01*
X76480336Y-76860667D01*
X76566554Y-76922127D01*
X76570000Y-76945333D01*
X76541113Y-77027799D01*
X76532663Y-77030000D01*
X76460377Y-76970671D01*
X76443000Y-76945333D01*
X74157000Y-76945333D01*
X74178575Y-77024488D01*
X74166993Y-77030000D01*
X74089728Y-76970397D01*
X74072333Y-76945333D01*
X74050758Y-76866179D01*
X73574711Y-76866179D01*
X73701262Y-76981792D01*
X73801528Y-77119804D01*
X73803831Y-77127284D01*
X73877873Y-77241667D01*
X76400667Y-77241667D01*
X76443000Y-77199333D01*
X76485333Y-77241667D01*
X76443000Y-77284000D01*
X76400667Y-77241667D01*
X73877873Y-77241667D01*
X73888265Y-77257720D01*
X73976521Y-77257660D01*
X74098886Y-77270820D01*
X74341824Y-77341701D01*
X74576088Y-77425111D01*
X76344222Y-77425111D01*
X76355844Y-77374777D01*
X76400667Y-77368667D01*
X76470357Y-77399645D01*
X76457111Y-77425111D01*
X76401125Y-77430757D01*
X77247333Y-77430757D01*
X77247333Y-74401100D01*
X77501333Y-74350300D01*
X77702425Y-74285953D01*
X77741590Y-74196065D01*
X77628333Y-74066667D01*
X77521899Y-73944446D01*
X77501333Y-73886967D01*
X77570061Y-73821003D01*
X77628333Y-73812667D01*
X77742031Y-73769120D01*
X77725160Y-73664452D01*
X77586000Y-73539018D01*
X77445959Y-73434693D01*
X77450085Y-73378896D01*
X77606733Y-73365195D01*
X77797667Y-73376082D01*
X78178667Y-73406384D01*
X78178667Y-74739507D01*
X78283031Y-74739507D01*
X78299596Y-74691744D01*
X78392222Y-74651988D01*
X78690061Y-74584780D01*
X78895758Y-74654472D01*
X78932575Y-74691917D01*
X78972370Y-74786280D01*
X78873136Y-74846984D01*
X78814205Y-74863300D01*
X78574651Y-74867750D01*
X78411651Y-74817420D01*
X78283031Y-74739507D01*
X78178667Y-74739507D01*
X78178667Y-74824185D01*
X78177025Y-75082667D01*
X78348000Y-75082667D01*
X78423335Y-75032224D01*
X78612815Y-75005394D01*
X78707833Y-75003951D01*
X78914907Y-75014497D01*
X78968189Y-75040784D01*
X78898333Y-75082667D01*
X78681021Y-75145639D01*
X78482475Y-75156579D01*
X78361517Y-75115486D01*
X78348000Y-75082667D01*
X78177025Y-75082667D01*
X78175195Y-75370595D01*
X78165636Y-75926448D01*
X78151276Y-76440084D01*
X78133401Y-76859844D01*
X78124342Y-77007318D01*
X78070017Y-77772649D01*
X77247333Y-77430757D01*
X76401125Y-77430757D01*
X76356631Y-77435244D01*
X76344222Y-77425111D01*
X74576088Y-77425111D01*
X74671280Y-77459004D01*
X74679919Y-77462452D01*
X75233711Y-77462452D01*
X75357122Y-77489232D01*
X75377340Y-77495667D01*
X75977333Y-77495667D01*
X76019667Y-77453333D01*
X76062000Y-77495667D01*
X76047889Y-77509778D01*
X76682889Y-77509778D01*
X76694511Y-77459444D01*
X76739333Y-77453333D01*
X76809023Y-77484312D01*
X76795778Y-77509778D01*
X76695298Y-77519911D01*
X76682889Y-77509778D01*
X76047889Y-77509778D01*
X76019667Y-77538000D01*
X75977333Y-77495667D01*
X75377340Y-77495667D01*
X75590281Y-77563441D01*
X75637037Y-77579759D01*
X75638998Y-77580333D01*
X76231333Y-77580333D01*
X76273667Y-77538000D01*
X76316000Y-77580333D01*
X76908667Y-77580333D01*
X76951000Y-77538000D01*
X76993333Y-77580333D01*
X76951000Y-77622667D01*
X76908667Y-77580333D01*
X76316000Y-77580333D01*
X76273667Y-77622667D01*
X76231333Y-77580333D01*
X75638998Y-77580333D01*
X75868083Y-77647383D01*
X76031571Y-77670036D01*
X76065165Y-77663044D01*
X76121671Y-77671316D01*
X77090223Y-77671316D01*
X77110187Y-77627137D01*
X77157670Y-77622667D01*
X77272479Y-77684159D01*
X77289067Y-77706364D01*
X77275439Y-77754476D01*
X77209397Y-77739639D01*
X77090223Y-77671316D01*
X76121671Y-77671316D01*
X76166216Y-77677837D01*
X76184531Y-77700102D01*
X76194489Y-77800430D01*
X76127433Y-77818922D01*
X77448242Y-77818922D01*
X77501333Y-77799247D01*
X77682075Y-77839227D01*
X77755333Y-77876667D01*
X77821830Y-77940159D01*
X77760274Y-77948175D01*
X77602599Y-77900716D01*
X77543667Y-77876667D01*
X77448242Y-77818922D01*
X76127433Y-77818922D01*
X76084613Y-77830730D01*
X75892093Y-77784346D01*
X75839450Y-77761862D01*
X75586650Y-77647026D01*
X75384667Y-77557284D01*
X75237181Y-77484628D01*
X75233711Y-77462452D01*
X74679919Y-77462452D01*
X75053198Y-77611429D01*
X75091769Y-77627663D01*
X75472710Y-77786193D01*
X75798914Y-77917153D01*
X76037939Y-78007858D01*
X76157341Y-78045622D01*
X76161668Y-78046000D01*
X76279756Y-78077306D01*
X76347347Y-78102445D01*
X78122222Y-78102445D01*
X78133844Y-78052110D01*
X78178667Y-78046000D01*
X78248357Y-78076978D01*
X78235111Y-78102445D01*
X78134631Y-78112578D01*
X78122222Y-78102445D01*
X76347347Y-78102445D01*
X76495672Y-78157611D01*
X76566865Y-78187111D01*
X77021555Y-78187111D01*
X77033178Y-78136777D01*
X77078000Y-78130667D01*
X77147690Y-78161645D01*
X77134444Y-78187111D01*
X77057347Y-78194886D01*
X78390333Y-78194886D01*
X78390514Y-78156002D01*
X78497402Y-78168414D01*
X78660863Y-78219580D01*
X78830767Y-78296955D01*
X78856000Y-78311405D01*
X78890358Y-78352729D01*
X78767032Y-78340383D01*
X78729000Y-78332565D01*
X78519821Y-78267656D01*
X78390333Y-78194886D01*
X77057347Y-78194886D01*
X77033965Y-78197244D01*
X77021555Y-78187111D01*
X76566865Y-78187111D01*
X76660138Y-78225760D01*
X76734307Y-78257667D01*
X77332000Y-78257667D01*
X77374333Y-78215333D01*
X77416667Y-78257667D01*
X77374333Y-78300000D01*
X77332000Y-78257667D01*
X76734307Y-78257667D01*
X76931119Y-78342333D01*
X77501333Y-78342333D01*
X77543667Y-78300000D01*
X77586000Y-78342333D01*
X77543667Y-78384667D01*
X77501333Y-78342333D01*
X76931119Y-78342333D01*
X77078000Y-78405519D01*
X77078000Y-80160319D01*
X77075309Y-80737922D01*
X77067818Y-81303122D01*
X77056396Y-81817373D01*
X77041912Y-82242130D01*
X77025236Y-82538847D01*
X77023989Y-82554069D01*
X76969978Y-83193020D01*
X76480614Y-83404170D01*
X76132396Y-83585411D01*
X75892898Y-83795765D01*
X75775471Y-83957136D01*
X75637080Y-84253346D01*
X75517744Y-84642255D01*
X75435782Y-85048204D01*
X75409516Y-85395536D01*
X75412849Y-85454584D01*
X75350362Y-85599221D01*
X75132654Y-85765551D01*
X75022597Y-85828023D01*
X74793890Y-85968391D01*
X74714397Y-86053763D01*
X74770908Y-86077014D01*
X74950209Y-86031016D01*
X75203418Y-85925564D01*
X75596333Y-85741516D01*
X75619583Y-85174591D01*
X75679881Y-84637349D01*
X75823670Y-84223858D01*
X76070358Y-83901131D01*
X76439354Y-83636180D01*
X76563901Y-83569544D01*
X76834110Y-83430619D01*
X77037895Y-83322402D01*
X77134756Y-83266445D01*
X77136962Y-83264594D01*
X77146207Y-83175816D01*
X77157935Y-82939541D01*
X77171418Y-82577574D01*
X77185926Y-82111720D01*
X77200730Y-81563785D01*
X77215102Y-80955573D01*
X77216890Y-80873717D01*
X77230549Y-80260187D01*
X77243652Y-79704902D01*
X77255627Y-79229494D01*
X77265906Y-78855598D01*
X77273918Y-78604848D01*
X77279093Y-78498876D01*
X77279538Y-78496847D01*
X77356292Y-78519027D01*
X77541205Y-78591877D01*
X77551736Y-78596333D01*
X78094000Y-78596333D01*
X78136333Y-78554000D01*
X78178667Y-78596333D01*
X78136333Y-78638667D01*
X78094000Y-78596333D01*
X77551736Y-78596333D01*
X77702672Y-78660193D01*
X78114260Y-78838358D01*
X78114043Y-78850333D01*
X79025333Y-78850333D01*
X79067667Y-78808000D01*
X79110000Y-78850333D01*
X79067667Y-78892667D01*
X79025333Y-78850333D01*
X78114043Y-78850333D01*
X78091502Y-80094104D01*
X78244006Y-80094104D01*
X78246025Y-79767273D01*
X78248856Y-79697197D01*
X78270108Y-79393613D01*
X78300957Y-79169019D01*
X78335366Y-79064788D01*
X78341567Y-79062000D01*
X78441083Y-79118351D01*
X78557201Y-79228609D01*
X78683895Y-79328230D01*
X78821808Y-79327187D01*
X79005471Y-79215170D01*
X79215833Y-79031981D01*
X79408450Y-78765633D01*
X79448667Y-78568469D01*
X79427600Y-78410728D01*
X79337716Y-78298736D01*
X79138992Y-78190927D01*
X79046500Y-78150785D01*
X78772746Y-78039433D01*
X78534821Y-77950015D01*
X78453833Y-77922987D01*
X78381538Y-77895230D01*
X78330322Y-77845563D01*
X78296553Y-77747981D01*
X78276602Y-77576479D01*
X78266836Y-77305052D01*
X78263625Y-76907695D01*
X78263333Y-76558628D01*
X78263333Y-75252000D01*
X78718728Y-75252000D01*
X78985402Y-75258875D01*
X79135862Y-75296715D01*
X79223145Y-75391346D01*
X79283877Y-75527167D01*
X79383379Y-75745074D01*
X79534281Y-76041091D01*
X79686555Y-76319979D01*
X79953128Y-76713252D01*
X80271365Y-77015354D01*
X80681011Y-77256213D01*
X81197279Y-77457642D01*
X81734667Y-77636473D01*
X81734667Y-77782975D01*
X81894311Y-77782975D01*
X81927903Y-77707399D01*
X81929455Y-77707333D01*
X82017678Y-77724536D01*
X82232940Y-77770650D01*
X82537074Y-77837432D01*
X82712622Y-77876463D01*
X83146394Y-77957704D01*
X83663382Y-78031437D01*
X84177517Y-78086072D01*
X84380500Y-78101066D01*
X84401586Y-78102445D01*
X85488222Y-78102445D01*
X85499844Y-78052110D01*
X85544667Y-78046000D01*
X85614357Y-78076978D01*
X85601111Y-78102445D01*
X85500631Y-78112578D01*
X85488222Y-78102445D01*
X84401586Y-78102445D01*
X84800007Y-78128501D01*
X85074644Y-78162267D01*
X85228427Y-78220963D01*
X85285374Y-78323191D01*
X85269504Y-78487550D01*
X85204832Y-78732641D01*
X85203268Y-78738269D01*
X85125595Y-78927478D01*
X85000104Y-79048975D01*
X84800686Y-79108283D01*
X84501232Y-79110927D01*
X84075634Y-79062432D01*
X83841844Y-79026343D01*
X83197084Y-78907654D01*
X82674742Y-78781377D01*
X82289650Y-78651804D01*
X82056639Y-78523225D01*
X82034936Y-78503508D01*
X81974441Y-78380725D01*
X81925535Y-78179680D01*
X81896174Y-77960416D01*
X81894311Y-77782975D01*
X81734667Y-77782975D01*
X81734667Y-77999152D01*
X81797897Y-78382745D01*
X81907952Y-78582128D01*
X82081238Y-78802425D01*
X81770612Y-78932213D01*
X81490330Y-79007139D01*
X81105251Y-79053320D01*
X80814160Y-79063860D01*
X80341772Y-79088622D01*
X79973300Y-79166561D01*
X79787333Y-79238448D01*
X79426213Y-79435155D01*
X79167043Y-79644189D01*
X79036059Y-79842510D01*
X79025333Y-79907744D01*
X78954727Y-80021831D01*
X78781951Y-80153751D01*
X78651859Y-80222478D01*
X79110000Y-80222478D01*
X79147976Y-79931160D01*
X79279004Y-79700550D01*
X79528732Y-79500377D01*
X79872000Y-79323115D01*
X80369652Y-79179596D01*
X80898562Y-79166935D01*
X81171477Y-79232294D01*
X81523000Y-79232294D01*
X81777000Y-79112640D01*
X81964631Y-79042043D01*
X82078328Y-79031230D01*
X82079995Y-79082204D01*
X82066104Y-79097451D01*
X81966068Y-79137216D01*
X81776826Y-79182599D01*
X81523000Y-79232294D01*
X81171477Y-79232294D01*
X81394223Y-79285638D01*
X81452899Y-79310765D01*
X81787484Y-79511833D01*
X82063360Y-79511833D01*
X82110810Y-79291773D01*
X82205768Y-79071781D01*
X82324646Y-78903598D01*
X82443853Y-78838965D01*
X82468258Y-78843961D01*
X82611461Y-78889000D01*
X82857611Y-78957855D01*
X83070889Y-79014189D01*
X83430456Y-79092117D01*
X83849162Y-79162029D01*
X84126500Y-79196827D01*
X84698000Y-79254718D01*
X84698000Y-79809116D01*
X84721599Y-80215014D01*
X84782129Y-80657478D01*
X84833380Y-80903330D01*
X84903024Y-81199763D01*
X84926427Y-81381280D01*
X84903589Y-81495861D01*
X84834512Y-81591488D01*
X84833380Y-81592740D01*
X84725358Y-81768565D01*
X84698000Y-81883834D01*
X84654689Y-82005489D01*
X84609768Y-82025333D01*
X84511611Y-81986953D01*
X84297417Y-81883125D01*
X83999071Y-81730822D01*
X83648460Y-81547012D01*
X83277470Y-81348668D01*
X82917986Y-81152761D01*
X82601893Y-80976260D01*
X82361078Y-80836137D01*
X82276406Y-80783425D01*
X82168651Y-80685191D01*
X82126306Y-80541740D01*
X82134314Y-80296010D01*
X82137825Y-80258179D01*
X82143294Y-79978841D01*
X82111557Y-79747113D01*
X82087008Y-79680218D01*
X82063360Y-79511833D01*
X81787484Y-79511833D01*
X81797863Y-79518070D01*
X81992236Y-79774095D01*
X82053905Y-80110562D01*
X82037038Y-80346726D01*
X81914967Y-80868642D01*
X81683813Y-81305459D01*
X81454579Y-81580833D01*
X81311967Y-81743630D01*
X81263740Y-81818524D01*
X81383071Y-81818524D01*
X81456147Y-81730570D01*
X81540201Y-81655381D01*
X81745547Y-81429854D01*
X81900359Y-81173566D01*
X81917043Y-81132144D01*
X81993402Y-80941958D01*
X82047677Y-80843694D01*
X82053973Y-80840000D01*
X82135530Y-80877906D01*
X82339339Y-80982315D01*
X82638656Y-81139266D01*
X83006740Y-81334800D01*
X83201131Y-81438872D01*
X83601133Y-81656430D01*
X83952036Y-81852688D01*
X84224568Y-82010863D01*
X84389452Y-82114169D01*
X84420311Y-82137873D01*
X84483533Y-82292621D01*
X84475201Y-82423165D01*
X84436746Y-82519946D01*
X84359232Y-82589079D01*
X84209365Y-82643185D01*
X83953850Y-82694885D01*
X83618500Y-82747910D01*
X83393938Y-82774983D01*
X83289917Y-82750743D01*
X83260160Y-82652954D01*
X83258667Y-82575006D01*
X83178830Y-82223620D01*
X82954402Y-81928346D01*
X82608003Y-81718584D01*
X82596205Y-81714013D01*
X82308857Y-81634611D01*
X82026127Y-81635216D01*
X81692080Y-81720817D01*
X81438333Y-81817261D01*
X81383071Y-81818524D01*
X81263740Y-81818524D01*
X81248393Y-81842357D01*
X81254343Y-81856000D01*
X81257401Y-81915997D01*
X81180868Y-82061027D01*
X81176547Y-82067667D01*
X81026504Y-82220807D01*
X80878262Y-82279333D01*
X80740058Y-82243335D01*
X80744465Y-82152171D01*
X80885071Y-82031091D01*
X80950760Y-81993802D01*
X81082322Y-81921036D01*
X81092727Y-81891934D01*
X80964271Y-81897551D01*
X80796342Y-81915761D01*
X80342158Y-81887817D01*
X79925919Y-81715088D01*
X79571490Y-81421539D01*
X79302735Y-81031131D01*
X79143520Y-80567829D01*
X79110000Y-80222478D01*
X78651859Y-80222478D01*
X78565572Y-80268063D01*
X78364153Y-80329324D01*
X78323961Y-80332197D01*
X78269222Y-80275965D01*
X78244006Y-80094104D01*
X78091502Y-80094104D01*
X78081728Y-80633381D01*
X78197825Y-80633381D01*
X78240731Y-80576756D01*
X78399363Y-80481471D01*
X78525893Y-80420031D01*
X78765661Y-80311827D01*
X78889082Y-80263197D01*
X78934631Y-80265122D01*
X78940780Y-80308583D01*
X78940667Y-80322807D01*
X78869647Y-80395807D01*
X78697903Y-80489290D01*
X78487402Y-80577350D01*
X78300113Y-80634076D01*
X78198007Y-80633560D01*
X78197825Y-80633381D01*
X78081728Y-80633381D01*
X78074225Y-81047332D01*
X78197723Y-81047332D01*
X78222006Y-80878052D01*
X78356834Y-80758965D01*
X78454423Y-80711979D01*
X78754066Y-80608153D01*
X78942713Y-80612374D01*
X79040964Y-80726131D01*
X79049758Y-80754925D01*
X79045870Y-80873198D01*
X78941893Y-80976189D01*
X78710204Y-81093592D01*
X78443986Y-81207491D01*
X78295234Y-81248583D01*
X78226985Y-81213531D01*
X78202278Y-81098999D01*
X78197723Y-81047332D01*
X78074225Y-81047332D01*
X78060907Y-81782127D01*
X78178667Y-81782127D01*
X78190234Y-81583963D01*
X78251671Y-81459701D01*
X78403084Y-81358960D01*
X78580833Y-81276889D01*
X78873926Y-81155398D01*
X79059046Y-81107388D01*
X79179078Y-81129429D01*
X79276907Y-81218088D01*
X79279333Y-81221000D01*
X79340563Y-81323186D01*
X79282645Y-81348000D01*
X79210803Y-81393895D01*
X79236025Y-81486333D01*
X79330539Y-81557447D01*
X79371289Y-81564632D01*
X79515511Y-81610364D01*
X79726060Y-81717969D01*
X79787333Y-81754886D01*
X80054521Y-81891362D01*
X80323708Y-81984608D01*
X80358833Y-81992177D01*
X80566591Y-82068933D01*
X80621484Y-82197653D01*
X80523960Y-82387222D01*
X80386513Y-82539846D01*
X80080911Y-82741373D01*
X79736581Y-82780221D01*
X79364416Y-82655612D01*
X79298389Y-82617645D01*
X79034791Y-82372194D01*
X78884178Y-82053751D01*
X78858662Y-81711085D01*
X78970351Y-81392963D01*
X78987801Y-81366839D01*
X79075883Y-81215972D01*
X79051561Y-81188843D01*
X78924522Y-81291852D01*
X78904381Y-81311714D01*
X78806042Y-81492121D01*
X78771333Y-81694810D01*
X78728816Y-81902567D01*
X78573902Y-82019617D01*
X78554155Y-82027429D01*
X78329858Y-82096630D01*
X78218343Y-82064386D01*
X78181275Y-81905652D01*
X78178667Y-81782127D01*
X78060907Y-81782127D01*
X78053538Y-82188679D01*
X78048694Y-82431848D01*
X78223038Y-82431848D01*
X78228045Y-82363534D01*
X78350038Y-82289048D01*
X78615636Y-82208337D01*
X78752573Y-82228294D01*
X78771333Y-82279333D01*
X78826092Y-82394503D01*
X78953203Y-82545870D01*
X79072941Y-82698764D01*
X79067994Y-82827769D01*
X79041475Y-82876582D01*
X79321667Y-82876582D01*
X79685704Y-82874291D01*
X80093550Y-82815458D01*
X80443180Y-82659822D01*
X80625190Y-82501615D01*
X80770469Y-82410511D01*
X80897038Y-82464741D01*
X80967837Y-82641303D01*
X80972667Y-82717291D01*
X80990112Y-82843171D01*
X81074485Y-82843171D01*
X81080066Y-82621882D01*
X81083398Y-82596108D01*
X81211092Y-82221959D01*
X81464825Y-81932912D01*
X81772335Y-81777114D01*
X82038461Y-81710903D01*
X82232042Y-81706733D01*
X82439237Y-81767607D01*
X82527504Y-81803407D01*
X82843894Y-82005056D01*
X83070671Y-82286605D01*
X83171626Y-82600584D01*
X83173683Y-82650585D01*
X83096947Y-83002267D01*
X82893494Y-83330297D01*
X82602225Y-83575728D01*
X82542515Y-83607042D01*
X82182787Y-83690714D01*
X81813584Y-83615392D01*
X81458547Y-83388146D01*
X81309858Y-83238384D01*
X81142084Y-83023151D01*
X81074485Y-82843171D01*
X80990112Y-82843171D01*
X81012295Y-83003238D01*
X81149701Y-83245598D01*
X81412667Y-83488533D01*
X81497771Y-83551990D01*
X81884783Y-83745992D01*
X82274506Y-83788626D01*
X82635647Y-83686280D01*
X82936913Y-83445335D01*
X83079883Y-83229191D01*
X83205591Y-83019014D01*
X83346890Y-82909112D01*
X83572346Y-82852648D01*
X83647021Y-82841787D01*
X84016722Y-82798355D01*
X84253162Y-82793820D01*
X84388939Y-82832940D01*
X84456647Y-82920470D01*
X84469891Y-82961865D01*
X84448380Y-83142561D01*
X84280703Y-83345513D01*
X84268099Y-83356860D01*
X84108840Y-83522242D01*
X84024635Y-83655472D01*
X84020667Y-83676738D01*
X83951856Y-83782337D01*
X83816343Y-83869249D01*
X83639125Y-84004120D01*
X83556638Y-84136839D01*
X83445798Y-84276248D01*
X83257958Y-84311333D01*
X83061722Y-84341967D01*
X82954932Y-84407976D01*
X82861016Y-84452262D01*
X82639863Y-84470595D01*
X82275781Y-84463639D01*
X81997435Y-84448561D01*
X81376230Y-84395915D01*
X80883874Y-84318997D01*
X80480541Y-84208419D01*
X80126402Y-84054795D01*
X79978485Y-83972667D01*
X79740537Y-83818212D01*
X79630991Y-83715112D01*
X79657022Y-83673821D01*
X79787333Y-83694135D01*
X79927706Y-83691693D01*
X79952709Y-83595219D01*
X79868976Y-83428105D01*
X79683142Y-83213742D01*
X79639167Y-83171764D01*
X79321667Y-82876582D01*
X79041475Y-82876582D01*
X79037153Y-82884537D01*
X78985987Y-83013711D01*
X79029612Y-83041333D01*
X79080434Y-83093348D01*
X79066813Y-83127381D01*
X78968759Y-83178400D01*
X78940250Y-83168076D01*
X78888133Y-83215968D01*
X78851554Y-83337667D01*
X79448667Y-83337667D01*
X79491000Y-83295333D01*
X79533333Y-83337667D01*
X79491000Y-83380000D01*
X79448667Y-83337667D01*
X78851554Y-83337667D01*
X78836315Y-83388366D01*
X78812780Y-83526528D01*
X78763257Y-83854205D01*
X78715619Y-84042453D01*
X78657654Y-84120588D01*
X78577149Y-84117927D01*
X78567822Y-84114512D01*
X78495445Y-84122294D01*
X78472970Y-84242700D01*
X78483698Y-84423228D01*
X78499341Y-84625513D01*
X78489800Y-84672426D01*
X78450598Y-84576658D01*
X78440351Y-84546163D01*
X78405769Y-84366570D01*
X78373191Y-84064852D01*
X78346979Y-83688201D01*
X78334689Y-83403163D01*
X78315588Y-83025436D01*
X78286458Y-82712325D01*
X78251620Y-82501409D01*
X78223038Y-82431848D01*
X78048694Y-82431848D01*
X78038851Y-82925875D01*
X78022673Y-83609744D01*
X78005631Y-84221861D01*
X77988353Y-84743804D01*
X77971466Y-85157148D01*
X77963152Y-85307174D01*
X78390333Y-85307174D01*
X78602000Y-85371010D01*
X78801124Y-85467710D01*
X79033451Y-85628871D01*
X79091779Y-85677423D01*
X79283494Y-85826797D01*
X79432779Y-85912227D01*
X79465724Y-85920000D01*
X79523698Y-85951117D01*
X79512362Y-85969193D01*
X79409878Y-85971507D01*
X79275817Y-85918118D01*
X79116376Y-85861121D01*
X79018408Y-85919471D01*
X79009020Y-85932425D01*
X78961737Y-85974717D01*
X78980737Y-85865186D01*
X78983159Y-85856500D01*
X78995665Y-85710468D01*
X78896968Y-85652653D01*
X78771333Y-85646136D01*
X78687358Y-85592967D01*
X78559667Y-85476749D01*
X78390333Y-85307174D01*
X77963152Y-85307174D01*
X77955597Y-85443471D01*
X77954501Y-85454333D01*
X78178667Y-85454333D01*
X78221000Y-85412000D01*
X78263333Y-85454333D01*
X78221000Y-85496667D01*
X78178667Y-85454333D01*
X77954501Y-85454333D01*
X77941373Y-85584348D01*
X77937575Y-85595441D01*
X77836772Y-85663748D01*
X77636233Y-85779416D01*
X77467556Y-85870607D01*
X77268992Y-85987052D01*
X77176278Y-86066389D01*
X77196782Y-86089333D01*
X77355600Y-86049225D01*
X77584165Y-85948412D01*
X77676520Y-85898834D01*
X77903569Y-85786144D01*
X78043187Y-85784363D01*
X78146975Y-85907739D01*
X78213178Y-86047000D01*
X78274018Y-86070229D01*
X78348043Y-85990255D01*
X78396884Y-85865170D01*
X78393142Y-85774545D01*
X78416358Y-85642708D01*
X78447739Y-85614352D01*
X78508056Y-85634870D01*
X78503651Y-85805505D01*
X78486847Y-85920000D01*
X78686667Y-85920000D01*
X78717645Y-85850310D01*
X78743111Y-85863556D01*
X78753244Y-85964035D01*
X78743111Y-85976445D01*
X78692777Y-85964822D01*
X78686667Y-85920000D01*
X78486847Y-85920000D01*
X78467219Y-86053730D01*
X79386003Y-86063608D01*
X80304787Y-86073487D01*
X79813227Y-85831952D01*
X79384978Y-85601091D01*
X79094089Y-85386649D01*
X78914542Y-85160536D01*
X78820319Y-84894662D01*
X78796716Y-84734492D01*
X78827468Y-84357213D01*
X78915569Y-84169548D01*
X79026218Y-83919178D01*
X79067667Y-83679694D01*
X79104528Y-83476575D01*
X79194667Y-83422333D01*
X79296810Y-83495934D01*
X79321667Y-83634000D01*
X79363492Y-83800075D01*
X79517273Y-83910413D01*
X79604861Y-83944283D01*
X79858730Y-84062990D01*
X80070527Y-84209403D01*
X80204106Y-84306730D01*
X80383201Y-84385216D01*
X80630990Y-84449133D01*
X80970649Y-84502753D01*
X81425354Y-84550346D01*
X82018282Y-84596184D01*
X82255724Y-84612144D01*
X82669232Y-84628055D01*
X82935913Y-84612895D01*
X83043888Y-84570369D01*
X83160960Y-84505371D01*
X83345351Y-84480667D01*
X83532012Y-84433563D01*
X83677946Y-84322106D01*
X83739195Y-84191080D01*
X83707831Y-84111387D01*
X83742586Y-84061647D01*
X83897632Y-84010252D01*
X83922477Y-84005005D01*
X84127220Y-83923430D01*
X84192482Y-83813917D01*
X84250953Y-83649951D01*
X84391090Y-83460197D01*
X84567328Y-83290582D01*
X84734100Y-83187037D01*
X84822343Y-83179030D01*
X84935326Y-83190859D01*
X84939218Y-83117351D01*
X84845349Y-82992214D01*
X84725320Y-82890332D01*
X84498641Y-82725208D01*
X84683967Y-82411104D01*
X84787579Y-82201763D01*
X84827386Y-82049585D01*
X84821291Y-82019332D01*
X84835368Y-81907581D01*
X84929503Y-81724797D01*
X84969008Y-81665998D01*
X85142712Y-81371254D01*
X85183820Y-81149250D01*
X85096671Y-80973112D01*
X85083148Y-80959053D01*
X84972928Y-80807586D01*
X84962029Y-80697563D01*
X85018698Y-80670667D01*
X85118383Y-80722418D01*
X85216057Y-80797667D01*
X85629333Y-80797667D01*
X85671667Y-80755333D01*
X85714000Y-80797667D01*
X85671667Y-80840000D01*
X85629333Y-80797667D01*
X85216057Y-80797667D01*
X85286148Y-80851665D01*
X85345799Y-80903500D01*
X85545045Y-81150985D01*
X85643962Y-81348000D01*
X85883333Y-81348000D01*
X85914311Y-81278310D01*
X85939778Y-81291556D01*
X85949911Y-81392035D01*
X85939778Y-81404445D01*
X85889443Y-81392822D01*
X85883333Y-81348000D01*
X85643962Y-81348000D01*
X85740008Y-81539293D01*
X85862020Y-81856000D01*
X86082945Y-82485376D01*
X86230406Y-82923320D01*
X86498896Y-82923320D01*
X86550468Y-82802516D01*
X86630449Y-82743742D01*
X86654205Y-82750483D01*
X86728594Y-82864904D01*
X86730000Y-82881994D01*
X86677834Y-82927897D01*
X86645333Y-82914333D01*
X86568285Y-82927591D01*
X86560667Y-82965781D01*
X86534087Y-83034245D01*
X86516340Y-83025229D01*
X86498896Y-82923320D01*
X86230406Y-82923320D01*
X86247763Y-82974867D01*
X86361680Y-83342432D01*
X86429898Y-83606033D01*
X86457624Y-83783627D01*
X86451190Y-83889063D01*
X86446576Y-84005554D01*
X86497348Y-84001806D01*
X86545187Y-84032023D01*
X86553746Y-84212126D01*
X86534678Y-84452103D01*
X86482500Y-84781259D01*
X86405890Y-85065552D01*
X86318073Y-85270739D01*
X86232272Y-85362577D01*
X86188021Y-85349800D01*
X86161015Y-85359112D01*
X86178975Y-85422002D01*
X86152746Y-85574010D01*
X86020000Y-85750024D01*
X86566213Y-85750024D01*
X86587237Y-85706179D01*
X86634533Y-85644833D01*
X86758114Y-85513204D01*
X86813276Y-85513776D01*
X86814667Y-85528633D01*
X86756807Y-85599308D01*
X86666500Y-85676800D01*
X86566213Y-85750024D01*
X86020000Y-85750024D01*
X85997702Y-85779589D01*
X85965325Y-85812188D01*
X85701083Y-86070534D01*
X86300208Y-86079653D01*
X86899333Y-86088773D01*
X86899333Y-84235445D01*
X86897750Y-83615503D01*
X86892123Y-83144847D01*
X86881139Y-82803452D01*
X86863484Y-82571292D01*
X86837844Y-82428342D01*
X86802904Y-82354578D01*
X86774572Y-82334242D01*
X86636268Y-82357465D01*
X86569256Y-82430311D01*
X86474955Y-82516740D01*
X86418850Y-82499870D01*
X86415442Y-82411946D01*
X86454833Y-82387687D01*
X86536265Y-82299429D01*
X86557940Y-82165035D01*
X86518726Y-82061213D01*
X86459862Y-82046500D01*
X86364930Y-81994130D01*
X86325719Y-81898333D01*
X86245050Y-81713609D01*
X86180752Y-81641016D01*
X86081244Y-81492593D01*
X86037717Y-81344682D01*
X85973279Y-81191189D01*
X85890031Y-81161653D01*
X85832473Y-81142984D01*
X85879912Y-81025274D01*
X85926314Y-80949986D01*
X86078880Y-80713000D01*
X85884120Y-80882333D01*
X85689360Y-81051667D01*
X85783054Y-80872885D01*
X85833100Y-80741199D01*
X85762818Y-80705470D01*
X85689541Y-80708625D01*
X85480002Y-80676129D01*
X85375333Y-80620982D01*
X85181616Y-80517279D01*
X85079972Y-80487935D01*
X84926093Y-80392880D01*
X84883195Y-80225884D01*
X84961095Y-80050798D01*
X85006293Y-80008706D01*
X85101082Y-79925378D01*
X85058884Y-79922427D01*
X85023825Y-79933758D01*
X84919565Y-79926105D01*
X84852579Y-79793378D01*
X84827865Y-79682497D01*
X84797600Y-79481817D01*
X84795142Y-79371746D01*
X84798374Y-79366222D01*
X84882751Y-79326436D01*
X85083811Y-79235659D01*
X85363261Y-79111134D01*
X85460000Y-79068296D01*
X85968806Y-78842494D01*
X86342532Y-78674074D01*
X86601437Y-78553012D01*
X86765780Y-78469284D01*
X86855820Y-78412865D01*
X86891814Y-78373730D01*
X86895863Y-78357795D01*
X86853784Y-78323280D01*
X86711179Y-78352244D01*
X86453215Y-78449683D01*
X86065057Y-78620593D01*
X85927211Y-78684062D01*
X85645520Y-78812600D01*
X85432901Y-78905678D01*
X85327113Y-78946878D01*
X85321868Y-78947295D01*
X85325564Y-78864955D01*
X85349485Y-78680824D01*
X85352690Y-78659525D01*
X85405465Y-78477077D01*
X85525863Y-78347223D01*
X85759560Y-78222732D01*
X85786889Y-78210540D01*
X86105922Y-78092965D01*
X86437432Y-78005393D01*
X86539234Y-77987674D01*
X86758864Y-77941095D01*
X86886368Y-77882169D01*
X86899333Y-77859453D01*
X86833386Y-77812149D01*
X86751167Y-77821511D01*
X86376714Y-77893800D01*
X85884100Y-77944626D01*
X85323326Y-77972427D01*
X84744389Y-77975640D01*
X84197289Y-77952701D01*
X83809000Y-77913489D01*
X83553996Y-77872457D01*
X83241267Y-77814086D01*
X82912772Y-77747335D01*
X82610473Y-77681161D01*
X82376329Y-77624520D01*
X82252299Y-77586371D01*
X82242667Y-77579121D01*
X82316582Y-77502321D01*
X82515096Y-77384229D01*
X82803363Y-77240574D01*
X83146535Y-77087078D01*
X83509765Y-76939468D01*
X83858207Y-76813468D01*
X84107660Y-76737516D01*
X84449188Y-76642960D01*
X84724876Y-76560700D01*
X84896477Y-76502458D01*
X84932960Y-76484596D01*
X84986713Y-76533129D01*
X85005431Y-76564333D01*
X85206000Y-76564333D01*
X85248333Y-76522000D01*
X85290667Y-76564333D01*
X85248333Y-76606667D01*
X85206000Y-76564333D01*
X85005431Y-76564333D01*
X85087859Y-76701739D01*
X85215712Y-76955456D01*
X85231612Y-76989414D01*
X85388090Y-77301876D01*
X85513001Y-77473698D01*
X85631838Y-77523669D01*
X85770096Y-77470579D01*
X85829363Y-77429979D01*
X85906373Y-77356455D01*
X85909751Y-77268033D01*
X85828490Y-77121299D01*
X85707637Y-76949986D01*
X85565977Y-76755441D01*
X85502213Y-76629524D01*
X85529261Y-76528677D01*
X85660035Y-76409338D01*
X85907450Y-76227948D01*
X85925667Y-76214596D01*
X86095000Y-76090287D01*
X85925667Y-75961273D01*
X85690225Y-75793970D01*
X85540001Y-75741580D01*
X85431123Y-75809425D01*
X85319720Y-76002829D01*
X85303088Y-76036805D01*
X85200036Y-76235481D01*
X85148756Y-76290235D01*
X85135374Y-76213235D01*
X85136017Y-76183333D01*
X85136634Y-75987703D01*
X85131001Y-75667168D01*
X85120251Y-75252409D01*
X85105517Y-74774111D01*
X85087934Y-74262956D01*
X85068635Y-73749627D01*
X85048752Y-73264807D01*
X85029420Y-72839178D01*
X85011771Y-72503425D01*
X84996940Y-72288229D01*
X84989995Y-72230356D01*
X84986210Y-72051231D01*
X85070452Y-72009885D01*
X85231233Y-72107094D01*
X85335884Y-72207011D01*
X85555386Y-72399072D01*
X85718485Y-72444253D01*
X85847889Y-72345393D01*
X85889978Y-72276251D01*
X85942473Y-72123793D01*
X85873480Y-72031623D01*
X85850138Y-72017772D01*
X85694001Y-71910524D01*
X85498056Y-71752491D01*
X85480681Y-71737377D01*
X85248333Y-71533711D01*
X85489267Y-71322878D01*
X85669341Y-71177085D01*
X85803110Y-71089060D01*
X85818002Y-71082777D01*
X85869785Y-70995674D01*
X85835153Y-70847275D01*
X85739436Y-70703512D01*
X85648018Y-70640308D01*
X85534111Y-70631641D01*
X85410994Y-70711420D01*
X85252484Y-70902437D01*
X85110835Y-71107930D01*
X84973336Y-71315000D01*
X84970933Y-71018667D01*
X84965245Y-70736707D01*
X84946752Y-70584461D01*
X84904549Y-70522320D01*
X84831077Y-70510667D01*
X84758208Y-70552349D01*
X84734251Y-70699662D01*
X84745234Y-70912833D01*
X84760342Y-71136132D01*
X84779068Y-71489021D01*
X84799530Y-71931845D01*
X84819847Y-72424951D01*
X84830594Y-72712000D01*
X84853382Y-73285800D01*
X84881306Y-73898814D01*
X84911290Y-74488297D01*
X84940260Y-74991501D01*
X84948876Y-75125000D01*
X84975232Y-75596706D01*
X84979944Y-75924191D01*
X84962266Y-76131270D01*
X84921451Y-76241762D01*
X84913568Y-76251180D01*
X84792960Y-76318962D01*
X84547538Y-76416167D01*
X84216065Y-76528454D01*
X83928630Y-76615579D01*
X83452182Y-76771680D01*
X82979987Y-76958491D01*
X82582024Y-77147589D01*
X82485516Y-77201730D01*
X81924032Y-77533661D01*
X81384849Y-77354646D01*
X81093473Y-77251274D01*
X80860681Y-77156660D01*
X80743004Y-77095080D01*
X80644653Y-76955603D01*
X80518397Y-76686290D01*
X80376525Y-76321798D01*
X80231324Y-75896783D01*
X80095084Y-75445904D01*
X79980093Y-75003818D01*
X79943361Y-74839862D01*
X79884257Y-74543856D01*
X79842034Y-74275577D01*
X79815201Y-74001489D01*
X79802264Y-73688056D01*
X79801730Y-73301742D01*
X79812106Y-72809011D01*
X79828853Y-72267500D01*
X79846750Y-71608554D01*
X79851892Y-71098975D01*
X79844355Y-70744068D01*
X79824215Y-70549136D01*
X79803452Y-70510667D01*
X79761239Y-70590639D01*
X79722580Y-70811803D01*
X79688848Y-71146034D01*
X79661417Y-71565204D01*
X79641661Y-72041186D01*
X79630951Y-72545855D01*
X79630662Y-73051083D01*
X79642167Y-73528744D01*
X79648859Y-73676956D01*
X79723820Y-74490094D01*
X79870471Y-75248299D01*
X80104687Y-76022051D01*
X80284960Y-76500833D01*
X80381683Y-76781711D01*
X80393009Y-76921840D01*
X80319876Y-76918823D01*
X80174418Y-76782724D01*
X79928614Y-76447898D01*
X79673344Y-75991363D01*
X79428743Y-75458137D01*
X79214944Y-74893239D01*
X79052080Y-74341685D01*
X79019181Y-74199640D01*
X78934380Y-73804226D01*
X78884860Y-73537991D01*
X78872147Y-73364176D01*
X78897767Y-73246026D01*
X78963247Y-73146782D01*
X79067667Y-73032330D01*
X79231829Y-72827487D01*
X79260587Y-72686788D01*
X79153155Y-72571658D01*
X79057165Y-72516336D01*
X78959720Y-72459629D01*
X78891332Y-72389094D01*
X78843420Y-72273603D01*
X78807404Y-72082031D01*
X78774706Y-71783253D01*
X78737685Y-71357333D01*
X78688725Y-70961243D01*
X78620919Y-70676779D01*
X78540806Y-70527481D01*
X78502449Y-70510667D01*
X78459178Y-70576817D01*
X78475000Y-70680000D01*
X78483097Y-70816351D01*
X78438372Y-70849333D01*
X78362510Y-70777297D01*
X78334199Y-70658833D01*
X78319434Y-70628783D01*
X78294937Y-70742448D01*
X78270699Y-70934000D01*
X78221000Y-71399667D01*
X77660051Y-71414729D01*
X77300186Y-71438206D01*
X76949086Y-71483371D01*
X76741559Y-71526067D01*
X76542256Y-71573820D01*
X76403230Y-71570049D01*
X76270755Y-71494025D01*
X76091102Y-71325018D01*
X76011341Y-71244329D01*
X75817202Y-71039918D01*
X75682398Y-70883664D01*
X75638667Y-70815491D01*
X75711879Y-70778167D01*
X75871500Y-70763370D01*
X76084407Y-70735096D01*
X76248585Y-70668640D01*
X76316000Y-70587858D01*
X76299633Y-70550744D01*
X76193491Y-70544874D01*
X76059528Y-70596656D01*
X75883577Y-70654101D01*
X75652869Y-70649962D01*
X75322762Y-70581961D01*
X75215333Y-70553591D01*
X75147119Y-70556284D01*
X75185675Y-70636054D01*
X75339040Y-70803401D01*
X75596333Y-71051121D01*
X76189000Y-71606226D01*
X75765667Y-71554911D01*
X75535783Y-71513071D01*
X75334922Y-71433303D01*
X75116654Y-71289733D01*
X74834548Y-71056490D01*
X74770300Y-71000254D01*
X74442601Y-70726020D01*
X74227483Y-70573460D01*
X74127003Y-70535962D01*
X74143217Y-70606912D01*
X74278183Y-70779694D01*
X74533957Y-71047695D01*
X74704410Y-71212149D01*
X75396710Y-71865333D01*
X74347976Y-71865333D01*
X73654041Y-71188000D01*
X73373241Y-70919433D01*
X73134353Y-70701241D01*
X72964162Y-70557216D01*
X72891565Y-70510667D01*
X72860778Y-70584451D01*
X72866313Y-70769168D01*
X72877179Y-70849333D01*
X72890229Y-71020762D01*
X73014000Y-71020762D01*
X73044642Y-70876795D01*
X73142238Y-70876876D01*
X73315297Y-71022008D01*
X73352353Y-71060666D01*
X73488114Y-71236902D01*
X73482946Y-71321953D01*
X73339199Y-71311393D01*
X73237409Y-71277131D01*
X73056452Y-71148003D01*
X73014000Y-71020762D01*
X72890229Y-71020762D01*
X72895537Y-71090478D01*
X72846229Y-71177376D01*
X72725754Y-71112486D01*
X72634205Y-71019999D01*
X72455214Y-70856904D01*
X72246905Y-70714113D01*
X72054483Y-70616564D01*
X71923154Y-70589196D01*
X71893816Y-70611551D01*
X71797227Y-70650818D01*
X71545809Y-70681456D01*
X71153903Y-70702262D01*
X70700552Y-70711519D01*
X70217344Y-70712814D01*
X69877378Y-70704612D01*
X69654710Y-70684491D01*
X69523397Y-70650032D01*
X69457496Y-70598815D01*
X69455169Y-70595333D01*
X69374406Y-70513887D01*
X69298915Y-70583747D01*
X69228307Y-70656773D01*
X69178600Y-70583747D01*
X69135884Y-70530065D01*
X69126017Y-70561156D01*
X69040189Y-70608097D01*
X68798849Y-70651259D01*
X68415810Y-70688654D01*
X68100183Y-70708777D01*
X67562595Y-70745252D01*
X67357068Y-70771887D01*
X71278333Y-70771887D01*
X71703480Y-70768277D01*
X71917203Y-70773837D01*
X72083855Y-70810013D01*
X72248139Y-70899622D01*
X72454757Y-71065484D01*
X72677147Y-71265280D01*
X73225667Y-71765893D01*
X72844667Y-71719283D01*
X72513764Y-71656811D01*
X72229509Y-71541808D01*
X71937095Y-71346184D01*
X71659333Y-71111756D01*
X71278333Y-70771887D01*
X67357068Y-70771887D01*
X67167568Y-70796445D01*
X66888346Y-70874659D01*
X66698175Y-70992198D01*
X66570299Y-71161364D01*
X66477964Y-71394463D01*
X66457264Y-71464286D01*
X66370233Y-71787957D01*
X66263140Y-72213312D01*
X66143770Y-72706414D01*
X66019907Y-73233322D01*
X65899338Y-73760096D01*
X65789848Y-74252798D01*
X65699221Y-74677487D01*
X65635244Y-75000224D01*
X65607838Y-75167333D01*
X65612731Y-75202641D01*
X65651725Y-75094195D01*
X65719375Y-74862893D01*
X65810236Y-74529631D01*
X65918860Y-74115306D01*
X66039803Y-73640816D01*
X66167618Y-73127056D01*
X66296859Y-72594925D01*
X66422079Y-72065319D01*
X66468007Y-71866767D01*
X66538927Y-71566023D01*
X66610825Y-71329847D01*
X66703712Y-71150456D01*
X66837604Y-71020069D01*
X67032514Y-70930905D01*
X67308454Y-70875180D01*
X67685440Y-70845113D01*
X68183485Y-70832923D01*
X68822601Y-70830828D01*
X69131617Y-70831081D01*
X69841749Y-70835666D01*
X70407928Y-70847934D01*
X70823598Y-70867591D01*
X71082207Y-70894343D01*
X71173760Y-70922560D01*
X71242901Y-71089386D01*
X71246163Y-71125850D01*
X71334345Y-71125850D01*
X71410383Y-71125876D01*
X71592897Y-71239927D01*
X71700983Y-71320219D01*
X71894955Y-71502353D01*
X71962972Y-71676753D01*
X71961187Y-71764719D01*
X71876920Y-71963449D01*
X71695096Y-72032273D01*
X71506221Y-71990406D01*
X71415083Y-71938000D01*
X71473666Y-71887443D01*
X71532333Y-71862197D01*
X71641374Y-71808646D01*
X71595920Y-71788984D01*
X71553500Y-71786618D01*
X71430974Y-71711686D01*
X71405333Y-71575925D01*
X71384367Y-71356549D01*
X71353941Y-71237258D01*
X71334345Y-71125850D01*
X71246163Y-71125850D01*
X71268634Y-71376981D01*
X71256380Y-71743971D01*
X71211557Y-72148985D01*
X71185633Y-72293664D01*
X71574667Y-72293664D01*
X71636127Y-72207446D01*
X71659333Y-72204000D01*
X71741799Y-72232887D01*
X71744000Y-72241337D01*
X71684671Y-72313623D01*
X71659333Y-72331000D01*
X71581314Y-72324287D01*
X71574667Y-72293664D01*
X71185633Y-72293664D01*
X71153325Y-72473965D01*
X71828667Y-72473965D01*
X71880935Y-72367667D01*
X71992534Y-72229373D01*
X72112977Y-72004189D01*
X72107146Y-71865133D01*
X72088887Y-71733730D01*
X72161416Y-71732089D01*
X72218446Y-71759381D01*
X72413087Y-71822283D01*
X72696176Y-71873864D01*
X73001786Y-71906674D01*
X73263993Y-71913263D01*
X73402245Y-71893171D01*
X73471364Y-71839076D01*
X73430661Y-71741946D01*
X73336093Y-71631600D01*
X73141000Y-71419508D01*
X73459744Y-71477157D01*
X73741213Y-71579045D01*
X73997419Y-71749455D01*
X74014996Y-71766000D01*
X74183725Y-71952507D01*
X74295012Y-72114421D01*
X74304906Y-72136358D01*
X74418685Y-72237243D01*
X74531868Y-72230136D01*
X74650760Y-72165355D01*
X74659051Y-72109708D01*
X74694439Y-72054471D01*
X74826679Y-72034667D01*
X74982008Y-72065668D01*
X74995237Y-72153103D01*
X75000478Y-72287410D01*
X75032587Y-72322711D01*
X75176405Y-72344407D01*
X75308182Y-72280510D01*
X75355213Y-72170428D01*
X75349856Y-72150741D01*
X75371811Y-72049361D01*
X75424660Y-72034667D01*
X75568919Y-71980642D01*
X75610427Y-71863590D01*
X75543680Y-71765724D01*
X75544514Y-71722908D01*
X75711278Y-71708578D01*
X75970074Y-71718098D01*
X76345753Y-71718316D01*
X76679802Y-71678782D01*
X76816741Y-71642625D01*
X77259391Y-71537352D01*
X77654545Y-71544789D01*
X77718869Y-71569000D01*
X78178667Y-71569000D01*
X78221000Y-71526667D01*
X78263333Y-71569000D01*
X78221000Y-71611333D01*
X78178667Y-71569000D01*
X77718869Y-71569000D01*
X77966776Y-71662309D01*
X78055515Y-71734485D01*
X78199876Y-71940536D01*
X78263208Y-72153074D01*
X78263333Y-72160797D01*
X78246372Y-72311309D01*
X78169552Y-72324876D01*
X78099566Y-72291646D01*
X77876560Y-72218649D01*
X77742563Y-72204000D01*
X77476080Y-72246854D01*
X77145472Y-72355696D01*
X76826403Y-72500947D01*
X76683334Y-72594723D01*
X77070965Y-72594723D01*
X77264983Y-72487028D01*
X77598082Y-72383202D01*
X77932528Y-72414883D01*
X77960075Y-72424725D01*
X78077445Y-72499625D01*
X78048588Y-72588060D01*
X77866029Y-72702054D01*
X77755139Y-72754421D01*
X77539272Y-72844906D01*
X77411380Y-72862194D01*
X77306532Y-72805846D01*
X77243621Y-72750974D01*
X77070965Y-72594723D01*
X76683334Y-72594723D01*
X76594941Y-72652661D01*
X76499417Y-72727718D01*
X76394546Y-72769668D01*
X76242098Y-72780683D01*
X76003842Y-72762937D01*
X75641545Y-72718604D01*
X75578941Y-72710425D01*
X75009695Y-72617558D01*
X74551849Y-72505150D01*
X74219929Y-72378716D01*
X74028459Y-72243773D01*
X73991396Y-72107583D01*
X73979174Y-71956563D01*
X73868944Y-71882609D01*
X73723364Y-71909301D01*
X73648589Y-71978577D01*
X73523341Y-72077000D01*
X73776000Y-72077000D01*
X73818333Y-72034667D01*
X73860667Y-72077000D01*
X73818333Y-72119333D01*
X73776000Y-72077000D01*
X73523341Y-72077000D01*
X73499353Y-72095850D01*
X73404175Y-72119333D01*
X73255175Y-72184330D01*
X73214779Y-72244175D01*
X73148815Y-72314395D01*
X72998152Y-72338748D01*
X72724315Y-72322659D01*
X72685854Y-72318740D01*
X72387905Y-72299143D01*
X72207923Y-72322881D01*
X72175050Y-72345111D01*
X73380889Y-72345111D01*
X73392511Y-72294777D01*
X73437333Y-72288667D01*
X73507023Y-72319645D01*
X73493778Y-72345111D01*
X73393298Y-72355244D01*
X73380889Y-72345111D01*
X72175050Y-72345111D01*
X72098502Y-72396874D01*
X72091050Y-72405565D01*
X71956833Y-72520348D01*
X71854773Y-72533308D01*
X71828667Y-72473965D01*
X71153325Y-72473965D01*
X71139584Y-72550649D01*
X71045882Y-72907590D01*
X70935870Y-73178437D01*
X70864703Y-73281965D01*
X70709629Y-73334305D01*
X70407550Y-73324689D01*
X69968432Y-73254668D01*
X69402243Y-73125794D01*
X68780667Y-72957442D01*
X68376889Y-72846989D01*
X67996643Y-72752753D01*
X67691556Y-72687037D01*
X67553000Y-72664878D01*
X67214333Y-72627767D01*
X67468333Y-72765722D01*
X67645306Y-72863409D01*
X67741164Y-72919305D01*
X67744404Y-72921631D01*
X67731739Y-73004061D01*
X67674562Y-73192952D01*
X67633339Y-73312626D01*
X67567574Y-73523565D01*
X67473336Y-73861197D01*
X67360806Y-74287353D01*
X67240169Y-74763863D01*
X67172416Y-75040333D01*
X67001968Y-75722916D01*
X66854452Y-76256142D01*
X66721774Y-76657123D01*
X66595840Y-76942968D01*
X66468554Y-77130787D01*
X66331821Y-77237692D01*
X66177546Y-77280791D01*
X66110917Y-77284000D01*
X65868054Y-77229561D01*
X65699102Y-77057006D01*
X65596705Y-76752483D01*
X65553510Y-76302137D01*
X65551837Y-76230869D01*
X65540341Y-75548333D01*
X65457184Y-76120522D01*
X65420354Y-76576953D01*
X65469372Y-76911578D01*
X65613680Y-77153707D01*
X65844613Y-77323139D01*
X66075739Y-77415044D01*
X66277837Y-77400905D01*
X66351109Y-77375856D01*
X66505527Y-77279711D01*
X66646145Y-77104601D01*
X66781281Y-76831498D01*
X66919251Y-76441374D01*
X67068372Y-75915202D01*
X67175659Y-75489418D01*
X67298483Y-75000461D01*
X67433951Y-74485552D01*
X67563781Y-74013036D01*
X67650608Y-73713775D01*
X67778032Y-73323280D01*
X67895803Y-73076079D01*
X68031558Y-72950291D01*
X68212937Y-72924033D01*
X68467579Y-72975424D01*
X68552463Y-72999769D01*
X68772869Y-73074507D01*
X68872125Y-73161202D01*
X68892728Y-73315331D01*
X68886743Y-73436140D01*
X68846921Y-73721147D01*
X68770656Y-74056093D01*
X68731011Y-74192253D01*
X68639855Y-74446793D01*
X68510987Y-74765339D01*
X68360535Y-75112849D01*
X68204627Y-75454283D01*
X68059393Y-75754597D01*
X67940961Y-75978752D01*
X67865458Y-76091704D01*
X67853548Y-76098667D01*
X67779952Y-76033296D01*
X67668249Y-75873083D01*
X67651135Y-75844667D01*
X67532464Y-75674575D01*
X67439204Y-75592121D01*
X67430826Y-75590667D01*
X67377894Y-75666053D01*
X67324045Y-75857101D01*
X67302789Y-75975913D01*
X67192263Y-76542159D01*
X67047553Y-76965370D01*
X66858351Y-77270150D01*
X66695908Y-77424692D01*
X66453708Y-77642045D01*
X66238493Y-77886794D01*
X66204228Y-77934472D01*
X66014134Y-78214220D01*
X65558054Y-77516277D01*
X65338533Y-77159378D01*
X65139840Y-76799285D01*
X64993416Y-76494397D01*
X64954418Y-76395000D01*
X64870214Y-76182660D01*
X64817959Y-76113941D01*
X64804097Y-76164886D01*
X64862712Y-76481220D01*
X65047898Y-76893191D01*
X65362070Y-77406085D01*
X65389925Y-77447333D01*
X65598336Y-77776645D01*
X65832640Y-78180940D01*
X65908467Y-78322296D01*
X66071333Y-78322296D01*
X66124796Y-78210602D01*
X66258099Y-78031468D01*
X66430614Y-77830949D01*
X66601714Y-77655103D01*
X66730769Y-77549986D01*
X66763189Y-77538000D01*
X66765112Y-77599013D01*
X66682583Y-77757329D01*
X66565148Y-77933426D01*
X66363965Y-78187348D01*
X66202159Y-78341862D01*
X66098902Y-78381869D01*
X66071333Y-78322296D01*
X65908467Y-78322296D01*
X66047544Y-78581557D01*
X66079607Y-78645074D01*
X66234370Y-78940961D01*
X66363762Y-79162034D01*
X66448857Y-79277191D01*
X66469088Y-79285135D01*
X66462714Y-79188717D01*
X66393230Y-78997584D01*
X66341248Y-78885481D01*
X66166649Y-78532585D01*
X66457177Y-78258583D01*
X66716065Y-77934049D01*
X66963660Y-77472392D01*
X67186445Y-76905806D01*
X67370907Y-76266487D01*
X67452750Y-75887000D01*
X67490584Y-75837142D01*
X67566149Y-75923788D01*
X67687750Y-76157479D01*
X67719655Y-76225667D01*
X67821374Y-76537644D01*
X67965533Y-76537644D01*
X67974081Y-76321084D01*
X68085528Y-75983252D01*
X68259175Y-75607320D01*
X68438218Y-75221768D01*
X68617210Y-74784004D01*
X68781560Y-74335924D01*
X68916672Y-73919427D01*
X69007954Y-73576410D01*
X69040617Y-73363796D01*
X69050513Y-73233801D01*
X69084108Y-73267494D01*
X69110677Y-73327463D01*
X69470713Y-73327463D01*
X69555284Y-73312489D01*
X69634579Y-73329594D01*
X69835242Y-73368677D01*
X70057533Y-73403133D01*
X71036913Y-73403133D01*
X71050360Y-73299169D01*
X71119371Y-73099487D01*
X71168469Y-72983048D01*
X71294279Y-72749415D01*
X71407573Y-72658570D01*
X71473833Y-72661528D01*
X71663523Y-72713032D01*
X72139531Y-72713032D01*
X72150626Y-72608298D01*
X72173664Y-72577372D01*
X72358070Y-72470812D01*
X72587818Y-72474583D01*
X72786285Y-72581551D01*
X72794605Y-72591925D01*
X73047275Y-72591925D01*
X73054609Y-72477816D01*
X73122067Y-72458000D01*
X73194285Y-72500333D01*
X73522000Y-72500333D01*
X73564333Y-72458000D01*
X73606667Y-72500333D01*
X73564333Y-72542667D01*
X73522000Y-72500333D01*
X73194285Y-72500333D01*
X73243213Y-72529013D01*
X73258618Y-72559725D01*
X73843911Y-72559725D01*
X73945333Y-72549076D01*
X74181268Y-72598419D01*
X74321349Y-72672360D01*
X74429323Y-72760043D01*
X74429727Y-72787179D01*
X74305117Y-72753751D01*
X74072333Y-72672108D01*
X73882332Y-72597235D01*
X73843911Y-72559725D01*
X73258618Y-72559725D01*
X73292532Y-72627333D01*
X73285762Y-72768790D01*
X73217740Y-72796667D01*
X73109960Y-72776266D01*
X73098667Y-72761258D01*
X73072328Y-72661734D01*
X73047275Y-72591925D01*
X72794605Y-72591925D01*
X72832104Y-72638680D01*
X72901652Y-72785918D01*
X72876211Y-72838196D01*
X74538000Y-72838196D01*
X74542930Y-72838742D01*
X75251913Y-72838742D01*
X75258786Y-72806692D01*
X75330974Y-72808351D01*
X75427000Y-72824374D01*
X75695475Y-72871006D01*
X75977909Y-72918108D01*
X76606609Y-72918108D01*
X76626773Y-72840636D01*
X76693375Y-72770053D01*
X76847519Y-72646533D01*
X76957973Y-72664986D01*
X77053649Y-72789138D01*
X77090975Y-72938473D01*
X76997304Y-73015071D01*
X76801510Y-73002004D01*
X76729755Y-72979027D01*
X76606609Y-72918108D01*
X75977909Y-72918108D01*
X75985201Y-72919324D01*
X75986078Y-72919467D01*
X76146534Y-72963608D01*
X76267159Y-73028362D01*
X77695502Y-73028362D01*
X77713000Y-72966000D01*
X77833828Y-72892331D01*
X77908497Y-72882630D01*
X78003249Y-72896332D01*
X77941704Y-72954863D01*
X77924667Y-72966000D01*
X77769542Y-73040792D01*
X77695502Y-73028362D01*
X76267159Y-73028362D01*
X76317577Y-73055427D01*
X76481787Y-73182335D01*
X76880929Y-73182335D01*
X76966307Y-73144158D01*
X76993333Y-73135333D01*
X77274122Y-73068409D01*
X77451709Y-73074756D01*
X77501333Y-73135333D01*
X77426033Y-73185245D01*
X77236632Y-73210770D01*
X77141500Y-73211561D01*
X76934219Y-73202174D01*
X76880929Y-73182335D01*
X76481787Y-73182335D01*
X76521839Y-73213288D01*
X76542183Y-73232237D01*
X77967000Y-73232237D01*
X78204554Y-73014452D01*
X78471839Y-72833497D01*
X78711927Y-72812798D01*
X78838841Y-72868937D01*
X78892091Y-72960842D01*
X78803800Y-73056805D01*
X78600473Y-73140026D01*
X78330154Y-73191396D01*
X77967000Y-73232237D01*
X76542183Y-73232237D01*
X76781953Y-73455554D01*
X76800054Y-73474000D01*
X77035667Y-73474000D01*
X77053911Y-73400746D01*
X77110340Y-73389333D01*
X77256622Y-73439012D01*
X77289667Y-73474000D01*
X77271422Y-73547255D01*
X77214993Y-73558667D01*
X77068711Y-73508989D01*
X77035667Y-73474000D01*
X76800054Y-73474000D01*
X77021620Y-73699778D01*
X77360222Y-73699778D01*
X77371844Y-73649444D01*
X77416667Y-73643333D01*
X77486357Y-73674312D01*
X77473111Y-73699778D01*
X77372631Y-73709911D01*
X77360222Y-73699778D01*
X77021620Y-73699778D01*
X77120551Y-73800589D01*
X77284340Y-73972872D01*
X77533014Y-74236000D01*
X77242007Y-74233218D01*
X77084130Y-74210237D01*
X76901548Y-74132988D01*
X76665439Y-73984559D01*
X76346983Y-73748040D01*
X76146667Y-73590505D01*
X75757731Y-73280383D01*
X75487930Y-73061264D01*
X75323809Y-72918825D01*
X75251913Y-72838742D01*
X74542930Y-72838742D01*
X74605018Y-72845617D01*
X74771966Y-72911824D01*
X74833270Y-72940211D01*
X75012499Y-73036881D01*
X75095638Y-73104429D01*
X75095138Y-73114417D01*
X75008252Y-73101531D01*
X74844346Y-73033051D01*
X74670537Y-72942253D01*
X74553944Y-72862412D01*
X74538000Y-72838196D01*
X72876211Y-72838196D01*
X72860099Y-72871303D01*
X72831304Y-72891384D01*
X72588188Y-72959938D01*
X72319908Y-72866295D01*
X72266802Y-72831372D01*
X72139531Y-72713032D01*
X71663523Y-72713032D01*
X71664555Y-72713312D01*
X71849833Y-72759491D01*
X72025321Y-72839898D01*
X72081470Y-73001255D01*
X72082667Y-73046723D01*
X72015814Y-73319991D01*
X71826354Y-73485250D01*
X71530934Y-73530838D01*
X71411066Y-73517302D01*
X71189325Y-73468556D01*
X71052666Y-73417275D01*
X71036913Y-73403133D01*
X70057533Y-73403133D01*
X70123822Y-73413408D01*
X70304667Y-73437442D01*
X70656109Y-73489944D01*
X70878971Y-73533845D01*
X72045502Y-73533845D01*
X72099177Y-73329587D01*
X72182991Y-73158448D01*
X72303780Y-73072001D01*
X72521276Y-73033227D01*
X72586574Y-73027536D01*
X73004767Y-72998017D01*
X73309446Y-72992530D01*
X73555410Y-73016516D01*
X73797453Y-73075414D01*
X74090374Y-73174667D01*
X74098697Y-73177667D01*
X74403630Y-73281663D01*
X74656797Y-73357189D01*
X74807100Y-73389115D01*
X74813535Y-73389333D01*
X74937667Y-73460114D01*
X74983998Y-73551527D01*
X74967424Y-73744695D01*
X74842810Y-73875942D01*
X74748915Y-73897333D01*
X74615776Y-73946635D01*
X74490682Y-74031245D01*
X74383801Y-74124924D01*
X74408749Y-74137267D01*
X74480074Y-74116430D01*
X74587920Y-74109915D01*
X74614215Y-74214412D01*
X74607074Y-74300019D01*
X74551447Y-74458295D01*
X74734478Y-74458295D01*
X74740608Y-74440742D01*
X74786295Y-74236518D01*
X74792000Y-74150114D01*
X74862908Y-74000293D01*
X74961333Y-73939667D01*
X75096426Y-73828419D01*
X75130667Y-73637628D01*
X75178948Y-73440209D01*
X75324986Y-73374414D01*
X75570574Y-73440652D01*
X75917505Y-73639328D01*
X76273667Y-73897333D01*
X76566389Y-74114869D01*
X76817844Y-74285861D01*
X76993086Y-74387351D01*
X77046851Y-74405333D01*
X77099993Y-74441419D01*
X77134894Y-74565943D01*
X77154628Y-74803309D01*
X77162271Y-75177920D01*
X77162667Y-75324247D01*
X77157349Y-75770222D01*
X77143058Y-76216920D01*
X77122284Y-76598409D01*
X77108272Y-76763580D01*
X77069167Y-77056497D01*
X77019785Y-77216066D01*
X76945509Y-77278219D01*
X76896605Y-77284000D01*
X76770528Y-77226209D01*
X76739333Y-77076093D01*
X76686256Y-76862824D01*
X76547923Y-76582362D01*
X76355682Y-76290304D01*
X76176266Y-76077500D01*
X76087642Y-75966089D01*
X76126842Y-75928252D01*
X76153019Y-75926641D01*
X76215859Y-75901779D01*
X76135211Y-75818907D01*
X76125500Y-75811474D01*
X76012528Y-75637348D01*
X75977333Y-75427600D01*
X75951981Y-75184649D01*
X75895137Y-75002615D01*
X75752337Y-74865167D01*
X75504237Y-74730172D01*
X75213082Y-74624620D01*
X74941118Y-74575503D01*
X74908228Y-74574667D01*
X74753076Y-74549172D01*
X74734478Y-74458295D01*
X74551447Y-74458295D01*
X74541758Y-74485862D01*
X74376223Y-74559614D01*
X74368667Y-74560669D01*
X74179687Y-74606873D01*
X74087896Y-74655173D01*
X74112185Y-74730456D01*
X74182276Y-74786333D01*
X74453333Y-74786333D01*
X74495667Y-74744000D01*
X74538000Y-74786333D01*
X74495667Y-74828667D01*
X74453333Y-74786333D01*
X74182276Y-74786333D01*
X74261991Y-74849881D01*
X74355684Y-74905561D01*
X74622667Y-74905561D01*
X74692613Y-74839572D01*
X74865975Y-74827350D01*
X75088041Y-74862092D01*
X75304097Y-74936995D01*
X75415582Y-75004145D01*
X75592674Y-75164669D01*
X75619364Y-75248597D01*
X75496494Y-75255487D01*
X75224906Y-75184896D01*
X75130667Y-75154009D01*
X74867811Y-75054072D01*
X74684265Y-74962951D01*
X74622667Y-74905561D01*
X74355684Y-74905561D01*
X74505624Y-74994667D01*
X74811394Y-75146027D01*
X75147611Y-75285179D01*
X75156021Y-75288298D01*
X75404370Y-75406871D01*
X75516859Y-75519332D01*
X75485041Y-75608479D01*
X75335317Y-75653448D01*
X75225842Y-75662246D01*
X75266624Y-75629163D01*
X75342333Y-75591592D01*
X75401150Y-75547427D01*
X75313428Y-75538971D01*
X75110600Y-75559426D01*
X74833487Y-75574129D01*
X74592003Y-75525907D01*
X74303601Y-75397191D01*
X74272465Y-75381027D01*
X73931871Y-75238794D01*
X73557114Y-75134033D01*
X73384181Y-75105921D01*
X73065102Y-75100366D01*
X72891489Y-75173589D01*
X72864939Y-75294333D01*
X73014000Y-75294333D01*
X73056333Y-75252000D01*
X73069152Y-75264819D01*
X73335192Y-75264819D01*
X73631035Y-75406576D01*
X73719169Y-75460727D01*
X74061524Y-75460727D01*
X74123321Y-75479642D01*
X74219287Y-75544313D01*
X74442529Y-75646369D01*
X74613283Y-75675333D01*
X74748381Y-75693895D01*
X74764309Y-75731247D01*
X74656015Y-75777139D01*
X74489584Y-75799420D01*
X74331530Y-75796158D01*
X74248366Y-75765421D01*
X74250209Y-75746178D01*
X74234852Y-75678382D01*
X74213388Y-75675333D01*
X74116932Y-75607664D01*
X74082506Y-75544313D01*
X74061524Y-75460727D01*
X73719169Y-75460727D01*
X73855069Y-75544225D01*
X74018247Y-75696748D01*
X74032766Y-75717667D01*
X74090904Y-75816445D01*
X74989555Y-75816445D01*
X75001178Y-75766110D01*
X75046000Y-75760000D01*
X75115690Y-75790978D01*
X75114744Y-75792797D01*
X75667770Y-75792797D01*
X75681000Y-75760000D01*
X75757082Y-75679230D01*
X75770663Y-75675333D01*
X75807029Y-75740839D01*
X75808000Y-75760000D01*
X75742912Y-75841413D01*
X75718336Y-75844667D01*
X75667770Y-75792797D01*
X75114744Y-75792797D01*
X75102444Y-75816445D01*
X75001965Y-75826578D01*
X74989555Y-75816445D01*
X74090904Y-75816445D01*
X74100148Y-75832150D01*
X74069484Y-75823576D01*
X73971622Y-75738649D01*
X73834466Y-75642913D01*
X73762407Y-75632482D01*
X73683190Y-75606925D01*
X73545682Y-75488504D01*
X73527708Y-75469742D01*
X73335192Y-75264819D01*
X73069152Y-75264819D01*
X73098667Y-75294333D01*
X73056333Y-75336667D01*
X73014000Y-75294333D01*
X72864939Y-75294333D01*
X72855277Y-75338271D01*
X72948396Y-75607094D01*
X72950789Y-75611833D01*
X73101384Y-75611833D01*
X73149670Y-75516776D01*
X73295489Y-75548264D01*
X73527995Y-75702737D01*
X73626854Y-75784346D01*
X73755326Y-75901111D01*
X75243555Y-75901111D01*
X75255178Y-75850777D01*
X75300000Y-75844667D01*
X75369690Y-75875645D01*
X75356444Y-75901111D01*
X75255965Y-75911244D01*
X75243555Y-75901111D01*
X73755326Y-75901111D01*
X73813483Y-75953968D01*
X73892916Y-76078726D01*
X73889572Y-76184740D01*
X74327202Y-76184740D01*
X74328514Y-76056321D01*
X74376534Y-76009138D01*
X74502567Y-75964733D01*
X74518726Y-76044157D01*
X74474859Y-76141000D01*
X75892667Y-76141000D01*
X75935000Y-76098667D01*
X75977333Y-76141000D01*
X75935000Y-76183333D01*
X75892667Y-76141000D01*
X74474859Y-76141000D01*
X74472810Y-76145522D01*
X74391638Y-76235905D01*
X74327202Y-76184740D01*
X73889572Y-76184740D01*
X73888405Y-76221724D01*
X73844835Y-76375939D01*
X73762376Y-76571153D01*
X73677242Y-76667084D01*
X73655315Y-76668857D01*
X73573744Y-76583719D01*
X73452836Y-76393161D01*
X73319099Y-76147767D01*
X73199044Y-75898123D01*
X73119179Y-75694815D01*
X73101384Y-75611833D01*
X72950789Y-75611833D01*
X73000155Y-75709585D01*
X73110696Y-75938857D01*
X73176008Y-76114063D01*
X73183568Y-76157170D01*
X73130110Y-76281186D01*
X73020507Y-76334789D01*
X72941034Y-76295538D01*
X72844484Y-76199850D01*
X72664686Y-76051318D01*
X72578299Y-75985020D01*
X72365200Y-75786991D01*
X72305567Y-75623848D01*
X72309984Y-75598891D01*
X72310586Y-75441569D01*
X72273135Y-75178761D01*
X72207159Y-74873420D01*
X72129463Y-74470246D01*
X72104898Y-74119277D01*
X72115519Y-73979873D01*
X72129913Y-73756319D01*
X72093764Y-73635893D01*
X72081981Y-73628994D01*
X72045502Y-73533845D01*
X70878971Y-73533845D01*
X70984532Y-73554639D01*
X71257912Y-73622979D01*
X71444223Y-73686416D01*
X71511442Y-73736404D01*
X71490000Y-73753814D01*
X71349206Y-73783936D01*
X71089878Y-73825877D01*
X70761806Y-73872967D01*
X70414776Y-73918540D01*
X70098576Y-73955928D01*
X69862995Y-73978462D01*
X69785370Y-73982108D01*
X69661686Y-73910045D01*
X69605758Y-73791500D01*
X69540997Y-73559970D01*
X69497300Y-73440161D01*
X69470713Y-73327463D01*
X69110677Y-73327463D01*
X69119333Y-73347000D01*
X69172638Y-73551670D01*
X69192632Y-73749167D01*
X69292056Y-73749167D01*
X69295446Y-73516333D01*
X69420004Y-73745815D01*
X69495545Y-73954421D01*
X69562306Y-74257070D01*
X69596850Y-74507815D01*
X69619759Y-74793115D01*
X69614453Y-74936697D01*
X69577333Y-74964379D01*
X69537287Y-74935151D01*
X69469016Y-74787625D01*
X69429942Y-74534611D01*
X69425436Y-74405985D01*
X69413149Y-74164249D01*
X69381730Y-74010723D01*
X69357051Y-73982000D01*
X69308485Y-73908940D01*
X69292056Y-73749167D01*
X69192632Y-73749167D01*
X69198049Y-73802673D01*
X69155937Y-74068457D01*
X69044921Y-74344542D01*
X69024854Y-74378877D01*
X68925817Y-74573263D01*
X68790965Y-74884255D01*
X68638496Y-75267970D01*
X68495687Y-75654879D01*
X68355764Y-76029916D01*
X68228179Y-76337038D01*
X68126389Y-76546147D01*
X68063850Y-76627143D01*
X68061000Y-76627195D01*
X67965533Y-76537644D01*
X67821374Y-76537644D01*
X67913140Y-76819091D01*
X68002103Y-77521213D01*
X67984786Y-78306142D01*
X67903013Y-78922255D01*
X67847279Y-79324000D01*
X67821001Y-79708207D01*
X67823432Y-80040170D01*
X67853828Y-80285186D01*
X67911443Y-80408550D01*
X67935108Y-80416667D01*
X67963930Y-80341688D01*
X67965012Y-80151790D01*
X67954920Y-80035652D01*
X67949008Y-79737515D01*
X67979145Y-79371952D01*
X68018502Y-79125486D01*
X68066719Y-78803387D01*
X68107178Y-78380996D01*
X68133948Y-77927343D01*
X68140398Y-77707333D01*
X68174993Y-77129261D01*
X68253318Y-76617523D01*
X68368317Y-76204687D01*
X68512937Y-75923321D01*
X68531893Y-75900001D01*
X68585153Y-75921978D01*
X68642542Y-76079049D01*
X68697870Y-76337287D01*
X68744943Y-76662768D01*
X68777571Y-77021566D01*
X68789106Y-77309334D01*
X68799661Y-77614738D01*
X68820927Y-77754280D01*
X68853482Y-77731129D01*
X68861374Y-77707333D01*
X68925202Y-77495667D01*
X68972647Y-77749667D01*
X68997795Y-77859366D01*
X69004282Y-77828473D01*
X68994661Y-77684396D01*
X68971482Y-77454543D01*
X68937297Y-77166322D01*
X68894657Y-76847140D01*
X68877715Y-76729847D01*
X68819803Y-76391180D01*
X68754214Y-76087161D01*
X68697958Y-75892151D01*
X68655085Y-75670673D01*
X68690060Y-75403041D01*
X68810501Y-75059063D01*
X69019712Y-74617000D01*
X69235640Y-74193667D01*
X69298979Y-74547102D01*
X69372894Y-74826634D01*
X69494262Y-75162837D01*
X69583034Y-75367092D01*
X69746750Y-75789754D01*
X69866062Y-76248680D01*
X69929286Y-76684570D01*
X69924735Y-77038126D01*
X69919055Y-77072333D01*
X69898446Y-77229763D01*
X69928992Y-77238562D01*
X69959566Y-77199333D01*
X70026201Y-77023979D01*
X70053112Y-76818333D01*
X70058150Y-76564333D01*
X70242972Y-76903000D01*
X70335122Y-77102792D01*
X70391635Y-77321930D01*
X70420479Y-77609192D01*
X70429624Y-78013354D01*
X70429730Y-78046000D01*
X70423687Y-78418796D01*
X70405876Y-78743925D01*
X70379522Y-78972530D01*
X70364487Y-79034450D01*
X70345508Y-79180826D01*
X70445673Y-79285470D01*
X70532785Y-79331428D01*
X70708637Y-79452576D01*
X70794234Y-79579147D01*
X70781352Y-79644977D01*
X70693895Y-79691429D01*
X70503591Y-79725346D01*
X70182169Y-79753574D01*
X70033269Y-79763389D01*
X69476140Y-79818199D01*
X69034308Y-79903069D01*
X68723777Y-80013393D01*
X68560557Y-80144566D01*
X68541576Y-80192513D01*
X68555276Y-80297035D01*
X68643373Y-80297035D01*
X68645393Y-80214076D01*
X68763167Y-80116026D01*
X68913183Y-80053698D01*
X69390508Y-79919682D01*
X69727638Y-79854264D01*
X69938828Y-79856617D01*
X70038332Y-79925912D01*
X70050667Y-79987628D01*
X70038015Y-80013704D01*
X70142454Y-80013704D01*
X70154774Y-79905786D01*
X70292187Y-79833276D01*
X70389333Y-79824000D01*
X70567718Y-79845534D01*
X70643315Y-79897414D01*
X70643333Y-79898300D01*
X70572416Y-80031502D01*
X70414650Y-80115694D01*
X70273065Y-80112736D01*
X70142454Y-80013704D01*
X70038015Y-80013704D01*
X69979560Y-80134178D01*
X69819533Y-80225298D01*
X69650521Y-80218230D01*
X69635196Y-80209859D01*
X69506666Y-80202325D01*
X69323963Y-80250009D01*
X69133656Y-80296100D01*
X69029838Y-80241236D01*
X69021821Y-80229448D01*
X68963545Y-80165858D01*
X68951296Y-80226167D01*
X68879147Y-80310942D01*
X68773611Y-80332000D01*
X68643373Y-80297035D01*
X68555276Y-80297035D01*
X68557499Y-80313994D01*
X68676333Y-80379564D01*
X68916292Y-80392122D01*
X69295589Y-80354563D01*
X69434963Y-80334603D01*
X69771726Y-80287427D01*
X70059664Y-80253095D01*
X70244119Y-80238013D01*
X70260895Y-80237820D01*
X70442846Y-80183585D01*
X70614461Y-80065354D01*
X70801891Y-79950367D01*
X70951170Y-79999085D01*
X71061655Y-80192497D01*
X71108100Y-80281897D01*
X71161548Y-80266205D01*
X71244668Y-80125960D01*
X71319553Y-79971087D01*
X71475844Y-79670614D01*
X71585420Y-79531976D01*
X71649084Y-79554480D01*
X71666974Y-79670837D01*
X71683917Y-79688987D01*
X71722281Y-79565634D01*
X71774792Y-79326156D01*
X71792987Y-79231333D01*
X71911162Y-78577910D01*
X71994160Y-78070023D01*
X72044450Y-77688114D01*
X72064498Y-77412624D01*
X72056772Y-77223993D01*
X72050745Y-77187895D01*
X72035667Y-77004824D01*
X72084287Y-76956752D01*
X72183829Y-77027596D01*
X72321516Y-77201275D01*
X72484571Y-77461708D01*
X72660220Y-77792811D01*
X72833371Y-78173000D01*
X72932226Y-78431000D01*
X72995451Y-78672354D01*
X73030620Y-78947987D01*
X73045306Y-79308823D01*
X73047457Y-79612333D01*
X73031163Y-80184742D01*
X72977233Y-80613994D01*
X72878823Y-80923442D01*
X72729088Y-81136441D01*
X72566366Y-81253830D01*
X72409929Y-81317635D01*
X72248950Y-81318599D01*
X72016813Y-81253864D01*
X71939441Y-81226934D01*
X71644537Y-81135645D01*
X71370337Y-81072019D01*
X71278333Y-81058750D01*
X70999522Y-81006027D01*
X70789516Y-80938821D01*
X70492443Y-80897460D01*
X70146492Y-80966753D01*
X69808749Y-81125275D01*
X69536304Y-81351599D01*
X69473699Y-81432667D01*
X69343365Y-81671312D01*
X69307138Y-81905506D01*
X69324351Y-82106579D01*
X69388584Y-82423617D01*
X69477070Y-82576571D01*
X69594509Y-82569562D01*
X69714689Y-82448667D01*
X69877568Y-82237000D01*
X69879451Y-82579045D01*
X69841606Y-82984075D01*
X69736974Y-83461170D01*
X69584598Y-83936424D01*
X69448826Y-84250416D01*
X69246762Y-84562470D01*
X68962717Y-84888147D01*
X68641894Y-85184382D01*
X68329499Y-85408111D01*
X68138013Y-85499193D01*
X67905007Y-85550984D01*
X67683895Y-85524382D01*
X67485902Y-85455316D01*
X67213857Y-85332950D01*
X66993870Y-85190610D01*
X66809593Y-85003689D01*
X66644675Y-84747580D01*
X66482767Y-84397673D01*
X66307520Y-83929362D01*
X66138140Y-83426773D01*
X65973618Y-82959109D01*
X65785880Y-82478241D01*
X65600154Y-82046349D01*
X65466511Y-81771333D01*
X65310462Y-81499680D01*
X65104951Y-81174114D01*
X64866960Y-80817886D01*
X64613470Y-80454248D01*
X64361465Y-80106452D01*
X64127925Y-79797749D01*
X63929835Y-79551389D01*
X63784174Y-79390625D01*
X63707926Y-79338708D01*
X63700667Y-79353602D01*
X63749524Y-79487503D01*
X63877709Y-79705821D01*
X64057636Y-79961655D01*
X64060500Y-79965423D01*
X64593383Y-80692602D01*
X65024723Y-81349764D01*
X65377563Y-81981574D01*
X65674946Y-82632697D01*
X65939915Y-83347799D01*
X66149683Y-84015000D01*
X66263004Y-84356246D01*
X66388544Y-84671744D01*
X66494402Y-84884584D01*
X66644230Y-85063595D01*
X66872397Y-85267378D01*
X67130411Y-85459917D01*
X67369780Y-85605193D01*
X67542013Y-85667188D01*
X67548409Y-85667463D01*
X67662696Y-85724933D01*
X67821476Y-85862980D01*
X67837053Y-85879130D01*
X68011587Y-86023471D01*
X68165081Y-86088979D01*
X68173392Y-86089333D01*
X68242096Y-86068198D01*
X68170243Y-85992358D01*
X68122172Y-85957533D01*
X67975319Y-85832395D01*
X67960927Y-85734098D01*
X68090202Y-85638419D01*
X68313446Y-85544094D01*
X68720308Y-85308489D01*
X69106232Y-84935653D01*
X69447012Y-84457656D01*
X69718444Y-83906570D01*
X69850908Y-83507000D01*
X69918437Y-83183836D01*
X69954859Y-82860528D01*
X69962736Y-82563690D01*
X69944626Y-82319935D01*
X69903092Y-82155876D01*
X69840691Y-82098127D01*
X69759986Y-82173303D01*
X69728500Y-82234598D01*
X69616828Y-82412020D01*
X69527245Y-82426666D01*
X69471294Y-82284763D01*
X69458316Y-82088833D01*
X69526656Y-81670625D01*
X69719741Y-81339629D01*
X70020867Y-81121844D01*
X70098653Y-81092134D01*
X70317640Y-81045257D01*
X70580718Y-81043875D01*
X70918133Y-81091888D01*
X71360129Y-81193200D01*
X71793775Y-81310838D01*
X72064246Y-81380615D01*
X72280774Y-81424695D01*
X72355400Y-81432667D01*
X72480369Y-81503716D01*
X72530532Y-81602000D01*
X72613668Y-81736399D01*
X72688573Y-81764649D01*
X72753480Y-81746157D01*
X72696500Y-81715260D01*
X72605799Y-81604787D01*
X72590667Y-81520645D01*
X72648306Y-81340999D01*
X72834882Y-81217389D01*
X73111317Y-81145134D01*
X73386252Y-81058579D01*
X73674309Y-80915076D01*
X73728911Y-80880095D01*
X73946030Y-80750734D01*
X74120945Y-80677117D01*
X74160760Y-80670667D01*
X74266125Y-80729850D01*
X74269523Y-80883855D01*
X74177322Y-81097362D01*
X74052369Y-81271619D01*
X73888959Y-81430933D01*
X73646423Y-81626065D01*
X73357219Y-81835775D01*
X73053807Y-82038823D01*
X72768644Y-82213968D01*
X72534191Y-82339970D01*
X72382905Y-82395589D01*
X72346493Y-82387903D01*
X72055383Y-82004800D01*
X71783247Y-81749671D01*
X71494100Y-81590321D01*
X71427933Y-81566041D01*
X71153016Y-81480586D01*
X71032121Y-81461117D01*
X71065256Y-81503237D01*
X71252429Y-81602552D01*
X71427721Y-81682925D01*
X71647224Y-81792511D01*
X71767734Y-81878071D01*
X71769860Y-81915415D01*
X71623678Y-81906424D01*
X71477574Y-81849350D01*
X71315965Y-81793028D01*
X71255743Y-81839103D01*
X71161410Y-81909932D01*
X71124696Y-81907454D01*
X71066855Y-81905437D01*
X71081453Y-81917139D01*
X71090281Y-82008383D01*
X71038070Y-82189575D01*
X71023346Y-82226304D01*
X70956449Y-82589217D01*
X70971023Y-82676086D01*
X71076790Y-82676086D01*
X71086213Y-82404398D01*
X71154312Y-82189101D01*
X71282750Y-82068644D01*
X71520206Y-82026059D01*
X71570119Y-82025333D01*
X71829885Y-82058435D01*
X72026011Y-82186028D01*
X72117460Y-82285814D01*
X72273327Y-82532307D01*
X72287460Y-82742244D01*
X72283122Y-82914719D01*
X72329806Y-82994760D01*
X72419077Y-83091684D01*
X72341151Y-83167898D01*
X72096982Y-83222674D01*
X72019167Y-83231976D01*
X71747714Y-83269912D01*
X71531349Y-83315701D01*
X71474556Y-83334277D01*
X71333338Y-83318199D01*
X71212124Y-83175079D01*
X71122684Y-82947011D01*
X71076790Y-82676086D01*
X70971023Y-82676086D01*
X71023113Y-82986569D01*
X71158148Y-83274784D01*
X71266502Y-83411936D01*
X71394595Y-83456068D01*
X71596763Y-83416294D01*
X71732860Y-83371197D01*
X72075349Y-83311369D01*
X72338409Y-83400419D01*
X72526223Y-83639973D01*
X72547817Y-83688157D01*
X72673278Y-84187941D01*
X72629662Y-84681415D01*
X72417132Y-85167949D01*
X72050447Y-85631929D01*
X71833701Y-85874676D01*
X71729110Y-86031181D01*
X71735375Y-86090209D01*
X71851196Y-86040526D01*
G36*
X63965228Y-77988716D02*
G01*
X63986215Y-77816657D01*
X63998365Y-77536338D01*
X64000245Y-77302332D01*
X64004366Y-76894036D01*
X64027354Y-76597296D01*
X64079423Y-76354555D01*
X64170789Y-76108256D01*
X64239387Y-75954977D01*
X64387540Y-75663336D01*
X64535296Y-75419352D01*
X64641553Y-75285688D01*
X64759472Y-75190327D01*
X64800732Y-75217234D01*
X64807774Y-75302378D01*
X64834022Y-75349909D01*
X64897754Y-75242176D01*
X64928333Y-75167333D01*
X65020530Y-74908220D01*
X65040950Y-74785564D01*
X64989960Y-74782623D01*
X64935871Y-74822411D01*
X64838252Y-74877251D01*
X64769869Y-74825836D01*
X64708165Y-74642423D01*
X64681677Y-74532333D01*
X64606254Y-74324706D01*
X64469756Y-74043616D01*
X64333962Y-73804211D01*
X64179821Y-73542495D01*
X64101035Y-73354074D01*
X64083764Y-73168303D01*
X64114167Y-72914541D01*
X64134905Y-72788211D01*
X64169977Y-72459702D01*
X64183720Y-72060826D01*
X64178035Y-71636345D01*
X64154824Y-71231024D01*
X64115988Y-70889624D01*
X64063429Y-70656910D01*
X64042354Y-70609780D01*
X63977437Y-70521199D01*
X63959125Y-70582410D01*
X63958943Y-70595333D01*
X63970593Y-70741433D01*
X64001836Y-70996644D01*
X64041047Y-71272667D01*
X64090145Y-71776604D01*
X64079576Y-72207787D01*
X64012904Y-72539438D01*
X63893692Y-72744774D01*
X63840214Y-72781844D01*
X63740558Y-72848730D01*
X63764167Y-72875603D01*
X63862674Y-72937905D01*
X63870000Y-72970997D01*
X63818130Y-73021563D01*
X63785333Y-73008333D01*
X63741941Y-73058198D01*
X63717987Y-73266164D01*
X63714572Y-73621994D01*
X63715280Y-73659503D01*
X63729893Y-74363000D01*
X63827667Y-73283296D01*
X64090574Y-73653815D01*
X64275021Y-73955862D01*
X64453229Y-74314371D01*
X64530151Y-74501183D01*
X64706819Y-74978032D01*
X64464859Y-75307046D01*
X64122689Y-75902617D01*
X63926810Y-76566384D01*
X63871339Y-77241667D01*
X63879716Y-77573356D01*
X63900798Y-77844153D01*
X63930431Y-78005460D01*
X63938041Y-78021999D01*
X63965228Y-77988716D01*
G37*
X63965228Y-77988716D02*
X63986215Y-77816657D01*
X63998365Y-77536338D01*
X64000245Y-77302332D01*
X64004366Y-76894036D01*
X64027354Y-76597296D01*
X64079423Y-76354555D01*
X64170789Y-76108256D01*
X64239387Y-75954977D01*
X64387540Y-75663336D01*
X64535296Y-75419352D01*
X64641553Y-75285688D01*
X64759472Y-75190327D01*
X64800732Y-75217234D01*
X64807774Y-75302378D01*
X64834022Y-75349909D01*
X64897754Y-75242176D01*
X64928333Y-75167333D01*
X65020530Y-74908220D01*
X65040950Y-74785564D01*
X64989960Y-74782623D01*
X64935871Y-74822411D01*
X64838252Y-74877251D01*
X64769869Y-74825836D01*
X64708165Y-74642423D01*
X64681677Y-74532333D01*
X64606254Y-74324706D01*
X64469756Y-74043616D01*
X64333962Y-73804211D01*
X64179821Y-73542495D01*
X64101035Y-73354074D01*
X64083764Y-73168303D01*
X64114167Y-72914541D01*
X64134905Y-72788211D01*
X64169977Y-72459702D01*
X64183720Y-72060826D01*
X64178035Y-71636345D01*
X64154824Y-71231024D01*
X64115988Y-70889624D01*
X64063429Y-70656910D01*
X64042354Y-70609780D01*
X63977437Y-70521199D01*
X63959125Y-70582410D01*
X63958943Y-70595333D01*
X63970593Y-70741433D01*
X64001836Y-70996644D01*
X64041047Y-71272667D01*
X64090145Y-71776604D01*
X64079576Y-72207787D01*
X64012904Y-72539438D01*
X63893692Y-72744774D01*
X63840214Y-72781844D01*
X63740558Y-72848730D01*
X63764167Y-72875603D01*
X63862674Y-72937905D01*
X63870000Y-72970997D01*
X63818130Y-73021563D01*
X63785333Y-73008333D01*
X63741941Y-73058198D01*
X63717987Y-73266164D01*
X63714572Y-73621994D01*
X63715280Y-73659503D01*
X63729893Y-74363000D01*
X63827667Y-73283296D01*
X64090574Y-73653815D01*
X64275021Y-73955862D01*
X64453229Y-74314371D01*
X64530151Y-74501183D01*
X64706819Y-74978032D01*
X64464859Y-75307046D01*
X64122689Y-75902617D01*
X63926810Y-76566384D01*
X63871339Y-77241667D01*
X63879716Y-77573356D01*
X63900798Y-77844153D01*
X63930431Y-78005460D01*
X63938041Y-78021999D01*
X63965228Y-77988716D01*
D10*
%TO.C,J18*%
X52690000Y-76160000D02*
X52690000Y-84040000D01*
X55810000Y-85210000D02*
X55810000Y-84160000D01*
X54660000Y-85210000D02*
X55810000Y-85210000D01*
X55810000Y-76040000D02*
X56800000Y-76040000D01*
X55810000Y-74990000D02*
X55810000Y-76040000D01*
X54660000Y-74990000D02*
X55810000Y-74990000D01*
%TO.C,U2*%
X68100000Y-75740000D02*
X71550000Y-75740000D01*
X68100000Y-75740000D02*
X66150000Y-75740000D01*
X68100000Y-80860000D02*
X70050000Y-80860000D01*
X68100000Y-80860000D02*
X66150000Y-80860000D01*
D13*
%TO.C,SW1*%
X90250000Y-52250000D02*
X89850000Y-52500000D01*
X91150000Y-52250000D02*
X91550000Y-52500000D01*
X91550000Y-52950000D02*
X91550000Y-52500000D01*
X89850000Y-52950000D02*
X89850000Y-52500000D01*
X91150000Y-52250000D02*
X90250000Y-52250000D01*
D14*
X88827000Y-55400000D02*
G75*
G03*
X88827000Y-55400000I-127000J0D01*
G01*
D13*
X91550000Y-52950000D02*
X92200000Y-52950000D01*
X89850000Y-52950000D02*
X91550000Y-52950000D01*
X89200000Y-52950000D02*
X89850000Y-52950000D01*
X92200000Y-55450000D02*
X89200000Y-55450000D01*
%TO.C,J18*%
D15*
X50852380Y-79290476D02*
X51566666Y-79290476D01*
X51709523Y-79242857D01*
X51804761Y-79147619D01*
X51852380Y-79004761D01*
X51852380Y-78909523D01*
X51852380Y-80290476D02*
X51852380Y-79719047D01*
X51852380Y-80004761D02*
X50852380Y-80004761D01*
X50995238Y-79909523D01*
X51090476Y-79814285D01*
X51138095Y-79719047D01*
X51280952Y-80861904D02*
X51233333Y-80766666D01*
X51185714Y-80719047D01*
X51090476Y-80671428D01*
X51042857Y-80671428D01*
X50947619Y-80719047D01*
X50900000Y-80766666D01*
X50852380Y-80861904D01*
X50852380Y-81052380D01*
X50900000Y-81147619D01*
X50947619Y-81195238D01*
X51042857Y-81242857D01*
X51090476Y-81242857D01*
X51185714Y-81195238D01*
X51233333Y-81147619D01*
X51280952Y-81052380D01*
X51280952Y-80861904D01*
X51328571Y-80766666D01*
X51376190Y-80719047D01*
X51471428Y-80671428D01*
X51661904Y-80671428D01*
X51757142Y-80719047D01*
X51804761Y-80766666D01*
X51852380Y-80861904D01*
X51852380Y-81052380D01*
X51804761Y-81147619D01*
X51757142Y-81195238D01*
X51661904Y-81242857D01*
X51471428Y-81242857D01*
X51376190Y-81195238D01*
X51328571Y-81147619D01*
X51280952Y-81052380D01*
%TD*%
M02*
