%TF.GenerationSoftware,KiCad,Pcbnew,(5.1.6-0-10_14)*%
%TF.CreationDate,2020-11-09T20:44:41+11:00*%
%TF.ProjectId,spartan_mk1,73706172-7461-46e5-9f6d-6b312e6b6963,rev?*%
%TF.SameCoordinates,Original*%
%TF.FileFunction,Copper,L1,Top*%
%TF.FilePolarity,Positive*%
%FSLAX46Y46*%
G04 Gerber Fmt 4.6, Leading zero omitted, Abs format (unit mm)*
G04 Created by KiCad (PCBNEW (5.1.6-0-10_14)) date 2020-11-09 20:44:41*
%MOMM*%
%LPD*%
G01*
G04 APERTURE LIST*
%TA.AperFunction,SMDPad,CuDef*%
%ADD10R,1.500000X1.900000*%
%TD*%
%TA.AperFunction,ComponentPad*%
%ADD11C,1.450000*%
%TD*%
%TA.AperFunction,SMDPad,CuDef*%
%ADD12R,0.400000X1.350000*%
%TD*%
%TA.AperFunction,ComponentPad*%
%ADD13O,1.200000X1.900000*%
%TD*%
%TA.AperFunction,SMDPad,CuDef*%
%ADD14R,1.200000X1.900000*%
%TD*%
%TA.AperFunction,ComponentPad*%
%ADD15C,6.400000*%
%TD*%
%TA.AperFunction,ComponentPad*%
%ADD16C,0.800000*%
%TD*%
%TA.AperFunction,SMDPad,CuDef*%
%ADD17R,2.400000X0.740000*%
%TD*%
%TA.AperFunction,SMDPad,CuDef*%
%ADD18R,0.900000X1.200000*%
%TD*%
%TA.AperFunction,SMDPad,CuDef*%
%ADD19R,1.300000X1.700000*%
%TD*%
%TA.AperFunction,SMDPad,CuDef*%
%ADD20R,2.500000X1.800000*%
%TD*%
%TA.AperFunction,SMDPad,CuDef*%
%ADD21R,1.800000X2.500000*%
%TD*%
%TA.AperFunction,SMDPad,CuDef*%
%ADD22R,5.700000X1.700000*%
%TD*%
%TA.AperFunction,SMDPad,CuDef*%
%ADD23R,0.800000X0.900000*%
%TD*%
%TA.AperFunction,SMDPad,CuDef*%
%ADD24R,0.900000X0.800000*%
%TD*%
%TA.AperFunction,SMDPad,CuDef*%
%ADD25C,0.100000*%
%TD*%
%TA.AperFunction,SMDPad,CuDef*%
%ADD26R,2.600000X3.100000*%
%TD*%
%TA.AperFunction,Conductor*%
%ADD27R,2.950000X4.500000*%
%TD*%
%TA.AperFunction,SMDPad,CuDef*%
%ADD28R,1.550000X0.600000*%
%TD*%
%TA.AperFunction,ViaPad*%
%ADD29C,0.600000*%
%TD*%
%TA.AperFunction,SMDPad,CuDef*%
%ADD30R,1.400000X1.200000*%
%TD*%
%TA.AperFunction,SMDPad,CuDef*%
%ADD31R,2.000000X1.500000*%
%TD*%
%TA.AperFunction,SMDPad,CuDef*%
%ADD32R,2.000000X3.800000*%
%TD*%
%TA.AperFunction,ViaPad*%
%ADD33C,0.800000*%
%TD*%
%TA.AperFunction,ViaPad*%
%ADD34C,0.450000*%
%TD*%
%TA.AperFunction,ViaPad*%
%ADD35C,1.000000*%
%TD*%
%TA.AperFunction,Conductor*%
%ADD36C,0.250000*%
%TD*%
%TA.AperFunction,Conductor*%
%ADD37C,0.300000*%
%TD*%
%TA.AperFunction,Conductor*%
%ADD38C,0.500000*%
%TD*%
%TA.AperFunction,Conductor*%
%ADD39C,1.000000*%
%TD*%
%TA.AperFunction,Conductor*%
%ADD40C,1.500000*%
%TD*%
%TA.AperFunction,Conductor*%
%ADD41C,0.700000*%
%TD*%
%TA.AperFunction,Conductor*%
%ADD42C,0.200000*%
%TD*%
%TA.AperFunction,Conductor*%
%ADD43C,2.000000*%
%TD*%
%TA.AperFunction,Conductor*%
%ADD44C,0.400000*%
%TD*%
%TA.AperFunction,Conductor*%
%ADD45C,0.254000*%
%TD*%
G04 APERTURE END LIST*
D10*
%TO.P,J1,6*%
%TO.N,Net-(J1-Pad6)*%
X79600000Y-95937500D03*
D11*
X76100000Y-93237500D03*
D12*
%TO.P,J1,2*%
%TO.N,USB_CONN_D-*%
X77950000Y-93237500D03*
%TO.P,J1,1*%
%TO.N,/V_USB*%
X77300000Y-93237500D03*
%TO.P,J1,5*%
%TO.N,GND*%
X79900000Y-93237500D03*
%TO.P,J1,4*%
%TO.N,Net-(J1-Pad4)*%
X79250000Y-93237500D03*
%TO.P,J1,3*%
%TO.N,USB_CONN_D+*%
X78600000Y-93237500D03*
D11*
%TO.P,J1,6*%
%TO.N,Net-(J1-Pad6)*%
X81100000Y-93237500D03*
D10*
X77600000Y-95937500D03*
D13*
X75100000Y-95937500D03*
X82100000Y-95937500D03*
D14*
X81500000Y-95937500D03*
X75700000Y-95937500D03*
%TD*%
%TO.P,J15,MP*%
%TO.N,N/C*%
%TA.AperFunction,SMDPad,CuDef*%
G36*
G01*
X64100000Y-96349999D02*
X64100000Y-97650001D01*
G75*
G02*
X63850001Y-97900000I-249999J0D01*
G01*
X63149999Y-97900000D01*
G75*
G02*
X62900000Y-97650001I0J249999D01*
G01*
X62900000Y-96349999D01*
G75*
G02*
X63149999Y-96100000I249999J0D01*
G01*
X63850001Y-96100000D01*
G75*
G02*
X64100000Y-96349999I0J-249999D01*
G01*
G37*
%TD.AperFunction*%
%TA.AperFunction,SMDPad,CuDef*%
G36*
G01*
X73700000Y-96349999D02*
X73700000Y-97650001D01*
G75*
G02*
X73450001Y-97900000I-249999J0D01*
G01*
X72749999Y-97900000D01*
G75*
G02*
X72500000Y-97650001I0J249999D01*
G01*
X72500000Y-96349999D01*
G75*
G02*
X72749999Y-96100000I249999J0D01*
G01*
X73450001Y-96100000D01*
G75*
G02*
X73700000Y-96349999I0J-249999D01*
G01*
G37*
%TD.AperFunction*%
%TO.P,J15,8*%
%TO.N,GND*%
%TA.AperFunction,SMDPad,CuDef*%
G36*
G01*
X65100000Y-93850000D02*
X65100000Y-95100000D01*
G75*
G02*
X64950000Y-95250000I-150000J0D01*
G01*
X64650000Y-95250000D01*
G75*
G02*
X64500000Y-95100000I0J150000D01*
G01*
X64500000Y-93850000D01*
G75*
G02*
X64650000Y-93700000I150000J0D01*
G01*
X64950000Y-93700000D01*
G75*
G02*
X65100000Y-93850000I0J-150000D01*
G01*
G37*
%TD.AperFunction*%
%TO.P,J15,7*%
%TO.N,/ESC_BAT_SENSE*%
%TA.AperFunction,SMDPad,CuDef*%
G36*
G01*
X66100000Y-93850000D02*
X66100000Y-95100000D01*
G75*
G02*
X65950000Y-95250000I-150000J0D01*
G01*
X65650000Y-95250000D01*
G75*
G02*
X65500000Y-95100000I0J150000D01*
G01*
X65500000Y-93850000D01*
G75*
G02*
X65650000Y-93700000I150000J0D01*
G01*
X65950000Y-93700000D01*
G75*
G02*
X66100000Y-93850000I0J-150000D01*
G01*
G37*
%TD.AperFunction*%
%TO.P,J15,6*%
%TO.N,/ESC_DSHOT_1*%
%TA.AperFunction,SMDPad,CuDef*%
G36*
G01*
X67100000Y-93850000D02*
X67100000Y-95100000D01*
G75*
G02*
X66950000Y-95250000I-150000J0D01*
G01*
X66650000Y-95250000D01*
G75*
G02*
X66500000Y-95100000I0J150000D01*
G01*
X66500000Y-93850000D01*
G75*
G02*
X66650000Y-93700000I150000J0D01*
G01*
X66950000Y-93700000D01*
G75*
G02*
X67100000Y-93850000I0J-150000D01*
G01*
G37*
%TD.AperFunction*%
%TO.P,J15,5*%
%TO.N,/ESC_DSHOT_2*%
%TA.AperFunction,SMDPad,CuDef*%
G36*
G01*
X68100000Y-93850000D02*
X68100000Y-95100000D01*
G75*
G02*
X67950000Y-95250000I-150000J0D01*
G01*
X67650000Y-95250000D01*
G75*
G02*
X67500000Y-95100000I0J150000D01*
G01*
X67500000Y-93850000D01*
G75*
G02*
X67650000Y-93700000I150000J0D01*
G01*
X67950000Y-93700000D01*
G75*
G02*
X68100000Y-93850000I0J-150000D01*
G01*
G37*
%TD.AperFunction*%
%TO.P,J15,4*%
%TO.N,/ESC_DSHOT_3*%
%TA.AperFunction,SMDPad,CuDef*%
G36*
G01*
X69100000Y-93850000D02*
X69100000Y-95100000D01*
G75*
G02*
X68950000Y-95250000I-150000J0D01*
G01*
X68650000Y-95250000D01*
G75*
G02*
X68500000Y-95100000I0J150000D01*
G01*
X68500000Y-93850000D01*
G75*
G02*
X68650000Y-93700000I150000J0D01*
G01*
X68950000Y-93700000D01*
G75*
G02*
X69100000Y-93850000I0J-150000D01*
G01*
G37*
%TD.AperFunction*%
%TO.P,J15,3*%
%TO.N,/ESC_DSHOT_4*%
%TA.AperFunction,SMDPad,CuDef*%
G36*
G01*
X70100000Y-93850000D02*
X70100000Y-95100000D01*
G75*
G02*
X69950000Y-95250000I-150000J0D01*
G01*
X69650000Y-95250000D01*
G75*
G02*
X69500000Y-95100000I0J150000D01*
G01*
X69500000Y-93850000D01*
G75*
G02*
X69650000Y-93700000I150000J0D01*
G01*
X69950000Y-93700000D01*
G75*
G02*
X70100000Y-93850000I0J-150000D01*
G01*
G37*
%TD.AperFunction*%
%TO.P,J15,2*%
%TO.N,/UART3_RX*%
%TA.AperFunction,SMDPad,CuDef*%
G36*
G01*
X71100000Y-93850000D02*
X71100000Y-95100000D01*
G75*
G02*
X70950000Y-95250000I-150000J0D01*
G01*
X70650000Y-95250000D01*
G75*
G02*
X70500000Y-95100000I0J150000D01*
G01*
X70500000Y-93850000D01*
G75*
G02*
X70650000Y-93700000I150000J0D01*
G01*
X70950000Y-93700000D01*
G75*
G02*
X71100000Y-93850000I0J-150000D01*
G01*
G37*
%TD.AperFunction*%
%TO.P,J15,1*%
%TO.N,/CURR_SENSE*%
%TA.AperFunction,SMDPad,CuDef*%
G36*
G01*
X72100000Y-93850000D02*
X72100000Y-95100000D01*
G75*
G02*
X71950000Y-95250000I-150000J0D01*
G01*
X71650000Y-95250000D01*
G75*
G02*
X71500000Y-95100000I0J150000D01*
G01*
X71500000Y-93850000D01*
G75*
G02*
X71650000Y-93700000I150000J0D01*
G01*
X71950000Y-93700000D01*
G75*
G02*
X72100000Y-93850000I0J-150000D01*
G01*
G37*
%TD.AperFunction*%
%TD*%
%TO.P,C11,1*%
%TO.N,+3.3VA*%
%TA.AperFunction,SMDPad,CuDef*%
G36*
G01*
X64298500Y-70873000D02*
X63953500Y-70873000D01*
G75*
G02*
X63806000Y-70725500I0J147500D01*
G01*
X63806000Y-70430500D01*
G75*
G02*
X63953500Y-70283000I147500J0D01*
G01*
X64298500Y-70283000D01*
G75*
G02*
X64446000Y-70430500I0J-147500D01*
G01*
X64446000Y-70725500D01*
G75*
G02*
X64298500Y-70873000I-147500J0D01*
G01*
G37*
%TD.AperFunction*%
%TO.P,C11,2*%
%TO.N,GND*%
%TA.AperFunction,SMDPad,CuDef*%
G36*
G01*
X64298500Y-69903000D02*
X63953500Y-69903000D01*
G75*
G02*
X63806000Y-69755500I0J147500D01*
G01*
X63806000Y-69460500D01*
G75*
G02*
X63953500Y-69313000I147500J0D01*
G01*
X64298500Y-69313000D01*
G75*
G02*
X64446000Y-69460500I0J-147500D01*
G01*
X64446000Y-69755500D01*
G75*
G02*
X64298500Y-69903000I-147500J0D01*
G01*
G37*
%TD.AperFunction*%
%TD*%
%TO.P,J11,1*%
%TO.N,+5V*%
%TA.AperFunction,SMDPad,CuDef*%
G36*
G01*
X94113500Y-63950000D02*
X94113500Y-62450000D01*
G75*
G02*
X94863500Y-61700000I750000J0D01*
G01*
X96363500Y-61700000D01*
G75*
G02*
X97113500Y-62450000I0J-750000D01*
G01*
X97113500Y-63950000D01*
G75*
G02*
X96363500Y-64700000I-750000J0D01*
G01*
X94863500Y-64700000D01*
G75*
G02*
X94113500Y-63950000I0J750000D01*
G01*
G37*
%TD.AperFunction*%
%TO.P,J11,2*%
%TO.N,GND*%
%TA.AperFunction,SMDPad,CuDef*%
G36*
G01*
X94050000Y-67950000D02*
X94050000Y-66450000D01*
G75*
G02*
X94800000Y-65700000I750000J0D01*
G01*
X96300000Y-65700000D01*
G75*
G02*
X97050000Y-66450000I0J-750000D01*
G01*
X97050000Y-67950000D01*
G75*
G02*
X96300000Y-68700000I-750000J0D01*
G01*
X94800000Y-68700000D01*
G75*
G02*
X94050000Y-67950000I0J750000D01*
G01*
G37*
%TD.AperFunction*%
%TD*%
D15*
%TO.P,H3,1*%
%TO.N,GND*%
X90500000Y-60000000D03*
D16*
X92900000Y-60000000D03*
X92197056Y-61697056D03*
X90500000Y-62400000D03*
X88802944Y-61697056D03*
X88100000Y-60000000D03*
X88802944Y-58302944D03*
X90500000Y-57600000D03*
X92197056Y-58302944D03*
%TD*%
D17*
%TO.P,J13,10*%
%TO.N,/NRST*%
X78350000Y-80760000D03*
%TO.P,J13,9*%
%TO.N,GND*%
X82250000Y-80760000D03*
%TO.P,J13,8*%
%TO.N,Net-(J13-Pad8)*%
X78350000Y-82030000D03*
%TO.P,J13,7*%
%TO.N,Net-(J13-Pad7)*%
X82250000Y-82030000D03*
%TO.P,J13,6*%
%TO.N,/SWO*%
X78350000Y-83300000D03*
%TO.P,J13,5*%
%TO.N,GND*%
X82250000Y-83300000D03*
%TO.P,J13,4*%
%TO.N,/SWCLK*%
X78350000Y-84570000D03*
%TO.P,J13,3*%
%TO.N,GND*%
X82250000Y-84570000D03*
%TO.P,J13,2*%
%TO.N,/SWDIO*%
X78350000Y-85840000D03*
%TO.P,J13,1*%
%TO.N,+3V3*%
X82250000Y-85840000D03*
%TD*%
%TO.P,C24,2*%
%TO.N,GND*%
%TA.AperFunction,SMDPad,CuDef*%
G36*
G01*
X79574999Y-59375000D02*
X81625001Y-59375000D01*
G75*
G02*
X81875000Y-59624999I0J-249999D01*
G01*
X81875000Y-61375001D01*
G75*
G02*
X81625001Y-61625000I-249999J0D01*
G01*
X79574999Y-61625000D01*
G75*
G02*
X79325000Y-61375001I0J249999D01*
G01*
X79325000Y-59624999D01*
G75*
G02*
X79574999Y-59375000I249999J0D01*
G01*
G37*
%TD.AperFunction*%
%TO.P,C24,1*%
%TO.N,Net-(C24-Pad1)*%
%TA.AperFunction,SMDPad,CuDef*%
G36*
G01*
X79574999Y-52975000D02*
X81625001Y-52975000D01*
G75*
G02*
X81875000Y-53224999I0J-249999D01*
G01*
X81875000Y-54975001D01*
G75*
G02*
X81625001Y-55225000I-249999J0D01*
G01*
X79574999Y-55225000D01*
G75*
G02*
X79325000Y-54975001I0J249999D01*
G01*
X79325000Y-53224999D01*
G75*
G02*
X79574999Y-52975000I249999J0D01*
G01*
G37*
%TD.AperFunction*%
%TD*%
D18*
%TO.P,D3,2*%
%TO.N,/V_USB*%
X83950000Y-94600000D03*
%TO.P,D3,1*%
%TO.N,+5V*%
X87250000Y-94600000D03*
%TD*%
%TO.P,C1,2*%
%TO.N,+3V3*%
%TA.AperFunction,SMDPad,CuDef*%
G36*
G01*
X85477500Y-76790000D02*
X85822500Y-76790000D01*
G75*
G02*
X85970000Y-76937500I0J-147500D01*
G01*
X85970000Y-77232500D01*
G75*
G02*
X85822500Y-77380000I-147500J0D01*
G01*
X85477500Y-77380000D01*
G75*
G02*
X85330000Y-77232500I0J147500D01*
G01*
X85330000Y-76937500D01*
G75*
G02*
X85477500Y-76790000I147500J0D01*
G01*
G37*
%TD.AperFunction*%
%TO.P,C1,1*%
%TO.N,GND*%
%TA.AperFunction,SMDPad,CuDef*%
G36*
G01*
X85477500Y-75820000D02*
X85822500Y-75820000D01*
G75*
G02*
X85970000Y-75967500I0J-147500D01*
G01*
X85970000Y-76262500D01*
G75*
G02*
X85822500Y-76410000I-147500J0D01*
G01*
X85477500Y-76410000D01*
G75*
G02*
X85330000Y-76262500I0J147500D01*
G01*
X85330000Y-75967500D01*
G75*
G02*
X85477500Y-75820000I147500J0D01*
G01*
G37*
%TD.AperFunction*%
%TD*%
%TO.P,C2,1*%
%TO.N,+3V3*%
%TA.AperFunction,SMDPad,CuDef*%
G36*
G01*
X83130000Y-72077500D02*
X83130000Y-72422500D01*
G75*
G02*
X82982500Y-72570000I-147500J0D01*
G01*
X82687500Y-72570000D01*
G75*
G02*
X82540000Y-72422500I0J147500D01*
G01*
X82540000Y-72077500D01*
G75*
G02*
X82687500Y-71930000I147500J0D01*
G01*
X82982500Y-71930000D01*
G75*
G02*
X83130000Y-72077500I0J-147500D01*
G01*
G37*
%TD.AperFunction*%
%TO.P,C2,2*%
%TO.N,GND*%
%TA.AperFunction,SMDPad,CuDef*%
G36*
G01*
X82160000Y-72077500D02*
X82160000Y-72422500D01*
G75*
G02*
X82012500Y-72570000I-147500J0D01*
G01*
X81717500Y-72570000D01*
G75*
G02*
X81570000Y-72422500I0J147500D01*
G01*
X81570000Y-72077500D01*
G75*
G02*
X81717500Y-71930000I147500J0D01*
G01*
X82012500Y-71930000D01*
G75*
G02*
X82160000Y-72077500I0J-147500D01*
G01*
G37*
%TD.AperFunction*%
%TD*%
%TO.P,C3,1*%
%TO.N,GND*%
%TA.AperFunction,SMDPad,CuDef*%
G36*
G01*
X86884000Y-74927500D02*
X86884000Y-75272500D01*
G75*
G02*
X86736500Y-75420000I-147500J0D01*
G01*
X86441500Y-75420000D01*
G75*
G02*
X86294000Y-75272500I0J147500D01*
G01*
X86294000Y-74927500D01*
G75*
G02*
X86441500Y-74780000I147500J0D01*
G01*
X86736500Y-74780000D01*
G75*
G02*
X86884000Y-74927500I0J-147500D01*
G01*
G37*
%TD.AperFunction*%
%TO.P,C3,2*%
%TO.N,Net-(C3-Pad2)*%
%TA.AperFunction,SMDPad,CuDef*%
G36*
G01*
X85914000Y-74927500D02*
X85914000Y-75272500D01*
G75*
G02*
X85766500Y-75420000I-147500J0D01*
G01*
X85471500Y-75420000D01*
G75*
G02*
X85324000Y-75272500I0J147500D01*
G01*
X85324000Y-74927500D01*
G75*
G02*
X85471500Y-74780000I147500J0D01*
G01*
X85766500Y-74780000D01*
G75*
G02*
X85914000Y-74927500I0J-147500D01*
G01*
G37*
%TD.AperFunction*%
%TD*%
%TO.P,C4,2*%
%TO.N,Net-(C4-Pad2)*%
%TA.AperFunction,SMDPad,CuDef*%
G36*
G01*
X78877500Y-73840000D02*
X79222500Y-73840000D01*
G75*
G02*
X79370000Y-73987500I0J-147500D01*
G01*
X79370000Y-74282500D01*
G75*
G02*
X79222500Y-74430000I-147500J0D01*
G01*
X78877500Y-74430000D01*
G75*
G02*
X78730000Y-74282500I0J147500D01*
G01*
X78730000Y-73987500D01*
G75*
G02*
X78877500Y-73840000I147500J0D01*
G01*
G37*
%TD.AperFunction*%
%TO.P,C4,1*%
%TO.N,GND*%
%TA.AperFunction,SMDPad,CuDef*%
G36*
G01*
X78877500Y-72870000D02*
X79222500Y-72870000D01*
G75*
G02*
X79370000Y-73017500I0J-147500D01*
G01*
X79370000Y-73312500D01*
G75*
G02*
X79222500Y-73460000I-147500J0D01*
G01*
X78877500Y-73460000D01*
G75*
G02*
X78730000Y-73312500I0J147500D01*
G01*
X78730000Y-73017500D01*
G75*
G02*
X78877500Y-72870000I147500J0D01*
G01*
G37*
%TD.AperFunction*%
%TD*%
%TO.P,C5,2*%
%TO.N,GND*%
%TA.AperFunction,SMDPad,CuDef*%
G36*
G01*
X71927500Y-68290000D02*
X72272500Y-68290000D01*
G75*
G02*
X72420000Y-68437500I0J-147500D01*
G01*
X72420000Y-68732500D01*
G75*
G02*
X72272500Y-68880000I-147500J0D01*
G01*
X71927500Y-68880000D01*
G75*
G02*
X71780000Y-68732500I0J147500D01*
G01*
X71780000Y-68437500D01*
G75*
G02*
X71927500Y-68290000I147500J0D01*
G01*
G37*
%TD.AperFunction*%
%TO.P,C5,1*%
%TO.N,HSE_IN*%
%TA.AperFunction,SMDPad,CuDef*%
G36*
G01*
X71927500Y-67320000D02*
X72272500Y-67320000D01*
G75*
G02*
X72420000Y-67467500I0J-147500D01*
G01*
X72420000Y-67762500D01*
G75*
G02*
X72272500Y-67910000I-147500J0D01*
G01*
X71927500Y-67910000D01*
G75*
G02*
X71780000Y-67762500I0J147500D01*
G01*
X71780000Y-67467500D01*
G75*
G02*
X71927500Y-67320000I147500J0D01*
G01*
G37*
%TD.AperFunction*%
%TD*%
%TO.P,C6,1*%
%TO.N,Net-(C6-Pad1)*%
%TA.AperFunction,SMDPad,CuDef*%
G36*
G01*
X66872500Y-68880000D02*
X66527500Y-68880000D01*
G75*
G02*
X66380000Y-68732500I0J147500D01*
G01*
X66380000Y-68437500D01*
G75*
G02*
X66527500Y-68290000I147500J0D01*
G01*
X66872500Y-68290000D01*
G75*
G02*
X67020000Y-68437500I0J-147500D01*
G01*
X67020000Y-68732500D01*
G75*
G02*
X66872500Y-68880000I-147500J0D01*
G01*
G37*
%TD.AperFunction*%
%TO.P,C6,2*%
%TO.N,GND*%
%TA.AperFunction,SMDPad,CuDef*%
G36*
G01*
X66872500Y-67910000D02*
X66527500Y-67910000D01*
G75*
G02*
X66380000Y-67762500I0J147500D01*
G01*
X66380000Y-67467500D01*
G75*
G02*
X66527500Y-67320000I147500J0D01*
G01*
X66872500Y-67320000D01*
G75*
G02*
X67020000Y-67467500I0J-147500D01*
G01*
X67020000Y-67762500D01*
G75*
G02*
X66872500Y-67910000I-147500J0D01*
G01*
G37*
%TD.AperFunction*%
%TD*%
%TO.P,C9,1*%
%TO.N,+3V3*%
%TA.AperFunction,SMDPad,CuDef*%
G36*
G01*
X60127500Y-83120000D02*
X60472500Y-83120000D01*
G75*
G02*
X60620000Y-83267500I0J-147500D01*
G01*
X60620000Y-83562500D01*
G75*
G02*
X60472500Y-83710000I-147500J0D01*
G01*
X60127500Y-83710000D01*
G75*
G02*
X59980000Y-83562500I0J147500D01*
G01*
X59980000Y-83267500D01*
G75*
G02*
X60127500Y-83120000I147500J0D01*
G01*
G37*
%TD.AperFunction*%
%TO.P,C9,2*%
%TO.N,GND*%
%TA.AperFunction,SMDPad,CuDef*%
G36*
G01*
X60127500Y-84090000D02*
X60472500Y-84090000D01*
G75*
G02*
X60620000Y-84237500I0J-147500D01*
G01*
X60620000Y-84532500D01*
G75*
G02*
X60472500Y-84680000I-147500J0D01*
G01*
X60127500Y-84680000D01*
G75*
G02*
X59980000Y-84532500I0J147500D01*
G01*
X59980000Y-84237500D01*
G75*
G02*
X60127500Y-84090000I147500J0D01*
G01*
G37*
%TD.AperFunction*%
%TD*%
%TO.P,C10,2*%
%TO.N,GND*%
%TA.AperFunction,SMDPad,CuDef*%
G36*
G01*
X61227500Y-84090000D02*
X61572500Y-84090000D01*
G75*
G02*
X61720000Y-84237500I0J-147500D01*
G01*
X61720000Y-84532500D01*
G75*
G02*
X61572500Y-84680000I-147500J0D01*
G01*
X61227500Y-84680000D01*
G75*
G02*
X61080000Y-84532500I0J147500D01*
G01*
X61080000Y-84237500D01*
G75*
G02*
X61227500Y-84090000I147500J0D01*
G01*
G37*
%TD.AperFunction*%
%TO.P,C10,1*%
%TO.N,+3V3*%
%TA.AperFunction,SMDPad,CuDef*%
G36*
G01*
X61227500Y-83120000D02*
X61572500Y-83120000D01*
G75*
G02*
X61720000Y-83267500I0J-147500D01*
G01*
X61720000Y-83562500D01*
G75*
G02*
X61572500Y-83710000I-147500J0D01*
G01*
X61227500Y-83710000D01*
G75*
G02*
X61080000Y-83562500I0J147500D01*
G01*
X61080000Y-83267500D01*
G75*
G02*
X61227500Y-83120000I147500J0D01*
G01*
G37*
%TD.AperFunction*%
%TD*%
%TO.P,C12,1*%
%TO.N,+3V3*%
%TA.AperFunction,SMDPad,CuDef*%
G36*
G01*
X72279553Y-73022947D02*
X71934553Y-73022947D01*
G75*
G02*
X71787053Y-72875447I0J147500D01*
G01*
X71787053Y-72580447D01*
G75*
G02*
X71934553Y-72432947I147500J0D01*
G01*
X72279553Y-72432947D01*
G75*
G02*
X72427053Y-72580447I0J-147500D01*
G01*
X72427053Y-72875447D01*
G75*
G02*
X72279553Y-73022947I-147500J0D01*
G01*
G37*
%TD.AperFunction*%
%TO.P,C12,2*%
%TO.N,GND*%
%TA.AperFunction,SMDPad,CuDef*%
G36*
G01*
X72279553Y-72052947D02*
X71934553Y-72052947D01*
G75*
G02*
X71787053Y-71905447I0J147500D01*
G01*
X71787053Y-71610447D01*
G75*
G02*
X71934553Y-71462947I147500J0D01*
G01*
X72279553Y-71462947D01*
G75*
G02*
X72427053Y-71610447I0J-147500D01*
G01*
X72427053Y-71905447D01*
G75*
G02*
X72279553Y-72052947I-147500J0D01*
G01*
G37*
%TD.AperFunction*%
%TD*%
%TO.P,C13,1*%
%TO.N,+3.3VA*%
%TA.AperFunction,SMDPad,CuDef*%
G36*
G01*
X63282500Y-70850000D02*
X62937500Y-70850000D01*
G75*
G02*
X62790000Y-70702500I0J147500D01*
G01*
X62790000Y-70407500D01*
G75*
G02*
X62937500Y-70260000I147500J0D01*
G01*
X63282500Y-70260000D01*
G75*
G02*
X63430000Y-70407500I0J-147500D01*
G01*
X63430000Y-70702500D01*
G75*
G02*
X63282500Y-70850000I-147500J0D01*
G01*
G37*
%TD.AperFunction*%
%TO.P,C13,2*%
%TO.N,GND*%
%TA.AperFunction,SMDPad,CuDef*%
G36*
G01*
X63282500Y-69880000D02*
X62937500Y-69880000D01*
G75*
G02*
X62790000Y-69732500I0J147500D01*
G01*
X62790000Y-69437500D01*
G75*
G02*
X62937500Y-69290000I147500J0D01*
G01*
X63282500Y-69290000D01*
G75*
G02*
X63430000Y-69437500I0J-147500D01*
G01*
X63430000Y-69732500D01*
G75*
G02*
X63282500Y-69880000I-147500J0D01*
G01*
G37*
%TD.AperFunction*%
%TD*%
%TO.P,C14,2*%
%TO.N,GND*%
%TA.AperFunction,SMDPad,CuDef*%
G36*
G01*
X71827500Y-85090000D02*
X72172500Y-85090000D01*
G75*
G02*
X72320000Y-85237500I0J-147500D01*
G01*
X72320000Y-85532500D01*
G75*
G02*
X72172500Y-85680000I-147500J0D01*
G01*
X71827500Y-85680000D01*
G75*
G02*
X71680000Y-85532500I0J147500D01*
G01*
X71680000Y-85237500D01*
G75*
G02*
X71827500Y-85090000I147500J0D01*
G01*
G37*
%TD.AperFunction*%
%TO.P,C14,1*%
%TO.N,+3V3*%
%TA.AperFunction,SMDPad,CuDef*%
G36*
G01*
X71827500Y-84120000D02*
X72172500Y-84120000D01*
G75*
G02*
X72320000Y-84267500I0J-147500D01*
G01*
X72320000Y-84562500D01*
G75*
G02*
X72172500Y-84710000I-147500J0D01*
G01*
X71827500Y-84710000D01*
G75*
G02*
X71680000Y-84562500I0J147500D01*
G01*
X71680000Y-84267500D01*
G75*
G02*
X71827500Y-84120000I147500J0D01*
G01*
G37*
%TD.AperFunction*%
%TD*%
%TO.P,C15,1*%
%TO.N,+3V3*%
%TA.AperFunction,SMDPad,CuDef*%
G36*
G01*
X60172500Y-76480000D02*
X59827500Y-76480000D01*
G75*
G02*
X59680000Y-76332500I0J147500D01*
G01*
X59680000Y-76037500D01*
G75*
G02*
X59827500Y-75890000I147500J0D01*
G01*
X60172500Y-75890000D01*
G75*
G02*
X60320000Y-76037500I0J-147500D01*
G01*
X60320000Y-76332500D01*
G75*
G02*
X60172500Y-76480000I-147500J0D01*
G01*
G37*
%TD.AperFunction*%
%TO.P,C15,2*%
%TO.N,GND*%
%TA.AperFunction,SMDPad,CuDef*%
G36*
G01*
X60172500Y-75510000D02*
X59827500Y-75510000D01*
G75*
G02*
X59680000Y-75362500I0J147500D01*
G01*
X59680000Y-75067500D01*
G75*
G02*
X59827500Y-74920000I147500J0D01*
G01*
X60172500Y-74920000D01*
G75*
G02*
X60320000Y-75067500I0J-147500D01*
G01*
X60320000Y-75362500D01*
G75*
G02*
X60172500Y-75510000I-147500J0D01*
G01*
G37*
%TD.AperFunction*%
%TD*%
%TO.P,C16,2*%
%TO.N,GND*%
%TA.AperFunction,SMDPad,CuDef*%
G36*
G01*
X74440000Y-73972500D02*
X74440000Y-73627500D01*
G75*
G02*
X74587500Y-73480000I147500J0D01*
G01*
X74882500Y-73480000D01*
G75*
G02*
X75030000Y-73627500I0J-147500D01*
G01*
X75030000Y-73972500D01*
G75*
G02*
X74882500Y-74120000I-147500J0D01*
G01*
X74587500Y-74120000D01*
G75*
G02*
X74440000Y-73972500I0J147500D01*
G01*
G37*
%TD.AperFunction*%
%TO.P,C16,1*%
%TO.N,+3V3*%
%TA.AperFunction,SMDPad,CuDef*%
G36*
G01*
X73470000Y-73972500D02*
X73470000Y-73627500D01*
G75*
G02*
X73617500Y-73480000I147500J0D01*
G01*
X73912500Y-73480000D01*
G75*
G02*
X74060000Y-73627500I0J-147500D01*
G01*
X74060000Y-73972500D01*
G75*
G02*
X73912500Y-74120000I-147500J0D01*
G01*
X73617500Y-74120000D01*
G75*
G02*
X73470000Y-73972500I0J147500D01*
G01*
G37*
%TD.AperFunction*%
%TD*%
%TO.P,C18,2*%
%TO.N,GND*%
%TA.AperFunction,SMDPad,CuDef*%
G36*
G01*
X61156250Y-95650000D02*
X60643750Y-95650000D01*
G75*
G02*
X60425000Y-95431250I0J218750D01*
G01*
X60425000Y-94993750D01*
G75*
G02*
X60643750Y-94775000I218750J0D01*
G01*
X61156250Y-94775000D01*
G75*
G02*
X61375000Y-94993750I0J-218750D01*
G01*
X61375000Y-95431250D01*
G75*
G02*
X61156250Y-95650000I-218750J0D01*
G01*
G37*
%TD.AperFunction*%
%TO.P,C18,1*%
%TO.N,/ESC_BAT_SENSE*%
%TA.AperFunction,SMDPad,CuDef*%
G36*
G01*
X61156250Y-97225000D02*
X60643750Y-97225000D01*
G75*
G02*
X60425000Y-97006250I0J218750D01*
G01*
X60425000Y-96568750D01*
G75*
G02*
X60643750Y-96350000I218750J0D01*
G01*
X61156250Y-96350000D01*
G75*
G02*
X61375000Y-96568750I0J-218750D01*
G01*
X61375000Y-97006250D01*
G75*
G02*
X61156250Y-97225000I-218750J0D01*
G01*
G37*
%TD.AperFunction*%
%TD*%
%TO.P,C19,2*%
%TO.N,GND*%
%TA.AperFunction,SMDPad,CuDef*%
G36*
G01*
X87043750Y-65450000D02*
X87956250Y-65450000D01*
G75*
G02*
X88200000Y-65693750I0J-243750D01*
G01*
X88200000Y-66181250D01*
G75*
G02*
X87956250Y-66425000I-243750J0D01*
G01*
X87043750Y-66425000D01*
G75*
G02*
X86800000Y-66181250I0J243750D01*
G01*
X86800000Y-65693750D01*
G75*
G02*
X87043750Y-65450000I243750J0D01*
G01*
G37*
%TD.AperFunction*%
%TO.P,C19,1*%
%TO.N,+5V*%
%TA.AperFunction,SMDPad,CuDef*%
G36*
G01*
X87043750Y-63575000D02*
X87956250Y-63575000D01*
G75*
G02*
X88200000Y-63818750I0J-243750D01*
G01*
X88200000Y-64306250D01*
G75*
G02*
X87956250Y-64550000I-243750J0D01*
G01*
X87043750Y-64550000D01*
G75*
G02*
X86800000Y-64306250I0J243750D01*
G01*
X86800000Y-63818750D01*
G75*
G02*
X87043750Y-63575000I243750J0D01*
G01*
G37*
%TD.AperFunction*%
%TD*%
%TO.P,C20,1*%
%TO.N,Net-(C20-Pad1)*%
%TA.AperFunction,SMDPad,CuDef*%
G36*
G01*
X63025000Y-56425000D02*
X61775000Y-56425000D01*
G75*
G02*
X61525000Y-56175000I0J250000D01*
G01*
X61525000Y-55425000D01*
G75*
G02*
X61775000Y-55175000I250000J0D01*
G01*
X63025000Y-55175000D01*
G75*
G02*
X63275000Y-55425000I0J-250000D01*
G01*
X63275000Y-56175000D01*
G75*
G02*
X63025000Y-56425000I-250000J0D01*
G01*
G37*
%TD.AperFunction*%
%TO.P,C20,2*%
%TO.N,GND*%
%TA.AperFunction,SMDPad,CuDef*%
G36*
G01*
X63025000Y-53625000D02*
X61775000Y-53625000D01*
G75*
G02*
X61525000Y-53375000I0J250000D01*
G01*
X61525000Y-52625000D01*
G75*
G02*
X61775000Y-52375000I250000J0D01*
G01*
X63025000Y-52375000D01*
G75*
G02*
X63275000Y-52625000I0J-250000D01*
G01*
X63275000Y-53375000D01*
G75*
G02*
X63025000Y-53625000I-250000J0D01*
G01*
G37*
%TD.AperFunction*%
%TD*%
%TO.P,C22,1*%
%TO.N,+3V3*%
%TA.AperFunction,SMDPad,CuDef*%
G36*
G01*
X76456250Y-62637500D02*
X75943750Y-62637500D01*
G75*
G02*
X75725000Y-62418750I0J218750D01*
G01*
X75725000Y-61981250D01*
G75*
G02*
X75943750Y-61762500I218750J0D01*
G01*
X76456250Y-61762500D01*
G75*
G02*
X76675000Y-61981250I0J-218750D01*
G01*
X76675000Y-62418750D01*
G75*
G02*
X76456250Y-62637500I-218750J0D01*
G01*
G37*
%TD.AperFunction*%
%TO.P,C22,2*%
%TO.N,GND*%
%TA.AperFunction,SMDPad,CuDef*%
G36*
G01*
X76456250Y-61062500D02*
X75943750Y-61062500D01*
G75*
G02*
X75725000Y-60843750I0J218750D01*
G01*
X75725000Y-60406250D01*
G75*
G02*
X75943750Y-60187500I218750J0D01*
G01*
X76456250Y-60187500D01*
G75*
G02*
X76675000Y-60406250I0J-218750D01*
G01*
X76675000Y-60843750D01*
G75*
G02*
X76456250Y-61062500I-218750J0D01*
G01*
G37*
%TD.AperFunction*%
%TD*%
%TO.P,C23,2*%
%TO.N,Net-(C23-Pad2)*%
%TA.AperFunction,SMDPad,CuDef*%
G36*
G01*
X70971500Y-61960000D02*
X71316500Y-61960000D01*
G75*
G02*
X71464000Y-62107500I0J-147500D01*
G01*
X71464000Y-62402500D01*
G75*
G02*
X71316500Y-62550000I-147500J0D01*
G01*
X70971500Y-62550000D01*
G75*
G02*
X70824000Y-62402500I0J147500D01*
G01*
X70824000Y-62107500D01*
G75*
G02*
X70971500Y-61960000I147500J0D01*
G01*
G37*
%TD.AperFunction*%
%TO.P,C23,1*%
%TO.N,Net-(C23-Pad1)*%
%TA.AperFunction,SMDPad,CuDef*%
G36*
G01*
X70971500Y-60990000D02*
X71316500Y-60990000D01*
G75*
G02*
X71464000Y-61137500I0J-147500D01*
G01*
X71464000Y-61432500D01*
G75*
G02*
X71316500Y-61580000I-147500J0D01*
G01*
X70971500Y-61580000D01*
G75*
G02*
X70824000Y-61432500I0J147500D01*
G01*
X70824000Y-61137500D01*
G75*
G02*
X70971500Y-60990000I147500J0D01*
G01*
G37*
%TD.AperFunction*%
%TD*%
%TO.P,D1,1*%
%TO.N,Net-(D1-Pad1)*%
%TA.AperFunction,SMDPad,CuDef*%
G36*
G01*
X90106250Y-68675000D02*
X89593750Y-68675000D01*
G75*
G02*
X89375000Y-68456250I0J218750D01*
G01*
X89375000Y-68018750D01*
G75*
G02*
X89593750Y-67800000I218750J0D01*
G01*
X90106250Y-67800000D01*
G75*
G02*
X90325000Y-68018750I0J-218750D01*
G01*
X90325000Y-68456250D01*
G75*
G02*
X90106250Y-68675000I-218750J0D01*
G01*
G37*
%TD.AperFunction*%
%TO.P,D1,2*%
%TO.N,+5V*%
%TA.AperFunction,SMDPad,CuDef*%
G36*
G01*
X90106250Y-67100000D02*
X89593750Y-67100000D01*
G75*
G02*
X89375000Y-66881250I0J218750D01*
G01*
X89375000Y-66443750D01*
G75*
G02*
X89593750Y-66225000I218750J0D01*
G01*
X90106250Y-66225000D01*
G75*
G02*
X90325000Y-66443750I0J-218750D01*
G01*
X90325000Y-66881250D01*
G75*
G02*
X90106250Y-67100000I-218750J0D01*
G01*
G37*
%TD.AperFunction*%
%TD*%
%TO.P,D2,2*%
%TO.N,+3V3*%
%TA.AperFunction,SMDPad,CuDef*%
G36*
G01*
X75506250Y-66300000D02*
X74993750Y-66300000D01*
G75*
G02*
X74775000Y-66081250I0J218750D01*
G01*
X74775000Y-65643750D01*
G75*
G02*
X74993750Y-65425000I218750J0D01*
G01*
X75506250Y-65425000D01*
G75*
G02*
X75725000Y-65643750I0J-218750D01*
G01*
X75725000Y-66081250D01*
G75*
G02*
X75506250Y-66300000I-218750J0D01*
G01*
G37*
%TD.AperFunction*%
%TO.P,D2,1*%
%TO.N,Net-(D2-Pad1)*%
%TA.AperFunction,SMDPad,CuDef*%
G36*
G01*
X75506250Y-67875000D02*
X74993750Y-67875000D01*
G75*
G02*
X74775000Y-67656250I0J218750D01*
G01*
X74775000Y-67218750D01*
G75*
G02*
X74993750Y-67000000I218750J0D01*
G01*
X75506250Y-67000000D01*
G75*
G02*
X75725000Y-67218750I0J-218750D01*
G01*
X75725000Y-67656250D01*
G75*
G02*
X75506250Y-67875000I-218750J0D01*
G01*
G37*
%TD.AperFunction*%
%TD*%
D19*
%TO.P,D4,1*%
%TO.N,Net-(C20-Pad1)*%
X61050000Y-65200000D03*
%TO.P,D4,2*%
%TO.N,Net-(D4-Pad2)*%
X64550000Y-65200000D03*
%TD*%
D20*
%TO.P,D5,1*%
%TO.N,Net-(C23-Pad2)*%
X65080000Y-61008000D03*
%TO.P,D5,2*%
%TO.N,GND*%
X69080000Y-61008000D03*
%TD*%
D21*
%TO.P,D6,1*%
%TO.N,+5V*%
X85000000Y-58300000D03*
%TO.P,D6,2*%
%TO.N,Net-(C24-Pad1)*%
X85000000Y-54300000D03*
%TD*%
D15*
%TO.P,H1,1*%
%TO.N,GND*%
X90500000Y-90500000D03*
D16*
X92900000Y-90500000D03*
X92197056Y-92197056D03*
X90500000Y-92900000D03*
X88802944Y-92197056D03*
X88100000Y-90500000D03*
X88802944Y-88802944D03*
X90500000Y-88100000D03*
X92197056Y-88802944D03*
%TD*%
%TO.P,H2,1*%
%TO.N,GND*%
X61697056Y-88802944D03*
X60000000Y-88100000D03*
X58302944Y-88802944D03*
X57600000Y-90500000D03*
X58302944Y-92197056D03*
X60000000Y-92900000D03*
X61697056Y-92197056D03*
X62400000Y-90500000D03*
D15*
X60000000Y-90500000D03*
%TD*%
D16*
%TO.P,H4,1*%
%TO.N,GND*%
X61697056Y-58302944D03*
X60000000Y-57600000D03*
X58302944Y-58302944D03*
X57600000Y-60000000D03*
X58302944Y-61697056D03*
X60000000Y-62400000D03*
X61697056Y-61697056D03*
X62400000Y-60000000D03*
D15*
X60000000Y-60000000D03*
%TD*%
%TO.P,L1,1*%
%TO.N,+3V3*%
%TA.AperFunction,SMDPad,CuDef*%
G36*
G01*
X60820000Y-70772500D02*
X60820000Y-70427500D01*
G75*
G02*
X60967500Y-70280000I147500J0D01*
G01*
X61262500Y-70280000D01*
G75*
G02*
X61410000Y-70427500I0J-147500D01*
G01*
X61410000Y-70772500D01*
G75*
G02*
X61262500Y-70920000I-147500J0D01*
G01*
X60967500Y-70920000D01*
G75*
G02*
X60820000Y-70772500I0J147500D01*
G01*
G37*
%TD.AperFunction*%
%TO.P,L1,2*%
%TO.N,+3.3VA*%
%TA.AperFunction,SMDPad,CuDef*%
G36*
G01*
X61790000Y-70772500D02*
X61790000Y-70427500D01*
G75*
G02*
X61937500Y-70280000I147500J0D01*
G01*
X62232500Y-70280000D01*
G75*
G02*
X62380000Y-70427500I0J-147500D01*
G01*
X62380000Y-70772500D01*
G75*
G02*
X62232500Y-70920000I-147500J0D01*
G01*
X61937500Y-70920000D01*
G75*
G02*
X61790000Y-70772500I0J147500D01*
G01*
G37*
%TD.AperFunction*%
%TD*%
D22*
%TO.P,L2,2*%
%TO.N,Net-(C24-Pad1)*%
X74700000Y-53750000D03*
%TO.P,L2,1*%
%TO.N,Net-(C23-Pad2)*%
X74700000Y-58250000D03*
%TD*%
D23*
%TO.P,Q1,1*%
%TO.N,Net-(Q1-Pad1)*%
X89667000Y-73000500D03*
%TO.P,Q1,2*%
%TO.N,GND*%
X91567000Y-73000500D03*
%TO.P,Q1,3*%
%TO.N,Net-(J12-Pad2)*%
X90617000Y-71000500D03*
%TD*%
D24*
%TO.P,Q2,1*%
%TO.N,Net-(Q2-Pad1)*%
X88630000Y-85532000D03*
%TO.P,Q2,2*%
%TO.N,GND*%
X88630000Y-83632000D03*
%TO.P,Q2,3*%
%TO.N,/SBUS_RX*%
X86630000Y-84582000D03*
%TD*%
%TO.P,Q3,3*%
%TO.N,/Power_Regulation/Vbat*%
X57100000Y-66000000D03*
%TO.P,Q3,2*%
%TO.N,Net-(C20-Pad1)*%
X59100000Y-65050000D03*
%TO.P,Q3,1*%
%TO.N,Net-(D4-Pad2)*%
X59100000Y-66950000D03*
%TD*%
%TO.P,R1,2*%
%TO.N,+3V3*%
%TA.AperFunction,SMDPad,CuDef*%
G36*
G01*
X78877500Y-77840000D02*
X79222500Y-77840000D01*
G75*
G02*
X79370000Y-77987500I0J-147500D01*
G01*
X79370000Y-78282500D01*
G75*
G02*
X79222500Y-78430000I-147500J0D01*
G01*
X78877500Y-78430000D01*
G75*
G02*
X78730000Y-78282500I0J147500D01*
G01*
X78730000Y-77987500D01*
G75*
G02*
X78877500Y-77840000I147500J0D01*
G01*
G37*
%TD.AperFunction*%
%TO.P,R1,1*%
%TO.N,/GYRO_SDA*%
%TA.AperFunction,SMDPad,CuDef*%
G36*
G01*
X78877500Y-76870000D02*
X79222500Y-76870000D01*
G75*
G02*
X79370000Y-77017500I0J-147500D01*
G01*
X79370000Y-77312500D01*
G75*
G02*
X79222500Y-77460000I-147500J0D01*
G01*
X78877500Y-77460000D01*
G75*
G02*
X78730000Y-77312500I0J147500D01*
G01*
X78730000Y-77017500D01*
G75*
G02*
X78877500Y-76870000I147500J0D01*
G01*
G37*
%TD.AperFunction*%
%TD*%
%TO.P,R2,2*%
%TO.N,+3V3*%
%TA.AperFunction,SMDPad,CuDef*%
G36*
G01*
X79222500Y-75460000D02*
X78877500Y-75460000D01*
G75*
G02*
X78730000Y-75312500I0J147500D01*
G01*
X78730000Y-75017500D01*
G75*
G02*
X78877500Y-74870000I147500J0D01*
G01*
X79222500Y-74870000D01*
G75*
G02*
X79370000Y-75017500I0J-147500D01*
G01*
X79370000Y-75312500D01*
G75*
G02*
X79222500Y-75460000I-147500J0D01*
G01*
G37*
%TD.AperFunction*%
%TO.P,R2,1*%
%TO.N,/GYRO_SCL*%
%TA.AperFunction,SMDPad,CuDef*%
G36*
G01*
X79222500Y-76430000D02*
X78877500Y-76430000D01*
G75*
G02*
X78730000Y-76282500I0J147500D01*
G01*
X78730000Y-75987500D01*
G75*
G02*
X78877500Y-75840000I147500J0D01*
G01*
X79222500Y-75840000D01*
G75*
G02*
X79370000Y-75987500I0J-147500D01*
G01*
X79370000Y-76282500D01*
G75*
G02*
X79222500Y-76430000I-147500J0D01*
G01*
G37*
%TD.AperFunction*%
%TD*%
%TO.P,R5,1*%
%TO.N,/BUZZER*%
%TA.AperFunction,SMDPad,CuDef*%
G36*
G01*
X85872500Y-70966500D02*
X86217500Y-70966500D01*
G75*
G02*
X86365000Y-71114000I0J-147500D01*
G01*
X86365000Y-71409000D01*
G75*
G02*
X86217500Y-71556500I-147500J0D01*
G01*
X85872500Y-71556500D01*
G75*
G02*
X85725000Y-71409000I0J147500D01*
G01*
X85725000Y-71114000D01*
G75*
G02*
X85872500Y-70966500I147500J0D01*
G01*
G37*
%TD.AperFunction*%
%TO.P,R5,2*%
%TO.N,GND*%
%TA.AperFunction,SMDPad,CuDef*%
G36*
G01*
X85872500Y-71936500D02*
X86217500Y-71936500D01*
G75*
G02*
X86365000Y-72084000I0J-147500D01*
G01*
X86365000Y-72379000D01*
G75*
G02*
X86217500Y-72526500I-147500J0D01*
G01*
X85872500Y-72526500D01*
G75*
G02*
X85725000Y-72379000I0J147500D01*
G01*
X85725000Y-72084000D01*
G75*
G02*
X85872500Y-71936500I147500J0D01*
G01*
G37*
%TD.AperFunction*%
%TD*%
%TO.P,R6,1*%
%TO.N,Net-(Q1-Pad1)*%
%TA.AperFunction,SMDPad,CuDef*%
G36*
G01*
X88279250Y-73425500D02*
X87366750Y-73425500D01*
G75*
G02*
X87123000Y-73181750I0J243750D01*
G01*
X87123000Y-72694250D01*
G75*
G02*
X87366750Y-72450500I243750J0D01*
G01*
X88279250Y-72450500D01*
G75*
G02*
X88523000Y-72694250I0J-243750D01*
G01*
X88523000Y-73181750D01*
G75*
G02*
X88279250Y-73425500I-243750J0D01*
G01*
G37*
%TD.AperFunction*%
%TO.P,R6,2*%
%TO.N,/BUZZER*%
%TA.AperFunction,SMDPad,CuDef*%
G36*
G01*
X88279250Y-71550500D02*
X87366750Y-71550500D01*
G75*
G02*
X87123000Y-71306750I0J243750D01*
G01*
X87123000Y-70819250D01*
G75*
G02*
X87366750Y-70575500I243750J0D01*
G01*
X88279250Y-70575500D01*
G75*
G02*
X88523000Y-70819250I0J-243750D01*
G01*
X88523000Y-71306750D01*
G75*
G02*
X88279250Y-71550500I-243750J0D01*
G01*
G37*
%TD.AperFunction*%
%TD*%
%TO.P,R9,2*%
%TO.N,GND*%
%TA.AperFunction,SMDPad,CuDef*%
G36*
G01*
X87810000Y-81827500D02*
X87810000Y-82172500D01*
G75*
G02*
X87662500Y-82320000I-147500J0D01*
G01*
X87367500Y-82320000D01*
G75*
G02*
X87220000Y-82172500I0J147500D01*
G01*
X87220000Y-81827500D01*
G75*
G02*
X87367500Y-81680000I147500J0D01*
G01*
X87662500Y-81680000D01*
G75*
G02*
X87810000Y-81827500I0J-147500D01*
G01*
G37*
%TD.AperFunction*%
%TO.P,R9,1*%
%TO.N,/Inputs/SBUS*%
%TA.AperFunction,SMDPad,CuDef*%
G36*
G01*
X88780000Y-81827500D02*
X88780000Y-82172500D01*
G75*
G02*
X88632500Y-82320000I-147500J0D01*
G01*
X88337500Y-82320000D01*
G75*
G02*
X88190000Y-82172500I0J147500D01*
G01*
X88190000Y-81827500D01*
G75*
G02*
X88337500Y-81680000I147500J0D01*
G01*
X88632500Y-81680000D01*
G75*
G02*
X88780000Y-81827500I0J-147500D01*
G01*
G37*
%TD.AperFunction*%
%TD*%
%TO.P,R10,2*%
%TO.N,/Inputs/SBUS*%
%TA.AperFunction,SMDPad,CuDef*%
G36*
G01*
X90880250Y-83560500D02*
X89967750Y-83560500D01*
G75*
G02*
X89724000Y-83316750I0J243750D01*
G01*
X89724000Y-82829250D01*
G75*
G02*
X89967750Y-82585500I243750J0D01*
G01*
X90880250Y-82585500D01*
G75*
G02*
X91124000Y-82829250I0J-243750D01*
G01*
X91124000Y-83316750D01*
G75*
G02*
X90880250Y-83560500I-243750J0D01*
G01*
G37*
%TD.AperFunction*%
%TO.P,R10,1*%
%TO.N,Net-(Q2-Pad1)*%
%TA.AperFunction,SMDPad,CuDef*%
G36*
G01*
X90880250Y-85435500D02*
X89967750Y-85435500D01*
G75*
G02*
X89724000Y-85191750I0J243750D01*
G01*
X89724000Y-84704250D01*
G75*
G02*
X89967750Y-84460500I243750J0D01*
G01*
X90880250Y-84460500D01*
G75*
G02*
X91124000Y-84704250I0J-243750D01*
G01*
X91124000Y-85191750D01*
G75*
G02*
X90880250Y-85435500I-243750J0D01*
G01*
G37*
%TD.AperFunction*%
%TD*%
%TO.P,R11,1*%
%TO.N,+3V3*%
%TA.AperFunction,SMDPad,CuDef*%
G36*
G01*
X85108000Y-83802000D02*
X85453000Y-83802000D01*
G75*
G02*
X85600500Y-83949500I0J-147500D01*
G01*
X85600500Y-84244500D01*
G75*
G02*
X85453000Y-84392000I-147500J0D01*
G01*
X85108000Y-84392000D01*
G75*
G02*
X84960500Y-84244500I0J147500D01*
G01*
X84960500Y-83949500D01*
G75*
G02*
X85108000Y-83802000I147500J0D01*
G01*
G37*
%TD.AperFunction*%
%TO.P,R11,2*%
%TO.N,/SBUS_RX*%
%TA.AperFunction,SMDPad,CuDef*%
G36*
G01*
X85108000Y-84772000D02*
X85453000Y-84772000D01*
G75*
G02*
X85600500Y-84919500I0J-147500D01*
G01*
X85600500Y-85214500D01*
G75*
G02*
X85453000Y-85362000I-147500J0D01*
G01*
X85108000Y-85362000D01*
G75*
G02*
X84960500Y-85214500I0J147500D01*
G01*
X84960500Y-84919500D01*
G75*
G02*
X85108000Y-84772000I147500J0D01*
G01*
G37*
%TD.AperFunction*%
%TD*%
%TO.P,R12,2*%
%TO.N,BOOT0*%
%TA.AperFunction,SMDPad,CuDef*%
G36*
G01*
X87572500Y-54510000D02*
X87227500Y-54510000D01*
G75*
G02*
X87080000Y-54362500I0J147500D01*
G01*
X87080000Y-54067500D01*
G75*
G02*
X87227500Y-53920000I147500J0D01*
G01*
X87572500Y-53920000D01*
G75*
G02*
X87720000Y-54067500I0J-147500D01*
G01*
X87720000Y-54362500D01*
G75*
G02*
X87572500Y-54510000I-147500J0D01*
G01*
G37*
%TD.AperFunction*%
%TO.P,R12,1*%
%TO.N,+3V3*%
%TA.AperFunction,SMDPad,CuDef*%
G36*
G01*
X87572500Y-55480000D02*
X87227500Y-55480000D01*
G75*
G02*
X87080000Y-55332500I0J147500D01*
G01*
X87080000Y-55037500D01*
G75*
G02*
X87227500Y-54890000I147500J0D01*
G01*
X87572500Y-54890000D01*
G75*
G02*
X87720000Y-55037500I0J-147500D01*
G01*
X87720000Y-55332500D01*
G75*
G02*
X87572500Y-55480000I-147500J0D01*
G01*
G37*
%TD.AperFunction*%
%TD*%
%TO.P,R14,1*%
%TO.N,/ESC_1_CS*%
%TA.AperFunction,SMDPad,CuDef*%
G36*
G01*
X65520000Y-88472500D02*
X65520000Y-88127500D01*
G75*
G02*
X65667500Y-87980000I147500J0D01*
G01*
X65962500Y-87980000D01*
G75*
G02*
X66110000Y-88127500I0J-147500D01*
G01*
X66110000Y-88472500D01*
G75*
G02*
X65962500Y-88620000I-147500J0D01*
G01*
X65667500Y-88620000D01*
G75*
G02*
X65520000Y-88472500I0J147500D01*
G01*
G37*
%TD.AperFunction*%
%TO.P,R14,2*%
%TO.N,+3V3*%
%TA.AperFunction,SMDPad,CuDef*%
G36*
G01*
X66490000Y-88472500D02*
X66490000Y-88127500D01*
G75*
G02*
X66637500Y-87980000I147500J0D01*
G01*
X66932500Y-87980000D01*
G75*
G02*
X67080000Y-88127500I0J-147500D01*
G01*
X67080000Y-88472500D01*
G75*
G02*
X66932500Y-88620000I-147500J0D01*
G01*
X66637500Y-88620000D01*
G75*
G02*
X66490000Y-88472500I0J147500D01*
G01*
G37*
%TD.AperFunction*%
%TD*%
%TO.P,R18,2*%
%TO.N,+3V3*%
%TA.AperFunction,SMDPad,CuDef*%
G36*
G01*
X62527500Y-86990000D02*
X62872500Y-86990000D01*
G75*
G02*
X63020000Y-87137500I0J-147500D01*
G01*
X63020000Y-87432500D01*
G75*
G02*
X62872500Y-87580000I-147500J0D01*
G01*
X62527500Y-87580000D01*
G75*
G02*
X62380000Y-87432500I0J147500D01*
G01*
X62380000Y-87137500D01*
G75*
G02*
X62527500Y-86990000I147500J0D01*
G01*
G37*
%TD.AperFunction*%
%TO.P,R18,1*%
%TO.N,/ESC_4_CS*%
%TA.AperFunction,SMDPad,CuDef*%
G36*
G01*
X62527500Y-86020000D02*
X62872500Y-86020000D01*
G75*
G02*
X63020000Y-86167500I0J-147500D01*
G01*
X63020000Y-86462500D01*
G75*
G02*
X62872500Y-86610000I-147500J0D01*
G01*
X62527500Y-86610000D01*
G75*
G02*
X62380000Y-86462500I0J147500D01*
G01*
X62380000Y-86167500D01*
G75*
G02*
X62527500Y-86020000I147500J0D01*
G01*
G37*
%TD.AperFunction*%
%TD*%
%TO.P,R20,1*%
%TO.N,/ESC_3_CS*%
%TA.AperFunction,SMDPad,CuDef*%
G36*
G01*
X63627500Y-85620000D02*
X63972500Y-85620000D01*
G75*
G02*
X64120000Y-85767500I0J-147500D01*
G01*
X64120000Y-86062500D01*
G75*
G02*
X63972500Y-86210000I-147500J0D01*
G01*
X63627500Y-86210000D01*
G75*
G02*
X63480000Y-86062500I0J147500D01*
G01*
X63480000Y-85767500D01*
G75*
G02*
X63627500Y-85620000I147500J0D01*
G01*
G37*
%TD.AperFunction*%
%TO.P,R20,2*%
%TO.N,+3V3*%
%TA.AperFunction,SMDPad,CuDef*%
G36*
G01*
X63627500Y-86590000D02*
X63972500Y-86590000D01*
G75*
G02*
X64120000Y-86737500I0J-147500D01*
G01*
X64120000Y-87032500D01*
G75*
G02*
X63972500Y-87180000I-147500J0D01*
G01*
X63627500Y-87180000D01*
G75*
G02*
X63480000Y-87032500I0J147500D01*
G01*
X63480000Y-86737500D01*
G75*
G02*
X63627500Y-86590000I147500J0D01*
G01*
G37*
%TD.AperFunction*%
%TD*%
%TO.P,R21,2*%
%TO.N,+3V3*%
%TA.AperFunction,SMDPad,CuDef*%
G36*
G01*
X65590000Y-86872500D02*
X65590000Y-86527500D01*
G75*
G02*
X65737500Y-86380000I147500J0D01*
G01*
X66032500Y-86380000D01*
G75*
G02*
X66180000Y-86527500I0J-147500D01*
G01*
X66180000Y-86872500D01*
G75*
G02*
X66032500Y-87020000I-147500J0D01*
G01*
X65737500Y-87020000D01*
G75*
G02*
X65590000Y-86872500I0J147500D01*
G01*
G37*
%TD.AperFunction*%
%TO.P,R21,1*%
%TO.N,/ESC_2_CS*%
%TA.AperFunction,SMDPad,CuDef*%
G36*
G01*
X64620000Y-86872500D02*
X64620000Y-86527500D01*
G75*
G02*
X64767500Y-86380000I147500J0D01*
G01*
X65062500Y-86380000D01*
G75*
G02*
X65210000Y-86527500I0J-147500D01*
G01*
X65210000Y-86872500D01*
G75*
G02*
X65062500Y-87020000I-147500J0D01*
G01*
X64767500Y-87020000D01*
G75*
G02*
X64620000Y-86872500I0J147500D01*
G01*
G37*
%TD.AperFunction*%
%TD*%
%TO.P,R22,1*%
%TO.N,/V_BAT_SENSE*%
%TA.AperFunction,SMDPad,CuDef*%
G36*
G01*
X59043750Y-94775000D02*
X59556250Y-94775000D01*
G75*
G02*
X59775000Y-94993750I0J-218750D01*
G01*
X59775000Y-95431250D01*
G75*
G02*
X59556250Y-95650000I-218750J0D01*
G01*
X59043750Y-95650000D01*
G75*
G02*
X58825000Y-95431250I0J218750D01*
G01*
X58825000Y-94993750D01*
G75*
G02*
X59043750Y-94775000I218750J0D01*
G01*
G37*
%TD.AperFunction*%
%TO.P,R22,2*%
%TO.N,/ESC_BAT_SENSE*%
%TA.AperFunction,SMDPad,CuDef*%
G36*
G01*
X59043750Y-96350000D02*
X59556250Y-96350000D01*
G75*
G02*
X59775000Y-96568750I0J-218750D01*
G01*
X59775000Y-97006250D01*
G75*
G02*
X59556250Y-97225000I-218750J0D01*
G01*
X59043750Y-97225000D01*
G75*
G02*
X58825000Y-97006250I0J218750D01*
G01*
X58825000Y-96568750D01*
G75*
G02*
X59043750Y-96350000I218750J0D01*
G01*
G37*
%TD.AperFunction*%
%TD*%
%TO.P,R23,2*%
%TO.N,/V_BAT_SENSE*%
%TA.AperFunction,SMDPad,CuDef*%
G36*
G01*
X57956250Y-94850000D02*
X57443750Y-94850000D01*
G75*
G02*
X57225000Y-94631250I0J218750D01*
G01*
X57225000Y-94193750D01*
G75*
G02*
X57443750Y-93975000I218750J0D01*
G01*
X57956250Y-93975000D01*
G75*
G02*
X58175000Y-94193750I0J-218750D01*
G01*
X58175000Y-94631250D01*
G75*
G02*
X57956250Y-94850000I-218750J0D01*
G01*
G37*
%TD.AperFunction*%
%TO.P,R23,1*%
%TO.N,GND*%
%TA.AperFunction,SMDPad,CuDef*%
G36*
G01*
X57956250Y-96425000D02*
X57443750Y-96425000D01*
G75*
G02*
X57225000Y-96206250I0J218750D01*
G01*
X57225000Y-95768750D01*
G75*
G02*
X57443750Y-95550000I218750J0D01*
G01*
X57956250Y-95550000D01*
G75*
G02*
X58175000Y-95768750I0J-218750D01*
G01*
X58175000Y-96206250D01*
G75*
G02*
X57956250Y-96425000I-218750J0D01*
G01*
G37*
%TD.AperFunction*%
%TD*%
%TO.P,R24,2*%
%TO.N,GND*%
%TA.AperFunction,SMDPad,CuDef*%
G36*
G01*
X88622500Y-67760000D02*
X88277500Y-67760000D01*
G75*
G02*
X88130000Y-67612500I0J147500D01*
G01*
X88130000Y-67317500D01*
G75*
G02*
X88277500Y-67170000I147500J0D01*
G01*
X88622500Y-67170000D01*
G75*
G02*
X88770000Y-67317500I0J-147500D01*
G01*
X88770000Y-67612500D01*
G75*
G02*
X88622500Y-67760000I-147500J0D01*
G01*
G37*
%TD.AperFunction*%
%TO.P,R24,1*%
%TO.N,Net-(D1-Pad1)*%
%TA.AperFunction,SMDPad,CuDef*%
G36*
G01*
X88622500Y-68730000D02*
X88277500Y-68730000D01*
G75*
G02*
X88130000Y-68582500I0J147500D01*
G01*
X88130000Y-68287500D01*
G75*
G02*
X88277500Y-68140000I147500J0D01*
G01*
X88622500Y-68140000D01*
G75*
G02*
X88770000Y-68287500I0J-147500D01*
G01*
X88770000Y-68582500D01*
G75*
G02*
X88622500Y-68730000I-147500J0D01*
G01*
G37*
%TD.AperFunction*%
%TD*%
%TO.P,R25,1*%
%TO.N,Net-(D2-Pad1)*%
%TA.AperFunction,SMDPad,CuDef*%
G36*
G01*
X74072500Y-65930000D02*
X73727500Y-65930000D01*
G75*
G02*
X73580000Y-65782500I0J147500D01*
G01*
X73580000Y-65487500D01*
G75*
G02*
X73727500Y-65340000I147500J0D01*
G01*
X74072500Y-65340000D01*
G75*
G02*
X74220000Y-65487500I0J-147500D01*
G01*
X74220000Y-65782500D01*
G75*
G02*
X74072500Y-65930000I-147500J0D01*
G01*
G37*
%TD.AperFunction*%
%TO.P,R25,2*%
%TO.N,GND*%
%TA.AperFunction,SMDPad,CuDef*%
G36*
G01*
X74072500Y-64960000D02*
X73727500Y-64960000D01*
G75*
G02*
X73580000Y-64812500I0J147500D01*
G01*
X73580000Y-64517500D01*
G75*
G02*
X73727500Y-64370000I147500J0D01*
G01*
X74072500Y-64370000D01*
G75*
G02*
X74220000Y-64517500I0J-147500D01*
G01*
X74220000Y-64812500D01*
G75*
G02*
X74072500Y-64960000I-147500J0D01*
G01*
G37*
%TD.AperFunction*%
%TD*%
%TO.P,R26,1*%
%TO.N,Net-(D4-Pad2)*%
%TA.AperFunction,SMDPad,CuDef*%
G36*
G01*
X61375000Y-68006250D02*
X61375000Y-67093750D01*
G75*
G02*
X61618750Y-66850000I243750J0D01*
G01*
X62106250Y-66850000D01*
G75*
G02*
X62350000Y-67093750I0J-243750D01*
G01*
X62350000Y-68006250D01*
G75*
G02*
X62106250Y-68250000I-243750J0D01*
G01*
X61618750Y-68250000D01*
G75*
G02*
X61375000Y-68006250I0J243750D01*
G01*
G37*
%TD.AperFunction*%
%TO.P,R26,2*%
%TO.N,GND*%
%TA.AperFunction,SMDPad,CuDef*%
G36*
G01*
X63250000Y-68006250D02*
X63250000Y-67093750D01*
G75*
G02*
X63493750Y-66850000I243750J0D01*
G01*
X63981250Y-66850000D01*
G75*
G02*
X64225000Y-67093750I0J-243750D01*
G01*
X64225000Y-68006250D01*
G75*
G02*
X63981250Y-68250000I-243750J0D01*
G01*
X63493750Y-68250000D01*
G75*
G02*
X63250000Y-68006250I0J243750D01*
G01*
G37*
%TD.AperFunction*%
%TD*%
%TO.P,R27,1*%
%TO.N,Net-(C24-Pad1)*%
%TA.AperFunction,SMDPad,CuDef*%
G36*
G01*
X70795000Y-52827500D02*
X70795000Y-53172500D01*
G75*
G02*
X70647500Y-53320000I-147500J0D01*
G01*
X70352500Y-53320000D01*
G75*
G02*
X70205000Y-53172500I0J147500D01*
G01*
X70205000Y-52827500D01*
G75*
G02*
X70352500Y-52680000I147500J0D01*
G01*
X70647500Y-52680000D01*
G75*
G02*
X70795000Y-52827500I0J-147500D01*
G01*
G37*
%TD.AperFunction*%
%TO.P,R27,2*%
%TO.N,Net-(R27-Pad2)*%
%TA.AperFunction,SMDPad,CuDef*%
G36*
G01*
X69825000Y-52827500D02*
X69825000Y-53172500D01*
G75*
G02*
X69677500Y-53320000I-147500J0D01*
G01*
X69382500Y-53320000D01*
G75*
G02*
X69235000Y-53172500I0J147500D01*
G01*
X69235000Y-52827500D01*
G75*
G02*
X69382500Y-52680000I147500J0D01*
G01*
X69677500Y-52680000D01*
G75*
G02*
X69825000Y-52827500I0J-147500D01*
G01*
G37*
%TD.AperFunction*%
%TD*%
%TO.P,R28,2*%
%TO.N,Net-(R28-Pad2)*%
%TA.AperFunction,SMDPad,CuDef*%
G36*
G01*
X67810000Y-52827500D02*
X67810000Y-53172500D01*
G75*
G02*
X67662500Y-53320000I-147500J0D01*
G01*
X67367500Y-53320000D01*
G75*
G02*
X67220000Y-53172500I0J147500D01*
G01*
X67220000Y-52827500D01*
G75*
G02*
X67367500Y-52680000I147500J0D01*
G01*
X67662500Y-52680000D01*
G75*
G02*
X67810000Y-52827500I0J-147500D01*
G01*
G37*
%TD.AperFunction*%
%TO.P,R28,1*%
%TO.N,Net-(R27-Pad2)*%
%TA.AperFunction,SMDPad,CuDef*%
G36*
G01*
X68780000Y-52827500D02*
X68780000Y-53172500D01*
G75*
G02*
X68632500Y-53320000I-147500J0D01*
G01*
X68337500Y-53320000D01*
G75*
G02*
X68190000Y-53172500I0J147500D01*
G01*
X68190000Y-52827500D01*
G75*
G02*
X68337500Y-52680000I147500J0D01*
G01*
X68632500Y-52680000D01*
G75*
G02*
X68780000Y-52827500I0J-147500D01*
G01*
G37*
%TD.AperFunction*%
%TD*%
%TO.P,R29,1*%
%TO.N,Net-(R28-Pad2)*%
%TA.AperFunction,SMDPad,CuDef*%
G36*
G01*
X66780000Y-52827500D02*
X66780000Y-53172500D01*
G75*
G02*
X66632500Y-53320000I-147500J0D01*
G01*
X66337500Y-53320000D01*
G75*
G02*
X66190000Y-53172500I0J147500D01*
G01*
X66190000Y-52827500D01*
G75*
G02*
X66337500Y-52680000I147500J0D01*
G01*
X66632500Y-52680000D01*
G75*
G02*
X66780000Y-52827500I0J-147500D01*
G01*
G37*
%TD.AperFunction*%
%TO.P,R29,2*%
%TO.N,GND*%
%TA.AperFunction,SMDPad,CuDef*%
G36*
G01*
X65810000Y-52827500D02*
X65810000Y-53172500D01*
G75*
G02*
X65662500Y-53320000I-147500J0D01*
G01*
X65367500Y-53320000D01*
G75*
G02*
X65220000Y-53172500I0J147500D01*
G01*
X65220000Y-52827500D01*
G75*
G02*
X65367500Y-52680000I147500J0D01*
G01*
X65662500Y-52680000D01*
G75*
G02*
X65810000Y-52827500I0J-147500D01*
G01*
G37*
%TD.AperFunction*%
%TD*%
%TO.P,U1,1*%
%TO.N,GND*%
%TA.AperFunction,SMDPad,CuDef*%
G36*
G01*
X81119000Y-77897000D02*
X80969000Y-77897000D01*
G75*
G02*
X80894000Y-77822000I0J75000D01*
G01*
X80894000Y-77122000D01*
G75*
G02*
X80969000Y-77047000I75000J0D01*
G01*
X81119000Y-77047000D01*
G75*
G02*
X81194000Y-77122000I0J-75000D01*
G01*
X81194000Y-77822000D01*
G75*
G02*
X81119000Y-77897000I-75000J0D01*
G01*
G37*
%TD.AperFunction*%
%TO.P,U1,2*%
%TO.N,N/C*%
%TA.AperFunction,SMDPad,CuDef*%
G36*
G01*
X81619000Y-77897000D02*
X81469000Y-77897000D01*
G75*
G02*
X81394000Y-77822000I0J75000D01*
G01*
X81394000Y-77122000D01*
G75*
G02*
X81469000Y-77047000I75000J0D01*
G01*
X81619000Y-77047000D01*
G75*
G02*
X81694000Y-77122000I0J-75000D01*
G01*
X81694000Y-77822000D01*
G75*
G02*
X81619000Y-77897000I-75000J0D01*
G01*
G37*
%TD.AperFunction*%
%TO.P,U1,3*%
%TA.AperFunction,SMDPad,CuDef*%
G36*
G01*
X82119000Y-77897000D02*
X81969000Y-77897000D01*
G75*
G02*
X81894000Y-77822000I0J75000D01*
G01*
X81894000Y-77122000D01*
G75*
G02*
X81969000Y-77047000I75000J0D01*
G01*
X82119000Y-77047000D01*
G75*
G02*
X82194000Y-77122000I0J-75000D01*
G01*
X82194000Y-77822000D01*
G75*
G02*
X82119000Y-77897000I-75000J0D01*
G01*
G37*
%TD.AperFunction*%
%TO.P,U1,4*%
%TA.AperFunction,SMDPad,CuDef*%
G36*
G01*
X82619000Y-77897000D02*
X82469000Y-77897000D01*
G75*
G02*
X82394000Y-77822000I0J75000D01*
G01*
X82394000Y-77122000D01*
G75*
G02*
X82469000Y-77047000I75000J0D01*
G01*
X82619000Y-77047000D01*
G75*
G02*
X82694000Y-77122000I0J-75000D01*
G01*
X82694000Y-77822000D01*
G75*
G02*
X82619000Y-77897000I-75000J0D01*
G01*
G37*
%TD.AperFunction*%
%TO.P,U1,5*%
%TA.AperFunction,SMDPad,CuDef*%
G36*
G01*
X83119000Y-77897000D02*
X82969000Y-77897000D01*
G75*
G02*
X82894000Y-77822000I0J75000D01*
G01*
X82894000Y-77122000D01*
G75*
G02*
X82969000Y-77047000I75000J0D01*
G01*
X83119000Y-77047000D01*
G75*
G02*
X83194000Y-77122000I0J-75000D01*
G01*
X83194000Y-77822000D01*
G75*
G02*
X83119000Y-77897000I-75000J0D01*
G01*
G37*
%TD.AperFunction*%
%TO.P,U1,6*%
%TO.N,Net-(U1-Pad6)*%
%TA.AperFunction,SMDPad,CuDef*%
G36*
G01*
X83619000Y-77897000D02*
X83469000Y-77897000D01*
G75*
G02*
X83394000Y-77822000I0J75000D01*
G01*
X83394000Y-77122000D01*
G75*
G02*
X83469000Y-77047000I75000J0D01*
G01*
X83619000Y-77047000D01*
G75*
G02*
X83694000Y-77122000I0J-75000D01*
G01*
X83694000Y-77822000D01*
G75*
G02*
X83619000Y-77897000I-75000J0D01*
G01*
G37*
%TD.AperFunction*%
%TO.P,U1,7*%
%TO.N,Net-(U1-Pad7)*%
%TA.AperFunction,SMDPad,CuDef*%
G36*
G01*
X84669000Y-76697000D02*
X84669000Y-76847000D01*
G75*
G02*
X84594000Y-76922000I-75000J0D01*
G01*
X83894000Y-76922000D01*
G75*
G02*
X83819000Y-76847000I0J75000D01*
G01*
X83819000Y-76697000D01*
G75*
G02*
X83894000Y-76622000I75000J0D01*
G01*
X84594000Y-76622000D01*
G75*
G02*
X84669000Y-76697000I0J-75000D01*
G01*
G37*
%TD.AperFunction*%
%TO.P,U1,8*%
%TO.N,+3V3*%
%TA.AperFunction,SMDPad,CuDef*%
G36*
G01*
X84669000Y-76197000D02*
X84669000Y-76347000D01*
G75*
G02*
X84594000Y-76422000I-75000J0D01*
G01*
X83894000Y-76422000D01*
G75*
G02*
X83819000Y-76347000I0J75000D01*
G01*
X83819000Y-76197000D01*
G75*
G02*
X83894000Y-76122000I75000J0D01*
G01*
X84594000Y-76122000D01*
G75*
G02*
X84669000Y-76197000I0J-75000D01*
G01*
G37*
%TD.AperFunction*%
%TO.P,U1,9*%
%TO.N,GND*%
%TA.AperFunction,SMDPad,CuDef*%
G36*
G01*
X84669000Y-75697000D02*
X84669000Y-75847000D01*
G75*
G02*
X84594000Y-75922000I-75000J0D01*
G01*
X83894000Y-75922000D01*
G75*
G02*
X83819000Y-75847000I0J75000D01*
G01*
X83819000Y-75697000D01*
G75*
G02*
X83894000Y-75622000I75000J0D01*
G01*
X84594000Y-75622000D01*
G75*
G02*
X84669000Y-75697000I0J-75000D01*
G01*
G37*
%TD.AperFunction*%
%TO.P,U1,10*%
%TO.N,Net-(C3-Pad2)*%
%TA.AperFunction,SMDPad,CuDef*%
G36*
G01*
X84669000Y-75197000D02*
X84669000Y-75347000D01*
G75*
G02*
X84594000Y-75422000I-75000J0D01*
G01*
X83894000Y-75422000D01*
G75*
G02*
X83819000Y-75347000I0J75000D01*
G01*
X83819000Y-75197000D01*
G75*
G02*
X83894000Y-75122000I75000J0D01*
G01*
X84594000Y-75122000D01*
G75*
G02*
X84669000Y-75197000I0J-75000D01*
G01*
G37*
%TD.AperFunction*%
%TO.P,U1,11*%
%TO.N,/GYRO_FSYNC*%
%TA.AperFunction,SMDPad,CuDef*%
G36*
G01*
X84669000Y-74697000D02*
X84669000Y-74847000D01*
G75*
G02*
X84594000Y-74922000I-75000J0D01*
G01*
X83894000Y-74922000D01*
G75*
G02*
X83819000Y-74847000I0J75000D01*
G01*
X83819000Y-74697000D01*
G75*
G02*
X83894000Y-74622000I75000J0D01*
G01*
X84594000Y-74622000D01*
G75*
G02*
X84669000Y-74697000I0J-75000D01*
G01*
G37*
%TD.AperFunction*%
%TO.P,U1,12*%
%TO.N,/GYRO_INT*%
%TA.AperFunction,SMDPad,CuDef*%
G36*
G01*
X84669000Y-74197000D02*
X84669000Y-74347000D01*
G75*
G02*
X84594000Y-74422000I-75000J0D01*
G01*
X83894000Y-74422000D01*
G75*
G02*
X83819000Y-74347000I0J75000D01*
G01*
X83819000Y-74197000D01*
G75*
G02*
X83894000Y-74122000I75000J0D01*
G01*
X84594000Y-74122000D01*
G75*
G02*
X84669000Y-74197000I0J-75000D01*
G01*
G37*
%TD.AperFunction*%
%TO.P,U1,13*%
%TO.N,+3V3*%
%TA.AperFunction,SMDPad,CuDef*%
G36*
G01*
X83619000Y-73997000D02*
X83469000Y-73997000D01*
G75*
G02*
X83394000Y-73922000I0J75000D01*
G01*
X83394000Y-73222000D01*
G75*
G02*
X83469000Y-73147000I75000J0D01*
G01*
X83619000Y-73147000D01*
G75*
G02*
X83694000Y-73222000I0J-75000D01*
G01*
X83694000Y-73922000D01*
G75*
G02*
X83619000Y-73997000I-75000J0D01*
G01*
G37*
%TD.AperFunction*%
%TO.P,U1,14*%
%TO.N,N/C*%
%TA.AperFunction,SMDPad,CuDef*%
G36*
G01*
X83119000Y-73997000D02*
X82969000Y-73997000D01*
G75*
G02*
X82894000Y-73922000I0J75000D01*
G01*
X82894000Y-73222000D01*
G75*
G02*
X82969000Y-73147000I75000J0D01*
G01*
X83119000Y-73147000D01*
G75*
G02*
X83194000Y-73222000I0J-75000D01*
G01*
X83194000Y-73922000D01*
G75*
G02*
X83119000Y-73997000I-75000J0D01*
G01*
G37*
%TD.AperFunction*%
%TO.P,U1,15*%
%TA.AperFunction,SMDPad,CuDef*%
G36*
G01*
X82619000Y-73997000D02*
X82469000Y-73997000D01*
G75*
G02*
X82394000Y-73922000I0J75000D01*
G01*
X82394000Y-73222000D01*
G75*
G02*
X82469000Y-73147000I75000J0D01*
G01*
X82619000Y-73147000D01*
G75*
G02*
X82694000Y-73222000I0J-75000D01*
G01*
X82694000Y-73922000D01*
G75*
G02*
X82619000Y-73997000I-75000J0D01*
G01*
G37*
%TD.AperFunction*%
%TO.P,U1,16*%
%TA.AperFunction,SMDPad,CuDef*%
G36*
G01*
X82119000Y-73997000D02*
X81969000Y-73997000D01*
G75*
G02*
X81894000Y-73922000I0J75000D01*
G01*
X81894000Y-73222000D01*
G75*
G02*
X81969000Y-73147000I75000J0D01*
G01*
X82119000Y-73147000D01*
G75*
G02*
X82194000Y-73222000I0J-75000D01*
G01*
X82194000Y-73922000D01*
G75*
G02*
X82119000Y-73997000I-75000J0D01*
G01*
G37*
%TD.AperFunction*%
%TO.P,U1,17*%
%TA.AperFunction,SMDPad,CuDef*%
G36*
G01*
X81619000Y-73997000D02*
X81469000Y-73997000D01*
G75*
G02*
X81394000Y-73922000I0J75000D01*
G01*
X81394000Y-73222000D01*
G75*
G02*
X81469000Y-73147000I75000J0D01*
G01*
X81619000Y-73147000D01*
G75*
G02*
X81694000Y-73222000I0J-75000D01*
G01*
X81694000Y-73922000D01*
G75*
G02*
X81619000Y-73997000I-75000J0D01*
G01*
G37*
%TD.AperFunction*%
%TO.P,U1,18*%
%TO.N,GND*%
%TA.AperFunction,SMDPad,CuDef*%
G36*
G01*
X81119000Y-73997000D02*
X80969000Y-73997000D01*
G75*
G02*
X80894000Y-73922000I0J75000D01*
G01*
X80894000Y-73222000D01*
G75*
G02*
X80969000Y-73147000I75000J0D01*
G01*
X81119000Y-73147000D01*
G75*
G02*
X81194000Y-73222000I0J-75000D01*
G01*
X81194000Y-73922000D01*
G75*
G02*
X81119000Y-73997000I-75000J0D01*
G01*
G37*
%TD.AperFunction*%
%TO.P,U1,19*%
%TO.N,N/C*%
%TA.AperFunction,SMDPad,CuDef*%
G36*
G01*
X80769000Y-74197000D02*
X80769000Y-74347000D01*
G75*
G02*
X80694000Y-74422000I-75000J0D01*
G01*
X79994000Y-74422000D01*
G75*
G02*
X79919000Y-74347000I0J75000D01*
G01*
X79919000Y-74197000D01*
G75*
G02*
X79994000Y-74122000I75000J0D01*
G01*
X80694000Y-74122000D01*
G75*
G02*
X80769000Y-74197000I0J-75000D01*
G01*
G37*
%TD.AperFunction*%
%TO.P,U1,20*%
%TO.N,Net-(C4-Pad2)*%
%TA.AperFunction,SMDPad,CuDef*%
G36*
G01*
X80769000Y-74697000D02*
X80769000Y-74847000D01*
G75*
G02*
X80694000Y-74922000I-75000J0D01*
G01*
X79994000Y-74922000D01*
G75*
G02*
X79919000Y-74847000I0J75000D01*
G01*
X79919000Y-74697000D01*
G75*
G02*
X79994000Y-74622000I75000J0D01*
G01*
X80694000Y-74622000D01*
G75*
G02*
X80769000Y-74697000I0J-75000D01*
G01*
G37*
%TD.AperFunction*%
%TO.P,U1,21*%
%TO.N,N/C*%
%TA.AperFunction,SMDPad,CuDef*%
G36*
G01*
X80769000Y-75197000D02*
X80769000Y-75347000D01*
G75*
G02*
X80694000Y-75422000I-75000J0D01*
G01*
X79994000Y-75422000D01*
G75*
G02*
X79919000Y-75347000I0J75000D01*
G01*
X79919000Y-75197000D01*
G75*
G02*
X79994000Y-75122000I75000J0D01*
G01*
X80694000Y-75122000D01*
G75*
G02*
X80769000Y-75197000I0J-75000D01*
G01*
G37*
%TD.AperFunction*%
%TO.P,U1,22*%
%TA.AperFunction,SMDPad,CuDef*%
G36*
G01*
X80769000Y-75697000D02*
X80769000Y-75847000D01*
G75*
G02*
X80694000Y-75922000I-75000J0D01*
G01*
X79994000Y-75922000D01*
G75*
G02*
X79919000Y-75847000I0J75000D01*
G01*
X79919000Y-75697000D01*
G75*
G02*
X79994000Y-75622000I75000J0D01*
G01*
X80694000Y-75622000D01*
G75*
G02*
X80769000Y-75697000I0J-75000D01*
G01*
G37*
%TD.AperFunction*%
%TO.P,U1,23*%
%TO.N,/GYRO_SCL*%
%TA.AperFunction,SMDPad,CuDef*%
G36*
G01*
X80769000Y-76197000D02*
X80769000Y-76347000D01*
G75*
G02*
X80694000Y-76422000I-75000J0D01*
G01*
X79994000Y-76422000D01*
G75*
G02*
X79919000Y-76347000I0J75000D01*
G01*
X79919000Y-76197000D01*
G75*
G02*
X79994000Y-76122000I75000J0D01*
G01*
X80694000Y-76122000D01*
G75*
G02*
X80769000Y-76197000I0J-75000D01*
G01*
G37*
%TD.AperFunction*%
%TO.P,U1,24*%
%TO.N,/GYRO_SDA*%
%TA.AperFunction,SMDPad,CuDef*%
G36*
G01*
X80769000Y-76697000D02*
X80769000Y-76847000D01*
G75*
G02*
X80694000Y-76922000I-75000J0D01*
G01*
X79994000Y-76922000D01*
G75*
G02*
X79919000Y-76847000I0J75000D01*
G01*
X79919000Y-76697000D01*
G75*
G02*
X79994000Y-76622000I75000J0D01*
G01*
X80694000Y-76622000D01*
G75*
G02*
X80769000Y-76697000I0J-75000D01*
G01*
G37*
%TD.AperFunction*%
%TD*%
%TA.AperFunction,SMDPad,CuDef*%
D25*
%TO.P,U3,1*%
%TO.N,USB_CONN_D-*%
G36*
X74810642Y-90344526D02*
G01*
X74351023Y-90804145D01*
X73601490Y-90054612D01*
X74061109Y-89594993D01*
X74810642Y-90344526D01*
G37*
%TD.AperFunction*%
%TA.AperFunction,SMDPad,CuDef*%
%TO.P,U3,2*%
%TO.N,GND*%
G36*
X75482393Y-89672774D02*
G01*
X75022774Y-90132393D01*
X74273241Y-89382860D01*
X74732860Y-88923241D01*
X75482393Y-89672774D01*
G37*
%TD.AperFunction*%
%TA.AperFunction,SMDPad,CuDef*%
%TO.P,U3,3*%
%TO.N,USB_CONN_D+*%
G36*
X76154145Y-89001023D02*
G01*
X75694526Y-89460642D01*
X74944993Y-88711109D01*
X75404612Y-88251490D01*
X76154145Y-89001023D01*
G37*
%TD.AperFunction*%
%TA.AperFunction,SMDPad,CuDef*%
%TO.P,U3,4*%
%TO.N,/USB_D+*%
G36*
X74598510Y-87445388D02*
G01*
X74138891Y-87905007D01*
X73389358Y-87155474D01*
X73848977Y-86695855D01*
X74598510Y-87445388D01*
G37*
%TD.AperFunction*%
%TA.AperFunction,SMDPad,CuDef*%
%TO.P,U3,6*%
%TO.N,/USB_D-*%
G36*
X73255007Y-88788891D02*
G01*
X72795388Y-89248510D01*
X72045855Y-88498977D01*
X72505474Y-88039358D01*
X73255007Y-88788891D01*
G37*
%TD.AperFunction*%
%TA.AperFunction,SMDPad,CuDef*%
%TO.P,U3,5*%
%TO.N,/V_USB*%
G36*
X73926759Y-88117140D02*
G01*
X73467140Y-88576759D01*
X72717607Y-87827226D01*
X73177226Y-87367607D01*
X73926759Y-88117140D01*
G37*
%TD.AperFunction*%
%TD*%
%TO.P,U4,1*%
%TO.N,+3V3*%
%TA.AperFunction,SMDPad,CuDef*%
G36*
G01*
X70975000Y-72150000D02*
X71125000Y-72150000D01*
G75*
G02*
X71200000Y-72225000I0J-75000D01*
G01*
X71200000Y-73625000D01*
G75*
G02*
X71125000Y-73700000I-75000J0D01*
G01*
X70975000Y-73700000D01*
G75*
G02*
X70900000Y-73625000I0J75000D01*
G01*
X70900000Y-72225000D01*
G75*
G02*
X70975000Y-72150000I75000J0D01*
G01*
G37*
%TD.AperFunction*%
%TO.P,U4,2*%
%TO.N,Net-(U4-Pad2)*%
%TA.AperFunction,SMDPad,CuDef*%
G36*
G01*
X70475000Y-72150000D02*
X70625000Y-72150000D01*
G75*
G02*
X70700000Y-72225000I0J-75000D01*
G01*
X70700000Y-73625000D01*
G75*
G02*
X70625000Y-73700000I-75000J0D01*
G01*
X70475000Y-73700000D01*
G75*
G02*
X70400000Y-73625000I0J75000D01*
G01*
X70400000Y-72225000D01*
G75*
G02*
X70475000Y-72150000I75000J0D01*
G01*
G37*
%TD.AperFunction*%
%TO.P,U4,3*%
%TO.N,Net-(U4-Pad3)*%
%TA.AperFunction,SMDPad,CuDef*%
G36*
G01*
X69975000Y-72150000D02*
X70125000Y-72150000D01*
G75*
G02*
X70200000Y-72225000I0J-75000D01*
G01*
X70200000Y-73625000D01*
G75*
G02*
X70125000Y-73700000I-75000J0D01*
G01*
X69975000Y-73700000D01*
G75*
G02*
X69900000Y-73625000I0J75000D01*
G01*
X69900000Y-72225000D01*
G75*
G02*
X69975000Y-72150000I75000J0D01*
G01*
G37*
%TD.AperFunction*%
%TO.P,U4,4*%
%TO.N,Net-(U4-Pad4)*%
%TA.AperFunction,SMDPad,CuDef*%
G36*
G01*
X69475000Y-72150000D02*
X69625000Y-72150000D01*
G75*
G02*
X69700000Y-72225000I0J-75000D01*
G01*
X69700000Y-73625000D01*
G75*
G02*
X69625000Y-73700000I-75000J0D01*
G01*
X69475000Y-73700000D01*
G75*
G02*
X69400000Y-73625000I0J75000D01*
G01*
X69400000Y-72225000D01*
G75*
G02*
X69475000Y-72150000I75000J0D01*
G01*
G37*
%TD.AperFunction*%
%TO.P,U4,5*%
%TO.N,HSE_IN*%
%TA.AperFunction,SMDPad,CuDef*%
G36*
G01*
X68975000Y-72150000D02*
X69125000Y-72150000D01*
G75*
G02*
X69200000Y-72225000I0J-75000D01*
G01*
X69200000Y-73625000D01*
G75*
G02*
X69125000Y-73700000I-75000J0D01*
G01*
X68975000Y-73700000D01*
G75*
G02*
X68900000Y-73625000I0J75000D01*
G01*
X68900000Y-72225000D01*
G75*
G02*
X68975000Y-72150000I75000J0D01*
G01*
G37*
%TD.AperFunction*%
%TO.P,U4,6*%
%TO.N,HSE_OUT*%
%TA.AperFunction,SMDPad,CuDef*%
G36*
G01*
X68475000Y-72150000D02*
X68625000Y-72150000D01*
G75*
G02*
X68700000Y-72225000I0J-75000D01*
G01*
X68700000Y-73625000D01*
G75*
G02*
X68625000Y-73700000I-75000J0D01*
G01*
X68475000Y-73700000D01*
G75*
G02*
X68400000Y-73625000I0J75000D01*
G01*
X68400000Y-72225000D01*
G75*
G02*
X68475000Y-72150000I75000J0D01*
G01*
G37*
%TD.AperFunction*%
%TO.P,U4,7*%
%TO.N,/NRST*%
%TA.AperFunction,SMDPad,CuDef*%
G36*
G01*
X67975000Y-72150000D02*
X68125000Y-72150000D01*
G75*
G02*
X68200000Y-72225000I0J-75000D01*
G01*
X68200000Y-73625000D01*
G75*
G02*
X68125000Y-73700000I-75000J0D01*
G01*
X67975000Y-73700000D01*
G75*
G02*
X67900000Y-73625000I0J75000D01*
G01*
X67900000Y-72225000D01*
G75*
G02*
X67975000Y-72150000I75000J0D01*
G01*
G37*
%TD.AperFunction*%
%TO.P,U4,8*%
%TO.N,/CURR_SENSE*%
%TA.AperFunction,SMDPad,CuDef*%
G36*
G01*
X67475000Y-72150000D02*
X67625000Y-72150000D01*
G75*
G02*
X67700000Y-72225000I0J-75000D01*
G01*
X67700000Y-73625000D01*
G75*
G02*
X67625000Y-73700000I-75000J0D01*
G01*
X67475000Y-73700000D01*
G75*
G02*
X67400000Y-73625000I0J75000D01*
G01*
X67400000Y-72225000D01*
G75*
G02*
X67475000Y-72150000I75000J0D01*
G01*
G37*
%TD.AperFunction*%
%TO.P,U4,9*%
%TO.N,/GEN_ADC*%
%TA.AperFunction,SMDPad,CuDef*%
G36*
G01*
X66975000Y-72150000D02*
X67125000Y-72150000D01*
G75*
G02*
X67200000Y-72225000I0J-75000D01*
G01*
X67200000Y-73625000D01*
G75*
G02*
X67125000Y-73700000I-75000J0D01*
G01*
X66975000Y-73700000D01*
G75*
G02*
X66900000Y-73625000I0J75000D01*
G01*
X66900000Y-72225000D01*
G75*
G02*
X66975000Y-72150000I75000J0D01*
G01*
G37*
%TD.AperFunction*%
%TO.P,U4,10*%
%TO.N,Net-(U4-Pad10)*%
%TA.AperFunction,SMDPad,CuDef*%
G36*
G01*
X66475000Y-72150000D02*
X66625000Y-72150000D01*
G75*
G02*
X66700000Y-72225000I0J-75000D01*
G01*
X66700000Y-73625000D01*
G75*
G02*
X66625000Y-73700000I-75000J0D01*
G01*
X66475000Y-73700000D01*
G75*
G02*
X66400000Y-73625000I0J75000D01*
G01*
X66400000Y-72225000D01*
G75*
G02*
X66475000Y-72150000I75000J0D01*
G01*
G37*
%TD.AperFunction*%
%TO.P,U4,11*%
%TO.N,Net-(U4-Pad11)*%
%TA.AperFunction,SMDPad,CuDef*%
G36*
G01*
X65975000Y-72150000D02*
X66125000Y-72150000D01*
G75*
G02*
X66200000Y-72225000I0J-75000D01*
G01*
X66200000Y-73625000D01*
G75*
G02*
X66125000Y-73700000I-75000J0D01*
G01*
X65975000Y-73700000D01*
G75*
G02*
X65900000Y-73625000I0J75000D01*
G01*
X65900000Y-72225000D01*
G75*
G02*
X65975000Y-72150000I75000J0D01*
G01*
G37*
%TD.AperFunction*%
%TO.P,U4,12*%
%TO.N,GND*%
%TA.AperFunction,SMDPad,CuDef*%
G36*
G01*
X65475000Y-72150000D02*
X65625000Y-72150000D01*
G75*
G02*
X65700000Y-72225000I0J-75000D01*
G01*
X65700000Y-73625000D01*
G75*
G02*
X65625000Y-73700000I-75000J0D01*
G01*
X65475000Y-73700000D01*
G75*
G02*
X65400000Y-73625000I0J75000D01*
G01*
X65400000Y-72225000D01*
G75*
G02*
X65475000Y-72150000I75000J0D01*
G01*
G37*
%TD.AperFunction*%
%TO.P,U4,13*%
%TO.N,+3.3VA*%
%TA.AperFunction,SMDPad,CuDef*%
G36*
G01*
X64975000Y-72150000D02*
X65125000Y-72150000D01*
G75*
G02*
X65200000Y-72225000I0J-75000D01*
G01*
X65200000Y-73625000D01*
G75*
G02*
X65125000Y-73700000I-75000J0D01*
G01*
X64975000Y-73700000D01*
G75*
G02*
X64900000Y-73625000I0J75000D01*
G01*
X64900000Y-72225000D01*
G75*
G02*
X64975000Y-72150000I75000J0D01*
G01*
G37*
%TD.AperFunction*%
%TO.P,U4,14*%
%TO.N,/UART4_TX*%
%TA.AperFunction,SMDPad,CuDef*%
G36*
G01*
X64475000Y-72150000D02*
X64625000Y-72150000D01*
G75*
G02*
X64700000Y-72225000I0J-75000D01*
G01*
X64700000Y-73625000D01*
G75*
G02*
X64625000Y-73700000I-75000J0D01*
G01*
X64475000Y-73700000D01*
G75*
G02*
X64400000Y-73625000I0J75000D01*
G01*
X64400000Y-72225000D01*
G75*
G02*
X64475000Y-72150000I75000J0D01*
G01*
G37*
%TD.AperFunction*%
%TO.P,U4,15*%
%TO.N,/UART4_RX*%
%TA.AperFunction,SMDPad,CuDef*%
G36*
G01*
X63975000Y-72150000D02*
X64125000Y-72150000D01*
G75*
G02*
X64200000Y-72225000I0J-75000D01*
G01*
X64200000Y-73625000D01*
G75*
G02*
X64125000Y-73700000I-75000J0D01*
G01*
X63975000Y-73700000D01*
G75*
G02*
X63900000Y-73625000I0J75000D01*
G01*
X63900000Y-72225000D01*
G75*
G02*
X63975000Y-72150000I75000J0D01*
G01*
G37*
%TD.AperFunction*%
%TO.P,U4,16*%
%TO.N,/UART2_TX*%
%TA.AperFunction,SMDPad,CuDef*%
G36*
G01*
X63475000Y-72150000D02*
X63625000Y-72150000D01*
G75*
G02*
X63700000Y-72225000I0J-75000D01*
G01*
X63700000Y-73625000D01*
G75*
G02*
X63625000Y-73700000I-75000J0D01*
G01*
X63475000Y-73700000D01*
G75*
G02*
X63400000Y-73625000I0J75000D01*
G01*
X63400000Y-72225000D01*
G75*
G02*
X63475000Y-72150000I75000J0D01*
G01*
G37*
%TD.AperFunction*%
%TO.P,U4,17*%
%TO.N,/UART2_RX*%
%TA.AperFunction,SMDPad,CuDef*%
G36*
G01*
X60925000Y-74700000D02*
X62325000Y-74700000D01*
G75*
G02*
X62400000Y-74775000I0J-75000D01*
G01*
X62400000Y-74925000D01*
G75*
G02*
X62325000Y-75000000I-75000J0D01*
G01*
X60925000Y-75000000D01*
G75*
G02*
X60850000Y-74925000I0J75000D01*
G01*
X60850000Y-74775000D01*
G75*
G02*
X60925000Y-74700000I75000J0D01*
G01*
G37*
%TD.AperFunction*%
%TO.P,U4,18*%
%TO.N,GND*%
%TA.AperFunction,SMDPad,CuDef*%
G36*
G01*
X60925000Y-75200000D02*
X62325000Y-75200000D01*
G75*
G02*
X62400000Y-75275000I0J-75000D01*
G01*
X62400000Y-75425000D01*
G75*
G02*
X62325000Y-75500000I-75000J0D01*
G01*
X60925000Y-75500000D01*
G75*
G02*
X60850000Y-75425000I0J75000D01*
G01*
X60850000Y-75275000D01*
G75*
G02*
X60925000Y-75200000I75000J0D01*
G01*
G37*
%TD.AperFunction*%
%TO.P,U4,19*%
%TO.N,+3V3*%
%TA.AperFunction,SMDPad,CuDef*%
G36*
G01*
X60925000Y-75700000D02*
X62325000Y-75700000D01*
G75*
G02*
X62400000Y-75775000I0J-75000D01*
G01*
X62400000Y-75925000D01*
G75*
G02*
X62325000Y-76000000I-75000J0D01*
G01*
X60925000Y-76000000D01*
G75*
G02*
X60850000Y-75925000I0J75000D01*
G01*
X60850000Y-75775000D01*
G75*
G02*
X60925000Y-75700000I75000J0D01*
G01*
G37*
%TD.AperFunction*%
%TO.P,U4,20*%
%TO.N,Net-(U4-Pad20)*%
%TA.AperFunction,SMDPad,CuDef*%
G36*
G01*
X60925000Y-76200000D02*
X62325000Y-76200000D01*
G75*
G02*
X62400000Y-76275000I0J-75000D01*
G01*
X62400000Y-76425000D01*
G75*
G02*
X62325000Y-76500000I-75000J0D01*
G01*
X60925000Y-76500000D01*
G75*
G02*
X60850000Y-76425000I0J75000D01*
G01*
X60850000Y-76275000D01*
G75*
G02*
X60925000Y-76200000I75000J0D01*
G01*
G37*
%TD.AperFunction*%
%TO.P,U4,21*%
%TO.N,/SPI_ESC_SCK*%
%TA.AperFunction,SMDPad,CuDef*%
G36*
G01*
X60925000Y-76700000D02*
X62325000Y-76700000D01*
G75*
G02*
X62400000Y-76775000I0J-75000D01*
G01*
X62400000Y-76925000D01*
G75*
G02*
X62325000Y-77000000I-75000J0D01*
G01*
X60925000Y-77000000D01*
G75*
G02*
X60850000Y-76925000I0J75000D01*
G01*
X60850000Y-76775000D01*
G75*
G02*
X60925000Y-76700000I75000J0D01*
G01*
G37*
%TD.AperFunction*%
%TO.P,U4,22*%
%TO.N,/SPI_ESC_MISO*%
%TA.AperFunction,SMDPad,CuDef*%
G36*
G01*
X60925000Y-77200000D02*
X62325000Y-77200000D01*
G75*
G02*
X62400000Y-77275000I0J-75000D01*
G01*
X62400000Y-77425000D01*
G75*
G02*
X62325000Y-77500000I-75000J0D01*
G01*
X60925000Y-77500000D01*
G75*
G02*
X60850000Y-77425000I0J75000D01*
G01*
X60850000Y-77275000D01*
G75*
G02*
X60925000Y-77200000I75000J0D01*
G01*
G37*
%TD.AperFunction*%
%TO.P,U4,23*%
%TO.N,/SPI_ESC_MOSI*%
%TA.AperFunction,SMDPad,CuDef*%
G36*
G01*
X60925000Y-77700000D02*
X62325000Y-77700000D01*
G75*
G02*
X62400000Y-77775000I0J-75000D01*
G01*
X62400000Y-77925000D01*
G75*
G02*
X62325000Y-78000000I-75000J0D01*
G01*
X60925000Y-78000000D01*
G75*
G02*
X60850000Y-77925000I0J75000D01*
G01*
X60850000Y-77775000D01*
G75*
G02*
X60925000Y-77700000I75000J0D01*
G01*
G37*
%TD.AperFunction*%
%TO.P,U4,24*%
%TO.N,/V_BAT_SENSE*%
%TA.AperFunction,SMDPad,CuDef*%
G36*
G01*
X60925000Y-78200000D02*
X62325000Y-78200000D01*
G75*
G02*
X62400000Y-78275000I0J-75000D01*
G01*
X62400000Y-78425000D01*
G75*
G02*
X62325000Y-78500000I-75000J0D01*
G01*
X60925000Y-78500000D01*
G75*
G02*
X60850000Y-78425000I0J75000D01*
G01*
X60850000Y-78275000D01*
G75*
G02*
X60925000Y-78200000I75000J0D01*
G01*
G37*
%TD.AperFunction*%
%TO.P,U4,25*%
%TO.N,/GYRO_FSYNC*%
%TA.AperFunction,SMDPad,CuDef*%
G36*
G01*
X60925000Y-78700000D02*
X62325000Y-78700000D01*
G75*
G02*
X62400000Y-78775000I0J-75000D01*
G01*
X62400000Y-78925000D01*
G75*
G02*
X62325000Y-79000000I-75000J0D01*
G01*
X60925000Y-79000000D01*
G75*
G02*
X60850000Y-78925000I0J75000D01*
G01*
X60850000Y-78775000D01*
G75*
G02*
X60925000Y-78700000I75000J0D01*
G01*
G37*
%TD.AperFunction*%
%TO.P,U4,26*%
%TO.N,/ESC_DSHOT_4*%
%TA.AperFunction,SMDPad,CuDef*%
G36*
G01*
X60925000Y-79200000D02*
X62325000Y-79200000D01*
G75*
G02*
X62400000Y-79275000I0J-75000D01*
G01*
X62400000Y-79425000D01*
G75*
G02*
X62325000Y-79500000I-75000J0D01*
G01*
X60925000Y-79500000D01*
G75*
G02*
X60850000Y-79425000I0J75000D01*
G01*
X60850000Y-79275000D01*
G75*
G02*
X60925000Y-79200000I75000J0D01*
G01*
G37*
%TD.AperFunction*%
%TO.P,U4,27*%
%TO.N,/ESC_DSHOT_3*%
%TA.AperFunction,SMDPad,CuDef*%
G36*
G01*
X60925000Y-79700000D02*
X62325000Y-79700000D01*
G75*
G02*
X62400000Y-79775000I0J-75000D01*
G01*
X62400000Y-79925000D01*
G75*
G02*
X62325000Y-80000000I-75000J0D01*
G01*
X60925000Y-80000000D01*
G75*
G02*
X60850000Y-79925000I0J75000D01*
G01*
X60850000Y-79775000D01*
G75*
G02*
X60925000Y-79700000I75000J0D01*
G01*
G37*
%TD.AperFunction*%
%TO.P,U4,28*%
%TO.N,/GYRO_INT*%
%TA.AperFunction,SMDPad,CuDef*%
G36*
G01*
X60925000Y-80200000D02*
X62325000Y-80200000D01*
G75*
G02*
X62400000Y-80275000I0J-75000D01*
G01*
X62400000Y-80425000D01*
G75*
G02*
X62325000Y-80500000I-75000J0D01*
G01*
X60925000Y-80500000D01*
G75*
G02*
X60850000Y-80425000I0J75000D01*
G01*
X60850000Y-80275000D01*
G75*
G02*
X60925000Y-80200000I75000J0D01*
G01*
G37*
%TD.AperFunction*%
%TO.P,U4,29*%
%TO.N,/EEPROM_SCL*%
%TA.AperFunction,SMDPad,CuDef*%
G36*
G01*
X60925000Y-80700000D02*
X62325000Y-80700000D01*
G75*
G02*
X62400000Y-80775000I0J-75000D01*
G01*
X62400000Y-80925000D01*
G75*
G02*
X62325000Y-81000000I-75000J0D01*
G01*
X60925000Y-81000000D01*
G75*
G02*
X60850000Y-80925000I0J75000D01*
G01*
X60850000Y-80775000D01*
G75*
G02*
X60925000Y-80700000I75000J0D01*
G01*
G37*
%TD.AperFunction*%
%TO.P,U4,30*%
%TO.N,/EEPROM_SDA*%
%TA.AperFunction,SMDPad,CuDef*%
G36*
G01*
X60925000Y-81200000D02*
X62325000Y-81200000D01*
G75*
G02*
X62400000Y-81275000I0J-75000D01*
G01*
X62400000Y-81425000D01*
G75*
G02*
X62325000Y-81500000I-75000J0D01*
G01*
X60925000Y-81500000D01*
G75*
G02*
X60850000Y-81425000I0J75000D01*
G01*
X60850000Y-81275000D01*
G75*
G02*
X60925000Y-81200000I75000J0D01*
G01*
G37*
%TD.AperFunction*%
%TO.P,U4,31*%
%TO.N,Net-(C7-Pad1)*%
%TA.AperFunction,SMDPad,CuDef*%
G36*
G01*
X60925000Y-81700000D02*
X62325000Y-81700000D01*
G75*
G02*
X62400000Y-81775000I0J-75000D01*
G01*
X62400000Y-81925000D01*
G75*
G02*
X62325000Y-82000000I-75000J0D01*
G01*
X60925000Y-82000000D01*
G75*
G02*
X60850000Y-81925000I0J75000D01*
G01*
X60850000Y-81775000D01*
G75*
G02*
X60925000Y-81700000I75000J0D01*
G01*
G37*
%TD.AperFunction*%
%TO.P,U4,32*%
%TO.N,+3V3*%
%TA.AperFunction,SMDPad,CuDef*%
G36*
G01*
X60925000Y-82200000D02*
X62325000Y-82200000D01*
G75*
G02*
X62400000Y-82275000I0J-75000D01*
G01*
X62400000Y-82425000D01*
G75*
G02*
X62325000Y-82500000I-75000J0D01*
G01*
X60925000Y-82500000D01*
G75*
G02*
X60850000Y-82425000I0J75000D01*
G01*
X60850000Y-82275000D01*
G75*
G02*
X60925000Y-82200000I75000J0D01*
G01*
G37*
%TD.AperFunction*%
%TO.P,U4,33*%
%TO.N,/ESC_4_CS*%
%TA.AperFunction,SMDPad,CuDef*%
G36*
G01*
X63475000Y-83500000D02*
X63625000Y-83500000D01*
G75*
G02*
X63700000Y-83575000I0J-75000D01*
G01*
X63700000Y-84975000D01*
G75*
G02*
X63625000Y-85050000I-75000J0D01*
G01*
X63475000Y-85050000D01*
G75*
G02*
X63400000Y-84975000I0J75000D01*
G01*
X63400000Y-83575000D01*
G75*
G02*
X63475000Y-83500000I75000J0D01*
G01*
G37*
%TD.AperFunction*%
%TO.P,U4,34*%
%TO.N,Net-(U4-Pad34)*%
%TA.AperFunction,SMDPad,CuDef*%
G36*
G01*
X63975000Y-83500000D02*
X64125000Y-83500000D01*
G75*
G02*
X64200000Y-83575000I0J-75000D01*
G01*
X64200000Y-84975000D01*
G75*
G02*
X64125000Y-85050000I-75000J0D01*
G01*
X63975000Y-85050000D01*
G75*
G02*
X63900000Y-84975000I0J75000D01*
G01*
X63900000Y-83575000D01*
G75*
G02*
X63975000Y-83500000I75000J0D01*
G01*
G37*
%TD.AperFunction*%
%TO.P,U4,35*%
%TO.N,/ESC_3_CS*%
%TA.AperFunction,SMDPad,CuDef*%
G36*
G01*
X64475000Y-83500000D02*
X64625000Y-83500000D01*
G75*
G02*
X64700000Y-83575000I0J-75000D01*
G01*
X64700000Y-84975000D01*
G75*
G02*
X64625000Y-85050000I-75000J0D01*
G01*
X64475000Y-85050000D01*
G75*
G02*
X64400000Y-84975000I0J75000D01*
G01*
X64400000Y-83575000D01*
G75*
G02*
X64475000Y-83500000I75000J0D01*
G01*
G37*
%TD.AperFunction*%
%TO.P,U4,36*%
%TO.N,/ESC_2_CS*%
%TA.AperFunction,SMDPad,CuDef*%
G36*
G01*
X64975000Y-83500000D02*
X65125000Y-83500000D01*
G75*
G02*
X65200000Y-83575000I0J-75000D01*
G01*
X65200000Y-84975000D01*
G75*
G02*
X65125000Y-85050000I-75000J0D01*
G01*
X64975000Y-85050000D01*
G75*
G02*
X64900000Y-84975000I0J75000D01*
G01*
X64900000Y-83575000D01*
G75*
G02*
X64975000Y-83500000I75000J0D01*
G01*
G37*
%TD.AperFunction*%
%TO.P,U4,37*%
%TO.N,/STM32 Controller/USER_LED_2*%
%TA.AperFunction,SMDPad,CuDef*%
G36*
G01*
X65475000Y-83500000D02*
X65625000Y-83500000D01*
G75*
G02*
X65700000Y-83575000I0J-75000D01*
G01*
X65700000Y-84975000D01*
G75*
G02*
X65625000Y-85050000I-75000J0D01*
G01*
X65475000Y-85050000D01*
G75*
G02*
X65400000Y-84975000I0J75000D01*
G01*
X65400000Y-83575000D01*
G75*
G02*
X65475000Y-83500000I75000J0D01*
G01*
G37*
%TD.AperFunction*%
%TO.P,U4,38*%
%TO.N,Net-(U4-Pad38)*%
%TA.AperFunction,SMDPad,CuDef*%
G36*
G01*
X65975000Y-83500000D02*
X66125000Y-83500000D01*
G75*
G02*
X66200000Y-83575000I0J-75000D01*
G01*
X66200000Y-84975000D01*
G75*
G02*
X66125000Y-85050000I-75000J0D01*
G01*
X65975000Y-85050000D01*
G75*
G02*
X65900000Y-84975000I0J75000D01*
G01*
X65900000Y-83575000D01*
G75*
G02*
X65975000Y-83500000I75000J0D01*
G01*
G37*
%TD.AperFunction*%
%TO.P,U4,39*%
%TO.N,/ESC_DSHOT_1*%
%TA.AperFunction,SMDPad,CuDef*%
G36*
G01*
X66475000Y-83500000D02*
X66625000Y-83500000D01*
G75*
G02*
X66700000Y-83575000I0J-75000D01*
G01*
X66700000Y-84975000D01*
G75*
G02*
X66625000Y-85050000I-75000J0D01*
G01*
X66475000Y-85050000D01*
G75*
G02*
X66400000Y-84975000I0J75000D01*
G01*
X66400000Y-83575000D01*
G75*
G02*
X66475000Y-83500000I75000J0D01*
G01*
G37*
%TD.AperFunction*%
%TO.P,U4,40*%
%TO.N,/ESC_1_CS*%
%TA.AperFunction,SMDPad,CuDef*%
G36*
G01*
X66975000Y-83500000D02*
X67125000Y-83500000D01*
G75*
G02*
X67200000Y-83575000I0J-75000D01*
G01*
X67200000Y-84975000D01*
G75*
G02*
X67125000Y-85050000I-75000J0D01*
G01*
X66975000Y-85050000D01*
G75*
G02*
X66900000Y-84975000I0J75000D01*
G01*
X66900000Y-83575000D01*
G75*
G02*
X66975000Y-83500000I75000J0D01*
G01*
G37*
%TD.AperFunction*%
%TO.P,U4,41*%
%TO.N,/ESC_DSHOT_2*%
%TA.AperFunction,SMDPad,CuDef*%
G36*
G01*
X67475000Y-83500000D02*
X67625000Y-83500000D01*
G75*
G02*
X67700000Y-83575000I0J-75000D01*
G01*
X67700000Y-84975000D01*
G75*
G02*
X67625000Y-85050000I-75000J0D01*
G01*
X67475000Y-85050000D01*
G75*
G02*
X67400000Y-84975000I0J75000D01*
G01*
X67400000Y-83575000D01*
G75*
G02*
X67475000Y-83500000I75000J0D01*
G01*
G37*
%TD.AperFunction*%
%TO.P,U4,42*%
%TO.N,/SBUS_RX*%
%TA.AperFunction,SMDPad,CuDef*%
G36*
G01*
X67975000Y-83500000D02*
X68125000Y-83500000D01*
G75*
G02*
X68200000Y-83575000I0J-75000D01*
G01*
X68200000Y-84975000D01*
G75*
G02*
X68125000Y-85050000I-75000J0D01*
G01*
X67975000Y-85050000D01*
G75*
G02*
X67900000Y-84975000I0J75000D01*
G01*
X67900000Y-83575000D01*
G75*
G02*
X67975000Y-83500000I75000J0D01*
G01*
G37*
%TD.AperFunction*%
%TO.P,U4,43*%
%TO.N,/SBUS_TX*%
%TA.AperFunction,SMDPad,CuDef*%
G36*
G01*
X68475000Y-83500000D02*
X68625000Y-83500000D01*
G75*
G02*
X68700000Y-83575000I0J-75000D01*
G01*
X68700000Y-84975000D01*
G75*
G02*
X68625000Y-85050000I-75000J0D01*
G01*
X68475000Y-85050000D01*
G75*
G02*
X68400000Y-84975000I0J75000D01*
G01*
X68400000Y-83575000D01*
G75*
G02*
X68475000Y-83500000I75000J0D01*
G01*
G37*
%TD.AperFunction*%
%TO.P,U4,44*%
%TO.N,/USB_D-*%
%TA.AperFunction,SMDPad,CuDef*%
G36*
G01*
X68975000Y-83500000D02*
X69125000Y-83500000D01*
G75*
G02*
X69200000Y-83575000I0J-75000D01*
G01*
X69200000Y-84975000D01*
G75*
G02*
X69125000Y-85050000I-75000J0D01*
G01*
X68975000Y-85050000D01*
G75*
G02*
X68900000Y-84975000I0J75000D01*
G01*
X68900000Y-83575000D01*
G75*
G02*
X68975000Y-83500000I75000J0D01*
G01*
G37*
%TD.AperFunction*%
%TO.P,U4,45*%
%TO.N,/USB_D+*%
%TA.AperFunction,SMDPad,CuDef*%
G36*
G01*
X69475000Y-83500000D02*
X69625000Y-83500000D01*
G75*
G02*
X69700000Y-83575000I0J-75000D01*
G01*
X69700000Y-84975000D01*
G75*
G02*
X69625000Y-85050000I-75000J0D01*
G01*
X69475000Y-85050000D01*
G75*
G02*
X69400000Y-84975000I0J75000D01*
G01*
X69400000Y-83575000D01*
G75*
G02*
X69475000Y-83500000I75000J0D01*
G01*
G37*
%TD.AperFunction*%
%TO.P,U4,46*%
%TO.N,/SWDIO*%
%TA.AperFunction,SMDPad,CuDef*%
G36*
G01*
X69975000Y-83500000D02*
X70125000Y-83500000D01*
G75*
G02*
X70200000Y-83575000I0J-75000D01*
G01*
X70200000Y-84975000D01*
G75*
G02*
X70125000Y-85050000I-75000J0D01*
G01*
X69975000Y-85050000D01*
G75*
G02*
X69900000Y-84975000I0J75000D01*
G01*
X69900000Y-83575000D01*
G75*
G02*
X69975000Y-83500000I75000J0D01*
G01*
G37*
%TD.AperFunction*%
%TO.P,U4,47*%
%TO.N,Net-(C8-Pad1)*%
%TA.AperFunction,SMDPad,CuDef*%
G36*
G01*
X70475000Y-83500000D02*
X70625000Y-83500000D01*
G75*
G02*
X70700000Y-83575000I0J-75000D01*
G01*
X70700000Y-84975000D01*
G75*
G02*
X70625000Y-85050000I-75000J0D01*
G01*
X70475000Y-85050000D01*
G75*
G02*
X70400000Y-84975000I0J75000D01*
G01*
X70400000Y-83575000D01*
G75*
G02*
X70475000Y-83500000I75000J0D01*
G01*
G37*
%TD.AperFunction*%
%TO.P,U4,48*%
%TO.N,+3V3*%
%TA.AperFunction,SMDPad,CuDef*%
G36*
G01*
X70975000Y-83500000D02*
X71125000Y-83500000D01*
G75*
G02*
X71200000Y-83575000I0J-75000D01*
G01*
X71200000Y-84975000D01*
G75*
G02*
X71125000Y-85050000I-75000J0D01*
G01*
X70975000Y-85050000D01*
G75*
G02*
X70900000Y-84975000I0J75000D01*
G01*
X70900000Y-83575000D01*
G75*
G02*
X70975000Y-83500000I75000J0D01*
G01*
G37*
%TD.AperFunction*%
%TO.P,U4,49*%
%TO.N,/SWCLK*%
%TA.AperFunction,SMDPad,CuDef*%
G36*
G01*
X72275000Y-82200000D02*
X73675000Y-82200000D01*
G75*
G02*
X73750000Y-82275000I0J-75000D01*
G01*
X73750000Y-82425000D01*
G75*
G02*
X73675000Y-82500000I-75000J0D01*
G01*
X72275000Y-82500000D01*
G75*
G02*
X72200000Y-82425000I0J75000D01*
G01*
X72200000Y-82275000D01*
G75*
G02*
X72275000Y-82200000I75000J0D01*
G01*
G37*
%TD.AperFunction*%
%TO.P,U4,50*%
%TO.N,/GPIO_2*%
%TA.AperFunction,SMDPad,CuDef*%
G36*
G01*
X72275000Y-81700000D02*
X73675000Y-81700000D01*
G75*
G02*
X73750000Y-81775000I0J-75000D01*
G01*
X73750000Y-81925000D01*
G75*
G02*
X73675000Y-82000000I-75000J0D01*
G01*
X72275000Y-82000000D01*
G75*
G02*
X72200000Y-81925000I0J75000D01*
G01*
X72200000Y-81775000D01*
G75*
G02*
X72275000Y-81700000I75000J0D01*
G01*
G37*
%TD.AperFunction*%
%TO.P,U4,51*%
%TO.N,/UART3_TX*%
%TA.AperFunction,SMDPad,CuDef*%
G36*
G01*
X72275000Y-81200000D02*
X73675000Y-81200000D01*
G75*
G02*
X73750000Y-81275000I0J-75000D01*
G01*
X73750000Y-81425000D01*
G75*
G02*
X73675000Y-81500000I-75000J0D01*
G01*
X72275000Y-81500000D01*
G75*
G02*
X72200000Y-81425000I0J75000D01*
G01*
X72200000Y-81275000D01*
G75*
G02*
X72275000Y-81200000I75000J0D01*
G01*
G37*
%TD.AperFunction*%
%TO.P,U4,52*%
%TO.N,/UART3_RX*%
%TA.AperFunction,SMDPad,CuDef*%
G36*
G01*
X72275000Y-80700000D02*
X73675000Y-80700000D01*
G75*
G02*
X73750000Y-80775000I0J-75000D01*
G01*
X73750000Y-80925000D01*
G75*
G02*
X73675000Y-81000000I-75000J0D01*
G01*
X72275000Y-81000000D01*
G75*
G02*
X72200000Y-80925000I0J75000D01*
G01*
X72200000Y-80775000D01*
G75*
G02*
X72275000Y-80700000I75000J0D01*
G01*
G37*
%TD.AperFunction*%
%TO.P,U4,53*%
%TO.N,/UART5_RX*%
%TA.AperFunction,SMDPad,CuDef*%
G36*
G01*
X72275000Y-80200000D02*
X73675000Y-80200000D01*
G75*
G02*
X73750000Y-80275000I0J-75000D01*
G01*
X73750000Y-80425000D01*
G75*
G02*
X73675000Y-80500000I-75000J0D01*
G01*
X72275000Y-80500000D01*
G75*
G02*
X72200000Y-80425000I0J75000D01*
G01*
X72200000Y-80275000D01*
G75*
G02*
X72275000Y-80200000I75000J0D01*
G01*
G37*
%TD.AperFunction*%
%TO.P,U4,54*%
%TO.N,/UART5_TX*%
%TA.AperFunction,SMDPad,CuDef*%
G36*
G01*
X72275000Y-79700000D02*
X73675000Y-79700000D01*
G75*
G02*
X73750000Y-79775000I0J-75000D01*
G01*
X73750000Y-79925000D01*
G75*
G02*
X73675000Y-80000000I-75000J0D01*
G01*
X72275000Y-80000000D01*
G75*
G02*
X72200000Y-79925000I0J75000D01*
G01*
X72200000Y-79775000D01*
G75*
G02*
X72275000Y-79700000I75000J0D01*
G01*
G37*
%TD.AperFunction*%
%TO.P,U4,55*%
%TO.N,/SWO*%
%TA.AperFunction,SMDPad,CuDef*%
G36*
G01*
X72275000Y-79200000D02*
X73675000Y-79200000D01*
G75*
G02*
X73750000Y-79275000I0J-75000D01*
G01*
X73750000Y-79425000D01*
G75*
G02*
X73675000Y-79500000I-75000J0D01*
G01*
X72275000Y-79500000D01*
G75*
G02*
X72200000Y-79425000I0J75000D01*
G01*
X72200000Y-79275000D01*
G75*
G02*
X72275000Y-79200000I75000J0D01*
G01*
G37*
%TD.AperFunction*%
%TO.P,U4,56*%
%TO.N,Net-(U4-Pad56)*%
%TA.AperFunction,SMDPad,CuDef*%
G36*
G01*
X72275000Y-78700000D02*
X73675000Y-78700000D01*
G75*
G02*
X73750000Y-78775000I0J-75000D01*
G01*
X73750000Y-78925000D01*
G75*
G02*
X73675000Y-79000000I-75000J0D01*
G01*
X72275000Y-79000000D01*
G75*
G02*
X72200000Y-78925000I0J75000D01*
G01*
X72200000Y-78775000D01*
G75*
G02*
X72275000Y-78700000I75000J0D01*
G01*
G37*
%TD.AperFunction*%
%TO.P,U4,57*%
%TO.N,/BUZZER*%
%TA.AperFunction,SMDPad,CuDef*%
G36*
G01*
X72275000Y-78200000D02*
X73675000Y-78200000D01*
G75*
G02*
X73750000Y-78275000I0J-75000D01*
G01*
X73750000Y-78425000D01*
G75*
G02*
X73675000Y-78500000I-75000J0D01*
G01*
X72275000Y-78500000D01*
G75*
G02*
X72200000Y-78425000I0J75000D01*
G01*
X72200000Y-78275000D01*
G75*
G02*
X72275000Y-78200000I75000J0D01*
G01*
G37*
%TD.AperFunction*%
%TO.P,U4,58*%
%TO.N,/GYRO_SCL*%
%TA.AperFunction,SMDPad,CuDef*%
G36*
G01*
X72275000Y-77700000D02*
X73675000Y-77700000D01*
G75*
G02*
X73750000Y-77775000I0J-75000D01*
G01*
X73750000Y-77925000D01*
G75*
G02*
X73675000Y-78000000I-75000J0D01*
G01*
X72275000Y-78000000D01*
G75*
G02*
X72200000Y-77925000I0J75000D01*
G01*
X72200000Y-77775000D01*
G75*
G02*
X72275000Y-77700000I75000J0D01*
G01*
G37*
%TD.AperFunction*%
%TO.P,U4,59*%
%TO.N,/GYRO_SDA*%
%TA.AperFunction,SMDPad,CuDef*%
G36*
G01*
X72275000Y-77200000D02*
X73675000Y-77200000D01*
G75*
G02*
X73750000Y-77275000I0J-75000D01*
G01*
X73750000Y-77425000D01*
G75*
G02*
X73675000Y-77500000I-75000J0D01*
G01*
X72275000Y-77500000D01*
G75*
G02*
X72200000Y-77425000I0J75000D01*
G01*
X72200000Y-77275000D01*
G75*
G02*
X72275000Y-77200000I75000J0D01*
G01*
G37*
%TD.AperFunction*%
%TO.P,U4,60*%
%TO.N,BOOT0*%
%TA.AperFunction,SMDPad,CuDef*%
G36*
G01*
X72275000Y-76700000D02*
X73675000Y-76700000D01*
G75*
G02*
X73750000Y-76775000I0J-75000D01*
G01*
X73750000Y-76925000D01*
G75*
G02*
X73675000Y-77000000I-75000J0D01*
G01*
X72275000Y-77000000D01*
G75*
G02*
X72200000Y-76925000I0J75000D01*
G01*
X72200000Y-76775000D01*
G75*
G02*
X72275000Y-76700000I75000J0D01*
G01*
G37*
%TD.AperFunction*%
%TO.P,U4,61*%
%TO.N,/STM32 Controller/USER_LED_1*%
%TA.AperFunction,SMDPad,CuDef*%
G36*
G01*
X72275000Y-76200000D02*
X73675000Y-76200000D01*
G75*
G02*
X73750000Y-76275000I0J-75000D01*
G01*
X73750000Y-76425000D01*
G75*
G02*
X73675000Y-76500000I-75000J0D01*
G01*
X72275000Y-76500000D01*
G75*
G02*
X72200000Y-76425000I0J75000D01*
G01*
X72200000Y-76275000D01*
G75*
G02*
X72275000Y-76200000I75000J0D01*
G01*
G37*
%TD.AperFunction*%
%TO.P,U4,62*%
%TO.N,/GPIO_1*%
%TA.AperFunction,SMDPad,CuDef*%
G36*
G01*
X72275000Y-75700000D02*
X73675000Y-75700000D01*
G75*
G02*
X73750000Y-75775000I0J-75000D01*
G01*
X73750000Y-75925000D01*
G75*
G02*
X73675000Y-76000000I-75000J0D01*
G01*
X72275000Y-76000000D01*
G75*
G02*
X72200000Y-75925000I0J75000D01*
G01*
X72200000Y-75775000D01*
G75*
G02*
X72275000Y-75700000I75000J0D01*
G01*
G37*
%TD.AperFunction*%
%TO.P,U4,63*%
%TO.N,GND*%
%TA.AperFunction,SMDPad,CuDef*%
G36*
G01*
X72275000Y-75200000D02*
X73675000Y-75200000D01*
G75*
G02*
X73750000Y-75275000I0J-75000D01*
G01*
X73750000Y-75425000D01*
G75*
G02*
X73675000Y-75500000I-75000J0D01*
G01*
X72275000Y-75500000D01*
G75*
G02*
X72200000Y-75425000I0J75000D01*
G01*
X72200000Y-75275000D01*
G75*
G02*
X72275000Y-75200000I75000J0D01*
G01*
G37*
%TD.AperFunction*%
%TO.P,U4,64*%
%TO.N,+3V3*%
%TA.AperFunction,SMDPad,CuDef*%
G36*
G01*
X72275000Y-74700000D02*
X73675000Y-74700000D01*
G75*
G02*
X73750000Y-74775000I0J-75000D01*
G01*
X73750000Y-74925000D01*
G75*
G02*
X73675000Y-75000000I-75000J0D01*
G01*
X72275000Y-75000000D01*
G75*
G02*
X72200000Y-74925000I0J75000D01*
G01*
X72200000Y-74775000D01*
G75*
G02*
X72275000Y-74700000I75000J0D01*
G01*
G37*
%TD.AperFunction*%
%TD*%
D26*
%TO.P,U6,9*%
%TO.N,GND*%
X67461000Y-56436000D03*
D27*
%TD*%
%TO.N,GND*%
%TO.C,U6*%
X67461000Y-56436000D03*
D28*
%TO.P,U6,1*%
%TO.N,Net-(C23-Pad1)*%
X70161000Y-58341000D03*
%TO.P,U6,2*%
%TO.N,Net-(U6-Pad2)*%
X70161000Y-57071000D03*
%TO.P,U6,3*%
%TO.N,Net-(U6-Pad3)*%
X70161000Y-55801000D03*
%TO.P,U6,4*%
%TO.N,Net-(R27-Pad2)*%
X70161000Y-54531000D03*
%TO.P,U6,5*%
%TO.N,Net-(U6-Pad5)*%
X64761000Y-54531000D03*
%TO.P,U6,6*%
%TO.N,GND*%
X64761000Y-55801000D03*
%TO.P,U6,7*%
%TO.N,Net-(C20-Pad1)*%
X64761000Y-57071000D03*
%TO.P,U6,8*%
%TO.N,Net-(C23-Pad2)*%
X64761000Y-58341000D03*
D29*
%TD*%
%TO.N,GND*%
%TO.C,U6*%
X68061000Y-58236000D03*
%TO.N,GND*%
%TO.C,U6*%
X68061000Y-57036000D03*
X66861000Y-57036000D03*
X66861000Y-58236000D03*
X68061000Y-54636000D03*
X68061000Y-55736000D03*
X66861000Y-55736000D03*
X66861000Y-54636000D03*
%TD*%
D30*
%TO.P,Y1,1*%
%TO.N,HSE_IN*%
X70500000Y-67250000D03*
%TO.P,Y1,2*%
%TO.N,GND*%
X68300000Y-67250000D03*
%TO.P,Y1,3*%
%TO.N,Net-(C6-Pad1)*%
X68300000Y-68950000D03*
%TO.P,Y1,4*%
%TO.N,GND*%
X70500000Y-68950000D03*
%TD*%
%TO.P,J2,2*%
%TO.N,/Inputs/SBUS*%
%TA.AperFunction,SMDPad,CuDef*%
G36*
G01*
X96609000Y-86729000D02*
X95859000Y-86729000D01*
G75*
G02*
X95484000Y-86354000I0J375000D01*
G01*
X95484000Y-85604000D01*
G75*
G02*
X95859000Y-85229000I375000J0D01*
G01*
X96609000Y-85229000D01*
G75*
G02*
X96984000Y-85604000I0J-375000D01*
G01*
X96984000Y-86354000D01*
G75*
G02*
X96609000Y-86729000I-375000J0D01*
G01*
G37*
%TD.AperFunction*%
%TO.P,J2,1*%
%TO.N,/SBUS_TX*%
%TA.AperFunction,SMDPad,CuDef*%
G36*
G01*
X94609000Y-86729000D02*
X93859000Y-86729000D01*
G75*
G02*
X93484000Y-86354000I0J375000D01*
G01*
X93484000Y-85604000D01*
G75*
G02*
X93859000Y-85229000I375000J0D01*
G01*
X94609000Y-85229000D01*
G75*
G02*
X94984000Y-85604000I0J-375000D01*
G01*
X94984000Y-86354000D01*
G75*
G02*
X94609000Y-86729000I-375000J0D01*
G01*
G37*
%TD.AperFunction*%
%TD*%
%TO.P,J3,1*%
%TO.N,/UART2_TX*%
%TA.AperFunction,SMDPad,CuDef*%
G36*
G01*
X94609000Y-77750000D02*
X93859000Y-77750000D01*
G75*
G02*
X93484000Y-77375000I0J375000D01*
G01*
X93484000Y-76625000D01*
G75*
G02*
X93859000Y-76250000I375000J0D01*
G01*
X94609000Y-76250000D01*
G75*
G02*
X94984000Y-76625000I0J-375000D01*
G01*
X94984000Y-77375000D01*
G75*
G02*
X94609000Y-77750000I-375000J0D01*
G01*
G37*
%TD.AperFunction*%
%TO.P,J3,2*%
%TO.N,/UART2_RX*%
%TA.AperFunction,SMDPad,CuDef*%
G36*
G01*
X96609000Y-77750000D02*
X95859000Y-77750000D01*
G75*
G02*
X95484000Y-77375000I0J375000D01*
G01*
X95484000Y-76625000D01*
G75*
G02*
X95859000Y-76250000I375000J0D01*
G01*
X96609000Y-76250000D01*
G75*
G02*
X96984000Y-76625000I0J-375000D01*
G01*
X96984000Y-77375000D01*
G75*
G02*
X96609000Y-77750000I-375000J0D01*
G01*
G37*
%TD.AperFunction*%
%TD*%
%TO.P,J4,2*%
%TO.N,/UART3_RX*%
%TA.AperFunction,SMDPad,CuDef*%
G36*
G01*
X96609000Y-80750000D02*
X95859000Y-80750000D01*
G75*
G02*
X95484000Y-80375000I0J375000D01*
G01*
X95484000Y-79625000D01*
G75*
G02*
X95859000Y-79250000I375000J0D01*
G01*
X96609000Y-79250000D01*
G75*
G02*
X96984000Y-79625000I0J-375000D01*
G01*
X96984000Y-80375000D01*
G75*
G02*
X96609000Y-80750000I-375000J0D01*
G01*
G37*
%TD.AperFunction*%
%TO.P,J4,1*%
%TO.N,/UART3_TX*%
%TA.AperFunction,SMDPad,CuDef*%
G36*
G01*
X94609000Y-80750000D02*
X93859000Y-80750000D01*
G75*
G02*
X93484000Y-80375000I0J375000D01*
G01*
X93484000Y-79625000D01*
G75*
G02*
X93859000Y-79250000I375000J0D01*
G01*
X94609000Y-79250000D01*
G75*
G02*
X94984000Y-79625000I0J-375000D01*
G01*
X94984000Y-80375000D01*
G75*
G02*
X94609000Y-80750000I-375000J0D01*
G01*
G37*
%TD.AperFunction*%
%TD*%
%TO.P,J5,1*%
%TO.N,/UART4_TX*%
%TA.AperFunction,SMDPad,CuDef*%
G36*
G01*
X57950000Y-70975000D02*
X57950000Y-70225000D01*
G75*
G02*
X58325000Y-69850000I375000J0D01*
G01*
X59075000Y-69850000D01*
G75*
G02*
X59450000Y-70225000I0J-375000D01*
G01*
X59450000Y-70975000D01*
G75*
G02*
X59075000Y-71350000I-375000J0D01*
G01*
X58325000Y-71350000D01*
G75*
G02*
X57950000Y-70975000I0J375000D01*
G01*
G37*
%TD.AperFunction*%
%TO.P,J5,2*%
%TO.N,/UART4_RX*%
%TA.AperFunction,SMDPad,CuDef*%
G36*
G01*
X57950000Y-72975000D02*
X57950000Y-72225000D01*
G75*
G02*
X58325000Y-71850000I375000J0D01*
G01*
X59075000Y-71850000D01*
G75*
G02*
X59450000Y-72225000I0J-375000D01*
G01*
X59450000Y-72975000D01*
G75*
G02*
X59075000Y-73350000I-375000J0D01*
G01*
X58325000Y-73350000D01*
G75*
G02*
X57950000Y-72975000I0J375000D01*
G01*
G37*
%TD.AperFunction*%
%TD*%
%TO.P,J6,2*%
%TO.N,/UART5_RX*%
%TA.AperFunction,SMDPad,CuDef*%
G36*
G01*
X96609000Y-83750000D02*
X95859000Y-83750000D01*
G75*
G02*
X95484000Y-83375000I0J375000D01*
G01*
X95484000Y-82625000D01*
G75*
G02*
X95859000Y-82250000I375000J0D01*
G01*
X96609000Y-82250000D01*
G75*
G02*
X96984000Y-82625000I0J-375000D01*
G01*
X96984000Y-83375000D01*
G75*
G02*
X96609000Y-83750000I-375000J0D01*
G01*
G37*
%TD.AperFunction*%
%TO.P,J6,1*%
%TO.N,/UART5_TX*%
%TA.AperFunction,SMDPad,CuDef*%
G36*
G01*
X94609000Y-83750000D02*
X93859000Y-83750000D01*
G75*
G02*
X93484000Y-83375000I0J375000D01*
G01*
X93484000Y-82625000D01*
G75*
G02*
X93859000Y-82250000I375000J0D01*
G01*
X94609000Y-82250000D01*
G75*
G02*
X94984000Y-82625000I0J-375000D01*
G01*
X94984000Y-83375000D01*
G75*
G02*
X94609000Y-83750000I-375000J0D01*
G01*
G37*
%TD.AperFunction*%
%TD*%
%TO.P,J8,3*%
%TO.N,/GEN_ADC*%
%TA.AperFunction,SMDPad,CuDef*%
G36*
G01*
X54262700Y-86725000D02*
X54262700Y-87475000D01*
G75*
G02*
X53887700Y-87850000I-375000J0D01*
G01*
X53137700Y-87850000D01*
G75*
G02*
X52762700Y-87475000I0J375000D01*
G01*
X52762700Y-86725000D01*
G75*
G02*
X53137700Y-86350000I375000J0D01*
G01*
X53887700Y-86350000D01*
G75*
G02*
X54262700Y-86725000I0J-375000D01*
G01*
G37*
%TD.AperFunction*%
%TO.P,J8,2*%
%TO.N,/GPIO_2*%
%TA.AperFunction,SMDPad,CuDef*%
G36*
G01*
X54250000Y-88725000D02*
X54250000Y-89475000D01*
G75*
G02*
X53875000Y-89850000I-375000J0D01*
G01*
X53125000Y-89850000D01*
G75*
G02*
X52750000Y-89475000I0J375000D01*
G01*
X52750000Y-88725000D01*
G75*
G02*
X53125000Y-88350000I375000J0D01*
G01*
X53875000Y-88350000D01*
G75*
G02*
X54250000Y-88725000I0J-375000D01*
G01*
G37*
%TD.AperFunction*%
%TO.P,J8,1*%
%TO.N,/GPIO_1*%
%TA.AperFunction,SMDPad,CuDef*%
G36*
G01*
X54250000Y-90725000D02*
X54250000Y-91475000D01*
G75*
G02*
X53875000Y-91850000I-375000J0D01*
G01*
X53125000Y-91850000D01*
G75*
G02*
X52750000Y-91475000I0J375000D01*
G01*
X52750000Y-90725000D01*
G75*
G02*
X53125000Y-90350000I375000J0D01*
G01*
X53875000Y-90350000D01*
G75*
G02*
X54250000Y-90725000I0J-375000D01*
G01*
G37*
%TD.AperFunction*%
%TD*%
%TO.P,J9,1*%
%TO.N,GND*%
%TA.AperFunction,SMDPad,CuDef*%
G36*
G01*
X96950000Y-92125000D02*
X96950000Y-92875000D01*
G75*
G02*
X96575000Y-93250000I-375000J0D01*
G01*
X95825000Y-93250000D01*
G75*
G02*
X95450000Y-92875000I0J375000D01*
G01*
X95450000Y-92125000D01*
G75*
G02*
X95825000Y-91750000I375000J0D01*
G01*
X96575000Y-91750000D01*
G75*
G02*
X96950000Y-92125000I0J-375000D01*
G01*
G37*
%TD.AperFunction*%
%TO.P,J9,2*%
%TA.AperFunction,SMDPad,CuDef*%
G36*
G01*
X96950000Y-90125000D02*
X96950000Y-90875000D01*
G75*
G02*
X96575000Y-91250000I-375000J0D01*
G01*
X95825000Y-91250000D01*
G75*
G02*
X95450000Y-90875000I0J375000D01*
G01*
X95450000Y-90125000D01*
G75*
G02*
X95825000Y-89750000I375000J0D01*
G01*
X96575000Y-89750000D01*
G75*
G02*
X96950000Y-90125000I0J-375000D01*
G01*
G37*
%TD.AperFunction*%
%TO.P,J9,3*%
%TA.AperFunction,SMDPad,CuDef*%
G36*
G01*
X96962700Y-88125000D02*
X96962700Y-88875000D01*
G75*
G02*
X96587700Y-89250000I-375000J0D01*
G01*
X95837700Y-89250000D01*
G75*
G02*
X95462700Y-88875000I0J375000D01*
G01*
X95462700Y-88125000D01*
G75*
G02*
X95837700Y-87750000I375000J0D01*
G01*
X96587700Y-87750000D01*
G75*
G02*
X96962700Y-88125000I0J-375000D01*
G01*
G37*
%TD.AperFunction*%
%TD*%
%TO.P,J10,1*%
%TO.N,+3V3*%
%TA.AperFunction,SMDPad,CuDef*%
G36*
G01*
X94609000Y-74750000D02*
X93859000Y-74750000D01*
G75*
G02*
X93484000Y-74375000I0J375000D01*
G01*
X93484000Y-73625000D01*
G75*
G02*
X93859000Y-73250000I375000J0D01*
G01*
X94609000Y-73250000D01*
G75*
G02*
X94984000Y-73625000I0J-375000D01*
G01*
X94984000Y-74375000D01*
G75*
G02*
X94609000Y-74750000I-375000J0D01*
G01*
G37*
%TD.AperFunction*%
%TO.P,J10,2*%
%TO.N,GND*%
%TA.AperFunction,SMDPad,CuDef*%
G36*
G01*
X96609000Y-74750000D02*
X95859000Y-74750000D01*
G75*
G02*
X95484000Y-74375000I0J375000D01*
G01*
X95484000Y-73625000D01*
G75*
G02*
X95859000Y-73250000I375000J0D01*
G01*
X96609000Y-73250000D01*
G75*
G02*
X96984000Y-73625000I0J-375000D01*
G01*
X96984000Y-74375000D01*
G75*
G02*
X96609000Y-74750000I-375000J0D01*
G01*
G37*
%TD.AperFunction*%
%TD*%
%TO.P,J12,2*%
%TO.N,Net-(J12-Pad2)*%
%TA.AperFunction,SMDPad,CuDef*%
G36*
G01*
X93759000Y-70416000D02*
X94509000Y-70416000D01*
G75*
G02*
X94884000Y-70791000I0J-375000D01*
G01*
X94884000Y-71541000D01*
G75*
G02*
X94509000Y-71916000I-375000J0D01*
G01*
X93759000Y-71916000D01*
G75*
G02*
X93384000Y-71541000I0J375000D01*
G01*
X93384000Y-70791000D01*
G75*
G02*
X93759000Y-70416000I375000J0D01*
G01*
G37*
%TD.AperFunction*%
%TO.P,J12,1*%
%TO.N,+5V*%
%TA.AperFunction,SMDPad,CuDef*%
G36*
G01*
X95759000Y-70416000D02*
X96509000Y-70416000D01*
G75*
G02*
X96884000Y-70791000I0J-375000D01*
G01*
X96884000Y-71541000D01*
G75*
G02*
X96509000Y-71916000I-375000J0D01*
G01*
X95759000Y-71916000D01*
G75*
G02*
X95384000Y-71541000I0J375000D01*
G01*
X95384000Y-70791000D01*
G75*
G02*
X95759000Y-70416000I375000J0D01*
G01*
G37*
%TD.AperFunction*%
%TD*%
%TO.P,J14,2*%
%TO.N,GND*%
%TA.AperFunction,SMDPad,CuDef*%
G36*
G01*
X52661900Y-70950000D02*
X52661900Y-69450000D01*
G75*
G02*
X53411900Y-68700000I750000J0D01*
G01*
X54911900Y-68700000D01*
G75*
G02*
X55661900Y-69450000I0J-750000D01*
G01*
X55661900Y-70950000D01*
G75*
G02*
X54911900Y-71700000I-750000J0D01*
G01*
X53411900Y-71700000D01*
G75*
G02*
X52661900Y-70950000I0J750000D01*
G01*
G37*
%TD.AperFunction*%
%TO.P,J14,1*%
%TO.N,/Power_Regulation/Vbat*%
%TA.AperFunction,SMDPad,CuDef*%
G36*
G01*
X52725400Y-66950000D02*
X52725400Y-65450000D01*
G75*
G02*
X53475400Y-64700000I750000J0D01*
G01*
X54975400Y-64700000D01*
G75*
G02*
X55725400Y-65450000I0J-750000D01*
G01*
X55725400Y-66950000D01*
G75*
G02*
X54975400Y-67700000I-750000J0D01*
G01*
X53475400Y-67700000D01*
G75*
G02*
X52725400Y-66950000I0J750000D01*
G01*
G37*
%TD.AperFunction*%
%TD*%
D31*
%TO.P,U5,1*%
%TO.N,GND*%
X84850000Y-68000000D03*
%TO.P,U5,3*%
%TO.N,+5V*%
X84850000Y-63400000D03*
%TO.P,U5,2*%
%TO.N,+3V3*%
X84850000Y-65700000D03*
D32*
X78550000Y-65700000D03*
%TD*%
%TO.P,C17,1*%
%TO.N,GND*%
%TA.AperFunction,SMDPad,CuDef*%
G36*
G01*
X71980000Y-70427500D02*
X71980000Y-70772500D01*
G75*
G02*
X71832500Y-70920000I-147500J0D01*
G01*
X71537500Y-70920000D01*
G75*
G02*
X71390000Y-70772500I0J147500D01*
G01*
X71390000Y-70427500D01*
G75*
G02*
X71537500Y-70280000I147500J0D01*
G01*
X71832500Y-70280000D01*
G75*
G02*
X71980000Y-70427500I0J-147500D01*
G01*
G37*
%TD.AperFunction*%
%TO.P,C17,2*%
%TO.N,/NRST*%
%TA.AperFunction,SMDPad,CuDef*%
G36*
G01*
X71010000Y-70427500D02*
X71010000Y-70772500D01*
G75*
G02*
X70862500Y-70920000I-147500J0D01*
G01*
X70567500Y-70920000D01*
G75*
G02*
X70420000Y-70772500I0J147500D01*
G01*
X70420000Y-70427500D01*
G75*
G02*
X70567500Y-70280000I147500J0D01*
G01*
X70862500Y-70280000D01*
G75*
G02*
X71010000Y-70427500I0J-147500D01*
G01*
G37*
%TD.AperFunction*%
%TD*%
%TO.P,D7,1*%
%TO.N,Net-(D7-Pad1)*%
%TA.AperFunction,SMDPad,CuDef*%
G36*
G01*
X76537500Y-71243750D02*
X76537500Y-71756250D01*
G75*
G02*
X76318750Y-71975000I-218750J0D01*
G01*
X75881250Y-71975000D01*
G75*
G02*
X75662500Y-71756250I0J218750D01*
G01*
X75662500Y-71243750D01*
G75*
G02*
X75881250Y-71025000I218750J0D01*
G01*
X76318750Y-71025000D01*
G75*
G02*
X76537500Y-71243750I0J-218750D01*
G01*
G37*
%TD.AperFunction*%
%TO.P,D7,2*%
%TO.N,/STM32 Controller/USER_LED_1*%
%TA.AperFunction,SMDPad,CuDef*%
G36*
G01*
X74962500Y-71243750D02*
X74962500Y-71756250D01*
G75*
G02*
X74743750Y-71975000I-218750J0D01*
G01*
X74306250Y-71975000D01*
G75*
G02*
X74087500Y-71756250I0J218750D01*
G01*
X74087500Y-71243750D01*
G75*
G02*
X74306250Y-71025000I218750J0D01*
G01*
X74743750Y-71025000D01*
G75*
G02*
X74962500Y-71243750I0J-218750D01*
G01*
G37*
%TD.AperFunction*%
%TD*%
%TO.P,R7,1*%
%TO.N,Net-(D7-Pad1)*%
%TA.AperFunction,SMDPad,CuDef*%
G36*
G01*
X76365000Y-69927500D02*
X76365000Y-70272500D01*
G75*
G02*
X76217500Y-70420000I-147500J0D01*
G01*
X75922500Y-70420000D01*
G75*
G02*
X75775000Y-70272500I0J147500D01*
G01*
X75775000Y-69927500D01*
G75*
G02*
X75922500Y-69780000I147500J0D01*
G01*
X76217500Y-69780000D01*
G75*
G02*
X76365000Y-69927500I0J-147500D01*
G01*
G37*
%TD.AperFunction*%
%TO.P,R7,2*%
%TO.N,GND*%
%TA.AperFunction,SMDPad,CuDef*%
G36*
G01*
X75395000Y-69927500D02*
X75395000Y-70272500D01*
G75*
G02*
X75247500Y-70420000I-147500J0D01*
G01*
X74952500Y-70420000D01*
G75*
G02*
X74805000Y-70272500I0J147500D01*
G01*
X74805000Y-69927500D01*
G75*
G02*
X74952500Y-69780000I147500J0D01*
G01*
X75247500Y-69780000D01*
G75*
G02*
X75395000Y-69927500I0J-147500D01*
G01*
G37*
%TD.AperFunction*%
%TD*%
%TO.P,D8,1*%
%TO.N,Net-(D8-Pad1)*%
%TA.AperFunction,SMDPad,CuDef*%
G36*
G01*
X64120001Y-90551251D02*
X64120001Y-90038751D01*
G75*
G02*
X64338751Y-89820001I218750J0D01*
G01*
X64776251Y-89820001D01*
G75*
G02*
X64995001Y-90038751I0J-218750D01*
G01*
X64995001Y-90551251D01*
G75*
G02*
X64776251Y-90770001I-218750J0D01*
G01*
X64338751Y-90770001D01*
G75*
G02*
X64120001Y-90551251I0J218750D01*
G01*
G37*
%TD.AperFunction*%
%TO.P,D8,2*%
%TO.N,/STM32 Controller/USER_LED_2*%
%TA.AperFunction,SMDPad,CuDef*%
G36*
G01*
X65695001Y-90551251D02*
X65695001Y-90038751D01*
G75*
G02*
X65913751Y-89820001I218750J0D01*
G01*
X66351251Y-89820001D01*
G75*
G02*
X66570001Y-90038751I0J-218750D01*
G01*
X66570001Y-90551251D01*
G75*
G02*
X66351251Y-90770001I-218750J0D01*
G01*
X65913751Y-90770001D01*
G75*
G02*
X65695001Y-90551251I0J218750D01*
G01*
G37*
%TD.AperFunction*%
%TD*%
%TO.P,R8,1*%
%TO.N,Net-(D8-Pad1)*%
%TA.AperFunction,SMDPad,CuDef*%
G36*
G01*
X64320000Y-91772500D02*
X64320000Y-91427500D01*
G75*
G02*
X64467500Y-91280000I147500J0D01*
G01*
X64762500Y-91280000D01*
G75*
G02*
X64910000Y-91427500I0J-147500D01*
G01*
X64910000Y-91772500D01*
G75*
G02*
X64762500Y-91920000I-147500J0D01*
G01*
X64467500Y-91920000D01*
G75*
G02*
X64320000Y-91772500I0J147500D01*
G01*
G37*
%TD.AperFunction*%
%TO.P,R8,2*%
%TO.N,GND*%
%TA.AperFunction,SMDPad,CuDef*%
G36*
G01*
X65290000Y-91772500D02*
X65290000Y-91427500D01*
G75*
G02*
X65437500Y-91280000I147500J0D01*
G01*
X65732500Y-91280000D01*
G75*
G02*
X65880000Y-91427500I0J-147500D01*
G01*
X65880000Y-91772500D01*
G75*
G02*
X65732500Y-91920000I-147500J0D01*
G01*
X65437500Y-91920000D01*
G75*
G02*
X65290000Y-91772500I0J147500D01*
G01*
G37*
%TD.AperFunction*%
%TD*%
%TO.P,C7,1*%
%TO.N,Net-(C7-Pad1)*%
%TA.AperFunction,SMDPad,CuDef*%
G36*
G01*
X58743750Y-82675000D02*
X59256250Y-82675000D01*
G75*
G02*
X59475000Y-82893750I0J-218750D01*
G01*
X59475000Y-83331250D01*
G75*
G02*
X59256250Y-83550000I-218750J0D01*
G01*
X58743750Y-83550000D01*
G75*
G02*
X58525000Y-83331250I0J218750D01*
G01*
X58525000Y-82893750D01*
G75*
G02*
X58743750Y-82675000I218750J0D01*
G01*
G37*
%TD.AperFunction*%
%TO.P,C7,2*%
%TO.N,GND*%
%TA.AperFunction,SMDPad,CuDef*%
G36*
G01*
X58743750Y-84250000D02*
X59256250Y-84250000D01*
G75*
G02*
X59475000Y-84468750I0J-218750D01*
G01*
X59475000Y-84906250D01*
G75*
G02*
X59256250Y-85125000I-218750J0D01*
G01*
X58743750Y-85125000D01*
G75*
G02*
X58525000Y-84906250I0J218750D01*
G01*
X58525000Y-84468750D01*
G75*
G02*
X58743750Y-84250000I218750J0D01*
G01*
G37*
%TD.AperFunction*%
%TD*%
%TO.P,C8,2*%
%TO.N,GND*%
%TA.AperFunction,SMDPad,CuDef*%
G36*
G01*
X74450000Y-84056250D02*
X74450000Y-83543750D01*
G75*
G02*
X74668750Y-83325000I218750J0D01*
G01*
X75106250Y-83325000D01*
G75*
G02*
X75325000Y-83543750I0J-218750D01*
G01*
X75325000Y-84056250D01*
G75*
G02*
X75106250Y-84275000I-218750J0D01*
G01*
X74668750Y-84275000D01*
G75*
G02*
X74450000Y-84056250I0J218750D01*
G01*
G37*
%TD.AperFunction*%
%TO.P,C8,1*%
%TO.N,Net-(C8-Pad1)*%
%TA.AperFunction,SMDPad,CuDef*%
G36*
G01*
X72875000Y-84056250D02*
X72875000Y-83543750D01*
G75*
G02*
X73093750Y-83325000I218750J0D01*
G01*
X73531250Y-83325000D01*
G75*
G02*
X73750000Y-83543750I0J-218750D01*
G01*
X73750000Y-84056250D01*
G75*
G02*
X73531250Y-84275000I-218750J0D01*
G01*
X73093750Y-84275000D01*
G75*
G02*
X72875000Y-84056250I0J218750D01*
G01*
G37*
%TD.AperFunction*%
%TD*%
%TO.P,R13,1*%
%TO.N,HSE_OUT*%
%TA.AperFunction,SMDPad,CuDef*%
G36*
G01*
X68795000Y-70227500D02*
X68795000Y-70572500D01*
G75*
G02*
X68647500Y-70720000I-147500J0D01*
G01*
X68352500Y-70720000D01*
G75*
G02*
X68205000Y-70572500I0J147500D01*
G01*
X68205000Y-70227500D01*
G75*
G02*
X68352500Y-70080000I147500J0D01*
G01*
X68647500Y-70080000D01*
G75*
G02*
X68795000Y-70227500I0J-147500D01*
G01*
G37*
%TD.AperFunction*%
%TO.P,R13,2*%
%TO.N,Net-(C6-Pad1)*%
%TA.AperFunction,SMDPad,CuDef*%
G36*
G01*
X67825000Y-70227500D02*
X67825000Y-70572500D01*
G75*
G02*
X67677500Y-70720000I-147500J0D01*
G01*
X67382500Y-70720000D01*
G75*
G02*
X67235000Y-70572500I0J147500D01*
G01*
X67235000Y-70227500D01*
G75*
G02*
X67382500Y-70080000I147500J0D01*
G01*
X67677500Y-70080000D01*
G75*
G02*
X67825000Y-70227500I0J-147500D01*
G01*
G37*
%TD.AperFunction*%
%TD*%
D33*
%TO.N,+3V3*%
X81600000Y-68700000D03*
X80300000Y-68700000D03*
X78900000Y-68700000D03*
X77500000Y-68700000D03*
X82500000Y-65900000D03*
X80900000Y-66000000D03*
X80900000Y-67400000D03*
X82500000Y-64700000D03*
X80900000Y-64700000D03*
D34*
X87050000Y-56450000D03*
D33*
X80900000Y-63500000D03*
X82500000Y-63500000D03*
D34*
X60200000Y-70300000D03*
X64800000Y-75600000D03*
X73000000Y-72600000D03*
X59192105Y-75717810D03*
X62300000Y-84200000D03*
X66872712Y-87700530D03*
X63900000Y-87600000D03*
X63000000Y-88000000D03*
X65581002Y-87521814D03*
X64500000Y-82000000D03*
X86500000Y-77300000D03*
X78200000Y-77900000D03*
X83700000Y-72000000D03*
X83000000Y-86800000D03*
X84500000Y-84100000D03*
X78100000Y-75500000D03*
X73000000Y-73300000D03*
X60700000Y-69900000D03*
X61400000Y-69900000D03*
X59100000Y-76300000D03*
X60200000Y-82400000D03*
X64150000Y-76400000D03*
X73900000Y-72750000D03*
X74650000Y-72800000D03*
X63700000Y-77800000D03*
X84900000Y-77500000D03*
X85800000Y-78300000D03*
X79600000Y-78600000D03*
D33*
X94500000Y-75500000D03*
X92900000Y-74600000D03*
D34*
X71900000Y-83800000D03*
D33*
%TO.N,GND*%
X79400000Y-58300000D03*
X81550000Y-58300000D03*
X77900000Y-60600000D03*
D34*
X75050000Y-64450000D03*
X66700000Y-66700000D03*
X72100000Y-69450000D03*
X64500000Y-68850000D03*
D33*
X65100000Y-67050000D03*
D34*
X63600000Y-68750000D03*
D33*
X86700000Y-67650000D03*
D34*
X88800000Y-66550000D03*
D33*
X86700000Y-69400000D03*
X83700000Y-69500000D03*
D34*
X61400000Y-85200000D03*
X60300000Y-85200000D03*
X75600000Y-90200000D03*
X59200000Y-75000000D03*
X62100000Y-94300000D03*
X57700000Y-97100000D03*
X65574573Y-71466525D03*
X86700000Y-76200000D03*
X81000000Y-72000000D03*
X85200000Y-72300000D03*
X64450003Y-77600000D03*
X69300000Y-80200000D03*
X69300000Y-79000000D03*
X69300000Y-77700000D03*
X69300000Y-76400000D03*
X80600000Y-84800000D03*
X80500000Y-84100000D03*
X83800000Y-80800000D03*
X81000000Y-78300000D03*
X64000000Y-94100000D03*
D33*
X56400000Y-68800000D03*
X53400000Y-72400000D03*
X54900000Y-72400000D03*
X56400000Y-72400000D03*
X56400000Y-70600000D03*
D34*
X59000000Y-79800000D03*
X56500000Y-84400000D03*
X87700000Y-84100000D03*
X87700000Y-81200000D03*
X66100000Y-71700000D03*
X62400000Y-69700000D03*
X62500000Y-69000000D03*
X64900000Y-69900000D03*
X59600000Y-74600000D03*
X60300000Y-74400000D03*
X60900000Y-85700000D03*
X74000000Y-89000000D03*
X64000000Y-93400000D03*
X64700000Y-93100000D03*
X61900000Y-95300000D03*
X61200000Y-94200000D03*
X57000000Y-96900000D03*
X56700000Y-96100000D03*
X87700000Y-67700000D03*
X86100000Y-74300000D03*
X86900000Y-74400000D03*
X87400000Y-75600000D03*
X87000000Y-76800000D03*
X70500000Y-80800000D03*
X70550000Y-79550000D03*
X66850000Y-78150000D03*
X80500000Y-77850000D03*
X75400000Y-72850000D03*
X75700000Y-73449980D03*
X78400000Y-73200000D03*
X79100000Y-72600000D03*
X91200000Y-74000000D03*
X91500000Y-72000000D03*
X90800000Y-72400000D03*
D33*
X96800000Y-69100000D03*
X97300000Y-65700000D03*
D34*
X92600000Y-55400000D03*
X93200000Y-54800000D03*
X93200000Y-53700000D03*
D33*
X94475000Y-89456240D03*
X94475000Y-91496009D03*
D34*
X79612500Y-92169791D03*
X80300000Y-92000000D03*
X64800000Y-68100000D03*
D33*
X69800000Y-59600000D03*
D34*
X72400000Y-71200000D03*
X72200000Y-70400000D03*
X71500000Y-71500000D03*
X74500000Y-70200000D03*
X66200000Y-91800000D03*
D33*
X67400000Y-61000000D03*
X61000000Y-53700000D03*
X61000000Y-52800000D03*
X95700000Y-75400000D03*
X95300000Y-72700000D03*
X94475000Y-87800000D03*
D34*
X58200000Y-85000000D03*
X59200000Y-85500000D03*
X75400000Y-84500000D03*
X72400000Y-86000000D03*
X72800000Y-85600000D03*
D35*
%TO.N,+5V*%
X93600000Y-95400000D03*
X91900000Y-69500000D03*
D34*
%TO.N,/V_USB*%
X76244669Y-91955331D03*
X76600000Y-88500000D03*
%TO.N,/SBUS_TX*%
X69000000Y-83000000D03*
X85300000Y-87700000D03*
%TO.N,/UART2_RX*%
X63000000Y-74650003D03*
X95700000Y-78400000D03*
%TO.N,/UART2_TX*%
X92300000Y-77100000D03*
X63648383Y-74100003D03*
%TO.N,/UART3_TX*%
X74448570Y-81947977D03*
X92500000Y-81500000D03*
%TO.N,/UART3_RX*%
X74551667Y-81273256D03*
X94000000Y-78500000D03*
X68665577Y-82442628D03*
X70000000Y-87300000D03*
%TO.N,/UART5_TX*%
X92000000Y-83500000D03*
X76559891Y-83499974D03*
%TO.N,/UART5_RX*%
X94000000Y-81500000D03*
X75450000Y-82299999D03*
%TO.N,/GPIO_1*%
X55500000Y-95100000D03*
X92863909Y-79413909D03*
X75550000Y-75600000D03*
X75500000Y-78900000D03*
%TO.N,/GPIO_2*%
X55650000Y-94450000D03*
X80400000Y-79750000D03*
X71650000Y-82050000D03*
X92600000Y-80100000D03*
%TO.N,/GEN_ADC*%
X63400000Y-75200003D03*
X56250000Y-73800000D03*
%TO.N,/SWDIO*%
X78000000Y-86700000D03*
X74900000Y-85900000D03*
%TO.N,/NRST*%
X68965577Y-78257372D03*
X76700000Y-79900000D03*
X70400000Y-71500000D03*
X69300000Y-74200000D03*
%TO.N,/ESC_DSHOT_1*%
X67000000Y-87050000D03*
X67275000Y-89200000D03*
%TO.N,/ESC_DSHOT_3*%
X66750000Y-82400000D03*
X68595919Y-87704081D03*
%TO.N,/ESC_DSHOT_4*%
X66100000Y-81500000D03*
X69800000Y-92900000D03*
%TO.N,/SPI_ESC_SCK*%
X57900000Y-76600000D03*
%TO.N,/SPI_ESC_MOSI*%
X58900000Y-77600000D03*
%TO.N,/SPI_ESC_MISO*%
X60100000Y-77400000D03*
%TO.N,/ESC_1_CS*%
X66216963Y-87699027D03*
X67100000Y-86000000D03*
X65300000Y-82600000D03*
%TO.N,/ESC_2_CS*%
X62552262Y-83050000D03*
%TO.N,/ESC_3_CS*%
X62763095Y-83675638D03*
%TO.N,/ESC_4_CS*%
X62541404Y-84803512D03*
%TO.N,/SBUS_RX*%
X68977199Y-86022801D03*
X73935999Y-85050001D03*
%TO.N,/GYRO_SCL*%
X77700000Y-76800000D03*
X76550000Y-77950000D03*
%TO.N,/EEPROM_SDA*%
X62900000Y-81400000D03*
%TO.N,/EEPROM_SCL*%
X63000000Y-80500000D03*
%TO.N,/BUZZER*%
X76500000Y-76800000D03*
X74500000Y-78500000D03*
%TO.N,BOOT0*%
X87500000Y-53150000D03*
X84200000Y-70600000D03*
%TO.N,/GYRO_FSYNC*%
X85400000Y-74100000D03*
X62900000Y-78300000D03*
%TO.N,/GYRO_INT*%
X85400000Y-73400000D03*
X60000000Y-79585998D03*
%TO.N,/CURR_SENSE*%
X67700000Y-82800000D03*
X71425000Y-89700000D03*
%TO.N,/STM32 Controller/USER_LED_1*%
X72000000Y-73900000D03*
X73500000Y-71600000D03*
%TO.N,/STM32 Controller/USER_LED_2*%
X65930000Y-85840000D03*
X66100000Y-89400000D03*
%TD*%
D36*
%TO.N,+3V3*%
X71247053Y-72727947D02*
X71050000Y-72925000D01*
X72107053Y-72727947D02*
X71247053Y-72727947D01*
D37*
X61400000Y-82575000D02*
X61625000Y-82350000D01*
X61400000Y-83415000D02*
X61400000Y-82575000D01*
X60560000Y-83415000D02*
X61625000Y-82350000D01*
X60300000Y-83415000D02*
X60560000Y-83415000D01*
X60335000Y-75850000D02*
X60000000Y-76185000D01*
X61625000Y-75850000D02*
X60335000Y-75850000D01*
X83544000Y-72959000D02*
X83544000Y-73572000D01*
X82835000Y-72250000D02*
X83544000Y-72959000D01*
X85258068Y-76760010D02*
X84770058Y-76272000D01*
X85620010Y-76760010D02*
X85258068Y-76760010D01*
X85650000Y-76790000D02*
X85620010Y-76760010D01*
X84770058Y-76272000D02*
X84244000Y-76272000D01*
X85650000Y-77085000D02*
X85650000Y-76790000D01*
X87400000Y-56100000D02*
X87050000Y-56450000D01*
X87400000Y-55185000D02*
X87400000Y-56100000D01*
X75412500Y-65700000D02*
X75250000Y-65862500D01*
X78550000Y-65700000D02*
X75412500Y-65700000D01*
X60500000Y-70600000D02*
X60200000Y-70300000D01*
X61115000Y-70600000D02*
X60500000Y-70600000D01*
D36*
X72872053Y-72727947D02*
X73000000Y-72600000D01*
X72107053Y-72727947D02*
X72872053Y-72727947D01*
X59659295Y-76185000D02*
X59192105Y-75717810D01*
X60000000Y-76185000D02*
X59659295Y-76185000D01*
X61515000Y-83415000D02*
X62300000Y-84200000D01*
X61400000Y-83415000D02*
X61515000Y-83415000D01*
X62700000Y-87700000D02*
X63000000Y-88000000D01*
X62700000Y-87285000D02*
X62700000Y-87700000D01*
X63800000Y-87500000D02*
X63900000Y-87600000D01*
X63800000Y-86885000D02*
X63800000Y-87500000D01*
X65885000Y-87217816D02*
X65581002Y-87521814D01*
X65885000Y-86700000D02*
X65885000Y-87217816D01*
D37*
X86285000Y-77085000D02*
X86500000Y-77300000D01*
X85650000Y-77085000D02*
X86285000Y-77085000D01*
X78435000Y-78135000D02*
X78200000Y-77900000D01*
X79050000Y-78135000D02*
X78435000Y-78135000D01*
X83450000Y-72250000D02*
X83700000Y-72000000D01*
X82835000Y-72250000D02*
X83450000Y-72250000D01*
D36*
X82250000Y-86050000D02*
X83000000Y-86800000D01*
X82250000Y-85840000D02*
X82250000Y-86050000D01*
X84503000Y-84097000D02*
X84500000Y-84100000D01*
X85280500Y-84097000D02*
X84503000Y-84097000D01*
X78435000Y-75165000D02*
X78100000Y-75500000D01*
X79050000Y-75165000D02*
X78435000Y-75165000D01*
X66872712Y-88212288D02*
X66785000Y-88300000D01*
X66872712Y-87700530D02*
X66872712Y-88212288D01*
X72427947Y-72727947D02*
X73000000Y-73300000D01*
X72107053Y-72727947D02*
X72427947Y-72727947D01*
X61115000Y-70315000D02*
X60700000Y-69900000D01*
X61115000Y-70600000D02*
X61115000Y-70315000D01*
X61115000Y-70185000D02*
X61400000Y-69900000D01*
X61115000Y-70600000D02*
X61115000Y-70185000D01*
X59215000Y-76185000D02*
X59100000Y-76300000D01*
X60000000Y-76185000D02*
X59215000Y-76185000D01*
X60300000Y-82500000D02*
X60200000Y-82400000D01*
X60300000Y-83415000D02*
X60300000Y-82500000D01*
D37*
X85650000Y-77085000D02*
X85650000Y-77950000D01*
X85650000Y-77085000D02*
X85650000Y-77250000D01*
D36*
X72975000Y-74590000D02*
X73765000Y-73800000D01*
X72975000Y-74850000D02*
X72975000Y-74590000D01*
X73765000Y-72885000D02*
X73900000Y-72750000D01*
X73765000Y-73800000D02*
X73765000Y-72885000D01*
X73765000Y-73685000D02*
X74650000Y-72800000D01*
X73765000Y-73800000D02*
X73765000Y-73685000D01*
X85315000Y-77085000D02*
X84900000Y-77500000D01*
X85650000Y-77085000D02*
X85315000Y-77085000D01*
X85650000Y-78150000D02*
X85800000Y-78300000D01*
X85650000Y-77950000D02*
X85650000Y-78150000D01*
X79135000Y-78135000D02*
X79600000Y-78600000D01*
X79050000Y-78135000D02*
X79135000Y-78135000D01*
D38*
X94234000Y-75234000D02*
X94500000Y-75500000D01*
X94234000Y-74000000D02*
X94234000Y-75234000D01*
X93500000Y-74000000D02*
X92900000Y-74600000D01*
X94234000Y-74000000D02*
X93500000Y-74000000D01*
D36*
X71190000Y-84415000D02*
X71050000Y-84275000D01*
X72000000Y-84415000D02*
X71190000Y-84415000D01*
X72000000Y-83900000D02*
X71900000Y-83800000D01*
X72000000Y-84415000D02*
X72000000Y-83900000D01*
D37*
%TO.N,GND*%
X81044000Y-72776000D02*
X81044000Y-73572000D01*
X81570000Y-72250000D02*
X81044000Y-72776000D01*
X81865000Y-72250000D02*
X81570000Y-72250000D01*
X85307000Y-75772000D02*
X84244000Y-75772000D01*
X85650000Y-76115000D02*
X85307000Y-75772000D01*
X86589000Y-75176000D02*
X86589000Y-75100000D01*
X85650000Y-76115000D02*
X86589000Y-75176000D01*
X87515000Y-82517000D02*
X88630000Y-83632000D01*
X87515000Y-82000000D02*
X87515000Y-82517000D01*
D39*
X66826000Y-55801000D02*
X67461000Y-56436000D01*
X64761000Y-55801000D02*
X66826000Y-55801000D01*
X62400000Y-53000000D02*
X65489990Y-53000000D01*
D38*
X67461000Y-55345998D02*
X67461000Y-56436000D01*
X65515000Y-53399998D02*
X67461000Y-55345998D01*
X65515000Y-53000000D02*
X65515000Y-53399998D01*
D40*
X67461000Y-59389000D02*
X69080000Y-61008000D01*
X67461000Y-56436000D02*
X67461000Y-59389000D01*
D37*
X73900000Y-64665000D02*
X74785000Y-64665000D01*
X75000000Y-64450000D02*
X75050000Y-64450000D01*
X74785000Y-64665000D02*
X75000000Y-64450000D01*
X63133000Y-69608000D02*
X63110000Y-69585000D01*
X64126000Y-69608000D02*
X63133000Y-69608000D01*
X67935000Y-67615000D02*
X68300000Y-67250000D01*
X66700000Y-67615000D02*
X67935000Y-67615000D01*
X70865000Y-68585000D02*
X70500000Y-68950000D01*
X72100000Y-68585000D02*
X70865000Y-68585000D01*
X66700000Y-67615000D02*
X66700000Y-66700000D01*
X72100000Y-68585000D02*
X72100000Y-69450000D01*
X64126000Y-69224000D02*
X64500000Y-68850000D01*
X64126000Y-69608000D02*
X64126000Y-69224000D01*
D38*
X64600000Y-67550000D02*
X65100000Y-67050000D01*
X63737500Y-67550000D02*
X64600000Y-67550000D01*
D37*
X63110000Y-69240000D02*
X63600000Y-68750000D01*
X63110000Y-69585000D02*
X63110000Y-69240000D01*
X88450000Y-66900000D02*
X88800000Y-66550000D01*
X88450000Y-67465000D02*
X88450000Y-66900000D01*
D41*
X87500000Y-66850000D02*
X86700000Y-67650000D01*
X87500000Y-65937500D02*
X87500000Y-66850000D01*
D37*
X61400000Y-84385000D02*
X61400000Y-85200000D01*
X60300000Y-84385000D02*
X60300000Y-85200000D01*
D36*
X74927817Y-89527817D02*
X75600000Y-90200000D01*
X74877817Y-89527817D02*
X74927817Y-89527817D01*
X59415000Y-75215000D02*
X59200000Y-75000000D01*
X60000000Y-75215000D02*
X59415000Y-75215000D01*
D37*
X61187500Y-95212500D02*
X62100000Y-94300000D01*
X60900000Y-95212500D02*
X61187500Y-95212500D01*
X57700000Y-95987500D02*
X57700000Y-97100000D01*
X65550000Y-71491098D02*
X65574573Y-71466525D01*
X65550000Y-72925000D02*
X65550000Y-71491098D01*
X86615000Y-76115000D02*
X86700000Y-76200000D01*
X85650000Y-76115000D02*
X86615000Y-76115000D01*
X81250000Y-72250000D02*
X81000000Y-72000000D01*
X81865000Y-72250000D02*
X81250000Y-72250000D01*
X85268500Y-72231500D02*
X85200000Y-72300000D01*
X86045000Y-72231500D02*
X85268500Y-72231500D01*
X91567000Y-73000500D02*
X91567000Y-73033000D01*
D36*
X80830000Y-84570000D02*
X80600000Y-84800000D01*
X82250000Y-84570000D02*
X80830000Y-84570000D01*
X81300000Y-83300000D02*
X80500000Y-84100000D01*
X82250000Y-83300000D02*
X81300000Y-83300000D01*
X83760000Y-80760000D02*
X83800000Y-80800000D01*
X82250000Y-80760000D02*
X83760000Y-80760000D01*
X81044000Y-78256000D02*
X81000000Y-78300000D01*
X81044000Y-77472000D02*
X81044000Y-78256000D01*
D37*
X64375000Y-94475000D02*
X64000000Y-94100000D01*
X64800000Y-94475000D02*
X64375000Y-94475000D01*
D36*
X88168000Y-83632000D02*
X87700000Y-84100000D01*
X88630000Y-83632000D02*
X88168000Y-83632000D01*
X87515000Y-81385000D02*
X87700000Y-81200000D01*
X87515000Y-82000000D02*
X87515000Y-81385000D01*
X72107053Y-71757947D02*
X72107053Y-71692947D01*
X65934298Y-71700000D02*
X66100000Y-71700000D01*
X65550000Y-72084298D02*
X65934298Y-71700000D01*
X65550000Y-72925000D02*
X65550000Y-72084298D01*
X62515000Y-69585000D02*
X62400000Y-69700000D01*
X63110000Y-69585000D02*
X62515000Y-69585000D01*
X63085000Y-69585000D02*
X62500000Y-69000000D01*
X63110000Y-69585000D02*
X63085000Y-69585000D01*
X64608000Y-69608000D02*
X64900000Y-69900000D01*
X64126000Y-69608000D02*
X64608000Y-69608000D01*
X60000000Y-75000000D02*
X59600000Y-74600000D01*
X60000000Y-75215000D02*
X60000000Y-75000000D01*
X60000000Y-74700000D02*
X60300000Y-74400000D01*
X60000000Y-75215000D02*
X60000000Y-74700000D01*
X60300000Y-84385000D02*
X60300000Y-84400000D01*
X61400000Y-84385000D02*
X61215000Y-84385000D01*
X60900000Y-84700000D02*
X60900000Y-85700000D01*
X61215000Y-84385000D02*
X60900000Y-84700000D01*
X74527817Y-89527817D02*
X74000000Y-89000000D01*
X74877817Y-89527817D02*
X74527817Y-89527817D01*
X64800000Y-94200000D02*
X64000000Y-93400000D01*
X64800000Y-94475000D02*
X64800000Y-94200000D01*
X64800000Y-93200000D02*
X64700000Y-93100000D01*
X64800000Y-94475000D02*
X64800000Y-93200000D01*
X61812500Y-95212500D02*
X61900000Y-95300000D01*
X60900000Y-95212500D02*
X61812500Y-95212500D01*
X60900000Y-94500000D02*
X61200000Y-94200000D01*
X60900000Y-95212500D02*
X60900000Y-94500000D01*
X57700000Y-95987500D02*
X57700000Y-96000000D01*
X57000000Y-96700000D02*
X57000000Y-96900000D01*
X57700000Y-96000000D02*
X57000000Y-96700000D01*
X56812500Y-95987500D02*
X56700000Y-96100000D01*
X57700000Y-95987500D02*
X56812500Y-95987500D01*
D37*
X87935000Y-67465000D02*
X87700000Y-67700000D01*
X88450000Y-67465000D02*
X87935000Y-67465000D01*
X85760000Y-76260000D02*
X85827120Y-76260000D01*
X85650000Y-76150000D02*
X85760000Y-76260000D01*
X85650000Y-76115000D02*
X85650000Y-76150000D01*
X86589000Y-74789000D02*
X86100000Y-74300000D01*
X86589000Y-75100000D02*
X86589000Y-74789000D01*
X86589000Y-74711000D02*
X86900000Y-74400000D01*
X86589000Y-75100000D02*
X86589000Y-74711000D01*
X86900000Y-75100000D02*
X87400000Y-75600000D01*
X86589000Y-75100000D02*
X86900000Y-75100000D01*
X85650000Y-76115000D02*
X85815000Y-76115000D01*
X86315000Y-76115000D02*
X87000000Y-76800000D01*
X85815000Y-76115000D02*
X86315000Y-76115000D01*
X60613942Y-75215000D02*
X60000000Y-75215000D01*
X60748942Y-75350000D02*
X60613942Y-75215000D01*
X61625000Y-75350000D02*
X60748942Y-75350000D01*
D36*
X80878000Y-77472000D02*
X80500000Y-77850000D01*
X81044000Y-77472000D02*
X80878000Y-77472000D01*
X74735000Y-74430702D02*
X74735000Y-73800000D01*
X73815702Y-75350000D02*
X74735000Y-74430702D01*
X72975000Y-75350000D02*
X73815702Y-75350000D01*
X74735000Y-73515000D02*
X75400000Y-72850000D01*
X74735000Y-73800000D02*
X74735000Y-73515000D01*
X75349980Y-73800000D02*
X75700000Y-73449980D01*
X74735000Y-73800000D02*
X75349980Y-73800000D01*
X78435000Y-73165000D02*
X78400000Y-73200000D01*
X79050000Y-73165000D02*
X78435000Y-73165000D01*
X79050000Y-72650000D02*
X79100000Y-72600000D01*
X79050000Y-73165000D02*
X79050000Y-72650000D01*
D37*
X91567000Y-73633000D02*
X91200000Y-74000000D01*
X91567000Y-73000500D02*
X91567000Y-73633000D01*
X91567000Y-72067000D02*
X91500000Y-72000000D01*
X91567000Y-73000500D02*
X91567000Y-72067000D01*
X91400500Y-73000500D02*
X90800000Y-72400000D01*
X91567000Y-73000500D02*
X91400500Y-73000500D01*
D38*
X95550000Y-67850000D02*
X96800000Y-69100000D01*
X95550000Y-67200000D02*
X95550000Y-67850000D01*
X95800000Y-67200000D02*
X97300000Y-65700000D01*
X95550000Y-67200000D02*
X95800000Y-67200000D01*
D37*
X95518760Y-90500000D02*
X94475000Y-89456240D01*
X96200000Y-90500000D02*
X95518760Y-90500000D01*
X95478991Y-92500000D02*
X94475000Y-91496009D01*
X96200000Y-92500000D02*
X95478991Y-92500000D01*
D42*
X79900000Y-92457291D02*
X79612500Y-92169791D01*
X79900000Y-93237500D02*
X79900000Y-92457291D01*
X79900000Y-92400000D02*
X80300000Y-92000000D01*
X79900000Y-93237500D02*
X79900000Y-92400000D01*
X64250000Y-67550000D02*
X64800000Y-68100000D01*
X63737500Y-67550000D02*
X64250000Y-67550000D01*
D38*
X69080000Y-60320000D02*
X69800000Y-59600000D01*
X69080000Y-61008000D02*
X69080000Y-60320000D01*
D36*
X72107053Y-71492947D02*
X72400000Y-71200000D01*
X72107053Y-71757947D02*
X72107053Y-71492947D01*
X72000000Y-70600000D02*
X72200000Y-70400000D01*
X71685000Y-70600000D02*
X72000000Y-70600000D01*
X71757947Y-71757947D02*
X71500000Y-71500000D01*
X72107053Y-71757947D02*
X71757947Y-71757947D01*
X74600000Y-70100000D02*
X74500000Y-70200000D01*
X75100000Y-70100000D02*
X74600000Y-70100000D01*
X66000000Y-91600000D02*
X66200000Y-91800000D01*
X65585000Y-91600000D02*
X66000000Y-91600000D01*
D38*
X67408000Y-61008000D02*
X67400000Y-61000000D01*
X69080000Y-61008000D02*
X67408000Y-61008000D01*
X61700000Y-53000000D02*
X61000000Y-53700000D01*
X62400000Y-53000000D02*
X61700000Y-53000000D01*
X61200000Y-53000000D02*
X61000000Y-52800000D01*
X62400000Y-53000000D02*
X61200000Y-53000000D01*
X96234000Y-74866000D02*
X95700000Y-75400000D01*
X96234000Y-74000000D02*
X96234000Y-74866000D01*
X96234000Y-73634000D02*
X95300000Y-72700000D01*
X96234000Y-74000000D02*
X96234000Y-73634000D01*
D37*
X96212700Y-88500000D02*
X95175000Y-88500000D01*
X95175000Y-88500000D02*
X94475000Y-87800000D01*
D36*
X58512500Y-84687500D02*
X58200000Y-85000000D01*
X59000000Y-84687500D02*
X58512500Y-84687500D01*
X59000000Y-85300000D02*
X59200000Y-85500000D01*
X59000000Y-84687500D02*
X59000000Y-85300000D01*
X74887500Y-83987500D02*
X75400000Y-84500000D01*
X74887500Y-83800000D02*
X74887500Y-83987500D01*
X72000000Y-85600000D02*
X72400000Y-86000000D01*
X72000000Y-85385000D02*
X72000000Y-85600000D01*
X72585000Y-85385000D02*
X72800000Y-85600000D01*
X72000000Y-85385000D02*
X72585000Y-85385000D01*
D37*
%TO.N,Net-(C3-Pad2)*%
X85447000Y-75272000D02*
X84244000Y-75272000D01*
X85619000Y-75100000D02*
X85447000Y-75272000D01*
D36*
%TO.N,Net-(C4-Pad2)*%
X79687000Y-74772000D02*
X79050000Y-74135000D01*
X80344000Y-74772000D02*
X79687000Y-74772000D01*
D37*
%TO.N,HSE_IN*%
X70500000Y-67250000D02*
X70150000Y-67250000D01*
X70150000Y-67250000D02*
X69350001Y-68049999D01*
X70865000Y-67615000D02*
X70500000Y-67250000D01*
X72100000Y-67615000D02*
X70865000Y-67615000D01*
X69050000Y-72048942D02*
X69050000Y-72925000D01*
X69350001Y-71748941D02*
X69050000Y-72048942D01*
X69350001Y-68049999D02*
X69350001Y-71748941D01*
%TO.N,Net-(C6-Pad1)*%
X68300000Y-68950000D02*
X68300000Y-69112500D01*
X67065000Y-68950000D02*
X66700000Y-68585000D01*
X68300000Y-68950000D02*
X67065000Y-68950000D01*
X67530000Y-69720000D02*
X68300000Y-68950000D01*
X67530000Y-70400000D02*
X67530000Y-69720000D01*
D36*
%TO.N,Net-(C7-Pad1)*%
X59000000Y-82785998D02*
X59000000Y-83112500D01*
X59935999Y-81849999D02*
X59000000Y-82785998D01*
X61625000Y-81850000D02*
X59935999Y-81849999D01*
%TO.N,Net-(C8-Pad1)*%
X72512500Y-83000000D02*
X73312500Y-83800000D01*
X70984298Y-83000000D02*
X72512500Y-83000000D01*
X70550000Y-83434298D02*
X70984298Y-83000000D01*
X70550000Y-84275000D02*
X70550000Y-83434298D01*
D37*
%TO.N,+3.3VA*%
X63133000Y-70578000D02*
X63110000Y-70555000D01*
X62130000Y-70555000D02*
X62085000Y-70600000D01*
X63110000Y-70555000D02*
X62130000Y-70555000D01*
X64103000Y-70555000D02*
X64126000Y-70578000D01*
X63110000Y-70555000D02*
X64103000Y-70555000D01*
X64126000Y-70578000D02*
X64378000Y-70578000D01*
X65050000Y-71750000D02*
X65050000Y-72925000D01*
X64999572Y-71699572D02*
X65050000Y-71750000D01*
X64999572Y-71199572D02*
X64999572Y-71699572D01*
X64378000Y-70578000D02*
X64999572Y-71199572D01*
D43*
%TO.N,/Power_Regulation/Vbat*%
X54425400Y-66000000D02*
X54225400Y-66200000D01*
X57100000Y-66000000D02*
X54425400Y-66000000D01*
D37*
X57400000Y-66300000D02*
X57100000Y-66000000D01*
D40*
%TO.N,+5V*%
X85000000Y-63250000D02*
X84850000Y-63400000D01*
X85000000Y-58300000D02*
X85000000Y-63250000D01*
X86837500Y-63400000D02*
X87500000Y-64062500D01*
X84850000Y-63400000D02*
X86837500Y-63400000D01*
D39*
X87500000Y-64062500D02*
X88200000Y-64062500D01*
X93800000Y-63200000D02*
X95613500Y-63200000D01*
D44*
X96134000Y-70384000D02*
X96134000Y-71166000D01*
D39*
X87250000Y-94600000D02*
X88500000Y-94600000D01*
X88500000Y-94600000D02*
X88600000Y-94600000D01*
X89400000Y-95400000D02*
X93600000Y-95400000D01*
X88600000Y-94600000D02*
X89400000Y-95400000D01*
X87500000Y-64062500D02*
X88962500Y-64062500D01*
X88962500Y-64062500D02*
X89500000Y-64600000D01*
X92400000Y-64600000D02*
X93800000Y-63200000D01*
X89500000Y-64600000D02*
X92400000Y-64600000D01*
X96134000Y-71166000D02*
X96134000Y-70634000D01*
X96134000Y-70634000D02*
X95100000Y-69600000D01*
X95100000Y-69600000D02*
X94100000Y-69600000D01*
X94100000Y-69600000D02*
X92400000Y-67900000D01*
X92400000Y-67900000D02*
X92400000Y-64600000D01*
X91900000Y-68400000D02*
X92400000Y-67900000D01*
X91900000Y-69500000D02*
X91900000Y-68400000D01*
D37*
X89500000Y-64600000D02*
X89500000Y-65600000D01*
X89850000Y-65950000D02*
X89850000Y-66662500D01*
X89500000Y-65600000D02*
X89850000Y-65950000D01*
D39*
%TO.N,Net-(C20-Pad1)*%
X63671000Y-57071000D02*
X62400000Y-55800000D01*
X64761000Y-57071000D02*
X63671000Y-57071000D01*
D40*
X62400000Y-55800000D02*
X61850000Y-55800000D01*
X61850000Y-55800000D02*
X61200000Y-55150000D01*
X61200000Y-55150000D02*
X57950000Y-55150000D01*
X57950000Y-55150000D02*
X54900000Y-58200000D01*
X54900000Y-58200000D02*
X54900000Y-61800000D01*
X54900000Y-61800000D02*
X56550000Y-63450000D01*
X56550000Y-63450000D02*
X57307998Y-63450000D01*
X58907998Y-65050000D02*
X59100000Y-65050000D01*
X60900000Y-65050000D02*
X61050000Y-65200000D01*
X59100000Y-65050000D02*
X60900000Y-65050000D01*
X57307998Y-63450000D02*
X58907998Y-65050000D01*
%TO.N,Net-(C23-Pad2)*%
X65080000Y-61008000D02*
X67172000Y-63100000D01*
X67172000Y-63100000D02*
X71800000Y-63100000D01*
X71800000Y-63100000D02*
X71800000Y-62911000D01*
D38*
X71144000Y-62444000D02*
X71800000Y-63100000D01*
X71144000Y-62255000D02*
X71144000Y-62444000D01*
D40*
X74700000Y-58250000D02*
X74700000Y-59200000D01*
X74700000Y-59200000D02*
X73050000Y-60850000D01*
X73050000Y-61850000D02*
X71800000Y-63100000D01*
X73050000Y-60850000D02*
X73050000Y-61850000D01*
D44*
%TO.N,Net-(C23-Pad1)*%
X71144000Y-59324000D02*
X70161000Y-58341000D01*
X71144000Y-61285000D02*
X71144000Y-59324000D01*
D40*
%TO.N,Net-(C24-Pad1)*%
X80250000Y-53750000D02*
X80600000Y-54100000D01*
X74700000Y-53750000D02*
X80250000Y-53750000D01*
X84800000Y-54100000D02*
X85000000Y-54300000D01*
X80600000Y-54100000D02*
X84800000Y-54100000D01*
D37*
X71196414Y-53750000D02*
X74700000Y-53750000D01*
X70500000Y-53053586D02*
X71196414Y-53750000D01*
X70500000Y-53000000D02*
X70500000Y-53053586D01*
%TO.N,Net-(D1-Pad1)*%
X88647500Y-68237500D02*
X88450000Y-68435000D01*
X89850000Y-68237500D02*
X88647500Y-68237500D01*
%TO.N,Net-(D2-Pad1)*%
X75250000Y-67437500D02*
X75137500Y-67437500D01*
X73900000Y-66200000D02*
X73900000Y-65635000D01*
X75137500Y-67437500D02*
X73900000Y-66200000D01*
D38*
%TO.N,/V_USB*%
X83887499Y-94537499D02*
X83950000Y-94600000D01*
X77564997Y-94537499D02*
X83887499Y-94537499D01*
X77299999Y-94272501D02*
X77564997Y-94537499D01*
X77300000Y-93237500D02*
X77299999Y-94272501D01*
D36*
X77300000Y-92883498D02*
X77300000Y-93237500D01*
X76371833Y-91955331D02*
X77300000Y-92883498D01*
X76244669Y-91955331D02*
X76371833Y-91955331D01*
D37*
X75261111Y-87900000D02*
X75252309Y-87908802D01*
X76000000Y-87900000D02*
X75261111Y-87900000D01*
X76600000Y-88500000D02*
X76000000Y-87900000D01*
X75261111Y-87900000D02*
X74900000Y-87900000D01*
X74544983Y-88255017D02*
X73993910Y-88255017D01*
X73993910Y-88255017D02*
X73938893Y-88200000D01*
X74900000Y-87900000D02*
X74544983Y-88255017D01*
X73550000Y-88200000D02*
X73322183Y-87972183D01*
X73938893Y-88200000D02*
X73550000Y-88200000D01*
D38*
%TO.N,Net-(D4-Pad2)*%
X64212500Y-65200000D02*
X61862500Y-67550000D01*
X64550000Y-65200000D02*
X64212500Y-65200000D01*
X59700000Y-67550000D02*
X59100000Y-66950000D01*
X61862500Y-67550000D02*
X59700000Y-67550000D01*
%TO.N,Net-(J1-Pad6)*%
X76100000Y-95537500D02*
X75700000Y-95937500D01*
X76100000Y-93237500D02*
X76100000Y-95537500D01*
X75700000Y-95937500D02*
X77600000Y-95937500D01*
X77600000Y-95937500D02*
X79600000Y-95937500D01*
X79600000Y-95937500D02*
X82100000Y-95937500D01*
D42*
%TO.N,USB_CONN_D-*%
X74665671Y-90199569D02*
X74206066Y-90199569D01*
X75191103Y-90725001D02*
X74665671Y-90199569D01*
X77950000Y-93237500D02*
X78050000Y-93137500D01*
X77740001Y-92262499D02*
X77294300Y-92262499D01*
X75756802Y-90725001D02*
X75191103Y-90725001D01*
X77294300Y-92262499D02*
X75756802Y-90725001D01*
X78050000Y-93137500D02*
X78050000Y-92572498D01*
X78050000Y-92572498D02*
X77740001Y-92262499D01*
%TO.N,USB_CONN_D+*%
X78500000Y-93137500D02*
X78500000Y-92386115D01*
X76125001Y-89891103D02*
X75549569Y-89315671D01*
X78600000Y-93237500D02*
X78500000Y-93137500D01*
X78500000Y-92386115D02*
X77926393Y-91812508D01*
X77926393Y-91812508D02*
X77480707Y-91812508D01*
X75549569Y-89315671D02*
X75549569Y-88856066D01*
X77480707Y-91812508D02*
X76125001Y-90456802D01*
X76125001Y-90456802D02*
X76125001Y-89891103D01*
D36*
%TO.N,/SBUS_TX*%
X68984298Y-83000000D02*
X69000000Y-83000000D01*
X68550000Y-83434298D02*
X68984298Y-83000000D01*
X68550000Y-84275000D02*
X68550000Y-83434298D01*
X92021000Y-85979000D02*
X94234000Y-85979000D01*
X91742999Y-86257001D02*
X92021000Y-85979000D01*
D37*
X89385001Y-86257001D02*
X91742999Y-86257001D01*
X87942002Y-87700000D02*
X89385001Y-86257001D01*
X85300000Y-87700000D02*
X87942002Y-87700000D01*
%TO.N,/Inputs/SBUS*%
X95133990Y-84878990D02*
X96234000Y-85979000D01*
X92229990Y-84878990D02*
X95133990Y-84878990D01*
X90424000Y-83073000D02*
X92229990Y-84878990D01*
X89351000Y-82000000D02*
X90424000Y-83073000D01*
X88485000Y-82000000D02*
X89351000Y-82000000D01*
D36*
%TO.N,/UART2_RX*%
X62800003Y-74850000D02*
X63000000Y-74650003D01*
X61625000Y-74850000D02*
X62800003Y-74850000D01*
X95700000Y-78400000D02*
X96000000Y-78400000D01*
X96234000Y-78166000D02*
X96234000Y-77000000D01*
X96000000Y-78400000D02*
X96234000Y-78166000D01*
%TO.N,/UART2_TX*%
X63550000Y-72925000D02*
X63550000Y-73450000D01*
X94134000Y-77100000D02*
X94234000Y-77000000D01*
X92300000Y-77100000D02*
X94134000Y-77100000D01*
X63550000Y-74001620D02*
X63648383Y-74100003D01*
X63550000Y-72925000D02*
X63550000Y-74001620D01*
%TO.N,/UART3_TX*%
X73850593Y-81350000D02*
X74448570Y-81947977D01*
X72975000Y-81350000D02*
X73850593Y-81350000D01*
X92734000Y-81500000D02*
X94234000Y-80000000D01*
X92500000Y-81500000D02*
X92734000Y-81500000D01*
%TO.N,/UART3_RX*%
X72975000Y-80850000D02*
X74128411Y-80850000D01*
X74128411Y-80850000D02*
X74551667Y-81273256D01*
X95973966Y-80000000D02*
X96234000Y-80000000D01*
X94473966Y-78500000D02*
X95973966Y-80000000D01*
X94000000Y-78500000D02*
X94473966Y-78500000D01*
D42*
X72950000Y-80850000D02*
X72900010Y-80899990D01*
X72975000Y-80850000D02*
X72950000Y-80850000D01*
X72900010Y-80899990D02*
X71800010Y-80899990D01*
X71800010Y-80899990D02*
X70400000Y-82300000D01*
X68808205Y-82300000D02*
X68665577Y-82442628D01*
X70400000Y-82300000D02*
X68808205Y-82300000D01*
X70900000Y-94375000D02*
X70800000Y-94475000D01*
X70900000Y-88200000D02*
X70900000Y-94375000D01*
X70000000Y-87300000D02*
X70900000Y-88200000D01*
D36*
%TO.N,/UART4_RX*%
X64050000Y-72084298D02*
X63665702Y-71700000D01*
X64050000Y-72925000D02*
X64050000Y-72084298D01*
X61900000Y-72600000D02*
X58700000Y-72600000D01*
X62800000Y-71700000D02*
X61900000Y-72600000D01*
X63665702Y-71700000D02*
X62800000Y-71700000D01*
%TO.N,/UART4_TX*%
X60149990Y-71249990D02*
X59500000Y-70600000D01*
X59500000Y-70600000D02*
X58700000Y-70600000D01*
X63852102Y-71249990D02*
X60149990Y-71249990D01*
X64550000Y-71947888D02*
X63852102Y-71249990D01*
X64550000Y-72925000D02*
X64550000Y-71947888D01*
%TO.N,/UART5_TX*%
X93734000Y-83500000D02*
X94234000Y-83000000D01*
X92000000Y-83500000D02*
X93734000Y-83500000D01*
X74578823Y-79850000D02*
X72975000Y-79850000D01*
X76000000Y-81271177D02*
X74578823Y-79850000D01*
X76000000Y-82636410D02*
X76000000Y-81271177D01*
X76600000Y-83459865D02*
X76600000Y-83236410D01*
X76600000Y-83236410D02*
X76000000Y-82636410D01*
X76559891Y-83499974D02*
X76600000Y-83459865D01*
%TO.N,/UART5_RX*%
X94000000Y-81500000D02*
X94734000Y-81500000D01*
X94734000Y-81500000D02*
X96234000Y-83000000D01*
X74442413Y-80350000D02*
X75200517Y-81108104D01*
X72975000Y-80350000D02*
X74442413Y-80350000D01*
X75200517Y-82050516D02*
X75200517Y-81108104D01*
X75450000Y-82299999D02*
X75200517Y-82050516D01*
%TO.N,/GPIO_1*%
X53500000Y-91100000D02*
X53500000Y-92300000D01*
X53500000Y-93100000D02*
X55500000Y-95100000D01*
X53500000Y-92300000D02*
X53500000Y-93100000D01*
X77014003Y-79400001D02*
X76514002Y-78900000D01*
X79025092Y-79188910D02*
X78814001Y-79400001D01*
X78814001Y-79400001D02*
X77014003Y-79400001D01*
X92638910Y-79188910D02*
X79025092Y-79188910D01*
X92863909Y-79413909D02*
X92638910Y-79188910D01*
X75300000Y-75850000D02*
X75550000Y-75600000D01*
X72975000Y-75850000D02*
X75300000Y-75850000D01*
X76514002Y-78900000D02*
X75500000Y-78900000D01*
%TO.N,/GPIO_2*%
X92600000Y-80100000D02*
X92250000Y-79750000D01*
X92250000Y-79750000D02*
X80400000Y-79750000D01*
X54550000Y-89100000D02*
X53500000Y-89100000D01*
X55149989Y-89699989D02*
X54550000Y-89100000D01*
X55149989Y-93949989D02*
X55149989Y-89699989D01*
X55650000Y-94450000D02*
X55149989Y-93949989D01*
X71850000Y-81850000D02*
X72975000Y-81850000D01*
X71650000Y-82050000D02*
X71850000Y-81850000D01*
%TO.N,/GEN_ADC*%
X64574994Y-74025010D02*
X63400000Y-75200003D01*
X66790692Y-74025010D02*
X64574994Y-74025010D01*
X67050000Y-73765702D02*
X66790692Y-74025010D01*
X67050000Y-72925000D02*
X67050000Y-73765702D01*
X56250000Y-73800000D02*
X55300000Y-73800000D01*
X55300000Y-73800000D02*
X53000000Y-76100000D01*
X53000000Y-86587300D02*
X53512700Y-87100000D01*
X53000000Y-76100000D02*
X53000000Y-86587300D01*
D44*
%TO.N,Net-(J12-Pad2)*%
X93968500Y-71000500D02*
X94134000Y-71166000D01*
X90617000Y-71000500D02*
X93968500Y-71000500D01*
D36*
%TO.N,/SWDIO*%
X78350000Y-86350000D02*
X78000000Y-86700000D01*
X78350000Y-85840000D02*
X78350000Y-86350000D01*
X70074990Y-84299990D02*
X70050000Y-84275000D01*
X73000000Y-86600000D02*
X73700000Y-85900000D01*
X71400000Y-86400000D02*
X71643948Y-86400000D01*
X70900000Y-85900000D02*
X71400000Y-86400000D01*
X73700000Y-85900000D02*
X74900000Y-85900000D01*
X71843948Y-86600000D02*
X73000000Y-86600000D01*
X71643948Y-86400000D02*
X71843948Y-86600000D01*
X70834298Y-85900000D02*
X70900000Y-85900000D01*
X70050000Y-85115702D02*
X70834298Y-85900000D01*
X70050000Y-84275000D02*
X70050000Y-85115702D01*
D42*
%TO.N,/SWCLK*%
X76034890Y-83751975D02*
X76852915Y-84570000D01*
X76034890Y-83272354D02*
X76034890Y-83751975D01*
X75762536Y-83000000D02*
X76034890Y-83272354D01*
X75227593Y-83000000D02*
X75762536Y-83000000D01*
X76852915Y-84570000D02*
X78350000Y-84570000D01*
X73950000Y-82350000D02*
X74072978Y-82472978D01*
X74700571Y-82472978D02*
X75227593Y-83000000D01*
X74072978Y-82472978D02*
X74700571Y-82472978D01*
X72975000Y-82350000D02*
X73950000Y-82350000D01*
D36*
%TO.N,/SWO*%
X75150000Y-79350000D02*
X72975000Y-79350000D01*
X76500000Y-80700000D02*
X75150000Y-79350000D01*
X76500000Y-82500000D02*
X76500000Y-80700000D01*
X77300000Y-83300000D02*
X76500000Y-82500000D01*
X78350000Y-83300000D02*
X77300000Y-83300000D01*
%TO.N,/NRST*%
X68050000Y-73765702D02*
X68684298Y-74400000D01*
X68050000Y-72925000D02*
X68050000Y-73765702D01*
X68684298Y-74400000D02*
X68684298Y-77884298D01*
X68965577Y-78165577D02*
X68965577Y-78257372D01*
X68684298Y-77884298D02*
X68965577Y-78165577D01*
X77490000Y-79900000D02*
X78350000Y-80760000D01*
X76700000Y-79900000D02*
X77490000Y-79900000D01*
X70715000Y-71185000D02*
X70400000Y-71500000D01*
X70715000Y-70600000D02*
X70715000Y-71185000D01*
X68884298Y-74200000D02*
X68684298Y-74400000D01*
X69300000Y-74200000D02*
X68884298Y-74200000D01*
%TO.N,/ESC_DSHOT_1*%
X66550000Y-86600000D02*
X66550000Y-84275000D01*
X67000000Y-87050000D02*
X66550000Y-86600000D01*
D42*
X66800000Y-94475000D02*
X66800000Y-93000000D01*
X67275000Y-92525000D02*
X67275000Y-89200000D01*
X66800000Y-93000000D02*
X67275000Y-92525000D01*
D36*
%TO.N,/ESC_DSHOT_2*%
X67550000Y-85650000D02*
X67550000Y-84275000D01*
X67700000Y-85800000D02*
X67550000Y-85650000D01*
D42*
X67700000Y-85800000D02*
X67700000Y-87700000D01*
X67800000Y-87800000D02*
X67800000Y-94475000D01*
X67700000Y-87700000D02*
X67800000Y-87800000D01*
D36*
%TO.N,/ESC_DSHOT_3*%
X62465702Y-79850000D02*
X61625000Y-79850000D01*
X62565702Y-79950000D02*
X62465702Y-79850000D01*
X63264002Y-79950000D02*
X62565702Y-79950000D01*
X63550001Y-80235999D02*
X63735999Y-80235999D01*
X63264002Y-79950000D02*
X63550001Y-80235999D01*
X63735999Y-80235999D02*
X64800000Y-81300000D01*
X64800000Y-81300000D02*
X64977592Y-81300000D01*
X65263603Y-81586011D02*
X64977592Y-81300000D01*
X65386011Y-81586011D02*
X65263603Y-81586011D01*
X65900000Y-82100000D02*
X65386011Y-81586011D01*
X66450000Y-82100000D02*
X66750000Y-82400000D01*
X65900000Y-82100000D02*
X66450000Y-82100000D01*
D42*
X68595919Y-87704081D02*
X68900000Y-88008162D01*
X68900000Y-94375000D02*
X68800000Y-94475000D01*
X68900000Y-88008162D02*
X68900000Y-94375000D01*
D36*
%TO.N,/ESC_DSHOT_4*%
X61649990Y-79374990D02*
X61625000Y-79350000D01*
X63688992Y-79374990D02*
X61649990Y-79374990D01*
X65450003Y-81136001D02*
X63688992Y-79374990D01*
X65736001Y-81136001D02*
X65450003Y-81136001D01*
X66100000Y-81500000D02*
X65736001Y-81136001D01*
D42*
X69800000Y-92900000D02*
X69800000Y-94475000D01*
D36*
%TO.N,/SPI_ESC_SCK*%
X61625000Y-76850000D02*
X59250000Y-76850000D01*
X58150000Y-76850000D02*
X57900000Y-76600000D01*
X59250000Y-76850000D02*
X58150000Y-76850000D01*
%TO.N,/SPI_ESC_MOSI*%
X60364001Y-77950001D02*
X59300001Y-77950001D01*
X60464002Y-77850000D02*
X60364001Y-77950001D01*
X61625000Y-77850000D02*
X60464002Y-77850000D01*
X59250001Y-77950001D02*
X58900000Y-77600000D01*
X59300001Y-77950001D02*
X59250001Y-77950001D01*
%TO.N,/SPI_ESC_MISO*%
X60150000Y-77350000D02*
X60100000Y-77400000D01*
X61625000Y-77350000D02*
X60150000Y-77350000D01*
%TO.N,/ESC_1_CS*%
X67050000Y-85950000D02*
X67100000Y-86000000D01*
X67050000Y-84275000D02*
X67050000Y-85950000D01*
X65815000Y-88100990D02*
X66216963Y-87699027D01*
X65815000Y-88300000D02*
X65815000Y-88100990D01*
D37*
X67050000Y-84275000D02*
X67050000Y-83250000D01*
D36*
X67014001Y-82950001D02*
X65550001Y-82950001D01*
X67050000Y-82986000D02*
X67014001Y-82950001D01*
X67050000Y-83250000D02*
X67050000Y-82986000D01*
X65300000Y-82700000D02*
X65300000Y-82600000D01*
X65550001Y-82950001D02*
X65300000Y-82700000D01*
%TO.N,/ESC_2_CS*%
X65050000Y-86565000D02*
X64915000Y-86700000D01*
X65050000Y-84275000D02*
X65050000Y-86565000D01*
X62877282Y-82724980D02*
X62552262Y-83050000D01*
X64477092Y-82724980D02*
X62877282Y-82724980D01*
X65050000Y-83297888D02*
X64477092Y-82724980D01*
X65050000Y-84275000D02*
X65050000Y-83297888D01*
%TO.N,/ESC_3_CS*%
X64550000Y-85165000D02*
X63800000Y-85915000D01*
X64550000Y-84275000D02*
X64550000Y-85165000D01*
X63263743Y-83174990D02*
X62763095Y-83675638D01*
X64290692Y-83174990D02*
X63263743Y-83174990D01*
X64550000Y-83434298D02*
X64290692Y-83174990D01*
X64550000Y-84275000D02*
X64550000Y-83434298D01*
D37*
%TO.N,/ESC_4_CS*%
X63069916Y-84275000D02*
X62541404Y-84803512D01*
X63550000Y-84275000D02*
X63069916Y-84275000D01*
D36*
X62700000Y-86315000D02*
X62700000Y-85900000D01*
X63550000Y-85050000D02*
X63550000Y-84275000D01*
X62700000Y-85900000D02*
X63550000Y-85050000D01*
D44*
%TO.N,Net-(Q1-Pad1)*%
X87885500Y-73000500D02*
X87823000Y-72938000D01*
X89667000Y-73000500D02*
X87885500Y-73000500D01*
D37*
%TO.N,Net-(Q2-Pad1)*%
X89214000Y-84948000D02*
X88630000Y-85532000D01*
X90424000Y-84948000D02*
X89214000Y-84948000D01*
%TO.N,/SBUS_RX*%
X86145000Y-85067000D02*
X85280500Y-85067000D01*
X86630000Y-84582000D02*
X86145000Y-85067000D01*
D36*
X68957099Y-86022801D02*
X68977199Y-86022801D01*
X68050000Y-85115702D02*
X68957099Y-86022801D01*
X68050000Y-84275000D02*
X68050000Y-85115702D01*
X85280500Y-85067000D02*
X85280500Y-85119500D01*
D37*
X85133000Y-85067000D02*
X85280500Y-85067000D01*
X84400000Y-86800000D02*
X84400000Y-85800000D01*
X83400000Y-87800000D02*
X84400000Y-86800000D01*
X78200000Y-87800000D02*
X83400000Y-87800000D01*
X76300000Y-85900000D02*
X78200000Y-87800000D01*
X84400000Y-85800000D02*
X85133000Y-85067000D01*
D36*
X75450001Y-85050001D02*
X76300000Y-85900000D01*
X73935999Y-85050001D02*
X75450001Y-85050001D01*
%TO.N,/GYRO_SDA*%
X79443000Y-76772000D02*
X79050000Y-77165000D01*
X80344000Y-76772000D02*
X79443000Y-76772000D01*
X78865000Y-77350000D02*
X72975000Y-77350000D01*
X79050000Y-77165000D02*
X78865000Y-77350000D01*
%TO.N,/GYRO_SCL*%
X79187000Y-76272000D02*
X79050000Y-76135000D01*
X80344000Y-76272000D02*
X79187000Y-76272000D01*
X79050000Y-76135000D02*
X78415000Y-76135000D01*
X77750000Y-76800000D02*
X77700000Y-76800000D01*
X78415000Y-76135000D02*
X77750000Y-76800000D01*
X76450000Y-77850000D02*
X72975000Y-77850000D01*
X76550000Y-77950000D02*
X76450000Y-77850000D01*
%TO.N,/EEPROM_SDA*%
X62850000Y-81350000D02*
X61625000Y-81350000D01*
X62900000Y-81400000D02*
X62850000Y-81350000D01*
%TO.N,/EEPROM_SCL*%
X62650000Y-80850000D02*
X61625000Y-80850000D01*
X63000000Y-80500000D02*
X62650000Y-80850000D01*
D37*
%TO.N,/BUZZER*%
X87624500Y-71261500D02*
X87823000Y-71063000D01*
D44*
X86243500Y-71063000D02*
X86045000Y-71261500D01*
X87823000Y-71063000D02*
X86243500Y-71063000D01*
D36*
X80924498Y-71261500D02*
X80185998Y-72000000D01*
X86045000Y-71261500D02*
X80924498Y-71261500D01*
X80185998Y-72000000D02*
X78000000Y-72000000D01*
X78000000Y-72000000D02*
X77000000Y-73000000D01*
X77000000Y-73000000D02*
X77000000Y-75500000D01*
X77000000Y-75500000D02*
X77000000Y-76000000D01*
X77000000Y-76300000D02*
X76500000Y-76800000D01*
X77000000Y-76000000D02*
X77000000Y-76300000D01*
X74350000Y-78350000D02*
X72975000Y-78350000D01*
X74500000Y-78500000D02*
X74350000Y-78350000D01*
D37*
%TO.N,BOOT0*%
X87500000Y-54115000D02*
X87400000Y-54215000D01*
X87500000Y-53150000D02*
X87500000Y-54115000D01*
D36*
X78652090Y-70711500D02*
X82388500Y-70711500D01*
X77863590Y-71500000D02*
X78652090Y-70711500D01*
X76500000Y-75500000D02*
X76500000Y-72863590D01*
X76500000Y-72863590D02*
X77863590Y-71500000D01*
X75150000Y-76850000D02*
X76500000Y-75500000D01*
X72975000Y-76850000D02*
X75150000Y-76850000D01*
X84088500Y-70711500D02*
X84200000Y-70600000D01*
X82388500Y-70711500D02*
X84088500Y-70711500D01*
D37*
%TO.N,HSE_OUT*%
X68550000Y-70450000D02*
X68500000Y-70400000D01*
X68550000Y-72925000D02*
X68550000Y-70450000D01*
%TO.N,/V_BAT_SENSE*%
X58500000Y-95212500D02*
X57700000Y-94412500D01*
X59300000Y-95212500D02*
X58500000Y-95212500D01*
X55624999Y-92337499D02*
X55624999Y-82223999D01*
X57700000Y-94412500D02*
X55624999Y-92337499D01*
D36*
X58813001Y-79035997D02*
X55624999Y-82223999D01*
X60098301Y-79035997D02*
X58813001Y-79035997D01*
X60784298Y-78350000D02*
X60098301Y-79035997D01*
X61625000Y-78350000D02*
X60784298Y-78350000D01*
D37*
%TO.N,Net-(R27-Pad2)*%
X69530000Y-53900000D02*
X69530000Y-53000000D01*
X70161000Y-54531000D02*
X69530000Y-53900000D01*
X69530000Y-53000000D02*
X68485000Y-53000000D01*
%TO.N,Net-(R28-Pad2)*%
X67515000Y-53000000D02*
X66485000Y-53000000D01*
D36*
%TO.N,/GYRO_FSYNC*%
X85400000Y-74106702D02*
X85400000Y-74100000D01*
X84734702Y-74772000D02*
X85400000Y-74106702D01*
X84244000Y-74772000D02*
X84734702Y-74772000D01*
X62465702Y-78850000D02*
X61625000Y-78850000D01*
X62900000Y-78415702D02*
X62465702Y-78850000D01*
X62900000Y-78300000D02*
X62900000Y-78415702D01*
%TO.N,/GYRO_INT*%
X85116000Y-73400000D02*
X85400000Y-73400000D01*
X84244000Y-74272000D02*
X85116000Y-73400000D01*
X60764002Y-80350000D02*
X61625000Y-80350000D01*
X60000000Y-79585998D02*
X60764002Y-80350000D01*
D42*
%TO.N,/USB_D+*%
X69525000Y-84300000D02*
X69550000Y-84275000D01*
X71158254Y-86825010D02*
X69525000Y-85191756D01*
X71467904Y-86825010D02*
X71158254Y-86825010D01*
X71710491Y-87067597D02*
X71467904Y-86825010D01*
X69525000Y-85191756D02*
X69525000Y-84300000D01*
X73301495Y-87067597D02*
X71710491Y-87067597D01*
X73534329Y-87300431D02*
X73301495Y-87067597D01*
X73993934Y-87300431D02*
X73534329Y-87300431D01*
%TO.N,/USB_D-*%
X69075000Y-84300000D02*
X69050000Y-84275000D01*
X69075000Y-85378139D02*
X69075000Y-84300000D01*
X70971862Y-87275001D02*
X69075000Y-85378139D01*
X72650431Y-88643934D02*
X71281498Y-87275001D01*
X71281498Y-87275001D02*
X70971862Y-87275001D01*
%TO.N,/CURR_SENSE*%
X67550000Y-82650000D02*
X67700000Y-82800000D01*
X67550000Y-72925000D02*
X67550000Y-82650000D01*
X71800000Y-94475000D02*
X71800000Y-92600000D01*
X71425000Y-92225000D02*
X71425000Y-89700000D01*
X71800000Y-92600000D02*
X71425000Y-92225000D01*
D37*
%TO.N,/ESC_BAT_SENSE*%
X60900000Y-96787500D02*
X59300000Y-96787500D01*
D36*
X61287500Y-96400000D02*
X60900000Y-96787500D01*
X62500000Y-95700000D02*
X61412500Y-96787500D01*
X65300000Y-95700000D02*
X62500000Y-95700000D01*
X65800000Y-95200000D02*
X65300000Y-95700000D01*
X61412500Y-96787500D02*
X60900000Y-96787500D01*
X65800000Y-94475000D02*
X65800000Y-95200000D01*
%TO.N,Net-(D7-Pad1)*%
X76100000Y-70130000D02*
X76070000Y-70100000D01*
X76100000Y-71500000D02*
X76100000Y-70130000D01*
%TO.N,/STM32 Controller/USER_LED_1*%
X72134298Y-76350000D02*
X71600000Y-75815702D01*
X72975000Y-76350000D02*
X72134298Y-76350000D01*
X71600000Y-74300000D02*
X72000000Y-73900000D01*
X71600000Y-75815702D02*
X71600000Y-74300000D01*
X74425000Y-71600000D02*
X74525000Y-71500000D01*
X73500000Y-71600000D02*
X74425000Y-71600000D01*
%TO.N,Net-(D8-Pad1)*%
X64557501Y-91542501D02*
X64615000Y-91600000D01*
X64557501Y-90295001D02*
X64557501Y-91542501D01*
%TO.N,/STM32 Controller/USER_LED_2*%
X65550000Y-85460000D02*
X65930000Y-85840000D01*
X65550000Y-84275000D02*
X65550000Y-85460000D01*
X66100000Y-90262500D02*
X66132501Y-90295001D01*
X66100000Y-89400000D02*
X66100000Y-90262500D01*
%TD*%
D45*
%TO.N,Net-(C23-Pad2)*%
G36*
X65409000Y-58168000D02*
G01*
X65523000Y-58168000D01*
X65523000Y-58514000D01*
X65409000Y-58514000D01*
X65409000Y-58961250D01*
X65515750Y-59068000D01*
X65523000Y-59068740D01*
X65523000Y-59575000D01*
X65525440Y-59599776D01*
X65532667Y-59623601D01*
X65544403Y-59645557D01*
X65560197Y-59664803D01*
X65579443Y-59680597D01*
X65607285Y-59694601D01*
X65873000Y-59789499D01*
X65873000Y-61873000D01*
X64207000Y-61873000D01*
X64207000Y-61781000D01*
X64187000Y-61781000D01*
X64187000Y-60235000D01*
X64207000Y-60235000D01*
X64207000Y-59787750D01*
X64100250Y-59681000D01*
X63906199Y-59679517D01*
X63912054Y-59214002D01*
X63986000Y-59214002D01*
X63986000Y-59070066D01*
X64006250Y-59068000D01*
X64113000Y-58961250D01*
X64113000Y-58514000D01*
X63986000Y-58514000D01*
X63986000Y-58168000D01*
X64113000Y-58168000D01*
X64113000Y-58152000D01*
X65409000Y-58152000D01*
X65409000Y-58168000D01*
G37*
X65409000Y-58168000D02*
X65523000Y-58168000D01*
X65523000Y-58514000D01*
X65409000Y-58514000D01*
X65409000Y-58961250D01*
X65515750Y-59068000D01*
X65523000Y-59068740D01*
X65523000Y-59575000D01*
X65525440Y-59599776D01*
X65532667Y-59623601D01*
X65544403Y-59645557D01*
X65560197Y-59664803D01*
X65579443Y-59680597D01*
X65607285Y-59694601D01*
X65873000Y-59789499D01*
X65873000Y-61873000D01*
X64207000Y-61873000D01*
X64207000Y-61781000D01*
X64187000Y-61781000D01*
X64187000Y-60235000D01*
X64207000Y-60235000D01*
X64207000Y-59787750D01*
X64100250Y-59681000D01*
X63906199Y-59679517D01*
X63912054Y-59214002D01*
X63986000Y-59214002D01*
X63986000Y-59070066D01*
X64006250Y-59068000D01*
X64113000Y-58961250D01*
X64113000Y-58514000D01*
X63986000Y-58514000D01*
X63986000Y-58168000D01*
X64113000Y-58168000D01*
X64113000Y-58152000D01*
X65409000Y-58152000D01*
X65409000Y-58168000D01*
%TO.N,GND*%
G36*
X82723000Y-62373696D02*
G01*
X78427000Y-62397300D01*
X78427000Y-61625000D01*
X78694966Y-61625000D01*
X78707072Y-61747914D01*
X78742924Y-61866104D01*
X78801146Y-61975028D01*
X78879499Y-62070501D01*
X78974972Y-62148854D01*
X79083896Y-62207076D01*
X79202086Y-62242928D01*
X79325000Y-62255034D01*
X80320250Y-62252000D01*
X80477000Y-62095250D01*
X80477000Y-60623000D01*
X80723000Y-60623000D01*
X80723000Y-62095250D01*
X80879750Y-62252000D01*
X81875000Y-62255034D01*
X81997914Y-62242928D01*
X82116104Y-62207076D01*
X82225028Y-62148854D01*
X82320501Y-62070501D01*
X82398854Y-61975028D01*
X82457076Y-61866104D01*
X82492928Y-61747914D01*
X82505034Y-61625000D01*
X82502000Y-60779750D01*
X82345250Y-60623000D01*
X80723000Y-60623000D01*
X80477000Y-60623000D01*
X78854750Y-60623000D01*
X78698000Y-60779750D01*
X78694966Y-61625000D01*
X78427000Y-61625000D01*
X78427000Y-61375000D01*
X78424560Y-61350224D01*
X78417333Y-61326399D01*
X78405597Y-61304443D01*
X78389803Y-61285197D01*
X78370557Y-61269403D01*
X78348601Y-61257667D01*
X78324776Y-61250440D01*
X78301114Y-61248005D01*
X77276667Y-61239019D01*
X77292928Y-61185414D01*
X77305034Y-61062500D01*
X77302000Y-60904750D01*
X77145250Y-60748000D01*
X76323000Y-60748000D01*
X76323000Y-60768000D01*
X76077000Y-60768000D01*
X76077000Y-60748000D01*
X76057000Y-60748000D01*
X76057000Y-60502000D01*
X76077000Y-60502000D01*
X76077000Y-60482000D01*
X76323000Y-60482000D01*
X76323000Y-60502000D01*
X77145250Y-60502000D01*
X77302000Y-60345250D01*
X77305034Y-60187500D01*
X77292928Y-60064586D01*
X77281527Y-60027000D01*
X78250000Y-60027000D01*
X78274776Y-60024560D01*
X78298601Y-60017333D01*
X78320557Y-60005597D01*
X78339803Y-59989803D01*
X78355597Y-59970557D01*
X78367333Y-59948601D01*
X78374560Y-59924776D01*
X78377000Y-59900000D01*
X78377000Y-59375000D01*
X78694966Y-59375000D01*
X78698000Y-60220250D01*
X78854750Y-60377000D01*
X80477000Y-60377000D01*
X80477000Y-58904750D01*
X80723000Y-58904750D01*
X80723000Y-60377000D01*
X82345250Y-60377000D01*
X82502000Y-60220250D01*
X82505034Y-59375000D01*
X82492928Y-59252086D01*
X82457076Y-59133896D01*
X82398854Y-59024972D01*
X82320501Y-58929499D01*
X82225028Y-58851146D01*
X82116104Y-58792924D01*
X81997914Y-58757072D01*
X81875000Y-58744966D01*
X80879750Y-58748000D01*
X80723000Y-58904750D01*
X80477000Y-58904750D01*
X80320250Y-58748000D01*
X79325000Y-58744966D01*
X79202086Y-58757072D01*
X79083896Y-58792924D01*
X78974972Y-58851146D01*
X78879499Y-58929499D01*
X78801146Y-59024972D01*
X78742924Y-59133896D01*
X78707072Y-59252086D01*
X78694966Y-59375000D01*
X78377000Y-59375000D01*
X78377000Y-57877000D01*
X82723000Y-57877000D01*
X82723000Y-62373696D01*
G37*
X82723000Y-62373696D02*
X78427000Y-62397300D01*
X78427000Y-61625000D01*
X78694966Y-61625000D01*
X78707072Y-61747914D01*
X78742924Y-61866104D01*
X78801146Y-61975028D01*
X78879499Y-62070501D01*
X78974972Y-62148854D01*
X79083896Y-62207076D01*
X79202086Y-62242928D01*
X79325000Y-62255034D01*
X80320250Y-62252000D01*
X80477000Y-62095250D01*
X80477000Y-60623000D01*
X80723000Y-60623000D01*
X80723000Y-62095250D01*
X80879750Y-62252000D01*
X81875000Y-62255034D01*
X81997914Y-62242928D01*
X82116104Y-62207076D01*
X82225028Y-62148854D01*
X82320501Y-62070501D01*
X82398854Y-61975028D01*
X82457076Y-61866104D01*
X82492928Y-61747914D01*
X82505034Y-61625000D01*
X82502000Y-60779750D01*
X82345250Y-60623000D01*
X80723000Y-60623000D01*
X80477000Y-60623000D01*
X78854750Y-60623000D01*
X78698000Y-60779750D01*
X78694966Y-61625000D01*
X78427000Y-61625000D01*
X78427000Y-61375000D01*
X78424560Y-61350224D01*
X78417333Y-61326399D01*
X78405597Y-61304443D01*
X78389803Y-61285197D01*
X78370557Y-61269403D01*
X78348601Y-61257667D01*
X78324776Y-61250440D01*
X78301114Y-61248005D01*
X77276667Y-61239019D01*
X77292928Y-61185414D01*
X77305034Y-61062500D01*
X77302000Y-60904750D01*
X77145250Y-60748000D01*
X76323000Y-60748000D01*
X76323000Y-60768000D01*
X76077000Y-60768000D01*
X76077000Y-60748000D01*
X76057000Y-60748000D01*
X76057000Y-60502000D01*
X76077000Y-60502000D01*
X76077000Y-60482000D01*
X76323000Y-60482000D01*
X76323000Y-60502000D01*
X77145250Y-60502000D01*
X77302000Y-60345250D01*
X77305034Y-60187500D01*
X77292928Y-60064586D01*
X77281527Y-60027000D01*
X78250000Y-60027000D01*
X78274776Y-60024560D01*
X78298601Y-60017333D01*
X78320557Y-60005597D01*
X78339803Y-59989803D01*
X78355597Y-59970557D01*
X78367333Y-59948601D01*
X78374560Y-59924776D01*
X78377000Y-59900000D01*
X78377000Y-59375000D01*
X78694966Y-59375000D01*
X78698000Y-60220250D01*
X78854750Y-60377000D01*
X80477000Y-60377000D01*
X80477000Y-58904750D01*
X80723000Y-58904750D01*
X80723000Y-60377000D01*
X82345250Y-60377000D01*
X82502000Y-60220250D01*
X82505034Y-59375000D01*
X82492928Y-59252086D01*
X82457076Y-59133896D01*
X82398854Y-59024972D01*
X82320501Y-58929499D01*
X82225028Y-58851146D01*
X82116104Y-58792924D01*
X81997914Y-58757072D01*
X81875000Y-58744966D01*
X80879750Y-58748000D01*
X80723000Y-58904750D01*
X80477000Y-58904750D01*
X80320250Y-58748000D01*
X79325000Y-58744966D01*
X79202086Y-58757072D01*
X79083896Y-58792924D01*
X78974972Y-58851146D01*
X78879499Y-58929499D01*
X78801146Y-59024972D01*
X78742924Y-59133896D01*
X78707072Y-59252086D01*
X78694966Y-59375000D01*
X78377000Y-59375000D01*
X78377000Y-57877000D01*
X82723000Y-57877000D01*
X82723000Y-62373696D01*
%TO.N,+3V3*%
G36*
X75254750Y-61927000D02*
G01*
X75927000Y-61927000D01*
X75927000Y-61907000D01*
X76473000Y-61907000D01*
X76473000Y-61927000D01*
X77145250Y-61927000D01*
X77245250Y-61827000D01*
X77673000Y-61827000D01*
X77673000Y-62850000D01*
X77675440Y-62874776D01*
X77682667Y-62898601D01*
X77694403Y-62920557D01*
X77710197Y-62939803D01*
X77729443Y-62955597D01*
X77751399Y-62967333D01*
X77775224Y-62974560D01*
X77800000Y-62977000D01*
X83073000Y-62977000D01*
X83073000Y-64600000D01*
X83075440Y-64624776D01*
X83082667Y-64648601D01*
X83094403Y-64670557D01*
X83110197Y-64689803D01*
X83129443Y-64705597D01*
X83151399Y-64717333D01*
X83175224Y-64724560D01*
X83200000Y-64727000D01*
X83262432Y-64727000D01*
X83232072Y-64827086D01*
X83219966Y-64950000D01*
X83223000Y-65270250D01*
X83379750Y-65427000D01*
X84577000Y-65427000D01*
X84577000Y-65407000D01*
X85123000Y-65407000D01*
X85123000Y-65427000D01*
X85143000Y-65427000D01*
X85143000Y-65973000D01*
X85123000Y-65973000D01*
X85123000Y-65993000D01*
X84577000Y-65993000D01*
X84577000Y-65973000D01*
X83379750Y-65973000D01*
X83223000Y-66129750D01*
X83219966Y-66450000D01*
X83232072Y-66572914D01*
X83232098Y-66573000D01*
X82300000Y-66573000D01*
X82275224Y-66575440D01*
X82251399Y-66582667D01*
X82229443Y-66594403D01*
X82210197Y-66610197D01*
X82194403Y-66629443D01*
X82182667Y-66651399D01*
X82175440Y-66675224D01*
X82173000Y-66700000D01*
X82173000Y-69373000D01*
X76727000Y-69373000D01*
X76727000Y-67600000D01*
X76919966Y-67600000D01*
X76932072Y-67722914D01*
X76967924Y-67841104D01*
X77026146Y-67950028D01*
X77104499Y-68045501D01*
X77199972Y-68123854D01*
X77308896Y-68182076D01*
X77427086Y-68217928D01*
X77550000Y-68230034D01*
X78120250Y-68227000D01*
X78277000Y-68070250D01*
X78277000Y-65973000D01*
X78823000Y-65973000D01*
X78823000Y-68070250D01*
X78979750Y-68227000D01*
X79550000Y-68230034D01*
X79672914Y-68217928D01*
X79791104Y-68182076D01*
X79900028Y-68123854D01*
X79995501Y-68045501D01*
X80073854Y-67950028D01*
X80132076Y-67841104D01*
X80167928Y-67722914D01*
X80180034Y-67600000D01*
X80177000Y-66129750D01*
X80020250Y-65973000D01*
X78823000Y-65973000D01*
X78277000Y-65973000D01*
X77079750Y-65973000D01*
X76923000Y-66129750D01*
X76919966Y-67600000D01*
X76727000Y-67600000D01*
X76727000Y-63800000D01*
X76919966Y-63800000D01*
X76923000Y-65270250D01*
X77079750Y-65427000D01*
X78277000Y-65427000D01*
X78277000Y-63329750D01*
X78823000Y-63329750D01*
X78823000Y-65427000D01*
X80020250Y-65427000D01*
X80177000Y-65270250D01*
X80180034Y-63800000D01*
X80167928Y-63677086D01*
X80132076Y-63558896D01*
X80073854Y-63449972D01*
X79995501Y-63354499D01*
X79900028Y-63276146D01*
X79791104Y-63217924D01*
X79672914Y-63182072D01*
X79550000Y-63169966D01*
X78979750Y-63173000D01*
X78823000Y-63329750D01*
X78277000Y-63329750D01*
X78120250Y-63173000D01*
X77550000Y-63169966D01*
X77427086Y-63182072D01*
X77308896Y-63217924D01*
X77199972Y-63276146D01*
X77104499Y-63354499D01*
X77026146Y-63449972D01*
X76967924Y-63558896D01*
X76932072Y-63677086D01*
X76919966Y-63800000D01*
X76727000Y-63800000D01*
X76727000Y-63600000D01*
X76724560Y-63575224D01*
X76717333Y-63551399D01*
X76705597Y-63529443D01*
X76689803Y-63510197D01*
X76670557Y-63494403D01*
X76648601Y-63482667D01*
X76624776Y-63475440D01*
X76600000Y-63473000D01*
X74975340Y-63473000D01*
X74964347Y-62637500D01*
X75094966Y-62637500D01*
X75107072Y-62760414D01*
X75142924Y-62878604D01*
X75201146Y-62987528D01*
X75279499Y-63083001D01*
X75374972Y-63161354D01*
X75483896Y-63219576D01*
X75602086Y-63255428D01*
X75725000Y-63267534D01*
X75770250Y-63264500D01*
X75927000Y-63107750D01*
X75927000Y-62473000D01*
X76473000Y-62473000D01*
X76473000Y-63107750D01*
X76629750Y-63264500D01*
X76675000Y-63267534D01*
X76797914Y-63255428D01*
X76916104Y-63219576D01*
X77025028Y-63161354D01*
X77120501Y-63083001D01*
X77198854Y-62987528D01*
X77257076Y-62878604D01*
X77292928Y-62760414D01*
X77305034Y-62637500D01*
X77302000Y-62629750D01*
X77145250Y-62473000D01*
X76473000Y-62473000D01*
X75927000Y-62473000D01*
X75254750Y-62473000D01*
X75098000Y-62629750D01*
X75094966Y-62637500D01*
X74964347Y-62637500D01*
X74953682Y-61827000D01*
X75154750Y-61827000D01*
X75254750Y-61927000D01*
G37*
X75254750Y-61927000D02*
X75927000Y-61927000D01*
X75927000Y-61907000D01*
X76473000Y-61907000D01*
X76473000Y-61927000D01*
X77145250Y-61927000D01*
X77245250Y-61827000D01*
X77673000Y-61827000D01*
X77673000Y-62850000D01*
X77675440Y-62874776D01*
X77682667Y-62898601D01*
X77694403Y-62920557D01*
X77710197Y-62939803D01*
X77729443Y-62955597D01*
X77751399Y-62967333D01*
X77775224Y-62974560D01*
X77800000Y-62977000D01*
X83073000Y-62977000D01*
X83073000Y-64600000D01*
X83075440Y-64624776D01*
X83082667Y-64648601D01*
X83094403Y-64670557D01*
X83110197Y-64689803D01*
X83129443Y-64705597D01*
X83151399Y-64717333D01*
X83175224Y-64724560D01*
X83200000Y-64727000D01*
X83262432Y-64727000D01*
X83232072Y-64827086D01*
X83219966Y-64950000D01*
X83223000Y-65270250D01*
X83379750Y-65427000D01*
X84577000Y-65427000D01*
X84577000Y-65407000D01*
X85123000Y-65407000D01*
X85123000Y-65427000D01*
X85143000Y-65427000D01*
X85143000Y-65973000D01*
X85123000Y-65973000D01*
X85123000Y-65993000D01*
X84577000Y-65993000D01*
X84577000Y-65973000D01*
X83379750Y-65973000D01*
X83223000Y-66129750D01*
X83219966Y-66450000D01*
X83232072Y-66572914D01*
X83232098Y-66573000D01*
X82300000Y-66573000D01*
X82275224Y-66575440D01*
X82251399Y-66582667D01*
X82229443Y-66594403D01*
X82210197Y-66610197D01*
X82194403Y-66629443D01*
X82182667Y-66651399D01*
X82175440Y-66675224D01*
X82173000Y-66700000D01*
X82173000Y-69373000D01*
X76727000Y-69373000D01*
X76727000Y-67600000D01*
X76919966Y-67600000D01*
X76932072Y-67722914D01*
X76967924Y-67841104D01*
X77026146Y-67950028D01*
X77104499Y-68045501D01*
X77199972Y-68123854D01*
X77308896Y-68182076D01*
X77427086Y-68217928D01*
X77550000Y-68230034D01*
X78120250Y-68227000D01*
X78277000Y-68070250D01*
X78277000Y-65973000D01*
X78823000Y-65973000D01*
X78823000Y-68070250D01*
X78979750Y-68227000D01*
X79550000Y-68230034D01*
X79672914Y-68217928D01*
X79791104Y-68182076D01*
X79900028Y-68123854D01*
X79995501Y-68045501D01*
X80073854Y-67950028D01*
X80132076Y-67841104D01*
X80167928Y-67722914D01*
X80180034Y-67600000D01*
X80177000Y-66129750D01*
X80020250Y-65973000D01*
X78823000Y-65973000D01*
X78277000Y-65973000D01*
X77079750Y-65973000D01*
X76923000Y-66129750D01*
X76919966Y-67600000D01*
X76727000Y-67600000D01*
X76727000Y-63800000D01*
X76919966Y-63800000D01*
X76923000Y-65270250D01*
X77079750Y-65427000D01*
X78277000Y-65427000D01*
X78277000Y-63329750D01*
X78823000Y-63329750D01*
X78823000Y-65427000D01*
X80020250Y-65427000D01*
X80177000Y-65270250D01*
X80180034Y-63800000D01*
X80167928Y-63677086D01*
X80132076Y-63558896D01*
X80073854Y-63449972D01*
X79995501Y-63354499D01*
X79900028Y-63276146D01*
X79791104Y-63217924D01*
X79672914Y-63182072D01*
X79550000Y-63169966D01*
X78979750Y-63173000D01*
X78823000Y-63329750D01*
X78277000Y-63329750D01*
X78120250Y-63173000D01*
X77550000Y-63169966D01*
X77427086Y-63182072D01*
X77308896Y-63217924D01*
X77199972Y-63276146D01*
X77104499Y-63354499D01*
X77026146Y-63449972D01*
X76967924Y-63558896D01*
X76932072Y-63677086D01*
X76919966Y-63800000D01*
X76727000Y-63800000D01*
X76727000Y-63600000D01*
X76724560Y-63575224D01*
X76717333Y-63551399D01*
X76705597Y-63529443D01*
X76689803Y-63510197D01*
X76670557Y-63494403D01*
X76648601Y-63482667D01*
X76624776Y-63475440D01*
X76600000Y-63473000D01*
X74975340Y-63473000D01*
X74964347Y-62637500D01*
X75094966Y-62637500D01*
X75107072Y-62760414D01*
X75142924Y-62878604D01*
X75201146Y-62987528D01*
X75279499Y-63083001D01*
X75374972Y-63161354D01*
X75483896Y-63219576D01*
X75602086Y-63255428D01*
X75725000Y-63267534D01*
X75770250Y-63264500D01*
X75927000Y-63107750D01*
X75927000Y-62473000D01*
X76473000Y-62473000D01*
X76473000Y-63107750D01*
X76629750Y-63264500D01*
X76675000Y-63267534D01*
X76797914Y-63255428D01*
X76916104Y-63219576D01*
X77025028Y-63161354D01*
X77120501Y-63083001D01*
X77198854Y-62987528D01*
X77257076Y-62878604D01*
X77292928Y-62760414D01*
X77305034Y-62637500D01*
X77302000Y-62629750D01*
X77145250Y-62473000D01*
X76473000Y-62473000D01*
X75927000Y-62473000D01*
X75254750Y-62473000D01*
X75098000Y-62629750D01*
X75094966Y-62637500D01*
X74964347Y-62637500D01*
X74953682Y-61827000D01*
X75154750Y-61827000D01*
X75254750Y-61927000D01*
%TO.N,GND*%
G36*
X83527732Y-67185897D02*
G01*
X83521418Y-67250000D01*
X83523000Y-67645250D01*
X83604750Y-67727000D01*
X84577000Y-67727000D01*
X84577000Y-67707000D01*
X85123000Y-67707000D01*
X85123000Y-67727000D01*
X86095250Y-67727000D01*
X86177000Y-67645250D01*
X86178582Y-67250000D01*
X86172268Y-67185897D01*
X86154402Y-67127000D01*
X87348000Y-67127000D01*
X87348000Y-69923000D01*
X83352000Y-69923000D01*
X83352000Y-68750000D01*
X83521418Y-68750000D01*
X83527732Y-68814103D01*
X83546430Y-68875743D01*
X83576794Y-68932550D01*
X83617657Y-68982343D01*
X83667450Y-69023206D01*
X83724257Y-69053570D01*
X83785897Y-69072268D01*
X83850000Y-69078582D01*
X84495250Y-69077000D01*
X84577000Y-68995250D01*
X84577000Y-68273000D01*
X85123000Y-68273000D01*
X85123000Y-68995250D01*
X85204750Y-69077000D01*
X85850000Y-69078582D01*
X85914103Y-69072268D01*
X85975743Y-69053570D01*
X86032550Y-69023206D01*
X86082343Y-68982343D01*
X86123206Y-68932550D01*
X86153570Y-68875743D01*
X86172268Y-68814103D01*
X86178582Y-68750000D01*
X86177000Y-68354750D01*
X86095250Y-68273000D01*
X85123000Y-68273000D01*
X84577000Y-68273000D01*
X83604750Y-68273000D01*
X83523000Y-68354750D01*
X83521418Y-68750000D01*
X83352000Y-68750000D01*
X83352000Y-67127000D01*
X83545598Y-67127000D01*
X83527732Y-67185897D01*
G37*
X83527732Y-67185897D02*
X83521418Y-67250000D01*
X83523000Y-67645250D01*
X83604750Y-67727000D01*
X84577000Y-67727000D01*
X84577000Y-67707000D01*
X85123000Y-67707000D01*
X85123000Y-67727000D01*
X86095250Y-67727000D01*
X86177000Y-67645250D01*
X86178582Y-67250000D01*
X86172268Y-67185897D01*
X86154402Y-67127000D01*
X87348000Y-67127000D01*
X87348000Y-69923000D01*
X83352000Y-69923000D01*
X83352000Y-68750000D01*
X83521418Y-68750000D01*
X83527732Y-68814103D01*
X83546430Y-68875743D01*
X83576794Y-68932550D01*
X83617657Y-68982343D01*
X83667450Y-69023206D01*
X83724257Y-69053570D01*
X83785897Y-69072268D01*
X83850000Y-69078582D01*
X84495250Y-69077000D01*
X84577000Y-68995250D01*
X84577000Y-68273000D01*
X85123000Y-68273000D01*
X85123000Y-68995250D01*
X85204750Y-69077000D01*
X85850000Y-69078582D01*
X85914103Y-69072268D01*
X85975743Y-69053570D01*
X86032550Y-69023206D01*
X86082343Y-68982343D01*
X86123206Y-68932550D01*
X86153570Y-68875743D01*
X86172268Y-68814103D01*
X86178582Y-68750000D01*
X86177000Y-68354750D01*
X86095250Y-68273000D01*
X85123000Y-68273000D01*
X84577000Y-68273000D01*
X83604750Y-68273000D01*
X83523000Y-68354750D01*
X83521418Y-68750000D01*
X83352000Y-68750000D01*
X83352000Y-67127000D01*
X83545598Y-67127000D01*
X83527732Y-67185897D01*
G36*
X57173000Y-72873000D02*
G01*
X52727000Y-72873000D01*
X52727000Y-72028393D01*
X53207150Y-72027000D01*
X53288900Y-71945250D01*
X53288900Y-71073000D01*
X55034900Y-71073000D01*
X55034900Y-71945250D01*
X55116650Y-72027000D01*
X55661900Y-72028582D01*
X55726003Y-72022268D01*
X55787643Y-72003570D01*
X55844450Y-71973206D01*
X55894243Y-71932343D01*
X55935106Y-71882550D01*
X55965470Y-71825743D01*
X55984168Y-71764103D01*
X55990482Y-71700000D01*
X55988900Y-71154750D01*
X55907150Y-71073000D01*
X55034900Y-71073000D01*
X53288900Y-71073000D01*
X53268900Y-71073000D01*
X53268900Y-69327000D01*
X53288900Y-69327000D01*
X53288900Y-68454750D01*
X55034900Y-68454750D01*
X55034900Y-69327000D01*
X55907150Y-69327000D01*
X55988900Y-69245250D01*
X55990482Y-68700000D01*
X55984168Y-68635897D01*
X55965470Y-68574257D01*
X55935106Y-68517450D01*
X55894243Y-68467657D01*
X55844450Y-68426794D01*
X55787643Y-68396430D01*
X55726003Y-68377732D01*
X55661900Y-68371418D01*
X55116650Y-68373000D01*
X55034900Y-68454750D01*
X53288900Y-68454750D01*
X53207150Y-68373000D01*
X52727000Y-68371607D01*
X52727000Y-68227000D01*
X57173000Y-68227000D01*
X57173000Y-72873000D01*
G37*
X57173000Y-72873000D02*
X52727000Y-72873000D01*
X52727000Y-72028393D01*
X53207150Y-72027000D01*
X53288900Y-71945250D01*
X53288900Y-71073000D01*
X55034900Y-71073000D01*
X55034900Y-71945250D01*
X55116650Y-72027000D01*
X55661900Y-72028582D01*
X55726003Y-72022268D01*
X55787643Y-72003570D01*
X55844450Y-71973206D01*
X55894243Y-71932343D01*
X55935106Y-71882550D01*
X55965470Y-71825743D01*
X55984168Y-71764103D01*
X55990482Y-71700000D01*
X55988900Y-71154750D01*
X55907150Y-71073000D01*
X55034900Y-71073000D01*
X53288900Y-71073000D01*
X53268900Y-71073000D01*
X53268900Y-69327000D01*
X53288900Y-69327000D01*
X53288900Y-68454750D01*
X55034900Y-68454750D01*
X55034900Y-69327000D01*
X55907150Y-69327000D01*
X55988900Y-69245250D01*
X55990482Y-68700000D01*
X55984168Y-68635897D01*
X55965470Y-68574257D01*
X55935106Y-68517450D01*
X55894243Y-68467657D01*
X55844450Y-68426794D01*
X55787643Y-68396430D01*
X55726003Y-68377732D01*
X55661900Y-68371418D01*
X55116650Y-68373000D01*
X55034900Y-68454750D01*
X53288900Y-68454750D01*
X53207150Y-68373000D01*
X52727000Y-68371607D01*
X52727000Y-68227000D01*
X57173000Y-68227000D01*
X57173000Y-72873000D01*
%TD*%
M02*
