%TF.GenerationSoftware,KiCad,Pcbnew,(5.1.6-0-10_14)*%
%TF.CreationDate,2020-11-09T18:58:44+11:00*%
%TF.ProjectId,spartan_mk1,73706172-7461-46e5-9f6d-6b312e6b6963,rev?*%
%TF.SameCoordinates,Original*%
%TF.FileFunction,Legend,Top*%
%TF.FilePolarity,Positive*%
%FSLAX46Y46*%
G04 Gerber Fmt 4.6, Leading zero omitted, Abs format (unit mm)*
G04 Created by KiCad (PCBNEW (5.1.6-0-10_14)) date 2020-11-09 18:58:44*
%MOMM*%
%LPD*%
G01*
G04 APERTURE LIST*
%ADD10C,0.150000*%
%ADD11C,0.125000*%
%ADD12C,0.120000*%
G04 APERTURE END LIST*
D10*
X68338095Y-74404761D02*
X67766666Y-74404761D01*
X67652380Y-74366666D01*
X67576190Y-74290476D01*
X67538095Y-74176190D01*
X67538095Y-74100000D01*
X67538095Y-75166666D02*
X67538095Y-74785714D01*
X68338095Y-74785714D01*
X67614285Y-75890476D02*
X67576190Y-75852380D01*
X67538095Y-75738095D01*
X67538095Y-75661904D01*
X67576190Y-75547619D01*
X67652380Y-75471428D01*
X67728571Y-75433333D01*
X67880952Y-75395238D01*
X67995238Y-75395238D01*
X68147619Y-75433333D01*
X68223809Y-75471428D01*
X68300000Y-75547619D01*
X68338095Y-75661904D01*
X68338095Y-75738095D01*
X68300000Y-75852380D01*
X68261904Y-75890476D01*
X68338095Y-76461904D02*
X67766666Y-76461904D01*
X67652380Y-76423809D01*
X67576190Y-76347619D01*
X67538095Y-76233333D01*
X67538095Y-76157142D01*
X67538095Y-77223809D02*
X67538095Y-76842857D01*
X68338095Y-76842857D01*
X67614285Y-77947619D02*
X67576190Y-77909523D01*
X67538095Y-77795238D01*
X67538095Y-77719047D01*
X67576190Y-77604761D01*
X67652380Y-77528571D01*
X67728571Y-77490476D01*
X67880952Y-77452380D01*
X67995238Y-77452380D01*
X68147619Y-77490476D01*
X68223809Y-77528571D01*
X68300000Y-77604761D01*
X68338095Y-77719047D01*
X68338095Y-77795238D01*
X68300000Y-77909523D01*
X68261904Y-77947619D01*
X68338095Y-78519047D02*
X67766666Y-78519047D01*
X67652380Y-78480952D01*
X67576190Y-78404761D01*
X67538095Y-78290476D01*
X67538095Y-78214285D01*
X67538095Y-79280952D02*
X67538095Y-78900000D01*
X68338095Y-78900000D01*
X67614285Y-80004761D02*
X67576190Y-79966666D01*
X67538095Y-79852380D01*
X67538095Y-79776190D01*
X67576190Y-79661904D01*
X67652380Y-79585714D01*
X67728571Y-79547619D01*
X67880952Y-79509523D01*
X67995238Y-79509523D01*
X68147619Y-79547619D01*
X68223809Y-79585714D01*
X68300000Y-79661904D01*
X68338095Y-79776190D01*
X68338095Y-79852380D01*
X68300000Y-79966666D01*
X68261904Y-80004761D01*
X68338095Y-80576190D02*
X67766666Y-80576190D01*
X67652380Y-80538095D01*
X67576190Y-80461904D01*
X67538095Y-80347619D01*
X67538095Y-80271428D01*
X67538095Y-81338095D02*
X67538095Y-80957142D01*
X68338095Y-80957142D01*
X67614285Y-82061904D02*
X67576190Y-82023809D01*
X67538095Y-81909523D01*
X67538095Y-81833333D01*
X67576190Y-81719047D01*
X67652380Y-81642857D01*
X67728571Y-81604761D01*
X67880952Y-81566666D01*
X67995238Y-81566666D01*
X68147619Y-81604761D01*
X68223809Y-81642857D01*
X68300000Y-81719047D01*
X68338095Y-81833333D01*
X68338095Y-81909523D01*
X68300000Y-82023809D01*
X68261904Y-82061904D01*
D11*
X64140476Y-89326190D02*
X63902380Y-89326190D01*
X63902380Y-88826190D01*
X64307142Y-89064285D02*
X64473809Y-89064285D01*
X64545238Y-89326190D02*
X64307142Y-89326190D01*
X64307142Y-88826190D01*
X64545238Y-88826190D01*
X64759523Y-89326190D02*
X64759523Y-88826190D01*
X64878571Y-88826190D01*
X64950000Y-88850000D01*
X64997619Y-88897619D01*
X65021428Y-88945238D01*
X65045238Y-89040476D01*
X65045238Y-89111904D01*
X65021428Y-89207142D01*
X64997619Y-89254761D01*
X64950000Y-89302380D01*
X64878571Y-89326190D01*
X64759523Y-89326190D01*
X65235714Y-88873809D02*
X65259523Y-88850000D01*
X65307142Y-88826190D01*
X65426190Y-88826190D01*
X65473809Y-88850000D01*
X65497619Y-88873809D01*
X65521428Y-88921428D01*
X65521428Y-88969047D01*
X65497619Y-89040476D01*
X65211904Y-89326190D01*
X65521428Y-89326190D01*
X77240476Y-71726190D02*
X77002380Y-71726190D01*
X77002380Y-71226190D01*
X77407142Y-71464285D02*
X77573809Y-71464285D01*
X77645238Y-71726190D02*
X77407142Y-71726190D01*
X77407142Y-71226190D01*
X77645238Y-71226190D01*
X77859523Y-71726190D02*
X77859523Y-71226190D01*
X77978571Y-71226190D01*
X78050000Y-71250000D01*
X78097619Y-71297619D01*
X78121428Y-71345238D01*
X78145238Y-71440476D01*
X78145238Y-71511904D01*
X78121428Y-71607142D01*
X78097619Y-71654761D01*
X78050000Y-71702380D01*
X77978571Y-71726190D01*
X77859523Y-71726190D01*
X78621428Y-71726190D02*
X78335714Y-71726190D01*
X78478571Y-71726190D02*
X78478571Y-71226190D01*
X78430952Y-71297619D01*
X78383333Y-71345238D01*
X78335714Y-71369047D01*
X72730952Y-68635714D02*
X73111904Y-68635714D01*
X72921428Y-68826190D02*
X72921428Y-68445238D01*
X73302380Y-68326190D02*
X73611904Y-68326190D01*
X73445238Y-68516666D01*
X73516666Y-68516666D01*
X73564285Y-68540476D01*
X73588095Y-68564285D01*
X73611904Y-68611904D01*
X73611904Y-68730952D01*
X73588095Y-68778571D01*
X73564285Y-68802380D01*
X73516666Y-68826190D01*
X73373809Y-68826190D01*
X73326190Y-68802380D01*
X73302380Y-68778571D01*
X73826190Y-68778571D02*
X73850000Y-68802380D01*
X73826190Y-68826190D01*
X73802380Y-68802380D01*
X73826190Y-68778571D01*
X73826190Y-68826190D01*
X74016666Y-68326190D02*
X74326190Y-68326190D01*
X74159523Y-68516666D01*
X74230952Y-68516666D01*
X74278571Y-68540476D01*
X74302380Y-68564285D01*
X74326190Y-68611904D01*
X74326190Y-68730952D01*
X74302380Y-68778571D01*
X74278571Y-68802380D01*
X74230952Y-68826190D01*
X74088095Y-68826190D01*
X74040476Y-68802380D01*
X74016666Y-68778571D01*
X74469047Y-68326190D02*
X74635714Y-68826190D01*
X74802380Y-68326190D01*
X75588095Y-68826190D02*
X75350000Y-68826190D01*
X75350000Y-68326190D01*
X75754761Y-68564285D02*
X75921428Y-68564285D01*
X75992857Y-68826190D02*
X75754761Y-68826190D01*
X75754761Y-68326190D01*
X75992857Y-68326190D01*
X76207142Y-68826190D02*
X76207142Y-68326190D01*
X76326190Y-68326190D01*
X76397619Y-68350000D01*
X76445238Y-68397619D01*
X76469047Y-68445238D01*
X76492857Y-68540476D01*
X76492857Y-68611904D01*
X76469047Y-68707142D01*
X76445238Y-68754761D01*
X76397619Y-68802380D01*
X76326190Y-68826190D01*
X76207142Y-68826190D01*
X87588095Y-69435714D02*
X87969047Y-69435714D01*
X87778571Y-69626190D02*
X87778571Y-69245238D01*
X88445238Y-69126190D02*
X88207142Y-69126190D01*
X88183333Y-69364285D01*
X88207142Y-69340476D01*
X88254761Y-69316666D01*
X88373809Y-69316666D01*
X88421428Y-69340476D01*
X88445238Y-69364285D01*
X88469047Y-69411904D01*
X88469047Y-69530952D01*
X88445238Y-69578571D01*
X88421428Y-69602380D01*
X88373809Y-69626190D01*
X88254761Y-69626190D01*
X88207142Y-69602380D01*
X88183333Y-69578571D01*
X88611904Y-69126190D02*
X88778571Y-69626190D01*
X88945238Y-69126190D01*
X89730952Y-69626190D02*
X89492857Y-69626190D01*
X89492857Y-69126190D01*
X89897619Y-69364285D02*
X90064285Y-69364285D01*
X90135714Y-69626190D02*
X89897619Y-69626190D01*
X89897619Y-69126190D01*
X90135714Y-69126190D01*
X90350000Y-69626190D02*
X90350000Y-69126190D01*
X90469047Y-69126190D01*
X90540476Y-69150000D01*
X90588095Y-69197619D01*
X90611904Y-69245238D01*
X90635714Y-69340476D01*
X90635714Y-69411904D01*
X90611904Y-69507142D01*
X90588095Y-69554761D01*
X90540476Y-69602380D01*
X90469047Y-69626190D01*
X90350000Y-69626190D01*
X54609523Y-91326190D02*
X54609523Y-90826190D01*
X54942857Y-90826190D02*
X55038095Y-90826190D01*
X55085714Y-90850000D01*
X55133333Y-90897619D01*
X55157142Y-90992857D01*
X55157142Y-91159523D01*
X55133333Y-91254761D01*
X55085714Y-91302380D01*
X55038095Y-91326190D01*
X54942857Y-91326190D01*
X54895238Y-91302380D01*
X54847619Y-91254761D01*
X54823809Y-91159523D01*
X54823809Y-90992857D01*
X54847619Y-90897619D01*
X54895238Y-90850000D01*
X54942857Y-90826190D01*
X55252380Y-91373809D02*
X55633333Y-91373809D01*
X56014285Y-91326190D02*
X55728571Y-91326190D01*
X55871428Y-91326190D02*
X55871428Y-90826190D01*
X55823809Y-90897619D01*
X55776190Y-90945238D01*
X55728571Y-90969047D01*
X54609523Y-89326190D02*
X54609523Y-88826190D01*
X54942857Y-88826190D02*
X55038095Y-88826190D01*
X55085714Y-88850000D01*
X55133333Y-88897619D01*
X55157142Y-88992857D01*
X55157142Y-89159523D01*
X55133333Y-89254761D01*
X55085714Y-89302380D01*
X55038095Y-89326190D01*
X54942857Y-89326190D01*
X54895238Y-89302380D01*
X54847619Y-89254761D01*
X54823809Y-89159523D01*
X54823809Y-88992857D01*
X54847619Y-88897619D01*
X54895238Y-88850000D01*
X54942857Y-88826190D01*
X55252380Y-89373809D02*
X55633333Y-89373809D01*
X55728571Y-88873809D02*
X55752380Y-88850000D01*
X55800000Y-88826190D01*
X55919047Y-88826190D01*
X55966666Y-88850000D01*
X55990476Y-88873809D01*
X56014285Y-88921428D01*
X56014285Y-88969047D01*
X55990476Y-89040476D01*
X55704761Y-89326190D01*
X56014285Y-89326190D01*
X54680952Y-87183333D02*
X54919047Y-87183333D01*
X54633333Y-87326190D02*
X54800000Y-86826190D01*
X54966666Y-87326190D01*
X55133333Y-87326190D02*
X55133333Y-86826190D01*
X55252380Y-86826190D01*
X55323809Y-86850000D01*
X55371428Y-86897619D01*
X55395238Y-86945238D01*
X55419047Y-87040476D01*
X55419047Y-87111904D01*
X55395238Y-87207142D01*
X55371428Y-87254761D01*
X55323809Y-87302380D01*
X55252380Y-87326190D01*
X55133333Y-87326190D01*
X55919047Y-87278571D02*
X55895238Y-87302380D01*
X55823809Y-87326190D01*
X55776190Y-87326190D01*
X55704761Y-87302380D01*
X55657142Y-87254761D01*
X55633333Y-87207142D01*
X55609523Y-87111904D01*
X55609523Y-87040476D01*
X55633333Y-86945238D01*
X55657142Y-86897619D01*
X55704761Y-86850000D01*
X55776190Y-86826190D01*
X55823809Y-86826190D01*
X55895238Y-86850000D01*
X55919047Y-86873809D01*
D12*
X84000000Y-85900000D02*
G75*
G03*
X84000000Y-85900000I-100000J0D01*
G01*
X74700000Y-91300000D02*
G75*
G03*
X74700000Y-91300000I-100000J0D01*
G01*
X70900000Y-59300000D02*
G75*
G03*
X70900000Y-59300000I-100000J0D01*
G01*
X71300000Y-66100000D02*
G75*
G03*
X71300000Y-66100000I-100000J0D01*
G01*
X71200000Y-71700000D02*
G75*
G03*
X71200000Y-71700000I-100000J0D01*
G01*
X81100000Y-78700000D02*
G75*
G03*
X81100000Y-78700000I-100000J0D01*
G01*
D11*
X64950000Y-92219047D02*
X64973809Y-92171428D01*
X64973809Y-92100000D01*
X64950000Y-92028571D01*
X64902380Y-91980952D01*
X64854761Y-91957142D01*
X64759523Y-91933333D01*
X64688095Y-91933333D01*
X64592857Y-91957142D01*
X64545238Y-91980952D01*
X64497619Y-92028571D01*
X64473809Y-92100000D01*
X64473809Y-92147619D01*
X64497619Y-92219047D01*
X64521428Y-92242857D01*
X64688095Y-92242857D01*
X64688095Y-92147619D01*
X64473809Y-92457142D02*
X64973809Y-92457142D01*
X64473809Y-92742857D01*
X64973809Y-92742857D01*
X64473809Y-92980952D02*
X64973809Y-92980952D01*
X64973809Y-93100000D01*
X64950000Y-93171428D01*
X64902380Y-93219047D01*
X64854761Y-93242857D01*
X64759523Y-93266666D01*
X64688095Y-93266666D01*
X64592857Y-93242857D01*
X64545238Y-93219047D01*
X64497619Y-93171428D01*
X64473809Y-93100000D01*
X64473809Y-92980952D01*
X65835714Y-92230952D02*
X65811904Y-92302380D01*
X65788095Y-92326190D01*
X65740476Y-92350000D01*
X65669047Y-92350000D01*
X65621428Y-92326190D01*
X65597619Y-92302380D01*
X65573809Y-92254761D01*
X65573809Y-92064285D01*
X66073809Y-92064285D01*
X66073809Y-92230952D01*
X66050000Y-92278571D01*
X66026190Y-92302380D01*
X65978571Y-92326190D01*
X65930952Y-92326190D01*
X65883333Y-92302380D01*
X65859523Y-92278571D01*
X65835714Y-92230952D01*
X65835714Y-92064285D01*
X65716666Y-92540476D02*
X65716666Y-92778571D01*
X65573809Y-92492857D02*
X66073809Y-92659523D01*
X65573809Y-92826190D01*
X66073809Y-92921428D02*
X66073809Y-93207142D01*
X65573809Y-93064285D02*
X66073809Y-93064285D01*
X66573809Y-91995238D02*
X67073809Y-91995238D01*
X66716666Y-92161904D01*
X67073809Y-92328571D01*
X66573809Y-92328571D01*
X66573809Y-92828571D02*
X66573809Y-92542857D01*
X66573809Y-92685714D02*
X67073809Y-92685714D01*
X67002380Y-92638095D01*
X66954761Y-92590476D01*
X66930952Y-92542857D01*
X67573809Y-91995238D02*
X68073809Y-91995238D01*
X67716666Y-92161904D01*
X68073809Y-92328571D01*
X67573809Y-92328571D01*
X68026190Y-92542857D02*
X68050000Y-92566666D01*
X68073809Y-92614285D01*
X68073809Y-92733333D01*
X68050000Y-92780952D01*
X68026190Y-92804761D01*
X67978571Y-92828571D01*
X67930952Y-92828571D01*
X67859523Y-92804761D01*
X67573809Y-92519047D01*
X67573809Y-92828571D01*
X68573809Y-91995238D02*
X69073809Y-91995238D01*
X68716666Y-92161904D01*
X69073809Y-92328571D01*
X68573809Y-92328571D01*
X69073809Y-92519047D02*
X69073809Y-92828571D01*
X68883333Y-92661904D01*
X68883333Y-92733333D01*
X68859523Y-92780952D01*
X68835714Y-92804761D01*
X68788095Y-92828571D01*
X68669047Y-92828571D01*
X68621428Y-92804761D01*
X68597619Y-92780952D01*
X68573809Y-92733333D01*
X68573809Y-92590476D01*
X68597619Y-92542857D01*
X68621428Y-92519047D01*
X69573809Y-91695238D02*
X70073809Y-91695238D01*
X69716666Y-91861904D01*
X70073809Y-92028571D01*
X69573809Y-92028571D01*
X69907142Y-92480952D02*
X69573809Y-92480952D01*
X70097619Y-92361904D02*
X69740476Y-92242857D01*
X69740476Y-92552380D01*
X70573809Y-92216666D02*
X70811904Y-92050000D01*
X70573809Y-91930952D02*
X71073809Y-91930952D01*
X71073809Y-92121428D01*
X71050000Y-92169047D01*
X71026190Y-92192857D01*
X70978571Y-92216666D01*
X70907142Y-92216666D01*
X70859523Y-92192857D01*
X70835714Y-92169047D01*
X70811904Y-92121428D01*
X70811904Y-91930952D01*
X71073809Y-92383333D02*
X70573809Y-92716666D01*
X71073809Y-92716666D02*
X70573809Y-92383333D01*
X71621428Y-90564285D02*
X71597619Y-90540476D01*
X71573809Y-90469047D01*
X71573809Y-90421428D01*
X71597619Y-90350000D01*
X71645238Y-90302380D01*
X71692857Y-90278571D01*
X71788095Y-90254761D01*
X71859523Y-90254761D01*
X71954761Y-90278571D01*
X72002380Y-90302380D01*
X72050000Y-90350000D01*
X72073809Y-90421428D01*
X72073809Y-90469047D01*
X72050000Y-90540476D01*
X72026190Y-90564285D01*
X72073809Y-90778571D02*
X71669047Y-90778571D01*
X71621428Y-90802380D01*
X71597619Y-90826190D01*
X71573809Y-90873809D01*
X71573809Y-90969047D01*
X71597619Y-91016666D01*
X71621428Y-91040476D01*
X71669047Y-91064285D01*
X72073809Y-91064285D01*
X71573809Y-91588095D02*
X71811904Y-91421428D01*
X71573809Y-91302380D02*
X72073809Y-91302380D01*
X72073809Y-91492857D01*
X72050000Y-91540476D01*
X72026190Y-91564285D01*
X71978571Y-91588095D01*
X71907142Y-91588095D01*
X71859523Y-91564285D01*
X71835714Y-91540476D01*
X71811904Y-91492857D01*
X71811904Y-91302380D01*
X71835714Y-91802380D02*
X71835714Y-91969047D01*
X71573809Y-92040476D02*
X71573809Y-91802380D01*
X72073809Y-91802380D01*
X72073809Y-92040476D01*
X71573809Y-92254761D02*
X72073809Y-92254761D01*
X71573809Y-92540476D01*
X72073809Y-92540476D01*
X72073809Y-92707142D02*
X72073809Y-92992857D01*
X71573809Y-92850000D02*
X72073809Y-92850000D01*
X67116666Y-91126190D02*
X67116666Y-90626190D01*
X67235714Y-90626190D01*
X67307142Y-90650000D01*
X67354761Y-90697619D01*
X67378571Y-90745238D01*
X67402380Y-90840476D01*
X67402380Y-90911904D01*
X67378571Y-91007142D01*
X67354761Y-91054761D01*
X67307142Y-91102380D01*
X67235714Y-91126190D01*
X67116666Y-91126190D01*
X67592857Y-91102380D02*
X67664285Y-91126190D01*
X67783333Y-91126190D01*
X67830952Y-91102380D01*
X67854761Y-91078571D01*
X67878571Y-91030952D01*
X67878571Y-90983333D01*
X67854761Y-90935714D01*
X67830952Y-90911904D01*
X67783333Y-90888095D01*
X67688095Y-90864285D01*
X67640476Y-90840476D01*
X67616666Y-90816666D01*
X67592857Y-90769047D01*
X67592857Y-90721428D01*
X67616666Y-90673809D01*
X67640476Y-90650000D01*
X67688095Y-90626190D01*
X67807142Y-90626190D01*
X67878571Y-90650000D01*
X68092857Y-91126190D02*
X68092857Y-90626190D01*
X68092857Y-90864285D02*
X68378571Y-90864285D01*
X68378571Y-91126190D02*
X68378571Y-90626190D01*
X68711904Y-90626190D02*
X68807142Y-90626190D01*
X68854761Y-90650000D01*
X68902380Y-90697619D01*
X68926190Y-90792857D01*
X68926190Y-90959523D01*
X68902380Y-91054761D01*
X68854761Y-91102380D01*
X68807142Y-91126190D01*
X68711904Y-91126190D01*
X68664285Y-91102380D01*
X68616666Y-91054761D01*
X68592857Y-90959523D01*
X68592857Y-90792857D01*
X68616666Y-90697619D01*
X68664285Y-90650000D01*
X68711904Y-90626190D01*
X69069047Y-90626190D02*
X69354761Y-90626190D01*
X69211904Y-91126190D02*
X69211904Y-90626190D01*
X79280952Y-87826190D02*
X79280952Y-87326190D01*
X79400000Y-87326190D01*
X79471428Y-87350000D01*
X79519047Y-87397619D01*
X79542857Y-87445238D01*
X79566666Y-87540476D01*
X79566666Y-87611904D01*
X79542857Y-87707142D01*
X79519047Y-87754761D01*
X79471428Y-87802380D01*
X79400000Y-87826190D01*
X79280952Y-87826190D01*
X79780952Y-87564285D02*
X79947619Y-87564285D01*
X80019047Y-87826190D02*
X79780952Y-87826190D01*
X79780952Y-87326190D01*
X80019047Y-87326190D01*
X80400000Y-87564285D02*
X80471428Y-87588095D01*
X80495238Y-87611904D01*
X80519047Y-87659523D01*
X80519047Y-87730952D01*
X80495238Y-87778571D01*
X80471428Y-87802380D01*
X80423809Y-87826190D01*
X80233333Y-87826190D01*
X80233333Y-87326190D01*
X80400000Y-87326190D01*
X80447619Y-87350000D01*
X80471428Y-87373809D01*
X80495238Y-87421428D01*
X80495238Y-87469047D01*
X80471428Y-87516666D01*
X80447619Y-87540476D01*
X80400000Y-87564285D01*
X80233333Y-87564285D01*
X80733333Y-87326190D02*
X80733333Y-87730952D01*
X80757142Y-87778571D01*
X80780952Y-87802380D01*
X80828571Y-87826190D01*
X80923809Y-87826190D01*
X80971428Y-87802380D01*
X80995238Y-87778571D01*
X81019047Y-87730952D01*
X81019047Y-87326190D01*
X81519047Y-87350000D02*
X81471428Y-87326190D01*
X81400000Y-87326190D01*
X81328571Y-87350000D01*
X81280952Y-87397619D01*
X81257142Y-87445238D01*
X81233333Y-87540476D01*
X81233333Y-87611904D01*
X81257142Y-87707142D01*
X81280952Y-87754761D01*
X81328571Y-87802380D01*
X81400000Y-87826190D01*
X81447619Y-87826190D01*
X81519047Y-87802380D01*
X81542857Y-87778571D01*
X81542857Y-87611904D01*
X81447619Y-87611904D01*
X53450000Y-68250000D02*
X53550000Y-68283333D01*
X53583333Y-68316666D01*
X53616666Y-68383333D01*
X53616666Y-68483333D01*
X53583333Y-68550000D01*
X53550000Y-68583333D01*
X53483333Y-68616666D01*
X53216666Y-68616666D01*
X53216666Y-67916666D01*
X53450000Y-67916666D01*
X53516666Y-67950000D01*
X53550000Y-67983333D01*
X53583333Y-68050000D01*
X53583333Y-68116666D01*
X53550000Y-68183333D01*
X53516666Y-68216666D01*
X53450000Y-68250000D01*
X53216666Y-68250000D01*
X53883333Y-68416666D02*
X54216666Y-68416666D01*
X53816666Y-68616666D02*
X54050000Y-67916666D01*
X54283333Y-68616666D01*
X54416666Y-67916666D02*
X54816666Y-67916666D01*
X54616666Y-68616666D02*
X54616666Y-67916666D01*
X55050000Y-68350000D02*
X55583333Y-68350000D01*
X53350000Y-64150000D02*
X53450000Y-64183333D01*
X53483333Y-64216666D01*
X53516666Y-64283333D01*
X53516666Y-64383333D01*
X53483333Y-64450000D01*
X53450000Y-64483333D01*
X53383333Y-64516666D01*
X53116666Y-64516666D01*
X53116666Y-63816666D01*
X53350000Y-63816666D01*
X53416666Y-63850000D01*
X53450000Y-63883333D01*
X53483333Y-63950000D01*
X53483333Y-64016666D01*
X53450000Y-64083333D01*
X53416666Y-64116666D01*
X53350000Y-64150000D01*
X53116666Y-64150000D01*
X53783333Y-64316666D02*
X54116666Y-64316666D01*
X53716666Y-64516666D02*
X53950000Y-63816666D01*
X54183333Y-64516666D01*
X54316666Y-63816666D02*
X54716666Y-63816666D01*
X54516666Y-64516666D02*
X54516666Y-63816666D01*
X54950000Y-64250000D02*
X55483333Y-64250000D01*
X55216666Y-64516666D02*
X55216666Y-63983333D01*
X94750000Y-88980952D02*
X94726190Y-89028571D01*
X94726190Y-89100000D01*
X94750000Y-89171428D01*
X94797619Y-89219047D01*
X94845238Y-89242857D01*
X94940476Y-89266666D01*
X95011904Y-89266666D01*
X95107142Y-89242857D01*
X95154761Y-89219047D01*
X95202380Y-89171428D01*
X95226190Y-89100000D01*
X95226190Y-89052380D01*
X95202380Y-88980952D01*
X95178571Y-88957142D01*
X95011904Y-88957142D01*
X95011904Y-89052380D01*
X95226190Y-88742857D02*
X94726190Y-88742857D01*
X95226190Y-88457142D01*
X94726190Y-88457142D01*
X95226190Y-88219047D02*
X94726190Y-88219047D01*
X94726190Y-88100000D01*
X94750000Y-88028571D01*
X94797619Y-87980952D01*
X94845238Y-87957142D01*
X94940476Y-87933333D01*
X95011904Y-87933333D01*
X95107142Y-87957142D01*
X95154761Y-87980952D01*
X95202380Y-88028571D01*
X95226190Y-88100000D01*
X95226190Y-88219047D01*
X94750000Y-92880952D02*
X94726190Y-92928571D01*
X94726190Y-93000000D01*
X94750000Y-93071428D01*
X94797619Y-93119047D01*
X94845238Y-93142857D01*
X94940476Y-93166666D01*
X95011904Y-93166666D01*
X95107142Y-93142857D01*
X95154761Y-93119047D01*
X95202380Y-93071428D01*
X95226190Y-93000000D01*
X95226190Y-92952380D01*
X95202380Y-92880952D01*
X95178571Y-92857142D01*
X95011904Y-92857142D01*
X95011904Y-92952380D01*
X95226190Y-92642857D02*
X94726190Y-92642857D01*
X95226190Y-92357142D01*
X94726190Y-92357142D01*
X95226190Y-92119047D02*
X94726190Y-92119047D01*
X94726190Y-92000000D01*
X94750000Y-91928571D01*
X94797619Y-91880952D01*
X94845238Y-91857142D01*
X94940476Y-91833333D01*
X95011904Y-91833333D01*
X95107142Y-91857142D01*
X95154761Y-91880952D01*
X95202380Y-91928571D01*
X95226190Y-92000000D01*
X95226190Y-92119047D01*
X94750000Y-90880952D02*
X94726190Y-90928571D01*
X94726190Y-91000000D01*
X94750000Y-91071428D01*
X94797619Y-91119047D01*
X94845238Y-91142857D01*
X94940476Y-91166666D01*
X95011904Y-91166666D01*
X95107142Y-91142857D01*
X95154761Y-91119047D01*
X95202380Y-91071428D01*
X95226190Y-91000000D01*
X95226190Y-90952380D01*
X95202380Y-90880952D01*
X95178571Y-90857142D01*
X95011904Y-90857142D01*
X95011904Y-90952380D01*
X95226190Y-90642857D02*
X94726190Y-90642857D01*
X95226190Y-90357142D01*
X94726190Y-90357142D01*
X95226190Y-90119047D02*
X94726190Y-90119047D01*
X94726190Y-90000000D01*
X94750000Y-89928571D01*
X94797619Y-89880952D01*
X94845238Y-89857142D01*
X94940476Y-89833333D01*
X95011904Y-89833333D01*
X95107142Y-89857142D01*
X95154761Y-89880952D01*
X95202380Y-89928571D01*
X95226190Y-90000000D01*
X95226190Y-90119047D01*
X92619047Y-67050000D02*
X92571428Y-67026190D01*
X92500000Y-67026190D01*
X92428571Y-67050000D01*
X92380952Y-67097619D01*
X92357142Y-67145238D01*
X92333333Y-67240476D01*
X92333333Y-67311904D01*
X92357142Y-67407142D01*
X92380952Y-67454761D01*
X92428571Y-67502380D01*
X92500000Y-67526190D01*
X92547619Y-67526190D01*
X92619047Y-67502380D01*
X92642857Y-67478571D01*
X92642857Y-67311904D01*
X92547619Y-67311904D01*
X92857142Y-67526190D02*
X92857142Y-67026190D01*
X93142857Y-67526190D01*
X93142857Y-67026190D01*
X93380952Y-67526190D02*
X93380952Y-67026190D01*
X93500000Y-67026190D01*
X93571428Y-67050000D01*
X93619047Y-67097619D01*
X93642857Y-67145238D01*
X93666666Y-67240476D01*
X93666666Y-67311904D01*
X93642857Y-67407142D01*
X93619047Y-67454761D01*
X93571428Y-67502380D01*
X93500000Y-67526190D01*
X93380952Y-67526190D01*
X92157142Y-63535714D02*
X92538095Y-63535714D01*
X92347619Y-63726190D02*
X92347619Y-63345238D01*
X93014285Y-63226190D02*
X92776190Y-63226190D01*
X92752380Y-63464285D01*
X92776190Y-63440476D01*
X92823809Y-63416666D01*
X92942857Y-63416666D01*
X92990476Y-63440476D01*
X93014285Y-63464285D01*
X93038095Y-63511904D01*
X93038095Y-63630952D01*
X93014285Y-63678571D01*
X92990476Y-63702380D01*
X92942857Y-63726190D01*
X92823809Y-63726190D01*
X92776190Y-63702380D01*
X92752380Y-63678571D01*
X93180952Y-63226190D02*
X93347619Y-63726190D01*
X93514285Y-63226190D01*
X96257142Y-69935714D02*
X96638095Y-69935714D01*
X96447619Y-70126190D02*
X96447619Y-69745238D01*
X97114285Y-69626190D02*
X96876190Y-69626190D01*
X96852380Y-69864285D01*
X96876190Y-69840476D01*
X96923809Y-69816666D01*
X97042857Y-69816666D01*
X97090476Y-69840476D01*
X97114285Y-69864285D01*
X97138095Y-69911904D01*
X97138095Y-70030952D01*
X97114285Y-70078571D01*
X97090476Y-70102380D01*
X97042857Y-70126190D01*
X96923809Y-70126190D01*
X96876190Y-70102380D01*
X96852380Y-70078571D01*
X97280952Y-69626190D02*
X97447619Y-70126190D01*
X97614285Y-69626190D01*
X92835714Y-69864285D02*
X92907142Y-69888095D01*
X92930952Y-69911904D01*
X92954761Y-69959523D01*
X92954761Y-70030952D01*
X92930952Y-70078571D01*
X92907142Y-70102380D01*
X92859523Y-70126190D01*
X92669047Y-70126190D01*
X92669047Y-69626190D01*
X92835714Y-69626190D01*
X92883333Y-69650000D01*
X92907142Y-69673809D01*
X92930952Y-69721428D01*
X92930952Y-69769047D01*
X92907142Y-69816666D01*
X92883333Y-69840476D01*
X92835714Y-69864285D01*
X92669047Y-69864285D01*
X93169047Y-69626190D02*
X93169047Y-70030952D01*
X93192857Y-70078571D01*
X93216666Y-70102380D01*
X93264285Y-70126190D01*
X93359523Y-70126190D01*
X93407142Y-70102380D01*
X93430952Y-70078571D01*
X93454761Y-70030952D01*
X93454761Y-69626190D01*
X93645238Y-69626190D02*
X93978571Y-69626190D01*
X93645238Y-70126190D01*
X93978571Y-70126190D01*
X92500000Y-72735714D02*
X92880952Y-72735714D01*
X92690476Y-72926190D02*
X92690476Y-72545238D01*
X93071428Y-72426190D02*
X93380952Y-72426190D01*
X93214285Y-72616666D01*
X93285714Y-72616666D01*
X93333333Y-72640476D01*
X93357142Y-72664285D01*
X93380952Y-72711904D01*
X93380952Y-72830952D01*
X93357142Y-72878571D01*
X93333333Y-72902380D01*
X93285714Y-72926190D01*
X93142857Y-72926190D01*
X93095238Y-72902380D01*
X93071428Y-72878571D01*
X93595238Y-72878571D02*
X93619047Y-72902380D01*
X93595238Y-72926190D01*
X93571428Y-72902380D01*
X93595238Y-72878571D01*
X93595238Y-72926190D01*
X93785714Y-72426190D02*
X94095238Y-72426190D01*
X93928571Y-72616666D01*
X94000000Y-72616666D01*
X94047619Y-72640476D01*
X94071428Y-72664285D01*
X94095238Y-72711904D01*
X94095238Y-72830952D01*
X94071428Y-72878571D01*
X94047619Y-72902380D01*
X94000000Y-72926190D01*
X93857142Y-72926190D01*
X93809523Y-72902380D01*
X93785714Y-72878571D01*
X94238095Y-72426190D02*
X94404761Y-72926190D01*
X94571428Y-72426190D01*
X96519047Y-72450000D02*
X96471428Y-72426190D01*
X96400000Y-72426190D01*
X96328571Y-72450000D01*
X96280952Y-72497619D01*
X96257142Y-72545238D01*
X96233333Y-72640476D01*
X96233333Y-72711904D01*
X96257142Y-72807142D01*
X96280952Y-72854761D01*
X96328571Y-72902380D01*
X96400000Y-72926190D01*
X96447619Y-72926190D01*
X96519047Y-72902380D01*
X96542857Y-72878571D01*
X96542857Y-72711904D01*
X96447619Y-72711904D01*
X96757142Y-72926190D02*
X96757142Y-72426190D01*
X97042857Y-72926190D01*
X97042857Y-72426190D01*
X97280952Y-72926190D02*
X97280952Y-72426190D01*
X97400000Y-72426190D01*
X97471428Y-72450000D01*
X97519047Y-72497619D01*
X97542857Y-72545238D01*
X97566666Y-72640476D01*
X97566666Y-72711904D01*
X97542857Y-72807142D01*
X97519047Y-72854761D01*
X97471428Y-72902380D01*
X97400000Y-72926190D01*
X97280952Y-72926190D01*
X91980952Y-82126190D02*
X92266666Y-82126190D01*
X92123809Y-82626190D02*
X92123809Y-82126190D01*
X92385714Y-82126190D02*
X92719047Y-82626190D01*
X92719047Y-82126190D02*
X92385714Y-82626190D01*
X93147619Y-82126190D02*
X92909523Y-82126190D01*
X92885714Y-82364285D01*
X92909523Y-82340476D01*
X92957142Y-82316666D01*
X93076190Y-82316666D01*
X93123809Y-82340476D01*
X93147619Y-82364285D01*
X93171428Y-82411904D01*
X93171428Y-82530952D01*
X93147619Y-82578571D01*
X93123809Y-82602380D01*
X93076190Y-82626190D01*
X92957142Y-82626190D01*
X92909523Y-82602380D01*
X92885714Y-82578571D01*
X92390476Y-84426190D02*
X92676190Y-84426190D01*
X92533333Y-84926190D02*
X92533333Y-84426190D01*
X92795238Y-84426190D02*
X93128571Y-84926190D01*
X93128571Y-84426190D02*
X92795238Y-84926190D01*
X93200000Y-84973809D02*
X93580952Y-84973809D01*
X93676190Y-84902380D02*
X93747619Y-84926190D01*
X93866666Y-84926190D01*
X93914285Y-84902380D01*
X93938095Y-84878571D01*
X93961904Y-84830952D01*
X93961904Y-84783333D01*
X93938095Y-84735714D01*
X93914285Y-84711904D01*
X93866666Y-84688095D01*
X93771428Y-84664285D01*
X93723809Y-84640476D01*
X93700000Y-84616666D01*
X93676190Y-84569047D01*
X93676190Y-84521428D01*
X93700000Y-84473809D01*
X93723809Y-84450000D01*
X93771428Y-84426190D01*
X93890476Y-84426190D01*
X93961904Y-84450000D01*
X96007142Y-84902380D02*
X96078571Y-84926190D01*
X96197619Y-84926190D01*
X96245238Y-84902380D01*
X96269047Y-84878571D01*
X96292857Y-84830952D01*
X96292857Y-84783333D01*
X96269047Y-84735714D01*
X96245238Y-84711904D01*
X96197619Y-84688095D01*
X96102380Y-84664285D01*
X96054761Y-84640476D01*
X96030952Y-84616666D01*
X96007142Y-84569047D01*
X96007142Y-84521428D01*
X96030952Y-84473809D01*
X96054761Y-84450000D01*
X96102380Y-84426190D01*
X96221428Y-84426190D01*
X96292857Y-84450000D01*
X96673809Y-84664285D02*
X96745238Y-84688095D01*
X96769047Y-84711904D01*
X96792857Y-84759523D01*
X96792857Y-84830952D01*
X96769047Y-84878571D01*
X96745238Y-84902380D01*
X96697619Y-84926190D01*
X96507142Y-84926190D01*
X96507142Y-84426190D01*
X96673809Y-84426190D01*
X96721428Y-84450000D01*
X96745238Y-84473809D01*
X96769047Y-84521428D01*
X96769047Y-84569047D01*
X96745238Y-84616666D01*
X96721428Y-84640476D01*
X96673809Y-84664285D01*
X96507142Y-84664285D01*
X97007142Y-84426190D02*
X97007142Y-84830952D01*
X97030952Y-84878571D01*
X97054761Y-84902380D01*
X97102380Y-84926190D01*
X97197619Y-84926190D01*
X97245238Y-84902380D01*
X97269047Y-84878571D01*
X97292857Y-84830952D01*
X97292857Y-84426190D01*
X97507142Y-84902380D02*
X97578571Y-84926190D01*
X97697619Y-84926190D01*
X97745238Y-84902380D01*
X97769047Y-84878571D01*
X97792857Y-84830952D01*
X97792857Y-84783333D01*
X97769047Y-84735714D01*
X97745238Y-84711904D01*
X97697619Y-84688095D01*
X97602380Y-84664285D01*
X97554761Y-84640476D01*
X97530952Y-84616666D01*
X97507142Y-84569047D01*
X97507142Y-84521428D01*
X97530952Y-84473809D01*
X97554761Y-84450000D01*
X97602380Y-84426190D01*
X97721428Y-84426190D01*
X97792857Y-84450000D01*
X96578571Y-81926190D02*
X96411904Y-81688095D01*
X96292857Y-81926190D02*
X96292857Y-81426190D01*
X96483333Y-81426190D01*
X96530952Y-81450000D01*
X96554761Y-81473809D01*
X96578571Y-81521428D01*
X96578571Y-81592857D01*
X96554761Y-81640476D01*
X96530952Y-81664285D01*
X96483333Y-81688095D01*
X96292857Y-81688095D01*
X96745238Y-81426190D02*
X97078571Y-81926190D01*
X97078571Y-81426190D02*
X96745238Y-81926190D01*
X97507142Y-81426190D02*
X97269047Y-81426190D01*
X97245238Y-81664285D01*
X97269047Y-81640476D01*
X97316666Y-81616666D01*
X97435714Y-81616666D01*
X97483333Y-81640476D01*
X97507142Y-81664285D01*
X97530952Y-81711904D01*
X97530952Y-81830952D01*
X97507142Y-81878571D01*
X97483333Y-81902380D01*
X97435714Y-81926190D01*
X97316666Y-81926190D01*
X97269047Y-81902380D01*
X97245238Y-81878571D01*
X96578571Y-78926190D02*
X96411904Y-78688095D01*
X96292857Y-78926190D02*
X96292857Y-78426190D01*
X96483333Y-78426190D01*
X96530952Y-78450000D01*
X96554761Y-78473809D01*
X96578571Y-78521428D01*
X96578571Y-78592857D01*
X96554761Y-78640476D01*
X96530952Y-78664285D01*
X96483333Y-78688095D01*
X96292857Y-78688095D01*
X96745238Y-78426190D02*
X97078571Y-78926190D01*
X97078571Y-78426190D02*
X96745238Y-78926190D01*
X97221428Y-78426190D02*
X97530952Y-78426190D01*
X97364285Y-78616666D01*
X97435714Y-78616666D01*
X97483333Y-78640476D01*
X97507142Y-78664285D01*
X97530952Y-78711904D01*
X97530952Y-78830952D01*
X97507142Y-78878571D01*
X97483333Y-78902380D01*
X97435714Y-78926190D01*
X97292857Y-78926190D01*
X97245238Y-78902380D01*
X97221428Y-78878571D01*
X96578571Y-75926190D02*
X96411904Y-75688095D01*
X96292857Y-75926190D02*
X96292857Y-75426190D01*
X96483333Y-75426190D01*
X96530952Y-75450000D01*
X96554761Y-75473809D01*
X96578571Y-75521428D01*
X96578571Y-75592857D01*
X96554761Y-75640476D01*
X96530952Y-75664285D01*
X96483333Y-75688095D01*
X96292857Y-75688095D01*
X96745238Y-75426190D02*
X97078571Y-75926190D01*
X97078571Y-75426190D02*
X96745238Y-75926190D01*
X97245238Y-75473809D02*
X97269047Y-75450000D01*
X97316666Y-75426190D01*
X97435714Y-75426190D01*
X97483333Y-75450000D01*
X97507142Y-75473809D01*
X97530952Y-75521428D01*
X97530952Y-75569047D01*
X97507142Y-75640476D01*
X97221428Y-75926190D01*
X97530952Y-75926190D01*
X92180952Y-78326190D02*
X92466666Y-78326190D01*
X92323809Y-78826190D02*
X92323809Y-78326190D01*
X92585714Y-78326190D02*
X92919047Y-78826190D01*
X92919047Y-78326190D02*
X92585714Y-78826190D01*
X93061904Y-78326190D02*
X93371428Y-78326190D01*
X93204761Y-78516666D01*
X93276190Y-78516666D01*
X93323809Y-78540476D01*
X93347619Y-78564285D01*
X93371428Y-78611904D01*
X93371428Y-78730952D01*
X93347619Y-78778571D01*
X93323809Y-78802380D01*
X93276190Y-78826190D01*
X93133333Y-78826190D01*
X93085714Y-78802380D01*
X93061904Y-78778571D01*
X92480952Y-75426190D02*
X92766666Y-75426190D01*
X92623809Y-75926190D02*
X92623809Y-75426190D01*
X92885714Y-75426190D02*
X93219047Y-75926190D01*
X93219047Y-75426190D02*
X92885714Y-75926190D01*
X93385714Y-75473809D02*
X93409523Y-75450000D01*
X93457142Y-75426190D01*
X93576190Y-75426190D01*
X93623809Y-75450000D01*
X93647619Y-75473809D01*
X93671428Y-75521428D01*
X93671428Y-75569047D01*
X93647619Y-75640476D01*
X93361904Y-75926190D01*
X93671428Y-75926190D01*
D12*
%TO.C,J1*%
X76900000Y-92387500D02*
X76900000Y-92837500D01*
X76900000Y-92387500D02*
X77350000Y-92387500D01*
X82500000Y-92937500D02*
X82050000Y-92937500D01*
X82500000Y-94787500D02*
X82500000Y-92937500D01*
X74700000Y-97337500D02*
X74700000Y-97087500D01*
X82500000Y-97337500D02*
X82500000Y-97087500D01*
X74700000Y-94787500D02*
X74700000Y-92937500D01*
X74700000Y-92937500D02*
X75150000Y-92937500D01*
%TO.C,J15*%
X73410000Y-95840000D02*
X73410000Y-94690000D01*
X73410000Y-94690000D02*
X72360000Y-94690000D01*
X72360000Y-94690000D02*
X72360000Y-93700000D01*
X63190000Y-95840000D02*
X63190000Y-94690000D01*
X63190000Y-94690000D02*
X64240000Y-94690000D01*
X72240000Y-97810000D02*
X64360000Y-97810000D01*
%TO.C,J13*%
X82065000Y-86535000D02*
X78535000Y-86535000D01*
X82065000Y-80065000D02*
X78535000Y-80065000D01*
X83390000Y-86470000D02*
X82065000Y-86470000D01*
X82065000Y-86535000D02*
X82065000Y-86470000D01*
X78535000Y-86535000D02*
X78535000Y-86470000D01*
X82065000Y-80130000D02*
X82065000Y-80065000D01*
X78535000Y-80130000D02*
X78535000Y-80065000D01*
%TO.C,C24*%
X82860000Y-60950000D02*
X82860000Y-52715000D01*
X82860000Y-52715000D02*
X78340000Y-52715000D01*
X78340000Y-52715000D02*
X78340000Y-60950000D01*
%TO.C,D3*%
X87850000Y-95600000D02*
X87850000Y-93600000D01*
X87850000Y-93600000D02*
X83950000Y-93600000D01*
X87850000Y-95600000D02*
X83950000Y-95600000D01*
%TO.C,C18*%
X60390000Y-96162779D02*
X60390000Y-95837221D01*
X61410000Y-96162779D02*
X61410000Y-95837221D01*
%TO.C,C19*%
X88210000Y-64741422D02*
X88210000Y-65258578D01*
X86790000Y-64741422D02*
X86790000Y-65258578D01*
%TO.C,C20*%
X63310000Y-55002064D02*
X63310000Y-53797936D01*
X61490000Y-55002064D02*
X61490000Y-53797936D01*
%TO.C,C22*%
X76710000Y-61575279D02*
X76710000Y-61249721D01*
X75690000Y-61575279D02*
X75690000Y-61249721D01*
%TO.C,D1*%
X90585000Y-68935000D02*
X90585000Y-66650000D01*
X89115000Y-68935000D02*
X90585000Y-68935000D01*
X89115000Y-66650000D02*
X89115000Y-68935000D01*
%TO.C,D2*%
X74515000Y-65850000D02*
X74515000Y-68135000D01*
X74515000Y-68135000D02*
X75985000Y-68135000D01*
X75985000Y-68135000D02*
X75985000Y-65850000D01*
%TO.C,D4*%
X60250000Y-66200000D02*
X64550000Y-66200000D01*
X60250000Y-64200000D02*
X60250000Y-66200000D01*
X64550000Y-64200000D02*
X60250000Y-64200000D01*
%TO.C,D5*%
X63680000Y-59358000D02*
X69080000Y-59358000D01*
X63680000Y-62658000D02*
X69080000Y-62658000D01*
X63680000Y-59358000D02*
X63680000Y-62658000D01*
%TO.C,D6*%
X83350000Y-59700000D02*
X83350000Y-54300000D01*
X86650000Y-59700000D02*
X86650000Y-54300000D01*
X83350000Y-59700000D02*
X86650000Y-59700000D01*
%TO.C,L2*%
X71398000Y-52698000D02*
X78002000Y-52698000D01*
X78002000Y-52698000D02*
X78002000Y-59302000D01*
X78002000Y-59302000D02*
X71398000Y-59302000D01*
X71398000Y-59302000D02*
X71398000Y-52698000D01*
%TO.C,Q1*%
X92197000Y-71240500D02*
X92197000Y-72700500D01*
X89037000Y-71240500D02*
X89037000Y-73400500D01*
X89037000Y-71240500D02*
X89967000Y-71240500D01*
X92197000Y-71240500D02*
X91267000Y-71240500D01*
%TO.C,Q2*%
X86870000Y-83002000D02*
X88330000Y-83002000D01*
X86870000Y-86162000D02*
X89030000Y-86162000D01*
X86870000Y-86162000D02*
X86870000Y-85232000D01*
X86870000Y-83002000D02*
X86870000Y-83932000D01*
%TO.C,Q3*%
X57340000Y-64420000D02*
X57340000Y-65350000D01*
X57340000Y-67580000D02*
X57340000Y-66650000D01*
X57340000Y-67580000D02*
X59500000Y-67580000D01*
X57340000Y-64420000D02*
X58800000Y-64420000D01*
%TO.C,R6*%
X88533000Y-72259078D02*
X88533000Y-71741922D01*
X87113000Y-72259078D02*
X87113000Y-71741922D01*
%TO.C,R10*%
X89714000Y-84269078D02*
X89714000Y-83751922D01*
X91134000Y-84269078D02*
X91134000Y-83751922D01*
%TO.C,R22*%
X58790000Y-95837221D02*
X58790000Y-96162779D01*
X59810000Y-95837221D02*
X59810000Y-96162779D01*
%TO.C,R23*%
X57190000Y-95362779D02*
X57190000Y-95037221D01*
X58210000Y-95362779D02*
X58210000Y-95037221D01*
%TO.C,R26*%
X62541422Y-68260000D02*
X63058578Y-68260000D01*
X62541422Y-66840000D02*
X63058578Y-66840000D01*
D10*
%TO.C,U1*%
X80144000Y-73372000D02*
X80144000Y-73897000D01*
X84444000Y-73372000D02*
X84444000Y-73897000D01*
X84444000Y-77672000D02*
X84444000Y-77147000D01*
X80144000Y-77672000D02*
X80144000Y-77147000D01*
X84444000Y-73372000D02*
X83919000Y-73372000D01*
X84444000Y-77672000D02*
X83919000Y-77672000D01*
X80144000Y-73372000D02*
X80669000Y-73372000D01*
D12*
%TO.C,U3*%
X72325162Y-89252046D02*
X74057574Y-90984457D01*
X75874838Y-88247954D02*
X74602046Y-86975162D01*
%TO.C,U4*%
X71460000Y-73490000D02*
X71460000Y-72150000D01*
X72410000Y-73490000D02*
X71460000Y-73490000D01*
X72410000Y-74440000D02*
X72410000Y-73490000D01*
X72410000Y-83710000D02*
X71460000Y-83710000D01*
X72410000Y-82760000D02*
X72410000Y-83710000D01*
X62190000Y-73490000D02*
X63140000Y-73490000D01*
X62190000Y-74440000D02*
X62190000Y-73490000D01*
X62190000Y-83710000D02*
X63140000Y-83710000D01*
X62190000Y-82760000D02*
X62190000Y-83710000D01*
D10*
%TO.C,U6*%
X69536000Y-58961000D02*
X70936000Y-58961000D01*
X69536000Y-53861000D02*
X65386000Y-53861000D01*
X69536000Y-59011000D02*
X65386000Y-59011000D01*
X69536000Y-53861000D02*
X69536000Y-54006000D01*
X65386000Y-53861000D02*
X65386000Y-54006000D01*
X65386000Y-59011000D02*
X65386000Y-58866000D01*
X69536000Y-59011000D02*
X69536000Y-58961000D01*
D12*
%TO.C,Y1*%
X71400000Y-66450000D02*
X67400000Y-66450000D01*
X71400000Y-69750000D02*
X71400000Y-66450000D01*
%TO.C,U5*%
X79790000Y-62290000D02*
X79790000Y-63550000D01*
X79790000Y-69110000D02*
X79790000Y-67850000D01*
X83550000Y-62290000D02*
X79790000Y-62290000D01*
X85800000Y-69110000D02*
X79790000Y-69110000D01*
%TO.C,D7*%
X76797500Y-70765000D02*
X74512500Y-70765000D01*
X76797500Y-72235000D02*
X76797500Y-70765000D01*
X74512500Y-72235000D02*
X76797500Y-72235000D01*
%TO.C,D8*%
X63860001Y-91030001D02*
X66145001Y-91030001D01*
X63860001Y-89560001D02*
X63860001Y-91030001D01*
X66145001Y-89560001D02*
X63860001Y-89560001D01*
%TO.C,C7*%
X58490000Y-83737221D02*
X58490000Y-84062779D01*
X59510000Y-83737221D02*
X59510000Y-84062779D01*
%TO.C,C8*%
X73937221Y-83290000D02*
X74262779Y-83290000D01*
X73937221Y-84310000D02*
X74262779Y-84310000D01*
%TO.C,J1*%
D10*
X78266666Y-91039880D02*
X78266666Y-91754166D01*
X78219047Y-91897023D01*
X78123809Y-91992261D01*
X77980952Y-92039880D01*
X77885714Y-92039880D01*
X79266666Y-92039880D02*
X78695238Y-92039880D01*
X78980952Y-92039880D02*
X78980952Y-91039880D01*
X78885714Y-91182738D01*
X78790476Y-91277976D01*
X78695238Y-91325595D01*
%TO.C,J15*%
X67490476Y-98552380D02*
X67490476Y-99266666D01*
X67442857Y-99409523D01*
X67347619Y-99504761D01*
X67204761Y-99552380D01*
X67109523Y-99552380D01*
X68490476Y-99552380D02*
X67919047Y-99552380D01*
X68204761Y-99552380D02*
X68204761Y-98552380D01*
X68109523Y-98695238D01*
X68014285Y-98790476D01*
X67919047Y-98838095D01*
X69395238Y-98552380D02*
X68919047Y-98552380D01*
X68871428Y-99028571D01*
X68919047Y-98980952D01*
X69014285Y-98933333D01*
X69252380Y-98933333D01*
X69347619Y-98980952D01*
X69395238Y-99028571D01*
X69442857Y-99123809D01*
X69442857Y-99361904D01*
X69395238Y-99457142D01*
X69347619Y-99504761D01*
X69252380Y-99552380D01*
X69014285Y-99552380D01*
X68919047Y-99504761D01*
X68871428Y-99457142D01*
%TO.C,J13*%
X79890476Y-78452380D02*
X79890476Y-79166666D01*
X79842857Y-79309523D01*
X79747619Y-79404761D01*
X79604761Y-79452380D01*
X79509523Y-79452380D01*
X80890476Y-79452380D02*
X80319047Y-79452380D01*
X80604761Y-79452380D02*
X80604761Y-78452380D01*
X80509523Y-78595238D01*
X80414285Y-78690476D01*
X80319047Y-78738095D01*
X81223809Y-78452380D02*
X81842857Y-78452380D01*
X81509523Y-78833333D01*
X81652380Y-78833333D01*
X81747619Y-78880952D01*
X81795238Y-78928571D01*
X81842857Y-79023809D01*
X81842857Y-79261904D01*
X81795238Y-79357142D01*
X81747619Y-79404761D01*
X81652380Y-79452380D01*
X81366666Y-79452380D01*
X81271428Y-79404761D01*
X81223809Y-79357142D01*
%TO.C,D5*%
X66341904Y-58960380D02*
X66341904Y-57960380D01*
X66580000Y-57960380D01*
X66722857Y-58008000D01*
X66818095Y-58103238D01*
X66865714Y-58198476D01*
X66913333Y-58388952D01*
X66913333Y-58531809D01*
X66865714Y-58722285D01*
X66818095Y-58817523D01*
X66722857Y-58912761D01*
X66580000Y-58960380D01*
X66341904Y-58960380D01*
X67818095Y-57960380D02*
X67341904Y-57960380D01*
X67294285Y-58436571D01*
X67341904Y-58388952D01*
X67437142Y-58341333D01*
X67675238Y-58341333D01*
X67770476Y-58388952D01*
X67818095Y-58436571D01*
X67865714Y-58531809D01*
X67865714Y-58769904D01*
X67818095Y-58865142D01*
X67770476Y-58912761D01*
X67675238Y-58960380D01*
X67437142Y-58960380D01*
X67341904Y-58912761D01*
X67294285Y-58865142D01*
%TO.C,U1*%
X78371380Y-76283904D02*
X79180904Y-76283904D01*
X79276142Y-76236285D01*
X79323761Y-76188666D01*
X79371380Y-76093428D01*
X79371380Y-75902952D01*
X79323761Y-75807714D01*
X79276142Y-75760095D01*
X79180904Y-75712476D01*
X78371380Y-75712476D01*
X79371380Y-74712476D02*
X79371380Y-75283904D01*
X79371380Y-74998190D02*
X78371380Y-74998190D01*
X78514238Y-75093428D01*
X78609476Y-75188666D01*
X78657095Y-75283904D01*
%TO.C,U4*%
X60138095Y-73052380D02*
X60138095Y-73861904D01*
X60185714Y-73957142D01*
X60233333Y-74004761D01*
X60328571Y-74052380D01*
X60519047Y-74052380D01*
X60614285Y-74004761D01*
X60661904Y-73957142D01*
X60709523Y-73861904D01*
X60709523Y-73052380D01*
X61614285Y-73385714D02*
X61614285Y-74052380D01*
X61376190Y-73004761D02*
X61138095Y-73719047D01*
X61757142Y-73719047D01*
%TO.C,Y1*%
X68923809Y-65776190D02*
X68923809Y-66252380D01*
X68590476Y-65252380D02*
X68923809Y-65776190D01*
X69257142Y-65252380D01*
X70114285Y-66252380D02*
X69542857Y-66252380D01*
X69828571Y-66252380D02*
X69828571Y-65252380D01*
X69733333Y-65395238D01*
X69638095Y-65490476D01*
X69542857Y-65538095D01*
%TO.C,C7*%
X60787142Y-84066666D02*
X60834761Y-84114285D01*
X60882380Y-84257142D01*
X60882380Y-84352380D01*
X60834761Y-84495238D01*
X60739523Y-84590476D01*
X60644285Y-84638095D01*
X60453809Y-84685714D01*
X60310952Y-84685714D01*
X60120476Y-84638095D01*
X60025238Y-84590476D01*
X59930000Y-84495238D01*
X59882380Y-84352380D01*
X59882380Y-84257142D01*
X59930000Y-84114285D01*
X59977619Y-84066666D01*
X59882380Y-83733333D02*
X59882380Y-83066666D01*
X60882380Y-83495238D01*
%TO.C,C8*%
X73933333Y-82727142D02*
X73885714Y-82774761D01*
X73742857Y-82822380D01*
X73647619Y-82822380D01*
X73504761Y-82774761D01*
X73409523Y-82679523D01*
X73361904Y-82584285D01*
X73314285Y-82393809D01*
X73314285Y-82250952D01*
X73361904Y-82060476D01*
X73409523Y-81965238D01*
X73504761Y-81870000D01*
X73647619Y-81822380D01*
X73742857Y-81822380D01*
X73885714Y-81870000D01*
X73933333Y-81917619D01*
X74504761Y-82250952D02*
X74409523Y-82203333D01*
X74361904Y-82155714D01*
X74314285Y-82060476D01*
X74314285Y-82012857D01*
X74361904Y-81917619D01*
X74409523Y-81870000D01*
X74504761Y-81822380D01*
X74695238Y-81822380D01*
X74790476Y-81870000D01*
X74838095Y-81917619D01*
X74885714Y-82012857D01*
X74885714Y-82060476D01*
X74838095Y-82155714D01*
X74790476Y-82203333D01*
X74695238Y-82250952D01*
X74504761Y-82250952D01*
X74409523Y-82298571D01*
X74361904Y-82346190D01*
X74314285Y-82441428D01*
X74314285Y-82631904D01*
X74361904Y-82727142D01*
X74409523Y-82774761D01*
X74504761Y-82822380D01*
X74695238Y-82822380D01*
X74790476Y-82774761D01*
X74838095Y-82727142D01*
X74885714Y-82631904D01*
X74885714Y-82441428D01*
X74838095Y-82346190D01*
X74790476Y-82298571D01*
X74695238Y-82250952D01*
%TO.C,R13*%
X67372142Y-72022380D02*
X67038809Y-71546190D01*
X66800714Y-72022380D02*
X66800714Y-71022380D01*
X67181666Y-71022380D01*
X67276904Y-71070000D01*
X67324523Y-71117619D01*
X67372142Y-71212857D01*
X67372142Y-71355714D01*
X67324523Y-71450952D01*
X67276904Y-71498571D01*
X67181666Y-71546190D01*
X66800714Y-71546190D01*
X68324523Y-72022380D02*
X67753095Y-72022380D01*
X68038809Y-72022380D02*
X68038809Y-71022380D01*
X67943571Y-71165238D01*
X67848333Y-71260476D01*
X67753095Y-71308095D01*
X68657857Y-71022380D02*
X69276904Y-71022380D01*
X68943571Y-71403333D01*
X69086428Y-71403333D01*
X69181666Y-71450952D01*
X69229285Y-71498571D01*
X69276904Y-71593809D01*
X69276904Y-71831904D01*
X69229285Y-71927142D01*
X69181666Y-71974761D01*
X69086428Y-72022380D01*
X68800714Y-72022380D01*
X68705476Y-71974761D01*
X68657857Y-71927142D01*
%TD*%
M02*
