%TF.GenerationSoftware,KiCad,Pcbnew,(5.1.6-0-10_14)*%
%TF.CreationDate,2020-11-09T18:58:44+11:00*%
%TF.ProjectId,spartan_mk1,73706172-7461-46e5-9f6d-6b312e6b6963,rev?*%
%TF.SameCoordinates,Original*%
%TF.FileFunction,Paste,Bot*%
%TF.FilePolarity,Positive*%
%FSLAX46Y46*%
G04 Gerber Fmt 4.6, Leading zero omitted, Abs format (unit mm)*
G04 Created by KiCad (PCBNEW (5.1.6-0-10_14)) date 2020-11-09 18:58:44*
%MOMM*%
%LPD*%
G01*
G04 APERTURE LIST*
%ADD10R,0.800000X1.700000*%
G04 APERTURE END LIST*
%TO.C,R16*%
G36*
G01*
X58372500Y-78525000D02*
X58027500Y-78525000D01*
G75*
G02*
X57880000Y-78377500I0J147500D01*
G01*
X57880000Y-78082500D01*
G75*
G02*
X58027500Y-77935000I147500J0D01*
G01*
X58372500Y-77935000D01*
G75*
G02*
X58520000Y-78082500I0J-147500D01*
G01*
X58520000Y-78377500D01*
G75*
G02*
X58372500Y-78525000I-147500J0D01*
G01*
G37*
G36*
G01*
X58372500Y-79495000D02*
X58027500Y-79495000D01*
G75*
G02*
X57880000Y-79347500I0J147500D01*
G01*
X57880000Y-79052500D01*
G75*
G02*
X58027500Y-78905000I147500J0D01*
G01*
X58372500Y-78905000D01*
G75*
G02*
X58520000Y-79052500I0J-147500D01*
G01*
X58520000Y-79347500D01*
G75*
G02*
X58372500Y-79495000I-147500J0D01*
G01*
G37*
%TD*%
%TO.C,J18*%
G36*
G01*
X55400000Y-76300000D02*
X56650000Y-76300000D01*
G75*
G02*
X56800000Y-76450000I0J-150000D01*
G01*
X56800000Y-76750000D01*
G75*
G02*
X56650000Y-76900000I-150000J0D01*
G01*
X55400000Y-76900000D01*
G75*
G02*
X55250000Y-76750000I0J150000D01*
G01*
X55250000Y-76450000D01*
G75*
G02*
X55400000Y-76300000I150000J0D01*
G01*
G37*
G36*
G01*
X55400000Y-77300000D02*
X56650000Y-77300000D01*
G75*
G02*
X56800000Y-77450000I0J-150000D01*
G01*
X56800000Y-77750000D01*
G75*
G02*
X56650000Y-77900000I-150000J0D01*
G01*
X55400000Y-77900000D01*
G75*
G02*
X55250000Y-77750000I0J150000D01*
G01*
X55250000Y-77450000D01*
G75*
G02*
X55400000Y-77300000I150000J0D01*
G01*
G37*
G36*
G01*
X55400000Y-78300000D02*
X56650000Y-78300000D01*
G75*
G02*
X56800000Y-78450000I0J-150000D01*
G01*
X56800000Y-78750000D01*
G75*
G02*
X56650000Y-78900000I-150000J0D01*
G01*
X55400000Y-78900000D01*
G75*
G02*
X55250000Y-78750000I0J150000D01*
G01*
X55250000Y-78450000D01*
G75*
G02*
X55400000Y-78300000I150000J0D01*
G01*
G37*
G36*
G01*
X55400000Y-79300000D02*
X56650000Y-79300000D01*
G75*
G02*
X56800000Y-79450000I0J-150000D01*
G01*
X56800000Y-79750000D01*
G75*
G02*
X56650000Y-79900000I-150000J0D01*
G01*
X55400000Y-79900000D01*
G75*
G02*
X55250000Y-79750000I0J150000D01*
G01*
X55250000Y-79450000D01*
G75*
G02*
X55400000Y-79300000I150000J0D01*
G01*
G37*
G36*
G01*
X55400000Y-80300000D02*
X56650000Y-80300000D01*
G75*
G02*
X56800000Y-80450000I0J-150000D01*
G01*
X56800000Y-80750000D01*
G75*
G02*
X56650000Y-80900000I-150000J0D01*
G01*
X55400000Y-80900000D01*
G75*
G02*
X55250000Y-80750000I0J150000D01*
G01*
X55250000Y-80450000D01*
G75*
G02*
X55400000Y-80300000I150000J0D01*
G01*
G37*
G36*
G01*
X55400000Y-81300000D02*
X56650000Y-81300000D01*
G75*
G02*
X56800000Y-81450000I0J-150000D01*
G01*
X56800000Y-81750000D01*
G75*
G02*
X56650000Y-81900000I-150000J0D01*
G01*
X55400000Y-81900000D01*
G75*
G02*
X55250000Y-81750000I0J150000D01*
G01*
X55250000Y-81450000D01*
G75*
G02*
X55400000Y-81300000I150000J0D01*
G01*
G37*
G36*
G01*
X55400000Y-82300000D02*
X56650000Y-82300000D01*
G75*
G02*
X56800000Y-82450000I0J-150000D01*
G01*
X56800000Y-82750000D01*
G75*
G02*
X56650000Y-82900000I-150000J0D01*
G01*
X55400000Y-82900000D01*
G75*
G02*
X55250000Y-82750000I0J150000D01*
G01*
X55250000Y-82450000D01*
G75*
G02*
X55400000Y-82300000I150000J0D01*
G01*
G37*
G36*
G01*
X55400000Y-83300000D02*
X56650000Y-83300000D01*
G75*
G02*
X56800000Y-83450000I0J-150000D01*
G01*
X56800000Y-83750000D01*
G75*
G02*
X56650000Y-83900000I-150000J0D01*
G01*
X55400000Y-83900000D01*
G75*
G02*
X55250000Y-83750000I0J150000D01*
G01*
X55250000Y-83450000D01*
G75*
G02*
X55400000Y-83300000I150000J0D01*
G01*
G37*
G36*
G01*
X52849999Y-74700000D02*
X54150001Y-74700000D01*
G75*
G02*
X54400000Y-74949999I0J-249999D01*
G01*
X54400000Y-75650001D01*
G75*
G02*
X54150001Y-75900000I-249999J0D01*
G01*
X52849999Y-75900000D01*
G75*
G02*
X52600000Y-75650001I0J249999D01*
G01*
X52600000Y-74949999D01*
G75*
G02*
X52849999Y-74700000I249999J0D01*
G01*
G37*
G36*
G01*
X52849999Y-84300000D02*
X54150001Y-84300000D01*
G75*
G02*
X54400000Y-84549999I0J-249999D01*
G01*
X54400000Y-85250001D01*
G75*
G02*
X54150001Y-85500000I-249999J0D01*
G01*
X52849999Y-85500000D01*
G75*
G02*
X52600000Y-85250001I0J249999D01*
G01*
X52600000Y-84549999D01*
G75*
G02*
X52849999Y-84300000I249999J0D01*
G01*
G37*
%TD*%
%TO.C,R3*%
G36*
G01*
X63627500Y-81440000D02*
X63972500Y-81440000D01*
G75*
G02*
X64120000Y-81587500I0J-147500D01*
G01*
X64120000Y-81882500D01*
G75*
G02*
X63972500Y-82030000I-147500J0D01*
G01*
X63627500Y-82030000D01*
G75*
G02*
X63480000Y-81882500I0J147500D01*
G01*
X63480000Y-81587500D01*
G75*
G02*
X63627500Y-81440000I147500J0D01*
G01*
G37*
G36*
G01*
X63627500Y-80470000D02*
X63972500Y-80470000D01*
G75*
G02*
X64120000Y-80617500I0J-147500D01*
G01*
X64120000Y-80912500D01*
G75*
G02*
X63972500Y-81060000I-147500J0D01*
G01*
X63627500Y-81060000D01*
G75*
G02*
X63480000Y-80912500I0J147500D01*
G01*
X63480000Y-80617500D01*
G75*
G02*
X63627500Y-80470000I147500J0D01*
G01*
G37*
%TD*%
%TO.C,R4*%
G36*
G01*
X63972500Y-79680000D02*
X63627500Y-79680000D01*
G75*
G02*
X63480000Y-79532500I0J147500D01*
G01*
X63480000Y-79237500D01*
G75*
G02*
X63627500Y-79090000I147500J0D01*
G01*
X63972500Y-79090000D01*
G75*
G02*
X64120000Y-79237500I0J-147500D01*
G01*
X64120000Y-79532500D01*
G75*
G02*
X63972500Y-79680000I-147500J0D01*
G01*
G37*
G36*
G01*
X63972500Y-78710000D02*
X63627500Y-78710000D01*
G75*
G02*
X63480000Y-78562500I0J147500D01*
G01*
X63480000Y-78267500D01*
G75*
G02*
X63627500Y-78120000I147500J0D01*
G01*
X63972500Y-78120000D01*
G75*
G02*
X64120000Y-78267500I0J-147500D01*
G01*
X64120000Y-78562500D01*
G75*
G02*
X63972500Y-78710000I-147500J0D01*
G01*
G37*
%TD*%
%TO.C,U2*%
G36*
G01*
X71550000Y-76245000D02*
X71550000Y-76545000D01*
G75*
G02*
X71400000Y-76695000I-150000J0D01*
G01*
X69750000Y-76695000D01*
G75*
G02*
X69600000Y-76545000I0J150000D01*
G01*
X69600000Y-76245000D01*
G75*
G02*
X69750000Y-76095000I150000J0D01*
G01*
X71400000Y-76095000D01*
G75*
G02*
X71550000Y-76245000I0J-150000D01*
G01*
G37*
G36*
G01*
X71550000Y-77515000D02*
X71550000Y-77815000D01*
G75*
G02*
X71400000Y-77965000I-150000J0D01*
G01*
X69750000Y-77965000D01*
G75*
G02*
X69600000Y-77815000I0J150000D01*
G01*
X69600000Y-77515000D01*
G75*
G02*
X69750000Y-77365000I150000J0D01*
G01*
X71400000Y-77365000D01*
G75*
G02*
X71550000Y-77515000I0J-150000D01*
G01*
G37*
G36*
G01*
X71550000Y-78785000D02*
X71550000Y-79085000D01*
G75*
G02*
X71400000Y-79235000I-150000J0D01*
G01*
X69750000Y-79235000D01*
G75*
G02*
X69600000Y-79085000I0J150000D01*
G01*
X69600000Y-78785000D01*
G75*
G02*
X69750000Y-78635000I150000J0D01*
G01*
X71400000Y-78635000D01*
G75*
G02*
X71550000Y-78785000I0J-150000D01*
G01*
G37*
G36*
G01*
X71550000Y-80055000D02*
X71550000Y-80355000D01*
G75*
G02*
X71400000Y-80505000I-150000J0D01*
G01*
X69750000Y-80505000D01*
G75*
G02*
X69600000Y-80355000I0J150000D01*
G01*
X69600000Y-80055000D01*
G75*
G02*
X69750000Y-79905000I150000J0D01*
G01*
X71400000Y-79905000D01*
G75*
G02*
X71550000Y-80055000I0J-150000D01*
G01*
G37*
G36*
G01*
X66600000Y-80055000D02*
X66600000Y-80355000D01*
G75*
G02*
X66450000Y-80505000I-150000J0D01*
G01*
X64800000Y-80505000D01*
G75*
G02*
X64650000Y-80355000I0J150000D01*
G01*
X64650000Y-80055000D01*
G75*
G02*
X64800000Y-79905000I150000J0D01*
G01*
X66450000Y-79905000D01*
G75*
G02*
X66600000Y-80055000I0J-150000D01*
G01*
G37*
G36*
G01*
X66600000Y-78785000D02*
X66600000Y-79085000D01*
G75*
G02*
X66450000Y-79235000I-150000J0D01*
G01*
X64800000Y-79235000D01*
G75*
G02*
X64650000Y-79085000I0J150000D01*
G01*
X64650000Y-78785000D01*
G75*
G02*
X64800000Y-78635000I150000J0D01*
G01*
X66450000Y-78635000D01*
G75*
G02*
X66600000Y-78785000I0J-150000D01*
G01*
G37*
G36*
G01*
X66600000Y-77515000D02*
X66600000Y-77815000D01*
G75*
G02*
X66450000Y-77965000I-150000J0D01*
G01*
X64800000Y-77965000D01*
G75*
G02*
X64650000Y-77815000I0J150000D01*
G01*
X64650000Y-77515000D01*
G75*
G02*
X64800000Y-77365000I150000J0D01*
G01*
X66450000Y-77365000D01*
G75*
G02*
X66600000Y-77515000I0J-150000D01*
G01*
G37*
G36*
G01*
X66600000Y-76245000D02*
X66600000Y-76545000D01*
G75*
G02*
X66450000Y-76695000I-150000J0D01*
G01*
X64800000Y-76695000D01*
G75*
G02*
X64650000Y-76545000I0J150000D01*
G01*
X64650000Y-76245000D01*
G75*
G02*
X64800000Y-76095000I150000J0D01*
G01*
X66450000Y-76095000D01*
G75*
G02*
X66600000Y-76245000I0J-150000D01*
G01*
G37*
%TD*%
D10*
%TO.C,SW1*%
X92400000Y-54200000D03*
X89000000Y-54200000D03*
%TD*%
M02*
