%TF.GenerationSoftware,KiCad,Pcbnew,(5.1.6-0-10_14)*%
%TF.CreationDate,2020-11-09T20:44:41+11:00*%
%TF.ProjectId,spartan_mk1,73706172-7461-46e5-9f6d-6b312e6b6963,rev?*%
%TF.SameCoordinates,Original*%
%TF.FileFunction,Paste,Top*%
%TF.FilePolarity,Positive*%
%FSLAX46Y46*%
G04 Gerber Fmt 4.6, Leading zero omitted, Abs format (unit mm)*
G04 Created by KiCad (PCBNEW (5.1.6-0-10_14)) date 2020-11-09 20:44:41*
%MOMM*%
%LPD*%
G01*
G04 APERTURE LIST*
%ADD10R,1.500000X1.900000*%
%ADD11R,0.400000X1.350000*%
%ADD12R,2.400000X0.740000*%
%ADD13R,0.900000X1.200000*%
%ADD14R,1.300000X1.700000*%
%ADD15R,2.500000X1.800000*%
%ADD16R,1.800000X2.500000*%
%ADD17R,5.700000X1.700000*%
%ADD18R,0.800000X0.900000*%
%ADD19R,0.900000X0.800000*%
%ADD20C,0.100000*%
%ADD21R,2.600000X3.100000*%
%ADD22R,1.550000X0.600000*%
%ADD23R,1.400000X1.200000*%
%ADD24R,2.000000X1.500000*%
%ADD25R,2.000000X3.800000*%
G04 APERTURE END LIST*
D10*
%TO.C,J1*%
X79600000Y-95937500D03*
D11*
X77950000Y-93237500D03*
X77300000Y-93237500D03*
X79900000Y-93237500D03*
X79250000Y-93237500D03*
X78600000Y-93237500D03*
D10*
X77600000Y-95937500D03*
%TD*%
%TO.C,J15*%
G36*
G01*
X64100000Y-96349999D02*
X64100000Y-97650001D01*
G75*
G02*
X63850001Y-97900000I-249999J0D01*
G01*
X63149999Y-97900000D01*
G75*
G02*
X62900000Y-97650001I0J249999D01*
G01*
X62900000Y-96349999D01*
G75*
G02*
X63149999Y-96100000I249999J0D01*
G01*
X63850001Y-96100000D01*
G75*
G02*
X64100000Y-96349999I0J-249999D01*
G01*
G37*
G36*
G01*
X73700000Y-96349999D02*
X73700000Y-97650001D01*
G75*
G02*
X73450001Y-97900000I-249999J0D01*
G01*
X72749999Y-97900000D01*
G75*
G02*
X72500000Y-97650001I0J249999D01*
G01*
X72500000Y-96349999D01*
G75*
G02*
X72749999Y-96100000I249999J0D01*
G01*
X73450001Y-96100000D01*
G75*
G02*
X73700000Y-96349999I0J-249999D01*
G01*
G37*
G36*
G01*
X65100000Y-93850000D02*
X65100000Y-95100000D01*
G75*
G02*
X64950000Y-95250000I-150000J0D01*
G01*
X64650000Y-95250000D01*
G75*
G02*
X64500000Y-95100000I0J150000D01*
G01*
X64500000Y-93850000D01*
G75*
G02*
X64650000Y-93700000I150000J0D01*
G01*
X64950000Y-93700000D01*
G75*
G02*
X65100000Y-93850000I0J-150000D01*
G01*
G37*
G36*
G01*
X66100000Y-93850000D02*
X66100000Y-95100000D01*
G75*
G02*
X65950000Y-95250000I-150000J0D01*
G01*
X65650000Y-95250000D01*
G75*
G02*
X65500000Y-95100000I0J150000D01*
G01*
X65500000Y-93850000D01*
G75*
G02*
X65650000Y-93700000I150000J0D01*
G01*
X65950000Y-93700000D01*
G75*
G02*
X66100000Y-93850000I0J-150000D01*
G01*
G37*
G36*
G01*
X67100000Y-93850000D02*
X67100000Y-95100000D01*
G75*
G02*
X66950000Y-95250000I-150000J0D01*
G01*
X66650000Y-95250000D01*
G75*
G02*
X66500000Y-95100000I0J150000D01*
G01*
X66500000Y-93850000D01*
G75*
G02*
X66650000Y-93700000I150000J0D01*
G01*
X66950000Y-93700000D01*
G75*
G02*
X67100000Y-93850000I0J-150000D01*
G01*
G37*
G36*
G01*
X68100000Y-93850000D02*
X68100000Y-95100000D01*
G75*
G02*
X67950000Y-95250000I-150000J0D01*
G01*
X67650000Y-95250000D01*
G75*
G02*
X67500000Y-95100000I0J150000D01*
G01*
X67500000Y-93850000D01*
G75*
G02*
X67650000Y-93700000I150000J0D01*
G01*
X67950000Y-93700000D01*
G75*
G02*
X68100000Y-93850000I0J-150000D01*
G01*
G37*
G36*
G01*
X69100000Y-93850000D02*
X69100000Y-95100000D01*
G75*
G02*
X68950000Y-95250000I-150000J0D01*
G01*
X68650000Y-95250000D01*
G75*
G02*
X68500000Y-95100000I0J150000D01*
G01*
X68500000Y-93850000D01*
G75*
G02*
X68650000Y-93700000I150000J0D01*
G01*
X68950000Y-93700000D01*
G75*
G02*
X69100000Y-93850000I0J-150000D01*
G01*
G37*
G36*
G01*
X70100000Y-93850000D02*
X70100000Y-95100000D01*
G75*
G02*
X69950000Y-95250000I-150000J0D01*
G01*
X69650000Y-95250000D01*
G75*
G02*
X69500000Y-95100000I0J150000D01*
G01*
X69500000Y-93850000D01*
G75*
G02*
X69650000Y-93700000I150000J0D01*
G01*
X69950000Y-93700000D01*
G75*
G02*
X70100000Y-93850000I0J-150000D01*
G01*
G37*
G36*
G01*
X71100000Y-93850000D02*
X71100000Y-95100000D01*
G75*
G02*
X70950000Y-95250000I-150000J0D01*
G01*
X70650000Y-95250000D01*
G75*
G02*
X70500000Y-95100000I0J150000D01*
G01*
X70500000Y-93850000D01*
G75*
G02*
X70650000Y-93700000I150000J0D01*
G01*
X70950000Y-93700000D01*
G75*
G02*
X71100000Y-93850000I0J-150000D01*
G01*
G37*
G36*
G01*
X72100000Y-93850000D02*
X72100000Y-95100000D01*
G75*
G02*
X71950000Y-95250000I-150000J0D01*
G01*
X71650000Y-95250000D01*
G75*
G02*
X71500000Y-95100000I0J150000D01*
G01*
X71500000Y-93850000D01*
G75*
G02*
X71650000Y-93700000I150000J0D01*
G01*
X71950000Y-93700000D01*
G75*
G02*
X72100000Y-93850000I0J-150000D01*
G01*
G37*
%TD*%
%TO.C,C11*%
G36*
G01*
X64298500Y-70873000D02*
X63953500Y-70873000D01*
G75*
G02*
X63806000Y-70725500I0J147500D01*
G01*
X63806000Y-70430500D01*
G75*
G02*
X63953500Y-70283000I147500J0D01*
G01*
X64298500Y-70283000D01*
G75*
G02*
X64446000Y-70430500I0J-147500D01*
G01*
X64446000Y-70725500D01*
G75*
G02*
X64298500Y-70873000I-147500J0D01*
G01*
G37*
G36*
G01*
X64298500Y-69903000D02*
X63953500Y-69903000D01*
G75*
G02*
X63806000Y-69755500I0J147500D01*
G01*
X63806000Y-69460500D01*
G75*
G02*
X63953500Y-69313000I147500J0D01*
G01*
X64298500Y-69313000D01*
G75*
G02*
X64446000Y-69460500I0J-147500D01*
G01*
X64446000Y-69755500D01*
G75*
G02*
X64298500Y-69903000I-147500J0D01*
G01*
G37*
%TD*%
%TO.C,J11*%
G36*
G01*
X94113500Y-63950000D02*
X94113500Y-62450000D01*
G75*
G02*
X94863500Y-61700000I750000J0D01*
G01*
X96363500Y-61700000D01*
G75*
G02*
X97113500Y-62450000I0J-750000D01*
G01*
X97113500Y-63950000D01*
G75*
G02*
X96363500Y-64700000I-750000J0D01*
G01*
X94863500Y-64700000D01*
G75*
G02*
X94113500Y-63950000I0J750000D01*
G01*
G37*
G36*
G01*
X94050000Y-67950000D02*
X94050000Y-66450000D01*
G75*
G02*
X94800000Y-65700000I750000J0D01*
G01*
X96300000Y-65700000D01*
G75*
G02*
X97050000Y-66450000I0J-750000D01*
G01*
X97050000Y-67950000D01*
G75*
G02*
X96300000Y-68700000I-750000J0D01*
G01*
X94800000Y-68700000D01*
G75*
G02*
X94050000Y-67950000I0J750000D01*
G01*
G37*
%TD*%
D12*
%TO.C,J13*%
X78350000Y-80760000D03*
X82250000Y-80760000D03*
X78350000Y-82030000D03*
X82250000Y-82030000D03*
X78350000Y-83300000D03*
X82250000Y-83300000D03*
X78350000Y-84570000D03*
X82250000Y-84570000D03*
X78350000Y-85840000D03*
X82250000Y-85840000D03*
%TD*%
%TO.C,C24*%
G36*
G01*
X79574999Y-59375000D02*
X81625001Y-59375000D01*
G75*
G02*
X81875000Y-59624999I0J-249999D01*
G01*
X81875000Y-61375001D01*
G75*
G02*
X81625001Y-61625000I-249999J0D01*
G01*
X79574999Y-61625000D01*
G75*
G02*
X79325000Y-61375001I0J249999D01*
G01*
X79325000Y-59624999D01*
G75*
G02*
X79574999Y-59375000I249999J0D01*
G01*
G37*
G36*
G01*
X79574999Y-52975000D02*
X81625001Y-52975000D01*
G75*
G02*
X81875000Y-53224999I0J-249999D01*
G01*
X81875000Y-54975001D01*
G75*
G02*
X81625001Y-55225000I-249999J0D01*
G01*
X79574999Y-55225000D01*
G75*
G02*
X79325000Y-54975001I0J249999D01*
G01*
X79325000Y-53224999D01*
G75*
G02*
X79574999Y-52975000I249999J0D01*
G01*
G37*
%TD*%
D13*
%TO.C,D3*%
X83950000Y-94600000D03*
X87250000Y-94600000D03*
%TD*%
%TO.C,C1*%
G36*
G01*
X85477500Y-76790000D02*
X85822500Y-76790000D01*
G75*
G02*
X85970000Y-76937500I0J-147500D01*
G01*
X85970000Y-77232500D01*
G75*
G02*
X85822500Y-77380000I-147500J0D01*
G01*
X85477500Y-77380000D01*
G75*
G02*
X85330000Y-77232500I0J147500D01*
G01*
X85330000Y-76937500D01*
G75*
G02*
X85477500Y-76790000I147500J0D01*
G01*
G37*
G36*
G01*
X85477500Y-75820000D02*
X85822500Y-75820000D01*
G75*
G02*
X85970000Y-75967500I0J-147500D01*
G01*
X85970000Y-76262500D01*
G75*
G02*
X85822500Y-76410000I-147500J0D01*
G01*
X85477500Y-76410000D01*
G75*
G02*
X85330000Y-76262500I0J147500D01*
G01*
X85330000Y-75967500D01*
G75*
G02*
X85477500Y-75820000I147500J0D01*
G01*
G37*
%TD*%
%TO.C,C2*%
G36*
G01*
X83130000Y-72077500D02*
X83130000Y-72422500D01*
G75*
G02*
X82982500Y-72570000I-147500J0D01*
G01*
X82687500Y-72570000D01*
G75*
G02*
X82540000Y-72422500I0J147500D01*
G01*
X82540000Y-72077500D01*
G75*
G02*
X82687500Y-71930000I147500J0D01*
G01*
X82982500Y-71930000D01*
G75*
G02*
X83130000Y-72077500I0J-147500D01*
G01*
G37*
G36*
G01*
X82160000Y-72077500D02*
X82160000Y-72422500D01*
G75*
G02*
X82012500Y-72570000I-147500J0D01*
G01*
X81717500Y-72570000D01*
G75*
G02*
X81570000Y-72422500I0J147500D01*
G01*
X81570000Y-72077500D01*
G75*
G02*
X81717500Y-71930000I147500J0D01*
G01*
X82012500Y-71930000D01*
G75*
G02*
X82160000Y-72077500I0J-147500D01*
G01*
G37*
%TD*%
%TO.C,C3*%
G36*
G01*
X86884000Y-74927500D02*
X86884000Y-75272500D01*
G75*
G02*
X86736500Y-75420000I-147500J0D01*
G01*
X86441500Y-75420000D01*
G75*
G02*
X86294000Y-75272500I0J147500D01*
G01*
X86294000Y-74927500D01*
G75*
G02*
X86441500Y-74780000I147500J0D01*
G01*
X86736500Y-74780000D01*
G75*
G02*
X86884000Y-74927500I0J-147500D01*
G01*
G37*
G36*
G01*
X85914000Y-74927500D02*
X85914000Y-75272500D01*
G75*
G02*
X85766500Y-75420000I-147500J0D01*
G01*
X85471500Y-75420000D01*
G75*
G02*
X85324000Y-75272500I0J147500D01*
G01*
X85324000Y-74927500D01*
G75*
G02*
X85471500Y-74780000I147500J0D01*
G01*
X85766500Y-74780000D01*
G75*
G02*
X85914000Y-74927500I0J-147500D01*
G01*
G37*
%TD*%
%TO.C,C4*%
G36*
G01*
X78877500Y-73840000D02*
X79222500Y-73840000D01*
G75*
G02*
X79370000Y-73987500I0J-147500D01*
G01*
X79370000Y-74282500D01*
G75*
G02*
X79222500Y-74430000I-147500J0D01*
G01*
X78877500Y-74430000D01*
G75*
G02*
X78730000Y-74282500I0J147500D01*
G01*
X78730000Y-73987500D01*
G75*
G02*
X78877500Y-73840000I147500J0D01*
G01*
G37*
G36*
G01*
X78877500Y-72870000D02*
X79222500Y-72870000D01*
G75*
G02*
X79370000Y-73017500I0J-147500D01*
G01*
X79370000Y-73312500D01*
G75*
G02*
X79222500Y-73460000I-147500J0D01*
G01*
X78877500Y-73460000D01*
G75*
G02*
X78730000Y-73312500I0J147500D01*
G01*
X78730000Y-73017500D01*
G75*
G02*
X78877500Y-72870000I147500J0D01*
G01*
G37*
%TD*%
%TO.C,C5*%
G36*
G01*
X71927500Y-68290000D02*
X72272500Y-68290000D01*
G75*
G02*
X72420000Y-68437500I0J-147500D01*
G01*
X72420000Y-68732500D01*
G75*
G02*
X72272500Y-68880000I-147500J0D01*
G01*
X71927500Y-68880000D01*
G75*
G02*
X71780000Y-68732500I0J147500D01*
G01*
X71780000Y-68437500D01*
G75*
G02*
X71927500Y-68290000I147500J0D01*
G01*
G37*
G36*
G01*
X71927500Y-67320000D02*
X72272500Y-67320000D01*
G75*
G02*
X72420000Y-67467500I0J-147500D01*
G01*
X72420000Y-67762500D01*
G75*
G02*
X72272500Y-67910000I-147500J0D01*
G01*
X71927500Y-67910000D01*
G75*
G02*
X71780000Y-67762500I0J147500D01*
G01*
X71780000Y-67467500D01*
G75*
G02*
X71927500Y-67320000I147500J0D01*
G01*
G37*
%TD*%
%TO.C,C6*%
G36*
G01*
X66872500Y-68880000D02*
X66527500Y-68880000D01*
G75*
G02*
X66380000Y-68732500I0J147500D01*
G01*
X66380000Y-68437500D01*
G75*
G02*
X66527500Y-68290000I147500J0D01*
G01*
X66872500Y-68290000D01*
G75*
G02*
X67020000Y-68437500I0J-147500D01*
G01*
X67020000Y-68732500D01*
G75*
G02*
X66872500Y-68880000I-147500J0D01*
G01*
G37*
G36*
G01*
X66872500Y-67910000D02*
X66527500Y-67910000D01*
G75*
G02*
X66380000Y-67762500I0J147500D01*
G01*
X66380000Y-67467500D01*
G75*
G02*
X66527500Y-67320000I147500J0D01*
G01*
X66872500Y-67320000D01*
G75*
G02*
X67020000Y-67467500I0J-147500D01*
G01*
X67020000Y-67762500D01*
G75*
G02*
X66872500Y-67910000I-147500J0D01*
G01*
G37*
%TD*%
%TO.C,C9*%
G36*
G01*
X60127500Y-83120000D02*
X60472500Y-83120000D01*
G75*
G02*
X60620000Y-83267500I0J-147500D01*
G01*
X60620000Y-83562500D01*
G75*
G02*
X60472500Y-83710000I-147500J0D01*
G01*
X60127500Y-83710000D01*
G75*
G02*
X59980000Y-83562500I0J147500D01*
G01*
X59980000Y-83267500D01*
G75*
G02*
X60127500Y-83120000I147500J0D01*
G01*
G37*
G36*
G01*
X60127500Y-84090000D02*
X60472500Y-84090000D01*
G75*
G02*
X60620000Y-84237500I0J-147500D01*
G01*
X60620000Y-84532500D01*
G75*
G02*
X60472500Y-84680000I-147500J0D01*
G01*
X60127500Y-84680000D01*
G75*
G02*
X59980000Y-84532500I0J147500D01*
G01*
X59980000Y-84237500D01*
G75*
G02*
X60127500Y-84090000I147500J0D01*
G01*
G37*
%TD*%
%TO.C,C10*%
G36*
G01*
X61227500Y-84090000D02*
X61572500Y-84090000D01*
G75*
G02*
X61720000Y-84237500I0J-147500D01*
G01*
X61720000Y-84532500D01*
G75*
G02*
X61572500Y-84680000I-147500J0D01*
G01*
X61227500Y-84680000D01*
G75*
G02*
X61080000Y-84532500I0J147500D01*
G01*
X61080000Y-84237500D01*
G75*
G02*
X61227500Y-84090000I147500J0D01*
G01*
G37*
G36*
G01*
X61227500Y-83120000D02*
X61572500Y-83120000D01*
G75*
G02*
X61720000Y-83267500I0J-147500D01*
G01*
X61720000Y-83562500D01*
G75*
G02*
X61572500Y-83710000I-147500J0D01*
G01*
X61227500Y-83710000D01*
G75*
G02*
X61080000Y-83562500I0J147500D01*
G01*
X61080000Y-83267500D01*
G75*
G02*
X61227500Y-83120000I147500J0D01*
G01*
G37*
%TD*%
%TO.C,C12*%
G36*
G01*
X72279553Y-73022947D02*
X71934553Y-73022947D01*
G75*
G02*
X71787053Y-72875447I0J147500D01*
G01*
X71787053Y-72580447D01*
G75*
G02*
X71934553Y-72432947I147500J0D01*
G01*
X72279553Y-72432947D01*
G75*
G02*
X72427053Y-72580447I0J-147500D01*
G01*
X72427053Y-72875447D01*
G75*
G02*
X72279553Y-73022947I-147500J0D01*
G01*
G37*
G36*
G01*
X72279553Y-72052947D02*
X71934553Y-72052947D01*
G75*
G02*
X71787053Y-71905447I0J147500D01*
G01*
X71787053Y-71610447D01*
G75*
G02*
X71934553Y-71462947I147500J0D01*
G01*
X72279553Y-71462947D01*
G75*
G02*
X72427053Y-71610447I0J-147500D01*
G01*
X72427053Y-71905447D01*
G75*
G02*
X72279553Y-72052947I-147500J0D01*
G01*
G37*
%TD*%
%TO.C,C13*%
G36*
G01*
X63282500Y-70850000D02*
X62937500Y-70850000D01*
G75*
G02*
X62790000Y-70702500I0J147500D01*
G01*
X62790000Y-70407500D01*
G75*
G02*
X62937500Y-70260000I147500J0D01*
G01*
X63282500Y-70260000D01*
G75*
G02*
X63430000Y-70407500I0J-147500D01*
G01*
X63430000Y-70702500D01*
G75*
G02*
X63282500Y-70850000I-147500J0D01*
G01*
G37*
G36*
G01*
X63282500Y-69880000D02*
X62937500Y-69880000D01*
G75*
G02*
X62790000Y-69732500I0J147500D01*
G01*
X62790000Y-69437500D01*
G75*
G02*
X62937500Y-69290000I147500J0D01*
G01*
X63282500Y-69290000D01*
G75*
G02*
X63430000Y-69437500I0J-147500D01*
G01*
X63430000Y-69732500D01*
G75*
G02*
X63282500Y-69880000I-147500J0D01*
G01*
G37*
%TD*%
%TO.C,C14*%
G36*
G01*
X71827500Y-85090000D02*
X72172500Y-85090000D01*
G75*
G02*
X72320000Y-85237500I0J-147500D01*
G01*
X72320000Y-85532500D01*
G75*
G02*
X72172500Y-85680000I-147500J0D01*
G01*
X71827500Y-85680000D01*
G75*
G02*
X71680000Y-85532500I0J147500D01*
G01*
X71680000Y-85237500D01*
G75*
G02*
X71827500Y-85090000I147500J0D01*
G01*
G37*
G36*
G01*
X71827500Y-84120000D02*
X72172500Y-84120000D01*
G75*
G02*
X72320000Y-84267500I0J-147500D01*
G01*
X72320000Y-84562500D01*
G75*
G02*
X72172500Y-84710000I-147500J0D01*
G01*
X71827500Y-84710000D01*
G75*
G02*
X71680000Y-84562500I0J147500D01*
G01*
X71680000Y-84267500D01*
G75*
G02*
X71827500Y-84120000I147500J0D01*
G01*
G37*
%TD*%
%TO.C,C15*%
G36*
G01*
X60172500Y-76480000D02*
X59827500Y-76480000D01*
G75*
G02*
X59680000Y-76332500I0J147500D01*
G01*
X59680000Y-76037500D01*
G75*
G02*
X59827500Y-75890000I147500J0D01*
G01*
X60172500Y-75890000D01*
G75*
G02*
X60320000Y-76037500I0J-147500D01*
G01*
X60320000Y-76332500D01*
G75*
G02*
X60172500Y-76480000I-147500J0D01*
G01*
G37*
G36*
G01*
X60172500Y-75510000D02*
X59827500Y-75510000D01*
G75*
G02*
X59680000Y-75362500I0J147500D01*
G01*
X59680000Y-75067500D01*
G75*
G02*
X59827500Y-74920000I147500J0D01*
G01*
X60172500Y-74920000D01*
G75*
G02*
X60320000Y-75067500I0J-147500D01*
G01*
X60320000Y-75362500D01*
G75*
G02*
X60172500Y-75510000I-147500J0D01*
G01*
G37*
%TD*%
%TO.C,C16*%
G36*
G01*
X74440000Y-73972500D02*
X74440000Y-73627500D01*
G75*
G02*
X74587500Y-73480000I147500J0D01*
G01*
X74882500Y-73480000D01*
G75*
G02*
X75030000Y-73627500I0J-147500D01*
G01*
X75030000Y-73972500D01*
G75*
G02*
X74882500Y-74120000I-147500J0D01*
G01*
X74587500Y-74120000D01*
G75*
G02*
X74440000Y-73972500I0J147500D01*
G01*
G37*
G36*
G01*
X73470000Y-73972500D02*
X73470000Y-73627500D01*
G75*
G02*
X73617500Y-73480000I147500J0D01*
G01*
X73912500Y-73480000D01*
G75*
G02*
X74060000Y-73627500I0J-147500D01*
G01*
X74060000Y-73972500D01*
G75*
G02*
X73912500Y-74120000I-147500J0D01*
G01*
X73617500Y-74120000D01*
G75*
G02*
X73470000Y-73972500I0J147500D01*
G01*
G37*
%TD*%
%TO.C,C18*%
G36*
G01*
X61156250Y-95650000D02*
X60643750Y-95650000D01*
G75*
G02*
X60425000Y-95431250I0J218750D01*
G01*
X60425000Y-94993750D01*
G75*
G02*
X60643750Y-94775000I218750J0D01*
G01*
X61156250Y-94775000D01*
G75*
G02*
X61375000Y-94993750I0J-218750D01*
G01*
X61375000Y-95431250D01*
G75*
G02*
X61156250Y-95650000I-218750J0D01*
G01*
G37*
G36*
G01*
X61156250Y-97225000D02*
X60643750Y-97225000D01*
G75*
G02*
X60425000Y-97006250I0J218750D01*
G01*
X60425000Y-96568750D01*
G75*
G02*
X60643750Y-96350000I218750J0D01*
G01*
X61156250Y-96350000D01*
G75*
G02*
X61375000Y-96568750I0J-218750D01*
G01*
X61375000Y-97006250D01*
G75*
G02*
X61156250Y-97225000I-218750J0D01*
G01*
G37*
%TD*%
%TO.C,C19*%
G36*
G01*
X87043750Y-65450000D02*
X87956250Y-65450000D01*
G75*
G02*
X88200000Y-65693750I0J-243750D01*
G01*
X88200000Y-66181250D01*
G75*
G02*
X87956250Y-66425000I-243750J0D01*
G01*
X87043750Y-66425000D01*
G75*
G02*
X86800000Y-66181250I0J243750D01*
G01*
X86800000Y-65693750D01*
G75*
G02*
X87043750Y-65450000I243750J0D01*
G01*
G37*
G36*
G01*
X87043750Y-63575000D02*
X87956250Y-63575000D01*
G75*
G02*
X88200000Y-63818750I0J-243750D01*
G01*
X88200000Y-64306250D01*
G75*
G02*
X87956250Y-64550000I-243750J0D01*
G01*
X87043750Y-64550000D01*
G75*
G02*
X86800000Y-64306250I0J243750D01*
G01*
X86800000Y-63818750D01*
G75*
G02*
X87043750Y-63575000I243750J0D01*
G01*
G37*
%TD*%
%TO.C,C20*%
G36*
G01*
X63025000Y-56425000D02*
X61775000Y-56425000D01*
G75*
G02*
X61525000Y-56175000I0J250000D01*
G01*
X61525000Y-55425000D01*
G75*
G02*
X61775000Y-55175000I250000J0D01*
G01*
X63025000Y-55175000D01*
G75*
G02*
X63275000Y-55425000I0J-250000D01*
G01*
X63275000Y-56175000D01*
G75*
G02*
X63025000Y-56425000I-250000J0D01*
G01*
G37*
G36*
G01*
X63025000Y-53625000D02*
X61775000Y-53625000D01*
G75*
G02*
X61525000Y-53375000I0J250000D01*
G01*
X61525000Y-52625000D01*
G75*
G02*
X61775000Y-52375000I250000J0D01*
G01*
X63025000Y-52375000D01*
G75*
G02*
X63275000Y-52625000I0J-250000D01*
G01*
X63275000Y-53375000D01*
G75*
G02*
X63025000Y-53625000I-250000J0D01*
G01*
G37*
%TD*%
%TO.C,C22*%
G36*
G01*
X76456250Y-62637500D02*
X75943750Y-62637500D01*
G75*
G02*
X75725000Y-62418750I0J218750D01*
G01*
X75725000Y-61981250D01*
G75*
G02*
X75943750Y-61762500I218750J0D01*
G01*
X76456250Y-61762500D01*
G75*
G02*
X76675000Y-61981250I0J-218750D01*
G01*
X76675000Y-62418750D01*
G75*
G02*
X76456250Y-62637500I-218750J0D01*
G01*
G37*
G36*
G01*
X76456250Y-61062500D02*
X75943750Y-61062500D01*
G75*
G02*
X75725000Y-60843750I0J218750D01*
G01*
X75725000Y-60406250D01*
G75*
G02*
X75943750Y-60187500I218750J0D01*
G01*
X76456250Y-60187500D01*
G75*
G02*
X76675000Y-60406250I0J-218750D01*
G01*
X76675000Y-60843750D01*
G75*
G02*
X76456250Y-61062500I-218750J0D01*
G01*
G37*
%TD*%
%TO.C,C23*%
G36*
G01*
X70971500Y-61960000D02*
X71316500Y-61960000D01*
G75*
G02*
X71464000Y-62107500I0J-147500D01*
G01*
X71464000Y-62402500D01*
G75*
G02*
X71316500Y-62550000I-147500J0D01*
G01*
X70971500Y-62550000D01*
G75*
G02*
X70824000Y-62402500I0J147500D01*
G01*
X70824000Y-62107500D01*
G75*
G02*
X70971500Y-61960000I147500J0D01*
G01*
G37*
G36*
G01*
X70971500Y-60990000D02*
X71316500Y-60990000D01*
G75*
G02*
X71464000Y-61137500I0J-147500D01*
G01*
X71464000Y-61432500D01*
G75*
G02*
X71316500Y-61580000I-147500J0D01*
G01*
X70971500Y-61580000D01*
G75*
G02*
X70824000Y-61432500I0J147500D01*
G01*
X70824000Y-61137500D01*
G75*
G02*
X70971500Y-60990000I147500J0D01*
G01*
G37*
%TD*%
%TO.C,D1*%
G36*
G01*
X90106250Y-68675000D02*
X89593750Y-68675000D01*
G75*
G02*
X89375000Y-68456250I0J218750D01*
G01*
X89375000Y-68018750D01*
G75*
G02*
X89593750Y-67800000I218750J0D01*
G01*
X90106250Y-67800000D01*
G75*
G02*
X90325000Y-68018750I0J-218750D01*
G01*
X90325000Y-68456250D01*
G75*
G02*
X90106250Y-68675000I-218750J0D01*
G01*
G37*
G36*
G01*
X90106250Y-67100000D02*
X89593750Y-67100000D01*
G75*
G02*
X89375000Y-66881250I0J218750D01*
G01*
X89375000Y-66443750D01*
G75*
G02*
X89593750Y-66225000I218750J0D01*
G01*
X90106250Y-66225000D01*
G75*
G02*
X90325000Y-66443750I0J-218750D01*
G01*
X90325000Y-66881250D01*
G75*
G02*
X90106250Y-67100000I-218750J0D01*
G01*
G37*
%TD*%
%TO.C,D2*%
G36*
G01*
X75506250Y-66300000D02*
X74993750Y-66300000D01*
G75*
G02*
X74775000Y-66081250I0J218750D01*
G01*
X74775000Y-65643750D01*
G75*
G02*
X74993750Y-65425000I218750J0D01*
G01*
X75506250Y-65425000D01*
G75*
G02*
X75725000Y-65643750I0J-218750D01*
G01*
X75725000Y-66081250D01*
G75*
G02*
X75506250Y-66300000I-218750J0D01*
G01*
G37*
G36*
G01*
X75506250Y-67875000D02*
X74993750Y-67875000D01*
G75*
G02*
X74775000Y-67656250I0J218750D01*
G01*
X74775000Y-67218750D01*
G75*
G02*
X74993750Y-67000000I218750J0D01*
G01*
X75506250Y-67000000D01*
G75*
G02*
X75725000Y-67218750I0J-218750D01*
G01*
X75725000Y-67656250D01*
G75*
G02*
X75506250Y-67875000I-218750J0D01*
G01*
G37*
%TD*%
D14*
%TO.C,D4*%
X61050000Y-65200000D03*
X64550000Y-65200000D03*
%TD*%
D15*
%TO.C,D5*%
X65080000Y-61008000D03*
X69080000Y-61008000D03*
%TD*%
D16*
%TO.C,D6*%
X85000000Y-58300000D03*
X85000000Y-54300000D03*
%TD*%
%TO.C,L1*%
G36*
G01*
X60820000Y-70772500D02*
X60820000Y-70427500D01*
G75*
G02*
X60967500Y-70280000I147500J0D01*
G01*
X61262500Y-70280000D01*
G75*
G02*
X61410000Y-70427500I0J-147500D01*
G01*
X61410000Y-70772500D01*
G75*
G02*
X61262500Y-70920000I-147500J0D01*
G01*
X60967500Y-70920000D01*
G75*
G02*
X60820000Y-70772500I0J147500D01*
G01*
G37*
G36*
G01*
X61790000Y-70772500D02*
X61790000Y-70427500D01*
G75*
G02*
X61937500Y-70280000I147500J0D01*
G01*
X62232500Y-70280000D01*
G75*
G02*
X62380000Y-70427500I0J-147500D01*
G01*
X62380000Y-70772500D01*
G75*
G02*
X62232500Y-70920000I-147500J0D01*
G01*
X61937500Y-70920000D01*
G75*
G02*
X61790000Y-70772500I0J147500D01*
G01*
G37*
%TD*%
D17*
%TO.C,L2*%
X74700000Y-53750000D03*
X74700000Y-58250000D03*
%TD*%
D18*
%TO.C,Q1*%
X89667000Y-73000500D03*
X91567000Y-73000500D03*
X90617000Y-71000500D03*
%TD*%
D19*
%TO.C,Q2*%
X88630000Y-85532000D03*
X88630000Y-83632000D03*
X86630000Y-84582000D03*
%TD*%
%TO.C,Q3*%
X57100000Y-66000000D03*
X59100000Y-65050000D03*
X59100000Y-66950000D03*
%TD*%
%TO.C,R1*%
G36*
G01*
X78877500Y-77840000D02*
X79222500Y-77840000D01*
G75*
G02*
X79370000Y-77987500I0J-147500D01*
G01*
X79370000Y-78282500D01*
G75*
G02*
X79222500Y-78430000I-147500J0D01*
G01*
X78877500Y-78430000D01*
G75*
G02*
X78730000Y-78282500I0J147500D01*
G01*
X78730000Y-77987500D01*
G75*
G02*
X78877500Y-77840000I147500J0D01*
G01*
G37*
G36*
G01*
X78877500Y-76870000D02*
X79222500Y-76870000D01*
G75*
G02*
X79370000Y-77017500I0J-147500D01*
G01*
X79370000Y-77312500D01*
G75*
G02*
X79222500Y-77460000I-147500J0D01*
G01*
X78877500Y-77460000D01*
G75*
G02*
X78730000Y-77312500I0J147500D01*
G01*
X78730000Y-77017500D01*
G75*
G02*
X78877500Y-76870000I147500J0D01*
G01*
G37*
%TD*%
%TO.C,R2*%
G36*
G01*
X79222500Y-75460000D02*
X78877500Y-75460000D01*
G75*
G02*
X78730000Y-75312500I0J147500D01*
G01*
X78730000Y-75017500D01*
G75*
G02*
X78877500Y-74870000I147500J0D01*
G01*
X79222500Y-74870000D01*
G75*
G02*
X79370000Y-75017500I0J-147500D01*
G01*
X79370000Y-75312500D01*
G75*
G02*
X79222500Y-75460000I-147500J0D01*
G01*
G37*
G36*
G01*
X79222500Y-76430000D02*
X78877500Y-76430000D01*
G75*
G02*
X78730000Y-76282500I0J147500D01*
G01*
X78730000Y-75987500D01*
G75*
G02*
X78877500Y-75840000I147500J0D01*
G01*
X79222500Y-75840000D01*
G75*
G02*
X79370000Y-75987500I0J-147500D01*
G01*
X79370000Y-76282500D01*
G75*
G02*
X79222500Y-76430000I-147500J0D01*
G01*
G37*
%TD*%
%TO.C,R5*%
G36*
G01*
X85872500Y-70966500D02*
X86217500Y-70966500D01*
G75*
G02*
X86365000Y-71114000I0J-147500D01*
G01*
X86365000Y-71409000D01*
G75*
G02*
X86217500Y-71556500I-147500J0D01*
G01*
X85872500Y-71556500D01*
G75*
G02*
X85725000Y-71409000I0J147500D01*
G01*
X85725000Y-71114000D01*
G75*
G02*
X85872500Y-70966500I147500J0D01*
G01*
G37*
G36*
G01*
X85872500Y-71936500D02*
X86217500Y-71936500D01*
G75*
G02*
X86365000Y-72084000I0J-147500D01*
G01*
X86365000Y-72379000D01*
G75*
G02*
X86217500Y-72526500I-147500J0D01*
G01*
X85872500Y-72526500D01*
G75*
G02*
X85725000Y-72379000I0J147500D01*
G01*
X85725000Y-72084000D01*
G75*
G02*
X85872500Y-71936500I147500J0D01*
G01*
G37*
%TD*%
%TO.C,R6*%
G36*
G01*
X88279250Y-73425500D02*
X87366750Y-73425500D01*
G75*
G02*
X87123000Y-73181750I0J243750D01*
G01*
X87123000Y-72694250D01*
G75*
G02*
X87366750Y-72450500I243750J0D01*
G01*
X88279250Y-72450500D01*
G75*
G02*
X88523000Y-72694250I0J-243750D01*
G01*
X88523000Y-73181750D01*
G75*
G02*
X88279250Y-73425500I-243750J0D01*
G01*
G37*
G36*
G01*
X88279250Y-71550500D02*
X87366750Y-71550500D01*
G75*
G02*
X87123000Y-71306750I0J243750D01*
G01*
X87123000Y-70819250D01*
G75*
G02*
X87366750Y-70575500I243750J0D01*
G01*
X88279250Y-70575500D01*
G75*
G02*
X88523000Y-70819250I0J-243750D01*
G01*
X88523000Y-71306750D01*
G75*
G02*
X88279250Y-71550500I-243750J0D01*
G01*
G37*
%TD*%
%TO.C,R9*%
G36*
G01*
X87810000Y-81827500D02*
X87810000Y-82172500D01*
G75*
G02*
X87662500Y-82320000I-147500J0D01*
G01*
X87367500Y-82320000D01*
G75*
G02*
X87220000Y-82172500I0J147500D01*
G01*
X87220000Y-81827500D01*
G75*
G02*
X87367500Y-81680000I147500J0D01*
G01*
X87662500Y-81680000D01*
G75*
G02*
X87810000Y-81827500I0J-147500D01*
G01*
G37*
G36*
G01*
X88780000Y-81827500D02*
X88780000Y-82172500D01*
G75*
G02*
X88632500Y-82320000I-147500J0D01*
G01*
X88337500Y-82320000D01*
G75*
G02*
X88190000Y-82172500I0J147500D01*
G01*
X88190000Y-81827500D01*
G75*
G02*
X88337500Y-81680000I147500J0D01*
G01*
X88632500Y-81680000D01*
G75*
G02*
X88780000Y-81827500I0J-147500D01*
G01*
G37*
%TD*%
%TO.C,R10*%
G36*
G01*
X90880250Y-83560500D02*
X89967750Y-83560500D01*
G75*
G02*
X89724000Y-83316750I0J243750D01*
G01*
X89724000Y-82829250D01*
G75*
G02*
X89967750Y-82585500I243750J0D01*
G01*
X90880250Y-82585500D01*
G75*
G02*
X91124000Y-82829250I0J-243750D01*
G01*
X91124000Y-83316750D01*
G75*
G02*
X90880250Y-83560500I-243750J0D01*
G01*
G37*
G36*
G01*
X90880250Y-85435500D02*
X89967750Y-85435500D01*
G75*
G02*
X89724000Y-85191750I0J243750D01*
G01*
X89724000Y-84704250D01*
G75*
G02*
X89967750Y-84460500I243750J0D01*
G01*
X90880250Y-84460500D01*
G75*
G02*
X91124000Y-84704250I0J-243750D01*
G01*
X91124000Y-85191750D01*
G75*
G02*
X90880250Y-85435500I-243750J0D01*
G01*
G37*
%TD*%
%TO.C,R11*%
G36*
G01*
X85108000Y-83802000D02*
X85453000Y-83802000D01*
G75*
G02*
X85600500Y-83949500I0J-147500D01*
G01*
X85600500Y-84244500D01*
G75*
G02*
X85453000Y-84392000I-147500J0D01*
G01*
X85108000Y-84392000D01*
G75*
G02*
X84960500Y-84244500I0J147500D01*
G01*
X84960500Y-83949500D01*
G75*
G02*
X85108000Y-83802000I147500J0D01*
G01*
G37*
G36*
G01*
X85108000Y-84772000D02*
X85453000Y-84772000D01*
G75*
G02*
X85600500Y-84919500I0J-147500D01*
G01*
X85600500Y-85214500D01*
G75*
G02*
X85453000Y-85362000I-147500J0D01*
G01*
X85108000Y-85362000D01*
G75*
G02*
X84960500Y-85214500I0J147500D01*
G01*
X84960500Y-84919500D01*
G75*
G02*
X85108000Y-84772000I147500J0D01*
G01*
G37*
%TD*%
%TO.C,R12*%
G36*
G01*
X87572500Y-54510000D02*
X87227500Y-54510000D01*
G75*
G02*
X87080000Y-54362500I0J147500D01*
G01*
X87080000Y-54067500D01*
G75*
G02*
X87227500Y-53920000I147500J0D01*
G01*
X87572500Y-53920000D01*
G75*
G02*
X87720000Y-54067500I0J-147500D01*
G01*
X87720000Y-54362500D01*
G75*
G02*
X87572500Y-54510000I-147500J0D01*
G01*
G37*
G36*
G01*
X87572500Y-55480000D02*
X87227500Y-55480000D01*
G75*
G02*
X87080000Y-55332500I0J147500D01*
G01*
X87080000Y-55037500D01*
G75*
G02*
X87227500Y-54890000I147500J0D01*
G01*
X87572500Y-54890000D01*
G75*
G02*
X87720000Y-55037500I0J-147500D01*
G01*
X87720000Y-55332500D01*
G75*
G02*
X87572500Y-55480000I-147500J0D01*
G01*
G37*
%TD*%
%TO.C,R14*%
G36*
G01*
X65520000Y-88472500D02*
X65520000Y-88127500D01*
G75*
G02*
X65667500Y-87980000I147500J0D01*
G01*
X65962500Y-87980000D01*
G75*
G02*
X66110000Y-88127500I0J-147500D01*
G01*
X66110000Y-88472500D01*
G75*
G02*
X65962500Y-88620000I-147500J0D01*
G01*
X65667500Y-88620000D01*
G75*
G02*
X65520000Y-88472500I0J147500D01*
G01*
G37*
G36*
G01*
X66490000Y-88472500D02*
X66490000Y-88127500D01*
G75*
G02*
X66637500Y-87980000I147500J0D01*
G01*
X66932500Y-87980000D01*
G75*
G02*
X67080000Y-88127500I0J-147500D01*
G01*
X67080000Y-88472500D01*
G75*
G02*
X66932500Y-88620000I-147500J0D01*
G01*
X66637500Y-88620000D01*
G75*
G02*
X66490000Y-88472500I0J147500D01*
G01*
G37*
%TD*%
%TO.C,R18*%
G36*
G01*
X62527500Y-86990000D02*
X62872500Y-86990000D01*
G75*
G02*
X63020000Y-87137500I0J-147500D01*
G01*
X63020000Y-87432500D01*
G75*
G02*
X62872500Y-87580000I-147500J0D01*
G01*
X62527500Y-87580000D01*
G75*
G02*
X62380000Y-87432500I0J147500D01*
G01*
X62380000Y-87137500D01*
G75*
G02*
X62527500Y-86990000I147500J0D01*
G01*
G37*
G36*
G01*
X62527500Y-86020000D02*
X62872500Y-86020000D01*
G75*
G02*
X63020000Y-86167500I0J-147500D01*
G01*
X63020000Y-86462500D01*
G75*
G02*
X62872500Y-86610000I-147500J0D01*
G01*
X62527500Y-86610000D01*
G75*
G02*
X62380000Y-86462500I0J147500D01*
G01*
X62380000Y-86167500D01*
G75*
G02*
X62527500Y-86020000I147500J0D01*
G01*
G37*
%TD*%
%TO.C,R20*%
G36*
G01*
X63627500Y-85620000D02*
X63972500Y-85620000D01*
G75*
G02*
X64120000Y-85767500I0J-147500D01*
G01*
X64120000Y-86062500D01*
G75*
G02*
X63972500Y-86210000I-147500J0D01*
G01*
X63627500Y-86210000D01*
G75*
G02*
X63480000Y-86062500I0J147500D01*
G01*
X63480000Y-85767500D01*
G75*
G02*
X63627500Y-85620000I147500J0D01*
G01*
G37*
G36*
G01*
X63627500Y-86590000D02*
X63972500Y-86590000D01*
G75*
G02*
X64120000Y-86737500I0J-147500D01*
G01*
X64120000Y-87032500D01*
G75*
G02*
X63972500Y-87180000I-147500J0D01*
G01*
X63627500Y-87180000D01*
G75*
G02*
X63480000Y-87032500I0J147500D01*
G01*
X63480000Y-86737500D01*
G75*
G02*
X63627500Y-86590000I147500J0D01*
G01*
G37*
%TD*%
%TO.C,R21*%
G36*
G01*
X65590000Y-86872500D02*
X65590000Y-86527500D01*
G75*
G02*
X65737500Y-86380000I147500J0D01*
G01*
X66032500Y-86380000D01*
G75*
G02*
X66180000Y-86527500I0J-147500D01*
G01*
X66180000Y-86872500D01*
G75*
G02*
X66032500Y-87020000I-147500J0D01*
G01*
X65737500Y-87020000D01*
G75*
G02*
X65590000Y-86872500I0J147500D01*
G01*
G37*
G36*
G01*
X64620000Y-86872500D02*
X64620000Y-86527500D01*
G75*
G02*
X64767500Y-86380000I147500J0D01*
G01*
X65062500Y-86380000D01*
G75*
G02*
X65210000Y-86527500I0J-147500D01*
G01*
X65210000Y-86872500D01*
G75*
G02*
X65062500Y-87020000I-147500J0D01*
G01*
X64767500Y-87020000D01*
G75*
G02*
X64620000Y-86872500I0J147500D01*
G01*
G37*
%TD*%
%TO.C,R22*%
G36*
G01*
X59043750Y-94775000D02*
X59556250Y-94775000D01*
G75*
G02*
X59775000Y-94993750I0J-218750D01*
G01*
X59775000Y-95431250D01*
G75*
G02*
X59556250Y-95650000I-218750J0D01*
G01*
X59043750Y-95650000D01*
G75*
G02*
X58825000Y-95431250I0J218750D01*
G01*
X58825000Y-94993750D01*
G75*
G02*
X59043750Y-94775000I218750J0D01*
G01*
G37*
G36*
G01*
X59043750Y-96350000D02*
X59556250Y-96350000D01*
G75*
G02*
X59775000Y-96568750I0J-218750D01*
G01*
X59775000Y-97006250D01*
G75*
G02*
X59556250Y-97225000I-218750J0D01*
G01*
X59043750Y-97225000D01*
G75*
G02*
X58825000Y-97006250I0J218750D01*
G01*
X58825000Y-96568750D01*
G75*
G02*
X59043750Y-96350000I218750J0D01*
G01*
G37*
%TD*%
%TO.C,R23*%
G36*
G01*
X57956250Y-94850000D02*
X57443750Y-94850000D01*
G75*
G02*
X57225000Y-94631250I0J218750D01*
G01*
X57225000Y-94193750D01*
G75*
G02*
X57443750Y-93975000I218750J0D01*
G01*
X57956250Y-93975000D01*
G75*
G02*
X58175000Y-94193750I0J-218750D01*
G01*
X58175000Y-94631250D01*
G75*
G02*
X57956250Y-94850000I-218750J0D01*
G01*
G37*
G36*
G01*
X57956250Y-96425000D02*
X57443750Y-96425000D01*
G75*
G02*
X57225000Y-96206250I0J218750D01*
G01*
X57225000Y-95768750D01*
G75*
G02*
X57443750Y-95550000I218750J0D01*
G01*
X57956250Y-95550000D01*
G75*
G02*
X58175000Y-95768750I0J-218750D01*
G01*
X58175000Y-96206250D01*
G75*
G02*
X57956250Y-96425000I-218750J0D01*
G01*
G37*
%TD*%
%TO.C,R24*%
G36*
G01*
X88622500Y-67760000D02*
X88277500Y-67760000D01*
G75*
G02*
X88130000Y-67612500I0J147500D01*
G01*
X88130000Y-67317500D01*
G75*
G02*
X88277500Y-67170000I147500J0D01*
G01*
X88622500Y-67170000D01*
G75*
G02*
X88770000Y-67317500I0J-147500D01*
G01*
X88770000Y-67612500D01*
G75*
G02*
X88622500Y-67760000I-147500J0D01*
G01*
G37*
G36*
G01*
X88622500Y-68730000D02*
X88277500Y-68730000D01*
G75*
G02*
X88130000Y-68582500I0J147500D01*
G01*
X88130000Y-68287500D01*
G75*
G02*
X88277500Y-68140000I147500J0D01*
G01*
X88622500Y-68140000D01*
G75*
G02*
X88770000Y-68287500I0J-147500D01*
G01*
X88770000Y-68582500D01*
G75*
G02*
X88622500Y-68730000I-147500J0D01*
G01*
G37*
%TD*%
%TO.C,R25*%
G36*
G01*
X74072500Y-65930000D02*
X73727500Y-65930000D01*
G75*
G02*
X73580000Y-65782500I0J147500D01*
G01*
X73580000Y-65487500D01*
G75*
G02*
X73727500Y-65340000I147500J0D01*
G01*
X74072500Y-65340000D01*
G75*
G02*
X74220000Y-65487500I0J-147500D01*
G01*
X74220000Y-65782500D01*
G75*
G02*
X74072500Y-65930000I-147500J0D01*
G01*
G37*
G36*
G01*
X74072500Y-64960000D02*
X73727500Y-64960000D01*
G75*
G02*
X73580000Y-64812500I0J147500D01*
G01*
X73580000Y-64517500D01*
G75*
G02*
X73727500Y-64370000I147500J0D01*
G01*
X74072500Y-64370000D01*
G75*
G02*
X74220000Y-64517500I0J-147500D01*
G01*
X74220000Y-64812500D01*
G75*
G02*
X74072500Y-64960000I-147500J0D01*
G01*
G37*
%TD*%
%TO.C,R26*%
G36*
G01*
X61375000Y-68006250D02*
X61375000Y-67093750D01*
G75*
G02*
X61618750Y-66850000I243750J0D01*
G01*
X62106250Y-66850000D01*
G75*
G02*
X62350000Y-67093750I0J-243750D01*
G01*
X62350000Y-68006250D01*
G75*
G02*
X62106250Y-68250000I-243750J0D01*
G01*
X61618750Y-68250000D01*
G75*
G02*
X61375000Y-68006250I0J243750D01*
G01*
G37*
G36*
G01*
X63250000Y-68006250D02*
X63250000Y-67093750D01*
G75*
G02*
X63493750Y-66850000I243750J0D01*
G01*
X63981250Y-66850000D01*
G75*
G02*
X64225000Y-67093750I0J-243750D01*
G01*
X64225000Y-68006250D01*
G75*
G02*
X63981250Y-68250000I-243750J0D01*
G01*
X63493750Y-68250000D01*
G75*
G02*
X63250000Y-68006250I0J243750D01*
G01*
G37*
%TD*%
%TO.C,R27*%
G36*
G01*
X70795000Y-52827500D02*
X70795000Y-53172500D01*
G75*
G02*
X70647500Y-53320000I-147500J0D01*
G01*
X70352500Y-53320000D01*
G75*
G02*
X70205000Y-53172500I0J147500D01*
G01*
X70205000Y-52827500D01*
G75*
G02*
X70352500Y-52680000I147500J0D01*
G01*
X70647500Y-52680000D01*
G75*
G02*
X70795000Y-52827500I0J-147500D01*
G01*
G37*
G36*
G01*
X69825000Y-52827500D02*
X69825000Y-53172500D01*
G75*
G02*
X69677500Y-53320000I-147500J0D01*
G01*
X69382500Y-53320000D01*
G75*
G02*
X69235000Y-53172500I0J147500D01*
G01*
X69235000Y-52827500D01*
G75*
G02*
X69382500Y-52680000I147500J0D01*
G01*
X69677500Y-52680000D01*
G75*
G02*
X69825000Y-52827500I0J-147500D01*
G01*
G37*
%TD*%
%TO.C,R28*%
G36*
G01*
X67810000Y-52827500D02*
X67810000Y-53172500D01*
G75*
G02*
X67662500Y-53320000I-147500J0D01*
G01*
X67367500Y-53320000D01*
G75*
G02*
X67220000Y-53172500I0J147500D01*
G01*
X67220000Y-52827500D01*
G75*
G02*
X67367500Y-52680000I147500J0D01*
G01*
X67662500Y-52680000D01*
G75*
G02*
X67810000Y-52827500I0J-147500D01*
G01*
G37*
G36*
G01*
X68780000Y-52827500D02*
X68780000Y-53172500D01*
G75*
G02*
X68632500Y-53320000I-147500J0D01*
G01*
X68337500Y-53320000D01*
G75*
G02*
X68190000Y-53172500I0J147500D01*
G01*
X68190000Y-52827500D01*
G75*
G02*
X68337500Y-52680000I147500J0D01*
G01*
X68632500Y-52680000D01*
G75*
G02*
X68780000Y-52827500I0J-147500D01*
G01*
G37*
%TD*%
%TO.C,R29*%
G36*
G01*
X66780000Y-52827500D02*
X66780000Y-53172500D01*
G75*
G02*
X66632500Y-53320000I-147500J0D01*
G01*
X66337500Y-53320000D01*
G75*
G02*
X66190000Y-53172500I0J147500D01*
G01*
X66190000Y-52827500D01*
G75*
G02*
X66337500Y-52680000I147500J0D01*
G01*
X66632500Y-52680000D01*
G75*
G02*
X66780000Y-52827500I0J-147500D01*
G01*
G37*
G36*
G01*
X65810000Y-52827500D02*
X65810000Y-53172500D01*
G75*
G02*
X65662500Y-53320000I-147500J0D01*
G01*
X65367500Y-53320000D01*
G75*
G02*
X65220000Y-53172500I0J147500D01*
G01*
X65220000Y-52827500D01*
G75*
G02*
X65367500Y-52680000I147500J0D01*
G01*
X65662500Y-52680000D01*
G75*
G02*
X65810000Y-52827500I0J-147500D01*
G01*
G37*
%TD*%
%TO.C,U1*%
G36*
G01*
X81119000Y-77897000D02*
X80969000Y-77897000D01*
G75*
G02*
X80894000Y-77822000I0J75000D01*
G01*
X80894000Y-77122000D01*
G75*
G02*
X80969000Y-77047000I75000J0D01*
G01*
X81119000Y-77047000D01*
G75*
G02*
X81194000Y-77122000I0J-75000D01*
G01*
X81194000Y-77822000D01*
G75*
G02*
X81119000Y-77897000I-75000J0D01*
G01*
G37*
G36*
G01*
X81619000Y-77897000D02*
X81469000Y-77897000D01*
G75*
G02*
X81394000Y-77822000I0J75000D01*
G01*
X81394000Y-77122000D01*
G75*
G02*
X81469000Y-77047000I75000J0D01*
G01*
X81619000Y-77047000D01*
G75*
G02*
X81694000Y-77122000I0J-75000D01*
G01*
X81694000Y-77822000D01*
G75*
G02*
X81619000Y-77897000I-75000J0D01*
G01*
G37*
G36*
G01*
X82119000Y-77897000D02*
X81969000Y-77897000D01*
G75*
G02*
X81894000Y-77822000I0J75000D01*
G01*
X81894000Y-77122000D01*
G75*
G02*
X81969000Y-77047000I75000J0D01*
G01*
X82119000Y-77047000D01*
G75*
G02*
X82194000Y-77122000I0J-75000D01*
G01*
X82194000Y-77822000D01*
G75*
G02*
X82119000Y-77897000I-75000J0D01*
G01*
G37*
G36*
G01*
X82619000Y-77897000D02*
X82469000Y-77897000D01*
G75*
G02*
X82394000Y-77822000I0J75000D01*
G01*
X82394000Y-77122000D01*
G75*
G02*
X82469000Y-77047000I75000J0D01*
G01*
X82619000Y-77047000D01*
G75*
G02*
X82694000Y-77122000I0J-75000D01*
G01*
X82694000Y-77822000D01*
G75*
G02*
X82619000Y-77897000I-75000J0D01*
G01*
G37*
G36*
G01*
X83119000Y-77897000D02*
X82969000Y-77897000D01*
G75*
G02*
X82894000Y-77822000I0J75000D01*
G01*
X82894000Y-77122000D01*
G75*
G02*
X82969000Y-77047000I75000J0D01*
G01*
X83119000Y-77047000D01*
G75*
G02*
X83194000Y-77122000I0J-75000D01*
G01*
X83194000Y-77822000D01*
G75*
G02*
X83119000Y-77897000I-75000J0D01*
G01*
G37*
G36*
G01*
X83619000Y-77897000D02*
X83469000Y-77897000D01*
G75*
G02*
X83394000Y-77822000I0J75000D01*
G01*
X83394000Y-77122000D01*
G75*
G02*
X83469000Y-77047000I75000J0D01*
G01*
X83619000Y-77047000D01*
G75*
G02*
X83694000Y-77122000I0J-75000D01*
G01*
X83694000Y-77822000D01*
G75*
G02*
X83619000Y-77897000I-75000J0D01*
G01*
G37*
G36*
G01*
X84669000Y-76697000D02*
X84669000Y-76847000D01*
G75*
G02*
X84594000Y-76922000I-75000J0D01*
G01*
X83894000Y-76922000D01*
G75*
G02*
X83819000Y-76847000I0J75000D01*
G01*
X83819000Y-76697000D01*
G75*
G02*
X83894000Y-76622000I75000J0D01*
G01*
X84594000Y-76622000D01*
G75*
G02*
X84669000Y-76697000I0J-75000D01*
G01*
G37*
G36*
G01*
X84669000Y-76197000D02*
X84669000Y-76347000D01*
G75*
G02*
X84594000Y-76422000I-75000J0D01*
G01*
X83894000Y-76422000D01*
G75*
G02*
X83819000Y-76347000I0J75000D01*
G01*
X83819000Y-76197000D01*
G75*
G02*
X83894000Y-76122000I75000J0D01*
G01*
X84594000Y-76122000D01*
G75*
G02*
X84669000Y-76197000I0J-75000D01*
G01*
G37*
G36*
G01*
X84669000Y-75697000D02*
X84669000Y-75847000D01*
G75*
G02*
X84594000Y-75922000I-75000J0D01*
G01*
X83894000Y-75922000D01*
G75*
G02*
X83819000Y-75847000I0J75000D01*
G01*
X83819000Y-75697000D01*
G75*
G02*
X83894000Y-75622000I75000J0D01*
G01*
X84594000Y-75622000D01*
G75*
G02*
X84669000Y-75697000I0J-75000D01*
G01*
G37*
G36*
G01*
X84669000Y-75197000D02*
X84669000Y-75347000D01*
G75*
G02*
X84594000Y-75422000I-75000J0D01*
G01*
X83894000Y-75422000D01*
G75*
G02*
X83819000Y-75347000I0J75000D01*
G01*
X83819000Y-75197000D01*
G75*
G02*
X83894000Y-75122000I75000J0D01*
G01*
X84594000Y-75122000D01*
G75*
G02*
X84669000Y-75197000I0J-75000D01*
G01*
G37*
G36*
G01*
X84669000Y-74697000D02*
X84669000Y-74847000D01*
G75*
G02*
X84594000Y-74922000I-75000J0D01*
G01*
X83894000Y-74922000D01*
G75*
G02*
X83819000Y-74847000I0J75000D01*
G01*
X83819000Y-74697000D01*
G75*
G02*
X83894000Y-74622000I75000J0D01*
G01*
X84594000Y-74622000D01*
G75*
G02*
X84669000Y-74697000I0J-75000D01*
G01*
G37*
G36*
G01*
X84669000Y-74197000D02*
X84669000Y-74347000D01*
G75*
G02*
X84594000Y-74422000I-75000J0D01*
G01*
X83894000Y-74422000D01*
G75*
G02*
X83819000Y-74347000I0J75000D01*
G01*
X83819000Y-74197000D01*
G75*
G02*
X83894000Y-74122000I75000J0D01*
G01*
X84594000Y-74122000D01*
G75*
G02*
X84669000Y-74197000I0J-75000D01*
G01*
G37*
G36*
G01*
X83619000Y-73997000D02*
X83469000Y-73997000D01*
G75*
G02*
X83394000Y-73922000I0J75000D01*
G01*
X83394000Y-73222000D01*
G75*
G02*
X83469000Y-73147000I75000J0D01*
G01*
X83619000Y-73147000D01*
G75*
G02*
X83694000Y-73222000I0J-75000D01*
G01*
X83694000Y-73922000D01*
G75*
G02*
X83619000Y-73997000I-75000J0D01*
G01*
G37*
G36*
G01*
X83119000Y-73997000D02*
X82969000Y-73997000D01*
G75*
G02*
X82894000Y-73922000I0J75000D01*
G01*
X82894000Y-73222000D01*
G75*
G02*
X82969000Y-73147000I75000J0D01*
G01*
X83119000Y-73147000D01*
G75*
G02*
X83194000Y-73222000I0J-75000D01*
G01*
X83194000Y-73922000D01*
G75*
G02*
X83119000Y-73997000I-75000J0D01*
G01*
G37*
G36*
G01*
X82619000Y-73997000D02*
X82469000Y-73997000D01*
G75*
G02*
X82394000Y-73922000I0J75000D01*
G01*
X82394000Y-73222000D01*
G75*
G02*
X82469000Y-73147000I75000J0D01*
G01*
X82619000Y-73147000D01*
G75*
G02*
X82694000Y-73222000I0J-75000D01*
G01*
X82694000Y-73922000D01*
G75*
G02*
X82619000Y-73997000I-75000J0D01*
G01*
G37*
G36*
G01*
X82119000Y-73997000D02*
X81969000Y-73997000D01*
G75*
G02*
X81894000Y-73922000I0J75000D01*
G01*
X81894000Y-73222000D01*
G75*
G02*
X81969000Y-73147000I75000J0D01*
G01*
X82119000Y-73147000D01*
G75*
G02*
X82194000Y-73222000I0J-75000D01*
G01*
X82194000Y-73922000D01*
G75*
G02*
X82119000Y-73997000I-75000J0D01*
G01*
G37*
G36*
G01*
X81619000Y-73997000D02*
X81469000Y-73997000D01*
G75*
G02*
X81394000Y-73922000I0J75000D01*
G01*
X81394000Y-73222000D01*
G75*
G02*
X81469000Y-73147000I75000J0D01*
G01*
X81619000Y-73147000D01*
G75*
G02*
X81694000Y-73222000I0J-75000D01*
G01*
X81694000Y-73922000D01*
G75*
G02*
X81619000Y-73997000I-75000J0D01*
G01*
G37*
G36*
G01*
X81119000Y-73997000D02*
X80969000Y-73997000D01*
G75*
G02*
X80894000Y-73922000I0J75000D01*
G01*
X80894000Y-73222000D01*
G75*
G02*
X80969000Y-73147000I75000J0D01*
G01*
X81119000Y-73147000D01*
G75*
G02*
X81194000Y-73222000I0J-75000D01*
G01*
X81194000Y-73922000D01*
G75*
G02*
X81119000Y-73997000I-75000J0D01*
G01*
G37*
G36*
G01*
X80769000Y-74197000D02*
X80769000Y-74347000D01*
G75*
G02*
X80694000Y-74422000I-75000J0D01*
G01*
X79994000Y-74422000D01*
G75*
G02*
X79919000Y-74347000I0J75000D01*
G01*
X79919000Y-74197000D01*
G75*
G02*
X79994000Y-74122000I75000J0D01*
G01*
X80694000Y-74122000D01*
G75*
G02*
X80769000Y-74197000I0J-75000D01*
G01*
G37*
G36*
G01*
X80769000Y-74697000D02*
X80769000Y-74847000D01*
G75*
G02*
X80694000Y-74922000I-75000J0D01*
G01*
X79994000Y-74922000D01*
G75*
G02*
X79919000Y-74847000I0J75000D01*
G01*
X79919000Y-74697000D01*
G75*
G02*
X79994000Y-74622000I75000J0D01*
G01*
X80694000Y-74622000D01*
G75*
G02*
X80769000Y-74697000I0J-75000D01*
G01*
G37*
G36*
G01*
X80769000Y-75197000D02*
X80769000Y-75347000D01*
G75*
G02*
X80694000Y-75422000I-75000J0D01*
G01*
X79994000Y-75422000D01*
G75*
G02*
X79919000Y-75347000I0J75000D01*
G01*
X79919000Y-75197000D01*
G75*
G02*
X79994000Y-75122000I75000J0D01*
G01*
X80694000Y-75122000D01*
G75*
G02*
X80769000Y-75197000I0J-75000D01*
G01*
G37*
G36*
G01*
X80769000Y-75697000D02*
X80769000Y-75847000D01*
G75*
G02*
X80694000Y-75922000I-75000J0D01*
G01*
X79994000Y-75922000D01*
G75*
G02*
X79919000Y-75847000I0J75000D01*
G01*
X79919000Y-75697000D01*
G75*
G02*
X79994000Y-75622000I75000J0D01*
G01*
X80694000Y-75622000D01*
G75*
G02*
X80769000Y-75697000I0J-75000D01*
G01*
G37*
G36*
G01*
X80769000Y-76197000D02*
X80769000Y-76347000D01*
G75*
G02*
X80694000Y-76422000I-75000J0D01*
G01*
X79994000Y-76422000D01*
G75*
G02*
X79919000Y-76347000I0J75000D01*
G01*
X79919000Y-76197000D01*
G75*
G02*
X79994000Y-76122000I75000J0D01*
G01*
X80694000Y-76122000D01*
G75*
G02*
X80769000Y-76197000I0J-75000D01*
G01*
G37*
G36*
G01*
X80769000Y-76697000D02*
X80769000Y-76847000D01*
G75*
G02*
X80694000Y-76922000I-75000J0D01*
G01*
X79994000Y-76922000D01*
G75*
G02*
X79919000Y-76847000I0J75000D01*
G01*
X79919000Y-76697000D01*
G75*
G02*
X79994000Y-76622000I75000J0D01*
G01*
X80694000Y-76622000D01*
G75*
G02*
X80769000Y-76697000I0J-75000D01*
G01*
G37*
%TD*%
D20*
%TO.C,U3*%
G36*
X74810642Y-90344526D02*
G01*
X74351023Y-90804145D01*
X73601490Y-90054612D01*
X74061109Y-89594993D01*
X74810642Y-90344526D01*
G37*
G36*
X75482393Y-89672774D02*
G01*
X75022774Y-90132393D01*
X74273241Y-89382860D01*
X74732860Y-88923241D01*
X75482393Y-89672774D01*
G37*
G36*
X76154145Y-89001023D02*
G01*
X75694526Y-89460642D01*
X74944993Y-88711109D01*
X75404612Y-88251490D01*
X76154145Y-89001023D01*
G37*
G36*
X74598510Y-87445388D02*
G01*
X74138891Y-87905007D01*
X73389358Y-87155474D01*
X73848977Y-86695855D01*
X74598510Y-87445388D01*
G37*
G36*
X73255007Y-88788891D02*
G01*
X72795388Y-89248510D01*
X72045855Y-88498977D01*
X72505474Y-88039358D01*
X73255007Y-88788891D01*
G37*
G36*
X73926759Y-88117140D02*
G01*
X73467140Y-88576759D01*
X72717607Y-87827226D01*
X73177226Y-87367607D01*
X73926759Y-88117140D01*
G37*
%TD*%
%TO.C,U4*%
G36*
G01*
X70975000Y-72150000D02*
X71125000Y-72150000D01*
G75*
G02*
X71200000Y-72225000I0J-75000D01*
G01*
X71200000Y-73625000D01*
G75*
G02*
X71125000Y-73700000I-75000J0D01*
G01*
X70975000Y-73700000D01*
G75*
G02*
X70900000Y-73625000I0J75000D01*
G01*
X70900000Y-72225000D01*
G75*
G02*
X70975000Y-72150000I75000J0D01*
G01*
G37*
G36*
G01*
X70475000Y-72150000D02*
X70625000Y-72150000D01*
G75*
G02*
X70700000Y-72225000I0J-75000D01*
G01*
X70700000Y-73625000D01*
G75*
G02*
X70625000Y-73700000I-75000J0D01*
G01*
X70475000Y-73700000D01*
G75*
G02*
X70400000Y-73625000I0J75000D01*
G01*
X70400000Y-72225000D01*
G75*
G02*
X70475000Y-72150000I75000J0D01*
G01*
G37*
G36*
G01*
X69975000Y-72150000D02*
X70125000Y-72150000D01*
G75*
G02*
X70200000Y-72225000I0J-75000D01*
G01*
X70200000Y-73625000D01*
G75*
G02*
X70125000Y-73700000I-75000J0D01*
G01*
X69975000Y-73700000D01*
G75*
G02*
X69900000Y-73625000I0J75000D01*
G01*
X69900000Y-72225000D01*
G75*
G02*
X69975000Y-72150000I75000J0D01*
G01*
G37*
G36*
G01*
X69475000Y-72150000D02*
X69625000Y-72150000D01*
G75*
G02*
X69700000Y-72225000I0J-75000D01*
G01*
X69700000Y-73625000D01*
G75*
G02*
X69625000Y-73700000I-75000J0D01*
G01*
X69475000Y-73700000D01*
G75*
G02*
X69400000Y-73625000I0J75000D01*
G01*
X69400000Y-72225000D01*
G75*
G02*
X69475000Y-72150000I75000J0D01*
G01*
G37*
G36*
G01*
X68975000Y-72150000D02*
X69125000Y-72150000D01*
G75*
G02*
X69200000Y-72225000I0J-75000D01*
G01*
X69200000Y-73625000D01*
G75*
G02*
X69125000Y-73700000I-75000J0D01*
G01*
X68975000Y-73700000D01*
G75*
G02*
X68900000Y-73625000I0J75000D01*
G01*
X68900000Y-72225000D01*
G75*
G02*
X68975000Y-72150000I75000J0D01*
G01*
G37*
G36*
G01*
X68475000Y-72150000D02*
X68625000Y-72150000D01*
G75*
G02*
X68700000Y-72225000I0J-75000D01*
G01*
X68700000Y-73625000D01*
G75*
G02*
X68625000Y-73700000I-75000J0D01*
G01*
X68475000Y-73700000D01*
G75*
G02*
X68400000Y-73625000I0J75000D01*
G01*
X68400000Y-72225000D01*
G75*
G02*
X68475000Y-72150000I75000J0D01*
G01*
G37*
G36*
G01*
X67975000Y-72150000D02*
X68125000Y-72150000D01*
G75*
G02*
X68200000Y-72225000I0J-75000D01*
G01*
X68200000Y-73625000D01*
G75*
G02*
X68125000Y-73700000I-75000J0D01*
G01*
X67975000Y-73700000D01*
G75*
G02*
X67900000Y-73625000I0J75000D01*
G01*
X67900000Y-72225000D01*
G75*
G02*
X67975000Y-72150000I75000J0D01*
G01*
G37*
G36*
G01*
X67475000Y-72150000D02*
X67625000Y-72150000D01*
G75*
G02*
X67700000Y-72225000I0J-75000D01*
G01*
X67700000Y-73625000D01*
G75*
G02*
X67625000Y-73700000I-75000J0D01*
G01*
X67475000Y-73700000D01*
G75*
G02*
X67400000Y-73625000I0J75000D01*
G01*
X67400000Y-72225000D01*
G75*
G02*
X67475000Y-72150000I75000J0D01*
G01*
G37*
G36*
G01*
X66975000Y-72150000D02*
X67125000Y-72150000D01*
G75*
G02*
X67200000Y-72225000I0J-75000D01*
G01*
X67200000Y-73625000D01*
G75*
G02*
X67125000Y-73700000I-75000J0D01*
G01*
X66975000Y-73700000D01*
G75*
G02*
X66900000Y-73625000I0J75000D01*
G01*
X66900000Y-72225000D01*
G75*
G02*
X66975000Y-72150000I75000J0D01*
G01*
G37*
G36*
G01*
X66475000Y-72150000D02*
X66625000Y-72150000D01*
G75*
G02*
X66700000Y-72225000I0J-75000D01*
G01*
X66700000Y-73625000D01*
G75*
G02*
X66625000Y-73700000I-75000J0D01*
G01*
X66475000Y-73700000D01*
G75*
G02*
X66400000Y-73625000I0J75000D01*
G01*
X66400000Y-72225000D01*
G75*
G02*
X66475000Y-72150000I75000J0D01*
G01*
G37*
G36*
G01*
X65975000Y-72150000D02*
X66125000Y-72150000D01*
G75*
G02*
X66200000Y-72225000I0J-75000D01*
G01*
X66200000Y-73625000D01*
G75*
G02*
X66125000Y-73700000I-75000J0D01*
G01*
X65975000Y-73700000D01*
G75*
G02*
X65900000Y-73625000I0J75000D01*
G01*
X65900000Y-72225000D01*
G75*
G02*
X65975000Y-72150000I75000J0D01*
G01*
G37*
G36*
G01*
X65475000Y-72150000D02*
X65625000Y-72150000D01*
G75*
G02*
X65700000Y-72225000I0J-75000D01*
G01*
X65700000Y-73625000D01*
G75*
G02*
X65625000Y-73700000I-75000J0D01*
G01*
X65475000Y-73700000D01*
G75*
G02*
X65400000Y-73625000I0J75000D01*
G01*
X65400000Y-72225000D01*
G75*
G02*
X65475000Y-72150000I75000J0D01*
G01*
G37*
G36*
G01*
X64975000Y-72150000D02*
X65125000Y-72150000D01*
G75*
G02*
X65200000Y-72225000I0J-75000D01*
G01*
X65200000Y-73625000D01*
G75*
G02*
X65125000Y-73700000I-75000J0D01*
G01*
X64975000Y-73700000D01*
G75*
G02*
X64900000Y-73625000I0J75000D01*
G01*
X64900000Y-72225000D01*
G75*
G02*
X64975000Y-72150000I75000J0D01*
G01*
G37*
G36*
G01*
X64475000Y-72150000D02*
X64625000Y-72150000D01*
G75*
G02*
X64700000Y-72225000I0J-75000D01*
G01*
X64700000Y-73625000D01*
G75*
G02*
X64625000Y-73700000I-75000J0D01*
G01*
X64475000Y-73700000D01*
G75*
G02*
X64400000Y-73625000I0J75000D01*
G01*
X64400000Y-72225000D01*
G75*
G02*
X64475000Y-72150000I75000J0D01*
G01*
G37*
G36*
G01*
X63975000Y-72150000D02*
X64125000Y-72150000D01*
G75*
G02*
X64200000Y-72225000I0J-75000D01*
G01*
X64200000Y-73625000D01*
G75*
G02*
X64125000Y-73700000I-75000J0D01*
G01*
X63975000Y-73700000D01*
G75*
G02*
X63900000Y-73625000I0J75000D01*
G01*
X63900000Y-72225000D01*
G75*
G02*
X63975000Y-72150000I75000J0D01*
G01*
G37*
G36*
G01*
X63475000Y-72150000D02*
X63625000Y-72150000D01*
G75*
G02*
X63700000Y-72225000I0J-75000D01*
G01*
X63700000Y-73625000D01*
G75*
G02*
X63625000Y-73700000I-75000J0D01*
G01*
X63475000Y-73700000D01*
G75*
G02*
X63400000Y-73625000I0J75000D01*
G01*
X63400000Y-72225000D01*
G75*
G02*
X63475000Y-72150000I75000J0D01*
G01*
G37*
G36*
G01*
X60925000Y-74700000D02*
X62325000Y-74700000D01*
G75*
G02*
X62400000Y-74775000I0J-75000D01*
G01*
X62400000Y-74925000D01*
G75*
G02*
X62325000Y-75000000I-75000J0D01*
G01*
X60925000Y-75000000D01*
G75*
G02*
X60850000Y-74925000I0J75000D01*
G01*
X60850000Y-74775000D01*
G75*
G02*
X60925000Y-74700000I75000J0D01*
G01*
G37*
G36*
G01*
X60925000Y-75200000D02*
X62325000Y-75200000D01*
G75*
G02*
X62400000Y-75275000I0J-75000D01*
G01*
X62400000Y-75425000D01*
G75*
G02*
X62325000Y-75500000I-75000J0D01*
G01*
X60925000Y-75500000D01*
G75*
G02*
X60850000Y-75425000I0J75000D01*
G01*
X60850000Y-75275000D01*
G75*
G02*
X60925000Y-75200000I75000J0D01*
G01*
G37*
G36*
G01*
X60925000Y-75700000D02*
X62325000Y-75700000D01*
G75*
G02*
X62400000Y-75775000I0J-75000D01*
G01*
X62400000Y-75925000D01*
G75*
G02*
X62325000Y-76000000I-75000J0D01*
G01*
X60925000Y-76000000D01*
G75*
G02*
X60850000Y-75925000I0J75000D01*
G01*
X60850000Y-75775000D01*
G75*
G02*
X60925000Y-75700000I75000J0D01*
G01*
G37*
G36*
G01*
X60925000Y-76200000D02*
X62325000Y-76200000D01*
G75*
G02*
X62400000Y-76275000I0J-75000D01*
G01*
X62400000Y-76425000D01*
G75*
G02*
X62325000Y-76500000I-75000J0D01*
G01*
X60925000Y-76500000D01*
G75*
G02*
X60850000Y-76425000I0J75000D01*
G01*
X60850000Y-76275000D01*
G75*
G02*
X60925000Y-76200000I75000J0D01*
G01*
G37*
G36*
G01*
X60925000Y-76700000D02*
X62325000Y-76700000D01*
G75*
G02*
X62400000Y-76775000I0J-75000D01*
G01*
X62400000Y-76925000D01*
G75*
G02*
X62325000Y-77000000I-75000J0D01*
G01*
X60925000Y-77000000D01*
G75*
G02*
X60850000Y-76925000I0J75000D01*
G01*
X60850000Y-76775000D01*
G75*
G02*
X60925000Y-76700000I75000J0D01*
G01*
G37*
G36*
G01*
X60925000Y-77200000D02*
X62325000Y-77200000D01*
G75*
G02*
X62400000Y-77275000I0J-75000D01*
G01*
X62400000Y-77425000D01*
G75*
G02*
X62325000Y-77500000I-75000J0D01*
G01*
X60925000Y-77500000D01*
G75*
G02*
X60850000Y-77425000I0J75000D01*
G01*
X60850000Y-77275000D01*
G75*
G02*
X60925000Y-77200000I75000J0D01*
G01*
G37*
G36*
G01*
X60925000Y-77700000D02*
X62325000Y-77700000D01*
G75*
G02*
X62400000Y-77775000I0J-75000D01*
G01*
X62400000Y-77925000D01*
G75*
G02*
X62325000Y-78000000I-75000J0D01*
G01*
X60925000Y-78000000D01*
G75*
G02*
X60850000Y-77925000I0J75000D01*
G01*
X60850000Y-77775000D01*
G75*
G02*
X60925000Y-77700000I75000J0D01*
G01*
G37*
G36*
G01*
X60925000Y-78200000D02*
X62325000Y-78200000D01*
G75*
G02*
X62400000Y-78275000I0J-75000D01*
G01*
X62400000Y-78425000D01*
G75*
G02*
X62325000Y-78500000I-75000J0D01*
G01*
X60925000Y-78500000D01*
G75*
G02*
X60850000Y-78425000I0J75000D01*
G01*
X60850000Y-78275000D01*
G75*
G02*
X60925000Y-78200000I75000J0D01*
G01*
G37*
G36*
G01*
X60925000Y-78700000D02*
X62325000Y-78700000D01*
G75*
G02*
X62400000Y-78775000I0J-75000D01*
G01*
X62400000Y-78925000D01*
G75*
G02*
X62325000Y-79000000I-75000J0D01*
G01*
X60925000Y-79000000D01*
G75*
G02*
X60850000Y-78925000I0J75000D01*
G01*
X60850000Y-78775000D01*
G75*
G02*
X60925000Y-78700000I75000J0D01*
G01*
G37*
G36*
G01*
X60925000Y-79200000D02*
X62325000Y-79200000D01*
G75*
G02*
X62400000Y-79275000I0J-75000D01*
G01*
X62400000Y-79425000D01*
G75*
G02*
X62325000Y-79500000I-75000J0D01*
G01*
X60925000Y-79500000D01*
G75*
G02*
X60850000Y-79425000I0J75000D01*
G01*
X60850000Y-79275000D01*
G75*
G02*
X60925000Y-79200000I75000J0D01*
G01*
G37*
G36*
G01*
X60925000Y-79700000D02*
X62325000Y-79700000D01*
G75*
G02*
X62400000Y-79775000I0J-75000D01*
G01*
X62400000Y-79925000D01*
G75*
G02*
X62325000Y-80000000I-75000J0D01*
G01*
X60925000Y-80000000D01*
G75*
G02*
X60850000Y-79925000I0J75000D01*
G01*
X60850000Y-79775000D01*
G75*
G02*
X60925000Y-79700000I75000J0D01*
G01*
G37*
G36*
G01*
X60925000Y-80200000D02*
X62325000Y-80200000D01*
G75*
G02*
X62400000Y-80275000I0J-75000D01*
G01*
X62400000Y-80425000D01*
G75*
G02*
X62325000Y-80500000I-75000J0D01*
G01*
X60925000Y-80500000D01*
G75*
G02*
X60850000Y-80425000I0J75000D01*
G01*
X60850000Y-80275000D01*
G75*
G02*
X60925000Y-80200000I75000J0D01*
G01*
G37*
G36*
G01*
X60925000Y-80700000D02*
X62325000Y-80700000D01*
G75*
G02*
X62400000Y-80775000I0J-75000D01*
G01*
X62400000Y-80925000D01*
G75*
G02*
X62325000Y-81000000I-75000J0D01*
G01*
X60925000Y-81000000D01*
G75*
G02*
X60850000Y-80925000I0J75000D01*
G01*
X60850000Y-80775000D01*
G75*
G02*
X60925000Y-80700000I75000J0D01*
G01*
G37*
G36*
G01*
X60925000Y-81200000D02*
X62325000Y-81200000D01*
G75*
G02*
X62400000Y-81275000I0J-75000D01*
G01*
X62400000Y-81425000D01*
G75*
G02*
X62325000Y-81500000I-75000J0D01*
G01*
X60925000Y-81500000D01*
G75*
G02*
X60850000Y-81425000I0J75000D01*
G01*
X60850000Y-81275000D01*
G75*
G02*
X60925000Y-81200000I75000J0D01*
G01*
G37*
G36*
G01*
X60925000Y-81700000D02*
X62325000Y-81700000D01*
G75*
G02*
X62400000Y-81775000I0J-75000D01*
G01*
X62400000Y-81925000D01*
G75*
G02*
X62325000Y-82000000I-75000J0D01*
G01*
X60925000Y-82000000D01*
G75*
G02*
X60850000Y-81925000I0J75000D01*
G01*
X60850000Y-81775000D01*
G75*
G02*
X60925000Y-81700000I75000J0D01*
G01*
G37*
G36*
G01*
X60925000Y-82200000D02*
X62325000Y-82200000D01*
G75*
G02*
X62400000Y-82275000I0J-75000D01*
G01*
X62400000Y-82425000D01*
G75*
G02*
X62325000Y-82500000I-75000J0D01*
G01*
X60925000Y-82500000D01*
G75*
G02*
X60850000Y-82425000I0J75000D01*
G01*
X60850000Y-82275000D01*
G75*
G02*
X60925000Y-82200000I75000J0D01*
G01*
G37*
G36*
G01*
X63475000Y-83500000D02*
X63625000Y-83500000D01*
G75*
G02*
X63700000Y-83575000I0J-75000D01*
G01*
X63700000Y-84975000D01*
G75*
G02*
X63625000Y-85050000I-75000J0D01*
G01*
X63475000Y-85050000D01*
G75*
G02*
X63400000Y-84975000I0J75000D01*
G01*
X63400000Y-83575000D01*
G75*
G02*
X63475000Y-83500000I75000J0D01*
G01*
G37*
G36*
G01*
X63975000Y-83500000D02*
X64125000Y-83500000D01*
G75*
G02*
X64200000Y-83575000I0J-75000D01*
G01*
X64200000Y-84975000D01*
G75*
G02*
X64125000Y-85050000I-75000J0D01*
G01*
X63975000Y-85050000D01*
G75*
G02*
X63900000Y-84975000I0J75000D01*
G01*
X63900000Y-83575000D01*
G75*
G02*
X63975000Y-83500000I75000J0D01*
G01*
G37*
G36*
G01*
X64475000Y-83500000D02*
X64625000Y-83500000D01*
G75*
G02*
X64700000Y-83575000I0J-75000D01*
G01*
X64700000Y-84975000D01*
G75*
G02*
X64625000Y-85050000I-75000J0D01*
G01*
X64475000Y-85050000D01*
G75*
G02*
X64400000Y-84975000I0J75000D01*
G01*
X64400000Y-83575000D01*
G75*
G02*
X64475000Y-83500000I75000J0D01*
G01*
G37*
G36*
G01*
X64975000Y-83500000D02*
X65125000Y-83500000D01*
G75*
G02*
X65200000Y-83575000I0J-75000D01*
G01*
X65200000Y-84975000D01*
G75*
G02*
X65125000Y-85050000I-75000J0D01*
G01*
X64975000Y-85050000D01*
G75*
G02*
X64900000Y-84975000I0J75000D01*
G01*
X64900000Y-83575000D01*
G75*
G02*
X64975000Y-83500000I75000J0D01*
G01*
G37*
G36*
G01*
X65475000Y-83500000D02*
X65625000Y-83500000D01*
G75*
G02*
X65700000Y-83575000I0J-75000D01*
G01*
X65700000Y-84975000D01*
G75*
G02*
X65625000Y-85050000I-75000J0D01*
G01*
X65475000Y-85050000D01*
G75*
G02*
X65400000Y-84975000I0J75000D01*
G01*
X65400000Y-83575000D01*
G75*
G02*
X65475000Y-83500000I75000J0D01*
G01*
G37*
G36*
G01*
X65975000Y-83500000D02*
X66125000Y-83500000D01*
G75*
G02*
X66200000Y-83575000I0J-75000D01*
G01*
X66200000Y-84975000D01*
G75*
G02*
X66125000Y-85050000I-75000J0D01*
G01*
X65975000Y-85050000D01*
G75*
G02*
X65900000Y-84975000I0J75000D01*
G01*
X65900000Y-83575000D01*
G75*
G02*
X65975000Y-83500000I75000J0D01*
G01*
G37*
G36*
G01*
X66475000Y-83500000D02*
X66625000Y-83500000D01*
G75*
G02*
X66700000Y-83575000I0J-75000D01*
G01*
X66700000Y-84975000D01*
G75*
G02*
X66625000Y-85050000I-75000J0D01*
G01*
X66475000Y-85050000D01*
G75*
G02*
X66400000Y-84975000I0J75000D01*
G01*
X66400000Y-83575000D01*
G75*
G02*
X66475000Y-83500000I75000J0D01*
G01*
G37*
G36*
G01*
X66975000Y-83500000D02*
X67125000Y-83500000D01*
G75*
G02*
X67200000Y-83575000I0J-75000D01*
G01*
X67200000Y-84975000D01*
G75*
G02*
X67125000Y-85050000I-75000J0D01*
G01*
X66975000Y-85050000D01*
G75*
G02*
X66900000Y-84975000I0J75000D01*
G01*
X66900000Y-83575000D01*
G75*
G02*
X66975000Y-83500000I75000J0D01*
G01*
G37*
G36*
G01*
X67475000Y-83500000D02*
X67625000Y-83500000D01*
G75*
G02*
X67700000Y-83575000I0J-75000D01*
G01*
X67700000Y-84975000D01*
G75*
G02*
X67625000Y-85050000I-75000J0D01*
G01*
X67475000Y-85050000D01*
G75*
G02*
X67400000Y-84975000I0J75000D01*
G01*
X67400000Y-83575000D01*
G75*
G02*
X67475000Y-83500000I75000J0D01*
G01*
G37*
G36*
G01*
X67975000Y-83500000D02*
X68125000Y-83500000D01*
G75*
G02*
X68200000Y-83575000I0J-75000D01*
G01*
X68200000Y-84975000D01*
G75*
G02*
X68125000Y-85050000I-75000J0D01*
G01*
X67975000Y-85050000D01*
G75*
G02*
X67900000Y-84975000I0J75000D01*
G01*
X67900000Y-83575000D01*
G75*
G02*
X67975000Y-83500000I75000J0D01*
G01*
G37*
G36*
G01*
X68475000Y-83500000D02*
X68625000Y-83500000D01*
G75*
G02*
X68700000Y-83575000I0J-75000D01*
G01*
X68700000Y-84975000D01*
G75*
G02*
X68625000Y-85050000I-75000J0D01*
G01*
X68475000Y-85050000D01*
G75*
G02*
X68400000Y-84975000I0J75000D01*
G01*
X68400000Y-83575000D01*
G75*
G02*
X68475000Y-83500000I75000J0D01*
G01*
G37*
G36*
G01*
X68975000Y-83500000D02*
X69125000Y-83500000D01*
G75*
G02*
X69200000Y-83575000I0J-75000D01*
G01*
X69200000Y-84975000D01*
G75*
G02*
X69125000Y-85050000I-75000J0D01*
G01*
X68975000Y-85050000D01*
G75*
G02*
X68900000Y-84975000I0J75000D01*
G01*
X68900000Y-83575000D01*
G75*
G02*
X68975000Y-83500000I75000J0D01*
G01*
G37*
G36*
G01*
X69475000Y-83500000D02*
X69625000Y-83500000D01*
G75*
G02*
X69700000Y-83575000I0J-75000D01*
G01*
X69700000Y-84975000D01*
G75*
G02*
X69625000Y-85050000I-75000J0D01*
G01*
X69475000Y-85050000D01*
G75*
G02*
X69400000Y-84975000I0J75000D01*
G01*
X69400000Y-83575000D01*
G75*
G02*
X69475000Y-83500000I75000J0D01*
G01*
G37*
G36*
G01*
X69975000Y-83500000D02*
X70125000Y-83500000D01*
G75*
G02*
X70200000Y-83575000I0J-75000D01*
G01*
X70200000Y-84975000D01*
G75*
G02*
X70125000Y-85050000I-75000J0D01*
G01*
X69975000Y-85050000D01*
G75*
G02*
X69900000Y-84975000I0J75000D01*
G01*
X69900000Y-83575000D01*
G75*
G02*
X69975000Y-83500000I75000J0D01*
G01*
G37*
G36*
G01*
X70475000Y-83500000D02*
X70625000Y-83500000D01*
G75*
G02*
X70700000Y-83575000I0J-75000D01*
G01*
X70700000Y-84975000D01*
G75*
G02*
X70625000Y-85050000I-75000J0D01*
G01*
X70475000Y-85050000D01*
G75*
G02*
X70400000Y-84975000I0J75000D01*
G01*
X70400000Y-83575000D01*
G75*
G02*
X70475000Y-83500000I75000J0D01*
G01*
G37*
G36*
G01*
X70975000Y-83500000D02*
X71125000Y-83500000D01*
G75*
G02*
X71200000Y-83575000I0J-75000D01*
G01*
X71200000Y-84975000D01*
G75*
G02*
X71125000Y-85050000I-75000J0D01*
G01*
X70975000Y-85050000D01*
G75*
G02*
X70900000Y-84975000I0J75000D01*
G01*
X70900000Y-83575000D01*
G75*
G02*
X70975000Y-83500000I75000J0D01*
G01*
G37*
G36*
G01*
X72275000Y-82200000D02*
X73675000Y-82200000D01*
G75*
G02*
X73750000Y-82275000I0J-75000D01*
G01*
X73750000Y-82425000D01*
G75*
G02*
X73675000Y-82500000I-75000J0D01*
G01*
X72275000Y-82500000D01*
G75*
G02*
X72200000Y-82425000I0J75000D01*
G01*
X72200000Y-82275000D01*
G75*
G02*
X72275000Y-82200000I75000J0D01*
G01*
G37*
G36*
G01*
X72275000Y-81700000D02*
X73675000Y-81700000D01*
G75*
G02*
X73750000Y-81775000I0J-75000D01*
G01*
X73750000Y-81925000D01*
G75*
G02*
X73675000Y-82000000I-75000J0D01*
G01*
X72275000Y-82000000D01*
G75*
G02*
X72200000Y-81925000I0J75000D01*
G01*
X72200000Y-81775000D01*
G75*
G02*
X72275000Y-81700000I75000J0D01*
G01*
G37*
G36*
G01*
X72275000Y-81200000D02*
X73675000Y-81200000D01*
G75*
G02*
X73750000Y-81275000I0J-75000D01*
G01*
X73750000Y-81425000D01*
G75*
G02*
X73675000Y-81500000I-75000J0D01*
G01*
X72275000Y-81500000D01*
G75*
G02*
X72200000Y-81425000I0J75000D01*
G01*
X72200000Y-81275000D01*
G75*
G02*
X72275000Y-81200000I75000J0D01*
G01*
G37*
G36*
G01*
X72275000Y-80700000D02*
X73675000Y-80700000D01*
G75*
G02*
X73750000Y-80775000I0J-75000D01*
G01*
X73750000Y-80925000D01*
G75*
G02*
X73675000Y-81000000I-75000J0D01*
G01*
X72275000Y-81000000D01*
G75*
G02*
X72200000Y-80925000I0J75000D01*
G01*
X72200000Y-80775000D01*
G75*
G02*
X72275000Y-80700000I75000J0D01*
G01*
G37*
G36*
G01*
X72275000Y-80200000D02*
X73675000Y-80200000D01*
G75*
G02*
X73750000Y-80275000I0J-75000D01*
G01*
X73750000Y-80425000D01*
G75*
G02*
X73675000Y-80500000I-75000J0D01*
G01*
X72275000Y-80500000D01*
G75*
G02*
X72200000Y-80425000I0J75000D01*
G01*
X72200000Y-80275000D01*
G75*
G02*
X72275000Y-80200000I75000J0D01*
G01*
G37*
G36*
G01*
X72275000Y-79700000D02*
X73675000Y-79700000D01*
G75*
G02*
X73750000Y-79775000I0J-75000D01*
G01*
X73750000Y-79925000D01*
G75*
G02*
X73675000Y-80000000I-75000J0D01*
G01*
X72275000Y-80000000D01*
G75*
G02*
X72200000Y-79925000I0J75000D01*
G01*
X72200000Y-79775000D01*
G75*
G02*
X72275000Y-79700000I75000J0D01*
G01*
G37*
G36*
G01*
X72275000Y-79200000D02*
X73675000Y-79200000D01*
G75*
G02*
X73750000Y-79275000I0J-75000D01*
G01*
X73750000Y-79425000D01*
G75*
G02*
X73675000Y-79500000I-75000J0D01*
G01*
X72275000Y-79500000D01*
G75*
G02*
X72200000Y-79425000I0J75000D01*
G01*
X72200000Y-79275000D01*
G75*
G02*
X72275000Y-79200000I75000J0D01*
G01*
G37*
G36*
G01*
X72275000Y-78700000D02*
X73675000Y-78700000D01*
G75*
G02*
X73750000Y-78775000I0J-75000D01*
G01*
X73750000Y-78925000D01*
G75*
G02*
X73675000Y-79000000I-75000J0D01*
G01*
X72275000Y-79000000D01*
G75*
G02*
X72200000Y-78925000I0J75000D01*
G01*
X72200000Y-78775000D01*
G75*
G02*
X72275000Y-78700000I75000J0D01*
G01*
G37*
G36*
G01*
X72275000Y-78200000D02*
X73675000Y-78200000D01*
G75*
G02*
X73750000Y-78275000I0J-75000D01*
G01*
X73750000Y-78425000D01*
G75*
G02*
X73675000Y-78500000I-75000J0D01*
G01*
X72275000Y-78500000D01*
G75*
G02*
X72200000Y-78425000I0J75000D01*
G01*
X72200000Y-78275000D01*
G75*
G02*
X72275000Y-78200000I75000J0D01*
G01*
G37*
G36*
G01*
X72275000Y-77700000D02*
X73675000Y-77700000D01*
G75*
G02*
X73750000Y-77775000I0J-75000D01*
G01*
X73750000Y-77925000D01*
G75*
G02*
X73675000Y-78000000I-75000J0D01*
G01*
X72275000Y-78000000D01*
G75*
G02*
X72200000Y-77925000I0J75000D01*
G01*
X72200000Y-77775000D01*
G75*
G02*
X72275000Y-77700000I75000J0D01*
G01*
G37*
G36*
G01*
X72275000Y-77200000D02*
X73675000Y-77200000D01*
G75*
G02*
X73750000Y-77275000I0J-75000D01*
G01*
X73750000Y-77425000D01*
G75*
G02*
X73675000Y-77500000I-75000J0D01*
G01*
X72275000Y-77500000D01*
G75*
G02*
X72200000Y-77425000I0J75000D01*
G01*
X72200000Y-77275000D01*
G75*
G02*
X72275000Y-77200000I75000J0D01*
G01*
G37*
G36*
G01*
X72275000Y-76700000D02*
X73675000Y-76700000D01*
G75*
G02*
X73750000Y-76775000I0J-75000D01*
G01*
X73750000Y-76925000D01*
G75*
G02*
X73675000Y-77000000I-75000J0D01*
G01*
X72275000Y-77000000D01*
G75*
G02*
X72200000Y-76925000I0J75000D01*
G01*
X72200000Y-76775000D01*
G75*
G02*
X72275000Y-76700000I75000J0D01*
G01*
G37*
G36*
G01*
X72275000Y-76200000D02*
X73675000Y-76200000D01*
G75*
G02*
X73750000Y-76275000I0J-75000D01*
G01*
X73750000Y-76425000D01*
G75*
G02*
X73675000Y-76500000I-75000J0D01*
G01*
X72275000Y-76500000D01*
G75*
G02*
X72200000Y-76425000I0J75000D01*
G01*
X72200000Y-76275000D01*
G75*
G02*
X72275000Y-76200000I75000J0D01*
G01*
G37*
G36*
G01*
X72275000Y-75700000D02*
X73675000Y-75700000D01*
G75*
G02*
X73750000Y-75775000I0J-75000D01*
G01*
X73750000Y-75925000D01*
G75*
G02*
X73675000Y-76000000I-75000J0D01*
G01*
X72275000Y-76000000D01*
G75*
G02*
X72200000Y-75925000I0J75000D01*
G01*
X72200000Y-75775000D01*
G75*
G02*
X72275000Y-75700000I75000J0D01*
G01*
G37*
G36*
G01*
X72275000Y-75200000D02*
X73675000Y-75200000D01*
G75*
G02*
X73750000Y-75275000I0J-75000D01*
G01*
X73750000Y-75425000D01*
G75*
G02*
X73675000Y-75500000I-75000J0D01*
G01*
X72275000Y-75500000D01*
G75*
G02*
X72200000Y-75425000I0J75000D01*
G01*
X72200000Y-75275000D01*
G75*
G02*
X72275000Y-75200000I75000J0D01*
G01*
G37*
G36*
G01*
X72275000Y-74700000D02*
X73675000Y-74700000D01*
G75*
G02*
X73750000Y-74775000I0J-75000D01*
G01*
X73750000Y-74925000D01*
G75*
G02*
X73675000Y-75000000I-75000J0D01*
G01*
X72275000Y-75000000D01*
G75*
G02*
X72200000Y-74925000I0J75000D01*
G01*
X72200000Y-74775000D01*
G75*
G02*
X72275000Y-74700000I75000J0D01*
G01*
G37*
%TD*%
D21*
%TO.C,U6*%
X67461000Y-56436000D03*
D22*
X70161000Y-58341000D03*
X70161000Y-57071000D03*
X70161000Y-55801000D03*
X70161000Y-54531000D03*
X64761000Y-54531000D03*
X64761000Y-55801000D03*
X64761000Y-57071000D03*
X64761000Y-58341000D03*
%TD*%
D23*
%TO.C,Y1*%
X70500000Y-67250000D03*
X68300000Y-67250000D03*
X68300000Y-68950000D03*
X70500000Y-68950000D03*
%TD*%
%TO.C,J2*%
G36*
G01*
X96609000Y-86729000D02*
X95859000Y-86729000D01*
G75*
G02*
X95484000Y-86354000I0J375000D01*
G01*
X95484000Y-85604000D01*
G75*
G02*
X95859000Y-85229000I375000J0D01*
G01*
X96609000Y-85229000D01*
G75*
G02*
X96984000Y-85604000I0J-375000D01*
G01*
X96984000Y-86354000D01*
G75*
G02*
X96609000Y-86729000I-375000J0D01*
G01*
G37*
G36*
G01*
X94609000Y-86729000D02*
X93859000Y-86729000D01*
G75*
G02*
X93484000Y-86354000I0J375000D01*
G01*
X93484000Y-85604000D01*
G75*
G02*
X93859000Y-85229000I375000J0D01*
G01*
X94609000Y-85229000D01*
G75*
G02*
X94984000Y-85604000I0J-375000D01*
G01*
X94984000Y-86354000D01*
G75*
G02*
X94609000Y-86729000I-375000J0D01*
G01*
G37*
%TD*%
%TO.C,J3*%
G36*
G01*
X94609000Y-77750000D02*
X93859000Y-77750000D01*
G75*
G02*
X93484000Y-77375000I0J375000D01*
G01*
X93484000Y-76625000D01*
G75*
G02*
X93859000Y-76250000I375000J0D01*
G01*
X94609000Y-76250000D01*
G75*
G02*
X94984000Y-76625000I0J-375000D01*
G01*
X94984000Y-77375000D01*
G75*
G02*
X94609000Y-77750000I-375000J0D01*
G01*
G37*
G36*
G01*
X96609000Y-77750000D02*
X95859000Y-77750000D01*
G75*
G02*
X95484000Y-77375000I0J375000D01*
G01*
X95484000Y-76625000D01*
G75*
G02*
X95859000Y-76250000I375000J0D01*
G01*
X96609000Y-76250000D01*
G75*
G02*
X96984000Y-76625000I0J-375000D01*
G01*
X96984000Y-77375000D01*
G75*
G02*
X96609000Y-77750000I-375000J0D01*
G01*
G37*
%TD*%
%TO.C,J4*%
G36*
G01*
X96609000Y-80750000D02*
X95859000Y-80750000D01*
G75*
G02*
X95484000Y-80375000I0J375000D01*
G01*
X95484000Y-79625000D01*
G75*
G02*
X95859000Y-79250000I375000J0D01*
G01*
X96609000Y-79250000D01*
G75*
G02*
X96984000Y-79625000I0J-375000D01*
G01*
X96984000Y-80375000D01*
G75*
G02*
X96609000Y-80750000I-375000J0D01*
G01*
G37*
G36*
G01*
X94609000Y-80750000D02*
X93859000Y-80750000D01*
G75*
G02*
X93484000Y-80375000I0J375000D01*
G01*
X93484000Y-79625000D01*
G75*
G02*
X93859000Y-79250000I375000J0D01*
G01*
X94609000Y-79250000D01*
G75*
G02*
X94984000Y-79625000I0J-375000D01*
G01*
X94984000Y-80375000D01*
G75*
G02*
X94609000Y-80750000I-375000J0D01*
G01*
G37*
%TD*%
%TO.C,J5*%
G36*
G01*
X57950000Y-70975000D02*
X57950000Y-70225000D01*
G75*
G02*
X58325000Y-69850000I375000J0D01*
G01*
X59075000Y-69850000D01*
G75*
G02*
X59450000Y-70225000I0J-375000D01*
G01*
X59450000Y-70975000D01*
G75*
G02*
X59075000Y-71350000I-375000J0D01*
G01*
X58325000Y-71350000D01*
G75*
G02*
X57950000Y-70975000I0J375000D01*
G01*
G37*
G36*
G01*
X57950000Y-72975000D02*
X57950000Y-72225000D01*
G75*
G02*
X58325000Y-71850000I375000J0D01*
G01*
X59075000Y-71850000D01*
G75*
G02*
X59450000Y-72225000I0J-375000D01*
G01*
X59450000Y-72975000D01*
G75*
G02*
X59075000Y-73350000I-375000J0D01*
G01*
X58325000Y-73350000D01*
G75*
G02*
X57950000Y-72975000I0J375000D01*
G01*
G37*
%TD*%
%TO.C,J6*%
G36*
G01*
X96609000Y-83750000D02*
X95859000Y-83750000D01*
G75*
G02*
X95484000Y-83375000I0J375000D01*
G01*
X95484000Y-82625000D01*
G75*
G02*
X95859000Y-82250000I375000J0D01*
G01*
X96609000Y-82250000D01*
G75*
G02*
X96984000Y-82625000I0J-375000D01*
G01*
X96984000Y-83375000D01*
G75*
G02*
X96609000Y-83750000I-375000J0D01*
G01*
G37*
G36*
G01*
X94609000Y-83750000D02*
X93859000Y-83750000D01*
G75*
G02*
X93484000Y-83375000I0J375000D01*
G01*
X93484000Y-82625000D01*
G75*
G02*
X93859000Y-82250000I375000J0D01*
G01*
X94609000Y-82250000D01*
G75*
G02*
X94984000Y-82625000I0J-375000D01*
G01*
X94984000Y-83375000D01*
G75*
G02*
X94609000Y-83750000I-375000J0D01*
G01*
G37*
%TD*%
%TO.C,J8*%
G36*
G01*
X54262700Y-86725000D02*
X54262700Y-87475000D01*
G75*
G02*
X53887700Y-87850000I-375000J0D01*
G01*
X53137700Y-87850000D01*
G75*
G02*
X52762700Y-87475000I0J375000D01*
G01*
X52762700Y-86725000D01*
G75*
G02*
X53137700Y-86350000I375000J0D01*
G01*
X53887700Y-86350000D01*
G75*
G02*
X54262700Y-86725000I0J-375000D01*
G01*
G37*
G36*
G01*
X54250000Y-88725000D02*
X54250000Y-89475000D01*
G75*
G02*
X53875000Y-89850000I-375000J0D01*
G01*
X53125000Y-89850000D01*
G75*
G02*
X52750000Y-89475000I0J375000D01*
G01*
X52750000Y-88725000D01*
G75*
G02*
X53125000Y-88350000I375000J0D01*
G01*
X53875000Y-88350000D01*
G75*
G02*
X54250000Y-88725000I0J-375000D01*
G01*
G37*
G36*
G01*
X54250000Y-90725000D02*
X54250000Y-91475000D01*
G75*
G02*
X53875000Y-91850000I-375000J0D01*
G01*
X53125000Y-91850000D01*
G75*
G02*
X52750000Y-91475000I0J375000D01*
G01*
X52750000Y-90725000D01*
G75*
G02*
X53125000Y-90350000I375000J0D01*
G01*
X53875000Y-90350000D01*
G75*
G02*
X54250000Y-90725000I0J-375000D01*
G01*
G37*
%TD*%
%TO.C,J9*%
G36*
G01*
X96950000Y-92125000D02*
X96950000Y-92875000D01*
G75*
G02*
X96575000Y-93250000I-375000J0D01*
G01*
X95825000Y-93250000D01*
G75*
G02*
X95450000Y-92875000I0J375000D01*
G01*
X95450000Y-92125000D01*
G75*
G02*
X95825000Y-91750000I375000J0D01*
G01*
X96575000Y-91750000D01*
G75*
G02*
X96950000Y-92125000I0J-375000D01*
G01*
G37*
G36*
G01*
X96950000Y-90125000D02*
X96950000Y-90875000D01*
G75*
G02*
X96575000Y-91250000I-375000J0D01*
G01*
X95825000Y-91250000D01*
G75*
G02*
X95450000Y-90875000I0J375000D01*
G01*
X95450000Y-90125000D01*
G75*
G02*
X95825000Y-89750000I375000J0D01*
G01*
X96575000Y-89750000D01*
G75*
G02*
X96950000Y-90125000I0J-375000D01*
G01*
G37*
G36*
G01*
X96962700Y-88125000D02*
X96962700Y-88875000D01*
G75*
G02*
X96587700Y-89250000I-375000J0D01*
G01*
X95837700Y-89250000D01*
G75*
G02*
X95462700Y-88875000I0J375000D01*
G01*
X95462700Y-88125000D01*
G75*
G02*
X95837700Y-87750000I375000J0D01*
G01*
X96587700Y-87750000D01*
G75*
G02*
X96962700Y-88125000I0J-375000D01*
G01*
G37*
%TD*%
%TO.C,J10*%
G36*
G01*
X94609000Y-74750000D02*
X93859000Y-74750000D01*
G75*
G02*
X93484000Y-74375000I0J375000D01*
G01*
X93484000Y-73625000D01*
G75*
G02*
X93859000Y-73250000I375000J0D01*
G01*
X94609000Y-73250000D01*
G75*
G02*
X94984000Y-73625000I0J-375000D01*
G01*
X94984000Y-74375000D01*
G75*
G02*
X94609000Y-74750000I-375000J0D01*
G01*
G37*
G36*
G01*
X96609000Y-74750000D02*
X95859000Y-74750000D01*
G75*
G02*
X95484000Y-74375000I0J375000D01*
G01*
X95484000Y-73625000D01*
G75*
G02*
X95859000Y-73250000I375000J0D01*
G01*
X96609000Y-73250000D01*
G75*
G02*
X96984000Y-73625000I0J-375000D01*
G01*
X96984000Y-74375000D01*
G75*
G02*
X96609000Y-74750000I-375000J0D01*
G01*
G37*
%TD*%
%TO.C,J12*%
G36*
G01*
X93759000Y-70416000D02*
X94509000Y-70416000D01*
G75*
G02*
X94884000Y-70791000I0J-375000D01*
G01*
X94884000Y-71541000D01*
G75*
G02*
X94509000Y-71916000I-375000J0D01*
G01*
X93759000Y-71916000D01*
G75*
G02*
X93384000Y-71541000I0J375000D01*
G01*
X93384000Y-70791000D01*
G75*
G02*
X93759000Y-70416000I375000J0D01*
G01*
G37*
G36*
G01*
X95759000Y-70416000D02*
X96509000Y-70416000D01*
G75*
G02*
X96884000Y-70791000I0J-375000D01*
G01*
X96884000Y-71541000D01*
G75*
G02*
X96509000Y-71916000I-375000J0D01*
G01*
X95759000Y-71916000D01*
G75*
G02*
X95384000Y-71541000I0J375000D01*
G01*
X95384000Y-70791000D01*
G75*
G02*
X95759000Y-70416000I375000J0D01*
G01*
G37*
%TD*%
%TO.C,J14*%
G36*
G01*
X52661900Y-70950000D02*
X52661900Y-69450000D01*
G75*
G02*
X53411900Y-68700000I750000J0D01*
G01*
X54911900Y-68700000D01*
G75*
G02*
X55661900Y-69450000I0J-750000D01*
G01*
X55661900Y-70950000D01*
G75*
G02*
X54911900Y-71700000I-750000J0D01*
G01*
X53411900Y-71700000D01*
G75*
G02*
X52661900Y-70950000I0J750000D01*
G01*
G37*
G36*
G01*
X52725400Y-66950000D02*
X52725400Y-65450000D01*
G75*
G02*
X53475400Y-64700000I750000J0D01*
G01*
X54975400Y-64700000D01*
G75*
G02*
X55725400Y-65450000I0J-750000D01*
G01*
X55725400Y-66950000D01*
G75*
G02*
X54975400Y-67700000I-750000J0D01*
G01*
X53475400Y-67700000D01*
G75*
G02*
X52725400Y-66950000I0J750000D01*
G01*
G37*
%TD*%
D24*
%TO.C,U5*%
X84850000Y-68000000D03*
X84850000Y-63400000D03*
X84850000Y-65700000D03*
D25*
X78550000Y-65700000D03*
%TD*%
%TO.C,C17*%
G36*
G01*
X71980000Y-70427500D02*
X71980000Y-70772500D01*
G75*
G02*
X71832500Y-70920000I-147500J0D01*
G01*
X71537500Y-70920000D01*
G75*
G02*
X71390000Y-70772500I0J147500D01*
G01*
X71390000Y-70427500D01*
G75*
G02*
X71537500Y-70280000I147500J0D01*
G01*
X71832500Y-70280000D01*
G75*
G02*
X71980000Y-70427500I0J-147500D01*
G01*
G37*
G36*
G01*
X71010000Y-70427500D02*
X71010000Y-70772500D01*
G75*
G02*
X70862500Y-70920000I-147500J0D01*
G01*
X70567500Y-70920000D01*
G75*
G02*
X70420000Y-70772500I0J147500D01*
G01*
X70420000Y-70427500D01*
G75*
G02*
X70567500Y-70280000I147500J0D01*
G01*
X70862500Y-70280000D01*
G75*
G02*
X71010000Y-70427500I0J-147500D01*
G01*
G37*
%TD*%
%TO.C,D7*%
G36*
G01*
X76537500Y-71243750D02*
X76537500Y-71756250D01*
G75*
G02*
X76318750Y-71975000I-218750J0D01*
G01*
X75881250Y-71975000D01*
G75*
G02*
X75662500Y-71756250I0J218750D01*
G01*
X75662500Y-71243750D01*
G75*
G02*
X75881250Y-71025000I218750J0D01*
G01*
X76318750Y-71025000D01*
G75*
G02*
X76537500Y-71243750I0J-218750D01*
G01*
G37*
G36*
G01*
X74962500Y-71243750D02*
X74962500Y-71756250D01*
G75*
G02*
X74743750Y-71975000I-218750J0D01*
G01*
X74306250Y-71975000D01*
G75*
G02*
X74087500Y-71756250I0J218750D01*
G01*
X74087500Y-71243750D01*
G75*
G02*
X74306250Y-71025000I218750J0D01*
G01*
X74743750Y-71025000D01*
G75*
G02*
X74962500Y-71243750I0J-218750D01*
G01*
G37*
%TD*%
%TO.C,R7*%
G36*
G01*
X76365000Y-69927500D02*
X76365000Y-70272500D01*
G75*
G02*
X76217500Y-70420000I-147500J0D01*
G01*
X75922500Y-70420000D01*
G75*
G02*
X75775000Y-70272500I0J147500D01*
G01*
X75775000Y-69927500D01*
G75*
G02*
X75922500Y-69780000I147500J0D01*
G01*
X76217500Y-69780000D01*
G75*
G02*
X76365000Y-69927500I0J-147500D01*
G01*
G37*
G36*
G01*
X75395000Y-69927500D02*
X75395000Y-70272500D01*
G75*
G02*
X75247500Y-70420000I-147500J0D01*
G01*
X74952500Y-70420000D01*
G75*
G02*
X74805000Y-70272500I0J147500D01*
G01*
X74805000Y-69927500D01*
G75*
G02*
X74952500Y-69780000I147500J0D01*
G01*
X75247500Y-69780000D01*
G75*
G02*
X75395000Y-69927500I0J-147500D01*
G01*
G37*
%TD*%
%TO.C,D8*%
G36*
G01*
X64120001Y-90551251D02*
X64120001Y-90038751D01*
G75*
G02*
X64338751Y-89820001I218750J0D01*
G01*
X64776251Y-89820001D01*
G75*
G02*
X64995001Y-90038751I0J-218750D01*
G01*
X64995001Y-90551251D01*
G75*
G02*
X64776251Y-90770001I-218750J0D01*
G01*
X64338751Y-90770001D01*
G75*
G02*
X64120001Y-90551251I0J218750D01*
G01*
G37*
G36*
G01*
X65695001Y-90551251D02*
X65695001Y-90038751D01*
G75*
G02*
X65913751Y-89820001I218750J0D01*
G01*
X66351251Y-89820001D01*
G75*
G02*
X66570001Y-90038751I0J-218750D01*
G01*
X66570001Y-90551251D01*
G75*
G02*
X66351251Y-90770001I-218750J0D01*
G01*
X65913751Y-90770001D01*
G75*
G02*
X65695001Y-90551251I0J218750D01*
G01*
G37*
%TD*%
%TO.C,R8*%
G36*
G01*
X64320000Y-91772500D02*
X64320000Y-91427500D01*
G75*
G02*
X64467500Y-91280000I147500J0D01*
G01*
X64762500Y-91280000D01*
G75*
G02*
X64910000Y-91427500I0J-147500D01*
G01*
X64910000Y-91772500D01*
G75*
G02*
X64762500Y-91920000I-147500J0D01*
G01*
X64467500Y-91920000D01*
G75*
G02*
X64320000Y-91772500I0J147500D01*
G01*
G37*
G36*
G01*
X65290000Y-91772500D02*
X65290000Y-91427500D01*
G75*
G02*
X65437500Y-91280000I147500J0D01*
G01*
X65732500Y-91280000D01*
G75*
G02*
X65880000Y-91427500I0J-147500D01*
G01*
X65880000Y-91772500D01*
G75*
G02*
X65732500Y-91920000I-147500J0D01*
G01*
X65437500Y-91920000D01*
G75*
G02*
X65290000Y-91772500I0J147500D01*
G01*
G37*
%TD*%
%TO.C,C7*%
G36*
G01*
X58743750Y-82675000D02*
X59256250Y-82675000D01*
G75*
G02*
X59475000Y-82893750I0J-218750D01*
G01*
X59475000Y-83331250D01*
G75*
G02*
X59256250Y-83550000I-218750J0D01*
G01*
X58743750Y-83550000D01*
G75*
G02*
X58525000Y-83331250I0J218750D01*
G01*
X58525000Y-82893750D01*
G75*
G02*
X58743750Y-82675000I218750J0D01*
G01*
G37*
G36*
G01*
X58743750Y-84250000D02*
X59256250Y-84250000D01*
G75*
G02*
X59475000Y-84468750I0J-218750D01*
G01*
X59475000Y-84906250D01*
G75*
G02*
X59256250Y-85125000I-218750J0D01*
G01*
X58743750Y-85125000D01*
G75*
G02*
X58525000Y-84906250I0J218750D01*
G01*
X58525000Y-84468750D01*
G75*
G02*
X58743750Y-84250000I218750J0D01*
G01*
G37*
%TD*%
%TO.C,C8*%
G36*
G01*
X74450000Y-84056250D02*
X74450000Y-83543750D01*
G75*
G02*
X74668750Y-83325000I218750J0D01*
G01*
X75106250Y-83325000D01*
G75*
G02*
X75325000Y-83543750I0J-218750D01*
G01*
X75325000Y-84056250D01*
G75*
G02*
X75106250Y-84275000I-218750J0D01*
G01*
X74668750Y-84275000D01*
G75*
G02*
X74450000Y-84056250I0J218750D01*
G01*
G37*
G36*
G01*
X72875000Y-84056250D02*
X72875000Y-83543750D01*
G75*
G02*
X73093750Y-83325000I218750J0D01*
G01*
X73531250Y-83325000D01*
G75*
G02*
X73750000Y-83543750I0J-218750D01*
G01*
X73750000Y-84056250D01*
G75*
G02*
X73531250Y-84275000I-218750J0D01*
G01*
X73093750Y-84275000D01*
G75*
G02*
X72875000Y-84056250I0J218750D01*
G01*
G37*
%TD*%
%TO.C,R13*%
G36*
G01*
X68795000Y-70227500D02*
X68795000Y-70572500D01*
G75*
G02*
X68647500Y-70720000I-147500J0D01*
G01*
X68352500Y-70720000D01*
G75*
G02*
X68205000Y-70572500I0J147500D01*
G01*
X68205000Y-70227500D01*
G75*
G02*
X68352500Y-70080000I147500J0D01*
G01*
X68647500Y-70080000D01*
G75*
G02*
X68795000Y-70227500I0J-147500D01*
G01*
G37*
G36*
G01*
X67825000Y-70227500D02*
X67825000Y-70572500D01*
G75*
G02*
X67677500Y-70720000I-147500J0D01*
G01*
X67382500Y-70720000D01*
G75*
G02*
X67235000Y-70572500I0J147500D01*
G01*
X67235000Y-70227500D01*
G75*
G02*
X67382500Y-70080000I147500J0D01*
G01*
X67677500Y-70080000D01*
G75*
G02*
X67825000Y-70227500I0J-147500D01*
G01*
G37*
%TD*%
M02*
